#
# Compatibility version : 4.3
# File ID : FJ4171
# Representation ID : BP29488
# Build-up logic : FMA 3.0 is_a
# Concept ID : FMA37074
# English name : Left axillary nerve
# Bounds(mm): (120.358900,-65.112400,1262.462900)-(196.355700,-54.431100,1317.002100)
# Volume(cm3): 0.344800
#
v 121.261 -60.2399 1289.49
v 120.947 -59.7332 1289.52
v 122.514 -61.1691 1289.57
v 122.092 -59.942 1289.16
v 120.443 -60.3195 1290.43
v 120.413 -59.7456 1290.85
v 120.763 -60.7368 1290.25
v 120.593 -60.5374 1290.85
v 120.739 -59.9636 1291.42
v 121.813 -61.1964 1290.48
v 121.414 -60.8462 1291.18
v 121.174 -59.9808 1291.68
v 120.519 -59.5858 1290.06
v 120.926 -59.178 1289.84
v 121.653 -59.4442 1289.41
v 120.6 -59.1756 1290.45
v 120.901 -59.3784 1291.43
v 120.92 -59.0093 1291.04
v 120.96 -58.8769 1290.45
v 121.106 -59.5634 1291.63
v 121.303 -59.1741 1291.49
v 121.33 -58.7538 1290.85
v 122.431 -60.7125 1291.41
v 122.559 -60.1267 1291.56
v 121.943 -59.0214 1289.77
v 121.531 -59.5622 1291.71
v 121.522 -58.9055 1291.24
v 121.976 -59.2344 1291.45
v 121.889 -58.7535 1290.4
v 122.617 -59.7291 1291.5
v 122.413 -59.0848 1291.12
v 122.224 -58.8532 1290.77
v 127.38 -60.1339 1288.95
v 127.53 -60.2581 1289.67
v 130.695 -61.4732 1287.24
v 130.187 -61.2063 1289.41
v 130.428 -63.0345 1289.04
v 131.507 -61.0944 1288.4
v 133.634 -62.9785 1286.29
v 132.862 -63.0604 1288.82
v 132.913 -62.4112 1288.95
v 134.501 -64.0361 1287.16
v 135.845 -62.3417 1285.98
v 135.812 -64.0206 1286.14
v 136.092 -61.9755 1286.52
v 136.478 -62.0599 1287.3
v 137.928 -63.0665 1285.21
v 139.128 -63.9577 1284.91
v 140.386 -64.4628 1286.65
v 139.242 -63.5102 1287.31
v 141.848 -64.9492 1285.65
v 140.92 -62.5389 1285.3
v 140.6 -62.6995 1286.47
v 143.055 -64.8916 1284.52
v 142.933 -62.8908 1284.27
v 144.852 -64.8688 1285.22
v 145.06 -65.056 1284.59
v 143.666 -63.6607 1283.62
v 144.793 -62.6893 1284.92
v 145.814 -62.9432 1283.42
v 146.243 -63.142 1285.23
v 145.78 -63.9305 1285.54
v 148.515 -63.9854 1282.35
v 148.93 -64.5247 1282.67
v 149.879 -64.1403 1284.22
v 151.06 -62.8894 1283.98
v 150.276 -62.5997 1282.03
v 149.067 -62.4411 1283.76
v 149.493 -62.6413 1284.09
v 150.043 -64.618 1283.5
v 151.713 -63.4631 1283.84
v 152.467 -64.0835 1283.06
v 152.731 -64.1662 1282.14
v 152.201 -62.0442 1283.13
v 152.711 -61.7005 1282.19
v 154.528 -63.2718 1282.83
v 158.602 -60.2027 1280.74
v 160.097 -61.9781 1279.27
v 160.797 -60.9081 1278.63
v 159.561 -60.0021 1279.78
v 160.433 -59.9372 1280.6
v 161.19 -59.5799 1279.86
v 161.225 -61.8736 1280.54
v 161.388 -62.0588 1279.8
v 162.219 -59.8677 1278.48
v 162.271 -60.9457 1280.73
v 163.992 -61.585 1279.25
v 164.39 -60.9745 1277.83
v 163.154 -59.2923 1278.86
v 162.796 -59.7071 1280.21
v 164.159 -59.2476 1279.47
v 164.609 -61.4196 1278.3
v 165.474 -60.1957 1277.37
v 164.946 -60.9978 1279.78
v 166.846 -61.4136 1278.04
v 166.922 -61.2685 1278.85
v 166.393 -60.4017 1279.62
v 167.877 -60.0227 1279.28
v 166.241 -59.3835 1277.51
v 166.537 -59.0158 1278.28
v 166.386 -59.6708 1279.47
v 167.984 -60.9946 1277.04
v 169.491 -60.9653 1278.71
v 168.837 -59.2876 1277.11
v 170.977 -61.5584 1276.91
v 170.396 -61.5956 1277.53
v 169.658 -59.7881 1276.57
v 172.021 -60.9088 1276.1
v 172.269 -60.3728 1278.43
v 171.229 -59.334 1277.83
v 174.018 -61.7372 1276.29
v 173.116 -61.3626 1278.07
v 173.541 -59.5468 1276.68
v 175.408 -62.0768 1276.93
v 176.217 -61.5021 1277.89
v 176.969 -62.0061 1277.5
v 175.988 -60.3618 1275.86
v 176.931 -61.1818 1275.67
v 176.141 -60.1406 1277.67
v 176.464 -60.7599 1277.97
v 178.322 -62.0524 1276.1
v 178.06 -61.7373 1277.8
v 178.169 -61.3286 1277.94
v 178.42 -60.0809 1276.57
v 178.563 -60.5575 1277.74
v 180.322 -61.7329 1275.97
v 180.115 -61.7343 1277.94
v 180.859 -62.3104 1276.71
v 180.601 -62.2661 1277.47
v 181.549 -60.9462 1276.09
v 181.264 -60.9332 1278.09
v 182.813 -61.9741 1278.11
v 182.094 -60.3315 1276.68
v 182.304 -60.1655 1277.26
v 183.275 -61.1237 1278.55
v 184.518 -61.919 1277.31
v 184.681 -61.9984 1278.11
v 184.411 -60.5129 1276.92
v 184.104 -60.078 1278.06
v 185.109 -60.3785 1279.01
v 185.421 -61.2812 1277.17
v 185.615 -61.569 1278.95
v 186.811 -59.8651 1278.01
v 186.764 -59.6259 1278.38
v 185.497 -60.7825 1279.3
v 187.155 -60.1498 1277.76
v 187.267 -59.6641 1277.92
v 187.104 -59.5625 1278.26
v 187.233 -60.58 1277.85
v 187.414 -60.8079 1278
v 187.64 -60.4548 1277.75
v 187.763 -60.8636 1278.1
v 188.504 -60.5686 1278.46
v 188.504 -59.5572 1278.66
v 187.544 -59.9658 1280.29
v 188.453 -60.9698 1279.28
v 188.361 -60.3635 1280.69
v 187.904 -59.3717 1278.86
v 187.904 -59.2811 1278.66
v 188.535 -59.2691 1278.42
v 188.304 -59.428 1278.86
v 188.622 -59.5545 1278.86
v 187.268 -59.3793 1279.12
v 187.478 -59.4513 1279.84
v 188.482 -59.3302 1280.73
v 189.558 -59.8071 1276.6
v 188.726 -59.7469 1281.08
v 189.067 -60.5967 1280.65
v 189.774 -59.7528 1281.78
v 189.816 -59.2154 1275.86
v 189.92 -58.4832 1275.48
v 189.4 -58.6815 1280.67
v 189.918 -59.1421 1282.07
v 190.024 -57.9545 1275.66
v 191.104 -59.9686 1281.66
v 190.784 -59.083 1275.34
v 190.911 -58.1822 1274.47
v 190.831 -59.282 1276.09
v 190.151 -58.7446 1280.37
v 190.968 -58.1584 1281.64
v 191.831 -59.1545 1281.46
v 190.494 -58.375 1282.28
v 191.227 -59.1102 1283.31
v 191.384 -58.1955 1283.64
v 191.9 -57.3853 1273.24
v 190.917 -57.7734 1274.48
v 190.904 -57.5545 1275.63
v 191.111 -57.3758 1274.85
v 191.326 -57.3709 1274.24
v 191.971 -57.9097 1284.59
v 192.104 -58.4408 1273.68
v 192.504 -58.4811 1274.06
v 192.96 -58.3005 1272.73
v 192.021 -59.2811 1283.58
v 192.269 -57.9888 1282.54
v 192.117 -58.3547 1284.85
v 193.104 -58.9374 1284.26
v 193.057 -58.7362 1285.32
v 193.072 -58.3652 1286.25
v 193.026 -57.5798 1271.09
v 192.932 -56.9268 1271.95
v 192.895 -56.8343 1272.46
v 192.212 -57.9933 1272.9
v 192.093 -57.0213 1273.85
v 192.475 -57.1499 1274.05
v 192.453 -56.9405 1272.91
v 193.092 -56.8658 1272.67
v 193.352 -57.1906 1273.03
v 192.137 -58.0602 1275
v 192.461 -57.3742 1284.45
v 193.415 -57.9567 1283.98
v 192.66 -57.7529 1286.08
v 193.249 -56.9379 1286.81
v 193.149 -57.8895 1287.17
v 193.295 -57.0165 1287.63
v 193.486 -57.1501 1288.93
v 192.86 -55.0028 1301.79
v 192.964 -55.4172 1302.71
v 193.309 -55.4172 1303.72
v 192.731 -54.9517 1304.91
v 192.832 -55.1558 1305.52
v 193.104 -55.3342 1306.06
v 192.836 -54.9483 1306.34
v 193.328 -55.1671 1308.84
v 193.149 -54.7135 1301.11
v 192.916 -54.5805 1303.32
v 193.12 -54.4984 1302.99
v 193.305 -54.4906 1303.12
v 192.928 -54.5811 1305.86
v 193.112 -54.4469 1304.66
v 193.332 -54.4767 1305.12
v 193.325 -54.5345 1307.42
v 193.258 -54.7729 1308.43
v 194.659 -60.1545 1262.66
v 194.665 -59.9545 1262.66
v 194.628 -59.9545 1262.86
v 194.904 -60.3749 1262.66
v 194.904 -59.9545 1262.46
v 194.886 -59.6877 1262.95
v 194.66 -60.0493 1263.31
v 194.704 -59.1155 1264.26
v 194.893 -58.5888 1265.84
v 194.194 -58.5865 1266.64
v 194.327 -58.8558 1267.24
v 194.857 -59.0367 1266.63
v 194.942 -58.7791 1267.03
v 194.946 -58.3763 1267.17
v 193.811 -58.1612 1268.91
v 194.49 -58.4481 1269.19
v 194.793 -58.1241 1268.74
v 193.897 -58.2844 1270.81
v 194.112 -58.4263 1269.54
v 194.289 -58.1989 1270.4
v 193.473 -58.1903 1271.05
v 193.68 -58.1277 1287.62
v 194.512 -57.9777 1267.17
v 193.703 -57.5642 1269.28
v 194.141 -57.8445 1267.8
v 194.499 -57.4936 1269.03
v 193.703 -57.0705 1270.29
v 194.105 -57.2351 1269.53
v 194.088 -57.1049 1270.28
v 194.373 -57.3756 1270.44
v 194.468 -57.7566 1270.49
v 193.719 -57.0087 1271.96
v 193.65 -56.9152 1271.16
v 193.896 -57.7808 1272.13
v 194.085 -57.3651 1271.65
v 193.668 -57.0373 1285.68
v 194.296 -57.1483 1286.43
v 194.615 -57.5545 1286.86
v 194.018 -56.5008 1288.19
v 193.581 -56.7368 1288.75
v 193.906 -57.6367 1289.51
v 194.606 -57.7169 1289.16
v 193.877 -56.9248 1291.84
v 193.79 -56.5262 1291.1
v 194.641 -56.9437 1293.63
v 194.487 -56.3221 1289.4
v 194.257 -55.9008 1292.23
v 194.885 -55.9232 1292.57
v 194.469 -55.4929 1294.7
v 194.99 -55.9496 1294.58
v 193.641 -56.1187 1296
v 193.855 -55.5495 1295.48
v 194.7 -56.3134 1296.04
v 193.903 -56.316 1297.03
v 194.269 -55.1139 1298.17
v 193.718 -54.9855 1298.21
v 193.917 -54.9207 1298.56
v 193.875 -54.8316 1299.58
v 193.542 -55.6459 1301.37
v 193.821 -54.9545 1302.06
v 193.573 -55.1559 1304.33
v 193.502 -55.2237 1305.51
v 193.637 -54.9759 1305.31
v 193.52 -55.3288 1307.24
v 193.806 -55.1545 1307.66
v 193.977 -55.4594 1309.58
v 194.304 -55.3592 1310.26
v 194.558 -55.1682 1311.04
v 193.943 -55.1551 1311.25
v 194.496 -54.9752 1311.66
v 195.021 -55.7545 1314.46
v 193.527 -54.7399 1300
v 193.487 -54.6173 1301.32
v 193.537 -54.6039 1302.62
v 193.612 -54.7545 1304.66
v 193.518 -54.5414 1307
v 193.746 -54.7813 1307.03
v 193.917 -54.723 1309.41
v 193.921 -54.7829 1310.22
v 195.146 -60.1545 1262.66
v 195.086 -60.0637 1263.29
v 195.137 -59.9545 1262.86
v 195.174 -56.7545 1290.26
v 195.058 -56.927 1292.34
v 195.269 -55.3705 1313.7
v 195.504 -55.7545 1314.23
v 195.102 -55.3481 1314.19
v 195.904 -55.9545 1316.86
v 196.104 -56.1749 1316.46
v 196.104 -56.1967 1316.86
v 196.166 -55.9363 1316.13
v 196.104 -55.9545 1317
v 196.063 -55.7518 1315.89
v 196.046 -55.6749 1316.28
v 196.122 -55.7545 1316.86
v 196.356 -55.9545 1316.86
v 120.947 -59.7332 1289.52
v 120.443 -60.3195 1290.43
v 120.593 -60.5374 1290.85
v 120.739 -59.9636 1291.42
v 120.519 -59.5858 1290.06
v 136.478 -62.0599 1287.3
v 139.242 -63.5102 1287.31
v 140.6 -62.6995 1286.47
v 150.276 -62.5997 1282.03
v 149.067 -62.4411 1283.76
v 160.797 -60.9081 1278.63
v 166.393 -60.4017 1279.62
v 166.537 -59.0158 1278.28
v 169.491 -60.9653 1278.71
v 172.269 -60.3728 1278.43
v 171.229 -59.334 1277.83
v 173.116 -61.3626 1278.07
v 173.541 -59.5468 1276.68
v 176.141 -60.1406 1277.67
v 178.42 -60.0809 1276.57
v 178.563 -60.5575 1277.74
v 182.304 -60.1655 1277.26
v 183.275 -61.1237 1278.55
v 184.411 -60.5129 1276.92
v 184.411 -60.5129 1276.92
v 184.104 -60.078 1278.06
v 185.421 -61.2812 1277.17
v 186.811 -59.8651 1278.01
v 187.155 -60.1498 1277.76
v 187.155 -60.1498 1277.76
v 187.155 -60.1498 1277.76
v 187.267 -59.6641 1277.92
v 187.104 -59.5625 1278.26
v 187.233 -60.58 1277.85
v 187.414 -60.8079 1278
v 187.414 -60.8079 1278
v 187.763 -60.8636 1278.1
v 188.504 -60.5686 1278.46
v 188.504 -60.5686 1278.46
v 188.504 -59.5572 1278.66
v 188.504 -59.5572 1278.66
v 188.504 -59.5572 1278.66
v 187.904 -59.3717 1278.86
v 187.904 -59.2811 1278.66
v 188.304 -59.428 1278.86
v 188.304 -59.428 1278.86
v 188.622 -59.5545 1278.86
v 187.268 -59.3793 1279.12
v 187.268 -59.3793 1279.12
v 189.774 -59.7528 1281.78
v 191.104 -59.9686 1281.66
v 191.104 -59.9686 1281.66
v 190.784 -59.083 1275.34
v 190.831 -59.282 1276.09
v 190.968 -58.1584 1281.64
v 191.831 -59.1545 1281.46
v 190.494 -58.375 1282.28
v 191.227 -59.1102 1283.31
v 191.384 -58.1955 1283.64
v 190.904 -57.5545 1275.63
v 192.504 -58.4811 1274.06
v 192.504 -58.4811 1274.06
v 192.96 -58.3005 1272.73
v 192.96 -58.3005 1272.73
v 192.117 -58.3547 1284.85
v 193.104 -58.9374 1284.26
v 193.026 -57.5798 1271.09
v 192.212 -57.9933 1272.9
v 192.475 -57.1499 1274.05
v 192.461 -57.3742 1284.45
v 193.415 -57.9567 1283.98
v 192.86 -55.0028 1301.79
v 192.964 -55.4172 1302.71
v 192.731 -54.9517 1304.91
v 193.104 -55.3342 1306.06
v 192.836 -54.9483 1306.34
v 193.328 -55.1671 1308.84
v 194.659 -60.1545 1262.66
v 194.659 -60.1545 1262.66
v 194.665 -59.9545 1262.66
v 194.665 -59.9545 1262.66
v 194.628 -59.9545 1262.86
v 194.904 -60.3749 1262.66
v 194.904 -60.3749 1262.66
v 194.904 -60.3749 1262.66
v 194.904 -59.9545 1262.46
v 194.904 -59.9545 1262.46
v 194.904 -59.9545 1262.46
v 194.886 -59.6877 1262.95
v 194.66 -60.0493 1263.31
v 194.704 -59.1155 1264.26
v 194.194 -58.5865 1266.64
v 194.327 -58.8558 1267.24
v 194.327 -58.8558 1267.24
v 194.512 -57.9777 1267.17
v 194.105 -57.2351 1269.53
v 194.615 -57.5545 1286.86
v 193.906 -57.6367 1289.51
v 194.606 -57.7169 1289.16
v 194.606 -57.7169 1289.16
v 193.877 -56.9248 1291.84
v 193.79 -56.5262 1291.1
v 194.641 -56.9437 1293.63
v 194.641 -56.9437 1293.63
v 193.641 -56.1187 1296
v 194.7 -56.3134 1296.04
v 193.903 -56.316 1297.03
v 193.903 -56.316 1297.03
v 193.542 -55.6459 1301.37
v 193.542 -55.6459 1301.37
v 193.821 -54.9545 1302.06
v 193.977 -55.4594 1309.58
v 194.304 -55.3592 1310.26
v 194.304 -55.3592 1310.26
v 193.943 -55.1551 1311.25
v 194.496 -54.9752 1311.66
v 195.021 -55.7545 1314.46
v 195.021 -55.7545 1314.46
v 195.021 -55.7545 1314.46
v 193.612 -54.7545 1304.66
v 193.518 -54.5414 1307
v 193.746 -54.7813 1307.03
v 193.917 -54.723 1309.41
v 193.917 -54.723 1309.41
v 193.921 -54.7829 1310.22
v 195.146 -60.1545 1262.66
v 195.146 -60.1545 1262.66
v 195.146 -60.1545 1262.66
v 195.086 -60.0637 1263.29
v 195.058 -56.927 1292.34
v 195.269 -55.3705 1313.7
v 195.504 -55.7545 1314.23
v 195.504 -55.7545 1314.23
v 195.504 -55.7545 1314.23
v 195.102 -55.3481 1314.19
v 195.904 -55.9545 1316.86
v 195.904 -55.9545 1316.86
v 196.104 -56.1749 1316.46
v 196.104 -56.1967 1316.86
v 196.104 -56.1967 1316.86
v 196.104 -56.1967 1316.86
v 196.104 -56.1967 1316.86
v 196.166 -55.9363 1316.13
v 196.104 -55.9545 1317
v 196.104 -55.9545 1317
v 196.104 -55.9545 1317
v 196.122 -55.7545 1316.86
v 196.122 -55.7545 1316.86
v 196.122 -55.7545 1316.86
v 196.356 -55.9545 1316.86
v 196.356 -55.9545 1316.86
v 196.356 -55.9545 1316.86
vn -0.529607 -0.363864 -0.766237
vn -0.416985 0.237804 -0.877253
vn -0.338079 -0.764166 -0.54932
vn -0.241745 0.103444 -0.96481
vn -0.717744 -0.258188 -0.64667
vn -0.952626 0.15886 0.259358
vn -0.599757 -0.731242 -0.324927
vn -0.760269 -0.61124 0.219947
vn -0.733038 0.0493574 0.678395
vn -0.305504 -0.950263 0.0605561
vn -0.287176 -0.738215 0.610384
vn -0.200078 -0.245368 0.948559
vn -0.74628 -0.346112 -0.568571
vn -0.480335 0.648116 -0.590952
vn -0.187001 0.492228 -0.850142
vn -0.804468 0.588909 -0.077577
vn -0.634863 0.413073 0.652932
vn -0.564046 0.726152 0.393135
vn -0.379852 0.90685 -0.18258
vn -0.381877 0.2341 0.894073
vn -0.186756 0.606378 0.772935
vn -0.136188 0.971682 0.193097
vn 0.0259884 -0.504852 0.862814
vn 0.162479 -0.113805 0.980127
vn -0.0435942 0.844954 -0.533059
vn 0.0442262 0.24247 0.96915
vn 0.0156184 0.833915 0.551672
vn 0.222101 0.576795 0.786116
vn 0.0474986 0.986446 -0.157059
vn 0.272651 0.303097 0.913123
vn 0.289221 0.780727 0.55391
vn 0.223844 0.943504 0.244323
vn 0.200888 0.964409 -0.171927
vn 0.304181 0.888596 0.343325
vn -0.0445115 0.667557 -0.743227
vn 0.327172 0.640446 0.694829
vn -0.0533275 -0.856673 0.513096
vn 0.220031 0.973491 0.062456
vn -0.28079 -0.157618 -0.946739
vn 0.12791 -0.516935 0.846414
vn 0.282835 0.24607 0.927067
vn -0.147175 -0.987169 0.0619476
vn -0.0557308 0.72423 -0.687303
vn -0.271976 -0.752441 -0.599885
vn 0.0678577 0.954765 -0.289515
vn 0.196084 0.965242 0.172799
vn -0.164374 0.517503 -0.839745
vn -0.262023 -0.428693 -0.864619
vn 0.118999 -0.685455 0.718325
vn 0.206316 -0.324442 0.923131
vn -0.0215422 -0.981402 0.190752
vn -0.00267589 0.952957 -0.303093
vn 0.2567 0.540098 0.801499
vn -0.168879 -0.861419 -0.478996
vn -0.178718 0.679048 -0.712007
vn 0.176189 -0.785237 0.593599
vn 0.028302 -0.999554 -0.00948765
vn -0.253274 0.261844 -0.931284
vn 0.0250834 0.984778 0.171999
vn -0.171447 0.819889 -0.54625
vn 0.202031 0.567104 0.798484
vn 0.260829 -0.168092 0.950638
vn -0.232293 -0.310542 -0.92174
vn -0.0495349 -0.852561 -0.520274
vn 0.288457 -0.5849 0.75808
vn 0.188544 0.402789 0.895663
vn -0.305398 0.71898 -0.62434
vn -0.208453 0.949947 -0.232697
vn 0.096781 0.765017 0.636697
vn 0.178942 -0.957961 0.224258
vn 0.305704 -0.183128 0.93435
vn 0.306825 -0.850738 0.426735
vn 0.143782 -0.97052 -0.193436
vn -0.0230348 0.849879 0.526474
vn -0.234576 0.972021 -0.0121908
vn 0.349539 -0.550362 0.758237
vn -0.183458 0.965167 0.186537
vn -0.058094 -0.719863 -0.691681
vn -0.195536 -0.360815 -0.911909
vn -0.292627 0.909987 -0.293757
vn -0.0234288 0.840355 0.541529
vn -0.153895 0.980917 0.11882
vn 0.317863 -0.775362 0.545689
vn 0.200109 -0.97977 -0.00281797
vn -0.30483 0.565982 -0.765992
vn 0.306197 -0.223887 0.925267
vn 0.166538 -0.963483 0.209682
vn -0.17151 -0.500158 -0.848779
vn -0.187418 0.944948 -0.268232
vn 0.0969447 0.672247 0.733952
vn 0.0134609 0.921532 0.388068
vn -0.00725671 -0.918976 -0.394246
vn -0.235609 0.0342366 -0.971245
vn 0.272901 -0.645296 0.713525
vn -0.0367948 -0.985655 -0.164714
vn 0.143298 -0.832756 0.534774
vn 0.23662 -0.540011 0.807712
vn 0.205398 0.0345335 0.978069
vn -0.190108 0.695025 -0.693396
vn -0.0647872 0.973458 -0.219506
vn 0.195244 0.512087 0.836449
vn -0.170053 -0.655894 -0.735449
vn 0.0542781 -0.809162 0.585074
vn -0.0342277 0.895372 -0.444002
vn -0.131971 -0.926288 -0.352951
vn -0.0231322 -0.982162 0.186607
vn -0.117924 0.45057 -0.884919
vn -0.1482 -0.166437 -0.974852
vn 0.169996 0.525358 0.833727
vn 0.0956003 0.99394 0.0542528
vn -0.125881 -0.745937 -0.654013
vn -0.0483153 -0.887808 0.45767
vn 0.0781703 0.996573 -0.0270424
vn -0.0694523 -0.993681 0.0881691
vn 0.0165816 -0.364507 0.931053
vn -0.0487915 -0.769343 0.636971
vn 0.0195293 0.543886 -0.838932
vn -0.0147402 -0.169838 -0.985362
vn 0.105217 0.516346 0.849892
vn 0.0749091 0.193573 0.978222
vn -0.0252621 -0.77997 -0.625307
vn -0.0389566 -0.49451 0.868298
vn -0.0168608 -0.0635158 0.997838
vn 0.0944476 0.950683 0.295435
vn 0.0382002 0.874429 0.483647
vn 0.149352 -0.458975 -0.875806
vn -0.0902099 -0.422132 0.902035
vn 0.0630612 -0.959772 -0.273609
vn -0.0377322 -0.916008 0.399381
vn 0.160953 0.244806 -0.956119
vn -0.128771 0.427773 0.894666
vn -0.12014 -0.643727 0.755766
vn 0.0985629 0.846172 -0.523715
vn 0.0810595 0.950124 -0.301155
vn -0.289839 0.406339 0.866535
vn 0.281068 -0.830427 -0.481033
vn 0.109046 -0.976107 0.187949
vn 0.277447 0.0503958 -0.959418
vn -0.0651835 0.973162 -0.220697
vn -0.435674 0.437147 0.786823
vn 0.330927 -0.250949 -0.909677
vn -0.143094 -0.697042 0.702607
vn -0.103292 0.795651 -0.596884
vn -0.205399 0.901433 -0.381089
vn -0.360906 -0.12383 0.924344
vn 0.340185 -0.037253 -0.93962
vn -0.632569 0.403303 -0.661213
vn -0.328675 0.939228 -0.0991118
vn 0.407363 -0.186499 -0.894021
vn 0.30055 0.3124 -0.901152
vn -0.197987 -0.509963 -0.837102
vn 0.220825 -0.828392 -0.514784
vn 0.504769 -0.823275 -0.259667
vn 0.856579 0.100075 -0.506218
vn -0.528842 0.279346 0.801432
vn 0.419387 -0.88972 -0.180314
vn -0.389197 -0.384073 0.837266
vn 0.143695 0.901362 0.408533
vn -0.327897 0.944673 -0.00871527
vn 0.457761 0.622495 0.634787
vn 0.130357 0.905322 0.404227
vn 0.751924 0.164377 -0.638428
vn -0.287344 0.957701 -0.0155477
vn -0.47976 0.749345 0.456413
vn -0.6259 0.494105 0.603415
vn 0.0452679 -0.864476 -0.500632
vn -0.587761 -0.0356843 0.808248
vn 0.00570439 -0.87461 0.484794
vn -0.191939 -0.786338 0.587224
vn -0.347119 -0.58847 -0.730213
vn -0.680132 -0.00969913 -0.733026
vn -0.444392 0.871858 0.205861
vn -0.701513 0.065558 0.709635
vn -0.674652 0.659154 -0.332207
vn 0.658296 -0.671229 -0.340732
vn -0.406009 -0.624816 -0.666904
vn -0.676544 -0.241838 -0.695559
vn 0.264674 -0.931825 -0.248295
vn 0.31372 0.710839 -0.629513
vn -0.378185 0.925169 0.0322225
vn 0.703187 -0.621611 -0.345149
vn -0.731676 0.449631 0.51233
vn -0.417238 -0.707646 0.570219
vn -0.736462 0.573368 0.358988
vn -0.81141 0.295901 -0.504039
vn -0.774505 0.272937 -0.570656
vn -0.257454 0.949528 0.179204
vn -0.415968 0.909184 -0.0188546
vn -0.638179 0.704948 -0.309477
vn -0.865236 0.356636 0.352389
vn -0.130273 -0.922933 -0.362248
vn 0.101895 -0.971202 -0.215368
vn -0.383045 -0.879747 -0.28164
vn -0.104656 -0.907521 0.406758
vn 0.411762 0.742246 -0.528699
vn -0.85812 -0.108466 0.501862
vn 0.802471 -0.541422 -0.250805
vn -0.220311 -0.906645 0.359802
vn -0.65165 -0.649522 0.391757
vn -0.825442 -0.44361 -0.349078
vn -0.582594 0.751826 -0.308774
vn -0.14911 0.987691 -0.0472584
vn -0.363864 -0.839961 -0.402577
vn -0.15456 0.982644 0.102578
vn 0.637389 0.428422 0.640461
vn -0.523241 0.823641 -0.218711
vn 0.284023 0.935931 0.208239
vn 0.758232 0.453858 0.468078
vn 0.751377 0.078421 0.655196
vn -0.412297 0.91096 -0.0127792
vn 0.724629 0.484667 -0.489909
vn -0.923306 -0.0234521 0.383349
vn -0.748091 0.652907 0.118628
vn -0.854305 -0.401466 0.330134
vn -0.941917 0.276511 0.190616
vn -0.983636 -0.0447395 0.174523
vn -0.916796 0.377828 -0.129348
vn -0.832498 -0.553992 -0.0063219
vn 0.274388 -0.959441 0.0646813
vn -0.939542 -0.342214 0.0122798
vn -0.824952 -0.560811 0.0703316
vn 0.207644 -0.977926 -0.0233207
vn -0.920242 -0.378307 0.100196
vn -0.63739 -0.764999 0.0922511
vn -0.551048 0.821587 -0.146087
vn -0.732391 0.678944 -0.051363
vn -0.235511 0.969213 -0.0718391
vn 0.193791 0.98059 -0.0297931
vn -0.750877 0.656387 0.073077
vn -0.19192 0.981408 0.00230399
vn 0.441936 0.897037 0.0041461
vn -0.154811 0.984579 0.0814678
vn -0.83285 0.51251 0.209034
vn -0.663284 -0.738554 0.120796
vn -0.98241 0.0306552 -0.184202
vn -0.986229 -0.157532 -0.0503627
vn -0.608554 -0.777092 0.160595
vn -0.507092 -0.192326 -0.84016
vn -0.561937 0.757297 -0.332758
vn -0.608554 -0.777092 0.160595
vn -0.543273 0.752885 -0.371508
vn 0.607839 0.754524 -0.247437
vn -0.9434 -0.32927 -0.0397179
vn -0.550133 -0.810916 0.199421
vn 0.358757 -0.892951 0.271904
vn 0.909794 -0.372444 0.183194
vn 0.921109 0.386879 -0.0433964
vn -0.868957 -0.477825 -0.128828
vn 0.458893 -0.856486 0.236324
vn 0.989396 0.0331353 0.141414
vn 0.0891501 -0.990806 0.101763
vn -0.241563 -0.964978 0.102294
vn 0.715548 -0.646229 0.265291
vn -0.521075 -0.837472 -0.164689
vn -0.34434 -0.883587 0.317339
vn -0.264032 0.900373 -0.345855
vn -0.806282 0.480562 -0.344919
vn -0.626801 0.705175 -0.331435
vn 0.684969 0.723217 -0.0881705
vn -0.227773 0.93625 -0.267497
vn -0.379607 0.858759 -0.344139
vn 0.418701 0.906346 -0.0568041
vn 0.845917 0.520654 0.115513
vn 0.964073 -0.0717077 0.255777
vn 0.610703 0.769172 0.188189
vn 0.101734 0.992572 -0.0667215
vn 0.854829 -0.352368 0.380927
vn 0.897172 0.305535 0.318951
vn 0.329858 0.883062 -0.333759
vn 0.737936 0.58981 -0.327984
vn 0.839973 -0.526113 -0.132855
vn -0.241388 0.963238 -0.117919
vn -0.812306 0.581553 0.0442179
vn -0.730715 -0.63466 0.25152
vn 0.0393244 -0.97538 0.216998
vn -0.585341 -0.791974 0.173646
vn -0.953497 0.301245 0.00971319
vn -0.0287176 -0.984933 0.170536
vn 0.335512 0.919586 -0.204435
vn -0.418507 0.90055 -0.117735
vn 0.647492 0.755107 -0.102799
vn 0.162782 0.978343 -0.127856
vn 0.950459 0.306546 0.0515566
vn -0.959899 0.256875 -0.112289
vn -0.715592 0.677675 -0.169364
vn 0.379769 -0.903203 0.199999
vn -0.287889 -0.950972 0.113011
vn 0.663054 0.748568 -0.00232852
vn -0.306187 0.935466 -0.176504
vn 0.182713 0.977585 -0.104608
vn 0.35464 0.933677 -0.0497715
vn -0.0166449 -0.991155 0.131662
vn 0.935228 -0.323455 0.143962
vn 0.881352 -0.470226 0.0459038
vn 0.622485 -0.782323 -0.0219821
vn 0.951781 -0.302011 -0.0538736
vn 0.46368 -0.879681 -0.105652
vn 0.870552 -0.474681 -0.129679
vn 0.618179 -0.76153 -0.19475
vn 0.963336 -0.180107 -0.198861
vn 0.907342 0.347409 -0.23672
vn -0.957905 -0.148214 0.245865
vn 0.127346 0.986578 0.102214
vn -0.897492 -0.375367 0.231533
vn -0.0809608 0.989757 -0.117583
vn 0.0912954 0.993218 -0.071993
vn 0.591352 0.806361 0.00925512
vn 0.700823 0.712936 -0.0238784
vn 0.707946 0.704657 -0.0476477
vn 0.99003 -0.0576364 -0.128526
vn 0.885499 0.434089 -0.165702
vn -0.587236 0.772501 0.241654
vn 0.663335 -0.729193 0.168119
vn 0.625976 -0.742968 0.236966
vn 0.934584 0.323683 -0.147589
vn 0.973844 0.198777 -0.110066
vn 0.548464 -0.819371 0.16679
vn 0.896341 0.374658 -0.237074
vn -0.0523067 -0.992582 -0.10975
vn -0.747205 0.57035 0.341152
vn -0.749443 -0.623275 0.223301
vn -0.178108 -0.977945 -0.109092
vn -0.275606 -0.959836 -0.0525002
vn 0.774044 -0.572904 -0.269512
vn -0.516291 -0.440784 0.73427
vn 0.892347 0.390184 -0.226878
vn 0.501582 0.865101 -0.00389484
vn -0.567871 0.631519 0.527927
vn 0.765176 -0.629624 -0.134457
vn -0.759574 -0.439442 -0.479519
vn -0.961735 -0.272718 0.0262755
vn -0.483681 -0.556845 0.67526
vn -0.462015 -0.546634 0.698379
vn -0.893812 0.307502 -0.326408
vn 0.295191 0.575637 0.762564
vn 0.26391 0.379419 0.886788
vn 0.139076 0.952045 0.27252
vn -0.276032 0.628319 -0.727339
vn 0.00177488 0.90454 0.426385
vn -0.319247 0.267639 -0.909094
vn 0.222262 0.0861861 0.97117
vn 0.13332 0.862216 0.488681
vn 0.187408 -0.220434 0.957229
vn 0.110229 -0.242579 0.963849
vn 0.147916 0.708013 0.690535
vn 0.0694207 -0.384761 0.920402
vn 0.00965872 0.736808 -0.676033
vn 0.154927 0.914893 0.372785
vn 0.0747243 0.870188 -0.48702
vn 0.0188454 0.32316 0.946157
vn -0.0964603 0.848471 0.520377
vn -0.175976 -0.373548 0.910766
vn 0.130478 0.61789 -0.775363
vn 0.0311129 0.871627 -0.489182
vn -0.354181 0.644041 0.678061
vn 0.30055 0.3124 -0.901152
vn -0.324939 0.369029 -0.870766
vn 0.110091 0.726728 -0.678046
vn -0.533934 0.378467 -0.756093
vn -0.251247 -0.388666 -0.886461
vn -0.369271 0.802761 -0.468203
vn -0.713674 0.495404 -0.495222
vn -0.0972005 -0.411004 -0.906437
vn 0.420715 -0.239438 -0.875025
vn 0.0432902 -0.594695 -0.802785
vn 0.30055 0.3124 -0.901152
vn 0.695609 0.208674 -0.687447
vn 0.745273 -0.203261 0.635022
vn 0.636696 0.450013 0.626184
vn 0.360498 0.905363 -0.224409
vn 0.730101 -0.132526 0.670365
vn 0.00400414 0.921453 -0.38847
vn 0.164266 0.867553 0.469434
vn 0.765605 0.359271 0.533641
vn 0.259176 0.837267 -0.481469
vn 0.329511 0.827542 -0.454528
vn 0.160308 0.899035 0.407478
vn -0.069228 0.944392 -0.321451
vn -0.587956 -0.211684 0.780703
vn 0.215035 -0.962431 0.165789
vn -0.0185726 -0.899107 0.437334
vn 0.0829301 -0.940263 -0.330193
vn 0.770275 -0.336988 0.541401
vn 0.114055 0.897887 -0.425195
vn 0.631468 0.340352 -0.696712
vn -0.450618 0.888349 0.0882042
vn -0.743754 -0.125226 0.656619
vn -0.804928 -0.0519694 0.591092
vn 0.451968 0.559287 0.694926
vn 0.798712 -0.367194 0.476685
vn 0.51289 -0.856398 0.0593829
vn 0.0206202 -0.991605 -0.127653
vn 0.507998 -0.840708 0.187475
vn -0.520814 -0.711421 0.471839
vn 0.159822 -0.962223 0.220416
vn -0.879729 0.282951 -0.382121
vn -0.776802 -0.317406 -0.543904
vn 0.263023 0.901977 0.342427
vn -0.436658 0.899429 -0.0189114
vn 0.865525 -0.37076 -0.336754
vn -0.940634 -0.336377 -0.0453568
vn -0.114802 -0.98985 0.0837714
vn -0.933066 0.359578 0.00958654
vn -0.594194 -0.800476 0.0785571
vn -0.954977 0.26215 0.13891
vn -0.969317 -0.0877593 0.229616
vn -0.99395 -0.0783147 -0.0770085
vn -0.507092 -0.192326 -0.84016
vn -0.545692 0.781669 -0.302017
vn -0.629687 0.0196488 -0.776601
vn -0.760267 0.589909 -0.272031
vn -0.352042 -0.391992 -0.849946
vn 0.398769 -0.876321 0.270267
vn 0.356016 -0.391362 -0.84858
vn -0.371324 0.807708 -0.457958
vn 0.690519 0.597112 -0.408217
vn 0.356016 -0.391362 -0.84858
vn 0.547854 0.770494 -0.325875
vn -0.956042 -0.292255 0.0238855
vn 0.321191 0.886629 -0.332754
vn -0.899429 0.347937 -0.264514
vn -0.844912 -0.534634 0.0170724
vn -0.0463007 -0.968081 0.246323
vn 0.492824 0.839166 -0.230053
vn 0.264627 0.946099 -0.186735
vn 0.878786 0.349359 -0.325089
vn -0.00794303 -0.977473 0.210911
vn 0.822727 -0.567931 -0.0239494
vn 0.484029 -0.86289 0.145388
vn -0.955012 -0.288444 0.0689425
vn -0.950281 0.306633 -0.0542462
vn -0.433409 -0.883862 0.175914
vn 0.468722 -0.862368 0.191364
vn -0.858497 -0.512774 0.00677583
vn 0.932745 -0.309407 0.185079
vn -0.712146 -0.700475 0.0467339
vn 0.156236 -0.970111 0.185674
vn 0.523692 -0.841335 0.133797
vn 0.854528 -0.496456 0.152684
vn 0.819207 0.571304 0.0501162
vn -0.331714 -0.942993 0.0270219
vn 0.694674 -0.679596 -0.235749
vn 0.954698 0.173726 -0.241599
vn -0.723525 0.618756 0.306028
vn 0.736714 0.663404 -0.130951
vn -0.211204 -0.975699 -0.0583502
vn -0.848931 0.394254 0.351965
vn -0.749443 -0.623275 0.223301
vn 0.997204 -0.0703851 -0.0250915
vn 0.118467 0.992239 0.0377858
vn 0.789752 0.610527 -0.0595777
vn 0.121582 0.990432 0.0652865
vn 0.756545 0.642365 -0.122499
vn 0.0438983 0.993568 0.104383
vn 0.356016 -0.391362 -0.84858
vn 0.754537 0.481355 -0.446062
vn 0.993095 -0.0563013 0.102923
vn 0.991195 -0.0940958 0.093163
vn 0.960057 -0.272237 0.0646393
vn 0.421352 0.906889 -0.00367455
vn 0.771247 -0.566858 -0.289569
vn 0.949706 0.11444 -0.291481
vn 0.723059 -0.616914 -0.310809
vn 0.13395 0.985778 0.101486
vn -0.6774 0.561181 0.475609
vn -0.516291 -0.440784 0.73427
vn 0.753814 -0.627673 -0.194401
vn -0.749443 -0.623275 0.223301
vn -0.516291 -0.440784 0.73427
vn 0.693027 -0.719836 -0.0393729
vn 0.443998 -0.461173 0.768235
vn 0.945428 0.168053 -0.279148
vn -0.483053 0.542858 0.686998
vn 0.443998 -0.461173 0.768235
vn 0.432027 0.504542 0.747523
vn 0.0536702 0.989984 0.130579
vn 0.65029 0.759441 0.0192878
vn 0.432027 0.504542 0.747523
vn 0.818134 0.564501 -0.10952
vn 0.443998 -0.461173 0.768235
vn 0.432027 0.504542 0.747523
g grp1
usemtl mtl1
f 1//1 5//5 13//13 
f 7//7 5//5 1//1 
f 2//2 334//334 14//14 
f 1//1 13//13 330//330 
f 3//3 7//7 1//1 
f 2//2 14//14 15//15 
f 4//4 1//1 2//2 
f 2//2 15//15 4//4 
f 331//331 6//6 334//334 
f 331//331 8//8 6//6 
f 334//334 6//6 16//16 
f 6//6 18//18 16//16 
f 6//6 17//17 18//18 
f 331//331 7//7 8//8 
f 9//9 17//17 6//6 
f 8//8 9//9 6//6 
f 8//8 7//7 10//10 
f 10//10 11//11 8//8 
f 333//333 332//332 11//11 
f 11//11 12//12 333//333 
f 17//17 9//9 20//20 
f 9//9 12//12 20//20 
f 7//7 3//3 10//10 
f 37//37 11//11 10//10 
f 12//12 11//11 23//23 
f 11//11 37//37 23//23 
f 23//23 24//24 12//12 
f 20//20 12//12 26//26 
f 26//26 12//12 24//24 
f 25//25 15//15 14//14 
f 25//25 14//14 19//19 
f 4//4 15//15 35//35 
f 14//14 334//334 16//16 
f 19//19 14//14 16//16 
f 16//16 18//18 19//19 
f 21//21 17//17 20//20 
f 21//21 18//18 17//17 
f 18//18 22//22 19//19 
f 26//26 21//21 20//20 
f 27//27 18//18 21//21 
f 27//27 22//22 18//18 
f 39//39 1//1 4//4 
f 30//30 26//26 24//24 
f 35//35 15//15 25//25 
f 35//35 25//25 33//33 
f 29//29 33//33 25//25 
f 26//26 28//28 21//21 
f 28//28 27//27 21//21 
f 32//32 22//22 27//27 
f 25//25 19//19 29//29 
f 19//19 22//22 29//29 
f 29//29 22//22 32//32 
f 30//30 28//28 26//26 
f 32//32 27//27 31//31 
f 31//31 27//27 28//28 
f 36//36 28//28 30//30 
f 36//36 31//31 28//28 
f 29//29 32//32 33//33 
f 31//31 36//36 34//34 
f 31//31 34//34 32//32 
f 33//33 32//32 34//34 
f 39//39 4//4 35//35 
f 1//1 39//39 3//3 
f 37//37 40//40 23//23 
f 24//24 23//23 40//40 
f 38//38 34//34 36//36 
f 34//34 38//38 33//33 
f 42//42 10//10 3//3 
f 37//37 10//10 42//42 
f 41//41 30//30 24//24 
f 36//36 30//30 41//41 
f 35//35 33//33 38//38 
f 24//24 40//40 41//41 
f 3//3 39//39 44//44 
f 35//35 47//47 39//39 
f 47//47 35//35 43//43 
f 38//38 36//36 46//46 
f 44//44 42//42 3//3 
f 42//42 40//40 37//37 
f 45//45 43//43 35//35 
f 45//45 35//35 38//38 
f 36//36 41//41 335//335 
f 48//48 44//44 39//39 
f 48//48 39//39 58//58 
f 58//58 39//39 47//47 
f 45//45 38//38 46//46 
f 53//53 335//335 41//41 
f 44//44 48//48 54//54 
f 54//54 42//42 44//44 
f 47//47 43//43 52//52 
f 40//40 42//42 49//49 
f 50//50 41//41 40//40 
f 46//46 337//337 52//52 
f 52//52 45//45 46//46 
f 43//43 45//45 52//52 
f 54//54 48//48 63//63 
f 51//51 49//49 42//42 
f 41//41 336//336 53//53 
f 51//51 42//42 54//54 
f 56//56 49//49 51//51 
f 50//50 40//40 49//49 
f 47//47 52//52 55//55 
f 58//58 47//47 55//55 
f 62//62 61//61 336//336 
f 336//336 61//61 53//53 
f 57//57 51//51 54//54 
f 337//337 59//59 52//52 
f 56//56 51//51 57//57 
f 64//64 57//57 54//54 
f 64//64 54//54 63//63 
f 64//64 70//70 57//57 
f 70//70 56//56 57//57 
f 56//56 62//62 49//49 
f 49//49 62//62 50//50 
f 55//55 60//60 58//58 
f 63//63 48//48 58//58 
f 52//52 60//60 55//55 
f 59//59 60//60 52//52 
f 70//70 65//65 56//56 
f 56//56 65//65 62//62 
f 59//59 337//337 61//61 
f 66//66 61//61 62//62 
f 60//60 59//59 67//67 
f 64//64 73//73 70//70 
f 338//338 58//58 60//60 
f 66//66 62//62 71//71 
f 62//62 65//65 71//71 
f 61//61 66//66 69//69 
f 69//69 59//59 61//61 
f 68//68 67//67 59//59 
f 69//69 339//339 59//59 
f 63//63 58//58 67//67 
f 63//63 78//78 64//64 
f 69//69 74//74 339//339 
f 72//72 70//70 73//73 
f 64//64 78//78 73//73 
f 72//72 65//65 70//70 
f 65//65 76//76 71//71 
f 339//339 74//74 75//75 
f 66//66 74//74 69//69 
f 65//65 72//72 76//76 
f 73//73 84//84 72//72 
f 84//84 83//83 72//72 
f 72//72 83//83 76//76 
f 76//76 86//86 71//71 
f 67//67 68//68 75//75 
f 73//73 78//78 84//84 
f 86//86 66//66 71//71 
f 79//79 78//78 63//63 
f 340//340 63//63 67//67 
f 80//80 67//67 75//75 
f 75//75 74//74 77//77 
f 76//76 83//83 86//86 
f 77//77 80//80 75//75 
f 80//80 77//77 82//82 
f 77//77 81//81 82//82 
f 81//81 77//77 74//74 
f 78//78 79//79 88//88 
f 78//78 88//88 92//92 
f 67//67 80//80 85//85 
f 66//66 90//90 81//81 
f 82//82 81//81 91//91 
f 66//66 81//81 74//74 
f 101//101 66//66 86//86 
f 85//85 80//80 89//89 
f 89//89 80//80 82//82 
f 89//89 82//82 91//91 
f 78//78 92//92 84//84 
f 84//84 87//87 83//83 
f 87//87 94//94 83//83 
f 94//94 86//86 83//83 
f 67//67 85//85 340//340 
f 81//81 90//90 91//91 
f 84//84 92//92 87//87 
f 340//340 85//85 93//93 
f 93//93 88//88 79//79 
f 101//101 90//90 66//66 
f 94//94 97//97 86//86 
f 92//92 95//95 87//87 
f 95//95 96//96 87//87 
f 95//95 92//92 102//102 
f 96//96 94//94 87//87 
f 88//88 93//93 102//102 
f 102//102 92//92 88//88 
f 101//101 86//86 341//341 
f 98//98 101//101 341//341 
f 85//85 99//99 93//93 
f 85//85 89//89 99//99 
f 100//100 89//89 91//91 
f 99//99 89//89 100//100 
f 90//90 101//101 91//91 
f 95//95 106//106 96//96 
f 107//107 93//93 99//99 
f 97//97 94//94 96//96 
f 97//97 96//96 103//103 
f 99//99 104//104 107//107 
f 104//104 99//99 100//100 
f 104//104 100//100 110//110 
f 342//342 91//91 101//101 
f 105//105 95//95 102//102 
f 105//105 106//106 95//95 
f 103//103 96//96 106//106 
f 107//107 108//108 93//93 
f 341//341 343//343 98//98 
f 345//345 342//342 101//101 
f 113//113 104//104 110//110 
f 114//114 103//103 106//106 
f 347//347 107//107 104//104 
f 102//102 93//93 108//108 
f 109//109 101//101 98//98 
f 109//109 345//345 101//101 
f 103//103 114//114 112//112 
f 116//116 112//112 114//114 
f 343//343 346//346 344//344 
f 111//111 102//102 108//108 
f 344//344 98//98 343//343 
f 119//119 345//345 109//109 
f 102//102 111//111 105//105 
f 114//114 106//106 105//105 
f 114//114 105//105 111//111 
f 124//124 113//113 110//110 
f 124//124 110//110 348//348 
f 121//121 114//114 111//111 
f 129//129 116//116 114//114 
f 344//344 346//346 115//115 
f 115//115 346//346 116//116 
f 117//117 108//108 107//107 
f 117//117 107//107 347//347 
f 347//347 349//349 117//117 
f 115//115 120//120 344//344 
f 111//111 108//108 118//118 
f 118//118 108//108 117//117 
f 125//125 124//124 348//348 
f 109//109 120//120 119//119 
f 115//115 123//123 120//120 
f 121//121 111//111 118//118 
f 121//121 128//128 114//114 
f 122//122 115//115 116//116 
f 123//123 115//115 122//122 
f 127//127 122//122 116//116 
f 127//127 123//123 122//122 
f 127//127 116//116 129//129 
f 350//350 120//120 123//123 
f 119//119 120//120 350//350 
f 118//118 130//130 126//126 
f 126//126 121//121 118//118 
f 129//129 114//114 128//128 
f 121//121 126//126 128//128 
f 127//127 131//131 123//123 
f 131//131 350//350 123//123 
f 133//133 117//117 349//349 
f 133//133 349//349 134//134 
f 351//351 124//124 125//125 
f 130//130 117//117 133//133 
f 351//351 125//125 131//131 
f 137//137 129//129 128//128 
f 135//135 131//131 127//127 
f 132//132 127//127 129//129 
f 352//352 127//127 132//132 
f 130//130 118//118 117//117 
f 141//141 126//126 130//130 
f 138//138 141//141 130//130 
f 126//126 136//136 128//128 
f 136//136 137//137 128//128 
f 126//126 141//141 136//136 
f 137//137 132//132 129//129 
f 353//353 130//130 133//133 
f 133//133 134//134 139//139 
f 131//131 355//355 351//351 
f 135//135 355//355 131//131 
f 136//136 156//156 137//137 
f 354//354 133//133 139//139 
f 135//135 140//140 355//355 
f 132//132 145//145 352//352 
f 145//145 140//140 135//135 
f 145//145 132//132 142//142 
f 155//155 140//140 145//145 
f 355//355 140//140 155//155 
f 137//137 142//142 132//132 
f 152//152 136//136 141//141 
f 356//356 150//150 366//366 
f 152//152 156//156 136//136 
f 168//168 142//142 137//137 
f 146//146 141//141 138//138 
f 149//149 364//364 141//141 
f 149//149 141//141 146//146 
f 354//354 139//139 144//144 
f 139//139 163//163 144//144 
f 354//354 144//144 143//143 
f 358//358 354//354 143//143 
f 357//357 147//147 359//359 
f 144//144 361//361 143//143 
f 148//148 361//361 144//144 
f 145//145 157//157 155//155 
f 139//139 164//164 163//163 
f 145//145 142//142 157//157 
f 168//168 157//157 142//142 
f 144//144 163//163 148//148 
f 360//360 171//171 151//151 
f 170//170 151//151 171//171 
f 151//151 365//365 363//363 
f 151//151 363//363 360//360 
f 152//152 151//151 170//170 
f 152//152 365//365 151//151 
f 170//170 166//166 152//152 
f 152//152 178//178 153//153 
f 152//152 153//153 156//156 
f 153//153 181//181 156//156 
f 367//367 154//154 162//162 
f 164//164 355//355 155//155 
f 167//167 155//155 157//157 
f 167//167 165//165 155//155 
f 165//165 164//164 155//155 
f 147//147 171//171 359//359 
f 362//362 174//174 147//147 
f 148//148 163//163 159//159 
f 158//158 373//373 377//377 
f 161//161 373//373 158//158 
f 160//160 373//373 161//161 
f 369//369 160//160 374//374 
f 372//372 179//179 375//375 
f 376//376 370//370 375//375 
f 376//376 375//375 179//179 
f 164//164 172//172 163//163 
f 164//164 165//165 172//172 
f 372//372 378//378 179//179 
f 180//180 163//163 172//172 
f 170//170 176//176 166//166 
f 152//152 166//166 178//178 
f 137//137 156//156 168//168 
f 156//156 181//181 175//175 
f 169//169 157//157 168//168 
f 157//157 379//379 167//167 
f 173//173 167//167 379//379 
f 168//168 156//156 380//380 
f 174//174 171//171 147//147 
f 170//170 171//171 177//177 
f 174//174 148//148 187//187 
f 160//160 389//389 373//373 
f 368//368 209//209 371//371 
f 369//369 209//209 160//160 
f 209//209 389//389 160//160 
f 367//367 162//162 179//179 
f 148//148 159//159 187//187 
f 378//378 384//384 179//179 
f 167//167 173//173 165//165 
f 165//165 173//173 182//182 
f 165//165 386//386 172//172 
f 169//169 168//168 381//381 
f 175//175 181//181 197//197 
f 395//395 194//194 381//381 
f 381//381 194//194 169//169 
f 183//183 169//169 194//194 
f 203//203 191//191 382//382 
f 177//177 397//397 176//176 
f 186//186 177//177 171//171 
f 174//174 186//186 171//171 
f 166//166 382//382 178//178 
f 192//192 178//178 382//382 
f 176//176 170//170 177//177 
f 192//192 382//382 191//191 
f 390//390 209//209 383//383 
f 368//368 383//383 209//209 
f 389//389 209//209 205//205 
f 172//172 386//386 180//180 
f 367//367 179//179 385//385 
f 179//179 384//384 195//195 
f 173//173 379//379 387//387 
f 182//182 173//173 184//184 
f 210//210 182//182 184//184 
f 173//173 387//387 388//388 
f 387//387 196//196 388//388 
f 190//190 388//388 196//196 
f 196//196 212//212 190//190 
f 185//185 397//397 177//177 
f 177//177 186//186 185//185 
f 189//189 188//188 204//204 
f 189//189 186//186 174//174 
f 188//188 189//189 174//174 
f 174//174 187//187 188//188 
f 186//186 189//189 185//185 
f 188//188 187//187 204//204 
f 386//386 399//399 180//180 
f 210//210 184//184 190//190 
f 193//193 203//203 254//254 
f 200//200 254//254 397//397 
f 203//203 193//193 191//191 
f 392//392 192//192 191//191 
f 267//267 391//391 393//393 
f 209//209 390//390 267//267 
f 385//385 179//179 195//195 
f 195//195 211//211 385//385 
f 400//400 197//197 181//181 
f 183//183 198//198 394//394 
f 194//194 198//198 183//183 
f 395//395 198//198 194//194 
f 198//198 199//199 394//394 
f 395//395 275//275 198//198 
f 212//212 196//196 199//199 
f 198//198 255//255 199//199 
f 214//214 199//199 255//255 
f 201//201 257//257 396//396 
f 201//201 396//396 185//185 
f 397//397 185//185 200//200 
f 201//201 185//185 206//206 
f 201//201 206//206 202//202 
f 201//201 202//202 266//266 
f 266//266 202//202 207//207 
f 260//260 201//201 266//266 
f 207//207 265//265 266//266 
f 189//189 206//206 185//185 
f 204//204 206//206 189//189 
f 204//204 187//187 398//398 
f 202//202 206//206 204//204 
f 209//209 208//208 205//205 
f 208//208 207//207 398//398 
f 207//207 202//202 204//204 
f 398//398 207//207 204//204 
f 267//267 208//208 209//209 
f 207//207 208//208 265//265 
f 195//195 384//384 210//210 
f 212//212 213//213 190//190 
f 210//210 190//190 213//213 
f 269//269 195//195 210//210 
f 195//195 269//269 211//211 
f 210//210 272//272 269//269 
f 199//199 214//214 212//212 
f 272//272 210//210 213//213 
f 214//214 215//215 212//212 
f 212//212 215//215 213//213 
f 214//214 216//216 215//215 
f 214//214 274//274 216//216 
f 284//284 217//217 285//285 
f 434//434 218//218 401//401 
f 225//225 285//285 217//217 
f 401//401 218//218 220//220 
f 402//402 292//292 219//219 
f 294//294 219//219 438//438 
f 218//218 221//221 220//220 
f 221//221 223//223 220//220 
f 221//221 224//224 223//223 
f 403//403 405//405 229//229 
f 405//405 233//233 229//229 
f 222//222 402//402 219//219 
f 221//221 218//218 404//404 
f 221//221 404//404 224//224 
f 295//295 222//222 219//219 
f 295//295 297//297 222//222 
f 406//406 233//233 405//405 
f 406//406 302//302 233//233 
f 305//305 225//225 306//306 
f 217//217 403//403 226//226 
f 226//226 225//225 217//217 
f 227//227 225//225 226//226 
f 225//225 227//227 306//306 
f 306//306 227//227 228//228 
f 306//306 228//228 307//307 
f 227//227 226//226 230//230 
f 227//227 230//230 228//228 
f 228//228 230//230 231//231 
f 307//307 228//228 231//231 
f 226//226 403//403 229//229 
f 226//226 229//229 230//230 
f 230//230 229//229 232//232 
f 229//229 233//233 232//232 
f 231//231 230//230 232//232 
f 231//231 309//309 308//308 
f 232//232 450//450 231//231 
f 232//232 233//233 312//312 
f 233//233 444//444 312//312 
f 234//234 237//237 240//240 
f 407//407 236//236 235//235 
f 407//407 419//419 236//236 
f 409//409 411//411 239//239 
f 408//408 410//410 238//238 
f 239//239 415//415 409//409 
f 412//412 408//408 238//238 
f 416//416 418//418 315//315 
f 237//237 244//244 240//240 
f 422//422 243//243 419//419 
f 419//419 243//243 236//236 
f 239//239 411//411 241//241 
f 418//418 420//420 242//242 
f 242//242 315//315 418//418 
f 241//241 411//411 258//258 
f 258//258 411//411 421//421 
f 413//413 245//245 423//423 
f 241//241 258//258 256//256 
f 242//242 420//420 424//424 
f 245//245 413//413 314//314 
f 245//245 252//252 423//423 
f 242//242 424//424 247//247 
f 246//246 245//245 314//314 
f 458//458 315//315 246//246 
f 315//315 242//242 247//247 
f 315//315 247//247 246//246 
f 246//246 247//247 250//250 
f 257//257 243//243 248//248 
f 248//248 396//396 257//257 
f 422//422 252//252 248//248 
f 243//243 422//422 248//248 
f 257//257 258//258 421//421 
f 245//245 249//249 252//252 
f 249//249 245//245 246//246 
f 253//253 249//249 246//246 
f 253//253 246//246 250//250 
f 248//248 254//254 200//200 
f 254//254 248//248 252//252 
f 251//251 254//254 252//252 
f 252//252 249//249 251//251 
f 249//249 253//253 251//251 
f 253//253 267//267 393//393 
f 254//254 251//251 193//193 
f 251//251 253//253 393//393 
f 255//255 198//198 275//275 
f 261//261 258//258 257//257 
f 256//256 258//258 261//261 
f 259//259 425//425 262//262 
f 424//424 425//425 259//259 
f 247//247 259//259 250//250 
f 259//259 247//247 424//424 
f 260//260 261//261 257//257 
f 201//201 260//260 257//257 
f 425//425 260//260 262//262 
f 260//260 266//266 262//262 
f 262//262 265//265 263//263 
f 265//265 262//262 266//266 
f 263//263 259//259 262//262 
f 253//253 250//250 264//264 
f 253//253 264//264 267//267 
f 250//250 259//259 263//263 
f 250//250 263//263 264//264 
f 267//267 268//268 208//208 
f 268//268 265//265 208//208 
f 268//268 267//267 264//264 
f 264//264 263//263 268//268 
f 268//268 263//263 265//265 
f 211//211 269//269 270//270 
f 279//279 270//270 269//269 
f 279//279 269//269 272//272 
f 197//197 400//400 271//271 
f 426//426 211//211 270//270 
f 426//426 270//270 316//316 
f 215//215 273//273 213//213 
f 213//213 273//273 272//272 
f 197//197 271//271 428//428 
f 270//270 279//279 316//316 
f 274//274 276//276 216//216 
f 216//216 273//273 215//215 
f 216//216 277//277 273//273 
f 216//216 430//430 277//277 
f 273//273 277//277 280//280 
f 274//274 214//214 255//255 
f 273//273 280//280 272//272 
f 255//255 275//275 427//427 
f 275//275 278//278 427//427 
f 279//279 281//281 316//316 
f 271//271 316//316 428//428 
f 274//274 432//432 276//276 
f 433//433 429//429 317//317 
f 432//432 287//287 276//276 
f 430//430 436//436 434//434 
f 317//317 286//286 433//433 
f 280//280 279//279 272//272 
f 280//280 277//277 285//285 
f 282//282 279//279 280//280 
f 281//281 279//279 282//282 
f 430//430 434//434 277//277 
f 431//431 284//284 285//285 
f 282//282 280//280 285//285 
f 281//281 282//282 283//283 
f 459//459 283//283 435//435 
f 285//285 225//225 289//289 
f 285//285 289//289 282//282 
f 282//282 289//289 290//290 
f 286//286 437//437 433//433 
f 282//282 290//290 288//288 
f 283//283 282//282 288//288 
f 435//435 283//283 293//293 
f 283//283 288//288 440//440 
f 436//436 218//218 434//434 
f 289//289 225//225 305//305 
f 437//437 292//292 402//402 
f 289//289 305//305 290//290 
f 290//290 305//305 291//291 
f 292//292 437//437 286//286 
f 291//291 288//288 290//290 
f 293//293 439//439 435//435 
f 288//288 291//291 307//307 
f 288//288 307//307 440//440 
f 294//294 439//439 293//293 
f 295//295 219//219 294//294 
f 294//294 293//293 449//449 
f 440//440 307//307 231//231 
f 440//440 231//231 308//308 
f 297//297 295//295 298//298 
f 294//294 449//449 296//296 
f 294//294 296//296 295//295 
f 295//295 296//296 298//298 
f 296//296 449//449 298//298 
f 299//299 222//222 297//297 
f 299//299 297//297 298//298 
f 300//300 298//298 310//310 
f 406//406 304//304 302//302 
f 404//404 441//441 224//224 
f 441//441 446//446 224//224 
f 299//299 298//298 442//442 
f 443//443 311//311 301//301 
f 320//320 444//444 447//447 
f 312//312 444//444 320//320 
f 441//441 319//319 446//446 
f 299//299 442//442 461//461 
f 454//454 464//464 303//303 
f 303//303 452//452 454//454 
f 462//462 443//443 301//301 
f 301//301 453//453 445//445 
f 301//301 445//445 318//318 
f 303//303 464//464 460//460 
f 305//305 306//306 291//291 
f 291//291 306//306 307//307 
f 451//451 308//308 309//309 
f 311//311 451//451 309//309 
f 232//232 452//452 450//450 
f 310//310 298//298 449//449 
f 454//454 452//452 232//232 
f 311//311 443//443 451//451 
f 314//314 413//413 313//313 
f 455//455 414//414 417//417 
f 416//416 315//315 456//456 
f 457//457 315//315 458//458 
f 428//428 316//316 459//459 
f 459//459 316//316 283//283 
f 316//316 281//281 283//283 
f 301//301 318//318 462//462 
f 464//464 327//327 460//460 
f 460//460 327//327 326//326 
f 322//322 446//446 319//319 
f 324//324 467//467 463//463 
f 472//472 462//462 326//326 
f 326//326 462//462 318//318 
f 323//323 446//446 322//322 
f 448//448 468//468 321//321 
f 465//465 320//320 447//447 
f 320//320 465//465 328//328 
f 469//469 325//325 466//466 
f 328//328 465//465 473//473 
f 464//464 476//476 327//327 
f 467//467 324//324 329//329 
f 470//470 467//467 329//329 
f 472//472 326//326 479//479 
f 327//327 479//479 326//326 
f 471//471 480//480 474//474 
f 477//477 479//479 327//327 
f 481//481 478//478 475//475 
