#
# Compatibility version : 4.3
# File ID : FJ4172
# Representation ID : BP29806
# Build-up logic : FMA 3.0 part_of
# Concept ID : FMA37071
# English name : Left radial nerve
# Bounds(mm): (226.883900,-70.143600,933.380200)-(243.352600,-45.687400,1042.517700)
# Volume(cm3): 0.287100
#
v 226.904 -59.1593 933.657
v 227.015 -59.1545 933.457
v 226.94 -58.8788 934.746
v 226.911 -58.8986 936.183
v 227.123 -57.3912 955.824
v 227.104 -58.9545 933.38
v 227.304 -59.1545 933.415
v 227.114 -59.2858 933.801
v 227.104 -58.8155 933.657
v 227.301 -59.2533 933.807
v 227.426 -59.1004 934.477
v 227.403 -58.8885 934.589
v 227.105 -59.1814 935.993
v 227.319 -59.1296 936.996
v 227.313 -58.788 944.265
v 227.726 -58.5238 944.389
v 227.123 -58.5609 946.447
v 227.81 -58.078 946.851
v 227.738 -58.3216 950.18
v 227.523 -58.1988 952.799
v 227.504 -57.3874 951.457
v 228.112 -56.8218 957.538
v 228.308 -57.201 957.128
v 227.309 -57.3722 959.12
v 228.375 -56.7623 959.39
v 228.302 -56.4826 960.378
v 227.286 -56.9195 961.436
v 228.308 -57.1744 962.001
v 228.57 -56.6291 961.495
v 227.516 -56.5844 964.924
v 227.915 -56.9875 964.071
v 227.912 -56.2136 961.103
v 227.5 -56.1655 963.078
v 227.433 -56.1977 964.928
v 228.506 -55.6764 965.118
v 227.489 -56.2944 965.777
v 228.298 -55.4032 966.198
v 227.895 -55.9586 969.502
v 228.113 -54.995 968.724
v 227.862 -55.3258 971.398
v 227.804 -55.1699 970.803
v 228.333 -55.9892 970.458
v 228.529 -54.7024 969.869
v 228.351 -53.7008 976.21
v 228.524 -54.5818 976.389
v 228.405 -53.9423 977.534
v 228.702 -56.6412 963.656
v 228.877 -55.9886 970.025
v 228.888 -54.9588 969.212
v 229.184 -55.7182 969.645
v 229.199 -55.1008 969.882
v 229.307 -53.7207 974.617
v 229.654 -53.9343 974.771
v 228.739 -53.4773 975.536
v 229.699 -54.5719 976.477
v 229.922 -54.1289 975.803
v 229.113 -54.7259 976.689
v 230.057 -54.0468 977.497
v 229.966 -53.4824 981.474
v 229.812 -51.8252 981.3
v 229.097 -51.9566 983.649
v 229.184 -52.546 983.393
v 229.573 -52.7783 983.659
v 229.375 -51.2526 984.798
v 229.844 -50.7922 988.491
v 230.052 -50.9552 988.841
v 230.212 -49.6332 990.793
v 230.6 -52.8164 980.791
v 230.479 -52.4279 980.749
v 230.868 -52.3932 984.235
v 231.136 -51.7469 984.277
v 230.778 -51.0453 984.306
v 230.75 -51.3053 988.909
v 231.839 -50.0989 988.438
v 231.49 -50.8813 990.075
v 230.304 -49.5321 989.115
v 230.439 -49.7539 991.874
v 231.147 -48.5547 991.516
v 231.067 -48.5145 995.104
v 231.65 -48.9582 996.224
v 231.047 -48.2158 993.931
v 231.619 -47.5507 996.985
v 232.05 -50.2543 989.21
v 231.977 -50.5527 989.839
v 232.856 -49.2197 995.308
v 233.224 -48.7996 995.282
v 232.165 -49.2986 995.845
v 233.277 -48.6627 998.134
v 232.281 -48.357 992.559
v 231.957 -47.232 996.768
v 232.676 -46.9634 997.098
v 233.454 -47.8735 996.044
v 232.368 -47.1563 1000.56
v 232.721 -47.9495 1000.78
v 233.06 -48.1628 1000.76
v 232.973 -47.2573 1002.72
v 233.323 -47.5558 1003.21
v 232.821 -46.5812 1001.57
v 233.7 -48.3785 998.401
v 234.006 -47.7687 998.169
v 233.904 -48.1628 1000.67
v 234.731 -47.4099 1001.17
v 233.888 -47.8406 1003.32
v 234.78 -47.7595 1003.41
v 234.67 -47.7678 1004.84
v 234.296 -47.6271 1005.39
v 234.327 -47.1989 1007.04
v 234.953 -46.9753 1009.45
v 233.536 -46.6816 998.765
v 234.274 -46.8001 999.911
v 233.871 -46.0184 1002.35
v 235.069 -46.8376 1002.22
v 234.075 -45.9495 1005.13
v 233.754 -46.7764 1005.64
v 233.753 -46.3738 1005.33
v 234.557 -45.7773 1005.86
v 234.92 -45.7219 1005.67
v 234.578 -46.3878 1008.12
v 234.724 -45.9827 1007.64
v 235.576 -47.2102 1004.37
v 235.149 -47.699 1007.09
v 236.043 -47.5146 1007.02
v 236.515 -47.1889 1007.46
v 236.153 -47.8924 1009.79
v 235.638 -47.555 1010.99
v 235.879 -47.803 1010.89
v 236.216 -47.7355 1012.97
v 236.494 -48.0874 1013.01
v 235.218 -46.0646 1004.13
v 235.326 -45.8175 1008.4
v 235.936 -45.8015 1007.68
v 236.427 -46.3962 1007.03
v 235.707 -46.8401 1011.65
v 235.502 -46.3655 1010.59
v 235.915 -46.1713 1010.97
v 236.517 -46.0148 1011.01
v 236.455 -46.7803 1013.3
v 237.146 -48.5398 1014.31
v 237.868 -48.7555 1014.35
v 237.706 -49.0236 1016.3
v 238.117 -49.2033 1016.07
v 238.261 -49.2354 1019.35
v 236.618 -47.777 1009.46
v 237.271 -48.0886 1011.56
v 237.633 -47.5707 1010.92
v 237.823 -47.0399 1011.02
v 236.886 -48.307 1012.76
v 238.125 -48.1886 1012.98
v 236.908 -48.3083 1014.62
v 237.088 -48.2094 1015.73
v 237.706 -47.2971 1016.19
v 238.126 -46.9646 1015.54
v 237.809 -48.2098 1017.66
v 237.089 -46.1566 1010.28
v 237.912 -46.5571 1013.34
v 237.267 -46.5798 1013.93
v 239.767 -69.5482 1040.47
v 238.672 -69.3407 1041.8
v 238.745 -69.5378 1041.08
v 238.934 -69.8441 1041.47
v 239.103 -69.7328 1042.04
v 239.133 -69.2874 1040.51
v 239.136 -69.895 1041.05
v 239.312 -69.9785 1041.84
v 239.493 -70.1103 1041.46
v 239.497 -69.9097 1042.06
v 239.699 -70.0701 1041.07
v 239.704 -70.05 1041.85
v 238.936 -69.1461 1042.23
v 239.326 -69.552 1042.31
v 238.685 -68.6123 1040.82
v 238.663 -68.4327 1041.43
v 238.92 -68.3559 1041.9
v 239.328 -68.7462 1042.4
v 239.634 -67.8989 1041.91
v 239.693 -69.1573 1042.48
v 239.555 -50.8864 1020.4
v 239.193 -50.7738 1022.25
v 239.356 -51.1551 1022.02
v 239.488 -50.9128 1023.29
v 239.698 -50.3832 1023.19
v 238.705 -49.087 1015.68
v 239.288 -48.7489 1015.77
v 239.118 -49.7924 1017.62
v 239.715 -49.7554 1017.89
v 238.545 -49.8783 1018.5
v 238.538 -49.9081 1019.87
v 238.482 -47.7872 1013.07
v 238.278 -46.9438 1012.72
v 239.037 -47.3812 1015.32
v 239.238 -48.2038 1015.15
v 239.428 -47.9517 1015.79
v 239.255 -47.6369 1017.2
v 238.96 -48.1531 1018.96
v 239.904 -70.1259 1041.46
v 240.104 -69.9991 1041.06
v 240.11 -69.9816 1041.84
v 240.295 -69.9984 1041.45
v 240.397 -69.4547 1040.6
v 240.498 -69.8182 1041.65
v 240.664 -69.5125 1041.09
v 240.482 -69.5419 1042.04
v 240.838 -69.1873 1041.52
v 239.898 -69.7215 1042.23
v 240.672 -68.8094 1041.93
v 240.145 -68.5784 1042.24
v 240.281 -69.1617 1042.32
v 240.095 -65.2491 1037.88
v 240.667 -65.4543 1037.59
v 241.241 -65.9163 1037.92
v 241.264 -64.5389 1039.45
v 240.126 -63.857 1037.48
v 240.126 -63.6111 1037.82
v 240.713 -62.16 1035.78
v 241.074 -62.5156 1035.52
v 240.539 -62.8662 1037.85
v 241.108 -62.0735 1037.53
v 240.75 -61.0482 1035.49
v 240.977 -59.9576 1034.23
v 240.963 -59.9712 1035
v 241.304 -58.576 1032.28
v 241.051 -58.7663 1033.46
v 241.105 -58.8666 1033.06
v 241.18 -58.3283 1033.59
v 241.044 -56.7186 1030.95
v 241.052 -56.6364 1031.34
v 241.105 -57.9462 1032.24
v 241.302 -56.7357 1032.16
v 241.103 -57.9196 1032.82
v 241.32 -54.9243 1027.35
v 240.693 -54.4424 1027.72
v 240.733 -54.4018 1028.61
v 241.291 -54.6681 1029.95
v 240.153 -52.4792 1023.99
v 241.062 -52.6579 1023.67
v 240.252 -53.0168 1026.18
v 240.387 -52.7314 1026.61
v 240.899 -52.4162 1026.99
v 240.47 -51.0089 1020.66
v 240.964 -50.7819 1020.87
v 241.33 -50.5868 1021.49
v 240.492 -50.29 1023.67
v 241.134 -50.5271 1023.97
v 240.021 -49.4028 1017.82
v 240.108 -48.4637 1018.85
v 240.074 -48.6002 1019.84
v 240.831 -49.6329 1019.93
v 240.468 -49.5233 1022.14
v 240.891 -49.5873 1021.69
v 241.246 -50.0224 1021.72
v 241.768 -66.3869 1039.09
v 241.734 -66.3661 1039.67
v 242.196 -64.4416 1038.55
v 241.482 -65.9366 1040.04
v 241.677 -62.8401 1035.52
v 242.248 -63.9641 1036.79
v 242.584 -63.5561 1037.07
v 241.902 -61.4028 1037.07
v 242.271 -62.2993 1037.51
v 242.966 -61.6037 1036.1
v 241.494 -60.5926 1033.83
v 242.444 -60.3315 1033.37
v 242.959 -61.0527 1034.54
v 242.847 -59.7999 1035.28
v 241.901 -59.1044 1032.23
v 242.5 -57.9793 1033.94
v 241.464 -59.3112 1035.07
v 241.915 -59.5469 1035.49
v 241.5 -57.4308 1030.72
v 242.618 -57.5172 1030.53
v 241.909 -56.5558 1032.47
v 242.501 -55.2558 1030.89
v 242.274 -54.3189 1026.59
v 242.774 -53.5012 1027.39
v 243.002 -54.517 1028.19
v 241.873 -54.0932 1029.57
v 241.481 -52.4583 1023.57
v 242.068 -52.3134 1024.25
v 242.334 -52.297 1025.14
v 241.474 -52.2246 1026.93
v 242.271 -52.9588 1027.65
v 241.927 -51.376 1024.64
v 243.232 -59.9935 1033.9
v 243.121 -61.1638 1035.24
v 243.295 -59.7007 1034.21
v 243.321 -56.6874 1030.8
v 243.133 -57.7319 1031.22
v 243.193 -57.5293 1032.79
v 243.158 -56.1232 1029.71
v 243.094 -55.1379 1029.81
v 226.904 -59.1593 933.657
v 226.904 -59.1593 933.657
v 227.015 -59.1545 933.457
v 227.015 -59.1545 933.457
v 227.015 -59.1545 933.457
v 226.94 -58.8788 934.746
v 226.94 -58.8788 934.746
v 226.94 -58.8788 934.746
v 226.911 -58.8986 936.183
v 227.123 -57.3912 955.824
v 227.104 -58.9545 933.38
v 227.104 -58.9545 933.38
v 227.304 -59.1545 933.415
v 227.304 -59.1545 933.415
v 227.304 -59.1545 933.415
v 227.304 -59.1545 933.415
v 227.104 -58.8155 933.657
v 227.104 -58.8155 933.657
v 227.104 -58.8155 933.657
v 227.301 -59.2533 933.807
v 227.426 -59.1004 934.477
v 227.403 -58.8885 934.589
v 227.403 -58.8885 934.589
v 227.726 -58.5238 944.389
v 227.504 -57.3874 951.457
v 227.912 -56.2136 961.103
v 228.113 -54.995 968.724
v 229.199 -55.1008 969.882
v 229.307 -53.7207 974.617
v 229.654 -53.9343 974.771
v 230.479 -52.4279 980.749
v 234.78 -47.7595 1003.41
v 236.043 -47.5146 1007.02
v 238.672 -69.3407 1041.8
v 238.936 -69.1461 1042.23
v 238.685 -68.6123 1040.82
v 239.328 -68.7462 1042.4
vn -0.98105 0.192976 -0.0173825
vn -0.922669 0.362661 -0.130991
vn -0.941614 0.310429 -0.130372
vn -0.965427 0.260172 -0.0161398
vn -0.945209 0.32613 -0.0148202
vn -0.941614 0.310429 -0.130372
vn 0.0624966 -0.954046 -0.293072
vn -0.10613 -0.986923 -0.121321
vn -0.957652 0.257239 -0.12935
vn 0.173692 -0.979537 -0.10168
vn 0.993662 0.0923476 -0.0640946
vn 0.786268 0.575251 -0.225541
vn -0.461709 -0.885534 0.0515217
vn 0.405066 -0.913548 0.0367682
vn -0.0253571 -0.997941 0.0589081
vn 0.997227 0.059522 -0.0446803
vn -0.721285 -0.690179 0.0583201
vn 0.839985 0.535931 -0.0848742
vn 0.640672 -0.767134 0.0323216
vn -0.103283 -0.990565 0.0900781
vn -0.597869 0.79877 -0.0672258
vn 0.68296 0.72007 -0.12274
vn 0.988041 0.135787 -0.0730595
vn -0.720537 -0.68679 0.0956333
vn 0.817293 0.563311 -0.1213
vn 0.591076 0.793109 -0.146996
vn -0.962226 -0.263046 0.0702032
vn 0.49746 -0.864158 0.0759181
vn 0.911899 0.391628 -0.12275
vn -0.752752 -0.645168 0.130854
vn -0.211073 -0.967086 0.142103
vn 0.304259 0.941703 -0.143601
vn -0.722652 0.687829 -0.0683032
vn -0.982272 0.18649 0.0190717
vn 0.480337 0.857759 -0.183099
vn -0.96343 -0.249663 0.0973205
vn 0.140882 0.973914 -0.177886
vn -0.683486 -0.709132 0.173144
vn -0.683345 0.724208 -0.0925383
vn -0.928799 -0.342243 0.142132
vn -0.965622 0.25902 0.021987
vn -0.214391 -0.957144 0.194709
vn 0.0909065 0.974293 -0.206128
vn -0.880236 0.473533 -0.0308543
vn -0.624235 -0.744525 0.23667
vn -0.972773 -0.180748 0.145064
vn 0.932828 -0.359889 -0.0176908
vn 0.379001 -0.916414 0.128621
vn 0.535398 0.819026 -0.206266
vn 0.916185 -0.40045 -0.015634
vn 0.983518 0.130119 -0.125544
vn 0.0970847 0.965614 -0.241174
vn 0.93305 0.30932 -0.183683
vn -0.301567 0.932707 -0.197773
vn 0.583953 -0.803234 0.11753
vn 0.986582 0.0810436 -0.141735
vn -0.0173729 -0.973569 0.227731
vn 0.922215 -0.385945 -0.0237905
vn 0.213917 -0.948977 0.231695
vn 0.0261701 0.953638 -0.299815
vn -0.99168 0.0602432 0.113763
vn -0.823415 -0.507373 0.254085
vn -0.401785 -0.864218 0.302815
vn -0.765687 0.63764 -0.0844926
vn -0.941294 -0.250122 0.226725
vn -0.732875 -0.606932 0.307454
vn -0.967796 0.231335 0.0992757
vn 0.987781 0.0314426 -0.152642
vn 0.518082 0.800762 -0.300617
vn 0.737866 -0.670478 0.0775443
vn 0.985679 0.00528259 -0.168552
vn 0.683608 0.650685 -0.330589
vn -0.102405 -0.949254 0.297373
vn 0.871926 0.390377 -0.29555
vn 0.389013 -0.900588 0.193931
vn -0.660023 0.740386 -0.127272
vn -0.913696 -0.303954 0.269761
vn -0.24775 0.94056 -0.23231
vn -0.976287 -0.0122342 0.216133
vn -0.621188 -0.715057 0.320654
vn -0.778753 0.626998 -0.0204268
vn -0.858428 0.505802 0.0852407
vn 0.979786 -0.120058 -0.160015
vn 0.812037 -0.583454 0.0132997
vn 0.537202 -0.83745 0.100455
vn 0.910048 -0.403268 -0.0958523
vn 0.0431521 -0.972116 0.230495
vn 0.406595 -0.908436 0.0970816
vn 0.487878 0.805782 -0.335693
vn -0.49029 0.867672 -0.0822292
vn -0.0265773 0.974211 -0.224067
vn 0.930675 0.2374 -0.278363
vn -0.960006 0.172063 0.220868
vn -0.621352 -0.728911 0.287422
vn -0.277044 -0.929462 0.24361
vn -0.887248 -0.362543 0.285227
vn -0.642498 -0.725464 0.246775
vn -0.720953 0.687806 0.084555
vn 0.721438 -0.692207 -0.0194217
vn 0.950847 -0.243822 -0.190895
vn 0.396579 -0.916672 0.0493765
vn 0.872092 -0.464078 -0.1552
vn -0.213322 -0.963751 0.160242
vn 0.676308 -0.718181 -0.163779
vn -0.0506577 -0.997142 0.056051
vn -0.397113 -0.901676 0.171119
vn -0.755734 -0.613048 0.2303
vn -0.941412 -0.174383 0.288676
vn 0.363395 0.894479 -0.260482
vn 0.738722 0.605223 -0.296639
vn -0.152041 0.983991 -0.0929777
vn 0.962159 0.0265855 -0.271189
vn -0.578046 0.809294 0.104435
vn -0.958816 -0.0341773 0.281964
vn -0.867015 0.444528 0.225121
vn -0.32022 0.945267 0.0626859
vn 0.0654356 0.996511 -0.0518098
vn -0.897706 0.325899 0.296501
vn -0.630195 0.745732 0.21619
vn 0.819297 -0.536618 -0.201974
vn -0.112688 -0.993489 0.0167563
vn 0.19552 -0.97771 -0.0765141
vn 0.80803 -0.517616 -0.281356
vn -0.0632415 -0.993288 -0.0968529
vn -0.79422 -0.578606 0.185551
vn -0.511236 -0.857349 0.0599171
vn -0.887534 -0.404373 0.220831
vn -0.660043 -0.747569 0.0740496
vn 0.495201 0.842911 -0.21042
vn -0.217722 0.968475 0.121055
vn 0.342252 0.936927 -0.0709284
vn 0.861577 0.433758 -0.263701
vn -0.925524 0.167022 0.339865
vn -0.750733 0.580969 0.314443
vn -0.460012 0.8469 0.266738
vn 0.033583 0.9919 0.122501
vn -0.677774 0.636174 0.368653
vn -0.482858 -0.873554 -0.0612479
vn -0.0113158 -0.970182 -0.242113
vn -0.674831 -0.737958 -0.00458359
vn -0.238881 -0.946504 -0.216949
vn -0.957975 -0.0378826 0.284339
vn 0.333933 -0.921301 -0.199231
vn 0.300269 -0.918409 -0.257612
vn 0.758207 -0.549767 -0.35054
vn 0.943777 -0.0225185 -0.329816
vn -0.292007 -0.952396 -0.0876023
vn 0.521576 -0.771449 -0.364451
vn -0.770734 -0.626947 0.113608
vn -0.936901 -0.250471 0.243888
vn -0.437353 0.807567 0.395675
vn 0.0426712 0.962694 0.267206
vn -0.809622 0.412894 0.417171
vn 0.553913 0.828215 -0.0850911
vn 0.403032 0.913088 0.0619293
vn -0.201205 0.940702 0.273123
vn -0.0226263 -0.666007 -0.745603
vn -0.921489 -0.339425 0.188809
vn -0.833306 -0.447032 -0.325214
vn -0.646937 -0.758015 0.0829822
vn -0.561575 -0.609706 0.559368
vn -0.543841 -0.437621 -0.716048
vn -0.429114 -0.783074 -0.450174
vn -0.35256 -0.87215 0.339197
vn -0.238865 -0.971003 0.00984184
vn -0.170756 -0.752988 0.635493
vn -0.0514324 -0.915994 -0.397881
vn 0.00202218 -0.916787 0.399372
vn -0.801804 0.215784 0.557267
vn -0.265779 -0.448374 0.853418
vn -0.779372 -0.195235 -0.595368
vn -0.933936 0.261169 0.244039
vn -0.642582 0.447987 0.621607
vn -0.211504 0.432369 0.87654
vn -0.188819 0.587947 0.786553
vn -0.00342434 -0.075727 0.997123
vn -0.309782 -0.892616 -0.327525
vn -0.956913 -0.239747 0.163826
vn -0.781706 -0.61918 -0.0745107
vn -0.920541 0.1698 0.351811
vn -0.623771 0.610665 0.48785
vn 0.241473 -0.898938 -0.365515
vn 0.688324 -0.591069 -0.420533
vn -0.0183223 -0.935837 -0.351956
vn 0.469341 -0.759046 -0.451186
vn -0.517999 -0.840444 -0.159157
vn -0.875356 -0.475501 0.0874638
vn 0.833188 -0.398124 -0.383791
vn 0.826727 0.53271 -0.180948
vn 0.738161 0.672162 -0.0575854
vn 0.911457 -0.188307 -0.365768
vn 0.928771 0.299185 -0.2188
vn 0.405865 0.899355 0.162586
vn -0.189629 0.889512 0.415703
vn 0.148297 -0.988682 0.0227107
vn 0.364216 -0.829978 -0.422473
vn 0.353356 -0.832272 0.427157
vn 0.51545 -0.856364 -0.030836
vn 0.46112 -0.647657 -0.606554
vn 0.737737 -0.644675 0.200345
vn 0.769018 -0.582799 -0.262597
vn 0.675373 -0.417041 0.608234
vn 0.933508 -0.291947 0.208158
vn 0.182695 -0.583244 0.791486
vn 0.78595 0.0642145 0.614946
vn 0.330985 0.363915 0.870641
vn 0.474328 -0.081776 0.876542
vn -0.725554 -0.26723 -0.634161
vn -0.27784 -0.52077 -0.80722
vn 0.209807 -0.616464 -0.758916
vn 0.241333 0.530598 0.812542
vn -0.956486 0.0312376 -0.290101
vn -0.951532 0.303019 0.0525942
vn -0.86323 -0.188442 -0.46832
vn -0.534694 -0.44854 -0.71618
vn -0.679833 0.551199 0.483742
vn -0.259886 0.635233 0.727281
vn -0.98247 0.063852 -0.175144
vn -0.963267 -0.109324 -0.245286
vn -0.944416 0.293916 0.147284
vn -0.804789 -0.413252 -0.426073
vn -0.996944 0.0766341 0.0151492
vn -0.958661 -0.168621 -0.229205
vn -0.892125 0.334584 0.30359
vn -0.962467 -0.236981 -0.132278
vn -0.982589 0.10791 0.151241
vn -0.985698 -0.122 -0.116253
vn -0.805871 0.423075 0.414221
vn -0.989426 0.105128 0.0999171
vn -0.310648 -0.800408 -0.512683
vn -0.895577 -0.419994 -0.146788
vn -0.968089 0.102503 0.228684
vn -0.600043 0.586013 0.544552
vn -0.648589 -0.716975 -0.255498
vn 0.00397135 -0.867524 -0.49738
vn -0.969858 -0.219539 0.105725
vn -0.852435 0.327701 0.40739
vn -0.434227 0.707646 0.557391
vn 0.27146 -0.834885 -0.478829
vn 0.695613 -0.542721 -0.470718
vn 0.948232 -0.0597461 -0.311907
vn -0.158885 0.851017 0.500525
vn 0.369159 0.845931 0.384867
vn 0.811749 -0.401919 -0.423703
vn 0.771453 0.636277 -0.00341456
vn 0.378946 0.89219 0.245758
vn 0.95782 0.138475 -0.251803
vn 0.194402 0.906575 0.374606
vn 0.618915 0.762889 0.186935
vn 0.900156 0.431837 -0.0568902
vn 0.914446 -0.381627 -0.134721
vn 0.952828 -0.084669 0.291461
vn 0.90525 0.0743708 0.41832
vn 0.69769 0.267685 0.66451
vn -0.0402833 -0.622666 -0.78145
vn 0.611327 -0.579651 -0.53878
vn 0.95706 -0.284897 -0.0535631
vn 0.195028 0.60225 0.774118
vn 0.63085 0.386506 0.672786
vn 0.937893 0.0929257 0.334249
vn -0.53504 -0.523099 -0.6634
vn 0.138359 -0.686099 -0.71423
vn 0.723656 -0.522336 -0.451096
vn 0.637572 0.469448 0.610836
vn -0.317857 -0.668223 -0.672641
vn 0.321083 0.668482 0.670849
vn -0.563168 0.596129 0.572252
vn -0.0112139 0.674707 0.738
vn -0.584938 -0.632377 -0.507884
vn 0.157044 -0.733156 -0.66168
vn -0.152641 0.72856 0.667758
vn 0.407386 0.717647 0.564818
vn 0.455207 -0.686222 -0.567349
vn 0.907585 0.407936 0.0993882
vn 0.987509 0.0125975 -0.157058
vn -0.0329131 0.793662 0.607468
vn 0.500128 -0.68955 -0.523825
vn 0.848895 -0.331714 -0.411512
vn 0.974525 0.171206 -0.144881
vn 0.0630701 0.844175 0.532344
vn 0.537979 0.737632 0.408017
vn 0.771 0.615312 0.164166
vn 0.934472 -0.280055 -0.219844
vn 0.973626 -0.220093 -0.0600987
vn 0.984303 0.0696 0.162181
vn 0.99608 -0.0351311 -0.0811807
vn 0.760929 -0.470146 -0.447157
vn 0.813072 0.42551 0.39731
vn 0.872697 -0.32148 -0.367492
vn 0.872782 0.42716 0.23619
vn -0.592597 -0.804245 -0.0449398
vn -0.42319 0.880682 -0.21286
vn -0.218699 -0.931122 -0.29186
vn -0.42319 0.880682 -0.21286
vn -0.137545 -0.299743 -0.944053
vn -0.965427 0.260172 -0.0161398
vn -0.42319 0.880682 -0.21286
vn -0.61007 0.790769 -0.0499831
vn -0.879704 -0.473575 0.0429889
vn -0.986968 0.160902 0.00198432
vn -0.137545 -0.299743 -0.944053
vn 0.786268 0.575251 -0.225541
vn -0.137545 -0.299743 -0.944053
vn 0.977323 0.173564 -0.121306
vn 0.709028 0.672627 -0.211783
vn 0.922441 -0.376216 -0.0869744
vn 0.851213 0.468879 -0.235772
vn -0.623589 0.780241 -0.0485871
vn 0.468619 0.879669 -0.081108
vn 0.838047 -0.544615 -0.0327174
vn 0.7934 -0.608526 -0.014623
vn 0.9848 0.153352 -0.0815593
vn 0.55873 0.825781 -0.0768537
vn 0.738721 -0.673681 0.0211171
vn 0.461403 0.882091 -0.0949853
vn -0.429447 0.896204 -0.111328
vn -0.103072 0.978422 -0.179071
vn 0.676136 0.706692 -0.20839
vn 0.609289 0.75311 -0.248179
vn 0.587196 0.767825 -0.256215
vn 0.924377 0.313109 -0.217923
vn 0.123915 -0.991824 0.0304912
vn 0.680522 -0.701759 -0.210772
vn -0.870391 0.179645 0.458417
vn -0.48968 -0.254883 0.833815
vn -0.993124 0.0778167 -0.0874576
vn -0.317783 -0.0922049 0.943669
g grp1
usemtl mtl1
f 3//3 6//6 2//2 
f 6//6 3//3 9//9 
f 296//296 1//1 4//4 
f 293//293 8//8 291//291 
f 292//292 297//297 294//294 
f 291//291 13//13 299//299 
f 299//299 13//13 17//17 
f 8//8 13//13 291//291 
f 296//296 4//4 5//5 
f 299//299 17//17 300//300 
f 8//8 293//293 7//7 
f 303//303 295//295 301//301 
f 12//12 302//302 307//307 
f 312//312 11//11 304//304 
f 302//302 12//12 305//305 
f 7//7 10//10 8//8 
f 308//308 298//298 21//21 
f 310//310 306//306 311//311 
f 315//315 313//313 309//309 
f 10//10 14//14 8//8 
f 8//8 14//14 13//13 
f 298//298 300//300 21//21 
f 14//14 310//310 311//311 
f 11//11 312//312 18//18 
f 18//18 313//313 315//315 
f 18//18 16//16 11//11 
f 314//314 14//14 311//311 
f 14//14 15//15 13//13 
f 21//21 300//300 33//33 
f 13//13 15//15 17//17 
f 314//314 19//19 14//14 
f 14//14 19//19 15//15 
f 20//20 17//17 15//15 
f 20//20 15//15 19//19 
f 18//18 315//315 32//32 
f 22//22 18//18 32//32 
f 18//18 22//22 23//23 
f 18//18 23//23 16//16 
f 316//316 21//21 33//33 
f 28//28 20//20 19//19 
f 314//314 23//23 19//19 
f 300//300 17//17 24//24 
f 20//20 24//24 17//17 
f 22//22 32//32 26//26 
f 22//22 25//25 23//23 
f 25//25 22//22 26//26 
f 24//24 27//27 300//300 
f 300//300 34//34 33//33 
f 300//300 27//27 34//34 
f 19//19 23//23 47//47 
f 23//23 25//25 29//29 
f 23//23 29//29 47//47 
f 25//25 26//26 29//29 
f 28//28 19//19 47//47 
f 27//27 24//24 30//30 
f 34//34 27//27 36//36 
f 27//27 30//30 36//36 
f 30//30 24//24 31//31 
f 31//31 24//24 20//20 
f 28//28 31//31 20//20 
f 30//30 31//31 38//38 
f 30//30 38//38 36//36 
f 28//28 48//48 31//31 
f 26//26 32//32 37//37 
f 26//26 37//37 35//35 
f 29//29 26//26 35//35 
f 316//316 33//33 39//39 
f 32//32 317//317 37//37 
f 33//33 41//41 39//39 
f 41//41 33//33 34//34 
f 35//35 37//37 43//43 
f 49//49 35//35 43//43 
f 31//31 48//48 42//42 
f 43//43 37//37 317//317 
f 38//38 40//40 36//36 
f 36//36 41//41 34//34 
f 36//36 40//40 41//41 
f 31//31 42//42 38//38 
f 42//42 45//45 38//38 
f 38//38 45//45 40//40 
f 42//42 57//57 45//45 
f 43//43 317//317 54//54 
f 44//44 39//39 41//41 
f 40//40 46//46 41//41 
f 39//39 44//44 54//54 
f 40//40 45//45 46//46 
f 46//46 44//44 41//41 
f 44//44 46//46 61//61 
f 47//47 29//29 50//50 
f 47//47 50//50 28//28 
f 29//29 35//35 49//49 
f 50//50 48//48 28//28 
f 43//43 52//52 49//49 
f 29//29 51//51 50//50 
f 49//49 318//318 29//29 
f 318//318 49//49 319//319 
f 50//50 51//51 56//56 
f 50//50 55//55 48//48 
f 48//48 55//55 57//57 
f 48//48 57//57 42//42 
f 59//59 57//57 55//55 
f 43//43 54//54 52//52 
f 56//56 51//51 53//53 
f 319//319 320//320 318//318 
f 54//54 60//60 52//52 
f 55//55 70//70 59//59 
f 50//50 58//58 55//55 
f 70//70 55//55 58//58 
f 69//69 320//320 319//319 
f 56//56 53//53 321//321 
f 58//58 50//50 56//56 
f 63//63 45//45 57//57 
f 45//45 63//63 62//62 
f 45//45 62//62 46//46 
f 46//46 62//62 61//61 
f 59//59 63//63 57//57 
f 64//64 54//54 44//44 
f 54//54 64//64 60//60 
f 60//60 69//69 319//319 
f 44//44 61//61 64//64 
f 70//70 75//75 59//59 
f 62//62 65//65 61//61 
f 59//59 73//73 63//63 
f 61//61 67//67 64//64 
f 61//61 65//65 67//67 
f 62//62 66//66 65//65 
f 63//63 66//66 62//62 
f 63//63 80//80 66//66 
f 65//65 66//66 77//77 
f 65//65 77//77 67//67 
f 60//60 64//64 76//76 
f 67//67 76//76 64//64 
f 56//56 321//321 68//68 
f 56//56 68//68 58//58 
f 68//68 321//321 71//71 
f 68//68 71//71 58//58 
f 71//71 84//84 70//70 
f 70//70 58//58 71//71 
f 59//59 75//75 73//73 
f 84//84 75//75 70//70 
f 80//80 63//63 73//73 
f 72//72 69//69 60//60 
f 321//321 72//72 71//71 
f 71//71 72//72 74//74 
f 74//74 72//72 89//89 
f 84//84 71//71 83//83 
f 80//80 73//73 87//87 
f 87//87 73//73 75//75 
f 76//76 78//78 60//60 
f 78//78 89//89 60//60 
f 72//72 60//60 89//89 
f 76//76 67//67 81//81 
f 66//66 80//80 77//77 
f 67//67 79//79 81//81 
f 78//78 76//76 81//81 
f 91//91 89//89 78//78 
f 67//67 77//77 79//79 
f 82//82 81//81 79//79 
f 81//81 82//82 90//90 
f 78//78 81//81 90//90 
f 91//91 78//78 90//90 
f 80//80 79//79 77//77 
f 79//79 93//93 82//82 
f 83//83 71//71 74//74 
f 84//84 83//83 86//86 
f 75//75 85//85 87//87 
f 74//74 89//89 92//92 
f 86//86 83//83 92//92 
f 74//74 92//92 83//83 
f 84//84 85//85 75//75 
f 85//85 84//84 86//86 
f 87//87 85//85 88//88 
f 95//95 80//80 87//87 
f 87//87 101//101 95//95 
f 89//89 91//91 109//109 
f 80//80 96//96 79//79 
f 80//80 94//94 96//96 
f 79//79 96//96 93//93 
f 95//95 94//94 80//80 
f 96//96 94//94 97//97 
f 96//96 114//114 93//93 
f 91//91 90//90 111//111 
f 111//111 109//109 91//91 
f 82//82 98//98 90//90 
f 98//98 111//111 90//90 
f 93//93 98//98 82//82 
f 98//98 93//93 115//115 
f 86//86 99//99 85//85 
f 85//85 99//99 88//88 
f 99//99 101//101 88//88 
f 88//88 101//101 87//87 
f 89//89 109//109 110//110 
f 86//86 92//92 100//100 
f 110//110 92//92 89//89 
f 99//99 86//86 100//100 
f 101//101 99//99 102//102 
f 99//99 100//100 102//102 
f 102//102 100//100 112//112 
f 100//100 92//92 112//112 
f 112//112 92//92 110//110 
f 101//101 103//103 95//95 
f 120//120 104//104 101//101 
f 101//101 102//102 120//120 
f 103//103 97//97 94//94 
f 103//103 94//94 95//95 
f 103//103 101//101 322//322 
f 322//322 105//105 103//103 
f 112//112 120//120 102//102 
f 103//103 106//106 97//97 
f 97//97 107//107 96//96 
f 106//106 107//107 97//97 
f 106//106 103//103 105//105 
f 322//322 121//121 105//105 
f 96//96 107//107 114//114 
f 106//106 121//121 107//107 
f 105//105 121//121 106//106 
f 107//107 108//108 114//114 
f 107//107 125//125 108//108 
f 129//129 109//109 111//111 
f 129//129 111//111 117//117 
f 93//93 114//114 115//115 
f 113//113 98//98 115//115 
f 111//111 98//98 113//113 
f 111//111 113//113 116//116 
f 116//116 117//117 111//111 
f 119//119 115//115 118//118 
f 113//113 115//115 119//119 
f 116//116 113//113 119//119 
f 119//119 130//130 116//116 
f 108//108 118//118 114//114 
f 114//114 118//118 115//115 
f 108//108 133//133 118//118 
f 120//120 112//112 123//123 
f 322//322 122//122 121//121 
f 120//120 123//123 104//104 
f 104//104 123//123 323//323 
f 126//126 107//107 121//121 
f 121//121 124//124 126//126 
f 121//121 143//143 124//124 
f 124//124 143//143 144//144 
f 122//122 143//143 121//121 
f 107//107 126//126 125//125 
f 125//125 127//127 108//108 
f 126//126 128//128 125//125 
f 124//124 147//147 126//126 
f 127//127 133//133 108//108 
f 125//125 128//128 127//127 
f 153//153 137//137 133//133 
f 126//126 147//147 128//128 
f 127//127 149//149 150//150 
f 127//127 150//150 133//133 
f 127//127 128//128 149//149 
f 112//112 110//110 132//132 
f 109//109 129//129 110//110 
f 116//116 130//130 117//117 
f 129//129 117//117 131//131 
f 112//112 132//132 123//123 
f 110//110 129//129 132//132 
f 131//131 117//117 130//130 
f 131//131 154//154 132//132 
f 129//129 131//131 132//132 
f 123//123 132//132 146//146 
f 189//189 132//132 154//154 
f 133//133 134//134 118//118 
f 118//118 134//134 119//119 
f 131//131 130//130 136//136 
f 131//131 136//136 154//154 
f 134//134 135//135 119//119 
f 134//134 133//133 137//137 
f 119//119 135//135 130//130 
f 135//135 134//134 137//137 
f 130//130 135//135 136//136 
f 136//136 135//135 156//156 
f 136//136 156//156 155//155 
f 156//156 135//135 137//137 
f 128//128 147//147 138//138 
f 138//138 147//147 139//139 
f 144//144 139//139 147//147 
f 149//149 140//140 150//150 
f 138//138 140//140 149//149 
f 140//140 141//141 186//186 
f 140//140 138//138 141//141 
f 184//184 186//186 141//141 
f 139//139 141//141 138//138 
f 140//140 187//187 150//150 
f 140//140 186//186 187//187 
f 150//150 142//142 153//153 
f 142//142 180//180 153//153 
f 181//181 153//153 180//180 
f 323//323 123//123 143//143 
f 145//145 123//123 146//146 
f 147//147 124//124 144//144 
f 144//144 143//143 123//123 
f 123//123 145//145 144//144 
f 144//144 145//145 148//148 
f 188//188 148//148 145//145 
f 145//145 146//146 188//188 
f 148//148 139//139 144//144 
f 149//149 128//128 138//138 
f 150//150 153//153 133//133 
f 137//137 153//153 151//151 
f 137//137 151//151 156//156 
f 156//156 151//151 152//152 
f 153//153 181//181 194//194 
f 151//151 153//153 194//194 
f 152//152 151//151 194//194 
f 146//146 132//132 189//189 
f 136//136 155//155 154//154 
f 189//189 155//155 190//190 
f 155//155 189//189 154//154 
f 156//156 152//152 155//155 
f 162//162 171//171 208//208 
f 162//162 209//209 157//157 
f 209//209 162//162 208//208 
f 157//157 209//209 210//210 
f 158//158 326//326 159//159 
f 158//158 172//172 326//326 
f 324//324 169//169 172//172 
f 158//158 159//159 160//160 
f 160//160 161//161 158//158 
f 171//171 162//162 159//159 
f 158//158 161//161 325//325 
f 160//160 164//164 161//161 
f 159//159 162//162 163//163 
f 160//160 159//159 163//163 
f 325//325 161//161 170//170 
f 325//325 170//170 176//176 
f 165//165 163//163 167//167 
f 165//165 160//160 163//163 
f 157//157 163//163 162//162 
f 167//167 163//163 157//157 
f 165//165 164//164 160//160 
f 161//161 164//164 166//166 
f 166//166 170//170 161//161 
f 167//167 195//195 165//165 
f 195//195 168//168 165//165 
f 165//165 168//168 164//164 
f 164//164 168//168 166//166 
f 204//204 170//170 166//166 
f 199//199 196//196 157//157 
f 157//157 196//196 167//167 
f 196//196 195//195 167//167 
f 199//199 157//157 210//210 
f 204//204 166//166 168//168 
f 170//170 204//204 176//176 
f 172//172 169//169 173//173 
f 172//172 213//213 326//326 
f 173//173 216//216 172//172 
f 216//216 173//173 175//175 
f 169//169 174//174 173//173 
f 175//175 173//173 174//174 
f 327//327 325//325 176//176 
f 206//206 174//174 176//176 
f 206//206 175//175 174//174 
f 172//172 216//216 213//213 
f 326//326 213//213 212//212 
f 212//212 208//208 171//171 
f 177//177 184//184 239//239 
f 186//186 179//179 187//187 
f 187//187 179//179 178//178 
f 187//187 178//178 142//142 
f 186//186 177//177 179//179 
f 179//179 177//177 234//234 
f 234//234 177//177 235//235 
f 178//178 180//180 142//142 
f 179//179 236//236 178//178 
f 236//236 180//180 178//178 
f 141//141 139//139 182//182 
f 141//141 182//182 184//184 
f 184//184 182//182 185//185 
f 148//148 182//182 139//139 
f 182//182 183//183 185//185 
f 182//182 148//148 183//183 
f 244//244 191//191 247//247 
f 247//247 191//191 192//192 
f 185//185 239//239 184//184 
f 244//244 185//185 183//183 
f 247//247 192//192 245//245 
f 186//186 184//184 177//177 
f 150//150 187//187 142//142 
f 246//246 193//193 194//194 
f 188//188 146//146 191//191 
f 146//146 189//189 192//192 
f 188//188 183//183 148//148 
f 183//183 188//188 191//191 
f 190//190 192//192 189//189 
f 191//191 146//146 192//192 
f 244//244 183//183 191//191 
f 152//152 194//194 193//193 
f 155//155 152//152 193//193 
f 190//190 155//155 193//193 
f 192//192 190//190 245//245 
f 245//245 190//190 193//193 
f 193//193 246//246 245//245 
f 195//195 197//197 168//168 
f 197//197 204//204 168//168 
f 196//196 198//198 195//195 
f 198//198 197//197 195//195 
f 199//199 201//201 196//196 
f 196//196 201//201 198//198 
f 200//200 197//197 198//198 
f 200//200 202//202 197//197 
f 197//197 202//202 204//204 
f 204//204 202//202 207//207 
f 205//205 207//207 202//202 
f 200//200 198//198 201//201 
f 203//203 201//201 251//251 
f 203//203 200//200 201//201 
f 200//200 203//203 202//202 
f 203//203 252//252 205//205 
f 202//202 203//203 205//205 
f 207//207 176//176 204//204 
f 199//199 210//210 256//256 
f 199//199 256//256 201//201 
f 256//256 251//251 201//201 
f 206//206 176//176 207//207 
f 205//205 206//206 207//207 
f 210//210 209//209 255//255 
f 254//254 205//205 252//252 
f 206//206 211//211 175//175 
f 254//254 206//206 205//205 
f 209//209 208//208 215//215 
f 255//255 209//209 215//215 
f 212//212 213//213 220//220 
f 216//216 175//175 217//217 
f 216//216 220//220 213//213 
f 211//211 217//217 175//175 
f 258//258 217//217 211//211 
f 218//218 219//219 214//214 
f 208//208 214//214 215//215 
f 214//214 261//261 215//215 
f 255//255 215//215 261//261 
f 208//208 212//212 214//214 
f 214//214 212//212 218//218 
f 218//218 212//212 220//220 
f 216//216 217//217 267//267 
f 219//219 261//261 214//214 
f 216//216 267//267 220//220 
f 265//265 221//221 269//269 
f 223//223 221//221 219//219 
f 223//223 219//219 222//222 
f 219//219 220//220 222//222 
f 222//222 220//220 224//224 
f 223//223 222//222 227//227 
f 222//222 224//224 229//229 
f 221//221 223//223 227//227 
f 222//222 229//229 227//227 
f 221//221 261//261 219//219 
f 265//265 261//261 221//221 
f 219//219 218//218 220//220 
f 267//267 224//224 220//220 
f 221//221 225//225 269//269 
f 227//227 229//229 226//226 
f 224//224 226//226 229//229 
f 225//225 221//221 227//227 
f 227//227 226//226 225//225 
f 224//224 267//267 228//228 
f 231//231 269//269 225//225 
f 230//230 269//269 231//231 
f 225//225 226//226 232//232 
f 224//224 228//228 226//226 
f 226//226 228//228 232//232 
f 228//228 233//233 232//232 
f 267//267 233//233 228//228 
f 234//234 231//231 236//236 
f 230//230 234//234 235//235 
f 236//236 232//232 237//237 
f 231//231 232//232 236//236 
f 230//230 231//231 234//234 
f 225//225 232//232 231//231 
f 232//232 233//233 237//237 
f 233//233 238//238 237//237 
f 277//277 235//235 239//239 
f 234//234 236//236 179//179 
f 237//237 181//181 180//180 
f 237//237 180//180 236//236 
f 237//237 238//238 181//181 
f 280//280 242//242 238//238 
f 243//243 242//242 280//280 
f 238//238 276//276 280//280 
f 185//185 240//240 239//239 
f 185//185 244//244 240//240 
f 235//235 177//177 239//239 
f 277//277 239//239 240//240 
f 240//240 244//244 241//241 
f 240//240 278//278 277//277 
f 240//240 241//241 278//278 
f 247//247 250//250 241//241 
f 181//181 238//238 242//242 
f 242//242 194//194 181//181 
f 243//243 282//282 249//249 
f 245//245 246//246 249//249 
f 247//247 241//241 244//244 
f 250//250 245//245 249//249 
f 247//247 245//245 250//250 
f 248//248 194//194 242//242 
f 249//249 246//246 248//248 
f 194//194 248//248 246//246 
f 242//242 243//243 248//248 
f 243//243 249//249 248//248 
f 252//252 203//203 251//251 
f 257//257 252//252 251//251 
f 254//254 252//252 253//253 
f 253//253 259//259 254//254 
f 252//252 257//257 253//253 
f 256//256 257//257 251//251 
f 254//254 211//211 206//206 
f 254//254 259//259 211//211 
f 256//256 210//210 255//255 
f 256//256 263//263 257//257 
f 257//257 260//260 253//253 
f 258//258 259//259 264//264 
f 260//260 259//259 253//253 
f 263//263 284//284 257//257 
f 257//257 284//284 260//260 
f 259//259 258//258 211//211 
f 261//261 262//262 255//255 
f 261//261 265//265 262//262 
f 255//255 262//262 256//256 
f 264//264 259//259 260//260 
f 217//217 268//268 267//267 
f 258//258 268//268 217//217 
f 258//258 264//264 268//268 
f 265//265 269//269 270//270 
f 265//265 270//270 262//262 
f 262//262 263//263 256//256 
f 262//262 270//270 263//263 
f 263//263 287//287 283//283 
f 264//264 266//266 268//268 
f 288//288 266//266 264//264 
f 270//270 230//230 273//273 
f 270//270 273//273 287//287 
f 270//270 269//269 230//230 
f 270//270 287//287 263//263 
f 267//267 268//268 271//271 
f 266//266 271//271 268//268 
f 272//272 271//271 266//266 
f 288//288 272//272 266//266 
f 289//289 287//287 273//273 
f 281//281 272//272 290//290 
f 267//267 271//271 233//233 
f 271//271 276//276 233//233 
f 276//276 271//271 272//272 
f 235//235 277//277 273//273 
f 230//230 235//235 273//273 
f 275//275 289//289 278//278 
f 289//289 273//273 278//278 
f 278//278 279//279 275//275 
f 279//279 274//274 275//275 
f 274//274 290//290 275//275 
f 274//274 281//281 290//290 
f 233//233 276//276 238//238 
f 272//272 281//281 276//276 
f 278//278 241//241 279//279 
f 282//282 274//274 279//279 
f 273//273 277//277 278//278 
f 281//281 274//274 282//282 
f 276//276 281//281 280//280 
f 281//281 243//243 280//280 
f 241//241 250//250 279//279 
f 249//249 282//282 250//250 
f 282//282 279//279 250//250 
f 243//243 281//281 282//282 
f 263//263 283//283 284//284 
f 284//284 283//283 285//285 
f 285//285 260//260 284//284 
f 260//260 285//285 264//264 
f 283//283 287//287 286//286 
f 285//285 288//288 264//264 
f 283//283 286//286 285//285 
f 286//286 288//288 285//285 
f 287//287 289//289 286//286 
f 275//275 286//286 289//289 
f 290//290 288//288 286//286 
f 288//288 290//290 272//272 
f 290//290 286//286 275//275 
