#
# Compatibility version : 4.3
# File ID : FJ4266
# Representation ID : BP29366
# Build-up logic : FMA 3.0 is_a
# Concept ID : FMA7013
# English name : Trunk of left seventh cervical nerve
# Bounds(mm): (0.654200,-76.679200,1361.632100)-(42.353000,-63.406500,1391.224400)
# Volume(cm3): 0.516400
#
v 1.28268 -71.9893 1387.16
v 0.979135 -71.6992 1387.74
v 1.20652 -72.1516 1388.23
v 1.70058 -72.5022 1388.33
v 1.08457 -71.9859 1389.09
v 1.5542 -72.4522 1389.41
v 1.32866 -72.1315 1389.98
v 1.35274 -71.8217 1390.46
v 1.70557 -72.2703 1390.44
v 1.17621 -71.2549 1386.17
v 1.2038 -70.6709 1385.97
v 1.58219 -71.4268 1385.77
v 1.56849 -70.8129 1385.46
v 0.969227 -70.9317 1386.78
v 0.905939 -71.3727 1388.77
v 1.10067 -71.5532 1389.96
v 1.2057 -70.8178 1389.8
v 1.34462 -71.1162 1390.43
v 1.51672 -71.2636 1390.74
v 1.57152 -70.9167 1390.6
v 1.57162 -70.6304 1390.28
v 1.2386 -70.3642 1386.13
v 1.47584 -70.3594 1385.68
v 1.56311 -70.0133 1386
v 1.74462 -70.368 1385.43
v 1.72564 -70.0825 1385.67
v 1.28398 -70.0708 1386.89
v 1.11152 -70.3821 1388.22
v 1.56955 -70.2197 1389.5
v 1.13686 -66.8908 1386.11
v 1.76072 -66.8667 1385.84
v 1.02193 -67.0405 1386.88
v 1.6187 -67.227 1386.63
v 1.03395 -67.0005 1388.02
v 1.28398 -67.2157 1388.03
v 1.27811 -66.9374 1388.94
v 1.7596 -67.1454 1388.8
v 0.878201 -66.154 1385.68
v 1.02603 -66.464 1385.68
v 1.26212 -66.1304 1385.28
v 1.39967 -66.5994 1385.53
v 1.82099 -66.4 1385.38
v 0.679855 -65.8697 1386.3
v 0.908103 -66.713 1386.26
v 0.815696 -66.7145 1386.89
v 0.704427 -66.0106 1387.63
v 1.01162 -66.5662 1388.93
v 1.41271 -66.4128 1389.8
v 1.73753 -65.8568 1390.27
v 1.40698 -65.3869 1385.07
v 1.8188 -65.5673 1385.06
v 0.760706 -65.1143 1385.97
v 0.877715 -65.5631 1385.52
v 0.889842 -64.651 1385.97
v 1.06806 -64.9364 1385.4
v 1.1177 -64.3567 1385.83
v 1.56477 -64.7008 1385.23
v 0.678468 -65.2767 1386.49
v 0.800983 -64.6747 1386.57
v 0.752841 -65.2199 1387.86
v 0.968885 -64.6725 1388.49
v 1.02942 -65.5614 1389.43
v 1.20354 -64.6925 1389.27
v 1.74072 -64.3722 1389.48
v 1.41047 -65.5439 1390.1
v 1.74917 -65.4897 1390.29
v 1.73172 -64.9626 1390.07
v 1.44009 -64.2307 1385.66
v 0.982707 -64.2458 1387.21
v 1.099 -64.1159 1386.42
v 1.26801 -63.8618 1387.04
v 1.44802 -63.8872 1386.27
v 1.63321 -63.6757 1386.9
v 1.26971 -64.0911 1388.33
v 1.67276 -63.7513 1387.96
v 2.30203 -71.7286 1385.87
v 1.88109 -72.2337 1386.89
v 2.97202 -72.2444 1387.03
v 2.39786 -72.5609 1388.2
v 1.88536 -72.5914 1389.39
v 2.56021 -72.5936 1389.54
v 2.01175 -72.4723 1390.26
v 2.17699 -72.1758 1390.87
v 2.48082 -72.4339 1390.46
v 2.88041 -72.1444 1390.88
v 1.90102 -71.6809 1391.05
v 2.74798 -71.8498 1391.14
v 2.15723 -71.1048 1385.31
v 2.14052 -70.7871 1385.22
v 2.46103 -70.4703 1385.25
v 2.68833 -70.7585 1385.26
v 3.06835 -71.0811 1385.44
v 1.86555 -70.9734 1390.88
v 2.0974 -70.5795 1390.54
v 2.70455 -70.8223 1390.93
v 2.91325 -71.4087 1391.19
v 2.14064 -69.7125 1386.01
v 2.40583 -70.0265 1385.51
v 1.8703 -69.58 1386.96
v 3.04657 -69.3234 1386.97
v 1.95559 -69.6367 1388.08
v 2.34881 -69.9951 1389.78
v 2.88848 -66.8278 1386.14
v 2.77196 -67.1347 1386.88
v 1.8892 -67.3082 1388.04
v 2.59551 -67.2249 1387.61
v 1.87373 -66.7751 1389.54
v 2.72675 -66.8124 1389.25
v 1.88845 -66.2974 1390.06
v 2.48411 -65.8763 1390.23
v 2.741 -66.3948 1389.84
v 2.02619 -64.9429 1385.12
v 3.00509 -64.9839 1385.26
v 2.43709 -65.5643 1390.31
v 2.48131 -65.2449 1390.27
v 2.63417 -64.6463 1389.98
v 2.16577 -64.3505 1385.43
v 2.28004 -63.8724 1385.97
v 2.9029 -64.3926 1385.47
v 2.71232 -63.544 1386.68
v 2.90723 -63.447 1387.45
v 3.51589 -72.2635 1390.33
v 3.78419 -71.9602 1390.71
v 3.27652 -71.8522 1391.04
v 3.25628 -71.676 1391.12
v 3.8816 -66.81 1386.1
v 3.66123 -67.1304 1386.72
v 3.53085 -67.2428 1387.89
v 3.02309 -67.0448 1388.64
v 4.06929 -67.1254 1388.93
v 3.28412 -66.2287 1385.57
v 3.61124 -66.7518 1389.36
v 3.519 -66.1735 1389.95
v 3.46916 -65.5934 1390.19
v 3.736 -64.9837 1390.06
v 3.16947 -63.9191 1386
v 3.81737 -63.5866 1386.89
v 4.10879 -63.549 1387.53
v 2.99361 -63.9674 1389.23
v 3.66546 -63.737 1388.73
v 4.01107 -64.1831 1389.4
v 4.29763 -71.5214 1390.8
v 4.24745 -71.0741 1390.88
v 4.44823 -67.5635 1387.18
v 4.70938 -67.4038 1386.54
v 4.39774 -66.9109 1389.4
v 4.96327 -67.7735 1388.61
v 4.50023 -65.8973 1385.6
v 4.86963 -66.114 1389.93
v 4.21984 -64.6454 1385.72
v 5.29792 -65.3171 1385.83
v 5.20073 -64.0097 1386.98
v 5.13996 -63.7936 1387.73
v 5.09439 -63.8908 1388.35
v 5.3311 -63.8626 1388.36
v 5.20604 -64.1824 1388.92
v 5.94636 -71.8638 1387.99
v 5.73118 -71.8821 1388.88
v 5.72999 -71.6482 1389.71
v 6.31112 -70.5795 1385.98
v 6.26636 -71.4687 1386.68
v 6.1543 -70.5385 1390.25
v 6.24192 -71.1166 1390.04
v 5.66459 -70.2502 1385.85
v 6.03725 -69.7043 1389.89
v 5.50592 -68.9644 1387.14
v 5.68268 -68.8545 1387.16
v 6.20416 -69.1545 1386.65
v 5.45416 -68.9049 1387.61
v 5.48112 -68.7045 1387.61
v 5.90416 -68.8545 1388.68
v 5.79055 -69.052 1388.89
v 6.20416 -68.8545 1388.98
v 6.28429 -69.2191 1389.32
v 6.19559 -67.4117 1386.02
v 5.54527 -67.9094 1386.47
v 5.68674 -67.7764 1389.27
v 6.32451 -66.9311 1389.71
v 6.01522 -65.9239 1389.76
v 6.29684 -66.321 1389.77
v 6.37614 -65.8536 1389.73
v 6.03392 -64.4722 1386.52
v 5.5747 -64.4788 1389.16
v 5.9918 -65.0862 1389.51
v 5.51342 -63.944 1387.16
v 6.47897 -63.9835 1387.03
v 5.62091 -63.6746 1388.19
v 5.90516 -63.6371 1387.6
v 6.19481 -63.6487 1388.19
v 6.53569 -63.7034 1387.75
v 5.48294 -64.1395 1388.8
v 5.9186 -63.8511 1388.63
v 6.46482 -64.2439 1389.04
v 7.71122 -71.891 1387.43
v 7.26248 -71.7379 1388.78
v 7.24214 -71.2589 1389.59
v 7.25155 -70.5578 1389.97
v 7.10417 -69.6045 1386.21
v 7.42032 -70.3023 1385.96
v 6.97238 -69.2975 1389.43
v 7.51123 -70.2618 1389.94
v 6.65416 -69.0045 1389.19
v 7.25417 -69.1545 1389.38
v 7.27553 -66.3513 1389.9
v 7.0402 -64.531 1386.67
v 7.7307 -64.6285 1387.03
v 6.67609 -65.5458 1389.72
v 6.80312 -64.8394 1389.44
v 7.42694 -65.4575 1389.64
v 7.4119 -64.7056 1389.15
v 7.09813 -64.1173 1387.18
v 6.82379 -63.8974 1388.38
v 7.5552 -64.2121 1387.88
v 8.80312 -72.2297 1387.6
v 8.55329 -71.6934 1389.23
v 8.7784 -72.0368 1388.73
v 8.87647 -70.4397 1385.85
v 8.19658 -71.5431 1386.41
v 8.15793 -71.0265 1389.74
v 8.21169 -70.692 1389.86
v 7.79343 -69.6795 1386.04
v 8.47222 -69.5735 1389.49
v 8.12251 -68.9804 1386
v 8.58877 -68.9922 1389.63
v 8.70597 -68.1853 1389.81
v 7.85139 -68.0254 1389.85
v 8.42557 -67.4192 1386.14
v 8.88791 -67.1018 1386.34
v 8.19016 -66.5354 1389.81
v 8.82901 -66.2834 1389.37
v 7.84401 -65.4705 1386.42
v 8.61358 -65.6127 1386.87
v 8.87354 -65.4212 1387.76
v 8.28803 -64.9773 1388.63
v 9.90937 -72.3955 1386.54
v 10.2643 -71.3988 1385.66
v 10.3651 -70.389 1385.95
v 9.24098 -70.0692 1389.54
v 9.18062 -69.4586 1389.42
v 9.57136 -69.619 1389.32
v 10.1573 -69.2667 1388.97
v 9.44565 -68.7829 1386.41
v 9.74968 -68.5295 1386.7
v 9.8855 -68.7433 1386.74
v 10.024 -68.2143 1387
v 9.46408 -69.12 1389.44
v 9.4768 -68.1867 1389.53
v 10.1467 -68.2631 1388.96
v 9.44589 -67.9598 1386.53
v 10.0984 -67.5507 1387.47
v 10.0347 -67.2156 1388.35
v 9.8987 -67.4723 1388.95
v 10.2409 -67.9548 1388.65
v 9.59267 -66.7784 1387.15
v 9.59812 -66.3566 1388.02
v 9.26116 -66.0554 1388.63
v 11.434 -73.179 1387.85
v 10.9765 -72.3747 1385.81
v 10.8007 -72.2612 1389.19
v 11.0216 -71.6513 1389.52
v 11.3172 -70.476 1389.02
v 10.6255 -69.3846 1388.55
v 10.7566 -69.231 1388.04
v 10.3379 -68.8987 1387.17
v 10.2776 -68.6563 1387.29
v 10.4112 -69.14 1388.6
v 10.5419 -68.9888 1388.05
v 10.492 -68.9728 1388.35
v 10.4676 -68.8013 1387.73
v 10.4234 -68.2619 1388.08
v 10.6421 -69.2224 1388.28
v 10.6353 -69.0693 1387.61
v 10.368 -68.5716 1388.65
v 11.8663 -73.0647 1388.48
v 11.9042 -71.7045 1385.33
v 12.311 -70.6093 1388.43
v 12.2635 -70.3718 1387.82
v 12.1369 -71.4069 1389.21
v 11.6498 -70.1628 1386.72
v 13.4261 -72.9879 1384.93
v 13.1989 -73.7687 1386.12
v 13.3945 -73.4659 1385.33
v 13.2362 -72.904 1388.81
v 13.0787 -71.3466 1385.46
v 14.3706 -74.1995 1386.87
v 14.7383 -73.9591 1387.72
v 14.9042 -72.4545 1384.31
v 16.1089 -74.5545 1386.51
v 15.2618 -73.6409 1388.04
v 15.5323 -71.802 1384.84
v 15.1499 -72.7448 1388.35
v 15.7235 -72.1029 1387.72
v 15.4928 -71.484 1385.88
v 16.26 -74.3376 1384.27
v 16.5951 -74.6808 1384.93
v 17.0988 -74.4498 1386.71
v 16.3902 -73.7748 1383.54
v 16.9915 -73.3462 1383.01
v 17.316 -73.8009 1387.26
v 16.2274 -71.9015 1387.02
v 17.843 -74.8912 1385.33
v 17.94 -74.3817 1386.55
v 19.441 -74.1313 1381.53
v 19.0728 -74.8052 1382.78
v 18.8581 -74.7257 1385.62
v 19.1751 -74.105 1386.14
v 18.7971 -72.9172 1381.95
v 19.4477 -73.5324 1381.3
v 19.5759 -73.337 1385.95
v 19.1654 -72.3423 1382.48
v 20.8395 -75.1499 1382.96
v 20.1821 -75.0166 1384.22
v 20.7526 -73.821 1385.22
v 20.1395 -72.1905 1383.72
v 20.8285 -72.7309 1384.52
v 22.3119 -73.5322 1384.03
v 22.4018 -73.2133 1383.79
v 22.6275 -74.5393 1383.48
v 23.3497 -73.9676 1383.26
v 25.8967 -75.2685 1378.19
v 25.4123 -72.3268 1378.54
v 25.5456 -72.5576 1380.23
v 27.0934 -74.8006 1375.83
v 26.3768 -74.273 1380.75
v 26.4592 -73.4969 1375.84
v 26.9085 -73.0721 1379.92
v 25.7609 -72.6493 1377.19
v 27.9243 -74.2948 1374.76
v 26.9647 -74.5816 1380.09
v 28.2869 -74.02 1379.32
v 26.9681 -72.4594 1378.47
v 28.0303 -75.2695 1378.35
v 28.9885 -74.7284 1378.53
v 28.378 -73.3599 1374.61
v 28.5166 -72.6161 1375.97
v 30.3338 -75.6073 1374.09
v 30.5261 -75.8213 1374.65
v 29.7832 -73.6463 1373.54
v 30.3389 -73.3417 1373.36
v 30.6309 -73.6478 1372.82
v 30.5775 -73.0906 1373.7
v 29.6582 -72.8988 1377.07
v 29.2359 -73.629 1378.46
v 30.24 -72.8005 1375.71
v 31.6569 -75.9988 1375.03
v 31.2579 -75.6171 1376.2
v 30.7706 -74.0726 1372.63
v 30.9957 -73.0252 1374.04
v 31.3262 -73.1194 1373.45
v 32.3748 -75.2826 1376.12
v 32.1356 -74.6858 1371.79
v 32.5363 -74.2912 1371.22
v 32.5863 -74.2812 1376.16
v 32.8554 -74.877 1376.04
v 31.9887 -73.0877 1372.53
v 32.8479 -73.2851 1372.36
v 32.0266 -73.2168 1373.24
v 33.3464 -75.657 1371.33
v 33.616 -75.3874 1370.97
v 33.7393 -75.8727 1371.22
v 33.9365 -75.7445 1370.95
v 33.7714 -76.1738 1371.62
v 34.0984 -76.0561 1371.18
v 34.0939 -75.8975 1371.04
v 34.0948 -75.5763 1370.89
v 34.1455 -74.5035 1370.34
v 34.078 -74.491 1370.23
v 33.7285 -74.8599 1370.82
v 33.7226 -74.6867 1370.8
v 33.9586 -74.5883 1370.65
v 33.9438 -74.7541 1370.75
v 34.1149 -74.7292 1370.83
v 34.1042 -74.5323 1370.66
v 33.3355 -74.0805 1375.46
v 33.111 -73.4403 1372.56
v 34.103 -76.4017 1371.8
v 33.9912 -76.469 1372.19
v 34.5377 -76.5713 1372
v 34.5054 -76.6297 1372.58
v 34.7097 -76.4985 1372
v 34.8465 -76.6737 1372.62
v 34.741 -76.6326 1372.97
v 34.8467 -76.6435 1372.45
v 34.9986 -76.6436 1372.79
v 35.0121 -76.4977 1372.47
v 34.9229 -76.5319 1373.35
v 35.2943 -76.5175 1373.21
v 34.2546 -76.2739 1371.43
v 34.2508 -76.0369 1371.2
v 34.3266 -75.5651 1371.18
v 34.538 -76.3285 1371.66
v 34.733 -76.2465 1371.91
v 35.2925 -76.2611 1372.88
v 34.4496 -74.4694 1370.31
v 34.3381 -74.5241 1371.17
v 34.4101 -74.1073 1371.1
v 34.3894 -74.1093 1371.26
v 34.4042 -74.319 1370.81
v 34.4492 -74.1108 1371.42
v 34.7482 -73.9958 1370.75
v 35.2909 -74.2894 1372.87
v 34.8677 -73.9964 1373.93
v 35.1693 -73.0728 1368.96
v 34.3776 -73.9453 1371.26
v 34.2304 -73.7769 1371.61
v 34.4575 -73.6522 1371.09
v 34.4128 -73.9494 1371.46
v 34.5669 -73.8219 1370.99
v 34.338 -73.6349 1372.22
v 34.7858 -73.9658 1372.03
v 34.6821 -73.6829 1373.1
v 35.3154 -73.9842 1373.07
v 35.4488 -76.3361 1373.2
v 35.2232 -76.1605 1373.95
v 35.6597 -76.0414 1373.79
v 35.6979 -75.8594 1373.61
v 35.4205 -75.7169 1374.25
v 35.7926 -75.7259 1373.82
v 35.7826 -75.4642 1374.1
v 35.7999 -75.2895 1373.77
v 35.8566 -75.2984 1373.95
v 35.4916 -75.4264 1374.33
v 35.0684 -74.2177 1374.1
v 35.4843 -74.6879 1374.18
v 35.623 -74.4025 1373.48
v 35.6422 -74.4169 1373.67
v 35.795 -75.1479 1374.11
v 35.79 -74.9617 1373.77
v 35.8187 -74.987 1373.95
v 35.4366 -75.1228 1374.38
v 36.646 -73.6513 1366.84
v 35.2954 -73.3579 1368.38
v 35.8554 -73.016 1368.87
v 37.3981 -74.2877 1366.55
v 37.2094 -74.101 1368.15
v 37.4945 -73.7945 1368.03
v 38.5833 -74.3525 1366.06
v 37.8623 -73.1621 1365.85
v 37.9484 -72.9738 1366.2
v 38.6859 -73.2316 1366.52
v 39.6772 -73.9532 1365.55
v 40.0001 -73.5186 1365.29
v 41.1809 -74.1668 1362.26
v 40.8691 -73.8249 1362.23
v 40.8849 -73.2204 1362.3
v 41.1575 -73.514 1361.88
v 41.119 -72.9463 1362.47
v 41.7373 -74.1552 1361.97
v 41.8944 -74.1962 1362.14
v 41.4507 -74.289 1362.41
v 41.2956 -74.2972 1362.88
v 41.8969 -74.1019 1362.72
v 41.4451 -73.9317 1361.78
v 41.4784 -73.5091 1361.65
v 41.4443 -73.2088 1361.79
v 41.7594 -73.8014 1361.68
v 41.8782 -73.5051 1361.67
v 41.7593 -73.221 1361.74
v 41.7354 -73.0014 1361.98
v 42.0841 -73.9501 1361.96
v 42.1983 -73.7987 1361.97
v 42.0513 -73.6546 1361.77
v 42.0513 -73.3639 1361.8
v 42.2001 -73.3495 1361.97
v 42.0796 -73.1989 1361.97
v 42.2391 -73.5122 1361.97
v 41.4461 -73.0149 1363.19
v 41.6364 -72.9306 1362.64
v 41.8411 -73.2176 1363.02
v 41.9395 -73.7994 1363.02
v 42.0347 -73.0699 1362.57
v 42.2232 -73.9525 1362.26
v 42.3096 -73.782 1362.25
v 42.2581 -73.7998 1362.55
v 42.344 -73.5114 1362.25
v 42.3388 -73.5134 1362.41
v 42.1632 -73.5094 1362.78
v 42.3096 -73.3639 1362.25
v 42.2573 -73.3463 1362.55
v 42.2206 -73.2051 1362.27
v 4.44823 -67.5635 1387.18
v 6.1543 -70.5385 1390.25
v 5.68268 -68.8545 1387.16
v 5.68268 -68.8545 1387.16
v 6.20416 -69.1545 1386.65
v 5.45416 -68.9049 1387.61
v 5.45416 -68.9049 1387.61
v 5.48112 -68.7045 1387.61
v 5.48112 -68.7045 1387.61
v 5.48112 -68.7045 1387.61
v 5.90416 -68.8545 1388.68
v 5.90416 -68.8545 1388.68
v 5.90416 -68.8545 1388.68
v 5.79055 -69.052 1388.89
v 6.20416 -68.8545 1388.98
v 6.20416 -68.8545 1388.98
v 5.54527 -67.9094 1386.47
v 6.65416 -69.0045 1389.19
v 6.65416 -69.0045 1389.19
v 34.0984 -76.0561 1371.18
v 34.0939 -75.8975 1371.04
v 34.078 -74.491 1370.23
v 33.7226 -74.6867 1370.8
v 33.9586 -74.5883 1370.65
v 33.9586 -74.5883 1370.65
v 33.9438 -74.7541 1370.75
v 34.1042 -74.5323 1370.66
v 34.1042 -74.5323 1370.66
v 34.5377 -76.5713 1372
v 35.2943 -76.5175 1373.21
v 34.2546 -76.2739 1371.43
v 34.538 -76.3285 1371.66
v 34.3381 -74.5241 1371.17
v 34.4101 -74.1073 1371.1
v 34.4042 -74.319 1370.81
v 34.4042 -74.319 1370.81
v 34.3776 -73.9453 1371.26
v 34.2304 -73.7769 1371.61
v 34.4128 -73.9494 1371.46
v 34.7858 -73.9658 1372.03
v 35.3154 -73.9842 1373.07
v 35.6597 -76.0414 1373.79
v 35.7926 -75.7259 1373.82
v 42.0796 -73.1989 1361.97
v 42.2206 -73.2051 1362.27
vn -0.660201 -0.701015 -0.269651
vn -0.929688 -0.352514 -0.106835
vn -0.720837 -0.689502 -0.070578
vn -0.371496 -0.920826 -0.118618
vn -0.884591 -0.460645 0.0728369
vn -0.551106 -0.828311 0.100911
vn -0.786806 -0.566282 0.245481
vn -0.812961 -0.268474 0.516737
vn -0.534215 -0.709516 0.459566
vn -0.862773 -0.319084 -0.392184
vn -0.897887 0.0936734 -0.430144
vn -0.482555 -0.633018 -0.605333
vn -0.630559 -0.114974 -0.767578
vn -0.986201 0.109972 -0.123747
vn -0.997168 0.017296 0.0731853
vn -0.960152 -0.0915188 0.26407
vn -0.87853 0.397827 0.264422
vn -0.851138 0.264733 0.4533
vn -0.7054 0.163046 0.689802
vn -0.587722 0.545002 0.59796
vn -0.57789 0.671099 0.464403
vn -0.865793 0.423749 -0.266156
vn -0.734773 0.391847 -0.553683
vn -0.624166 0.719195 -0.305245
vn -0.382316 0.378217 -0.843081
vn -0.435811 0.686697 -0.581821
vn -0.782583 0.620595 -0.0492417
vn -0.85734 0.506094 0.0940045
vn -0.597456 0.750899 0.281418
vn -0.447319 -0.794892 -0.409941
vn 0.0399014 -0.816945 -0.575334
vn -0.64688 -0.75543 -0.10427
vn -0.0704342 -0.973574 -0.21724
vn -0.831903 -0.539511 0.129863
vn -0.384475 -0.917042 0.105893
vn -0.527996 -0.76037 0.37823
vn -0.0618175 -0.939364 0.337305
vn -0.858995 -0.251146 -0.446153
vn -0.65373 -0.517254 -0.552346
vn -0.410735 -0.333471 -0.848583
vn -0.235515 -0.676629 -0.697643
vn 0.0799031 -0.534881 -0.841141
vn -0.984764 -0.101231 -0.141393
vn -0.852761 -0.461333 -0.24489
vn -0.934317 -0.355582 -0.0247591
vn -0.989646 -0.106614 0.0960987
vn -0.894493 -0.337133 0.293639
vn -0.603905 -0.486295 0.631519
vn -0.24397 -0.265819 0.932641
vn -0.344724 0.0611009 -0.936714
vn 0.0601975 -0.14891 -0.987017
vn -0.95695 0.160048 -0.242139
vn -0.836659 -0.020003 -0.547359
vn -0.883233 0.382249 -0.271635
vn -0.70068 0.333015 -0.63099
vn -0.673525 0.603224 -0.427182
vn -0.234888 0.451194 -0.86096
vn -0.994958 0.0975472 -0.0233194
vn -0.949237 0.311535 -0.0435277
vn -0.98111 0.160757 0.107615
vn -0.920716 0.335224 0.199767
vn -0.943163 0.0275139 0.33119
vn -0.764305 0.46412 0.447695
vn -0.350501 0.774706 0.526288
vn -0.703713 0.0898349 0.704782
vn -0.234998 0.146812 0.960844
vn -0.367895 0.498878 0.784713
vn -0.33694 0.700875 -0.628686
vn -0.885867 0.460073 0.0597767
vn -0.783427 0.601705 -0.155541
vn -0.622086 0.782949 0.000849594
vn -0.397533 0.862121 -0.31419
vn -0.293622 0.953273 -0.0711171
vn -0.683488 0.686271 0.248749
vn -0.294498 0.92634 0.234873
vn 0.0102043 -0.788581 -0.614846
vn -0.218633 -0.911388 -0.34867
vn 0.120925 -0.940816 -0.31661
vn 0.0303048 -0.991353 -0.127673
vn -0.181393 -0.982405 0.0444706
vn 0.100924 -0.991008 0.0878543
vn -0.211854 -0.936076 0.280854
vn -0.181402 -0.727319 0.661892
vn 0.0600086 -0.93052 0.361291
vn 0.158787 -0.771776 0.615751
vn -0.397729 -0.122033 0.909351
vn 0.023398 -0.400398 0.916043
vn -0.106149 -0.463428 -0.879754
vn -0.163731 -0.0357462 -0.985857
vn 0.0031742 0.291875 -0.956451
vn 0.150717 -0.0972521 -0.983782
vn 0.184943 -0.448872 -0.874248
vn -0.364746 0.469326 0.804173
vn -0.217174 0.762848 0.609014
vn -0.0615761 0.513629 0.8558
vn 0.0145577 0.124366 0.99213
vn -0.237566 0.892114 -0.384312
vn -0.082518 0.675877 -0.73238
vn -0.441022 0.893011 -0.0896152
vn -0.196213 0.978989 -0.055506
vn -0.423904 0.893552 0.147888
vn -0.250679 0.869054 0.426503
vn 0.0690665 -0.860562 -0.504642
vn 0.038929 -0.975828 -0.215046
vn 0.0105726 -0.996528 0.0825881
vn 0.0581601 -0.998304 0.00250353
vn -0.0666687 -0.819133 0.569716
vn 0.0777249 -0.877054 0.474063
vn -0.0504094 -0.6018 0.797055
vn 0.0864862 -0.402746 0.911217
vn 0.0883218 -0.708463 0.7002
vn 0.0520387 0.279422 -0.958757
vn 0.210065 0.174351 -0.962016
vn 0.0417603 -0.0621418 0.997193
vn 0.0215136 0.275155 0.961159
vn -0.0215943 0.625014 0.780315
vn 0.00632656 0.640098 -0.768268
vn -0.0591676 0.847409 -0.527634
vn 0.163551 0.52027 -0.838195
vn -0.0347424 0.956495 -0.289674
vn -0.0404048 0.998531 0.036104
vn 0.255309 -0.927516 0.273003
vn 0.344542 -0.725203 0.596131
vn 0.260117 -0.547595 0.795285
vn 0.227581 -0.213418 0.950084
vn -0.0848725 -0.709902 -0.699168
vn -0.185508 -0.924468 -0.333086
vn -0.211353 -0.976046 0.0516081
vn 0.00235793 -0.957977 0.286836
vn -0.271715 -0.860675 0.430593
vn 0.142215 -0.651158 -0.745499
vn -0.079947 -0.820064 0.56666
vn 0.0314086 -0.566414 0.823522
vn 0.123057 -0.097042 0.987644
vn 0.16519 0.371556 0.913596
vn 0.173676 0.792708 -0.584338
vn 0.188179 0.94457 -0.26903
vn 0.158119 0.985814 0.056292
vn -0.0650976 0.857522 0.510312
vn 0.0704719 0.936523 0.343452
vn 0.165349 0.723533 0.670193
vn 0.364167 -0.358119 0.859729
vn 0.219032 0.190709 0.956899
vn -0.428389 -0.857374 -0.285294
vn -0.335981 -0.750293 -0.569366
vn -0.228499 -0.698243 0.678413
vn -0.555195 -0.747244 0.36522
vn 0.156705 -0.27425 -0.948805
vn -0.0138454 -0.37836 0.925555
vn 0.276146 0.476312 -0.834788
vn 0.228701 0.236376 -0.944363
vn 0.189054 0.89257 -0.409362
vn -0.039126 0.996196 -0.0778631
vn 0.0697743 0.941566 0.329521
vn -0.2424 0.878228 0.412259
vn 0.176832 0.836522 0.518615
vn 0.128457 -0.989454 -0.0669302
vn 0.180167 -0.973604 0.140127
vn 0.283663 -0.839699 0.463078
vn 0.0767284 -0.387288 -0.918761
vn 0.0640445 -0.837396 -0.542831
vn 0.305667 -0.201318 0.930612
vn 0.335561 -0.51775 0.786978
vn 0.142132 -0.0132969 -0.989758
vn 0.0721934 0.578776 0.812285
vn -0.283133 0.876004 -0.390452
vn -0.87613 -0.235603 -0.420581
vn -0.104535 0.82581 -0.554176
vn -0.280196 0.955293 -0.0943659
vn -0.752976 -0.628774 0.194089
vn -0.178511 0.983517 0.0287604
vn -0.275085 0.872718 0.40335
vn -0.567596 -0.454115 0.686742
vn -0.10499 0.734503 0.670434
vn -0.119233 -0.233987 -0.964901
vn -0.521299 -0.72441 -0.451084
vn -0.39084 -0.44065 0.808128
vn -0.111707 -0.223978 0.968171
vn 0.145468 0.191492 0.970654
vn 0.00043689 -0.034995 0.999387
vn -0.0609553 0.161573 0.984976
vn 0.181672 0.685964 -0.704591
vn 0.11122 0.676356 0.72813
vn 0.0527388 0.425141 0.903589
vn -0.0491314 0.865769 -0.498026
vn 0.14018 0.811241 -0.567659
vn -0.201918 0.950859 0.234726
vn -0.0423579 0.97137 -0.233765
vn 0.110895 0.969984 0.21641
vn 0.308817 0.942571 -0.127251
vn -0.0597105 0.778157 0.625225
vn -0.0553016 0.824916 0.562544
vn 0.0592316 0.672344 0.737865
vn -0.192719 -0.961932 -0.193768
vn -0.0392394 -0.962064 0.269988
vn 0.110441 -0.673182 0.731183
vn 0.159561 -0.285094 0.945125
vn -0.111867 0.159197 -0.980888
vn -0.0913125 -0.0698173 -0.993372
vn -0.00172811 0.54785 0.836575
vn 0.164568 0.173517 0.970984
vn -0.432188 -0.388173 0.813963
vn -0.171263 0.0353875 0.98459
vn -0.00215886 0.101516 0.994832
vn 0.286056 0.607155 -0.741306
vn 0.55466 0.680222 -0.479218
vn -0.0402047 0.264431 0.963566
vn 0.0862076 0.492094 0.866263
vn 0.235264 0.394159 0.88842
vn 0.38499 0.639173 0.665763
vn 0.413974 0.808569 -0.41814
vn 0.362079 0.854459 0.372556
vn 0.568944 0.821525 -0.0373951
vn -0.311741 -0.949959 -0.019895
vn -0.144841 -0.775629 0.614345
vn -0.24333 -0.910112 0.33539
vn -0.032795 0.140074 -0.989598
vn -0.212991 -0.694854 -0.686886
vn -0.0214355 -0.485949 0.873724
vn 0.080411 -0.15701 0.984318
vn -0.143402 0.0397873 -0.988864
vn 0.0512832 0.174014 0.983407
vn 0.114059 0.106378 -0.987762
vn 0.0326014 -0.24568 0.968803
vn 0.169413 -0.0706442 0.98301
vn -0.136882 -0.178196 0.974428
vn 0.224441 0.0796951 -0.971223
vn 0.503185 0.259239 -0.824379
vn 0.301326 0.213027 0.92942
vn 0.55217 0.435446 0.710982
vn 0.371371 0.39939 -0.838195
vn 0.633538 0.514513 -0.577846
vn 0.74135 0.660269 -0.120186
vn 0.616406 0.699397 0.361784
vn -0.374335 -0.829993 -0.413503
vn -0.165628 0.00703005 -0.986163
vn 0.118522 0.465544 -0.877052
vn 0.210042 0.293767 0.932514
vn 0.17556 -0.0534319 0.983018
vn 0.337059 0.108883 0.935166
vn 0.657601 0.167605 0.734486
vn 0.438884 0.322159 -0.838805
vn 0.615522 0.172374 -0.769039
vn 0.644081 0.398667 -0.652859
vn 0.744111 0.207375 -0.635054
vn 0.331237 -0.15694 0.930404
vn 0.52778 0.0968825 0.843837
vn 0.776691 0.138493 0.614468
vn 0.535199 0.143045 -0.832526
vn 0.904594 0.319219 -0.282504
vn 0.896906 0.41456 0.153948
vn 0.7553 0.341881 0.559141
vn 0.902982 0.27125 0.333236
vn 0.761255 0.407552 -0.504373
vn 0.850264 0.523532 -0.0544563
vn 0.763746 0.553686 0.33185
vn -0.305627 -0.939332 0.155718
vn -0.358563 -0.547369 -0.756188
vn -0.0910907 -0.631055 0.770371
vn 0.134602 -0.122855 0.983254
vn 0.415482 0.507653 0.75476
vn 0.610826 0.583794 0.534861
vn 0.677846 0.711997 0.183259
vn 0.734503 0.59161 -0.33242
vn 0.854019 0.267915 -0.445952
vn 0.817898 0.290686 0.496532
vn 0.889097 0.446641 0.100096
vn 0.93324 0.246174 0.261651
vn 0.915264 0.351338 -0.197116
vn 0.972412 0.230817 0.033734
vn 0.712657 0.617586 0.332728
vn 0.724765 0.685724 -0.067073
vn 0.913633 0.105673 0.392565
vn -0.183323 -0.848325 0.496726
vn -0.162954 0.271601 -0.948514
vn 0.486676 0.736549 0.469726
vn 0.51958 0.845983 0.11979
vn 0.330986 0.325431 0.885744
vn 0.490837 0.76611 -0.414916
vn -0.423629 -0.224801 -0.877498
vn -0.362207 -0.905484 -0.221144
vn -0.425035 -0.690348 -0.585462
vn 0.0623754 -0.536977 0.841288
vn 0.0152542 0.714038 -0.699941
vn -0.230855 -0.961422 0.149577
vn -0.0469532 -0.851853 0.521672
vn -0.273315 0.535788 -0.798893
vn -0.0930544 -0.968677 0.23023
vn 0.188675 -0.564425 0.803633
vn -0.074943 0.862839 -0.499893
vn 0.368215 0.0285822 0.929301
vn 0.446891 0.589734 0.672683
vn 0.181887 0.95973 -0.214094
vn -0.397069 -0.794463 -0.459526
vn -0.235827 -0.963627 -0.125731
vn 0.113728 -0.841086 0.52881
vn -0.504974 -0.460052 -0.73031
vn -0.529565 -0.0957377 -0.842849
vn 0.370681 -0.369303 0.85218
vn 0.371138 0.867138 0.332157
vn -0.0252817 -0.985753 0.166291
vn 0.276421 -0.702787 0.655501
vn -0.515344 -0.552362 -0.655222
vn -0.304582 -0.891119 -0.336358
vn 0.228019 -0.852391 0.470571
vn 0.459094 -0.436169 0.773944
vn -0.487293 0.422416 -0.764271
vn -0.594298 -0.0601656 -0.801991
vn 0.525453 0.268854 0.807228
vn -0.172093 0.908861 -0.379942
vn -0.0709367 -0.997318 -0.0180384
vn 0.153133 -0.945007 0.288983
vn 0.565903 -0.139617 0.812564
vn 0.171229 0.976415 0.131507
vn 0.41941 0.74497 0.518763
vn 0.596467 0.220264 0.771823
vn 0.527741 0.519709 0.671857
vn 0.45449 -0.625574 0.634111
vn 0.598438 -0.192705 0.777648
vn -0.193771 -0.971881 -0.133793
vn -0.0369944 0.992802 -0.113911
vn 0.324761 0.874286 0.360768
vn -0.461185 -0.723602 -0.513525
vn 0.560657 -0.393295 0.728686
vn -0.564876 0.307494 -0.765744
vn 0.471323 0.695811 0.541943
vn -0.305699 0.827149 -0.471563
vn -0.58571 -0.289542 -0.75704
vn 0.453342 -0.640465 0.619908
vn 0.59418 -0.0814555 0.800197
vn 0.1744 0.976601 0.125836
vn 0.202014 -0.909571 0.363142
vn 0.432441 -0.601531 0.67168
vn -0.427873 0.619167 -0.65845
vn 0.000519185 0.988417 -0.151764
vn -0.366287 -0.878255 -0.307413
vn -0.240989 -0.964226 -0.110421
vn -0.534811 0.4276 -0.72879
vn -0.473543 0.680688 -0.558947
vn -0.638649 0.355038 -0.682698
vn -0.122453 0.967904 -0.219468
vn 0.34583 0.885067 0.311543
vn 0.575566 0.394284 0.716424
vn 0.174463 0.984473 0.0193895
vn -0.0529924 -0.982781 0.177015
vn 0.191489 -0.847697 0.494714
vn -0.628218 -0.0712508 -0.774768
vn 0.0633439 0.989983 -0.126178
vn 0.116159 0.993002 0.0213104
vn 0.392719 -0.559661 0.729761
vn -0.548312 -0.293257 -0.783169
vn -0.474597 -0.66864 -0.572432
vn 0.573083 0.269318 0.773979
vn 0.523303 -0.16742 0.835538
vn 0.179088 0.965811 0.187447
vn 0.376511 0.872943 0.310178
vn 0.170047 0.985411 -0.00706296
vn -0.533192 -0.512169 -0.673342
vn -0.412143 -0.271187 -0.869825
vn -0.447998 -0.669323 -0.59271
vn -0.321976 -0.478583 -0.816878
vn -0.400438 -0.800262 -0.446352
vn -0.395659 -0.727373 -0.560699
vn -0.380763 -0.668694 -0.638645
vn 0.334426 -0.218901 -0.916647
vn 0.135069 -0.989009 -0.0601409
vn 0.118326 -0.988875 -0.0901424
vn -0.36963 -0.156307 -0.915938
vn -0.405962 -0.425496 -0.808794
vn 0.269754 -0.95559 -0.118665
vn -0.239468 -0.263529 -0.934456
vn 0.64156 -0.364624 -0.67487
vn 0.233505 -0.970602 -0.0583786
vn 0.539542 0.527101 0.656551
vn 0.246648 0.96906 0.00935
vn -0.303222 -0.892522 -0.333859
vn -0.280719 -0.941825 -0.184833
vn -0.184268 -0.959799 -0.211736
vn -0.158353 -0.986668 -0.0375558
vn 0.621646 -0.592374 -0.512493
vn 0.0433639 -0.998542 -0.0321355
vn -0.0315831 -0.987805 0.15246
vn 0.324789 -0.906309 -0.2704
vn 0.35348 -0.934852 -0.033207
vn 0.776109 -0.480904 -0.407905
vn 0.0921038 -0.943338 0.318796
vn 0.73301 -0.65709 -0.175868
vn -0.28889 -0.853657 -0.433374
vn 0.499882 -0.472391 -0.725923
vn 0.821335 -0.0793754 -0.564897
vn 0.341007 -0.732861 -0.588752
vn 0.840767 -0.136105 -0.524011
vn 0.871686 -0.088439 -0.482019
vn 0.259006 -0.953038 0.156956
vn 0.946192 -0.0341896 -0.321794
vn 0.941792 -0.141418 0.305007
vn 0.990665 0.0527514 -0.125696
vn 0.739322 -0.544462 -0.396187
vn 0.887775 0.165408 -0.42953
vn 0.684196 -0.389264 0.616725
vn 0.876087 0.0525708 -0.479279
vn 0.458031 0.816152 0.352284
vn -0.334273 0.889604 -0.311232
vn 0.95321 -0.008479 0.302189
vn 0.45726 0.889264 -0.0110566
vn 0.737926 0.316426 0.596103
vn 0.908529 0.235617 -0.345052
vn 0.765085 -0.103393 0.635575
vn 0.30859 0.935138 -0.174039
vn 0.855786 0.174635 -0.486963
vn 0.378793 0.923881 0.0543965
vn 0.871282 0.225413 -0.435956
vn 0.873321 -0.400767 -0.276941
vn 0.297012 -0.769567 0.565288
vn 0.583517 -0.598404 0.549018
vn 0.917598 -0.148422 -0.368762
vn 0.478316 -0.468347 0.742876
vn 0.942237 -0.159445 -0.294563
vn 0.767033 -0.226152 0.60043
vn 0.919427 -0.0108168 -0.393112
vn 0.999565 -0.00659603 0.0287426
vn 0.553548 -0.184837 0.812047
vn 0.524655 0.680314 0.511771
vn 0.626653 0.44946 0.636625
vn 0.923891 0.273946 -0.267168
vn 0.792965 0.569284 0.217076
vn 0.800152 0.153266 0.579885
vn 0.956487 0.115324 -0.268016
vn 0.932236 0.287185 0.220139
vn 0.586557 0.0951673 0.804297
vn -0.722643 0.0812399 -0.686431
vn -0.593728 0.557046 -0.580677
vn 0.156606 0.972728 0.171099
vn -0.442529 -0.782933 -0.437246
vn 0.587056 -0.598361 0.545278
vn 0.721915 -0.0671732 0.688713
vn 0.287773 -0.927354 0.239168
vn -0.545082 0.680132 -0.49021
vn -0.187125 0.97004 -0.154938
vn 0.580431 0.593245 0.557817
vn 0.6499 -0.502462 0.570229
vn 0.740127 0.120223 0.661633
vn -0.389995 -0.784339 -0.482406
vn -0.650793 -0.404279 -0.642672
vn -0.615446 0.524656 -0.588186
vn -0.66327 0.0743267 -0.74468
vn -0.301451 0.894061 -0.331334
vn 0.0627106 -0.81827 -0.571404
vn 0.396562 -0.908078 -0.134655
vn -0.041496 -0.982404 -0.1821
vn 0.1176 -0.992516 0.0329125
vn 0.546445 -0.770517 0.328179
vn -0.393635 -0.483158 -0.782055
vn -0.247193 0.0815298 -0.96553
vn -0.382526 0.594646 -0.707157
vn 0.180801 -0.385133 -0.904977
vn 0.285395 0.107159 -0.9524
vn 0.178307 0.540602 -0.822165
vn 0.11219 0.903968 -0.41262
vn 0.554637 -0.590542 -0.586206
vn 0.807865 -0.330979 -0.487656
vn 0.596687 -0.159346 -0.786494
vn 0.590015 0.319806 -0.741355
vn 0.789397 0.407293 -0.459309
vn 0.559506 0.609029 -0.562171
vn 0.865536 0.0520024 -0.49814
vn 0.416781 0.831228 0.367905
vn 0.219664 0.975575 -0.00116158
vn 0.666009 0.508588 0.545682
vn 0.744267 -0.320966 0.585703
vn 0.570561 0.782518 0.249251
vn 0.767077 -0.636783 -0.0781038
vn 0.959897 -0.252082 -0.122686
vn 0.862777 -0.366972 0.347775
vn 0.985309 0.0512683 -0.162903
vn 0.976708 0.0480598 0.209121
vn 0.828224 0.0800536 0.55465
vn 0.933546 0.338366 -0.118319
vn 0.848565 0.411854 0.332134
vn 0.82684 0.5565 -0.0815088
vn -0.761641 -0.621617 0.18302
vn 0.153865 0.405764 0.900934
vn -0.511484 0.843238 -0.165328
vn -0.334003 0.623819 -0.706606
vn -0.656771 -0.433573 -0.616981
vn -0.890536 0.119778 -0.438861
vn -0.916802 0.123311 0.379826
vn -0.539601 -0.674898 -0.503332
vn -0.920281 -0.112974 -0.374592
vn -0.916802 0.123311 0.379826
vn -0.437838 0.767117 0.46886
vn -0.672502 -0.540288 0.505796
vn -0.916802 0.123311 0.379826
vn -0.329179 0.290039 0.89862
vn -0.460587 0.763126 0.45332
vn -0.329179 0.290039 0.89862
vn -0.616483 -0.386205 -0.686145
vn -0.329179 0.290039 0.89862
vn -0.173017 0.698699 0.694179
vn 0.165205 -0.679254 -0.715067
vn 0.26287 -0.486171 -0.833389
vn -0.365958 -0.836283 -0.408296
vn 0.313639 -0.940876 -0.127998
vn -0.309328 -0.4733 -0.824805
vn 0.335727 -0.568802 -0.750834
vn 0.423235 -0.295689 -0.856411
vn 0.460538 -0.573389 -0.677591
vn 0.449806 -0.842068 0.29765
vn 0.322333 -0.804135 -0.499469
vn 0.237279 -0.900491 0.364437
vn 0.293663 -0.709593 -0.6405
vn 0.801347 -0.184314 -0.569098
vn 0.798774 -0.573824 -0.180794
vn 0.653561 -0.618794 0.435834
vn 0.503329 -0.760885 0.409529
vn 0.983603 -0.154892 0.092383
vn 0.641944 0.760743 -0.095802
vn 0.917448 -0.0259983 0.397005
vn 0.556506 0.799942 -0.224485
vn 0.481526 0.848642 -0.218951
vn 0.572066 0.816695 0.0758246
vn 0.880802 -0.463532 -0.0965657
vn 0.901982 -0.30165 0.308928
vn 0.422671 0.902522 -0.0824832
vn 0.316149 0.929493 -0.189981
g grp1
usemtl mtl1
f 2//2 1//1 3//3 
f 2//2 10//10 1//1 
f 10//10 12//12 1//1 
f 1//1 12//12 77//77 
f 2//2 15//15 14//14 
f 5//5 15//15 2//2 
f 5//5 2//2 3//3 
f 4//4 6//6 3//3 
f 1//1 4//4 3//3 
f 1//1 77//77 4//4 
f 15//15 5//5 16//16 
f 3//3 6//6 5//5 
f 6//6 7//7 5//5 
f 7//7 16//16 5//5 
f 4//4 80//80 6//6 
f 80//80 82//82 6//6 
f 7//7 8//8 16//16 
f 7//7 9//9 8//8 
f 9//9 86//86 8//8 
f 6//6 9//9 7//7 
f 9//9 83//83 86//86 
f 82//82 9//9 6//6 
f 82//82 83//83 9//9 
f 11//11 10//10 14//14 
f 10//10 11//11 13//13 
f 22//22 11//11 14//14 
f 13//13 12//12 10//10 
f 13//13 11//11 23//23 
f 22//22 23//23 11//11 
f 23//23 25//25 13//13 
f 14//14 10//10 2//2 
f 28//28 27//27 14//14 
f 27//27 22//22 14//14 
f 14//14 15//15 28//28 
f 16//16 17//17 15//15 
f 15//15 17//17 28//28 
f 21//21 29//29 17//17 
f 8//8 18//18 16//16 
f 18//18 17//17 16//16 
f 8//8 19//19 18//18 
f 17//17 18//18 21//21 
f 8//8 86//86 19//19 
f 19//19 20//20 18//18 
f 18//18 20//20 21//21 
f 19//19 86//86 93//93 
f 19//19 93//93 20//20 
f 21//21 20//20 94//94 
f 94//94 20//20 93//93 
f 94//94 102//102 21//21 
f 23//23 22//22 24//24 
f 25//25 23//23 26//26 
f 26//26 24//24 97//97 
f 26//26 23//23 24//24 
f 97//97 24//24 99//99 
f 28//28 101//101 27//27 
f 27//27 24//24 22//22 
f 99//99 24//24 27//27 
f 99//99 27//27 101//101 
f 29//29 101//101 28//28 
f 101//101 29//29 102//102 
f 17//17 29//29 28//28 
f 21//21 102//102 29//29 
f 30//30 31//31 33//33 
f 31//31 42//42 131//131 
f 33//33 31//31 103//103 
f 103//103 104//104 33//33 
f 32//32 44//44 30//30 
f 45//45 44//44 32//32 
f 34//34 45//45 32//32 
f 33//33 32//32 30//30 
f 35//35 32//32 33//33 
f 32//32 35//35 34//34 
f 34//34 35//35 36//36 
f 105//105 37//37 35//35 
f 33//33 105//105 35//35 
f 34//34 36//36 47//47 
f 47//47 36//36 48//48 
f 36//36 35//35 37//37 
f 48//48 36//36 107//107 
f 107//107 36//36 37//37 
f 53//53 50//50 40//40 
f 51//51 40//40 50//50 
f 38//38 44//44 43//43 
f 38//38 43//43 53//53 
f 43//43 52//52 53//53 
f 43//43 58//58 52//52 
f 46//46 58//58 43//43 
f 39//39 30//30 44//44 
f 38//38 39//39 44//44 
f 38//38 40//40 39//39 
f 38//38 53//53 40//40 
f 41//41 30//30 39//39 
f 41//41 39//39 40//40 
f 30//30 41//41 31//31 
f 42//42 41//41 40//40 
f 31//31 41//41 42//42 
f 42//42 40//40 51//51 
f 43//43 45//45 46//46 
f 43//43 44//44 45//45 
f 34//34 46//46 45//45 
f 46//46 47//47 62//62 
f 34//34 47//47 46//46 
f 47//47 48//48 62//62 
f 48//48 107//107 109//109 
f 109//109 49//49 48//48 
f 49//49 65//65 48//48 
f 112//112 51//51 50//50 
f 58//58 59//59 52//52 
f 53//53 52//52 55//55 
f 54//54 52//52 59//59 
f 52//52 54//54 55//55 
f 56//56 55//55 54//54 
f 54//54 59//59 70//70 
f 56//56 54//54 70//70 
f 53//53 55//55 50//50 
f 55//55 57//57 50//50 
f 55//55 68//68 57//57 
f 112//112 50//50 57//57 
f 46//46 60//60 58//58 
f 59//59 58//58 60//60 
f 59//59 60//60 69//69 
f 61//61 69//69 60//60 
f 74//74 69//69 61//61 
f 62//62 60//60 46//46 
f 48//48 65//65 62//62 
f 62//62 63//63 61//61 
f 60//60 62//62 61//61 
f 74//74 61//61 63//63 
f 63//63 62//62 65//65 
f 65//65 67//67 63//63 
f 67//67 64//64 63//63 
f 66//66 65//65 49//49 
f 49//49 114//114 66//66 
f 66//66 67//67 65//65 
f 64//64 67//67 116//116 
f 115//115 66//66 114//114 
f 115//115 67//67 66//66 
f 72//72 56//56 70//70 
f 55//55 56//56 68//68 
f 72//72 68//68 56//56 
f 118//118 68//68 72//72 
f 120//120 118//118 72//72 
f 69//69 70//70 59//59 
f 72//72 70//70 71//71 
f 71//71 70//70 69//69 
f 73//73 72//72 71//71 
f 73//73 71//71 75//75 
f 74//74 71//71 69//69 
f 74//74 75//75 71//71 
f 74//74 63//63 64//64 
f 74//74 64//64 75//75 
f 88//88 76//76 12//12 
f 88//88 92//92 76//76 
f 79//79 77//77 78//78 
f 76//76 77//77 12//12 
f 77//77 76//76 78//78 
f 79//79 4//4 77//77 
f 78//78 157//157 79//79 
f 79//79 80//80 4//4 
f 80//80 79//79 81//81 
f 157//157 81//81 79//79 
f 81//81 82//82 80//80 
f 84//84 83//83 82//82 
f 84//84 82//82 81//81 
f 84//84 122//122 85//85 
f 83//83 84//84 85//85 
f 85//85 87//87 83//83 
f 87//87 86//86 83//83 
f 86//86 87//87 96//96 
f 124//124 87//87 85//85 
f 125//125 96//96 87//87 
f 88//88 12//12 13//13 
f 25//25 90//90 89//89 
f 13//13 25//25 89//89 
f 88//88 13//13 89//89 
f 91//91 88//88 89//89 
f 92//92 88//88 91//91 
f 91//91 89//89 90//90 
f 164//164 92//92 91//91 
f 91//91 90//90 198//198 
f 93//93 95//95 94//94 
f 95//95 165//165 94//94 
f 93//93 86//86 95//95 
f 86//86 96//96 95//95 
f 25//25 98//98 90//90 
f 25//25 26//26 98//98 
f 98//98 26//26 97//97 
f 168//168 98//98 97//97 
f 97//97 100//100 168//168 
f 97//97 99//99 100//100 
f 198//198 90//90 98//98 
f 166//166 168//168 100//100 
f 99//99 101//101 100//100 
f 100//100 101//101 172//172 
f 172//172 101//101 102//102 
f 31//31 131//131 103//103 
f 104//104 106//106 33//33 
f 33//33 106//106 105//105 
f 128//128 129//129 106//106 
f 106//106 129//129 105//105 
f 104//104 128//128 106//106 
f 37//37 105//105 129//129 
f 129//129 108//108 37//37 
f 132//132 108//108 129//129 
f 148//148 42//42 51//51 
f 148//148 131//131 42//42 
f 111//111 109//109 107//107 
f 108//108 111//111 107//107 
f 108//108 107//107 37//37 
f 110//110 49//49 109//109 
f 110//110 114//114 49//49 
f 109//109 111//111 110//110 
f 68//68 117//117 57//57 
f 117//117 112//112 57//57 
f 148//148 51//51 113//113 
f 113//113 51//51 112//112 
f 119//119 112//112 117//117 
f 112//112 119//119 113//113 
f 115//115 116//116 67//67 
f 115//115 114//114 134//134 
f 134//134 135//135 115//115 
f 135//135 116//116 115//115 
f 141//141 116//116 135//135 
f 141//141 139//139 116//116 
f 68//68 118//118 117//117 
f 117//117 136//136 119//119 
f 136//136 117//117 118//118 
f 72//72 73//73 120//120 
f 121//121 73//73 75//75 
f 121//121 120//120 73//73 
f 121//121 75//75 140//140 
f 64//64 116//116 139//139 
f 140//140 75//75 139//139 
f 139//139 75//75 64//64 
f 78//78 161//161 157//157 
f 78//78 76//76 161//161 
f 157//157 122//122 81//81 
f 158//158 122//122 157//157 
f 81//81 122//122 84//84 
f 123//123 124//124 85//85 
f 122//122 123//123 85//85 
f 124//124 123//123 142//142 
f 159//159 123//123 122//122 
f 158//158 159//159 122//122 
f 124//124 125//125 87//87 
f 124//124 142//142 125//125 
f 164//164 91//91 198//198 
f 143//143 95//95 96//96 
f 143//143 165//165 95//95 
f 143//143 96//96 125//125 
f 142//142 143//143 125//125 
f 174//174 102//102 94//94 
f 127//127 128//128 104//104 
f 127//127 104//104 103//103 
f 127//127 144//144 128//128 
f 145//145 127//127 126//126 
f 144//144 127//127 145//145 
f 130//130 129//129 128//128 
f 147//147 128//128 144//144 
f 147//147 130//130 128//128 
f 129//129 130//130 132//132 
f 103//103 131//131 126//126 
f 126//126 127//127 103//103 
f 131//131 148//148 126//126 
f 108//108 132//132 111//111 
f 133//133 111//111 132//132 
f 132//132 146//146 133//133 
f 146//146 149//149 133//133 
f 111//111 133//133 110//110 
f 134//134 114//114 110//110 
f 110//110 133//133 134//134 
f 133//133 149//149 134//134 
f 150//150 113//113 119//119 
f 136//136 150//150 119//119 
f 113//113 150//150 151//151 
f 113//113 151//151 148//148 
f 120//120 136//136 118//118 
f 137//137 120//120 121//121 
f 120//120 137//137 136//136 
f 137//137 121//121 138//138 
f 138//138 140//140 154//154 
f 138//138 121//121 140//140 
f 140//140 139//139 141//141 
f 141//141 183//183 156//156 
f 141//141 156//156 140//140 
f 142//142 123//123 163//163 
f 162//162 143//143 142//142 
f 159//159 163//163 123//123 
f 168//168 198//198 98//98 
f 102//102 174//174 172//172 
f 94//94 165//165 174//174 
f 166//166 100//100 169//169 
f 100//100 171//171 169//169 
f 491//491 100//100 172//172 
f 492//492 177//177 147//147 
f 175//175 126//126 148//148 
f 176//176 144//144 145//145 
f 147//147 481//481 170//170 
f 144//144 176//176 488//488 
f 175//175 145//145 126//126 
f 145//145 175//175 497//497 
f 146//146 132//132 130//130 
f 147//147 146//146 130//130 
f 146//146 147//147 177//177 
f 149//149 177//177 178//178 
f 177//177 149//149 146//146 
f 134//134 149//149 180//180 
f 178//178 180//180 149//149 
f 135//135 184//184 141//141 
f 184//184 183//183 141//141 
f 179//179 134//134 180//180 
f 179//179 135//135 134//134 
f 179//179 184//184 135//135 
f 182//182 136//136 152//152 
f 152//152 136//136 137//137 
f 152//152 137//137 153//153 
f 137//137 138//138 153//153 
f 182//182 152//152 185//185 
f 152//152 153//153 185//185 
f 154//154 140//140 156//156 
f 153//153 138//138 154//154 
f 156//156 191//191 154//154 
f 191//191 155//155 154//154 
f 153//153 154//154 155//155 
f 155//155 191//191 192//192 
f 188//188 185//185 153//153 
f 156//156 183//183 191//191 
f 194//194 195//195 157//157 
f 157//157 195//195 158//158 
f 195//195 159//159 158//158 
f 196//196 159//159 195//195 
f 160//160 92//92 164//164 
f 164//164 199//199 160//160 
f 76//76 92//92 161//161 
f 161//161 92//92 160//160 
f 159//159 196//196 163//163 
f 142//142 163//163 162//162 
f 163//163 197//197 162//162 
f 199//199 164//164 198//198 
f 200//200 174//174 165//165 
f 482//482 165//165 143//143 
f 167//167 486//486 489//489 
f 489//489 497//497 167//167 
f 169//169 483//483 166//166 
f 497//497 198//198 485//485 
f 497//497 485//485 167//167 
f 168//168 166//166 484//484 
f 497//497 175//175 198//198 
f 487//487 493//493 490//490 
f 170//170 492//492 147//147 
f 492//492 173//173 177//177 
f 177//177 173//173 202//202 
f 495//495 491//491 172//172 
f 496//496 494//494 498//498 
f 499//499 172//172 174//174 
f 177//177 226//226 178//178 
f 175//175 148//148 151//151 
f 181//181 179//179 180//180 
f 181//181 184//184 179//179 
f 226//226 180//180 178//178 
f 180//180 204//204 181//181 
f 207//207 184//184 181//181 
f 207//207 181//181 204//204 
f 204//204 180//180 226//226 
f 182//182 151//151 150//150 
f 150//150 136//136 182//182 
f 193//193 183//183 184//184 
f 208//208 193//193 184//184 
f 207//207 208//208 184//184 
f 186//186 182//182 185//185 
f 186//186 185//185 188//188 
f 190//190 186//186 188//188 
f 188//188 153//153 187//187 
f 153//153 155//155 187//187 
f 155//155 192//192 187//187 
f 188//188 187//187 189//189 
f 189//189 187//187 192//192 
f 189//189 190//190 188//188 
f 190//190 189//189 212//212 
f 191//191 193//193 192//192 
f 193//193 191//191 183//183 
f 192//192 193//193 212//212 
f 212//212 189//189 192//192 
f 161//161 194//194 157//157 
f 214//214 195//195 194//194 
f 218//218 161//161 160//160 
f 160//160 199//199 218//218 
f 163//163 196//196 197//197 
f 197//197 196//196 219//219 
f 196//196 195//195 215//215 
f 215//215 219//219 196//196 
f 220//220 197//197 219//219 
f 220//220 201//201 197//197 
f 221//221 199//199 198//198 
f 175//175 221//221 198//198 
f 199//199 221//221 217//217 
f 200//200 203//203 174//174 
f 200//200 222//222 203//203 
f 222//222 200//200 165//165 
f 197//197 201//201 162//162 
f 201//201 165//165 482//482 
f 499//499 174//174 203//203 
f 177//177 203//203 226//226 
f 226//226 203//203 224//224 
f 222//222 224//224 203//203 
f 223//223 175//175 227//227 
f 177//177 202//202 203//203 
f 227//227 175//175 151//151 
f 229//229 209//209 204//204 
f 225//225 229//229 204//204 
f 226//226 225//225 204//204 
f 205//205 151//151 182//182 
f 186//186 205//205 182//182 
f 205//205 186//186 211//211 
f 206//206 205//205 211//211 
f 231//231 227//227 151//151 
f 231//231 151//151 205//205 
f 206//206 231//231 205//205 
f 211//211 213//213 206//206 
f 193//193 208//208 210//210 
f 210//210 212//212 193//193 
f 209//209 207//207 204//204 
f 209//209 208//208 207//207 
f 209//209 210//210 208//208 
f 230//230 234//234 210//210 
f 190//190 211//211 186//186 
f 211//211 190//190 213//213 
f 212//212 213//213 190//190 
f 234//234 212//212 210//210 
f 194//194 161//161 218//218 
f 194//194 235//235 214//214 
f 235//235 194//194 218//218 
f 258//258 218//218 199//199 
f 258//258 235//235 218//218 
f 195//195 214//214 216//216 
f 216//216 215//215 195//195 
f 260//260 201//201 220//220 
f 221//221 175//175 223//223 
f 238//238 165//165 201//201 
f 239//239 224//224 222//222 
f 224//224 225//225 226//226 
f 224//224 246//246 225//225 
f 228//228 227//227 231//231 
f 247//247 229//229 225//225 
f 230//230 209//209 229//229 
f 247//247 230//230 229//229 
f 230//230 256//256 234//234 
f 213//213 233//233 206//206 
f 206//206 232//232 231//231 
f 232//232 206//206 233//233 
f 213//213 212//212 234//234 
f 234//234 233//233 213//213 
f 233//233 234//234 256//256 
f 230//230 210//210 209//209 
f 258//258 199//199 236//236 
f 215//215 216//216 274//274 
f 236//236 199//199 217//217 
f 237//237 236//236 217//217 
f 238//238 201//201 260//260 
f 217//217 221//221 223//223 
f 237//237 217//217 223//223 
f 165//165 238//238 222//222 
f 239//239 238//238 240//240 
f 222//222 238//238 239//239 
f 246//246 239//239 240//240 
f 239//239 246//246 224//224 
f 261//261 240//240 238//238 
f 241//241 246//246 240//240 
f 261//261 241//241 240//240 
f 278//278 261//261 238//238 
f 262//262 241//241 261//261 
f 241//241 262//262 266//266 
f 249//249 242//242 223//223 
f 249//249 223//223 227//227 
f 242//242 249//249 243//243 
f 242//242 243//243 244//244 
f 244//244 243//243 245//245 
f 249//249 245//245 243//243 
f 254//254 245//245 249//249 
f 264//264 244//244 265//265 
f 245//245 265//265 244//244 
f 247//247 225//225 246//246 
f 246//246 241//241 247//247 
f 241//241 248//248 247//247 
f 248//248 241//241 273//273 
f 249//249 227//227 228//228 
f 231//231 232//232 228//228 
f 254//254 228//228 232//232 
f 249//249 228//228 254//254 
f 245//245 254//254 250//250 
f 251//251 250//250 255//255 
f 251//251 256//256 252//252 
f 253//253 251//251 252//252 
f 252//252 230//230 247//247 
f 248//248 252//252 247//247 
f 230//230 252//252 256//256 
f 253//253 252//252 248//248 
f 232//232 233//233 254//254 
f 256//256 255//255 233//233 
f 254//254 233//233 255//255 
f 255//255 250//250 254//254 
f 256//256 251//251 255//255 
f 257//257 216//216 214//214 
f 280//280 258//258 236//236 
f 215//215 274//274 259//259 
f 219//219 215//215 259//259 
f 260//260 220//220 219//219 
f 260//260 219//219 259//259 
f 275//275 236//236 237//237 
f 278//278 238//238 260//260 
f 292//292 261//261 278//278 
f 223//223 242//242 237//237 
f 279//279 242//242 244//244 
f 266//266 262//262 271//271 
f 276//276 271//271 262//262 
f 272//272 263//263 277//277 
f 271//271 277//277 263//263 
f 276//276 262//262 261//261 
f 264//264 265//265 269//269 
f 269//269 265//265 250//250 
f 265//265 245//245 250//250 
f 267//267 268//268 271//271 
f 271//271 268//268 266//266 
f 264//264 269//269 272//272 
f 267//267 269//269 270//270 
f 267//267 270//270 268//268 
f 266//266 268//268 273//273 
f 268//268 270//270 273//273 
f 269//269 250//250 270//270 
f 273//273 270//270 253//253 
f 267//267 263//263 272//272 
f 263//263 267//267 271//271 
f 272//272 269//269 267//267 
f 266//266 273//273 241//241 
f 253//253 248//248 273//273 
f 250//250 251//251 270//270 
f 270//270 251//251 253//253 
f 214//214 235//235 281//281 
f 282//282 235//235 258//258 
f 281//281 257//257 214//214 
f 216//216 257//257 274//274 
f 275//275 280//280 236//236 
f 260//260 259//259 283//283 
f 284//284 275//275 237//237 
f 292//292 276//276 261//261 
f 279//279 244//244 264//264 
f 279//279 237//237 242//242 
f 264//264 272//272 279//279 
f 276//276 277//277 271//271 
f 277//277 279//279 272//272 
f 258//258 280//280 282//282 
f 281//281 235//235 282//282 
f 297//297 282//282 280//280 
f 294//294 282//282 297//297 
f 283//283 259//259 274//274 
f 291//291 260//260 283//283 
f 291//291 278//278 260//260 
f 237//237 279//279 293//293 
f 284//284 237//237 293//293 
f 287//287 275//275 284//284 
f 284//284 290//290 287//287 
f 279//279 277//277 293//293 
f 277//277 276//276 300//300 
f 276//276 292//292 300//300 
f 281//281 282//282 294//294 
f 274//274 257//257 285//285 
f 281//281 285//285 257//257 
f 274//274 285//285 286//286 
f 280//280 275//275 287//287 
f 283//283 274//274 286//286 
f 289//289 283//283 286//286 
f 283//283 289//289 291//291 
f 291//291 292//292 278//278 
f 290//290 284//284 293//293 
f 300//300 293//293 277//277 
f 281//281 294//294 295//295 
f 295//295 285//285 281//281 
f 285//285 288//288 286//286 
f 295//295 288//288 285//285 
f 296//296 289//289 286//286 
f 307//307 298//298 280//280 
f 280//280 298//298 297//297 
f 289//289 299//299 291//291 
f 296//296 299//299 289//289 
f 280//280 287//287 307//307 
f 287//287 290//290 310//310 
f 310//310 290//290 293//293 
f 293//293 300//300 314//314 
f 304//304 295//295 294//294 
f 295//295 301//301 288//288 
f 288//288 296//296 286//286 
f 288//288 301//301 296//296 
f 302//302 299//299 296//296 
f 307//307 287//287 310//310 
f 293//293 314//314 310//310 
f 315//315 300//300 292//292 
f 300//300 315//315 314//314 
f 294//294 297//297 303//303 
f 294//294 303//303 304//304 
f 311//311 295//295 304//304 
f 311//311 301//301 295//295 
f 305//305 296//296 301//301 
f 302//302 296//296 305//305 
f 302//302 306//306 299//299 
f 308//308 297//297 298//298 
f 298//298 307//307 308//308 
f 306//306 309//309 299//299 
f 291//291 299//299 309//309 
f 291//291 309//309 292//292 
f 309//309 306//306 313//313 
f 311//311 312//312 301//301 
f 306//306 302//302 305//305 
f 312//312 305//305 301//301 
f 306//306 318//318 313//313 
f 303//303 297//297 308//308 
f 315//315 292//292 309//309 
f 327//327 307//307 310//310 
f 322//322 314//314 315//315 
f 320//320 332//332 311//311 
f 311//311 332//332 312//312 
f 304//304 303//303 323//323 
f 323//323 303//303 328//328 
f 304//304 320//320 311//311 
f 312//312 318//318 305//305 
f 332//332 318//318 312//312 
f 305//305 318//318 306//306 
f 309//309 313//313 316//316 
f 316//316 317//317 309//309 
f 317//317 315//315 309//309 
f 319//319 313//313 318//318 
f 319//319 316//316 313//313 
f 304//304 323//323 320//320 
f 318//318 332//332 329//329 
f 308//308 307//307 325//325 
f 328//328 303//303 308//308 
f 319//319 330//330 316//316 
f 319//319 324//324 330//330 
f 319//319 318//318 324//324 
f 325//325 307//307 327//327 
f 343//343 317//317 316//316 
f 330//330 343//343 316//316 
f 327//327 310//310 321//321 
f 323//323 336//336 320//320 
f 317//317 326//326 315//315 
f 321//321 310//310 314//314 
f 315//315 326//326 322//322 
f 324//324 318//318 329//329 
f 328//328 308//308 325//325 
f 326//326 317//317 343//343 
f 327//327 321//321 335//335 
f 335//335 321//321 331//331 
f 314//314 331//331 321//321 
f 322//322 331//331 314//314 
f 337//337 320//320 336//336 
f 325//325 347//347 328//328 
f 329//329 332//332 333//333 
f 324//324 329//329 333//333 
f 324//324 333//333 330//330 
f 334//334 325//325 327//327 
f 334//334 327//327 341//341 
f 325//325 334//334 347//347 
f 341//341 327//327 335//335 
f 345//345 332//332 320//320 
f 345//345 346//346 332//332 
f 358//358 323//323 328//328 
f 346//346 333//333 332//332 
f 338//338 334//334 339//339 
f 339//339 334//334 341//341 
f 347//347 334//334 338//338 
f 322//322 326//326 342//342 
f 344//344 335//335 331//331 
f 344//344 331//331 342//342 
f 342//342 331//331 322//322 
f 336//336 377//377 337//337 
f 346//346 345//345 386//386 
f 328//328 347//347 351//351 
f 350//350 330//330 333//333 
f 330//330 353//353 343//343 
f 432//432 340//340 339//339 
f 347//347 338//338 340//340 
f 340//340 338//338 339//339 
f 348//348 341//341 335//335 
f 348//348 335//335 344//344 
f 343//343 374//374 326//326 
f 326//326 402//402 342//342 
f 337//337 345//345 320//320 
f 351//351 347//347 352//352 
f 330//330 354//354 353//353 
f 350//350 354//354 330//330 
f 341//341 348//348 349//349 
f 355//355 341//341 349//349 
f 356//356 355//355 349//349 
f 349//349 348//348 357//357 
f 356//356 349//349 357//357 
f 357//357 348//348 344//344 
f 411//411 344//344 342//342 
f 346//346 350//350 333//333 
f 353//353 374//374 343//343 
f 432//432 339//339 403//403 
f 403//403 339//339 341//341 
f 341//341 355//355 433//433 
f 433//433 355//355 356//356 
f 403//403 341//341 433//433 
f 375//375 356//356 357//357 
f 409//409 357//357 344//344 
f 342//342 402//402 411//411 
f 376//376 362//362 388//388 
f 379//379 345//345 337//337 
f 377//377 379//379 337//337 
f 359//359 358//358 328//328 
f 359//359 328//328 351//351 
f 336//336 323//323 362//362 
f 359//359 351//351 368//368 
f 336//336 362//362 376//376 
f 336//336 376//376 377//377 
f 323//323 358//358 360//360 
f 323//323 360//360 362//362 
f 360//360 358//358 361//361 
f 361//361 358//358 359//359 
f 359//359 368//368 371//371 
f 362//362 360//360 363//363 
f 360//360 364//364 363//363 
f 361//361 365//365 501//501 
f 364//364 360//360 361//361 
f 365//365 361//361 359//359 
f 359//359 371//371 365//365 
f 365//365 506//506 372//372 
f 362//362 363//363 388//388 
f 511//511 500//500 389//389 
f 500//500 501//501 389//389 
f 389//389 365//365 390//390 
f 501//501 365//365 389//389 
f 372//372 390//390 365//365 
f 417//417 354//354 350//350 
f 417//417 422//422 354//354 
f 370//370 367//367 366//366 
f 347//347 434//434 352//352 
f 352//352 434//434 502//502 
f 367//367 437//437 366//366 
f 370//370 366//366 373//373 
f 437//437 394//394 366//366 
f 366//366 394//394 373//373 
f 369//369 351//351 352//352 
f 352//352 502//502 369//369 
f 351//351 369//369 368//368 
f 370//370 503//503 367//367 
f 371//371 368//368 369//369 
f 371//371 369//369 504//504 
f 505//505 507//507 372//372 
f 505//505 372//372 506//506 
f 395//395 390//390 372//372 
f 507//507 398//398 372//372 
f 508//508 394//394 515//515 
f 372//372 398//398 513//513 
f 354//354 430//430 353//353 
f 354//354 422//422 430//430 
f 405//405 356//356 375//375 
f 356//356 405//405 406//406 
f 375//375 357//357 409//409 
f 405//405 375//375 409//409 
f 388//388 378//378 376//376 
f 509//509 511//511 391//391 
f 377//377 376//376 378//378 
f 378//378 379//379 377//377 
f 381//381 382//382 379//379 
f 391//391 380//380 509//509 
f 380//380 383//383 509//509 
f 378//378 383//383 379//379 
f 382//382 345//345 379//379 
f 512//512 392//392 380//380 
f 381//381 379//379 383//383 
f 381//381 384//384 382//382 
f 383//383 380//380 385//385 
f 383//383 384//384 381//381 
f 380//380 392//392 385//385 
f 383//383 385//385 384//384 
f 384//384 385//385 387//387 
f 385//385 392//392 393//393 
f 385//385 393//393 413//413 
f 382//382 386//386 345//345 
f 386//386 414//414 346//346 
f 384//384 386//386 382//382 
f 510//510 386//386 384//384 
f 414//414 386//386 510//510 
f 387//387 385//385 413//413 
f 510//510 415//415 414//414 
f 391//391 511//511 389//389 
f 512//512 389//389 390//390 
f 392//392 390//390 401//401 
f 392//392 512//512 390//390 
f 401//401 393//393 392//392 
f 413//413 393//393 416//416 
f 393//393 401//401 416//416 
f 346//346 414//414 350//350 
f 350//350 414//414 417//417 
f 434//434 451//451 502//502 
f 451//451 437//437 367//367 
f 395//395 401//401 390//390 
f 401//401 395//395 410//410 
f 516//516 396//396 395//395 
f 395//395 396//396 397//397 
f 404//404 397//397 396//396 
f 397//397 404//404 407//407 
f 399//399 410//410 395//395 
f 397//397 399//399 395//395 
f 410//410 399//399 407//407 
f 399//399 397//397 407//407 
f 400//400 514//514 515//515 
f 326//326 374//374 423//423 
f 423//423 402//402 326//326 
f 424//424 374//374 353//353 
f 430//430 424//424 353//353 
f 340//340 431//431 347//347 
f 519//519 517//517 405//405 
f 404//404 406//406 518//518 
f 406//406 404//404 408//408 
f 404//404 396//396 408//408 
f 396//396 400//400 408//408 
f 411//411 409//409 344//344 
f 519//519 405//405 409//409 
f 409//409 520//520 519//519 
f 411//411 520//520 409//409 
f 410//410 412//412 401//401 
f 521//521 520//520 411//411 
f 411//411 402//402 521//521 
f 522//522 387//387 413//413 
f 420//420 416//416 401//401 
f 415//415 417//417 414//414 
f 413//413 416//416 522//522 
f 419//419 417//417 415//415 
f 416//416 420//420 418//418 
f 522//522 416//416 418//418 
f 419//419 415//415 523//523 
f 419//419 523//523 421//421 
f 417//417 419//419 422//422 
f 418//418 420//420 421//421 
f 419//419 421//421 427//427 
f 422//422 419//419 430//430 
f 419//419 427//427 430//430 
f 394//394 437//437 515//515 
f 435//435 400//400 515//515 
f 425//425 401//401 412//412 
f 425//425 521//521 426//426 
f 424//424 423//423 374//374 
f 521//521 402//402 426//426 
f 423//423 426//426 402//402 
f 425//425 428//428 401//401 
f 428//428 425//425 426//426 
f 423//423 424//424 426//426 
f 428//428 420//420 401//401 
f 420//420 428//428 421//421 
f 421//421 428//428 429//429 
f 421//421 429//429 427//427 
f 427//427 429//429 424//424 
f 428//428 426//426 429//429 
f 429//429 426//426 424//424 
f 430//430 427//427 424//424 
f 438//438 432//432 403//403 
f 431//431 340//340 432//432 
f 406//406 440//440 356//356 
f 400//400 436//436 408//408 
f 408//408 436//436 406//406 
f 436//436 440//440 406//406 
f 434//434 347//347 431//431 
f 435//435 515//515 437//437 
f 438//438 431//431 432//432 
f 438//438 403//403 439//439 
f 439//439 403//403 433//433 
f 441//441 436//436 435//435 
f 356//356 440//440 433//433 
f 400//400 435//435 436//436 
f 441//441 435//435 437//437 
f 441//441 442//442 436//436 
f 468//468 439//439 433//433 
f 434//434 431//431 444//444 
f 467//467 433//433 440//440 
f 440//440 469//469 467//467 
f 436//436 442//442 440//440 
f 443//443 448//448 450//450 
f 434//434 443//443 450//450 
f 448//448 443//443 453//453 
f 434//434 450//450 451//451 
f 446//446 444//444 431//431 
f 445//445 446//446 431//431 
f 431//431 438//438 445//445 
f 445//445 438//438 447//447 
f 443//443 434//434 444//444 
f 446//446 445//445 455//455 
f 453//453 443//443 444//444 
f 453//453 446//446 454//454 
f 444//444 446//446 453//453 
f 454//454 446//446 455//455 
f 455//455 445//445 447//447 
f 447//447 438//438 439//439 
f 447//447 439//439 468//468 
f 469//469 440//440 442//442 
f 453//453 456//456 448//448 
f 448//448 456//456 460//460 
f 448//448 449//449 450//450 
f 448//448 460//460 449//449 
f 449//449 451//451 450//450 
f 449//449 460//460 472//472 
f 452//452 437//437 451//451 
f 449//449 452//452 451//451 
f 441//441 437//437 452//452 
f 452//452 449//449 472//472 
f 456//456 453//453 454//454 
f 459//459 455//455 447//447 
f 459//459 447//447 468//468 
f 458//458 454//454 455//455 
f 459//459 458//458 455//455 
f 454//454 457//457 456//456 
f 456//456 457//457 462//462 
f 458//458 457//457 454//454 
f 462//462 460//460 456//456 
f 463//463 462//462 457//457 
f 463//463 457//457 458//458 
f 465//465 458//458 459//459 
f 524//524 459//459 468//468 
f 460//460 462//462 461//461 
f 473//473 472//472 461//461 
f 472//472 460//460 461//461 
f 463//463 458//458 465//465 
f 463//463 465//465 464//464 
f 464//464 480//480 478//478 
f 464//464 465//465 480//480 
f 468//468 525//525 524//524 
f 461//461 462//462 466//466 
f 473//473 461//461 466//466 
f 473//473 466//466 475//475 
f 463//463 466//466 462//462 
f 466//466 463//463 464//464 
f 464//464 478//478 466//466 
f 466//466 478//478 475//475 
f 442//442 441//441 470//470 
f 468//468 433//433 467//467 
f 468//468 467//467 471//471 
f 474//474 470//470 452//452 
f 470//470 441//441 452//452 
f 471//471 469//469 479//479 
f 467//467 469//469 471//471 
f 474//474 452//452 472//472 
f 474//474 472//472 473//473 
f 473//473 475//475 476//476 
f 473//473 476//476 474//474 
f 470//470 474//474 477//477 
f 477//477 474//474 476//476 
f 470//470 477//477 442//442 
f 475//475 478//478 476//476 
f 476//476 478//478 479//479 
f 476//476 479//479 477//477 
f 479//479 469//469 477//477 
f 477//477 469//469 442//442 
f 478//478 480//480 479//479 
f 479//479 480//480 471//471 
f 468//468 471//471 525//525 
