#
# Compatibility version : 4.3
# File ID : FJ4245
# Representation ID : BP29808
# Build-up logic : FMA 3.0 part_of
# Concept ID : FMA7023
# English name : Trunk of left first thoracic nerve
# Bounds(mm): (1.122900,-66.532800,1358.699700)-(25.791600,-56.976600,1364.318500)
# Volume(cm3): 0.152600
#
v 1.89134 -57.2142 1360.07
v 1.70351 -57.6004 1359.83
v 1.89008 -57.8 1359.68
v 1.49008 -62.8 1360.06
v 1.67074 -63.0093 1360.08
v 1.50201 -63.2006 1360.23
v 1.87341 -62.8 1360.07
v 1.70766 -57.2586 1360.52
v 1.92006 -57.1374 1361.09
v 1.48451 -57.6122 1360.36
v 1.4901 -57.9924 1360.27
v 1.36642 -58.0146 1360.74
v 1.48341 -58.3863 1360.87
v 1.32904 -58.3869 1361.64
v 1.4941 -58.6212 1361.47
v 1.69853 -58.5848 1360.92
v 1.9623 -58.3309 1360.31
v 1.21326 -62.2088 1361.12
v 1.54201 -62.1431 1360.72
v 1.55451 -61.98 1361.46
v 1.23721 -62.4256 1360.65
v 1.20595 -62.8484 1360.71
v 1.15829 -62.4528 1361.1
v 1.19467 -63.5213 1361.67
v 1.48844 -62.4 1360.27
v 1.35019 -62.9801 1360.3
v 1.32498 -63.2226 1360.51
v 1.29832 -63.7877 1361.4
v 1.59156 -63.8195 1360.97
v 2.04124 -63.4079 1360.34
v 1.36995 -58.0261 1362.19
v 1.38495 -58.5965 1362.25
v 1.42495 -58.5848 1362.86
v 1.58386 -57.6028 1362.02
v 1.58834 -58.205 1363.23
v 1.70332 -58.8736 1361.91
v 1.68375 -58.9629 1363.02
v 1.90031 -57.799 1363.18
v 1.89198 -59.0669 1363.03
v 1.33602 -62.117 1362.07
v 1.59507 -62.4114 1362.91
v 1.13987 -62.488 1362.06
v 1.18647 -62.7299 1362.93
v 1.26406 -64.2894 1363.19
v 1.50429 -64.6149 1363.16
v 1.66622 -58.7768 1363.43
v 1.89528 -58.9828 1363.45
v 1.8942 -58.6016 1363.76
v 1.50296 -63.733 1364.13
v 1.94551 -63.3786 1363.99
v 1.26061 -64.1558 1363.82
v 1.31783 -64.3977 1363.84
v 1.31749 -63.9706 1364.03
v 1.39362 -64.3815 1364.06
v 1.50515 -64.632 1363.84
v 1.50803 -64.1823 1364.25
v 1.71247 -64.7392 1363.63
v 1.7107 -64.3904 1364.24
v 1.93471 -63.9674 1364.27
v 2.09379 -57.4188 1359.73
v 2.36245 -57.2057 1359.97
v 2.64465 -57.4313 1359.88
v 2.29008 -57.8 1359.72
v 2.10264 -57.0698 1360.3
v 2.33869 -57.0812 1361.49
v 2.67915 -57.0618 1360.34
v 2.59406 -57.0011 1360.75
v 2.09008 -58.7984 1361.27
v 2.52227 -61.9893 1361.29
v 2.72765 -62.2168 1360.87
v 2.12628 -57.3135 1362.26
v 2.13154 -59.0526 1362.61
v 2.13854 -59.0552 1363.23
v 2.45442 -57.6688 1363.22
v 2.67421 -62.022 1362.09
v 2.12982 -64.6678 1362.98
v 2.09436 -58.9953 1363.48
v 2.11621 -58.1901 1363.72
v 2.20479 -58.5791 1363.82
v 2.09539 -58.8818 1363.66
v 2.41171 -58.9439 1363.42
v 2.37373 -58.7842 1363.68
v 3.5264 -58.0292 1363.53
v 2.20339 -64.6766 1363.78
v 2.44755 -64.1512 1364.17
v 4.86641 -57.2947 1360.99
v 5.09008 -58.2 1360.97
v 5.09008 -63.4 1361.13
v 4.6489 -64.4 1361.47
v 3.65563 -57.1212 1362.22
v 3.70651 -58.8487 1362.34
v 3.87671 -58.7755 1362.88
v 4.30214 -58.4426 1363.3
v 4.76426 -58.8833 1362.63
v 5.37343 -58.4894 1363.19
v 5.10657 -62.6048 1361.89
v 5.23256 -63.849 1363.36
v 3.71275 -64.4794 1363.03
v 4.49008 -64.5578 1362.67
v 5.5357 -64.3254 1363.19
v 3.75673 -63.0286 1363.45
v 4.04144 -63.8181 1363.64
v 4.44147 -63.4494 1363.5
v 4.47638 -63.8029 1363.5
v 3.9686 -64.2004 1363.46
v 5.7536 -57.2973 1361.49
v 5.29008 -58.8703 1361.67
v 5.84995 -57.6885 1362.93
v 5.57211 -63.4354 1363.21
v 8.26541 -59.8757 1361.46
v 8.02868 -60.0845 1361.84
v 8.15274 -60.3971 1362.24
v 7.89237 -59.924 1362.69
v 8.40438 -60.4617 1361.81
v 8.51962 -60.2594 1362.88
v 8.6347 -60.2359 1361.46
v 9.29008 -59.2 1361.2
v 10.0033 -62.2492 1360.73
v 9.64213 -58.9314 1362.55
v 8.37287 -59.5941 1363.03
v 8.7093 -59.7957 1363.08
v 8.76055 -59.3876 1363.09
v 9.09549 -59.603 1363.21
v 9.37792 -59.2326 1363.03
v 9.57942 -60.1175 1363.46
v 10.4901 -64.1328 1361.67
v 10.6901 -64.0412 1361.67
v 10.2901 -63.4234 1363.07
v 10.4901 -63.9766 1362.07
v 10.2555 -63.9531 1362.04
v 10.4901 -64.0359 1362.27
v 11.1705 -64.2 1362.67
v 11.0953 -64.4 1362.67
v 12.3012 -60.4 1360.87
v 12.0901 -64.8 1361.19
v 12.2393 -64.5253 1361.1
v 12.8901 -66.3912 1361.27
v 11.4594 -65.254 1362.97
v 12.4901 -66.5328 1362.27
v 14.4326 -63.4 1360.87
v 14.5718 -62.7719 1361.47
v 13.8916 -61.6 1362.47
v 14.6901 -62.8359 1362.07
v 15.6901 -64 1360.8
v 15.8901 -63.6391 1361.87
v 14.8901 -64 1362.71
v 17.2901 -64.0359 1360.87
v 17.356 -64.3974 1362.08
v 18.8824 -64.6 1360.07
v 19.6481 -64.0919 1361.36
v 18.3784 -65.7042 1361.97
v 19.6901 -63.9328 1360.87
v 20.4901 -66.2984 1360.87
v 19.9796 -64.7847 1361.76
v 22.2148 -65.5518 1361.07
v 24.31 -63.658 1359.35
v 24.5824 -63.5157 1359.75
v 25.2367 -63.7006 1359.28
v 25.2819 -63.5801 1359.7
v 25.5464 -63.8238 1359.48
v 24.1969 -64.4279 1358.87
v 24.6563 -64.8331 1358.95
v 25.0901 -65.2922 1359.27
v 25.4732 -64.2103 1359.1
v 25.6129 -64.6116 1359.31
v 25.6462 -63.998 1360.04
v 25.2301 -65.0674 1360.09
v 25.76 -64.201 1359.65
v 25.7159 -64.4082 1360.06
v 24.8813 -63.6861 1360.28
v 25.2839 -63.7692 1360.26
v 24.7763 -64.034 1360.59
v 25.4187 -64.1922 1360.44
v 25.0409 -64.6135 1360.6
v 1.89008 -57.8 1359.68
v 1.89008 -57.8 1359.68
v 1.89008 -57.8 1359.68
v 1.89008 -57.8 1359.68
v 1.49008 -62.8 1360.06
v 1.87341 -62.8 1360.07
v 1.4901 -57.9924 1360.27
v 1.23721 -62.4256 1360.65
v 1.48844 -62.4 1360.27
v 1.48844 -62.4 1360.27
v 1.38495 -58.5965 1362.25
v 1.42495 -58.5848 1362.86
v 1.33602 -62.117 1362.07
v 1.66622 -58.7768 1363.43
v 1.8942 -58.6016 1363.76
v 1.8942 -58.6016 1363.76
v 1.50803 -64.1823 1364.25
v 1.50803 -64.1823 1364.25
v 1.7107 -64.3904 1364.24
v 2.29008 -57.8 1359.72
v 3.5264 -58.0292 1363.53
v 4.86641 -57.2947 1360.99
v 5.09008 -58.2 1360.97
v 5.09008 -63.4 1361.13
v 4.6489 -64.4 1361.47
v 4.30214 -58.4426 1363.3
v 5.37343 -58.4894 1363.19
v 4.49008 -64.5578 1362.67
v 5.84995 -57.6885 1362.93
v 5.57211 -63.4354 1363.21
v 8.26541 -59.8757 1361.46
v 9.29008 -59.2 1361.2
v 9.64213 -58.9314 1362.55
v 9.57942 -60.1175 1363.46
v 10.4901 -64.1328 1361.67
v 10.4901 -64.1328 1361.67
v 10.6901 -64.0412 1361.67
v 10.6901 -64.0412 1361.67
v 10.2901 -63.4234 1363.07
v 10.2901 -63.4234 1363.07
v 10.2901 -63.4234 1363.07
v 10.4901 -63.9766 1362.07
v 10.2555 -63.9531 1362.04
v 10.4901 -64.0359 1362.27
v 10.4901 -64.0359 1362.27
v 10.4901 -64.0359 1362.27
v 11.1705 -64.2 1362.67
v 11.0953 -64.4 1362.67
v 12.3012 -60.4 1360.87
v 12.0901 -64.8 1361.19
v 12.4901 -66.5328 1362.27
v 14.4326 -63.4 1360.87
v 13.8916 -61.6 1362.47
v 13.8916 -61.6 1362.47
v 13.8916 -61.6 1362.47
v 14.6901 -62.8359 1362.07
v 15.6901 -64 1360.8
v 15.6901 -64 1360.8
v 15.8901 -63.6391 1361.87
v 15.8901 -63.6391 1361.87
v 14.8901 -64 1362.71
v 14.8901 -64 1362.71
v 17.2901 -64.0359 1360.87
v 17.356 -64.3974 1362.08
v 17.356 -64.3974 1362.08
v 19.6481 -64.0919 1361.36
v 19.6901 -63.9328 1360.87
v 20.4901 -66.2984 1360.87
v 24.5824 -63.5157 1359.75
v 25.2367 -63.7006 1359.28
v 25.0901 -65.2922 1359.27
v 25.0901 -65.2922 1359.27
v 25.0901 -65.2922 1359.27
v 25.4732 -64.2103 1359.1
v 25.6129 -64.6116 1359.31
v 25.6129 -64.6116 1359.31
v 25.2301 -65.0674 1360.09
v 25.76 -64.201 1359.65
v 25.7159 -64.4082 1360.06
v 25.7159 -64.4082 1360.06
v 24.8813 -63.6861 1360.28
v 25.4187 -64.1922 1360.44
vn -0.484767 0.770568 -0.413795
vn -0.730098 0.295112 -0.616333
vn 0.0929698 0.081546 -0.992324
vn -0.614827 -0.0878513 -0.783754
vn -0.0285768 -0.355624 -0.934192
vn -0.474314 -0.534935 -0.699194
vn 0.17366 -0.256606 -0.950787
vn -0.668156 0.742434 -0.0485829
vn -0.398448 0.911738 0.0998631
vn -0.910549 0.38044 -0.16176
vn -0.915662 -0.125099 -0.381986
vn -0.988118 -0.0584726 -0.142139
vn -0.743047 -0.583956 -0.326919
vn -0.961163 -0.264912 -0.0773843
vn -0.719804 -0.671256 -0.176912
vn -0.41397 -0.838581 -0.354134
vn -0.18113 -0.816407 -0.548335
vn -0.786849 0.605432 -0.119666
vn -0.247763 0.898355 -0.362727
vn -0.217033 0.975457 -0.0371642
vn -0.934141 0.135785 -0.330065
vn -0.975793 -0.0958685 -0.196565
vn -0.993346 0.0783263 -0.0844316
vn -0.989127 -0.132306 -0.0642115
vn -0.817816 0.259518 -0.513642
vn -0.877154 -0.140732 -0.459125
vn -0.828831 -0.411609 -0.378969
vn -0.85431 -0.466679 -0.228833
vn -0.354327 -0.815386 -0.457819
vn 0.0774642 -0.561497 -0.823845
vn -0.969071 0.224044 0.103469
vn -0.776275 -0.628725 -0.0458445
vn -0.970086 0.0619836 0.234715
vn -0.739536 0.646977 0.185763
vn -0.821634 0.34834 0.451194
vn -0.428928 -0.889856 -0.155488
vn -0.6765 -0.729739 0.0991418
vn -0.484496 0.739639 0.467117
vn -0.232794 -0.972032 0.0309981
vn -0.74437 0.645646 0.170454
vn -0.214145 0.789883 0.574653
vn -0.984229 0.170774 0.0461446
vn -0.88651 0.339726 0.314143
vn -0.948095 -0.316705 -0.0285388
vn -0.518103 -0.83479 -0.186269
vn -0.701099 -0.595755 0.391837
vn -0.364175 -0.830547 0.421388
vn -0.749761 0.247061 0.613856
vn -0.428999 0.446964 0.784973
vn -0.0327758 0.586297 0.809433
vn -0.974429 -0.106756 0.197715
vn -0.8892 -0.424719 0.17011
vn -0.858591 0.0823512 0.506003
vn -0.748222 -0.392054 0.535217
vn -0.505495 -0.813512 0.28753
vn -0.737523 0.0419805 0.674016
vn -0.131327 -0.989867 0.0540138
vn -0.143571 -0.709685 0.689735
vn 0.0596668 0.200498 0.977875
vn -0.0739576 0.473692 -0.87758
vn 0.0912211 0.808062 -0.581992
vn 0.343155 0.321294 -0.882618
vn 0.2586 0.0867384 -0.962082
vn -0.207741 0.960694 -0.18415
vn -0.157378 0.975901 0.15116
vn 0.117043 0.944789 -0.306063
vn -0.0286767 0.999535 -0.010387
vn -0.0316531 -0.956271 -0.290765
vn 0.128083 0.972354 -0.195247
vn 0.263016 0.761992 -0.59177
vn -0.312534 0.902724 0.295655
vn -0.0040391 -0.994511 -0.10455
vn 0.070555 -0.986648 0.146791
vn -0.072819 0.822579 0.563969
vn 0.0783774 0.960326 0.267641
vn -0.0409002 -0.980672 -0.191334
vn 0.0542157 -0.917556 0.393892
vn -0.273824 0.507852 0.816766
vn 0.0615728 -0.16849 0.983778
vn -0.0241902 -0.699773 0.713955
vn 0.227002 -0.899294 0.373818
vn 0.216092 -0.650514 0.728104
vn 0.111263 0.276972 0.954415
vn 0.163848 -0.917093 0.363448
vn 0.29007 -0.198091 0.93628
vn 0.275348 0.790097 -0.547659
vn 0.229363 -0.0431442 -0.972384
vn 0.297775 0.622048 -0.724145
vn -0.0857159 -0.973089 -0.213895
vn 0.00993718 0.965676 0.25956
vn 0.0847392 -0.995408 0.0445319
vn 0.101792 -0.940885 0.323069
vn 0.148943 -0.835791 0.528459
vn -0.130136 -0.93779 0.321893
vn 0.0715638 -0.39369 0.916453
vn 0.273383 0.960391 -0.0539582
vn 0.139059 -0.0836337 0.986746
vn 0.110338 -0.97407 0.197519
vn -0.206327 -0.966227 -0.154384
vn -0.0168907 -0.589779 0.807388
vn 0.195862 0.639207 0.743676
vn 0.327557 -0.228612 0.916757
vn 0.241811 0.170256 0.95527
vn 0.232389 -0.182871 0.955277
vn 0.225237 -0.632791 0.74084
vn 0.253486 0.958466 -0.130718
vn -0.222295 -0.851123 -0.475578
vn 0.185305 0.864541 0.467152
vn 0.223366 0.859257 0.460201
vn -0.379979 -0.683622 -0.623118
vn -0.491862 -0.665781 -0.561078
vn -0.704829 -0.707732 -0.0482855
vn -0.329443 -0.615861 0.715669
vn -0.706932 -0.483616 -0.516103
vn -0.506664 -0.359583 0.783576
vn -0.504816 -0.297492 -0.810345
vn 0.375274 0.840588 -0.390618
vn -0.454391 -0.247472 -0.855737
vn 0.357778 0.785927 0.504295
vn -0.223287 -0.279702 0.933761
vn -0.330235 -0.069586 0.94133
vn -0.104073 0.0759594 0.991665
vn -0.187912 0.26336 0.946219
vn 0.178359 0.46747 0.865829
vn -0.20195 0.135375 0.969995
vn 0.239663 0.898093 -0.368769
vn -0.583867 -0.300679 -0.754116
vn -0.832675 -0.379094 0.403659
vn -0.89343 -0.440944 -0.0857353
vn 0.172792 0.98495 -0.00409667
vn 0.170785 0.940971 0.292245
vn -0.456682 -0.757813 0.466005
vn -0.0949283 0.22913 0.968756
vn 0.594407 0.755637 -0.275125
vn 0.187397 0.785041 -0.590417
vn -0.226311 -0.221071 -0.948636
vn -0.130087 -0.404352 -0.905305
vn 0.0613606 -0.0726738 0.995466
vn 0.0102568 -0.618354 0.785833
vn -0.0317118 -0.0852578 -0.995854
vn 0.635099 0.680284 -0.365873
vn 0.711508 0.697551 -0.0847249
vn 0.700202 0.711192 -0.0626341
vn 0.439327 0.704727 -0.557092
vn 0.398839 0.723609 0.563309
vn 0.073632 -0.0332232 0.996732
vn 0.0142131 0.869515 -0.493702
vn 0.228838 0.885798 0.403727
vn -0.153036 0.578066 -0.801511
vn -0.0247573 0.953019 0.301896
vn 0.179897 -0.304609 0.935334
vn -0.129958 0.877875 -0.460919
vn -0.00789703 -0.930621 -0.365899
vn 0.193733 0.143075 0.970565
vn 0.268953 -0.525159 0.807386
vn -0.121577 0.805574 -0.579888
vn -0.0186073 0.955819 -0.293367
vn 0.0282152 0.458281 -0.888359
vn 0.399289 0.914889 0.0595517
vn 0.757772 0.593965 -0.270163
vn -0.0587658 0.212635 -0.975363
vn 0.155956 -0.318321 -0.935067
vn -0.0480798 -0.722113 -0.690102
vn 0.802283 0.290724 -0.521365
vn 0.886608 0.0647205 -0.457971
vn 0.822441 0.484261 0.298467
vn 0.403089 -0.742104 0.535539
vn 0.945284 0.266712 -0.187891
vn 0.909866 0.169402 0.378743
vn 0.138893 0.643126 0.753059
vn 0.42019 0.690703 0.588532
vn 0.206039 0.4313 0.878367
vn 0.541678 0.318781 0.777795
vn 0.415041 -0.247218 0.875571
vn -0.384287 0.319848 -0.866037
vn -0.763752 -0.245999 -0.596797
vn -0.456412 -0.707811 -0.539158
vn 0.0603156 -0.762826 -0.643785
vn 0.0110547 0.45559 -0.890121
vn 0.213439 0.547138 -0.809373
vn -0.467721 -0.720077 -0.512568
vn -0.595366 0.720931 -0.354679
vn 0.136245 0.6664 -0.733041
vn -0.600143 0.723221 -0.34173
vn -0.996996 -0.0186417 0.0751785
vn -0.84294 -0.522551 0.128035
vn -0.0716593 0.959506 0.272421
vn -0.881662 0.0488504 0.469345
vn -0.378364 -0.519716 0.765987
vn -0.201772 0.200165 0.958761
vn -0.444084 -0.472347 0.761366
vn -0.100273 0.0898712 0.990893
vn 0.0595807 -0.11255 0.991858
vn 0.110527 -0.772715 -0.625056
vn 0.222166 0.179671 0.958311
vn 0.25414 0.0751428 -0.964244
vn 0.019329 -0.792616 -0.609415
vn 0.0962782 -0.272888 -0.957216
vn 0.0716994 -0.34591 -0.935524
vn 0.191361 -0.297496 0.935348
vn -0.0072443 -0.280229 0.959906
vn -0.00730171 -0.856305 0.516419
vn 0.155092 0.221058 0.96285
vn 0.185455 0.316222 0.930382
vn -0.0885462 -0.233752 -0.968256
vn -0.120676 -0.0525459 -0.9913
vn 0.441273 0.884283 -0.152715
vn 0.199762 -0.0730538 0.977117
vn -0.146889 0.32059 -0.935759
vn -0.340762 0.743724 -0.575114
vn 0.111483 0.988329 -0.103815
vn -0.340762 0.743724 -0.575114
vn -0.456682 -0.757813 0.466005
vn 0.147949 0.0330122 0.988444
vn 0.0137896 -0.445491 0.89518
vn 0.0879088 0.991882 0.0918791
vn -0.340762 0.743724 -0.575114
vn -0.971173 -0.228523 -0.0678253
vn -0.456682 -0.757813 0.466005
vn -0.467126 0.175578 0.866583
vn -0.165271 -0.0944001 0.98172
vn 0.194842 0.856775 0.477466
vn -0.00905454 0.0828887 -0.996518
vn -0.190649 0.00591406 -0.98164
vn -0.15894 -0.971484 -0.175945
vn 0.463464 0.559004 -0.687543
vn 0.387846 0.565944 0.727518
vn 0.147949 0.0330122 0.988444
vn 0.812441 0.382402 0.440122
vn 0.651552 0.449202 0.611308
vn 0.0381653 0.904155 -0.425496
vn -0.153756 -0.0129859 -0.988024
vn 0.578811 0.792711 -0.191276
vn 0.0349039 0.944703 -0.326066
vn 0.537534 0.554013 0.63571
vn 0.0940548 0.138614 0.98587
vn 0.116243 0.952082 0.282892
vn 0.19399 0.0680247 0.978642
vn 0.180987 0.554954 0.811954
vn 0.135196 0.582998 0.801146
vn -0.0262841 0.952317 0.303977
vn 0.233231 -0.807864 0.541257
vn 0.0290635 0.956608 0.289926
vn 0.318391 0.854944 -0.409509
vn 0.277805 -0.937623 0.209015
vn 0.386625 -0.239663 -0.890552
vn 0.791616 -0.610178 0.0320604
vn 0.233927 0.0184422 -0.972079
vn 0.390939 -0.280785 -0.876542
vn 0.861693 -0.507312 0.0109554
vn 0.798459 -0.600651 0.0410016
vn 0.952715 -0.299793 -0.0495807
vn 0.892006 -0.452024 0.00017917
vn 0.643545 -0.382058 0.663236
vn 0.102897 0.950409 0.293486
vn 0.647248 -0.322641 0.690633
g grp1
usemtl mtl1
f 2//2 10//10 1//1 
f 1//1 10//10 8//8 
f 3//3 60//60 63//63 
f 2//2 1//1 60//60 
f 60//60 175//175 2//2 
f 64//64 1//1 8//8 
f 2//2 176//176 11//11 
f 11//11 10//10 2//2 
f 17//17 181//181 177//177 
f 178//178 194//194 17//17 
f 25//25 4//4 21//21 
f 4//4 26//26 21//21 
f 26//26 4//4 6//6 
f 5//5 4//4 7//7 
f 5//5 6//6 4//4 
f 6//6 5//5 30//30 
f 7//7 30//30 5//5 
f 179//179 183//183 180//180 
f 34//34 8//8 10//10 
f 8//8 34//34 9//9 
f 34//34 71//71 9//9 
f 64//64 8//8 9//9 
f 64//64 9//9 67//67 
f 67//67 9//9 65//65 
f 65//65 9//9 71//71 
f 11//11 12//12 10//10 
f 11//11 13//13 12//12 
f 10//10 12//12 31//31 
f 13//13 14//14 12//12 
f 10//10 31//31 34//34 
f 12//12 14//14 31//31 
f 13//13 15//15 14//14 
f 13//13 181//181 17//17 
f 13//13 17//17 16//16 
f 13//13 16//16 15//15 
f 16//16 36//36 15//15 
f 15//15 36//36 32//32 
f 16//16 17//17 68//68 
f 68//68 36//36 16//16 
f 18//18 19//19 182//182 
f 21//21 23//23 18//18 
f 18//18 23//23 42//42 
f 20//20 19//19 18//18 
f 40//40 20//20 18//18 
f 19//19 20//20 69//69 
f 21//21 26//26 22//22 
f 21//21 22//22 23//23 
f 23//23 24//24 42//42 
f 23//23 22//22 24//24 
f 22//22 28//28 24//24 
f 182//182 19//19 184//184 
f 26//26 27//27 22//22 
f 26//26 6//6 27//27 
f 6//6 29//29 27//27 
f 27//27 28//28 22//22 
f 27//27 29//29 28//28 
f 29//29 6//6 30//30 
f 29//29 30//30 89//89 
f 15//15 32//32 14//14 
f 14//14 185//185 31//31 
f 185//185 33//33 31//31 
f 33//33 35//35 31//31 
f 32//32 36//36 37//37 
f 186//186 32//32 37//37 
f 35//35 34//34 31//31 
f 37//37 46//46 186//186 
f 33//33 188//188 35//35 
f 36//36 39//39 37//37 
f 71//71 34//34 38//38 
f 38//38 34//34 35//35 
f 78//78 38//38 35//35 
f 47//47 37//37 39//39 
f 47//47 46//46 37//37 
f 36//36 68//68 72//72 
f 72//72 39//39 36//36 
f 38//38 74//74 71//71 
f 72//72 73//73 39//39 
f 47//47 39//39 73//73 
f 40//40 18//18 42//42 
f 43//43 40//40 42//42 
f 40//40 43//43 41//41 
f 24//24 44//44 42//42 
f 42//42 44//44 43//43 
f 28//28 44//44 24//24 
f 29//29 45//45 28//28 
f 44//44 28//28 45//45 
f 55//55 44//44 45//45 
f 45//45 57//57 55//55 
f 45//45 29//29 76//76 
f 78//78 35//35 48//48 
f 35//35 188//188 48//48 
f 189//189 46//46 47//47 
f 78//78 74//74 38//38 
f 77//77 80//80 47//47 
f 80//80 189//189 47//47 
f 47//47 73//73 77//77 
f 78//78 190//190 79//79 
f 80//80 79//79 189//189 
f 44//44 51//51 43//43 
f 41//41 43//43 49//49 
f 43//43 51//51 53//53 
f 49//49 43//43 53//53 
f 50//50 41//41 49//49 
f 59//59 50//50 49//49 
f 44//44 52//52 51//51 
f 44//44 55//55 52//52 
f 54//54 53//53 51//51 
f 51//51 52//52 54//54 
f 58//58 54//54 55//55 
f 55//55 54//54 52//52 
f 53//53 54//54 56//56 
f 49//49 53//53 56//56 
f 191//191 54//54 58//58 
f 84//84 55//55 57//57 
f 58//58 55//55 84//84 
f 59//59 49//49 192//192 
f 76//76 57//57 45//45 
f 59//59 192//192 193//193 
f 76//76 84//84 57//57 
f 1//1 61//61 60//60 
f 1//1 64//64 61//61 
f 61//61 64//64 66//66 
f 60//60 61//61 62//62 
f 60//60 62//62 63//63 
f 62//62 61//61 86//86 
f 86//86 61//61 66//66 
f 62//62 87//87 63//63 
f 62//62 196//196 87//87 
f 194//194 197//197 17//17 
f 180//180 183//183 70//70 
f 66//66 64//64 67//67 
f 106//106 86//86 66//66 
f 106//106 66//66 67//67 
f 106//106 67//67 90//90 
f 90//90 67//67 65//65 
f 197//197 68//68 17//17 
f 183//183 19//19 70//70 
f 69//69 20//20 75//75 
f 75//75 20//20 187//187 
f 70//70 19//19 69//69 
f 96//96 70//70 69//69 
f 70//70 96//96 88//88 
f 30//30 7//7 198//198 
f 70//70 88//88 180//180 
f 65//65 71//71 90//90 
f 71//71 74//74 90//90 
f 81//81 77//77 73//73 
f 68//68 91//91 72//72 
f 91//91 73//73 72//72 
f 81//81 73//73 91//91 
f 81//81 92//92 93//93 
f 91//91 92//92 81//81 
f 75//75 187//187 41//41 
f 75//75 41//41 101//101 
f 96//96 69//69 75//75 
f 96//96 75//75 101//101 
f 101//101 41//41 50//50 
f 76//76 29//29 89//89 
f 98//98 84//84 89//89 
f 105//105 84//84 98//98 
f 77//77 81//81 80//80 
f 83//83 74//74 78//78 
f 83//83 78//78 79//79 
f 82//82 79//79 80//80 
f 81//81 82//82 80//80 
f 81//81 93//93 82//82 
f 200//200 79//79 82//82 
f 83//83 79//79 200//200 
f 59//59 101//101 50//50 
f 59//59 85//85 101//101 
f 101//101 85//85 103//103 
f 103//103 85//85 102//102 
f 85//85 59//59 193//193 
f 84//84 85//85 58//58 
f 84//84 76//76 89//89 
f 105//105 85//85 84//84 
f 85//85 105//105 102//102 
f 107//107 68//68 197//197 
f 30//30 198//198 199//199 
f 106//106 90//90 108//108 
f 108//108 90//90 74//74 
f 92//92 91//91 94//94 
f 94//94 93//93 92//92 
f 94//94 91//91 68//68 
f 95//95 83//83 200//200 
f 68//68 107//107 94//94 
f 201//201 93//93 94//94 
f 74//74 83//83 108//108 
f 203//203 195//195 201//201 
f 109//109 96//96 101//101 
f 103//103 204//204 101//101 
f 204//204 103//103 97//97 
f 103//103 104//104 97//97 
f 97//97 104//104 105//105 
f 99//99 98//98 89//89 
f 98//98 202//202 105//105 
f 202//202 100//100 105//105 
f 97//97 105//105 100//100 
f 103//103 102//102 104//104 
f 105//105 104//104 102//102 
f 119//119 106//106 108//108 
f 107//107 197//197 110//110 
f 111//111 107//107 110//110 
f 86//86 106//106 117//117 
f 196//196 206//206 87//87 
f 135//135 96//96 126//126 
f 201//201 94//94 113//113 
f 108//108 124//124 119//119 
f 206//206 205//205 87//87 
f 117//117 106//106 207//207 
f 116//116 111//111 110//110 
f 111//111 116//116 114//114 
f 135//135 88//88 96//96 
f 124//124 203//203 201//201 
f 122//122 124//124 201//201 
f 112//112 107//107 111//111 
f 94//94 107//107 112//112 
f 113//113 94//94 112//112 
f 111//111 114//114 112//112 
f 113//113 120//120 201//201 
f 112//112 115//115 113//113 
f 113//113 115//115 120//120 
f 138//138 204//204 97//97 
f 116//116 118//118 114//114 
f 118//118 112//112 114//114 
f 205//205 206//206 116//116 
f 118//118 116//116 206//206 
f 127//127 112//112 118//118 
f 199//199 198//198 137//137 
f 224//224 137//137 198//198 
f 134//134 207//207 142//142 
f 115//115 121//121 120//120 
f 122//122 201//201 120//120 
f 122//122 120//120 121//121 
f 123//123 124//124 122//122 
f 122//122 121//121 123//123 
f 123//123 121//121 125//125 
f 125//125 121//121 115//115 
f 125//125 124//124 123//123 
f 124//124 227//227 119//119 
f 124//124 125//125 227//227 
f 133//133 204//204 138//138 
f 112//112 128//128 115//115 
f 129//129 128//128 112//112 
f 109//109 222//222 96//96 
f 100//100 202//202 139//139 
f 138//138 100//100 139//139 
f 225//225 99//99 89//89 
f 125//125 115//115 128//128 
f 140//140 136//136 118//118 
f 223//223 118//118 206//206 
f 207//207 134//134 117//117 
f 136//136 127//127 118//118 
f 129//129 112//112 127//127 
f 127//127 224//224 209//209 
f 130//130 126//126 96//96 
f 130//130 216//216 211//211 
f 131//131 216//216 130//130 
f 128//128 129//129 218//218 
f 132//132 213//213 219//219 
f 130//130 96//96 131//131 
f 222//222 131//131 96//96 
f 210//210 217//217 212//212 
f 221//221 220//220 133//133 
f 100//100 138//138 97//97 
f 146//146 133//133 138//138 
f 133//133 146//146 221//221 
f 228//228 208//208 214//214 
f 223//223 140//140 118//118 
f 134//134 141//141 226//226 
f 137//137 136//136 140//140 
f 127//127 136//136 224//224 
f 224//224 136//136 137//137 
f 134//134 142//142 141//141 
f 146//146 215//215 221//221 
f 225//225 89//89 137//137 
f 143//143 141//141 142//142 
f 230//230 229//229 235//235 
f 214//214 236//236 228//228 
f 230//230 235//235 145//145 
f 141//141 143//143 233//233 
f 141//141 144//144 226//226 
f 233//233 144//144 141//141 
f 147//147 231//231 234//234 
f 140//140 232//232 137//137 
f 149//149 137//137 232//232 
f 149//149 231//231 147//147 
f 146//146 138//138 151//151 
f 151//151 138//138 139//139 
f 148//148 237//237 145//145 
f 153//153 225//225 137//137 
f 151//151 139//139 242//242 
f 148//148 145//145 235//235 
f 151//151 238//238 146//146 
f 154//154 238//238 151//151 
f 147//147 152//152 149//149 
f 241//241 237//237 150//150 
f 150//150 237//237 148//148 
f 156//156 149//149 152//152 
f 239//239 154//154 240//240 
f 157//157 156//156 152//152 
f 150//150 243//243 241//241 
f 172//172 170//170 240//240 
f 172//172 240//240 154//154 
f 242//242 155//155 151//151 
f 154//154 151//151 155//155 
f 149//149 161//161 137//137 
f 163//163 153//153 137//137 
f 255//255 243//243 150//150 
f 155//155 242//242 167//167 
f 174//174 172//172 154//154 
f 154//154 155//155 174//174 
f 161//161 149//149 156//156 
f 158//158 161//161 156//156 
f 244//244 156//156 157//157 
f 244//244 157//157 159//159 
f 159//159 243//243 255//255 
f 255//255 171//171 159//159 
f 244//244 160//160 164//164 
f 159//159 160//160 244//244 
f 160//160 159//159 166//166 
f 171//171 166//166 159//159 
f 166//166 168//168 160//160 
f 171//171 173//173 166//166 
f 158//158 248//248 161//161 
f 248//248 162//162 161//161 
f 162//162 137//137 161//161 
f 163//163 137//137 162//162 
f 242//242 245//245 167//167 
f 164//164 160//160 168//168 
f 168//168 165//165 164//164 
f 162//162 248//248 249//249 
f 246//246 162//162 249//249 
f 251//251 247//247 250//250 
f 166//166 173//173 169//169 
f 253//253 251//251 250//250 
f 252//252 253//253 250//250 
f 166//166 169//169 168//168 
f 171//171 170//170 172//172 
f 171//171 172//172 173//173 
f 174//174 155//155 167//167 
f 173//173 172//172 174//174 
f 167//167 254//254 174//174 
f 254//254 256//256 174//174 
