#
# Compatibility version : 4.3
# File ID : FJ4274
# Representation ID : BP29122
# Build-up logic : FMA 3.0 is_a
# Concept ID : FMA45239
# English name : Lateral cord of left brachial nerve plexus
# Bounds(mm): (64.087000,-89.235500,1335.820800)-(90.394600,-78.346700,1362.618500)
# Volume(cm3): 0.319600
#
v 64.3587 -80.5674 1359.76
v 64.5042 -81.0592 1360.46
v 64.7042 -81.2467 1360.86
v 64.9042 -81.1545 1361.23
v 65.1042 -81.3717 1361.26
v 64.1839 -80.3211 1359.91
v 64.3874 -79.9844 1359.28
v 64.3899 -79.3941 1359.31
v 64.3983 -80.3635 1359.49
v 64.4696 -79.1609 1359.7
v 64.6009 -79.0054 1359.37
v 65.2506 -78.6095 1359.47
v 66.5752 -80.7387 1357.32
v 66.1689 -81.2361 1359.12
v 65.5932 -81.1545 1362.06
v 66.1398 -81.3256 1361.31
v 65.9042 -81.1655 1362.26
v 66.3042 -80.5545 1362.62
v 66.6012 -80.5556 1362.43
v 66.8822 -79.7995 1356.27
v 66.5093 -79.228 1356.95
v 66.5042 -79.1545 1362.17
v 66.5883 -78.8886 1361.74
v 66.8269 -79.1748 1361.91
v 66.7567 -80.1731 1362.45
v 66.7042 -79.7545 1362.5
v 65.8686 -78.3825 1360.31
v 65.7383 -78.7566 1361.04
v 66.1904 -78.5366 1361.19
v 66.8234 -78.71 1361.08
v 67.6966 -81.4394 1358.39
v 67.944 -80.7578 1360.76
v 68.5019 -79.3679 1360.18
v 68.4035 -80.1713 1360.62
v 67.9717 -78.4646 1357.55
v 68.0733 -78.5254 1358.72
v 68.9954 -81.3391 1355.15
v 69.7636 -78.8476 1357.54
v 68.9088 -79.7696 1359.98
v 68.5942 -78.9899 1359.53
v 69.1564 -78.7618 1354.83
v 70.6 -81.0472 1351.66
v 71.486 -81.8433 1353.54
v 71.2859 -81.6034 1355.22
v 70.7814 -80.5937 1357.55
v 70.6522 -79.572 1351.53
v 70.726 -79.279 1351.92
v 70.9812 -78.7781 1353.6
v 70.9786 -78.8803 1355.58
v 71.7083 -79.2365 1355.41
v 71.2114 -80.162 1357.09
v 70.2919 -79.153 1357.49
v 70.6868 -79.7435 1357.65
v 70.5047 -78.714 1355.44
v 72.2025 -80.6949 1348.96
v 72.675 -81.404 1354.32
v 72.6755 -79.8779 1348.9
v 71.7786 -80.1411 1349.66
v 73.3865 -79.3649 1349.62
v 72.0338 -79.1282 1351.18
v 72.4898 -79.0125 1352.21
v 73.3076 -79.3041 1352.42
v 72.2055 -79.6046 1355.25
v 72.6385 -80.1691 1355.09
v 74.3599 -82.3757 1347.34
v 73.4908 -82.0091 1352.09
v 73.6138 -81.347 1347.1
v 73.9391 -80.7625 1346.73
v 74.5292 -80.4055 1346.46
v 74.8302 -81.3942 1351.84
v 74.5525 -80.763 1352.44
v 74.9832 -80.1349 1346.59
v 74.8564 -79.8157 1347.5
v 73.4709 -79.6964 1348.53
v 74.2763 -79.428 1349.88
v 73.9348 -79.776 1352.58
v 75.7762 -82.3081 1344.55
v 76.5769 -82.348 1343.48
v 75.4282 -82.6727 1348.88
v 75.7932 -82.3402 1349.63
v 76.2115 -81.3446 1344.11
v 76.5313 -80.9681 1344.28
v 75.3397 -81.7419 1344.88
v 76.5285 -80.607 1344.88
v 76.1162 -80.2017 1346.07
v 75.3218 -79.7997 1347.69
v 76.5528 -80.3883 1348.78
v 76.2741 -80.0604 1348.07
v 77.628 -83.6809 1345.21
v 77.7898 -82.802 1342.24
v 77.077 -82.7756 1343.06
v 77.0909 -83.148 1343.46
v 77.6845 -83.4121 1346.33
v 77.3357 -82.7386 1347.84
v 77.745 -81.9614 1342.5
v 76.7615 -81.9909 1343.29
v 77.7709 -81.0005 1343.75
v 77.8475 -80.7965 1344.33
v 77.4774 -80.4731 1345.83
v 76.6236 -80.8996 1349.43
v 77.1645 -81.6557 1348.88
v 79.9425 -84.0065 1340.44
v 78.7049 -83.7319 1341.72
v 79.4235 -84.5042 1342.12
v 79.2367 -84.4312 1343.32
v 79.6377 -84.4297 1343.77
v 79.4797 -83.9149 1344.95
v 79.3125 -82.7685 1340.99
v 79.3605 -82.3842 1341.24
v 79.7852 -83.5549 1340.47
v 78.4587 -82.7275 1341.61
v 78.8465 -81.7876 1342.12
v 79.5117 -81.7573 1342.06
v 78.623 -80.9746 1344.17
v 79.1546 -81.3492 1343.02
v 81.5292 -85.5592 1341.23
v 81.3329 -85.3011 1342.13
v 80.5784 -84.7783 1340.41
v 80.6236 -84.3944 1343.94
v 79.8049 -83.6553 1345.2
v 80.6831 -82.5453 1340.69
v 81.2808 -82.4481 1340.91
v 81.3007 -82.1712 1341.89
v 80.7932 -82.3711 1344.55
v 79.9662 -82.9264 1345.59
v 79.874 -81.4756 1344.09
v 82.9957 -85.7735 1338.42
v 82.8555 -85.3747 1342.33
v 81.9271 -84.1756 1338.94
v 82.193 -84.9085 1338.72
v 81.6782 -84.1345 1343.82
v 81.4248 -83.5128 1339.52
v 82.6397 -82.8216 1342.05
v 81.7644 -83.4048 1343.96
v 84.028 -85.8074 1337.54
v 84.5965 -86.295 1341.14
v 83.3086 -84.9634 1338
v 83.4371 -84.3925 1338.25
v 83.269 -85.1335 1342.47
v 83.7272 -83.9913 1342.31
v 83.9779 -84.7641 1342.27
v 83.0159 -83.5073 1339.3
v 83.4155 -83.3056 1339.95
v 84.2329 -83.5924 1340.08
v 84.2482 -83.7683 1341.36
v 85.0711 -86.9699 1340.23
v 85.142 -85.7696 1336.95
v 86.3197 -85.6845 1340.77
v 85.2009 -85.2078 1337.25
v 85.4859 -84.8365 1337.69
v 86.1057 -85.155 1340.71
v 87.7042 -88.7545 1336.62
v 86.7066 -87.0465 1336.02
v 86.6366 -87.8954 1336.55
v 87.1042 -87.7545 1335.91
v 87.0439 -86.9293 1335.88
v 87.4275 -86.9431 1335.93
v 86.6659 -85.7394 1336.66
v 87.4072 -86.4819 1336.02
v 86.529 -86.6029 1340.52
v 87.4511 -88.6324 1337.85
v 89.1042 -89.2355 1337.86
v 87.8271 -86.1216 1336.37
v 88.0597 -85.7879 1337.12
v 89.501 -86.3545 1337.26
v 89.0503 -88.7028 1338.61
v 89.9042 -88.8444 1338.46
v 89.861 -88.6713 1338.24
v 89.7754 -88.4665 1338.73
v 90.1582 -88.7545 1338.46
v 89.8831 -88.0535 1338.84
v 90.2909 -88.191 1338.6
v 90.3042 -87.9545 1338.64
v 90.3946 -87.3545 1338.26
v 88.9671 -86.0802 1337.8
v 90.0187 -86.7545 1337.86
v 64.5042 -81.0592 1360.46
v 64.7042 -81.2467 1360.86
v 64.7042 -81.2467 1360.86
v 64.9042 -81.1545 1361.23
v 65.1042 -81.3717 1361.26
v 64.1839 -80.3211 1359.91
v 64.4696 -79.1609 1359.7
v 64.4696 -79.1609 1359.7
v 64.6009 -79.0054 1359.37
v 65.2506 -78.6095 1359.47
v 65.5932 -81.1545 1362.06
v 65.5932 -81.1545 1362.06
v 65.5932 -81.1545 1362.06
v 65.9042 -81.1655 1362.26
v 66.3042 -80.5545 1362.62
v 66.3042 -80.5545 1362.62
v 66.5042 -79.1545 1362.17
v 66.7042 -79.7545 1362.5
v 65.8686 -78.3825 1360.31
v 66.1904 -78.5366 1361.19
v 87.7042 -88.7545 1336.62
v 89.1042 -89.2355 1337.86
v 87.8271 -86.1216 1336.37
v 89.501 -86.3545 1337.26
v 89.9042 -88.8444 1338.46
v 90.1582 -88.7545 1338.46
v 90.1582 -88.7545 1338.46
v 90.1582 -88.7545 1338.46
v 90.2909 -88.191 1338.6
v 90.3042 -87.9545 1338.64
v 90.3946 -87.3545 1338.26
v 90.3946 -87.3545 1338.26
v 90.0187 -86.7545 1337.86
vn -0.731572 -0.558649 -0.390786
vn -0.530247 -0.789812 -0.308277
vn -0.894522 -0.0483833 0.444397
vn -0.796795 0.202167 0.569427
vn -0.661072 -0.540952 0.519956
vn -0.948467 -0.178661 -0.261707
vn -0.82031 -0.210212 -0.531886
vn -0.879037 0.272205 -0.391406
vn -0.770218 -0.394484 -0.501146
vn -0.927484 0.372395 -0.0331099
vn -0.688395 0.614195 -0.385844
vn -0.558763 0.797624 0.227113
vn -0.616182 -0.627367 -0.476162
vn -0.315822 -0.91629 -0.246311
vn -0.652062 -0.529727 0.542406
vn 0.0823825 -0.981715 0.171606
vn 0.311045 -0.861146 0.402093
vn -0.637941 0.315391 0.702538
vn 0.581951 -0.481875 0.65508
vn -0.780819 -0.051942 -0.622595
vn -0.668209 0.497785 -0.552908
vn 0.367671 0.723849 0.583833
vn 0.368617 0.809456 0.45706
vn 0.564164 0.624743 0.539829
vn 0.605458 -0.161309 0.779359
vn 0.659658 0.252094 0.708025
vn -0.561864 0.773338 0.293695
vn -0.677316 0.525984 0.514377
vn -0.501956 0.738403 0.450335
vn 0.359899 0.880512 0.308498
vn -0.107635 -0.99307 -0.0471962
vn 0.605275 -0.590005 0.534356
vn 0.656191 0.536718 0.530422
vn 0.750199 -0.162344 0.640972
vn -0.0193117 0.997427 -0.0690383
vn 0.245334 0.955434 0.164187
vn -0.365826 -0.91298 -0.18066
vn 0.405401 0.87678 0.258665
vn 0.75465 0.230779 0.614203
vn 0.492069 0.781302 0.383973
vn -0.217424 0.945283 -0.243241
vn -0.694136 -0.582874 -0.422412
vn -0.050122 -0.994745 0.0892704
vn 0.161438 -0.964813 0.207541
vn 0.725647 -0.367815 0.581506
vn -0.590169 0.626465 -0.509158
vn -0.415855 0.816215 -0.401071
vn 0.0143109 0.995307 -0.0957085
vn 0.386737 0.901483 0.194327
vn 0.541295 0.78167 0.309826
vn 0.798184 0.032461 0.601539
vn 0.600194 0.684681 0.413496
vn 0.737852 0.414742 0.532507
vn 0.226152 0.970746 0.0806726
vn -0.808109 -0.0733947 -0.584442
vn 0.43585 -0.801638 0.409159
vn -0.531031 0.671737 -0.516503
vn -0.718906 0.371779 -0.587328
vn -0.00776238 0.982075 -0.188329
vn -0.137872 0.961415 -0.238061
vn 0.160755 0.98659 -0.0282542
vn 0.424089 0.890275 0.166009
vn 0.700136 0.559381 0.443736
vn 0.797005 0.265485 0.542495
vn -0.500783 -0.851544 -0.15521
vn 0.186165 -0.939583 0.287273
vn -0.801765 -0.184692 -0.568385
vn -0.714713 0.307655 -0.628119
vn -0.464719 0.695054 -0.548576
vn 0.649548 -0.505605 0.567848
vn 0.807281 -0.0448103 0.588464
vn -0.230696 0.876824 -0.421852
vn -0.0655442 0.958283 -0.278205
vn -0.278711 0.881805 -0.380447
vn 0.238552 0.971018 -0.014756
vn 0.63657 0.689272 0.345951
vn -0.744743 -0.460321 -0.48318
vn -0.755308 -0.164205 -0.634466
vn -0.056958 -0.982116 0.179455
vn 0.306804 -0.853553 0.421092
vn -0.588634 0.461832 -0.663492
vn -0.321297 0.762783 -0.561186
vn -0.767505 0.00600598 -0.641015
vn -0.120712 0.90604 -0.40561
vn 0.0293492 0.964284 -0.263238
vn 0.153302 0.980424 -0.123561
vn 0.605525 0.741484 0.289034
vn 0.400323 0.912932 0.0793563
vn -0.219911 -0.960511 0.170466
vn -0.712564 -0.164249 -0.682111
vn -0.731907 -0.398503 -0.552727
vn -0.670199 -0.636588 -0.381561
vn 0.0481719 -0.933349 0.355724
vn 0.376991 -0.75219 0.540451
vn -0.469551 0.528766 -0.707056
vn -0.681781 0.173263 -0.710742
vn -0.0671058 0.899096 -0.432578
vn 0.0974626 0.960393 -0.261049
vn 0.267206 0.96019 -0.0814589
vn 0.775216 0.37737 0.506588
vn 0.728581 -0.211806 0.65139
vn -0.678801 -0.3608 -0.639573
vn -0.682085 -0.548635 -0.483487
vn -0.523264 -0.841236 -0.136075
vn -0.317451 -0.940104 0.124217
vn -0.114829 -0.940276 0.320462
vn 0.106419 -0.876777 0.468974
vn -0.481213 0.381416 -0.789275
vn -0.298535 0.647295 -0.701346
vn -0.602987 0.0590025 -0.795566
vn -0.624893 0.168472 -0.762316
vn -0.200085 0.789389 -0.580372
vn 0.00638565 0.893211 -0.449592
vn 0.275794 0.952112 -0.131983
vn 0.148144 0.944332 -0.293754
vn -0.343767 -0.922396 0.176095
vn -0.184485 -0.921881 0.340735
vn -0.624252 -0.675149 -0.393043
vn 0.100592 -0.819111 0.564746
vn 0.374756 -0.66291 0.648158
vn -0.0795096 0.801189 -0.593106
vn 0.147154 0.913142 -0.380155
vn 0.335705 0.93227 -0.134818
vn 0.721773 0.412017 0.556135
vn 0.648801 -0.186902 0.737648
vn 0.447271 0.892455 0.0589266
vn -0.63522 -0.485631 -0.600549
vn 0.0360631 -0.782801 0.621227
vn -0.453557 0.282791 -0.845172
vn -0.606247 -0.133585 -0.783977
vn 0.427404 -0.467205 0.77398
vn -0.297138 0.558409 -0.774525
vn 0.541153 0.822763 0.173826
vn 0.645233 0.0441802 0.762707
vn -0.555438 -0.130961 -0.821181
vn 0.03371 -0.731929 0.680546
vn -0.442645 0.209716 -0.871828
vn -0.187807 0.602815 -0.775463
vn 0.284472 -0.549075 0.785871
vn 0.655463 0.342726 0.672984
vn 0.526483 -0.122111 0.841371
vn 0.0414825 0.828786 -0.558026
vn 0.268693 0.913547 -0.305346
vn 0.414905 0.906074 -0.0829739
vn 0.618118 0.655526 0.433839
vn -0.187163 -0.873373 0.449655
vn -0.337851 0.314403 -0.887134
vn 0.547007 0.119284 0.828586
vn -0.1141 0.6252 -0.772079
vn 0.113849 0.830715 -0.544931
vn 0.622658 0.455371 0.636345
vn -0.509121 -0.831304 -0.223001
vn -0.453799 -0.0118961 -0.891025
vn -0.583375 -0.67435 -0.452687
vn -0.205444 -0.349836 -0.914006
vn -0.153079 0.144405 -0.977606
vn 0.34359 0.0359048 -0.938433
vn 0.0165686 0.715753 -0.698157
vn 0.0939113 0.432878 -0.896548
vn 0.253416 -0.458509 0.851792
vn -0.363138 -0.917629 0.161515
vn -0.214423 -0.89942 0.380877
vn 0.189006 0.801013 -0.568027
vn 0.314129 0.883991 -0.34624
vn 0.448309 0.8829 -0.139665
vn -0.0187165 -0.745219 0.666557
vn 0.0804351 -0.649032 0.756497
vn 0.52355 -0.455654 -0.719913
vn 0.255713 -0.436796 0.86245
vn 0.258159 -0.729966 -0.632854
vn 0.398864 -0.226768 0.888529
vn 0.432942 -0.244381 0.867663
vn 0.514634 0.044092 0.856276
vn 0.610285 0.48243 0.628342
vn 0.505045 0.85953 0.0783473
vn 0.567894 0.785091 0.247242
vn -0.906831 -0.0882768 0.412147
vn -0.235027 -0.951698 -0.197566
vn -0.669612 -0.551791 0.497137
vn -0.661072 -0.540952 0.519956
vn -0.0342922 -0.997693 0.0585882
vn -0.835139 0.127999 0.534938
vn -0.738306 0.293335 0.607338
vn -0.523474 0.826162 0.208402
vn -0.532385 0.827175 0.179856
vn -0.343367 0.88432 -0.316349
vn -0.733773 0.301481 0.608839
vn -0.0463564 -0.980421 0.19138
vn -0.539081 -0.139013 0.830703
vn -0.539081 -0.139013 0.830703
vn -0.539081 -0.139013 0.830703
vn 0.457428 -0.335537 0.823513
vn -0.56464 0.440869 0.697722
vn -0.404141 0.328922 0.853511
vn 0.0295992 0.999553 0.00416002
vn 0.195712 0.930145 0.310688
vn 0.582211 -0.230133 -0.779788
vn 0.619293 -0.338835 -0.708285
vn 0.477987 0.269572 -0.835978
vn 0.591826 -0.0982739 -0.800053
vn 0.472363 -0.641211 -0.604749
vn 0.325545 -0.394328 0.859375
vn 0.567802 -0.23849 -0.78786
vn 0.968549 -0.186997 -0.164149
vn 0.990825 -0.132882 -0.024666
vn 0.990431 -0.0757264 0.115381
vn 0.707228 -0.0714516 -0.703366
vn 0.990825 -0.132882 -0.024666
vn 0.778318 0.0716685 -0.623766
g grp1
usemtl mtl1
f 1//1 2//2 6//6 
f 1//1 6//6 9//9 
f 2//2 1//1 13//13 
f 13//13 1//1 9//9 
f 3//3 182//182 177//177 
f 14//14 178//178 2//2 
f 14//14 2//2 13//13 
f 3//3 4//4 182//182 
f 182//182 4//4 28//28 
f 14//14 31//31 178//178 
f 5//5 180//180 179//179 
f 31//31 181//181 178//178 
f 180//180 5//5 15//15 
f 28//28 4//4 187//187 
f 31//31 16//16 181//181 
f 8//8 20//20 7//7 
f 20//20 8//8 21//21 
f 8//8 11//11 21//21 
f 7//7 9//9 6//6 
f 6//6 8//8 7//7 
f 6//6 10//10 8//8 
f 11//11 8//8 10//10 
f 13//13 9//9 7//7 
f 182//182 28//28 183//183 
f 12//12 185//185 184//184 
f 184//184 28//28 12//12 
f 28//28 27//27 12//12 
f 186//186 195//195 35//35 
f 16//16 188//188 181//181 
f 188//188 16//16 17//17 
f 28//28 187//187 18//18 
f 56//56 17//17 16//16 
f 32//32 17//17 56//56 
f 32//32 19//19 17//17 
f 189//189 190//190 191//191 
f 17//17 19//19 192//192 
f 7//7 20//20 13//13 
f 21//21 11//11 186//186 
f 22//22 26//26 24//24 
f 24//24 23//23 22//22 
f 33//33 40//40 24//24 
f 26//26 33//33 24//24 
f 40//40 23//23 24//24 
f 23//23 40//40 30//30 
f 18//18 193//193 28//28 
f 19//19 25//25 192//192 
f 25//25 26//26 192//192 
f 18//18 194//194 193//193 
f 34//34 39//39 26//26 
f 25//25 34//34 26//26 
f 28//28 29//29 27//27 
f 36//36 35//35 195//195 
f 36//36 195//195 196//196 
f 193//193 29//29 28//28 
f 23//23 196//196 22//22 
f 196//196 23//23 30//30 
f 36//36 196//196 30//30 
f 40//40 36//36 30//30 
f 14//14 13//13 37//37 
f 14//14 37//37 31//31 
f 44//44 16//16 31//31 
f 32//32 34//34 19//19 
f 32//32 45//45 34//34 
f 13//13 20//20 55//55 
f 20//20 21//21 55//55 
f 36//36 40//40 38//38 
f 19//19 34//34 25//25 
f 39//39 33//33 26//26 
f 186//186 35//35 41//41 
f 35//35 36//36 54//54 
f 13//13 55//55 42//42 
f 37//37 13//13 42//42 
f 37//37 43//43 31//31 
f 43//43 44//44 31//31 
f 44//44 56//56 16//16 
f 45//45 32//32 56//56 
f 46//46 21//21 47//47 
f 41//41 47//47 186//186 
f 186//186 47//47 21//21 
f 52//52 33//33 53//53 
f 40//40 52//52 38//38 
f 33//33 52//52 40//40 
f 45//45 51//51 34//34 
f 33//33 39//39 53//53 
f 39//39 51//51 53//53 
f 34//34 51//51 39//39 
f 41//41 35//35 48//48 
f 48//48 35//35 54//54 
f 54//54 36//36 38//38 
f 43//43 37//37 79//79 
f 56//56 70//70 45//45 
f 21//21 58//58 55//55 
f 46//46 58//58 21//21 
f 60//60 47//47 41//41 
f 41//41 48//48 60//60 
f 61//61 60//60 48//48 
f 54//54 38//38 49//49 
f 38//38 50//50 49//49 
f 38//38 52//52 50//50 
f 71//71 64//64 51//51 
f 45//45 71//71 51//51 
f 64//64 53//53 51//51 
f 63//63 50//50 52//52 
f 53//53 63//63 52//52 
f 89//89 79//79 65//65 
f 67//67 55//55 68//68 
f 55//55 58//58 68//68 
f 42//42 55//55 67//67 
f 37//37 42//42 65//65 
f 65//65 79//79 37//37 
f 44//44 66//66 56//56 
f 43//43 66//66 44//44 
f 70//70 71//71 45//45 
f 57//57 58//58 46//46 
f 68//68 58//58 57//57 
f 74//74 57//57 47//47 
f 74//74 47//47 60//60 
f 46//46 47//47 57//57 
f 59//59 74//74 60//60 
f 59//59 60//60 61//61 
f 61//61 54//54 62//62 
f 76//76 62//62 50//50 
f 61//61 48//48 54//54 
f 54//54 49//49 62//62 
f 62//62 49//49 50//50 
f 63//63 53//53 64//64 
f 63//63 76//76 50//50 
f 64//64 71//71 100//100 
f 100//100 63//63 64//64 
f 42//42 67//67 77//77 
f 77//77 65//65 42//42 
f 79//79 66//66 43//43 
f 80//80 66//66 79//79 
f 81//81 68//68 69//69 
f 68//68 57//57 69//69 
f 80//80 56//56 66//66 
f 70//70 56//56 80//80 
f 69//69 57//57 74//74 
f 69//69 74//74 72//72 
f 75//75 59//59 61//61 
f 72//72 74//74 73//73 
f 73//73 74//74 59//59 
f 73//73 59//59 86//86 
f 86//86 59//59 75//75 
f 75//75 61//61 62//62 
f 75//75 62//62 88//88 
f 87//87 62//62 76//76 
f 96//96 78//78 83//83 
f 77//77 83//83 78//78 
f 78//78 91//91 77//77 
f 92//92 77//77 91//91 
f 65//65 77//77 92//92 
f 83//83 77//77 67//67 
f 79//79 89//89 93//93 
f 70//70 80//80 94//94 
f 81//81 69//69 82//82 
f 68//68 81//81 83//83 
f 67//67 68//68 83//83 
f 83//83 81//81 96//96 
f 71//71 70//70 101//101 
f 101//101 100//100 71//71 
f 82//82 69//69 72//72 
f 84//84 82//82 72//72 
f 84//84 72//72 85//85 
f 72//72 73//73 85//85 
f 85//85 73//73 86//86 
f 99//99 85//85 86//86 
f 88//88 99//99 86//86 
f 86//86 75//75 88//88 
f 63//63 100//100 76//76 
f 62//62 87//87 88//88 
f 65//65 105//105 89//89 
f 105//105 106//106 89//89 
f 78//78 90//90 91//91 
f 90//90 78//78 96//96 
f 90//90 96//96 111//111 
f 96//96 95//95 111//111 
f 65//65 92//92 104//104 
f 89//89 106//106 93//93 
f 107//107 93//93 106//106 
f 80//80 79//79 93//93 
f 93//93 94//94 80//80 
f 101//101 70//70 94//94 
f 97//97 112//112 82//82 
f 95//95 96//96 81//81 
f 95//95 81//81 82//82 
f 82//82 84//84 97//97 
f 84//84 98//98 97//97 
f 97//97 98//98 115//115 
f 99//99 114//114 98//98 
f 84//84 85//85 98//98 
f 99//99 88//88 126//126 
f 87//87 126//126 88//88 
f 76//76 100//100 87//87 
f 85//85 99//99 98//98 
f 103//103 90//90 102//102 
f 118//118 104//104 103//103 
f 102//102 90//90 110//110 
f 92//92 91//91 103//103 
f 92//92 103//103 104//104 
f 65//65 104//104 105//105 
f 117//117 106//106 105//105 
f 119//119 107//107 106//106 
f 107//107 120//120 94//94 
f 119//119 120//120 107//107 
f 95//95 108//108 111//111 
f 111//111 108//108 110//110 
f 95//95 109//109 108//108 
f 110//110 90//90 111//111 
f 110//110 108//108 132//132 
f 108//108 109//109 132//132 
f 109//109 112//112 121//121 
f 91//91 90//90 103//103 
f 112//112 95//95 82//82 
f 95//95 112//112 109//109 
f 107//107 94//94 93//93 
f 120//120 101//101 94//94 
f 125//125 124//124 101//101 
f 101//101 124//124 100//100 
f 113//113 121//121 112//112 
f 113//113 112//112 97//97 
f 113//113 97//97 115//115 
f 115//115 98//98 114//114 
f 87//87 124//124 133//133 
f 126//126 87//87 133//133 
f 124//124 87//87 100//100 
f 130//130 110//110 129//129 
f 110//110 130//130 102//102 
f 102//102 127//127 118//118 
f 102//102 118//118 103//103 
f 104//104 116//116 105//105 
f 116//116 117//117 105//105 
f 117//117 119//119 106//106 
f 119//119 117//117 128//128 
f 139//139 119//119 128//128 
f 131//131 119//119 139//139 
f 134//134 125//125 131//131 
f 131//131 120//120 119//119 
f 120//120 131//131 125//125 
f 121//121 132//132 109//109 
f 110//110 132//132 129//129 
f 142//142 132//132 121//121 
f 121//121 113//113 122//122 
f 142//142 121//121 122//122 
f 125//125 101//101 120//120 
f 125//125 134//134 124//124 
f 123//123 115//115 114//114 
f 113//113 115//115 122//122 
f 123//123 122//122 115//115 
f 114//114 99//99 126//126 
f 123//123 126//126 133//133 
f 126//126 123//123 114//114 
f 130//130 127//127 102//102 
f 161//161 116//116 104//104 
f 146//146 117//117 116//116 
f 161//161 146//146 116//116 
f 162//162 146//146 161//161 
f 146//146 128//128 117//117 
f 136//136 128//128 146//146 
f 142//142 138//138 132//132 
f 139//139 141//141 131//131 
f 134//134 131//131 141//141 
f 134//134 140//140 124//124 
f 142//142 122//122 143//143 
f 123//123 143//143 122//122 
f 143//143 123//123 144//144 
f 133//133 144//144 123//123 
f 152//152 104//104 118//118 
f 135//135 127//127 130//130 
f 137//137 135//135 130//130 
f 136//136 146//146 166//166 
f 128//128 136//136 160//160 
f 128//128 160//160 139//139 
f 137//137 129//129 138//138 
f 130//130 129//129 137//137 
f 138//138 129//129 132//132 
f 138//138 142//142 150//150 
f 150//150 142//142 143//143 
f 141//141 140//140 134//134 
f 141//141 139//139 160//160 
f 141//141 148//148 140//140 
f 145//145 124//124 140//140 
f 164//164 143//143 144//144 
f 124//124 145//145 133//133 
f 162//162 166//166 146//146 
f 147//147 153//153 135//135 
f 156//156 153//153 147//147 
f 147//147 159//159 156//156 
f 147//147 149//149 159//159 
f 159//159 149//149 158//158 
f 137//137 147//147 135//135 
f 137//137 138//138 147//147 
f 138//138 149//149 147//147 
f 136//136 166//166 160//160 
f 149//149 138//138 150//150 
f 158//158 149//149 150//150 
f 150//150 143//143 164//164 
f 164//164 144//144 165//165 
f 144//144 175//175 165//165 
f 145//145 140//140 151//151 
f 133//133 175//175 144//144 
f 148//148 151//151 140//140 
f 141//141 160//160 148//148 
f 152//152 118//118 154//154 
f 152//152 162//162 161//161 
f 127//127 155//155 154//154 
f 127//127 154//154 118//118 
f 155//155 127//127 135//135 
f 155//155 135//135 153//153 
f 156//156 155//155 153//153 
f 157//157 155//155 156//156 
f 152//152 154//154 155//155 
f 200//200 197//197 155//155 
f 200//200 155//155 157//157 
f 156//156 159//159 157//157 
f 157//157 159//159 200//200 
f 152//152 161//161 104//104 
f 166//166 167//167 160//160 
f 163//163 158//158 150//150 
f 159//159 158//158 163//163 
f 133//133 145//145 176//176 
f 133//133 176//176 175//175 
f 198//198 197//197 200//200 
f 148//148 174//174 151//151 
f 200//200 159//159 199//199 
f 163//163 164//164 165//165 
f 163//163 150//150 164//164 
f 145//145 174//174 176//176 
f 200//200 168//168 198//198 
f 167//167 166//166 162//162 
f 198//198 168//168 201//201 
f 169//169 160//160 167//167 
f 201//201 168//168 170//170 
f 169//169 167//167 202//202 
f 200//200 203//203 168//168 
f 202//202 171//171 169//169 
f 169//169 171//171 160//160 
f 202//202 172//172 171//171 
f 200//200 209//209 207//207 
f 174//174 145//145 151//151 
f 171//171 148//148 160//160 
f 207//207 203//203 200//200 
f 173//173 171//171 172//172 
f 171//171 173//173 148//148 
f 148//148 173//173 174//174 
f 204//204 208//208 205//205 
f 205//205 208//208 206//206 
f 175//175 176//176 165//165 
