#
# Compatibility version : 4.3
# File ID : FJ4267
# Representation ID : BP29406
# Build-up logic : FMA 3.0 is_a
# Concept ID : FMA7015
# English name : Trunk of left eighth cervical nerve
# Bounds(mm): (1.285000,-80.344800,1353.320400)-(46.413900,-60.296300,1377.371900)
# Volume(cm3): 0.513700
#
v 2.14326 -68.1083 1371.92
v 1.60596 -68.0862 1372.79
v 1.87822 -68.4044 1372.45
v 1.43748 -68.1151 1374.15
v 1.74497 -68.6772 1373.49
v 1.62943 -68.6831 1374.69
v 1.96388 -69.0089 1374.8
v 1.49516 -68.4041 1375.77
v 1.43389 -68.091 1375.95
v 1.55797 -68.4038 1376.29
v 1.55881 -68.0861 1376.57
v 1.69309 -68.7056 1375.94
v 1.66571 -68.3979 1376.63
v 1.72484 -68.0886 1376.9
v 1.8118 -68.693 1376.45
v 1.95701 -68.537 1376.89
v 2.11319 -69.0228 1375.88
v 2.12207 -68.7517 1376.72
v 2.11562 -68.2447 1377.2
v 1.58923 -67.515 1372.85
v 1.76909 -67.8132 1372.27
v 1.80288 -67.3591 1372.4
v 1.77198 -67.0504 1372.9
v 1.46783 -67.4936 1373.8
v 1.39725 -67.6596 1375.34
v 1.52375 -67.196 1375.36
v 1.4794 -67.5177 1376
v 1.64764 -67.5121 1376.59
v 1.79757 -66.9149 1375.98
v 1.84198 -67.5126 1376.91
v 1.9544 -67.1584 1376.73
v 1.96894 -67.8152 1377.17
v 1.965 -66.5182 1374.48
v 1.54472 -63.3015 1373.17
v 1.75149 -63.4575 1372.87
v 2.12224 -63.8591 1373.17
v 1.81026 -63.6754 1373.5
v 1.76461 -63.4427 1374.79
v 1.61141 -62.264 1371.97
v 1.80576 -62.8282 1372.04
v 1.84388 -62.2813 1371.73
v 2.09626 -63.1506 1372.06
v 2.10517 -62.8439 1371.82
v 1.31399 -62.6848 1373.37
v 1.36259 -62.2657 1372.57
v 1.31186 -62.0825 1373.2
v 1.41915 -62.9775 1373.01
v 1.51341 -62.5947 1372.29
v 1.57214 -63.1439 1372.71
v 1.74453 -63.1518 1372.41
v 1.37732 -62.2082 1374.43
v 1.45206 -63.1558 1374
v 1.43313 -62.8399 1374.67
v 1.72748 -62.8526 1375.82
v 1.67414 -62.2741 1376.07
v 1.83046 -62.0279 1376.46
v 2.13047 -63.1153 1376.1
v 2.08067 -62.538 1376.61
v 1.57689 -61.9437 1371.99
v 1.72683 -61.3618 1371.97
v 1.81661 -61.9372 1371.7
v 1.97328 -60.8889 1372.11
v 2.12001 -61.373 1371.57
v 2.10724 -61.058 1371.74
v 1.43982 -61.6463 1372.59
v 1.80811 -60.921 1372.6
v 1.72302 -61.1081 1374.03
v 1.82089 -61.3492 1375.71
v 2.12332 -60.7786 1374.94
v 1.76686 -61.6837 1376.12
v 2.01027 -61.359 1376.29
v 2.1227 -61.9751 1376.82
v 2.10037 -61.6585 1376.71
v 2.69737 -69.1693 1375.28
v 2.9698 -68.3613 1371.95
v 2.2619 -68.986 1373.24
v 2.54904 -68.7115 1372.3
v 3.05891 -68.7289 1372.37
v 3.05661 -69.0893 1373.33
v 2.75328 -68.8966 1376.53
v 3.36581 -68.53 1376.84
v 2.41972 -68.5519 1377.06
v 2.69421 -68.24 1377.26
v 2.25837 -67.6228 1371.81
v 2.38964 -66.8923 1372.18
v 2.592 -67.7878 1371.68
v 3.03988 -66.9422 1371.95
v 3.33357 -66.9278 1376.81
v 2.26595 -67.9491 1377.32
v 2.26757 -67.5166 1377.23
v 2.25588 -67.2052 1377.02
v 2.57345 -67.8094 1377.35
v 2.57698 -67.2004 1377.11
v 2.86455 -67.4997 1377.25
v 3.28903 -67.9351 1377.18
v 2.26831 -66.4524 1373.07
v 2.86717 -66.1802 1373.11
v 2.6831 -66.0465 1374.16
v 2.71623 -66.1767 1375.24
v 2.2827 -66.7195 1376.44
v 2.70462 -66.7814 1376.74
v 3.23708 -66.4777 1376.29
v 2.25049 -63.65 1372.56
v 2.83445 -64.0771 1373.19
v 2.82855 -63.7783 1372.57
v 2.48552 -64.076 1374.04
v 2.84126 -63.9562 1375
v 2.80062 -63.3487 1376.14
v 2.4122 -63.1615 1371.94
v 2.41688 -62.5636 1371.57
v 3.09645 -63.1344 1371.94
v 3.11039 -62.2479 1371.53
v 2.41575 -62.5521 1376.81
v 2.72039 -62.2508 1377
v 3.13852 -62.6208 1376.82
v 3.40948 -62.2653 1376.92
v 2.38934 -61.9554 1371.43
v 2.40754 -61.0554 1371.61
v 2.72347 -61.3796 1371.46
v 2.84763 -60.8251 1371.85
v 3.45925 -61.6713 1371.58
v 2.41646 -61.9714 1376.99
v 2.40512 -61.6605 1376.92
v 2.39038 -61.3764 1376.71
v 2.43561 -60.859 1375.85
v 2.7319 -61.8102 1377
v 2.72717 -61.3556 1376.76
v 2.40944 -60.7152 1371.97
v 2.29077 -60.5669 1372.46
v 3.15664 -60.5081 1372.46
v 3.19768 -60.3573 1373.27
v 2.38276 -60.4584 1373.74
v 2.69994 -60.4976 1374.89
v 3.42395 -60.5882 1375.18
v 3.52003 -67.5262 1371.81
v 3.61058 -67.4676 1377.04
v 3.69867 -66.5922 1372.35
v 3.61474 -65.9614 1373.77
v 3.61383 -61.3518 1371.72
v 3.61213 -61.5448 1376.71
v 3.56143 -60.9626 1376.09
v 5.28758 -68.4822 1372.84
v 5.24781 -68.8745 1375.3
v 5.10578 -67.1927 1372.32
v 5.36781 -67.831 1372.39
v 4.79627 -66.7639 1372.48
v 5.57421 -66.2665 1373.29
v 4.76574 -63.7565 1372.82
v 5.00059 -64.1818 1373.39
v 5.50713 -62.1112 1372.24
v 5.56166 -62.7604 1372.34
v 5.44852 -63.1635 1376.19
v 6.53925 -68.6147 1373.16
v 6.71481 -68.2068 1372.66
v 5.95012 -68.9391 1374.01
v 6.406 -67.2397 1372.38
v 6.11206 -67.9976 1376
v 6.14444 -67.3965 1376.16
v 6.69266 -66.7629 1372.58
v 6.01536 -66.7833 1375.98
v 5.7778 -64.5251 1374.31
v 6.45416 -64.2045 1373.11
v 5.72527 -63.9963 1375.55
v 6.69552 -62.629 1372.41
v 5.79895 -62.5411 1376.25
v 5.88372 -61.6549 1372.44
v 6.74723 -61.2068 1373.07
v 6.00504 -60.7824 1374.32
v 6.16034 -60.8135 1373.76
v 6.3172 -60.8738 1373.56
v 6.45688 -60.8042 1373.91
v 5.89951 -60.849 1374.71
v 6.21467 -61.2111 1375.33
v 6.75111 -61.7975 1375.77
v 5.87049 -61.9489 1376.07
v 6.75458 -60.7745 1373.77
v 6.87152 -60.6428 1374.08
v 6.49407 -60.738 1374.67
v 6.94223 -60.7641 1374.98
v 7.20578 -68.8882 1374.38
v 7.32286 -68.8927 1373.9
v 7.95692 -65.3919 1374.41
v 8.03477 -64.3855 1375.66
v 7.72177 -63.4447 1376
v 7.34046 -62.516 1376
v 7.36352 -61.954 1372.6
v 7.22226 -60.8018 1373.61
v 7.46798 -61.385 1375.66
v 8.029 -61.028 1375.21
v 7.36117 -60.6152 1374.51
v 7.54138 -60.656 1374.03
v 8.69411 -68.4861 1372.58
v 9.11174 -69.0567 1373.78
v 8.50432 -68.4725 1375.3
v 9.08832 -67.8305 1372.04
v 9.10033 -67.9976 1375.71
v 8.58163 -67.3623 1375.9
v 8.55416 -66.1545 1373.27
v 8.67956 -66.0045 1373.31
v 8.87345 -66.2909 1372.91
v 9.01431 -66.1032 1372.88
v 8.60139 -66.0045 1374.36
v 8.9883 -66.0045 1374.81
v 8.98282 -66.6287 1375.58
v 8.51386 -66.1773 1374.93
v 8.89461 -64.6622 1372.27
v 9.37442 -65.3048 1375.52
v 8.76701 -64.3505 1375.9
v 8.71194 -63.4181 1376.13
v 8.74864 -62.2841 1372.51
v 8.51791 -61.2873 1373.2
v 8.54213 -60.9198 1374.09
v 8.56754 -61.8889 1375.82
v 10.2254 -68.4372 1371.95
v 10.48 -68.1432 1371.77
v 10.4637 -69.0376 1372.38
v 10.298 -67.2319 1371.97
v 10.7242 -67.0781 1371.92
v 10.4577 -67.233 1375.61
v 9.75548 -66.6045 1372.41
v 9.90417 -66.7545 1372.28
v 9.88599 -66.5409 1372.26
v 9.45417 -66.3045 1375.1
v 9.4714 -66.1438 1375.1
v 9.90417 -66.3045 1375.24
v 10.0542 -66.6045 1375.31
v 10.5332 -65.3132 1375.63
v 10.3463 -64.0162 1372.19
v 9.89911 -64.1803 1376
v 9.75022 -62.1235 1372.88
v 10.3564 -63.1484 1372.48
v 10.022 -62.1269 1375.26
v 10.145 -63.1532 1375.85
v 9.87831 -61.6843 1373.73
v 9.64279 -61.5195 1374.63
v 11.5371 -68.4352 1375.5
v 11.7802 -64.652 1372.46
v 11.1505 -64.1019 1372.44
v 11.4949 -63.621 1373
v 11.8092 -63.5206 1374.33
v 11.251 -64.2037 1375.52
v 10.7613 -62.742 1373.04
v 11.2948 -62.8653 1373.89
v 10.8174 -63.1688 1375.48
v 11.0686 -62.7326 1374.7
v 13.0204 -69.4911 1371.27
v 12.2965 -69.5379 1374.84
v 12.4662 -68.6276 1371.29
v 11.8145 -66.8788 1371.56
v 12.1542 -67.8045 1375.3
v 12.6072 -67.6408 1375.18
v 12.9609 -66.2289 1371.96
v 12.6865 -66.4405 1375.11
v 12.4084 -64.663 1373.42
v 12.4852 -64.7777 1374.07
v 12.472 -65.1755 1374.68
v 11.8136 -64.0257 1374.95
v 13.8793 -70.5045 1371.79
v 13.6985 -70.416 1373.81
v 13.3925 -68.5659 1375.09
v 13.6282 -66.0031 1373.17
v 14.6894 -69.4645 1370.58
v 15.2598 -70.1922 1374.33
v 15.1696 -68.9881 1370.59
v 16.6981 -71.6409 1371.43
v 15.6882 -69.8498 1374.39
v 15.8289 -69.2315 1374.28
v 16.0698 -68.7361 1370.79
v 17.1375 -70.8253 1369.73
v 17.4649 -69.8518 1369.7
v 17.6171 -68.8987 1370.97
v 17.8283 -68.8475 1371.82
v 16.564 -68.9958 1373.72
v 19.4377 -72.2414 1369.26
v 18.5083 -70.9552 1373.28
v 18.8162 -71.5988 1372.79
v 19.4499 -69.8508 1372.28
v 17.8932 -70.2301 1373.58
v 19.7103 -70.5062 1372.71
v 21.3715 -72.4276 1367.88
v 20.6467 -71.1495 1372.39
v 22.148 -73.1361 1370.58
v 21.8349 -71.1021 1367.8
v 21.3115 -70.5398 1368.47
v 22.7626 -72.2684 1367.01
v 25.1507 -73.4371 1369.93
v 24.3537 -72.7582 1370.56
v 24.8222 -71.8846 1370.15
v 24.975 -72.3401 1370.28
v 28.2931 -73.548 1364.27
v 27.6238 -72.5011 1365.27
v 28.4917 -72.3555 1365.58
v 29.4565 -73.2609 1363.86
v 30.6937 -74.2302 1363
v 30.4097 -72.8625 1364.72
v 30.4082 -73.2939 1366.96
v 30.219 -73.0104 1366.62
v 29.3853 -72.5852 1365.83
v 31.3627 -75.8238 1362.9
v 31.6824 -75.6161 1362.51
v 31.4935 -76.101 1363.13
v 31.5312 -74.9804 1362.46
v 30.7732 -74.4577 1367.33
v 31.361 -74.2073 1366.96
v 32.1416 -73.6904 1361.76
v 31.8247 -73.3074 1363.87
v 31.6279 -73.3396 1364.3
v 31.7498 -76.3427 1363.35
v 31.5057 -76.3752 1363.99
v 32.3801 -76.5779 1363.26
v 32.533 -76.6784 1363.59
v 32.5588 -76.5502 1363.28
v 32.1215 -76.4844 1364.78
v 32.8529 -76.6193 1363.9
v 33.2828 -76.4931 1364.88
v 32.7297 -76.3904 1365.27
v 32.2341 -76.0383 1362.49
v 32.2337 -75.6169 1362.24
v 32.4129 -75.8999 1362.52
v 32.2223 -76.3346 1362.83
v 32.4078 -76.297 1362.83
v 32.7 -76.2978 1363.27
v 32.7992 -75.9954 1363.32
v 32.7132 -76.0017 1365.79
v 32.3946 -75.1482 1362.2
v 32.4042 -74.7045 1362.21
v 32.5478 -74.7133 1362.27
v 32.5542 -74.4502 1362.06
v 32.7171 -74.7045 1362.51
v 32.8542 -74.4948 1362.21
v 33.3772 -74.1109 1362.54
v 33.0094 -74.3774 1362.97
v 33.0804 -74.2545 1362.66
v 33.1195 -74.0996 1362.8
v 33.0717 -74.1148 1362.95
v 33.0991 -74.096 1363.12
v 32.3858 -73.0544 1362.18
v 32.8004 -73.7752 1363.4
v 32.8572 -73.6603 1363.12
v 33.0811 -73.9616 1362.96
v 33.0016 -73.8817 1363.11
v 33.0216 -73.898 1363.3
v 33.0733 -73.808 1362.94
v 33.2539 -73.9593 1362.74
v 33.0168 -73.7717 1363.9
v 32.4527 -73.5634 1364.51
v 32.612 -73.641 1364.81
v 33.4334 -76.3366 1365.21
v 33.4999 -76.1185 1364.92
v 33.6074 -76.1334 1365.22
v 33.6883 -75.886 1365.51
v 33.0598 -75.452 1366.05
v 33.4278 -75.2432 1365.93
v 33.8092 -75.5976 1365.34
v 33.8843 -75.4488 1365.5
v 33.812 -75.4456 1365.66
v 33.4608 -74.1127 1363.94
v 33.6653 -74.3405 1364.44
v 33.6557 -74.1204 1364.47
v 33.5951 -74.0432 1364.61
v 33.4165 -74.0554 1364.99
v 33.7398 -74.2419 1364.9
v 33.6858 -75.1214 1365.77
v 33.6485 -74.8515 1365.71
v 33.8723 -74.8675 1365.51
v 33.8707 -74.7681 1365.06
v 33.5904 -74.648 1365.62
v 33.8703 -74.5294 1365.03
v 33.6788 -74.3779 1365.25
v 33.9183 -75.1596 1365.52
v 33.9316 -75.0195 1365.36
v 33.8903 -74.7084 1365.35
v 33.5159 -73.6711 1362.51
v 33.4634 -73.1688 1361.97
v 34.4005 -73.5256 1361.55
v 33.4214 -73.9096 1364.32
v 33.3454 -73.921 1364.68
v 35.0777 -74.6354 1360.57
v 35.3653 -74.2358 1360.75
v 37.6591 -73.6443 1357.43
v 37.754 -73.7641 1357.92
v 38.9782 -75.2371 1356.57
v 38.8723 -75.3946 1356.18
v 38.6387 -74.874 1355.59
v 38.7894 -74.5183 1355.41
v 38.3895 -74.7001 1357.61
v 38.6786 -74.3644 1357.4
v 38.317 -73.9073 1356.3
v 40.1245 -75.7439 1355.2
v 40.2735 -75.7275 1354.65
v 40.3104 -75.1266 1354.25
v 39.6423 -74.4123 1354.86
v 39.8242 -74.0791 1355.38
v 40.3173 -74.3184 1354.75
v 39.9253 -74.8861 1356.23
v 40.1538 -74.2056 1355.53
v 40.8089 -75.7632 1354.14
v 41.532 -75.5885 1353.66
v 40.8811 -76.109 1354.56
v 41.5092 -76.1973 1355.01
v 41.565 -75.7417 1355.2
v 40.618 -75.4486 1355.61
v 41.0868 -74.8641 1354.03
v 40.6701 -74.3367 1354.85
v 41.1777 -74.571 1354.83
v 41.2306 -74.6433 1354.28
v 41.7371 -75.0428 1354.88
v 41.6814 -74.783 1354.27
v 40.514 -74.7156 1355.74
v 42.415 -77.1157 1353.98
v 42.9843 -76.8889 1353.4
v 42.2302 -76.9284 1354.56
v 42.4403 -76.6341 1354.89
v 42.879 -77.6048 1354.3
v 42.9985 -77.3391 1354.76
v 41.9595 -76.1747 1353.6
v 42.1342 -75.3171 1353.65
v 42.3207 -75.9271 1353.42
v 42.4744 -75.4037 1353.66
v 42.6342 -75.3198 1354.1
v 42.7517 -75.7781 1353.47
v 42.4787 -75.2994 1354.42
v 42.7346 -76.0813 1354.82
v 41.8252 -74.9507 1353.97
v 42.3034 -75.1418 1353.95
v 42.258 -75.0839 1354.27
v 43.0884 -76.5446 1353.34
v 43.2857 -77.0369 1354.88
v 43.7512 -76.9215 1354.75
v 43.9009 -76.5279 1354.26
v 43.0511 -75.7551 1353.68
v 43.4259 -76.4501 1353.44
v 43.3449 -75.8999 1353.97
v 43.8376 -76.4558 1353.82
v 43.1858 -75.9575 1354.44
v 43.1244 -75.761 1354.25
v 44.5464 -78.9951 1353.7
v 45.2102 -79.7625 1353.82
v 44.7645 -79.548 1354.26
v 44.818 -79.2824 1354.86
v 44.8904 -78.806 1355.06
v 45.4344 -79.948 1354.67
v 44.7597 -78.6168 1353.48
v 44.847 -77.6851 1353.96
v 44.9684 -78.1169 1353.67
v 45.3149 -78.2238 1353.95
v 44.8203 -77.8004 1354.67
v 45.0764 -78.6664 1355.04
v 45.1312 -77.9594 1354.36
v 45.459 -80.0995 1354.11
v 45.7351 -80.1576 1353.81
v 45.8923 -80.2927 1353.97
v 45.9027 -80.2042 1353.8
v 46.056 -80.2723 1353.95
v 46.0546 -80.3352 1354.12
v 46.2251 -80.2308 1354.11
v 45.7478 -80.2725 1354.27
v 45.909 -80.3346 1354.26
v 45.8939 -80.2478 1354.55
v 46.0486 -80.3211 1354.4
v 46.0601 -80.2302 1354.58
v 46.1983 -80.2614 1354.4
v 46.2861 -80.0943 1354.56
v 46.3459 -80.0848 1354.4
v 45.5785 -79.1727 1353.42
v 45.7162 -79.7673 1353.49
v 45.8969 -79.4971 1353.44
v 45.8824 -79.0445 1353.61
v 46.0443 -79.9639 1353.61
v 46.0516 -79.7857 1353.55
v 46.0487 -79.497 1353.54
v 46.245 -79.9505 1353.81
v 46.2444 -79.5118 1353.81
v 46.238 -79.2009 1354.1
v 46.3811 -79.8086 1354.11
v 46.3543 -79.5064 1354.12
v 45.725 -79.4726 1355.04
v 45.8657 -79.9351 1354.89
v 45.9394 -79.0978 1354.84
v 46.047 -78.8903 1354.42
v 46.1823 -79.8373 1354.84
v 46.332 -79.8005 1354.69
v 46.297 -79.4856 1354.69
v 46.1875 -79.5132 1354.86
v 46.4018 -79.6599 1354.41
v 46.3402 -79.3939 1354.4
v 45.9169 -78.7389 1354.1
v 2.592 -67.7878 1371.68
v 6.45416 -64.2045 1373.11
v 7.95692 -65.3919 1374.41
v 8.55416 -66.1545 1373.27
v 8.55416 -66.1545 1373.27
v 8.67956 -66.0045 1373.31
v 8.67956 -66.0045 1373.31
v 8.67956 -66.0045 1373.31
v 8.67956 -66.0045 1373.31
v 8.87345 -66.2909 1372.91
v 9.01431 -66.1032 1372.88
v 8.60139 -66.0045 1374.36
v 8.60139 -66.0045 1374.36
v 8.9883 -66.0045 1374.81
v 8.9883 -66.0045 1374.81
v 8.9883 -66.0045 1374.81
v 8.51386 -66.1773 1374.93
v 8.51386 -66.1773 1374.93
v 8.89461 -64.6622 1372.27
v 9.75548 -66.6045 1372.41
v 9.75548 -66.6045 1372.41
v 9.45417 -66.3045 1375.1
v 9.4714 -66.1438 1375.1
v 9.90417 -66.3045 1375.24
v 9.90417 -66.3045 1375.24
v 10.0542 -66.6045 1375.31
v 12.1542 -67.8045 1375.3
v 12.472 -65.1755 1374.68
v 16.0698 -68.7361 1370.79
v 17.6171 -68.8987 1370.97
v 27.6238 -72.5011 1365.27
v 27.6238 -72.5011 1365.27
v 32.1416 -73.6904 1361.76
v 32.3801 -76.5779 1363.26
v 32.533 -76.6784 1363.59
v 32.5588 -76.5502 1363.28
v 32.8529 -76.6193 1363.9
v 32.8529 -76.6193 1363.9
v 33.2828 -76.4931 1364.88
v 32.2341 -76.0383 1362.49
v 32.2337 -75.6169 1362.24
v 32.2223 -76.3346 1362.83
v 32.3946 -75.1482 1362.2
v 32.3946 -75.1482 1362.2
v 32.4042 -74.7045 1362.21
v 32.4042 -74.7045 1362.21
v 32.4042 -74.7045 1362.21
v 32.5478 -74.7133 1362.27
v 32.5478 -74.7133 1362.27
v 32.5542 -74.4502 1362.06
v 32.5542 -74.4502 1362.06
v 32.5542 -74.4502 1362.06
v 32.5542 -74.4502 1362.06
v 32.7171 -74.7045 1362.51
v 32.8542 -74.4948 1362.21
v 32.8542 -74.4948 1362.21
v 33.0991 -74.096 1363.12
v 32.3858 -73.0544 1362.18
v 32.8004 -73.7752 1363.4
v 33.0016 -73.8817 1363.11
v 33.4334 -76.3366 1365.21
v 33.4334 -76.3366 1365.21
v 33.6883 -75.886 1365.51
v 33.4608 -74.1127 1363.94
v 33.8903 -74.7084 1365.35
v 38.9782 -75.2371 1356.57
v 38.8723 -75.3946 1356.18
v 38.3895 -74.7001 1357.61
v 40.1245 -75.7439 1355.2
v 41.5092 -76.1973 1355.01
v 40.618 -75.4486 1355.61
v 45.5785 -79.1727 1353.42
vn -0.462657 -0.392588 -0.794873
vn -0.953257 -0.198297 -0.227988
vn -0.691828 -0.579348 -0.430963
vn -0.978085 -0.199669 -0.0590147
vn -0.776288 -0.610744 -0.156106
vn -0.832589 -0.55324 -0.0268626
vn -0.505017 -0.862848 -0.0212168
vn -0.927685 -0.370544 0.0457947
vn -0.989916 -0.0960467 0.104122
vn -0.897235 -0.393653 0.200018
vn -0.947545 -0.0545378 0.314936
vn -0.738857 -0.666554 0.0989731
vn -0.812173 -0.408669 0.41637
vn -0.801812 -0.100765 0.58902
vn -0.641859 -0.705024 0.301594
vn -0.53843 -0.585524 0.606016
vn -0.338019 -0.923708 0.180294
vn -0.279426 -0.845979 0.454137
vn -0.39839 -0.360813 0.843267
vn -0.950288 0.187619 -0.248501
vn -0.84922 -0.0319299 -0.527074
vn -0.777891 0.385064 -0.496599
vn -0.804667 0.540882 -0.244862
vn -0.968725 0.234499 -0.0811347
vn -0.993928 0.107647 0.0227942
vn -0.904731 0.423392 0.0469164
vn -0.952503 0.246696 0.178548
vn -0.864148 0.323012 0.385891
vn -0.726244 0.64998 0.223818
vn -0.689424 0.367874 0.62399
vn -0.639794 0.599262 0.481195
vn -0.599088 0.0974894 0.794726
vn -0.719189 0.69481 0.0024013
vn -0.837645 -0.530666 -0.129402
vn -0.665553 -0.680209 -0.307173
vn -0.455992 -0.863392 -0.215929
vn -0.689777 -0.723622 -0.024046
vn -0.692253 -0.683384 0.231888
vn -0.810708 -0.167675 -0.560925
vn -0.654982 -0.421617 -0.627087
vn -0.536801 -0.253629 -0.804685
vn -0.445989 -0.621674 -0.643906
vn -0.403515 -0.462883 -0.789249
vn -0.992052 -0.125632 -0.00696172
vn -0.970195 -0.0494894 -0.237217
vn -0.987045 0.160446 0.000388144
vn -0.937185 -0.310102 -0.159753
vn -0.859588 -0.30611 -0.409151
vn -0.822254 -0.473453 -0.315817
vn -0.661971 -0.571078 -0.485453
vn -0.98169 0.150548 0.11671
vn -0.902703 -0.427629 0.0475443
vn -0.959598 -0.228119 0.164724
vn -0.824916 -0.426494 0.370968
vn -0.94321 -0.0843361 0.321314
vn -0.856165 0.0297322 0.515846
vn -0.484742 -0.711549 0.508648
vn -0.69016 -0.367323 0.623501
vn -0.885098 0.0821315 -0.458101
vn -0.803364 0.357675 -0.476104
vn -0.652707 0.0185425 -0.757383
vn -0.627669 0.689158 -0.362067
vn -0.431064 0.254293 -0.865748
vn -0.514055 0.562378 -0.647672
vn -0.944524 0.293777 -0.146865
vn -0.767938 0.633166 -0.0968052
vn -0.857134 0.510447 0.0690273
vn -0.818412 0.540877 0.194044
vn -0.604193 0.778967 0.167813
vn -0.907493 0.291189 0.302764
vn -0.685042 0.609347 0.399266
vn -0.612008 -0.0242972 0.790479
vn -0.695289 0.373193 0.614248
vn -0.0394335 -0.997461 0.0592953
vn 0.106173 -0.549829 -0.828502
vn -0.34244 -0.917001 -0.204559
vn -0.18571 -0.823041 -0.536764
vn 0.125288 -0.854423 -0.504246
vn -0.00130648 -0.97481 -0.223031
vn 0.0568398 -0.914085 0.40152
vn 0.271294 -0.662992 0.69774
vn -0.0569994 -0.70046 0.711412
vn 0.0949774 -0.386555 0.917363
vn -0.500699 0.250067 -0.828714
vn -0.461229 0.668902 -0.582956
vn -0.1094 -0.312337 -0.943651
vn -0.0281013 0.556102 -0.830639
vn 0.156981 0.619568 0.769085
vn -0.241468 -0.0517524 0.969028
vn -0.289509 0.371332 0.882211
vn -0.387767 0.617835 0.684044
vn 0.0481152 0.0585831 0.997122
vn -0.0556042 0.569403 0.820176
vn 0.136347 0.329487 0.934263
vn 0.305936 -0.14894 0.94033
vn -0.556142 0.789494 -0.259625
vn -0.178314 0.900985 -0.395512
vn -0.345437 0.937685 -0.0376912
vn -0.260223 0.944278 0.201551
vn -0.382697 0.820953 0.423768
vn -0.105212 0.766026 0.63414
vn 0.0148894 0.852056 0.523239
vn -0.359645 -0.789891 -0.496718
vn -0.150906 -0.943898 -0.29374
vn -0.0234061 -0.804421 -0.593598
vn -0.361233 -0.929852 0.0698969
vn -0.265385 -0.897467 0.352312
vn -0.158316 -0.767648 0.62101
vn -0.149682 -0.643602 -0.750581
vn -0.132963 -0.381991 -0.914551
vn 0.118356 -0.563716 -0.817445
vn 0.18019 -0.189157 -0.965273
vn -0.308726 -0.486545 0.81729
vn -0.0361707 -0.232407 0.971946
vn 0.0335985 -0.53167 0.846285
vn 0.198119 -0.0947395 0.975589
vn -0.211013 -0.0743841 -0.974649
vn -0.139144 0.555749 -0.819623
vn 0.0892731 0.26287 -0.960692
vn 0.170565 0.691487 -0.701963
vn 0.274723 0.121206 -0.953853
vn -0.298329 -0.0358361 0.95379
vn -0.315024 0.377762 0.870664
vn -0.371651 0.684957 0.626666
vn -0.300593 0.876091 0.376972
vn 0.0572321 0.230323 0.97143
vn 0.00859638 0.686305 0.727263
vn -0.205487 0.82858 -0.520798
vn -0.338074 0.921784 -0.189789
vn 0.105095 0.928242 -0.356821
vn 0.0479396 0.997958 -0.0422078
vn -0.459857 0.887268 0.0358765
vn -0.178558 0.967084 0.181287
vn 0.080785 0.964045 0.253161
vn 0.212437 0.0166329 -0.977033
vn 0.274496 0.297251 0.914491
vn 0.106018 0.761975 -0.638869
vn 0.00737007 0.987708 -0.156137
vn 0.287327 0.437471 -0.852093
vn 0.258186 0.465121 0.84676
vn 0.13509 0.855623 0.499661
vn 0.169066 -0.756895 -0.63129
vn 0.151256 -0.919644 0.362459
vn 0.172788 0.296071 -0.939407
vn 0.157527 -0.379333 -0.911752
vn 0.104049 0.579576 -0.808248
vn -0.00385191 0.921005 -0.389532
vn 0.0645905 -0.680783 -0.729632
vn -0.0245211 -0.889383 -0.456505
vn 0.225461 0.0263138 -0.973897
vn 0.158027 -0.361856 -0.918742
vn 0.0761169 -0.39236 0.916657
vn -0.0346455 -0.857592 -0.513162
vn -0.0819196 -0.55181 -0.829937
vn 0.0701293 -0.982376 -0.173261
vn -0.0164442 0.0959185 -0.995253
vn 0.220729 -0.53501 0.815501
vn 0.223639 -0.00721369 0.974645
vn -0.0439246 0.595281 -0.802316
vn 0.159257 0.549046 0.820479
vn -0.171642 -0.984792 -0.026906
vn -0.169537 -0.669729 -0.722994
vn -0.113568 -0.78591 0.607822
vn 0.0061628 -0.0800795 -0.996769
vn 0.20581 0.0684429 0.976195
vn 0.274257 0.374989 -0.885532
vn 0.153937 0.725174 -0.671138
vn 0.00829269 0.999893 0.0120605
vn 0.103718 0.987868 -0.115582
vn 0.0971126 0.956018 -0.276765
vn -0.109839 0.971932 -0.208049
vn 0.0155688 0.956562 0.291114
vn 0.0351938 0.745843 0.665192
vn 0.0484838 0.489419 0.8707
vn 0.231581 0.455147 0.859774
vn -0.108097 0.920438 -0.375645
vn -0.122135 0.98214 -0.143124
vn -0.164165 0.945937 0.279737
vn -0.0595848 0.858897 0.508671
vn 0.0238134 -0.989515 0.142451
vn -0.0404788 -0.987427 -0.152806
vn -0.487886 -0.752061 0.443139
vn -0.25049 -0.566082 0.78537
vn -0.0442526 -0.186696 0.981421
vn 0.0608194 0.221518 0.973258
vn 0.131269 0.383557 -0.91414
vn 0.0141345 0.883729 -0.467785
vn -0.00662027 0.54471 0.838599
vn 0.267652 0.820333 0.505387
vn 0.0855223 0.985024 0.149713
vn 0.143938 0.957439 -0.250184
vn -0.209911 -0.73543 -0.644267
vn -0.223125 -0.968294 -0.112346
vn -0.0334479 -0.841184 0.539713
vn -0.198193 -0.255194 -0.946359
vn 0.0367948 -0.436796 0.898808
vn 0.107281 0.0983128 0.989356
vn -0.0383145 0.964534 -0.261164
vn -0.363083 -0.532043 -0.764919
vn -0.0517734 0.864214 -0.500454
vn -0.557263 0.317452 -0.767256
vn -0.166901 0.978123 0.124176
vn -0.515857 -0.578454 0.631888
vn 0.105511 0.626347 0.772371
vn 0.0404282 0.996963 0.066561
vn -0.364928 -0.433773 -0.823813
vn -0.297425 -0.431802 0.85152
vn -0.137342 -0.356187 0.924266
vn 0.0108871 -0.00219554 0.999938
vn 0.079982 0.371008 -0.925179
vn 0.236579 0.784749 -0.572887
vn 0.358844 0.93222 -0.0468758
vn 0.190631 0.436085 0.879483
vn -0.320726 -0.48397 -0.814191
vn -0.244632 -0.0875121 -0.965659
vn -0.368284 -0.740009 -0.562808
vn -0.153374 0.280719 -0.947456
vn -0.332165 0.0282406 -0.942798
vn 0.207374 0.322675 0.923513
vn -0.073078 0.720855 -0.689222
vn -0.33757 0.272212 -0.901081
vn -0.576888 -0.203114 -0.791167
vn 0.0349257 0.751061 0.659308
vn -0.370557 0.0660799 0.926456
vn -0.29244 0.0783191 0.953071
vn 0.216927 0.546298 0.809012
vn 0.0936411 -0.178351 0.979501
vn 0.204899 0.323603 -0.923741
vn 0.154957 -0.107194 0.982088
vn 0.37087 0.641125 -0.671873
vn 0.370084 0.433552 -0.821627
vn 0.478194 0.637582 0.604003
vn 0.33235 0.271823 0.903137
vn 0.525794 0.806635 -0.269963
vn 0.538755 0.82012 0.192733
vn 0.125613 -0.201751 0.971348
vn 0.611867 0.553474 -0.565053
vn 0.435623 0.468694 -0.768478
vn 0.639086 0.523683 -0.563317
vn 0.835269 0.532346 0.137601
vn 0.47467 0.134683 0.869798
vn 0.579199 0.629113 -0.518407
vn 0.726021 0.674826 -0.132305
vn 0.58642 0.431116 0.685748
vn 0.694556 0.638322 0.331869
vn -0.394943 -0.413449 -0.820415
vn -0.0630427 -0.673521 0.736475
vn -0.261132 0.0150125 -0.965186
vn -0.0965444 0.17916 -0.979071
vn 0.258898 0.444437 0.857582
vn 0.274587 0.0664002 0.959267
vn 0.369184 0.626146 -0.686763
vn 0.482644 0.226028 0.846148
vn 0.76804 0.583672 -0.263518
vn 0.842757 0.50097 0.196954
vn 0.720604 0.411861 0.557764
vn 0.763915 0.400587 0.50593
vn -0.418884 -0.795377 -0.438077
vn -0.180526 -0.903524 0.388658
vn 0.271021 0.0640007 0.960443
vn 0.667873 0.736417 -0.107866
vn -0.296254 0.0437183 -0.954108
vn 0.0602443 -0.589447 0.805558
vn -0.0727346 0.427612 -0.901031
vn -0.326236 -0.944314 -0.0429141
vn 0.262299 -0.14773 0.953612
vn 0.399378 0.225896 0.88852
vn 0.00773917 0.584558 -0.811315
vn -0.435131 -0.224408 -0.871953
vn -0.224634 0.422578 -0.878048
vn 0.154161 0.569606 -0.807331
vn 0.440142 0.895174 0.0702715
vn 0.524407 0.541629 0.65699
vn -0.466101 -0.738334 -0.487455
vn 0.273247 -0.323482 0.905923
vn 0.0775666 -0.700502 0.709422
vn 0.462663 0.742078 0.48504
vn 0.397839 0.0978423 0.912223
vn 0.478281 0.424793 0.768634
vn -0.51072 -0.406129 -0.757776
vn 0.428024 0.0444207 0.902675
vn -0.0814209 -0.899593 0.429071
vn -0.214724 0.560381 -0.799917
vn -0.0609615 0.758924 -0.64832
vn -0.417443 0.091911 -0.904043
vn 0.181478 -0.629927 0.755154
vn 0.3429 -0.299573 0.890323
vn 0.501581 0.536764 0.678455
vn 0.483588 0.192279 0.853915
vn -0.35968 0.361639 -0.860144
vn -0.142012 0.765051 -0.628116
vn 0.164489 0.980035 -0.11169
vn -0.525134 0.160783 -0.835693
vn -0.467972 -0.0275987 -0.883312
vn 0.421159 0.859734 0.288933
vn 0.492513 0.687209 0.534017
vn 0.423317 0.853497 0.303884
vn 0.288806 0.956771 -0.0343542
vn -0.481192 -0.614812 -0.624869
vn -0.467936 -0.388604 -0.79374
vn -0.45575 -0.753335 -0.474108
vn -0.40063 0.0252927 -0.915891
vn 0.445825 -0.0578434 0.893249
vn 0.515531 0.32414 0.793197
vn -0.619847 -0.27382 -0.7354
vn 0.560828 0.674284 0.480429
vn 0.389555 0.914474 0.10947
vn -0.402566 -0.864513 -0.30093
vn -0.343688 -0.932408 -0.111777
vn -0.358351 -0.906086 -0.224928
vn -0.191854 -0.980761 0.0360585
vn 0.273682 -0.873955 -0.401623
vn -0.132178 -0.977479 0.164511
vn 0.000553689 -0.988359 0.152138
vn 0.0184662 -0.967989 0.250311
vn 0.0230386 -0.900984 0.43324
vn -0.432691 -0.577102 -0.692627
vn -0.377943 -0.212021 -0.901225
vn 0.695874 -0.360184 -0.62131
vn -0.425709 -0.76358 -0.485507
vn 0.441419 -0.667191 -0.600004
vn 0.832029 -0.33035 -0.445642
vn 0.884264 -0.213991 -0.415072
vn 0.177369 -0.70092 0.690834
vn -0.281738 0.0280058 -0.959083
vn -0.313334 0.151051 -0.937553
vn 0.379249 0.0152634 -0.925169
vn -0.52569 -0.53253 -0.663371
vn 0.863825 -0.313765 -0.394155
vn 0.137652 -0.840123 -0.524638
vn 0.587445 -0.497626 0.638183
vn 0.938104 -0.305811 -0.162604
vn 0.705762 -0.629817 0.324392
vn 0.778898 -0.400457 0.482651
vn 0.973695 -0.211602 0.0845186
vn 0.965969 -0.121788 -0.228193
vn -0.0170675 0.983285 -0.181271
vn 0.631129 0.683597 0.366567
vn 0.694837 0.458047 0.554431
vn 0.934129 0.00427502 0.356909
vn 0.870989 0.384563 0.30576
vn 0.661946 0.735082 -0.146566
vn 0.781119 0.13274 0.610109
vn 0.708448 -0.21112 0.673446
vn 0.402447 0.905157 -0.136845
vn 0.3159 0.948791 -0.00148666
vn 0.363655 0.923544 0.121741
vn 0.169372 -0.797729 0.578742
vn 0.87637 -0.321676 -0.35847
vn 0.867687 -0.492338 -0.0687229
vn 0.339073 -0.53427 0.774329
vn 0.361963 -0.391067 0.846197
vn 0.486225 -0.0597487 0.871789
vn 0.934299 -0.272928 -0.229339
vn 0.962083 -0.254625 0.097787
vn 0.687568 -0.207038 0.695978
vn 0.920043 -0.105205 -0.377429
vn 0.925518 -0.0602031 -0.373888
vn 0.879739 0.439338 -0.181773
vn 0.609403 0.783619 0.120701
vn 0.489658 0.801739 0.34271
vn 0.747735 0.634505 0.195693
vn 0.623193 0.127718 0.771569
vn 0.579485 0.352032 0.735031
vn 0.79442 0.285913 0.535865
vn 0.954923 -0.0865321 -0.283962
vn 0.570422 0.528772 0.628505
vn 0.962227 0.270591 -0.0299984
vn 0.631371 0.641318 0.435984
vn 0.911518 0.0219 0.410676
vn 0.998902 -0.0120576 -0.045272
vn 0.995877 0.0871253 0.0252797
vn 0.685682 0.178073 0.705783
vn 0.314903 0.925262 0.211484
vn 0.617158 0.527005 0.584279
vn 0.523057 0.850258 -0.0589229
vn 0.424062 0.885424 0.190251
vn 0.364705 -0.797185 0.48113
vn 0.654333 -0.276664 0.703779
vn 0.139294 0.990001 -0.0222693
vn 0.524128 0.741734 0.418474
vn 0.123821 -0.91583 0.381999
vn 0.0605889 -0.965159 0.254554
vn -0.638047 -0.456472 -0.620104
vn -0.6131 0.224593 -0.757407
vn 0.500284 -0.626462 0.597714
vn 0.699045 0.184541 0.690855
vn -0.326319 0.792906 -0.514603
vn -0.400905 -0.915614 -0.0304269
vn -0.541005 -0.755704 -0.369087
vn -0.52526 0.0125994 -0.850848
vn -0.382234 0.553438 -0.740002
vn 0.112552 0.979906 -0.164671
vn -0.0664468 0.8612 -0.503905
vn 0.573401 -0.302444 0.761405
vn 0.459195 0.838108 0.294473
vn -0.563427 -0.476991 -0.674559
vn -0.350273 0.0450378 -0.935564
vn -0.523242 -0.850474 -0.053958
vn -0.139898 -0.717389 0.682482
vn 0.322555 -0.0742511 0.943634
vn 0.00574316 -0.81574 0.57839
vn -0.16611 0.561783 -0.810437
vn 0.297014 0.949881 -0.0975143
vn 0.499223 0.827226 0.257824
vn 0.142001 0.875695 -0.461513
vn 0.542686 0.530778 0.650974
vn 0.381121 0.912423 -0.149105
vn 0.630685 0.210314 0.746997
vn -0.642591 -0.689144 -0.334899
vn -0.276813 -0.255328 -0.926381
vn -0.508057 -0.730285 0.456686
vn -0.0903688 -0.314114 0.945074
vn -0.674164 -0.684151 0.278282
vn -0.414242 -0.434964 0.799506
vn -0.454518 -0.360128 -0.814691
vn 0.0502927 0.559833 -0.827078
vn -0.16759 0.0664961 -0.983612
vn 0.324249 0.700273 -0.635988
vn 0.594016 0.804408 0.00858435
vn 0.218261 0.424853 -0.878557
vn 0.57485 0.717099 0.394102
vn 0.332213 0.25976 0.90673
vn 0.195593 0.808245 -0.555413
vn 0.415591 0.840835 -0.346814
vn 0.519023 0.849432 0.0952855
vn 0.0392889 0.0618347 -0.997313
vn 0.0171136 0.048412 0.998681
vn 0.380707 0.417856 0.824899
vn 0.702738 0.660663 0.263977
vn 0.54911 0.687175 -0.475678
vn 0.421896 0.358588 -0.832717
vn 0.682133 0.729814 -0.0454556
vn 0.718507 0.614243 -0.326273
vn 0.553959 0.573546 0.603469
vn 0.63653 0.706692 0.308893
vn -0.465637 -0.467713 -0.751283
vn -0.573855 -0.651458 -0.496279
vn -0.677329 -0.734408 0.0432527
vn -0.48134 -0.528319 0.699422
vn -0.165491 -0.126916 0.978011
vn -0.504085 -0.754485 0.420297
vn -0.0340736 -0.0513599 -0.998099
vn 0.73182 0.601627 -0.320131
vn 0.503543 0.458736 -0.732124
vn 0.672051 0.650088 -0.354589
vn 0.603582 0.599328 0.525828
vn 0.207542 0.241178 0.948029
vn 0.732088 0.678981 0.0550595
vn -0.560787 -0.819086 -0.120897
vn -0.408432 -0.751809 -0.517655
vn -0.231616 -0.931258 -0.28127
vn -0.0412813 -0.761513 -0.646834
vn 0.375221 -0.787638 -0.488707
vn 0.23638 -0.963798 -0.123362
vn 0.743563 -0.628095 -0.229369
vn -0.446805 -0.889152 0.0988649
vn -0.200215 -0.977521 0.0660805
vn -0.232508 -0.864688 0.445258
vn 0.118979 -0.959903 0.253832
vn 0.255898 -0.759052 0.598628
vn 0.561752 -0.803359 0.197609
vn 0.680856 -0.54396 0.490451
vn 0.922681 -0.374635 0.0911527
vn -0.133082 -0.146922 -0.980155
vn -0.181258 -0.41342 -0.892317
vn 0.3267 0.0450917 -0.944052
vn 0.62811 0.469855 -0.620253
vn 0.359704 -0.530473 -0.767601
vn 0.560972 -0.167156 -0.810783
vn 0.687366 0.16775 -0.706674
vn 0.793575 -0.311181 -0.522882
vn 0.864799 0.17354 -0.471175
vn 0.861636 0.459191 -0.216162
vn 0.967236 -0.106957 -0.230249
vn 0.95798 0.219299 -0.184883
vn 0.131917 -0.0661814 0.989049
vn -0.0851081 -0.565785 0.820149
vn 0.549098 0.451763 0.703137
vn 0.773961 0.593549 0.220645
vn 0.47464 -0.33182 0.815238
vn 0.881447 -0.108676 0.45961
vn 0.861498 0.320108 0.394148
vn 0.630834 0.148052 0.761662
vn 0.993903 0.0670467 0.0875334
vn 0.928674 0.362783 0.0771542
vn 0.735706 0.645704 -0.20446
vn -0.0542541 0.330202 -0.94235
vn -0.654972 -0.754672 0.038503
vn -0.320979 -0.853847 -0.409777
vn -0.488692 0.578569 -0.653022
vn -0.758727 0.648955 -0.0564886
vn -0.580332 0.501106 -0.641956
vn -0.625719 -0.778657 -0.0465858
vn -0.758727 0.648955 -0.0564886
vn -0.78142 -0.297888 -0.548311
vn -0.53929 0.409695 -0.735742
vn -0.723701 -0.319932 -0.611474
vn -0.645433 -0.738108 0.196504
vn -0.758727 0.648955 -0.0564886
vn -0.277685 0.93054 0.238717
vn -0.0482565 0.659816 0.749876
vn -0.500328 0.0687331 0.863103
vn 0.0364857 0.751077 0.659206
vn -0.226087 0.941499 0.249931
vn -0.461965 -0.172202 -0.87002
vn -0.427407 0.205109 -0.880485
vn -0.667794 -0.259768 -0.697547
vn -0.408851 0.0597537 0.910643
vn -0.493536 -0.439044 0.750775
vn -0.360513 -0.42441 0.830606
vn 0.183258 0.311312 0.932471
vn -0.302765 0.0642367 0.950898
vn 0.0895819 -0.0484855 0.994799
vn 0.553152 0.832432 -0.032874
vn 0.141099 0.910252 -0.389272
vn 0.187348 0.927631 -0.323113
vn -0.620699 -0.0512901 -0.782369
vn -0.381727 0.606401 -0.69754
vn -0.486914 0.578225 -0.654653
vn 0.173482 -0.861928 -0.476428
vn 0.315916 -0.888973 -0.331547
vn 0.76982 -0.442101 -0.460351
vn 0.445917 -0.84246 -0.302355
vn 0.830797 -0.415437 -0.370389
vn 0.850919 -0.468871 -0.236849
vn 0.381045 -0.593595 -0.708836
vn 0.568533 -0.370698 -0.734407
vn 0.144866 -0.792139 -0.592899
vn 0.758878 -0.227412 -0.610236
vn 0.379249 0.0152634 -0.925169
vn -0.462092 -0.255717 -0.849164
vn 0.379249 0.0152634 -0.925169
vn 0.265182 -0.617247 -0.740733
vn 0.265182 -0.617247 -0.740733
vn 0.772449 -0.318934 -0.549184
vn 0.265182 -0.617247 -0.740733
vn 0.733067 -0.443247 -0.515892
vn 0.137652 -0.840123 -0.524638
vn -0.14718 -0.989109 0.00070724
vn 0.137652 -0.840123 -0.524638
vn 0.0807967 -0.969202 0.232636
vn 0.787286 -0.612754 -0.0686491
vn 0.87429 0.482725 -0.0509315
vn -0.451174 0.605458 -0.655639
vn 0.393191 0.914583 -0.0945451
vn 0.492965 0.869747 0.0229489
vn 0.799861 -0.553643 -0.231737
vn 0.714016 -0.618073 0.328888
vn 0.87243 -0.452517 0.184647
vn 0.677165 0.684668 -0.269587
vn 0.683019 0.557782 0.471555
vn 0.480882 -0.547562 0.684784
vn -0.498915 -0.803892 -0.323793
vn 0.672895 -0.113385 0.730996
vn 0.0141267 -0.859778 0.510473
vn -0.167175 -0.687004 0.707162
vn 0.43795 -0.237298 0.867116
vn 0.290177 0.346217 -0.89215
g grp1
usemtl mtl1
f 3//3 2//2 21//21 
f 3//3 21//21 1//1 
f 5//5 4//4 2//2 
f 2//2 20//20 21//21 
f 3//3 5//5 2//2 
f 77//77 76//76 3//3 
f 3//3 76//76 5//5 
f 76//76 77//77 79//79 
f 5//5 6//6 4//4 
f 5//5 7//7 6//6 
f 8//8 9//9 4//4 
f 4//4 9//9 25//25 
f 7//7 12//12 6//6 
f 6//6 8//8 4//4 
f 12//12 8//8 6//6 
f 74//74 17//17 7//7 
f 5//5 76//76 7//7 
f 76//76 74//74 7//7 
f 8//8 10//10 9//9 
f 8//8 12//12 10//10 
f 10//10 11//11 9//9 
f 10//10 13//13 11//11 
f 12//12 15//15 10//10 
f 15//15 13//13 10//10 
f 13//13 14//14 11//11 
f 12//12 7//7 17//17 
f 15//15 16//16 13//13 
f 13//13 16//16 14//14 
f 17//17 15//15 12//12 
f 16//16 15//15 18//18 
f 18//18 15//15 17//17 
f 16//16 18//18 82//82 
f 74//74 80//80 17//17 
f 80//80 18//18 17//17 
f 80//80 82//82 18//18 
f 16//16 19//19 14//14 
f 19//19 16//16 82//82 
f 83//83 89//89 19//19 
f 21//21 22//22 84//84 
f 84//84 1//1 21//21 
f 87//87 84//84 85//85 
f 2//2 24//24 20//20 
f 20//20 24//24 23//23 
f 33//33 23//23 24//24 
f 23//23 33//33 96//96 
f 21//21 20//20 22//22 
f 20//20 23//23 22//22 
f 85//85 23//23 96//96 
f 84//84 22//22 85//85 
f 23//23 85//85 22//22 
f 2//2 4//4 24//24 
f 4//4 25//25 24//24 
f 24//24 25//25 26//26 
f 25//25 27//27 26//26 
f 25//25 9//9 27//27 
f 26//26 33//33 24//24 
f 26//26 27//27 29//29 
f 26//26 29//29 33//33 
f 9//9 11//11 27//27 
f 11//11 28//28 27//27 
f 11//11 14//14 28//28 
f 27//27 28//28 29//29 
f 14//14 32//32 30//30 
f 28//28 14//14 30//30 
f 31//31 29//29 28//28 
f 28//28 30//30 31//31 
f 30//30 91//91 31//31 
f 91//91 100//100 31//31 
f 31//31 100//100 29//29 
f 14//14 19//19 32//32 
f 19//19 89//89 32//32 
f 90//90 32//32 89//89 
f 30//30 32//32 90//90 
f 30//30 90//90 91//91 
f 33//33 98//98 96//96 
f 37//37 52//52 34//34 
f 48//48 50//50 49//49 
f 49//49 34//34 47//47 
f 35//35 34//34 49//49 
f 37//37 34//34 35//35 
f 35//35 103//103 36//36 
f 50//50 103//103 35//35 
f 37//37 35//35 36//36 
f 49//49 50//50 35//35 
f 37//37 36//36 106//106 
f 50//50 42//42 103//103 
f 36//36 104//104 106//106 
f 36//36 103//103 104//104 
f 37//37 38//38 52//52 
f 37//37 106//106 38//38 
f 57//57 54//54 38//38 
f 57//57 38//38 107//107 
f 106//106 107//107 38//38 
f 59//59 45//45 65//65 
f 39//39 41//41 40//40 
f 40//40 48//48 39//39 
f 61//61 41//41 39//39 
f 59//59 61//61 39//39 
f 45//45 59//59 39//39 
f 39//39 48//48 45//45 
f 42//42 50//50 40//40 
f 43//43 40//40 41//41 
f 41//41 61//61 117//117 
f 42//42 40//40 43//43 
f 110//110 43//43 41//41 
f 110//110 41//41 117//117 
f 45//45 44//44 46//46 
f 46//46 65//65 45//45 
f 44//44 51//51 46//46 
f 34//34 52//52 47//47 
f 48//48 47//47 45//45 
f 47//47 44//44 45//45 
f 44//44 47//47 52//52 
f 47//47 48//48 49//49 
f 40//40 50//50 48//48 
f 44//44 53//53 51//51 
f 46//46 51//51 67//67 
f 38//38 53//53 52//52 
f 52//52 53//53 44//44 
f 54//54 53//53 38//38 
f 53//53 55//55 51//51 
f 54//54 55//55 53//53 
f 58//58 56//56 55//55 
f 55//55 54//54 58//58 
f 56//56 58//58 72//72 
f 57//57 58//58 54//54 
f 66//66 60//60 65//65 
f 61//61 59//59 60//60 
f 59//59 65//65 60//60 
f 60//60 66//66 62//62 
f 63//63 117//117 61//61 
f 60//60 63//63 61//61 
f 63//63 60//60 64//64 
f 64//64 60//60 62//62 
f 63//63 64//64 118//118 
f 118//118 64//64 128//128 
f 64//64 62//62 128//128 
f 65//65 46//46 67//67 
f 65//65 67//67 66//66 
f 67//67 132//132 66//66 
f 55//55 70//70 51//51 
f 51//51 68//68 67//67 
f 70//70 68//68 51//51 
f 67//67 68//68 69//69 
f 69//69 68//68 125//125 
f 55//55 56//56 70//70 
f 70//70 71//71 68//68 
f 56//56 72//72 73//73 
f 56//56 73//73 70//70 
f 70//70 73//73 71//71 
f 71//71 125//125 68//68 
f 71//71 73//73 124//124 
f 125//125 71//71 124//124 
f 72//72 122//122 123//123 
f 73//73 72//72 123//123 
f 124//124 73//73 123//123 
f 62//62 66//66 129//129 
f 132//132 129//129 66//66 
f 132//132 67//67 69//69 
f 132//132 69//69 133//133 
f 133//133 69//69 125//125 
f 79//79 74//74 76//76 
f 77//77 3//3 1//1 
f 77//77 1//1 75//75 
f 78//78 77//77 75//75 
f 86//86 75//75 1//1 
f 78//78 75//75 142//142 
f 77//77 78//78 79//79 
f 78//78 155//155 79//79 
f 78//78 142//142 155//155 
f 81//81 82//82 80//80 
f 143//143 80//80 74//74 
f 19//19 82//82 83//83 
f 92//92 89//89 83//83 
f 82//82 81//81 83//83 
f 95//95 92//92 83//83 
f 83//83 81//81 95//95 
f 84//84 86//86 1//1 
f 85//85 97//97 87//87 
f 84//84 87//87 488//488 
f 87//87 135//135 488//488 
f 75//75 86//86 135//135 
f 144//144 135//135 87//87 
f 144//144 87//87 137//137 
f 100//100 101//101 102//102 
f 88//88 101//101 93//93 
f 88//88 102//102 101//101 
f 89//89 92//92 90//90 
f 94//94 90//90 92//92 
f 91//91 90//90 93//93 
f 93//93 90//90 94//94 
f 101//101 100//100 91//91 
f 93//93 101//101 91//91 
f 88//88 93//93 94//94 
f 94//94 92//92 95//95 
f 94//94 136//136 88//88 
f 160//160 88//88 136//136 
f 95//95 136//136 94//94 
f 97//97 85//85 96//96 
f 137//137 87//87 97//97 
f 98//98 97//97 96//96 
f 138//138 97//97 98//98 
f 138//138 137//137 97//97 
f 98//98 33//33 99//99 
f 33//33 29//29 99//99 
f 29//29 100//100 99//99 
f 99//99 100//100 102//102 
f 105//105 109//109 111//111 
f 109//109 110//110 111//111 
f 111//111 148//148 105//105 
f 151//151 148//148 111//111 
f 103//103 109//109 105//105 
f 109//109 103//103 42//42 
f 104//104 161//161 106//106 
f 105//105 104//104 103//103 
f 105//105 149//149 104//104 
f 149//149 105//105 148//148 
f 107//107 106//106 161//161 
f 161//161 163//163 107//107 
f 108//108 57//57 107//107 
f 57//57 108//108 113//113 
f 163//163 108//108 107//107 
f 113//113 108//108 115//115 
f 109//109 42//42 43//43 
f 110//110 117//117 112//112 
f 109//109 43//43 110//110 
f 112//112 117//117 119//119 
f 111//111 110//110 112//112 
f 57//57 113//113 58//58 
f 58//58 113//113 72//72 
f 72//72 113//113 122//122 
f 113//113 115//115 114//114 
f 114//114 122//122 113//113 
f 114//114 126//126 122//122 
f 116//116 126//126 114//114 
f 114//114 115//115 116//116 
f 165//165 140//140 116//116 
f 117//117 63//63 119//119 
f 119//119 63//63 118//118 
f 120//120 119//119 118//118 
f 120//120 118//118 128//128 
f 120//120 139//139 119//119 
f 121//121 112//112 119//119 
f 121//121 119//119 139//139 
f 150//150 112//112 121//121 
f 139//139 120//120 167//167 
f 126//126 123//123 122//122 
f 127//127 124//124 123//123 
f 124//124 127//127 125//125 
f 127//127 123//123 126//126 
f 140//140 126//126 116//116 
f 127//127 126//126 140//140 
f 140//140 141//141 127//127 
f 141//141 125//125 127//127 
f 141//141 134//134 125//125 
f 128//128 62//62 129//129 
f 130//130 120//120 128//128 
f 130//130 128//128 129//129 
f 131//131 130//130 129//129 
f 132//132 131//131 129//129 
f 132//132 133//133 131//131 
f 125//125 134//134 133//133 
f 131//131 133//133 134//134 
f 74//74 155//155 143//143 
f 145//145 142//142 75//75 
f 143//143 81//81 80//80 
f 81//81 157//157 95//95 
f 143//143 157//157 81//81 
f 157//157 158//158 95//95 
f 145//145 75//75 135//135 
f 160//160 102//102 88//88 
f 158//158 136//136 95//95 
f 158//158 160//160 136//136 
f 147//147 137//137 138//138 
f 146//146 137//137 147//147 
f 138//138 98//98 99//99 
f 138//138 99//99 205//205 
f 147//147 138//138 205//205 
f 102//102 205//205 99//99 
f 504//504 102//102 160//160 
f 115//115 108//108 163//163 
f 112//112 151//151 111//111 
f 116//116 115//115 152//152 
f 152//152 165//165 116//116 
f 130//130 167//167 120//120 
f 166//166 150//150 121//121 
f 139//139 166//166 121//121 
f 167//167 166//166 139//139 
f 173//173 141//141 140//140 
f 140//140 175//175 173//173 
f 131//131 170//170 130//130 
f 168//168 131//131 134//134 
f 153//153 155//155 142//142 
f 153//153 142//142 145//145 
f 79//79 155//155 74//74 
f 180//180 143//143 155//155 
f 157//157 143//143 194//194 
f 145//145 135//135 144//144 
f 146//146 144//144 137//137 
f 156//156 145//145 144//144 
f 156//156 144//144 146//146 
f 154//154 145//145 156//156 
f 146//146 147//147 159//159 
f 149//149 161//161 104//104 
f 162//162 149//149 148//148 
f 148//148 151//151 162//162 
f 115//115 163//163 152//152 
f 141//141 172//172 134//134 
f 165//165 175//175 140//140 
f 170//170 131//131 169//169 
f 168//168 134//134 172//172 
f 145//145 154//154 153//153 
f 156//156 195//195 154//154 
f 192//192 153//153 154//154 
f 181//181 180//180 155//155 
f 155//155 153//153 181//181 
f 180//180 194//194 143//143 
f 194//194 196//196 157//157 
f 146//146 159//159 156//156 
f 197//197 160//160 158//158 
f 204//204 504//504 160//160 
f 160//160 197//197 204//204 
f 182//182 163//163 161//161 
f 162//162 161//161 149//149 
f 163//163 183//183 152//152 
f 183//183 184//184 152//152 
f 150//150 151//151 112//112 
f 164//164 162//162 151//151 
f 164//164 151//151 150//150 
f 150//150 186//186 164//164 
f 184//184 165//165 152//152 
f 165//165 185//185 175//175 
f 184//184 185//185 165//165 
f 185//185 174//174 175//175 
f 130//130 170//170 167//167 
f 150//150 166//166 186//186 
f 167//167 186//186 166//166 
f 169//169 131//131 168//168 
f 171//171 168//168 177//177 
f 171//171 169//169 168//168 
f 172//172 177//177 168//168 
f 170//170 169//169 171//171 
f 170//170 171//171 176//176 
f 167//167 170//170 176//176 
f 173//173 172//172 141//141 
f 175//175 174//174 173//173 
f 188//188 173//173 174//174 
f 173//173 188//188 179//179 
f 177//177 172//172 178//178 
f 177//177 178//178 190//190 
f 177//177 176//176 171//171 
f 190//190 178//178 179//179 
f 172//172 173//173 178//178 
f 178//178 173//173 179//179 
f 192//192 193//193 153//153 
f 192//192 154//154 195//195 
f 193//193 181//181 153//153 
f 181//181 193//193 180//180 
f 217//217 195//195 156//156 
f 157//157 196//196 158//158 
f 147//147 505//505 202//202 
f 199//199 162//162 206//206 
f 162//162 490//490 161//161 
f 183//183 163//163 182//182 
f 203//203 183//183 182//182 
f 206//206 162//162 164//164 
f 209//209 184//184 208//208 
f 184//184 183//183 208//208 
f 186//186 210//210 164//164 
f 209//209 185//185 184//184 
f 211//211 167//167 187//187 
f 167//167 210//210 186//186 
f 210//210 167//167 211//211 
f 191//191 211//211 187//187 
f 188//188 174//174 185//185 
f 187//187 167//167 176//176 
f 176//176 177//177 187//187 
f 187//187 177//177 191//191 
f 177//177 190//190 191//191 
f 190//190 179//179 189//189 
f 188//188 189//189 179//179 
f 214//214 192//192 195//195 
f 193//193 194//194 180//180 
f 217//217 156//156 159//159 
f 196//196 197//197 158//158 
f 204//204 197//197 219//219 
f 219//219 197//197 236//236 
f 220//220 159//159 147//147 
f 200//200 147//147 198//198 
f 497//497 491//491 493//493 
f 497//497 493//493 201//201 
f 147//147 200//200 220//220 
f 507//507 497//497 201//201 
f 508//508 498//498 506//506 
f 489//489 499//499 182//182 
f 203//203 182//182 499//499 
f 198//198 147//147 202//202 
f 494//494 499//499 489//489 
f 500//500 495//495 492//492 
f 501//501 202//202 505//505 
f 502//502 504//504 223//223 
f 504//504 204//204 223//223 
f 509//509 224//224 503//503 
f 498//498 496//496 506//506 
f 207//207 183//183 203//203 
f 183//183 207//207 208//208 
f 207//207 203//203 510//510 
f 249//249 506//506 210//210 
f 506//506 164//164 210//210 
f 229//229 209//209 208//208 
f 230//230 210//210 211//211 
f 209//209 213//213 185//185 
f 230//230 211//211 234//234 
f 211//211 191//191 212//212 
f 212//212 191//191 190//190 
f 190//190 189//189 212//212 
f 234//234 211//211 212//212 
f 189//189 235//235 212//212 
f 213//213 189//189 188//188 
f 232//232 189//189 213//213 
f 185//185 213//213 188//188 
f 193//193 192//192 216//216 
f 195//195 215//215 214//214 
f 192//192 214//214 216//216 
f 215//215 195//195 217//217 
f 221//221 217//217 159//159 
f 217//217 221//221 218//218 
f 219//219 226//226 204//204 
f 221//221 222//222 218//218 
f 508//508 506//506 222//222 
f 222//222 506//506 218//218 
f 221//221 508//508 222//222 
f 221//221 159//159 220//220 
f 226//226 223//223 204//204 
f 224//224 509//509 513//513 
f 225//225 224//224 513//513 
f 510//510 511//511 207//207 
f 250//250 512//512 226//226 
f 511//511 514//514 207//207 
f 227//227 207//207 514//514 
f 227//227 208//208 207//207 
f 208//208 227//227 229//229 
f 228//228 210//210 231//231 
f 238//238 228//228 231//231 
f 233//233 244//244 232//232 
f 233//233 213//213 209//209 
f 229//229 233//233 209//209 
f 210//210 230//230 231//231 
f 242//242 231//231 230//230 
f 230//230 234//234 242//242 
f 242//242 234//234 243//243 
f 242//242 239//239 231//231 
f 245//245 235//235 232//232 
f 233//233 232//232 213//213 
f 234//234 212//212 235//235 
f 235//235 243//243 234//234 
f 232//232 235//235 189//189 
f 193//193 216//216 258//258 
f 194//194 193//193 259//259 
f 194//194 259//259 247//247 
f 248//248 215//215 217//217 
f 246//246 214//214 215//215 
f 246//246 215//215 248//248 
f 247//247 196//196 194//194 
f 196//196 236//236 197//197 
f 236//236 196//196 247//247 
f 218//218 506//506 249//249 
f 226//226 219//219 250//250 
f 514//514 219//219 236//236 
f 251//251 241//241 227//227 
f 241//241 251//251 253//253 
f 228//228 249//249 210//210 
f 238//238 252//252 228//228 
f 228//228 252//252 249//249 
f 238//238 237//237 252//252 
f 239//239 237//237 238//238 
f 241//241 229//229 227//227 
f 231//231 239//239 238//238 
f 241//241 233//233 229//229 
f 244//244 233//233 241//241 
f 241//241 257//257 244//244 
f 256//256 257//257 241//241 
f 243//243 239//239 242//242 
f 243//243 235//235 245//245 
f 254//254 239//239 243//243 
f 243//243 240//240 254//254 
f 245//245 240//240 243//243 
f 244//244 245//245 232//232 
f 244//244 257//257 245//245 
f 240//240 245//245 257//257 
f 246//246 216//216 214//214 
f 265//265 259//259 193//193 
f 263//263 236//236 247//247 
f 218//218 248//248 217//217 
f 260//260 251//251 514//514 
f 260//260 514//514 236//236 
f 266//266 260//260 236//236 
f 251//251 227//227 514//514 
f 252//252 264//264 249//249 
f 241//241 253//253 256//256 
f 254//254 261//261 252//252 
f 237//237 254//254 252//252 
f 255//255 257//257 256//256 
f 254//254 255//255 261//261 
f 237//237 239//239 254//254 
f 255//255 254//254 240//240 
f 257//257 255//255 240//240 
f 193//193 258//258 265//265 
f 258//258 246//246 274//274 
f 262//262 246//246 248//248 
f 218//218 262//262 248//248 
f 258//258 216//216 246//246 
f 263//263 247//247 259//259 
f 267//267 260//260 266//266 
f 267//267 251//251 260//260 
f 252//252 268//268 264//264 
f 251//251 267//267 253//253 
f 256//256 261//261 255//255 
f 259//259 276//276 263//263 
f 262//262 269//269 246//246 
f 266//266 236//236 263//263 
f 262//262 218//218 249//249 
f 262//262 249//249 264//264 
f 272//272 261//261 515//515 
f 256//256 253//253 273//273 
f 272//272 252//252 261//261 
f 259//259 265//265 282//282 
f 282//282 276//276 259//259 
f 270//270 262//262 264//264 
f 264//264 268//268 270//270 
f 278//278 267//267 266//266 
f 271//271 268//268 252//252 
f 272//272 517//517 252//252 
f 267//267 273//273 253//253 
f 265//265 258//258 274//274 
f 274//274 309//309 265//265 
f 269//269 262//262 270//270 
f 246//246 269//269 274//274 
f 263//263 275//275 266//266 
f 278//278 279//279 267//267 
f 277//277 273//273 279//279 
f 279//279 273//273 267//267 
f 256//256 273//273 272//272 
f 277//277 272//272 273//273 
f 280//280 274//274 269//269 
f 263//263 276//276 275//275 
f 275//275 278//278 266//266 
f 281//281 278//278 275//275 
f 281//281 279//279 278//278 
f 287//287 275//275 276//276 
f 281//281 275//275 287//287 
f 517//517 284//284 516//516 
f 283//283 270//270 284//284 
f 270//270 268//268 284//284 
f 269//269 270//270 285//285 
f 289//289 281//281 287//287 
f 289//289 279//279 281//281 
f 280//280 269//269 285//285 
f 270//270 283//283 285//285 
f 291//291 283//283 284//284 
f 280//280 285//285 302//302 
f 282//282 286//286 276//276 
f 276//276 286//286 287//287 
f 290//290 285//285 283//283 
f 279//279 288//288 277//277 
f 288//288 279//279 289//289 
f 291//291 284//284 517//517 
f 289//289 287//287 303//303 
f 283//283 291//291 290//290 
f 272//272 298//298 517//517 
f 286//286 352//352 287//287 
f 287//287 352//352 303//303 
f 309//309 274//274 308//308 
f 302//302 285//285 290//290 
f 293//293 290//290 291//291 
f 517//517 292//292 291//291 
f 292//292 517//517 298//298 
f 277//277 297//297 272//272 
f 309//309 313//313 265//265 
f 302//302 290//290 294//294 
f 294//294 290//290 293//293 
f 277//277 288//288 296//296 
f 295//295 292//292 298//298 
f 277//277 296//296 297//297 
f 518//518 305//305 293//293 
f 291//291 292//292 337//337 
f 304//304 288//288 289//289 
f 304//304 296//296 288//288 
f 297//297 296//296 361//361 
f 304//304 289//289 303//303 
f 274//274 299//299 301//301 
f 274//274 301//301 308//308 
f 308//308 301//301 320//320 
f 299//299 280//280 300//300 
f 300//300 280//280 302//302 
f 299//299 317//317 320//320 
f 317//317 299//299 300//300 
f 317//317 300//300 318//318 
f 318//318 300//300 302//302 
f 318//318 302//302 325//325 
f 280//280 299//299 274//274 
f 301//301 299//299 320//320 
f 302//302 294//294 326//326 
f 353//353 304//304 303//303 
f 353//353 303//303 352//352 
f 293//293 305//305 294//294 
f 307//307 295//295 298//298 
f 295//295 307//307 306//306 
f 309//309 308//308 310//310 
f 310//310 308//308 320//320 
f 309//309 310//310 311//311 
f 309//309 311//311 313//313 
f 522//522 521//521 312//312 
f 521//521 321//321 312//312 
f 311//311 314//314 313//313 
f 522//522 312//312 524//524 
f 523//523 321//321 322//322 
f 523//523 322//322 525//525 
f 525//525 322//322 349//349 
f 313//313 282//282 265//265 
f 314//314 315//315 313//313 
f 349//349 526//526 525//525 
f 315//315 316//316 313//313 
f 313//313 316//316 282//282 
f 315//315 348//348 316//316 
f 529//529 527//527 321//321 
f 527//527 319//319 321//321 
f 528//528 319//319 527//527 
f 530//530 319//319 528//528 
f 321//321 319//319 322//322 
f 319//319 530//530 329//329 
f 521//521 529//529 321//321 
f 322//322 319//319 329//329 
f 322//322 329//329 323//323 
f 323//323 349//349 322//322 
f 323//323 329//329 349//349 
f 349//349 329//329 358//358 
f 282//282 324//324 286//286 
f 282//282 316//316 324//324 
f 324//324 352//352 286//286 
f 348//348 324//324 316//316 
f 328//328 294//294 305//305 
f 302//302 326//326 325//325 
f 328//328 532//532 294//294 
f 533//533 327//327 531//531 
f 535//535 534//534 537//537 
f 329//329 530//530 536//536 
f 536//536 538//538 329//329 
f 539//539 330//330 541//541 
f 378//378 333//333 542//542 
f 331//331 333//333 379//379 
f 344//344 331//331 379//379 
f 543//543 333//333 329//329 
f 333//333 332//332 329//329 
f 357//357 329//329 332//332 
f 335//335 332//332 333//333 
f 331//331 334//334 333//333 
f 333//333 334//334 335//335 
f 332//332 335//335 336//336 
f 331//331 344//344 334//334 
f 340//340 334//334 344//344 
f 340//340 335//335 334//334 
f 335//335 340//340 336//336 
f 544//544 340//340 341//341 
f 329//329 357//357 358//358 
f 336//336 357//357 332//332 
f 520//520 519//519 545//545 
f 337//337 292//292 374//374 
f 292//292 295//295 374//374 
f 375//375 374//374 295//295 
f 339//339 306//306 338//338 
f 546//546 307//307 345//345 
f 306//306 307//307 338//338 
f 546//546 342//342 547//547 
f 546//546 345//345 342//342 
f 341//341 339//339 338//338 
f 306//306 375//375 295//295 
f 339//339 341//341 343//343 
f 343//343 341//341 340//340 
f 342//342 544//544 341//341 
f 551//551 544//544 342//342 
f 551//551 342//342 345//345 
f 343//343 373//373 339//339 
f 373//373 306//306 339//339 
f 340//340 344//344 343//343 
f 343//343 344//344 373//373 
f 345//345 307//307 298//298 
f 272//272 297//297 347//347 
f 345//345 298//298 346//346 
f 346//346 298//298 272//272 
f 376//376 345//345 346//346 
f 347//347 376//376 346//346 
f 272//272 347//347 346//346 
f 376//376 551//551 345//345 
f 376//376 347//347 377//377 
f 297//297 377//377 347//347 
f 548//548 526//526 349//349 
f 350//350 548//548 349//349 
f 351//351 324//324 348//348 
f 350//350 349//349 354//354 
f 550//550 549//549 350//350 
f 550//550 350//350 354//354 
f 324//324 351//351 352//352 
f 349//349 366//366 354//354 
f 352//352 356//356 353//353 
f 352//352 351//351 356//356 
f 356//356 363//363 353//353 
f 550//550 354//354 355//355 
f 550//550 355//355 356//356 
f 354//354 366//366 371//371 
f 370//370 355//355 371//371 
f 355//355 354//354 371//371 
f 356//356 355//355 370//370 
f 363//363 356//356 370//370 
f 379//379 333//333 378//378 
f 358//358 357//357 359//359 
f 551//551 376//376 359//359 
f 376//376 377//377 360//360 
f 377//377 361//361 360//360 
f 297//297 361//361 377//377 
f 360//360 359//359 376//376 
f 362//362 359//359 360//360 
f 361//361 362//362 360//360 
f 349//349 358//358 366//366 
f 366//366 358//358 368//368 
f 358//358 359//359 368//368 
f 359//359 362//362 368//368 
f 367//367 296//296 304//304 
f 363//363 364//364 304//304 
f 353//353 363//363 304//304 
f 304//304 364//364 367//367 
f 367//367 369//369 296//296 
f 369//369 361//361 296//296 
f 365//365 363//363 370//370 
f 363//363 365//365 364//364 
f 372//372 365//365 371//371 
f 552//552 367//367 365//365 
f 364//364 365//365 367//367 
f 366//366 368//368 372//372 
f 369//369 367//367 552//552 
f 552//552 368//368 369//369 
f 369//369 368//368 362//362 
f 361//361 369//369 362//362 
f 370//370 371//371 365//365 
f 372//372 371//371 366//366 
f 337//337 374//374 380//380 
f 373//373 379//379 375//375 
f 344//344 379//379 373//373 
f 306//306 373//373 375//375 
f 383//383 542//542 540//540 
f 386//386 379//379 378//378 
f 375//375 381//381 374//374 
f 374//374 381//381 380//380 
f 383//383 378//378 542//542 
f 379//379 555//555 387//387 
f 387//387 375//375 379//379 
f 328//328 305//305 384//384 
f 383//383 382//382 378//378 
f 378//378 553//553 386//386 
f 520//520 545//545 388//388 
f 388//388 337//337 380//380 
f 380//380 381//381 396//396 
f 393//393 380//380 396//396 
f 390//390 554//554 384//384 
f 384//384 554//554 328//328 
f 305//305 385//385 384//384 
f 386//386 553//553 395//395 
f 387//387 555//555 409//409 
f 555//555 395//395 409//409 
f 375//375 387//387 381//381 
f 409//409 381//381 387//387 
f 385//385 520//520 388//388 
f 388//388 380//380 393//393 
f 398//398 391//391 403//403 
f 389//389 390//390 399//399 
f 383//383 556//556 382//382 
f 389//389 554//554 390//390 
f 382//382 556//556 402//402 
f 392//392 385//385 388//388 
f 384//384 385//385 391//391 
f 391//391 385//385 392//392 
f 388//388 394//394 392//392 
f 391//391 392//392 403//403 
f 403//403 392//392 394//394 
f 406//406 403//403 394//394 
f 404//404 406//406 394//394 
f 393//393 394//394 388//388 
f 393//393 404//404 394//394 
f 396//396 405//405 404//404 
f 393//393 396//396 404//404 
f 553//553 558//558 395//395 
f 396//396 381//381 409//409 
f 558//558 409//409 395//395 
f 399//399 397//397 410//410 
f 412//412 399//399 410//410 
f 397//397 391//391 398//398 
f 384//384 391//391 397//397 
f 416//416 397//397 398//398 
f 416//416 398//398 418//418 
f 417//417 418//418 398//398 
f 384//384 397//397 390//390 
f 390//390 397//397 399//399 
f 556//556 400//400 402//402 
f 399//399 557//557 389//389 
f 409//409 401//401 407//407 
f 557//557 399//399 412//412 
f 557//557 401//401 558//558 
f 413//413 557//557 412//412 
f 401//401 557//557 413//413 
f 558//558 401//401 409//409 
f 424//424 403//403 406//406 
f 408//408 424//424 406//406 
f 417//417 398//398 403//403 
f 424//424 417//417 403//403 
f 407//407 405//405 396//396 
f 404//404 408//408 406//406 
f 408//408 404//404 405//405 
f 407//407 396//396 409//409 
f 410//410 397//397 416//416 
f 427//427 411//411 418//418 
f 427//427 418//418 421//421 
f 410//410 414//414 412//412 
f 428//428 423//423 413//413 
f 412//412 415//415 413//413 
f 414//414 415//415 412//412 
f 413//413 415//415 428//428 
f 424//424 425//425 417//417 
f 411//411 416//416 418//418 
f 419//419 417//417 425//425 
f 421//421 418//418 417//417 
f 419//419 421//421 417//417 
f 431//431 419//419 425//425 
f 425//425 426//426 420//420 
f 420//420 431//431 425//425 
f 431//431 421//421 419//419 
f 420//420 433//433 431//431 
f 432//432 427//427 421//421 
f 421//421 431//431 432//432 
f 401//401 413//413 423//423 
f 407//407 401//401 423//423 
f 426//426 422//422 420//420 
f 429//429 435//435 423//423 
f 435//435 407//407 423//423 
f 436//436 422//422 435//435 
f 407//407 435//435 422//422 
f 436//436 420//420 422//422 
f 424//424 408//408 425//425 
f 408//408 426//426 425//425 
f 422//422 405//405 407//407 
f 405//405 426//426 408//408 
f 426//426 405//405 422//422 
f 414//414 439//439 440//440 
f 410//410 439//439 414//414 
f 437//437 416//416 411//411 
f 443//443 437//437 411//411 
f 440//440 415//415 414//414 
f 443//443 411//411 427//427 
f 443//443 427//427 432//432 
f 432//432 431//431 434//434 
f 432//432 434//434 445//445 
f 443//443 432//432 445//445 
f 444//444 434//434 449//449 
f 449//449 434//434 430//430 
f 445//445 434//434 444//444 
f 428//428 429//429 423//423 
f 447//447 435//435 429//429 
f 430//430 435//435 447//447 
f 433//433 420//420 436//436 
f 436//436 430//430 433//433 
f 431//431 433//433 434//434 
f 433//433 430//430 434//434 
f 430//430 436//436 435//435 
f 410//410 416//416 437//437 
f 439//439 410//410 438//438 
f 438//438 410//410 437//437 
f 450//450 442//442 439//439 
f 439//439 438//438 450//450 
f 466//466 437//437 443//443 
f 466//466 443//443 465//465 
f 440//440 441//441 415//415 
f 442//442 440//440 439//439 
f 477//477 448//448 441//441 
f 441//441 440//440 477//477 
f 445//445 444//444 446//446 
f 449//449 446//446 444//444 
f 445//445 559//559 443//443 
f 468//468 445//445 446//446 
f 428//428 415//415 441//441 
f 448//448 428//428 441//441 
f 448//448 429//429 428//428 
f 447//447 449//449 430//430 
f 452//452 457//457 450//450 
f 450//450 457//457 442//442 
f 438//438 466//466 451//451 
f 438//438 451//451 450//450 
f 452//452 450//450 451//451 
f 452//452 458//458 457//457 
f 451//451 466//466 453//453 
f 452//452 451//451 453//453 
f 452//452 453//453 454//454 
f 454//454 455//455 452//452 
f 452//452 455//455 458//458 
f 466//466 469//469 453//453 
f 454//454 453//453 469//469 
f 454//454 472//472 456//456 
f 454//454 456//456 455//455 
f 469//469 472//472 454//454 
f 459//459 442//442 457//457 
f 478//478 442//442 459//459 
f 458//458 459//459 457//457 
f 455//455 460//460 458//458 
f 458//458 460//460 459//459 
f 459//459 460//460 461//461 
f 478//478 459//459 461//461 
f 478//478 461//461 481//481 
f 456//456 462//462 455//455 
f 455//455 462//462 460//460 
f 460//460 462//462 461//461 
f 462//462 463//463 461//461 
f 461//461 463//463 481//481 
f 462//462 456//456 464//464 
f 464//464 463//463 462//462 
f 466//466 438//438 437//437 
f 467//467 466//466 465//465 
f 467//467 559//559 468//468 
f 559//559 445//445 468//468 
f 470//470 469//469 466//466 
f 467//467 470//470 466//466 
f 470//470 467//467 471//471 
f 468//468 487//487 474//474 
f 487//487 480//480 474//474 
f 470//470 472//472 469//469 
f 471//471 467//467 468//468 
f 468//468 473//473 471//471 
f 473//473 468//468 474//474 
f 472//472 475//475 456//456 
f 473//473 472//472 470//470 
f 472//472 473//473 475//475 
f 471//471 473//473 470//470 
f 476//476 473//473 474//474 
f 473//473 476//476 475//475 
f 440//440 442//442 478//478 
f 478//478 477//477 440//440 
f 477//477 478//478 481//481 
f 448//448 479//479 429//429 
f 480//480 447//447 479//479 
f 479//479 447//447 429//429 
f 477//477 479//479 448//448 
f 480//480 449//449 447//447 
f 484//484 477//477 481//481 
f 483//483 479//479 484//484 
f 484//484 479//479 477//477 
f 480//480 479//479 483//483 
f 482//482 483//483 484//484 
f 481//481 482//482 484//484 
f 476//476 474//474 486//486 
f 480//480 486//486 474//474 
f 486//486 480//480 483//483 
f 456//456 475//475 464//464 
f 463//463 464//464 482//482 
f 481//481 463//463 482//482 
f 464//464 475//475 485//485 
f 464//464 485//485 482//482 
f 482//482 485//485 483//483 
f 485//485 475//475 476//476 
f 486//486 485//485 476//476 
f 483//483 485//485 486//486 
f 468//468 446//446 487//487 
f 449//449 487//487 446//446 
f 449//449 480//480 487//487 
