#
# Compatibility version : 4.3
# File ID : FJ4222
# Representation ID : BP29235
# Build-up logic : FMA 3.0 is_a
# Concept ID : FMA79667
# English name : Trunk of left long thoracic nerve
# Bounds(mm): (26.248900,-140.171000,1110.576200)-(135.689600,-72.264800,1401.551300)
# Volume(cm3): 0.771800
#
v 26.2794 -83.8789 1400.6
v 26.3286 -83.6799 1400.2
v 26.5231 -84.069 1401
v 26.3412 -83.6628 1401
v 26.3596 -83.2925 1400.39
v 26.5176 -84.0697 1400.2
v 26.5159 -84.1972 1400.6
v 26.6372 -83.2679 1399.79
v 26.544 -83.0655 1400.82
v 26.7192 -84.3098 1400.6
v 26.9112 -84.3328 1400.79
v 27.1048 -84.3719 1400.42
v 27.292 -84.3407 1400.8
v 27.5115 -84.3493 1400.42
v 26.764 -83.6556 1399.68
v 28.1303 -83.2732 1398.61
v 26.7362 -84.2364 1400.22
v 26.7048 -84.2776 1400.81
v 26.7057 -83.6877 1401.38
v 26.7412 -83.2905 1401.32
v 26.9102 -84.2491 1401.01
v 26.9811 -84.01 1399.77
v 26.9164 -83.8944 1401.38
v 27.3096 -84.1353 1401.19
v 27.3071 -82.7998 1401.16
v 27.5295 -84.2272 1400
v 27.7099 -84.2535 1400.81
v 27.8064 -82.8423 1401.25
v 27.875 -83.8854 1401.25
v 28.1181 -84.1539 1400.37
v 28.1599 -83.0641 1401.3
v 27.1049 -83.5004 1401.52
v 27.3114 -83.8686 1401.43
v 27.5408 -83.4876 1401.52
v 27.4894 -83.1026 1401.46
v 27.2998 -82.5439 1399.43
v 27.7267 -82.7242 1398.74
v 27.9454 -82.1054 1399.41
v 28.2294 -82.2626 1398.53
v 26.9784 -82.6539 1400.38
v 29.7141 -82.8627 1397.38
v 28.437 -83.6532 1398.95
v 28.8136 -83.7577 1399.35
v 28.3298 -83.964 1400.78
v 28.3304 -83.4724 1401.23
v 29.278 -83.6044 1399.81
v 29.4339 -83.2615 1400.27
v 29.7488 -81.9432 1397.38
v 28.7941 -81.8008 1398.76
v 29.1831 -81.7384 1399.34
v 28.4883 -82.1262 1400.18
v 29.4706 -82.7171 1400.39
v 30.9287 -83.035 1396.92
v 31.2973 -83.161 1397.22
v 31.1969 -83.225 1398.29
v 30.9328 -81.8754 1395.99
v 31.0524 -81.44 1395.98
v 31.1319 -82.2458 1395.99
v 29.9913 -82.2847 1396.95
v 30.0881 -81.6578 1397.47
v 30.5237 -81.7013 1396.62
v 30.6236 -81.4213 1398.04
v 30.9078 -81.3197 1396.84
v 29.9746 -81.8217 1399.52
v 29.9201 -82.1235 1399.86
v 31.3794 -81.0274 1396.34
v 32.111 -82.7699 1397.99
v 32.3576 -82.7658 1397.34
v 32.4759 -81.5053 1394.75
v 32.4916 -82.2815 1398
v 32.3985 -81.4862 1397.96
v 32.8078 -82.2654 1397.55
v 32.6814 -81.8707 1397.91
v 31.5837 -82.3096 1398.85
v 31.4236 -81.4061 1398.21
v 31.8067 -82.7039 1398.45
v 32.0246 -81.8982 1398.47
v 32.2275 -80.5294 1394.61
v 32.2449 -80.9677 1394.56
v 32.7246 -79.9042 1394.56
v 31.8196 -80.9499 1397.02
v 32.3481 -81.0341 1397.42
v 33.2354 -81.7178 1394.8
v 34.0435 -81.5986 1394.98
v 34.2116 -81.4012 1395.79
v 33.3118 -81.2738 1397.2
v 33.5178 -81.5199 1397.02
v 33.1981 -80.4323 1393.27
v 33.368 -79.6121 1393.15
v 33.4478 -80.9947 1393.54
v 33.2594 -79.8013 1395.25
v 33.6926 -80.3668 1396.16
v 34.3418 -79.4222 1394.49
v 34.4321 -80.7365 1395.72
v 33.7921 -79.1605 1393.05
v 35.5259 -80.0453 1390.77
v 35.2833 -78.3811 1389.61
v 35.6313 -78.5064 1388.88
v 35.4682 -77.9257 1389.87
v 36.0052 -79.1393 1388.92
v 35.2233 -78.2396 1391.64
v 35.5847 -78.9688 1393.01
v 37.4813 -78.0752 1389.96
v 37.0896 -79.3072 1390.25
v 37.2771 -78.7404 1390.46
v 37.5853 -77.1718 1384.91
v 37.4333 -76.7692 1385.15
v 36.953 -76.7491 1386.5
v 37.3626 -76.3282 1386.72
v 37.1816 -76.7202 1388.27
v 37.3887 -76.9799 1388.82
v 39.2719 -76.8916 1382.03
v 38.0589 -77.7515 1384.95
v 38.8776 -77.9106 1385.39
v 39.1388 -76.963 1386.63
v 38.3913 -76.611 1387.44
v 39.4583 -75.4882 1380.41
v 39.4553 -76.2767 1380.8
v 38.6902 -76.3043 1382.46
v 38.5383 -75.7587 1383.15
v 38.9818 -75.3912 1384.37
v 38.8722 -75.7297 1385.48
v 39.8858 -76.5309 1380.38
v 40.4325 -76.4893 1379.48
v 39.7308 -77.1229 1382.15
v 39.5619 -77.3146 1385.42
v 40.0677 -75.0882 1376.21
v 40.4904 -75.7866 1376.77
v 40.0095 -75.8993 1378.68
v 39.6413 -74.9188 1381.46
v 40.089 -75.0199 1382.8
v 40.5099 -75.3008 1382.98
v 40.8674 -76.2851 1382.96
v 39.7956 -76.1333 1385.07
v 40.897 -73.5062 1361.02
v 41.0661 -74.3063 1360.33
v 40.3404 -73.7605 1364.08
v 40.3235 -73.3089 1363.69
v 40.9102 -74.39 1364.64
v 40.0737 -73.3015 1365.94
v 40.1138 -73.9327 1367.1
v 39.929 -73.7301 1369.92
v 40.3801 -74.6238 1370.05
v 40.0526 -74.4677 1377.66
v 40.4709 -74.2132 1378.82
v 40.6407 -74.3749 1379.97
v 40.7136 -72.8957 1362.52
v 40.3698 -72.7148 1365.04
v 40.7067 -72.3811 1365.57
v 40.3298 -72.8622 1369.72
v 40.9028 -72.9141 1372.06
v 41.2316 -76.2643 1378.57
v 40.9785 -76.6838 1381.21
v 42.3423 -75.3359 1357.2
v 42.4465 -76.2888 1356.96
v 42.3878 -76.2935 1358.36
v 41.3459 -74.8619 1360.74
v 41.9603 -75.2277 1360.54
v 42.329 -74.9747 1361.14
v 42.5322 -75.4834 1360.04
v 41.8997 -74.8088 1361.84
v 42.3169 -74.691 1361.84
v 41.9805 -75.2495 1375.3
v 42.1208 -75.2791 1377.77
v 42.1001 -74.879 1378.18
v 41.6853 -76.0599 1379.35
v 41.9126 -75.4938 1379.61
v 41.8841 -75.0857 1379.62
v 41.2481 -76.276 1381.76
v 41.1661 -75.5188 1382.1
v 41.0782 -74.7289 1380.93
v 41.6298 -75.5128 1380.87
v 41.474 -75.0883 1380.9
v 42.499 -74.4954 1357.66
v 41.5405 -74.6699 1358.84
v 41.7362 -73.5719 1359.41
v 42.512 -73.8973 1358.4
v 42.4983 -73.3756 1359.44
v 41.1419 -74.5655 1362.26
v 42.6541 -73.9357 1362.6
v 41.5113 -74.5834 1363.07
v 42.0944 -74.4071 1363.18
v 42.2183 -74.0768 1364.25
v 41.6938 -74.3861 1364.8
v 41.5047 -74.5956 1368.93
v 42.1186 -73.7646 1368.76
v 41.9328 -73.5344 1373.7
v 42.2243 -74.4532 1375.35
v 42.0404 -74.2819 1376.98
v 41.323 -73.9792 1377.84
v 41.6956 -74.437 1378.86
v 41.7172 -72.7231 1361.25
v 41.126 -72.8323 1361.6
v 42.3268 -72.8153 1361.32
v 42.5482 -72.9507 1362.14
v 41.1185 -72.3609 1363.8
v 41.9056 -72.4631 1362.94
v 41.8668 -72.4596 1364.68
v 42.4706 -73.1827 1363.95
v 41.0977 -72.3284 1366.82
v 42.0433 -73.126 1368.75
v 41.5085 -72.8754 1371.1
v 43.9153 -78.911 1354.66
v 43.9176 -79.0441 1355.37
v 44.1517 -78.7894 1356.18
v 43.6744 -77.2106 1355.05
v 43.1739 -77.2871 1355.6
v 43.8957 -76.4115 1355.46
v 42.9578 -76.8372 1357.98
v 43.5374 -76.9421 1357.99
v 42.9332 -75.3465 1356.65
v 43.9686 -75.3725 1356.72
v 44.2438 -75.6451 1358.09
v 42.8858 -76.2865 1358.77
v 43.0949 -75.4588 1359.77
v 43.2783 -76.1849 1358.85
v 43.9012 -75.9334 1358.59
v 42.9474 -74.6181 1357.36
v 43.0981 -74.1781 1358.04
v 43.4805 -74.1573 1359.01
v 42.8862 -74.6738 1360.99
v 43.0268 -73.887 1361.28
v 43.4104 -74.7311 1359.97
v 43.3212 -73.9567 1360.02
v 44.3764 -78.825 1353.94
v 46.0639 -78.8193 1355.22
v 44.6841 -78.104 1356.72
v 44.7286 -78.2879 1353.96
v 45.2222 -78.2305 1353.99
v 45.0079 -76.6854 1356.45
v 44.263 -77.0528 1357.61
v 45.0047 -77.3926 1356.76
v 46.7798 -82.623 1351.06
v 46.2761 -82.8082 1351.57
v 46.176 -80.9346 1354.6
v 46.3734 -80.0464 1354.82
v 46.3662 -79.1432 1353.88
v 47.638 -85.5638 1350.45
v 48.9721 -83.8352 1351.56
v 50.3244 -89.0122 1346.8
v 50.0281 -87.3191 1347.58
v 49.3259 -88.0697 1349.26
v 49.2366 -86.5707 1350.71
v 49.6348 -86.0906 1350.78
v 50.0823 -85.4732 1349.74
v 52.1431 -92.3701 1345.78
v 50.8813 -90.6906 1346.67
v 51.8997 -91.0837 1347.32
v 51.98 -90.501 1345.17
v 51.0672 -90.6343 1346.01
v 51.7895 -89.4468 1345.91
v 50.8048 -87.3246 1347.64
v 51.3617 -87.9165 1348.83
v 53.6334 -94.3402 1343.32
v 53.7357 -93.8732 1342.75
v 53.482 -92.6393 1343.31
v 53.4114 -93.7126 1344.9
v 52.4072 -91.0936 1347.26
v 52.2905 -89.2356 1346.4
v 52.2343 -88.8673 1347.29
v 55.4651 -96.4708 1341.16
v 54.6841 -95.5746 1342.65
v 54.6572 -94.2347 1344.47
v 54.1088 -92.5011 1343.25
v 54.2607 -92.8125 1345.41
v 54.851 -92.5479 1344.47
v 54.2256 -91.7481 1344.42
v 57.036 -98.069 1339.84
v 55.7261 -95.8703 1340.3
v 55.59 -96.2857 1340.54
v 56.0488 -96.675 1341.86
v 56.8681 -96.9917 1341.52
v 56.077 -95.5932 1340.14
v 56.1024 -95.2978 1343.09
v 56.0634 -94.7203 1343.27
v 58.2187 -98.8099 1339.25
v 58.4367 -97.6556 1340.16
v 58.2195 -96.3043 1339.71
v 57.0878 -95.4443 1340.18
v 60.0814 -98.9681 1338.1
v 59.5201 -97.8929 1337.11
v 59.144 -97.6059 1339.27
v 60.8786 -101.981 1333.91
v 60.3036 -100.488 1334.18
v 61.9081 -100.522 1335.53
v 60.5231 -101.38 1335.63
v 61.8916 -100.896 1335.52
v 60.3507 -99.3534 1334.98
v 60.5098 -100.151 1337.12
v 61.8613 -100.072 1335.25
v 64.1592 -105.594 1328.89
v 64.3383 -105.644 1329.33
v 64.7261 -103.05 1330.59
v 64.1681 -102.566 1331.94
v 66.4909 -108.669 1323.83
v 65.5431 -107.401 1326.31
v 65.1083 -106.088 1326.41
v 65.4684 -105.052 1326.91
v 65.3876 -106.148 1328.88
v 65.5406 -105.54 1329.41
v 65.6458 -104.278 1328.33
v 65.0625 -104.047 1330.67
v 67.7459 -110.737 1322.27
v 67.6671 -109.645 1321.42
v 66.9092 -108.881 1325.09
v 67.3497 -108.983 1325.05
v 67.5269 -107.232 1323.97
v 67.4215 -106.648 1326.33
v 67.0486 -106.989 1327.03
v 69.2902 -113.663 1318.4
v 69.215 -113.275 1317.54
v 69.7321 -113.363 1316.61
v 69.2037 -110.842 1319.29
v 68.9652 -111.921 1321.23
v 68.989 -110.92 1322.36
v 69.1953 -109.658 1320.98
v 69.3213 -109.924 1322.51
v 68.5051 -108.131 1323.57
v 70.6799 -112.758 1316.93
v 71.0811 -113.005 1316.92
v 70.9201 -112.437 1318.21
v 72.9581 -121.221 1308.14
v 72.5579 -120.301 1310.11
v 71.9385 -117.072 1314.72
v 72.3552 -116.617 1314.81
v 72.3017 -115.476 1315.34
v 74.4736 -123.446 1304.16
v 74.5565 -124.143 1305.07
v 73.8128 -121.728 1308.81
v 73.2277 -120.226 1307.8
v 73.7364 -119.751 1308.05
v 74.167 -119.577 1308.52
v 74.4475 -119.705 1308.88
v 76.1287 -126.053 1302.98
v 75.0812 -125.029 1302.71
v 75.0458 -123.685 1303.22
v 75.2492 -123.329 1303.42
v 75.4488 -122.74 1304.14
v 75.8609 -122.591 1304.88
v 75.7277 -122.344 1306.37
v 77.5465 -127.961 1297.4
v 76.6516 -127.616 1299.52
v 77.2076 -128.19 1299.63
v 76.4776 -127.022 1299.49
v 77.4026 -127.231 1301.23
v 77.6616 -125.982 1301.81
v 76.9073 -124.872 1301.27
v 76.5871 -124.746 1304.12
v 77.0965 -124.621 1302.61
v 76.2963 -124.932 1304.27
v 79.1683 -130.182 1294.18
v 77.947 -129.235 1296.64
v 78.5394 -129.958 1296.77
v 79.3398 -130.036 1296.94
v 79.3543 -129.234 1297.78
v 77.813 -127.488 1297.47
v 78.9581 -127.988 1296.47
v 78.0328 -128.816 1298.94
v 79.173 -127.831 1298.44
v 78.677 -127.676 1299.56
v 78.9148 -127.424 1297.8
v 79.7169 -131.177 1293.42
v 80.2355 -131.837 1293.43
v 80.6179 -131.771 1294
v 80.2532 -130.404 1292.72
v 80.722 -129.918 1293.24
v 81.0058 -130.037 1294.92
v 80.8835 -129.685 1294.6
v 82.4916 -133.668 1290.24
v 82.2146 -131.088 1292.61
v 83.9835 -134.037 1285.9
v 84.0019 -134.824 1287.45
v 82.9277 -134.094 1288.39
v 83.9333 -134.534 1288.37
v 82.9783 -132.269 1288.64
v 83.0862 -133.695 1290.21
v 83.0442 -133.073 1290.99
v 84.0383 -133.228 1289.68
v 82.6944 -131.503 1290.41
v 85.5092 -135.752 1284.01
v 85.3984 -135.443 1283.57
v 85.4647 -134.15 1283.94
v 84.8644 -134.642 1287.67
v 84.3273 -133.189 1286.41
v 84.7862 -133.045 1286.93
v 85.6833 -133.888 1286.81
v 87.0437 -135.706 1280.29
v 87.3153 -136.437 1280.29
v 85.9486 -135.984 1283.95
v 85.8942 -135.588 1285.34
v 86.367 -135.534 1285.08
v 87.1061 -134.778 1281.19
v 86.325 -135.218 1281.74
v 86.5834 -134.222 1283.05
v 87.1281 -134.36 1283.29
v 87.2803 -135.237 1284.05
v 87.3937 -134.636 1283.45
v 86.3178 -135.221 1285.49
v 88.9711 -136.914 1277.06
v 87.7144 -136.723 1280.23
v 87.6575 -136.634 1281.46
v 88.2146 -136.535 1281.35
v 87.8719 -135.889 1282.76
v 88.0908 -135.203 1279.03
v 88.5723 -134.932 1279.75
v 88.7754 -135.102 1280.59
v 90.465 -137.115 1274.28
v 90.474 -137.15 1276.05
v 89.5263 -137.156 1276.96
v 89.6278 -136.604 1274.85
v 89.2405 -135.687 1275.89
v 90.3434 -136.88 1277.32
v 90.5934 -136.078 1277.44
v 89.4206 -137.042 1278.34
v 89.6067 -136.653 1279.11
v 89.2138 -136.073 1280.36
v 89.1025 -135.608 1280.54
v 90.752 -135.424 1271.94
v 89.9268 -135.237 1275.89
v 90.6838 -137.179 1274.49
v 91.146 -137.089 1274.46
v 91.1902 -135.858 1270.05
v 90.9792 -136.679 1271.74
v 91.4222 -136.988 1272.36
v 92.3143 -135.85 1272.93
v 91.6554 -136.267 1274.84
v 92.0312 -136.654 1273.19
v 92.3099 -136.216 1272.91
v 90.9344 -136.981 1275.71
v 91.3911 -136.671 1275.22
v 91.4295 -135.627 1274.94
v 90.6627 -136.48 1277.19
v 91.2199 -135.031 1272.19
v 91.5856 -135.041 1272.67
v 91.9228 -135.168 1272.7
v 90.8049 -135.347 1275.71
v 92.5814 -136.611 1270.3
v 93.9142 -134.515 1261.56
v 93.5295 -135.152 1262.82
v 92.9603 -134.724 1264.32
v 93.6007 -133.997 1265.01
v 92.8822 -134.288 1265.89
v 94.7851 -135.675 1262.41
v 93.8124 -135.916 1264.78
v 94.311 -135.778 1264.46
v 95.3248 -134.986 1258.28
v 94.9184 -134.315 1259.38
v 93.9179 -134.118 1262.11
v 93.9733 -135.587 1262.63
v 95.0765 -134.58 1263.89
v 94.1403 -134.18 1265.46
v 94.8174 -135.368 1264.37
v 94.9172 -133.913 1260.21
v 94.2961 -133.842 1262.13
v 94.6904 -133.791 1262.66
v 96.7641 -135.988 1255.78
v 95.8408 -135.779 1258.25
v 96.7132 -135.992 1257.94
v 96.9542 -135.78 1258.31
v 95.9451 -135.757 1259.41
v 96.4571 -134.975 1256.21
v 97.0614 -134.731 1255.76
v 95.5645 -134.24 1258.35
v 95.6925 -133.962 1258.86
v 96.1398 -134.167 1257.78
v 96.1498 -133.975 1258.54
v 97.0987 -134.742 1258.84
v 96.3764 -135.304 1260.05
v 96.6029 -134.918 1259.94
v 96.6285 -134.343 1259.55
v 95.6227 -135.308 1261.77
v 95.4552 -133.994 1261.9
v 95.9802 -134.898 1261.4
v 96.0835 -134.512 1261.15
v 95.5284 -133.805 1260.37
v 98.3785 -137.047 1253.42
v 98.4414 -136.929 1252.69
v 98.3234 -136.774 1255
v 97.6101 -136.558 1255.6
v 97.5031 -136.282 1256.65
v 98.0648 -136.259 1256.26
v 98.3964 -135.971 1256.18
v 98.5257 -135.713 1256.11
v 98.4962 -135.002 1254.84
v 97.2156 -134.444 1256.42
v 98.419 -135.297 1256.25
v 97.391 -135.306 1258.22
v 97.2789 -134.394 1257.58
v 100.238 -138.068 1249.23
v 99.6161 -137.313 1250.19
v 99.9834 -136.618 1250.17
v 99.1674 -135.513 1254.57
v 101.701 -137.927 1245.78
v 101.113 -138.568 1247.13
v 101.225 -138.242 1246.58
v 100.654 -138.455 1249.34
v 100.978 -137.262 1248.06
v 100.504 -138.014 1251.13
v 100.96 -137.788 1251.09
v 101.869 -137.738 1249.61
v 100.94 -137.191 1251.58
v 101.234 -136.867 1248.84
v 101.25 -136.911 1250.74
v 100.189 -136.422 1253.02
v 103.162 -139.014 1240.71
v 103.269 -139.419 1240.58
v 102.932 -139.617 1242.54
v 103.298 -139.776 1242.84
v 101.875 -139.184 1246.05
v 103.156 -139.362 1245.15
v 103.369 -138.853 1245.57
v 102.288 -139.308 1246.22
v 102.058 -138.82 1248.06
v 102.769 -138.297 1242.79
v 103.308 -138.09 1242.58
v 102.264 -137.655 1245.63
v 103.274 -138.049 1245.42
v 102.539 -137.563 1246.24
v 101.74 -137.048 1248.72
v 104.963 -139.679 1236.14
v 104.052 -139.303 1238.18
v 104.05 -138.879 1238.43
v 104.292 -139.853 1238.28
v 104.505 -140.039 1238.66
v 104.899 -140.009 1239.1
v 104.415 -139.457 1242.01
v 104.855 -138.403 1238.45
v 103.998 -138.426 1239.64
v 104.093 -138.264 1242.01
v 104.539 -138.704 1241.78
v 106.668 -139.285 1232.27
v 105.656 -139.288 1234.39
v 106.26 -139.671 1233.3
v 105.774 -140.031 1235.11
v 105.939 -140.15 1235.61
v 106.35 -139.262 1236.95
v 105.801 -139.684 1238.02
v 105.531 -138.618 1235.6
v 106.118 -138.505 1235.52
v 105.697 -138.685 1237.89
v 108.343 -139.42 1229.21
v 108.611 -139.006 1228.67
v 108.254 -140.048 1231.12
v 106.833 -138.881 1232.24
v 107.198 -140.043 1233.91
v 107.127 -138.876 1234.81
v 107.433 -139.1 1234.41
v 107.682 -139.491 1233.9
v 107.462 -138.544 1231.81
v 108.614 -139.799 1229.27
v 109.046 -139.644 1230.97
v 109.328 -139.189 1230.69
v 109.078 -138.878 1230.96
v 108.689 -138.51 1230.85
v 110.624 -139.699 1226.08
v 110.828 -138.285 1225.33
v 110.939 -138.179 1226.13
v 111.183 -138.435 1226.76
v 112.75 -139.444 1223.13
v 111.78 -139.548 1225.4
v 114.052 -138.288 1219.01
v 114.23 -137.695 1219.47
v 114.102 -137.693 1220.68
v 115.021 -138.961 1218.55
v 114.511 -138.885 1220.95
v 115.811 -137.688 1215.81
v 115.637 -138.568 1216.61
v 115.719 -137.771 1218.78
v 116.68 -137.141 1215.23
v 117.353 -137.18 1215.06
v 117.452 -138.397 1214.84
v 117.181 -137.747 1216.16
v 117.783 -137.088 1211.81
v 118.336 -137.678 1210.46
v 118.715 -138.101 1211.52
v 118.978 -137.886 1211.99
v 118.998 -137.677 1212.27
v 119.097 -137.285 1212.05
v 117.921 -138.222 1212.46
v 117.896 -138.092 1214.54
v 118.074 -136.833 1211.84
v 120.457 -137.323 1205.06
v 119.63 -137.651 1207.78
v 120.405 -137.56 1206.36
v 120.321 -137.485 1208.46
v 119.807 -137.488 1210.23
v 119.782 -137.288 1210.41
v 119.955 -136.888 1205.61
v 120.923 -136.115 1205.46
v 120.912 -136.305 1206.26
v 119.794 -136.359 1207.44
v 120.193 -136.879 1209.13
v 120.476 -137.088 1208.47
v 119.503 -136.902 1210.75
v 119.61 -136.547 1209.55
v 121.128 -137.325 1205.03
v 122.188 -135.865 1196.68
v 122.451 -136.377 1196.71
v 121.214 -136.097 1201.25
v 121.889 -136.867 1200.24
v 122.588 -136.475 1200.77
v 121.175 -136.669 1201.5
v 121.415 -135.795 1201.71
v 122.118 -135.887 1201.9
v 121.843 -136.483 1203.88
v 121.543 -136.904 1204.91
v 124.056 -135.672 1190.35
v 123.891 -135.61 1194.36
v 123.096 -136.403 1197.25
v 123.169 -135.687 1197.92
v 124.05 -134.277 1188.71
v 123.328 -134.865 1190.83
v 123.369 -135.214 1190.25
v 123.264 -134.961 1194.5
v 122.679 -135.216 1195.29
v 123.324 -135.253 1196.13
v 122.538 -135.462 1198.93
v 124.653 -134.547 1183.59
v 125.066 -134.631 1183.38
v 125.137 -134.383 1181.98
v 124.313 -134.108 1184.3
v 125.226 -134.655 1184.45
v 124.422 -135.055 1186.14
v 124.42 -134.294 1188.82
v 124.762 -135.109 1188.5
v 124.785 -134.366 1188.05
v 125.495 -133.733 1178.92
v 125.12 -133.455 1179.55
v 124.761 -133.488 1182.01
v 125.727 -133.56 1182.22
v 125.104 -133.288 1182.4
v 124.388 -133.905 1185.14
v 124.704 -133.888 1186.18
v 126.493 -132.574 1173.8
v 125.886 -133.667 1178.37
v 126.883 -131.088 1170.61
v 127.155 -130.992 1169.49
v 126.851 -131.69 1171.13
v 127.314 -132.114 1173.39
v 126.704 -131.984 1175.41
v 126.094 -132.301 1177.26
v 128.341 -130.767 1167.37
v 127.718 -130.841 1167.94
v 127.858 -131.161 1168.57
v 128.398 -130.846 1168.52
v 127.425 -132.007 1171.95
v 128.317 -129.464 1165.53
v 128.449 -129.683 1165.02
v 128.899 -129.253 1165.85
v 128.224 -129.693 1167.23
v 128.345 -129.937 1167.89
v 128.59 -130.288 1168.01
v 127.589 -130.722 1170.65
v 129.058 -129.604 1164.01
v 129.769 -129.207 1163.22
v 129.458 -129.514 1164.94
v 129.358 -129.266 1165.18
v 130.104 -127.493 1161.01
v 130.439 -128.091 1160.01
v 129.547 -128.705 1161.9
v 129.594 -128.26 1161.38
v 129.754 -128.113 1162.7
v 130.241 -128.439 1162.47
v 130.112 -128.255 1162.59
v 129.385 -128.325 1163.21
v 129.625 -128.491 1163.61
v 129.927 -112.088 1110.81
v 130.104 -112.33 1110.81
v 130.106 -112.337 1111.03
v 130.14 -112.288 1111.61
v 130.104 -112.088 1110.58
v 130.105 -111.925 1111.02
v 130.123 -112.084 1111.4
v 130.246 -112.126 1111.7
v 130.104 -111.849 1110.81
v 130.304 -112.434 1111.21
v 130.304 -112.1 1110.61
v 130.304 -111.918 1111.21
v 130.443 -112.14 1112.14
v 130.304 -111.874 1110.81
v 131.071 -126.288 1157.01
v 131.223 -126.483 1156.63
v 131.304 -126.021 1157.21
v 131.294 -126.944 1159.06
v 131.208 -126.478 1158.43
v 130.661 -127.334 1160.49
v 131.283 -113.088 1114.31
v 131.321 -113.328 1115.64
v 131.535 -113.387 1115.52
v 131.833 -113.488 1117.81
v 131.037 -112.687 1113.06
v 130.999 -112.488 1112.81
v 130.704 -112.725 1113.61
v 131.092 -112.506 1113.41
v 131.304 -112.688 1114.76
v 131.47 -112.877 1114.55
v 131.598 -113.087 1115.02
v 131.575 -112.897 1115.04
v 131.595 -112.926 1115.82
v 131.857 -113.189 1115.99
v 132.181 -126.259 1155.75
v 132.621 -124.596 1152.2
v 132.64 -125.402 1153.48
v 132.814 -124.876 1152.29
v 133.35 -124.574 1151.59
v 133.366 -124.5 1152.62
v 132.971 -125.252 1153.71
v 132.316 -126.051 1156.01
v 132.611 -124.288 1152.21
v 132.769 -124.134 1152.56
v 133.774 -122.488 1148.01
v 132.834 -114.706 1121.34
v 133.104 -114.99 1122.41
v 133.471 -115.223 1123.27
v 133.749 -114.992 1124.8
v 133.59 -115.288 1125.41
v 133.74 -115.768 1125.61
v 132.543 -114.088 1118.81
v 132.474 -114.256 1120.44
v 132.666 -114.291 1121.18
v 132.704 -113.993 1120.61
v 133.179 -114.453 1121.03
v 132.701 -114.498 1121.37
v 132.848 -114.687 1122
v 132.705 -114.436 1121.4
v 132.719 -114.495 1121.5
v 132.85 -114.485 1121.98
v 132.759 -114.298 1121.4
v 132.904 -114.688 1122.34
v 133.608 -114.688 1122.81
v 133.277 -114.665 1123.34
v 134.232 -122.819 1147.33
v 133.892 -123.136 1150.06
v 133.891 -123.893 1150.4
v 135.18 -121.477 1144.41
v 135.221 -121.28 1144.6
v 134.286 -121.773 1146.79
v 134.672 -122.499 1146.8
v 134.748 -122.222 1147.12
v 134.943 -122.04 1146.13
v 134.953 -121.697 1146.02
v 134.299 -122.129 1147.73
v 134.904 -119.681 1140.41
v 134.817 -120.469 1141.77
v 134.764 -120.27 1142.41
v 135.262 -119.566 1140.86
v 135.304 -120.805 1142.21
v 135.303 -120.629 1143.44
v 134.725 -120.916 1144.61
v 134.898 -121.071 1144.99
v 134.871 -118.088 1134.81
v 135.095 -118.381 1134.98
v 135.299 -118.378 1134.91
v 134.96 -118.673 1136.72
v 134.953 -118.718 1137.27
v 135.099 -118.147 1136.33
v 135.304 -119.121 1137.21
v 135.301 -117.973 1135.91
v 134.999 -119.248 1138.26
v 134.893 -116.548 1129.35
v 134.704 -117.134 1130.61
v 134.886 -116.517 1130.75
v 134.643 -117.282 1131.96
v 134.504 -116.888 1131.11
v 134.919 -117.262 1131.11
v 134.679 -117.325 1132.67
v 134.913 -117.691 1132.7
v 134.852 -116.956 1132.34
v 135.421 -117.881 1133.79
v 135.453 -117.642 1133.46
v 135.395 -117.401 1133.11
v 135.287 -117.403 1133.9
v 134.952 -117.718 1134.66
v 133.986 -115.288 1124.41
v 134.104 -115.771 1125.61
v 134.682 -116.054 1128.09
v 135.577 -119.688 1140.81
v 135.505 -120.496 1142.23
v 135.594 -118.151 1135.21
v 135.638 -119.262 1138.33
v 135.69 -118.688 1137.41
v 135.548 -117.887 1134.79
v 26.2794 -83.8789 1400.6
v 33.1981 -80.4323 1393.27
v 38.8776 -77.9106 1385.39
v 39.4583 -75.4882 1380.41
v 40.4904 -75.7866 1376.77
v 40.9102 -74.39 1364.64
v 40.3801 -74.6238 1370.05
v 42.3878 -76.2935 1358.36
v 42.6541 -73.9357 1362.6
v 64.1592 -105.594 1328.89
v 66.4909 -108.669 1323.83
v 65.1083 -106.088 1326.41
v 67.6671 -109.645 1321.42
v 72.5579 -120.301 1310.11
v 83.9835 -134.037 1285.9
v 87.1061 -134.778 1281.19
v 95.8408 -135.779 1258.25
v 95.9451 -135.757 1259.41
v 101.225 -138.242 1246.58
v 100.978 -137.262 1248.06
v 101.869 -137.738 1249.61
v 103.369 -138.853 1245.57
v 102.058 -138.82 1248.06
v 104.415 -139.457 1242.01
v 104.855 -138.403 1238.45
v 104.093 -138.264 1242.01
v 104.539 -138.704 1241.78
v 105.801 -139.684 1238.02
v 106.118 -138.505 1235.52
v 105.697 -138.685 1237.89
v 114.052 -138.288 1219.01
v 115.811 -137.688 1215.81
v 117.783 -137.088 1211.81
v 118.074 -136.833 1211.84
v 119.955 -136.888 1205.61
v 119.794 -136.359 1207.44
v 124.762 -135.109 1188.5
v 125.727 -133.56 1182.22
v 125.727 -133.56 1182.22
v 125.104 -133.288 1182.4
v 124.704 -133.888 1186.18
v 126.493 -132.574 1173.8
v 126.493 -132.574 1173.8
v 126.883 -131.088 1170.61
v 126.851 -131.69 1171.13
v 126.704 -131.984 1175.41
v 126.094 -132.301 1177.26
v 128.317 -129.464 1165.53
v 128.899 -129.253 1165.85
v 128.224 -129.693 1167.23
v 128.345 -129.937 1167.89
v 128.59 -130.288 1168.01
v 127.589 -130.722 1170.65
v 127.589 -130.722 1170.65
v 130.104 -127.493 1161.01
v 130.241 -128.439 1162.47
v 129.385 -128.325 1163.21
v 129.927 -112.088 1110.81
v 129.927 -112.088 1110.81
v 129.927 -112.088 1110.81
v 130.104 -112.33 1110.81
v 130.104 -112.33 1110.81
v 130.14 -112.288 1111.61
v 130.104 -112.088 1110.58
v 130.104 -112.088 1110.58
v 130.104 -112.088 1110.58
v 130.105 -111.925 1111.02
v 130.123 -112.084 1111.4
v 130.104 -111.849 1110.81
v 130.104 -111.849 1110.81
v 130.104 -111.849 1110.81
v 130.104 -111.849 1110.81
v 130.304 -112.434 1111.21
v 130.304 -112.434 1111.21
v 130.304 -112.1 1110.61
v 130.304 -112.1 1110.61
v 130.304 -111.918 1111.21
v 130.443 -112.14 1112.14
v 130.443 -112.14 1112.14
v 130.443 -112.14 1112.14
v 130.304 -111.874 1110.81
v 130.304 -111.874 1110.81
v 131.071 -126.288 1157.01
v 131.304 -126.021 1157.21
v 131.321 -113.328 1115.64
v 131.535 -113.387 1115.52
v 131.833 -113.488 1117.81
v 131.833 -113.488 1117.81
v 130.999 -112.488 1112.81
v 130.999 -112.488 1112.81
v 130.704 -112.725 1113.61
v 131.092 -112.506 1113.41
v 131.304 -112.688 1114.76
v 131.47 -112.877 1114.55
v 131.47 -112.877 1114.55
v 131.575 -112.897 1115.04
v 131.595 -112.926 1115.82
v 131.857 -113.189 1115.99
v 131.857 -113.189 1115.99
v 132.611 -124.288 1152.21
v 132.769 -124.134 1152.56
v 133.774 -122.488 1148.01
v 133.774 -122.488 1148.01
v 132.834 -114.706 1121.34
v 133.104 -114.99 1122.41
v 133.471 -115.223 1123.27
v 133.749 -114.992 1124.8
v 133.59 -115.288 1125.41
v 133.59 -115.288 1125.41
v 133.74 -115.768 1125.61
v 132.543 -114.088 1118.81
v 132.474 -114.256 1120.44
v 132.704 -113.993 1120.61
v 132.704 -113.993 1120.61
v 132.701 -114.498 1121.37
v 132.848 -114.687 1122
v 132.719 -114.495 1121.5
v 132.904 -114.688 1122.34
v 133.608 -114.688 1122.81
v 133.608 -114.688 1122.81
v 133.608 -114.688 1122.81
v 134.232 -122.819 1147.33
v 134.232 -122.819 1147.33
v 133.892 -123.136 1150.06
v 133.891 -123.893 1150.4
v 134.953 -121.697 1146.02
v 134.299 -122.129 1147.73
v 134.817 -120.469 1141.77
v 134.817 -120.469 1141.77
v 134.764 -120.27 1142.41
v 135.262 -119.566 1140.86
v 135.304 -120.805 1142.21
v 134.871 -118.088 1134.81
v 135.095 -118.381 1134.98
v 134.953 -118.718 1137.27
v 135.304 -119.121 1137.21
v 135.301 -117.973 1135.91
v 134.704 -117.134 1130.61
v 134.704 -117.134 1130.61
v 134.886 -116.517 1130.75
v 134.504 -116.888 1131.11
v 134.679 -117.325 1132.67
v 134.913 -117.691 1132.7
v 135.421 -117.881 1133.79
v 135.287 -117.403 1133.9
v 134.104 -115.771 1125.61
v 135.577 -119.688 1140.81
v 135.69 -118.688 1137.41
vn -0.857196 -0.514886 0.0103549
vn -0.896527 -0.0985058 -0.431899
vn -0.621364 -0.602465 0.500942
vn -0.894216 0.0739342 0.441488
vn -0.897651 0.426123 -0.112436
vn -0.681471 -0.574737 -0.453072
vn -0.641298 -0.767191 -0.0123998
vn -0.799759 0.234613 -0.552578
vn -0.701547 0.640704 0.311978
vn -0.325969 -0.945075 -0.0240261
vn -0.134635 -0.971015 0.197494
vn -0.0699231 -0.990188 -0.120988
vn 0.0709106 -0.961185 0.266637
vn 0.183674 -0.981535 -0.0534117
vn -0.636136 -0.284546 -0.717192
vn -0.444561 -0.479959 -0.75631
vn -0.34423 -0.863048 -0.369668
vn -0.393323 -0.877475 0.274471
vn -0.534096 -0.148597 0.832262
vn -0.511153 0.42991 0.744245
vn -0.173994 -0.838806 0.515879
vn -0.323606 -0.700109 -0.636496
vn -0.222255 -0.53323 0.816253
vn 0.0939882 -0.779228 0.619653
vn -0.27619 0.791025 0.545892
vn 0.0554854 -0.925058 -0.375751
vn 0.305044 -0.895167 0.324998
vn 0.0994932 0.69376 0.713301
vn 0.350206 -0.59731 0.72151
vn 0.361891 -0.931975 -0.0213923
vn 0.354035 0.292283 0.888386
vn -0.168651 -0.0120358 0.985602
vn 0.071807 -0.458873 0.885596
vn 0.2053 -0.107983 0.972724
vn -0.0385591 0.42852 0.902709
vn -0.687855 0.63872 -0.344807
vn -0.678513 0.132769 -0.72249
vn -0.426546 0.903882 -0.0324918
vn -0.580203 0.643553 -0.499203
vn -0.522482 0.847334 0.0950697
vn -0.464327 -0.52483 -0.71341
vn -0.115674 -0.858684 -0.499282
vn 0.210765 -0.965704 -0.151636
vn 0.526275 -0.745562 0.408868
vn 0.534762 -0.271184 0.800305
vn 0.455627 -0.871493 0.181393
vn 0.610587 -0.528621 0.589698
vn -0.606104 0.619815 -0.498466
vn -0.356312 0.921647 -0.153651
vn -0.130884 0.968567 0.211534
vn -0.0881231 0.894038 0.439239
vn 0.578452 0.0733483 0.812412
vn -0.175129 -0.796968 -0.578076
vn 0.171634 -0.953806 -0.246569
vn 0.412163 -0.884108 0.220171
vn -0.707007 -0.0776822 -0.702927
vn -0.774469 0.494234 -0.394879
vn -0.447597 -0.514785 -0.7312
vn -0.6871 0.121575 -0.716319
vn -0.436598 0.870318 -0.227878
vn -0.690445 0.617199 -0.377295
vn -0.20106 0.976913 0.0722236
vn -0.522457 0.841727 -0.136139
vn 0.141392 0.840772 0.5226
vn 0.364342 0.546032 0.75439
vn -0.568632 0.822573 0.00553083
vn 0.618139 -0.6886 0.379123
vn 0.542774 -0.836009 0.0805267
vn -0.369713 -0.649461 -0.664465
vn 0.714357 -0.363347 0.598058
vn 0.382547 0.6234 0.681931
vn 0.733855 -0.567389 0.373532
vn 0.6755 0.0666756 0.734339
vn 0.626378 -0.0754427 0.77586
vn 0.0331732 0.922197 0.385295
vn 0.607157 -0.551584 0.57194
vn 0.561625 0.279597 0.778718
vn -0.82161 0.270224 -0.501932
vn -0.664061 -0.246869 -0.705746
vn -0.639677 0.76713 -0.0482208
vn -0.289843 0.934374 0.207208
vn 0.0395228 0.859384 0.5098
vn -0.031826 -0.878374 -0.476913
vn 0.40612 -0.900166 -0.157378
vn 0.797792 -0.535932 0.276233
vn 0.629616 0.335914 0.700532
vn 0.798367 -0.179513 0.574792
vn -0.611349 -0.503725 -0.610339
vn -0.846966 0.404603 -0.344884
vn -0.393111 -0.731262 -0.557422
vn -0.213025 0.911325 0.352288
vn 0.350939 0.710577 0.609854
vn 0.109037 0.878977 0.464231
vn 0.80155 0.177432 0.570995
vn -0.617633 0.785693 -0.0348662
vn -0.113993 -0.901646 -0.417182
vn -0.894827 0.283193 -0.345089
vn -0.860623 -0.125196 -0.493614
vn -0.716438 0.691833 -0.0899087
vn -0.571645 -0.620291 -0.537086
vn -0.364371 0.910758 0.194303
vn 0.539218 0.624178 0.565372
vn 0.783213 0.326192 0.529317
vn 0.751606 -0.646144 0.13261
vn 0.902316 -0.174545 0.394157
vn -0.788455 -0.36781 -0.493006
vn -0.909125 0.123619 -0.397755
vn -0.826647 0.521641 -0.211056
vn -0.502864 0.862054 0.063168
vn -0.11275 0.941481 0.317649
vn 0.260881 0.842955 0.470498
vn -0.617748 -0.672217 -0.408059
vn -0.368263 -0.822502 -0.433443
vn 0.0657033 -0.958268 -0.278218
vn 0.896432 0.0278051 0.442308
vn 0.543745 0.664548 0.51256
vn -0.938855 -0.172657 -0.297894
vn -0.830424 -0.426205 -0.35881
vn -0.898068 -0.146129 -0.414874
vn -0.848129 0.467267 -0.249678
vn -0.192455 0.964041 0.183266
vn 0.210256 0.898333 0.385733
vn -0.616271 -0.70501 -0.350957
vn -0.352248 -0.888944 -0.292745
vn -0.0492082 -0.965666 -0.255085
vn 0.829022 -0.507809 0.234205
vn -0.924879 -0.364591 -0.108041
vn -0.741199 -0.64879 -0.172325
vn -0.761039 -0.593919 -0.260922
vn -0.617418 0.786549 -0.0116661
vn 0.221762 0.924785 0.309182
vn 0.583786 0.700342 0.410748
vn 0.924137 -0.0843648 0.372632
vn 0.755717 0.439131 0.485857
vn -0.89211 0.311633 -0.327146
vn -0.953721 -0.236117 -0.186186
vn -0.874819 -0.478707 -0.0743692
vn -0.979924 0.112838 -0.164368
vn -0.712347 -0.698206 -0.0712012
vn -0.991118 0.11961 -0.0581187
vn -0.876556 -0.474656 -0.0796941
vn -0.997294 0.0734433 -0.00334762
vn -0.760241 -0.64327 -0.0907575
vn -0.896766 0.442441 0.00756504
vn -0.468946 0.873991 0.127397
vn -0.0753632 0.978824 0.190328
vn -0.779574 0.590272 -0.209388
vn -0.7973 0.59738 -0.0863167
vn -0.458769 0.888466 -0.0126176
vn -0.69547 0.715429 0.0669508
vn -0.12128 0.981559 0.147758
vn 0.202084 -0.964866 -0.167917
vn 0.543087 -0.839609 -0.0106355
vn -0.76424 0.276279 -0.582758
vn -0.925063 -0.30887 -0.221036
vn -0.864811 -0.500643 -0.0381928
vn -0.710077 -0.702079 0.0536187
vn -0.129852 -0.915082 0.381789
vn 0.280629 -0.867848 0.409984
vn 0.168073 -0.837852 0.51938
vn 0.087561 -0.959652 0.26721
vn 0.499941 -0.801318 0.328557
vn 0.805553 -0.585528 -0.0907834
vn 0.963334 -0.267559 0.0199915
vn 0.968268 0.210954 0.133995
vn 0.776149 -0.630548 0.00153814
vn 0.974694 -0.166616 0.149034
vn 0.92692 0.296641 0.229833
vn 0.881718 -0.430234 0.193576
vn 0.85964 0.312989 0.403803
vn 0.433756 0.84975 0.299633
vn 0.954946 0.0588909 0.290879
vn 0.784069 0.526337 0.328945
vn -0.454906 0.630333 -0.629079
vn -0.903351 0.127838 -0.409407
vn -0.556588 0.672216 -0.488196
vn -0.126494 0.834964 -0.535568
vn 0.177731 0.919682 -0.350138
vn -0.417168 -0.902873 0.103879
vn 0.704088 -0.659645 0.262923
vn 0.0135107 -0.992413 0.122203
vn 0.49857 -0.845025 0.193288
vn 0.80023 -0.590225 0.106144
vn 0.288478 -0.955617 0.0597982
vn 0.390807 -0.917423 -0.0748701
vn 0.964477 -0.264157 0.00251885
vn 0.728465 0.67653 0.107916
vn 0.995921 0.0880379 0.0197779
vn 0.801185 0.581533 0.141146
vn 0.341734 0.91952 0.19417
vn 0.707789 0.666899 0.232984
vn -0.100711 0.956865 -0.27252
vn -0.558262 0.771113 -0.306152
vn 0.450953 0.880115 -0.148454
vn 0.806438 0.58936 0.0480862
vn -0.246547 0.963136 -0.107627
vn 0.304723 0.949962 -0.0686777
vn 0.473937 0.879533 0.0424907
vn 0.990367 0.0233411 0.136488
vn -0.0206372 0.998015 0.0595007
vn 0.890124 0.450735 0.0672119
vn 0.430167 0.895197 0.116526
vn -0.908808 -0.276413 -0.312512
vn -0.800498 -0.580522 0.148989
vn -0.232268 -0.702439 0.672779
vn -0.566229 0.347068 -0.747615
vn -0.842123 0.0102749 -0.539188
vn -0.0604942 0.660402 -0.748472
vn -0.255293 -0.767139 0.588493
vn 0.0795945 -0.710626 0.699053
vn -0.411261 0.554828 -0.723208
vn 0.499995 0.74489 -0.441752
vn 0.928861 0.128355 0.34748
vn -0.144251 -0.828209 0.541536
vn 0.520237 -0.647986 0.556297
vn 0.271371 -0.716335 0.642823
vn 0.678255 -0.380497 0.628644
vn -0.0158698 0.770137 -0.637681
vn 0.333187 0.841444 -0.425391
vn 0.749528 0.656602 -0.0841486
vn 0.726287 -0.549439 0.413067
vn 0.966365 -0.0058332 0.257108
vn 0.86992 -0.213609 0.444535
vn 0.93456 0.3083 0.177618
vn -0.702749 0.125461 -0.700288
vn 0.893649 0.215263 0.393769
vn 0.339486 -0.508609 0.791243
vn -0.268744 0.479064 -0.835628
vn 0.234184 0.673295 -0.701307
vn 0.904228 0.408136 0.125685
vn 0.472619 -0.496332 0.728207
vn 0.761324 -0.136164 0.633913
vn -0.544265 0.247057 -0.80171
vn -0.839076 -0.1181 -0.531041
vn 0.33215 -0.424013 0.842549
vn 0.66837 -0.155574 0.727378
vn 0.752671 0.613912 -0.237905
vn -0.8826 -0.459304 -0.100286
vn 0.883086 0.244444 0.400507
vn -0.64894 0.155881 -0.7447
vn -0.18679 0.503709 -0.843437
vn -0.582927 -0.68602 0.435399
vn 0.0514042 -0.565802 0.822937
vn 0.613832 -0.184055 0.76768
vn 0.817639 0.568379 -0.0917136
vn -0.634852 -0.714717 0.293499
vn -0.841014 -0.53939 -0.0418744
vn -0.166604 -0.689905 0.704467
vn -0.341546 0.446378 -0.827099
vn -0.867816 -0.249666 -0.429607
vn 0.0238223 0.640709 -0.767414
vn 0.392291 0.689967 -0.60832
vn 0.842038 0.164235 0.513809
vn -0.837154 -0.525495 -0.15175
vn -0.760961 0.0184338 -0.648535
vn -0.439788 0.411123 -0.798476
vn -0.31312 -0.773316 0.551305
vn 0.310494 -0.462291 0.83059
vn 0.51622 0.723015 -0.459093
vn 0.833581 0.552188 0.0152138
vn -0.789593 -0.604159 -0.107406
vn -0.619299 -0.756222 0.21118
vn 0.172952 -0.615377 0.769025
vn 0.0804856 0.721238 -0.687995
vn 0.61347 -0.219685 0.758547
vn 0.859442 0.457147 0.228859
vn 0.587859 0.75152 -0.299399
vn -0.525809 -0.815474 0.241925
vn -0.71663 0.141903 -0.682866
vn -0.853539 -0.248388 -0.458011
vn -0.223489 -0.811384 0.540101
vn 0.215072 -0.659524 0.720258
vn -0.344563 0.564848 -0.749815
vn 0.528688 -0.371009 0.76344
vn 0.786011 0.00917068 0.618145
vn 0.0132497 -0.791902 0.610505
vn 0.594614 -0.346875 0.725336
vn 0.671657 0.735847 -0.0860538
vn 0.223258 0.821047 -0.525392
vn 0.750779 -0.129893 0.647656
vn 0.308842 0.856354 -0.413854
vn 0.855485 0.24625 0.455529
vn -0.813534 -0.559089 -0.159947
vn -0.72303 0.20652 -0.659225
vn 0.858597 0.133977 0.494834
vn -0.323002 -0.86035 0.394294
vn 0.705868 -0.261487 0.658312
vn -0.151152 0.740864 -0.654426
vn 0.390694 -0.594896 0.702465
vn 0.836852 0.496976 0.229552
vn -0.667898 -0.733586 0.125552
vn -0.474755 -0.823397 0.310845
vn 0.769447 0.638304 0.0227924
vn 0.886145 0.341033 0.313758
vn -0.853157 -0.521384 -0.0167742
vn -0.713177 -0.688931 0.129429
vn -0.908968 -0.249507 -0.333951
vn -0.225629 0.726215 -0.649387
vn 0.0586417 -0.791152 0.608802
vn 0.528559 -0.508969 0.679394
vn 0.540019 0.799648 -0.26257
vn 0.83593 -0.0574389 0.545822
vn -0.743567 -0.648573 0.162668
vn -0.497693 0.561668 -0.660932
vn -0.3886 -0.815559 0.428782
vn 0.019114 -0.793793 0.607887
vn 0.309538 0.82862 -0.466448
vn 0.912273 0.322333 0.252703
vn 0.77526 -0.244076 0.58258
vn -0.763979 -0.622202 0.170882
vn -0.937221 -0.0505018 -0.345059
vn -0.692416 0.405229 -0.59695
vn -0.182512 0.735708 -0.652245
vn -0.158626 -0.808158 0.567202
vn 0.437358 -0.606264 0.6642
vn 0.495381 0.777103 -0.388212
vn 0.911881 -0.00438152 0.410431
vn 0.799864 0.596191 -0.0690949
vn 0.28861 0.803559 -0.520575
vn 0.637651 0.707188 -0.305428
vn 0.882504 0.470256 -0.00670384
vn -0.934001 -0.341486 -0.10502
vn -0.850797 -0.520786 0.0701827
vn 0.283778 -0.69677 0.658773
vn 0.695587 -0.402318 0.595231
vn 0.937436 0.0344235 0.346453
vn -0.860839 0.169492 -0.479822
vn -0.696511 -0.685666 0.211506
vn -0.148159 -0.813022 0.563066
vn -0.525629 0.561355 -0.639214
vn -0.0197227 0.786285 -0.61755
vn 0.473984 0.773825 -0.42016
vn 0.801892 0.579607 -0.145002
vn -0.132363 -0.832378 0.53817
vn -0.9403 -0.273636 -0.202386
vn -0.637053 0.47053 -0.610545
vn -0.209912 0.750146 -0.627071
vn 0.209116 0.821078 -0.531132
vn 0.694654 0.68212 -0.228406
vn 0.945707 0.279584 0.165745
vn -0.794496 0.250468 -0.55321
vn -0.846986 -0.530079 -0.0403823
vn -0.527449 -0.798097 0.29127
vn -0.921536 -0.0719793 -0.381563
vn 0.267321 -0.735678 0.622349
vn 0.928713 0.0688569 0.36435
vn 0.397855 0.826442 -0.398377
vn 0.823549 -0.234151 0.516663
vn 0.848671 0.528921 0.00101335
vn 0.420329 -0.63745 0.645741
vn -0.859967 0.065303 -0.506155
vn -0.908428 -0.318897 -0.270304
vn -0.54523 -0.811721 0.209365
vn 0.174685 -0.802914 0.569924
vn 0.674238 -0.425029 0.603948
vn -0.43909 0.639539 -0.631023
vn 0.0689846 0.855655 -0.512929
vn -0.114485 -0.860132 0.497058
vn 0.911372 0.342727 0.227903
vn 0.879475 -0.0847779 0.468334
vn 0.61869 0.763824 -0.183837
vn -0.864057 -0.439286 -0.245833
vn -0.586566 -0.803491 0.1017
vn -0.0308203 -0.881843 0.470535
vn -0.466182 0.638104 -0.612779
vn 0.190363 0.897826 -0.397076
vn 0.906329 0.202903 0.370672
vn 0.738762 0.673818 0.0141411
vn -0.286769 -0.919622 0.268439
vn 0.812698 0.550512 0.19094
vn -0.883831 -0.209225 -0.41841
vn -0.327961 -0.931208 0.159036
vn -0.75201 -0.640171 -0.157042
vn 0.0498374 -0.916553 0.396795
vn -0.22704 0.821452 -0.523135
vn 0.211936 -0.829982 0.515959
vn 0.512411 -0.610695 0.603727
vn 0.837823 -0.124725 0.531503
vn 0.353093 0.906358 -0.232038
vn -0.615864 -0.779685 -0.113149
vn -0.86781 -0.326771 -0.374335
vn -0.472872 0.746524 -0.468075
vn 0.48825 -0.679223 0.547967
vn -0.258168 0.848086 -0.46271
vn 0.458331 0.886686 -0.0609953
vn 0.850795 0.394841 0.34677
vn -0.890178 0.0832181 -0.447949
vn -0.759264 -0.585962 -0.283137
vn -0.261174 -0.957616 0.121486
vn 0.151455 -0.917885 0.36681
vn 0.49373 -0.722551 0.483892
vn -0.660141 0.584612 -0.471638
vn -0.791208 0.346439 -0.503955
vn 0.014794 0.964593 -0.263328
vn 0.485615 0.873031 0.0446652
vn 0.860732 -0.0931023 0.500472
vn 0.725831 0.648354 0.229795
vn 0.713209 -0.436148 0.548734
vn -0.593713 -0.772797 -0.224254
vn -0.376713 -0.925346 -0.0426785
vn 0.0172461 -0.978923 0.203502
vn 0.408399 -0.832425 0.374538
vn 0.718966 -0.493101 0.489836
vn -0.54688 0.756867 -0.357875
vn 0.0448231 0.989613 -0.13659
vn 0.640516 0.739044 0.208694
vn -0.33915 -0.924355 -0.17477
vn 0.278462 -0.951571 0.130271
vn -0.174184 -0.984281 -0.0291599
vn -0.871702 -0.332531 -0.359943
vn -0.802415 0.492471 -0.33705
vn 0.628773 -0.714175 0.307569
vn 0.912926 0.103509 0.394782
vn 0.2102 -0.957841 0.195849
vn 0.675709 -0.619888 0.398943
vn 0.87175 -0.179223 0.455995
vn 0.869572 0.313398 0.381611
vn -0.761915 0.617026 -0.196886
vn -0.256354 0.961484 -0.0991483
vn 0.0125046 -0.999255 -0.0365231
vn 0.387128 -0.919176 0.0724391
vn -0.941611 -0.0880563 -0.324984
vn -0.645344 -0.706063 -0.291559
vn -0.0301059 -0.991583 -0.125926
vn 0.92896 0.16748 0.330126
vn 0.934783 -0.0267043 0.354214
vn 0.740297 -0.645882 0.18654
vn 0.932966 -0.22513 0.280876
vn 0.603006 -0.767386 0.217949
vn 0.83042 -0.467135 0.303625
vn 0.787316 0.526983 0.320036
vn 0.866525 -0.30894 0.392033
vn -0.354267 0.935046 -0.0135422
vn 0.143379 0.978628 0.147411
vn 0.486553 0.837682 0.248104
vn 0.3832 0.911142 0.151584
vn 0.444247 -0.895628 0.0222547
vn -0.923251 0.14672 -0.355079
vn -0.864969 -0.37633 -0.331969
vn -0.929464 0.248159 -0.272972
vn -0.118302 0.990182 0.0744619
vn -0.621997 0.775759 -0.106386
vn 0.22555 -0.972498 0.0580918
vn 0.0949339 -0.991106 -0.0932507
vn 0.452322 -0.890289 0.0528265
vn -0.900891 -0.169074 -0.399761
vn -0.806738 0.437247 -0.397477
vn -0.743841 0.621236 -0.246507
vn -0.373058 -0.905644 -0.201585
vn 0.911339 0.246629 0.3296
vn 0.48312 0.838852 0.250843
vn 0.835062 -0.504847 0.218635
vn -0.468991 0.85013 -0.23943
vn -0.336689 0.937774 -0.0849718
vn 0.158672 0.982095 0.101554
vn -0.753274 -0.619019 -0.222249
vn -0.739064 -0.621626 -0.259548
vn 0.0505646 -0.97089 0.234128
vn 0.480512 -0.775284 0.40993
vn 0.406554 -0.863071 0.299703
vn -0.770965 0.389185 -0.504132
vn -0.415436 0.792208 -0.447012
vn -0.595316 0.694156 -0.404655
vn -0.259562 0.937975 -0.229848
vn -0.280204 0.901191 -0.330668
vn 0.0913048 0.987997 -0.124601
vn 0.906154 0.100592 0.410811
vn 0.691429 -0.62812 0.356918
vn 0.885095 -0.216055 0.412222
vn 0.772699 0.571014 0.277273
vn 0.68031 -0.697791 0.2242
vn 0.590981 0.774867 0.224327
vn 0.906278 -0.222806 0.35919
vn 0.917007 0.172015 0.359873
vn 0.178889 0.983772 0.0138057
vn -0.64036 -0.762674 -0.0909277
vn -0.814895 -0.512289 -0.27112
vn 0.100408 -0.934454 0.341635
vn -0.263079 -0.955262 0.135142
vn 0.17244 -0.927172 0.33259
vn 0.428868 -0.781257 0.453553
vn 0.731613 -0.446249 0.515368
vn 0.870593 -0.0839186 0.484794
vn 0.414066 0.908357 -0.0586346
vn 0.0619089 0.971982 -0.226754
vn 0.877351 0.287656 0.384071
vn 0.826092 -0.308195 0.471793
vn 0.497122 0.864821 0.0703842
vn -0.81441 -0.534137 -0.226791
vn -0.897243 -0.0757204 -0.434996
vn -0.588711 0.639542 -0.494373
vn 0.759426 0.614816 0.212778
vn -0.705913 0.614226 -0.352721
vn -0.854963 -0.466139 -0.227494
vn -0.926032 -0.222858 -0.30463
vn -0.352928 -0.930902 0.0941415
vn -0.773305 0.460971 -0.435322
vn 0.145855 -0.924463 0.352269
vn 0.647564 -0.584393 0.489026
vn 0.778046 -0.442412 0.446
vn 0.869273 -0.130437 0.476814
vn -0.0228515 0.957154 -0.288675
vn 0.863468 0.420742 0.278208
vn 0.8921 0.210733 0.399686
vn -0.913583 0.229088 -0.335983
vn -0.891679 -0.362943 -0.27052
vn -0.606878 -0.785753 -0.119544
vn -0.103203 -0.991946 0.0734267
vn -0.544364 -0.83773 -0.0433172
vn 0.478141 -0.833867 0.275767
vn 0.748435 -0.54861 0.372655
vn -0.0386292 -0.983665 0.175815
vn 0.0794305 -0.962313 0.260084
vn -0.616394 0.732954 -0.287813
vn -0.132334 0.979145 -0.154154
vn -0.282097 0.918673 -0.276518
vn 0.819606 0.540693 0.189466
vn 0.300067 0.950761 -0.0775396
vn 0.549109 0.835654 0.0126947
vn -0.82439 -0.448354 -0.345485
vn -0.928892 -0.120314 -0.350262
vn -0.813008 0.474528 -0.337403
vn -0.695208 -0.681023 -0.229987
vn -0.281922 -0.957669 -0.0582285
vn 0.335557 -0.926233 0.171736
vn 0.629296 -0.72829 0.271257
vn 0.321286 0.944944 0.0620971
vn -0.412107 0.888275 -0.202818
vn 0.234216 0.971921 -0.0226464
vn 0.948398 0.0184008 0.316548
vn -0.891301 0.0160284 -0.453129
vn -0.909172 0.071956 -0.410157
vn -0.789035 -0.47009 -0.395524
vn -0.471093 -0.854613 -0.218419
vn -0.0293922 -0.999529 -0.00888143
vn 0.918896 0.131747 0.371851
vn 0.899231 -0.237176 0.367601
vn -0.504294 0.831435 -0.233247
vn -0.159825 0.983288 -0.087182
vn 0.812109 0.509597 0.284235
vn -0.818893 -0.330888 -0.468964
vn -0.84274 0.302375 -0.445375
vn 0.00435602 -0.999033 -0.0437463
vn -0.762733 0.532687 -0.366719
vn 0.504753 -0.832725 0.227582
vn 0.7002 0.633541 0.32916
vn 0.874544 0.240211 0.421273
vn 0.868961 -0.284244 0.405108
vn -0.289262 0.949756 -0.119548
vn -0.537141 -0.776578 -0.329251
vn 0.767498 -0.517034 0.378975
vn 0.879153 0.0900297 0.467958
vn 0.763058 0.503126 0.405717
vn 0.356606 0.908514 0.217795
vn -0.247185 -0.944191 -0.217723
vn -0.562569 0.784843 -0.259878
vn -0.00804868 0.997717 0.0670477
vn 0.527081 0.774753 0.349205
vn 0.244667 -0.96885 0.0383077
vn 0.485567 -0.851129 0.19951
vn -0.831067 -0.248645 -0.497496
vn -0.56407 0.792764 -0.230975
vn 0.0481466 0.990934 0.12543
vn -0.0592358 -0.987927 -0.143149
vn 0.751797 -0.56144 0.345813
vn -0.881024 -0.12589 -0.456014
vn -0.664388 -0.619193 -0.418555
vn 0.708261 0.55934 0.430703
vn -0.258915 0.965532 -0.0266798
vn 0.47252 0.823749 0.313309
vn 0.473963 -0.870397 0.133297
vn 0.880831 0.131176 0.454896
vn -0.92469 0.00551076 -0.380681
vn -0.798103 -0.471124 -0.375599
vn 0.304909 -0.952308 0.0118395
vn 0.698651 -0.682788 0.213746
vn 0.903969 -0.213357 0.370565
vn 0.864384 0.299163 0.404156
vn -0.308195 -0.920797 -0.239058
vn 0.815685 -0.46609 0.342662
vn -0.626985 0.757236 -0.182983
vn -0.571212 -0.778865 -0.25901
vn -0.428846 -0.867987 -0.250378
vn -0.0481872 -0.990715 -0.127132
vn 0.741547 -0.646097 0.180739
vn 0.884259 -0.364993 0.291319
vn 0.933267 0.00895759 0.359072
vn -0.858253 -0.400718 -0.320667
vn 0.223445 0.961377 0.160707
vn 0.647106 0.712994 0.269988
vn -0.764705 0.616419 -0.187761
vn 0.836819 0.433669 0.334163
vn 0.949826 -0.0741388 0.303866
vn 0.685959 0.642705 0.341161
vn 0.256004 0.94783 0.189948
vn 0.493948 -0.868444 0.0426524
vn -0.980267 0.00219477 -0.197665
vn -0.634968 -0.742303 -0.214016
vn -0.920268 0.340682 -0.192465
vn -0.18487 -0.970266 -0.156226
vn 0.925909 -0.335451 0.173683
vn -0.848419 -0.460528 -0.260958
vn -0.440907 0.89744 -0.0142185
vn 0.631406 0.740706 0.229522
vn 0.928321 0.248485 0.276542
vn 0.898764 -0.382122 0.214957
vn 0.207409 -0.973209 -0.099225
vn 0.983744 -0.0721055 0.164465
vn 0.608851 -0.792849 0.0262777
vn 0.904557 0.362393 0.224606
vn -0.32866 0.94195 0.0686466
vn -0.866651 0.492156 -0.0818502
vn -0.953053 -0.232183 -0.194371
vn -0.0304553 0.993781 0.107107
vn -0.706138 0.705523 -0.0600489
vn 0.525648 0.828428 0.193393
vn 0.143299 0.980948 0.13117
vn -0.629779 -0.743365 -0.225362
vn 0.0798894 -0.985008 -0.152898
vn -0.208451 -0.955732 -0.207666
vn -0.964673 0.235274 -0.118538
vn 0.736688 -0.676231 -0.00131203
vn -0.2728 -0.943909 -0.186053
vn 0.282477 0.944582 0.167246
vn 0.691071 -0.722521 0.0195844
vn 0.739563 0.641702 0.203139
vn -0.528179 -0.807992 -0.261104
vn -0.942371 -0.250334 -0.221967
vn -0.720356 0.693515 0.0111256
vn 0.988684 -0.033358 0.146256
vn 0.34626 0.911267 0.222927
vn -0.608337 0.793235 0.0265493
vn -0.229659 0.966926 0.110952
vn -0.825773 -0.493479 -0.273088
vn 0.177654 -0.968151 -0.176415
vn -0.977329 0.0140073 -0.211263
vn -0.943949 -0.150887 -0.293588
vn -0.408174 -0.848741 -0.336204
vn 0.973944 -0.163631 0.157027
vn 0.39387 0.876725 0.276081
vn -0.378459 0.917398 0.123085
vn 0.343463 -0.916039 -0.207139
vn -0.636501 -0.668284 -0.385049
vn -0.136553 -0.939251 -0.314899
vn 0.849572 -0.524356 0.0572481
vn 0.513105 -0.850899 -0.112667
vn -0.961318 0.113449 -0.250993
vn -0.857494 -0.346084 -0.380697
vn 0.0990724 0.933281 0.345212
vn 0.112923 0.93486 0.336578
vn 0.661209 0.641168 0.389495
vn 0.968521 -0.00974281 0.248741
vn -0.376048 0.913475 0.155407
vn -0.235223 -0.890305 -0.389907
vn 0.657845 -0.749172 -0.0773346
vn 0.958519 -0.193159 0.209599
vn 0.786138 0.471297 0.399833
vn 0.0173699 0.931871 0.362373
vn -0.109619 -0.910312 -0.399143
vn -0.63188 -0.632084 -0.44855
vn -0.925422 -0.134076 -0.354425
vn 0.179744 0.900997 0.394838
vn 0.889516 -0.444892 0.104083
vn 0.65009 0.622397 0.435894
vn 0.00394859 0.935759 0.352618
vn 0.324713 0.854148 0.406193
vn -0.689062 -0.50234 -0.522349
vn -0.689062 -0.50234 -0.522349
vn -0.667244 -0.743677 0.041582
vn -0.679559 -0.730179 0.0709823
vn -0.689062 -0.50234 -0.522349
vn -0.793639 0.559346 0.239312
vn -0.861311 0.376727 0.340911
vn -0.83028 0.417633 0.369078
vn -0.686783 0.50723 -0.520622
vn 0.62248 -0.688255 -0.372591
vn 0.44333 -0.728499 -0.522253
vn -0.403506 0.856288 0.322419
vn -0.824026 0.443368 0.352711
vn 0.124339 0.675068 -0.727203
vn -0.950717 0.0116052 -0.309842
vn -0.808427 -0.403082 -0.428918
vn -0.754253 0.656099 0.0252359
vn 0.759444 0.486944 0.431429
vn 0.184621 0.891973 0.412674
vn 0.370992 0.820374 0.435146
vn 0.699742 -0.628223 -0.340143
vn -0.920733 -0.357467 0.156426
vn -0.170458 -0.970003 -0.173314
vn -0.963238 -0.159991 0.215815
vn 0.91521 -0.261765 -0.306382
vn 0.896921 -0.320468 -0.304686
vn -0.833888 0.441746 0.330895
vn 0.974237 0.0990092 -0.202632
vn 0.611504 0.791066 -0.0166435
vn 0.928868 -0.206456 -0.307538
vn 0.911146 -0.281074 -0.301348
vn 0.663399 0.747597 -0.0316428
vn 0.626069 0.779488 0.0208962
vn 0.904023 -0.307825 -0.296625
vn 0.5818 -0.800867 -0.141849
vn -0.855525 -0.332992 -0.396476
vn 0.228319 -0.920611 -0.316774
vn -0.3537 -0.818637 -0.452471
vn 0.363163 -0.890918 -0.272723
vn 0.951151 0.0758567 0.29926
vn 0.784825 -0.619301 -0.0227191
vn 0.945209 -0.26035 0.196971
vn -0.950869 -0.0417028 -0.306772
vn -0.75132 0.657352 0.0583704
vn -0.895039 -0.295373 -0.334156
vn -0.0814804 -0.972424 -0.218525
vn -0.822401 -0.564981 0.0667289
vn -0.0688987 -0.971419 -0.227152
vn -0.289764 0.912373 0.289159
vn -0.960381 -0.249482 0.124208
vn -0.903635 -0.422897 0.0678393
vn 0.0266309 -0.9703 -0.240433
vn -0.923512 -0.356638 0.141188
vn -0.895952 0.34313 0.282014
vn 0.444655 0.890268 0.0985141
vn 0.908601 -0.304156 -0.286241
vn -0.829468 -0.549826 0.0983534
vn -0.833323 -0.548732 0.0668291
vn -0.94758 0.176791 0.266152
vn -0.951874 0.175062 0.251574
vn -0.885849 0.366708 0.284246
vn -0.80113 0.499409 0.329819
vn -0.890189 -0.441372 0.112938
vn 0.564276 0.823345 0.0607858
vn -0.627111 0.710273 0.319758
vn 0.210763 -0.920399 -0.329311
vn 0.0650613 0.916904 0.393768
vn 0.638276 -0.756477 -0.14264
vn 0.865854 -0.496026 -0.0652331
vn 0.967176 0.153775 0.202295
vn -0.338835 0.897746 0.2815
vn 0.68376 -0.717159 -0.134743
vn 0.953392 0.121785 0.276065
vn 0.965276 -0.242398 0.0973948
vn 0.980343 0.0283823 0.195247
vn -0.00427677 0.927035 0.37495
vn -0.872612 0.473691 0.11902
vn -0.810372 -0.503991 -0.298816
vn -0.993586 0.0522132 -0.100307
vn -0.441423 0.859773 0.256781
vn 0.648719 -0.731433 -0.210165
vn 0.751962 0.583277 0.307149
vn -0.208848 0.926707 0.312405
vn 0.390977 0.838389 0.379792
vn -0.835265 -0.537382 -0.116421
vn -0.792267 -0.591156 -0.151154
vn 0.295236 -0.905995 -0.30333
vn -0.919021 -0.382705 -0.0945413
vn -0.927683 0.354608 0.116863
vn -0.5846 0.773073 0.246173
vn -0.402986 -0.868754 -0.287869
vn -0.22594 0.931022 0.286616
vn -0.818536 -0.543299 -0.186616
vn 0.863053 -0.43461 -0.257398
vn -0.00907273 -0.965056 -0.261888
vn 0.716682 0.693034 0.0779143
vn -0.862316 -0.504793 -0.0399391
vn -0.907145 -0.420817 0.000585456
vn 0.31943 -0.898563 -0.300912
vn -0.890704 -0.453897 -0.0249611
vn -0.791884 -0.604246 -0.0883544
vn -0.459419 0.840051 0.288529
vn 0.537844 -0.797858 -0.272298
vn 0.98294 -0.12723 -0.132822
vn 0.915602 0.402085 0.000701276
vn 0.723411 0.676832 0.136289
vn -0.754984 0.614759 0.228187
vn 0.900675 -0.328523 -0.284355
vn -0.00909771 -0.969794 -0.243755
vn 0.890873 0.452635 -0.0382882
vn 0.996824 0.0354718 0.0712936
vn 0.98582 -0.165353 0.0285877
vn 0.979503 -0.166919 -0.112751
vn 0.848393 -0.504533 -0.160238
vn 0.998267 -0.0500876 -0.0308915
vn 0.941741 0.334596 0.0342064
vn -0.990737 0.13579 0.000568446
vn -0.839333 0.0790348 -0.537842
vn 0.630589 -0.775237 0.036956
vn -0.897245 0.423702 -0.124211
vn -0.118333 -0.970899 -0.208213
vn -0.0485034 -0.998643 0.0189859
vn -0.131079 -0.98314 -0.127494
vn -0.39919 -0.803064 0.44242
vn 0.941404 -0.227983 0.24856
vn -0.905205 -0.317275 -0.282737
vn -0.911978 -0.0373734 -0.408534
vn -0.541279 0.508666 -0.669534
vn -0.881929 0.077978 -0.464888
vn -0.464668 -0.776383 0.425809
vn -0.606468 0.556996 -0.567408
vn -0.208147 0.92762 -0.310154
vn -0.13173 -0.989673 0.0565214
vn -0.12024 -0.992281 0.030356
vn -0.796603 0.438648 -0.415946
vn -0.355339 0.860011 -0.366217
vn 0.92326 0.203994 0.325542
vn 0.950183 0.0878063 0.299069
vn 0.678473 -0.600335 0.423406
vn 0.93347 -0.14592 0.32763
vn -0.224353 0.964069 -0.142253
vn 0.702106 0.695354 0.153393
vn 0.765834 0.610579 0.20172
vn 0.632008 -0.725822 0.271566
vn 0.442556 0.877237 0.186008
vn 0.389431 0.914838 0.10684
vn -0.77481 0.516779 -0.364155
vn -0.674683 0.694011 -0.251299
vn -0.677792 0.706051 -0.205159
vn -0.0955649 0.993621 0.0598681
vn -0.910738 0.327456 -0.251652
vn -0.094501 0.992782 0.0738445
vn 0.981305 -0.156288 0.112314
vn 0.456836 0.863218 0.214838
vn 0.857985 0.459626 0.229358
vn -0.496663 0.865235 0.0685149
vn 0.490774 0.850508 0.189149
vn 0.0404637 -0.972083 -0.231121
vn -0.404689 -0.850783 -0.335253
vn -0.520531 0.845976 0.115634
vn -0.907192 -0.316588 -0.277082
vn 0.915511 0.309993 0.256407
vn 0.339632 0.901911 0.266848
vn -0.645266 0.760974 0.0674516
vn 0.6158 0.672444 0.410621
vn -0.586242 0.803325 0.104833
vn 0.120875 0.938542 0.323309
vn 0.618473 0.696383 0.364064
vn 0.56208 0.758185 0.330487
vn 0.17143 0.934317 0.31251
vn -0.715786 0.697342 0.0369428
vn 0.899619 0.228686 0.372007
vn -0.626703 0.774716 0.0840157
vn -0.828203 -0.558856 0.0419489
vn -0.848264 0.458649 0.264743
vn -0.686783 0.50723 -0.520622
vn -0.634016 -0.773126 -0.0172974
vn 0.276672 -0.756451 -0.59265
vn -0.884034 0.318017 0.342563
vn -0.686783 0.50723 -0.520622
vn 0.0755474 -0.691186 -0.718717
vn 0.124339 0.675068 -0.727203
vn -0.363507 0.864688 0.346667
vn -0.434354 0.841232 0.321973
vn -0.785399 0.580063 0.216043
vn 0.0868994 0.695195 -0.713549
vn -0.340533 0.883313 0.322172
vn 0.12331 0.986483 0.107915
vn -0.599995 -0.799117 0.0376646
vn -0.32134 -0.939828 -0.116036
vn 0.161531 0.653595 -0.739406
vn 0.939394 0.227061 -0.256872
vn 0.334737 0.934213 0.123276
vn -0.48071 0.833701 0.271774
vn 0.456992 0.887897 0.052891
vn -0.311567 0.904459 0.29134
vn 0.313614 0.943919 0.103259
vn 0.939394 0.227061 -0.256872
vn -0.690053 0.721727 0.0541924
vn -0.086555 0.93508 0.343705
vn -0.326494 -0.936644 -0.12688
vn 0.657092 -0.686437 -0.311503
vn -0.498013 0.807892 0.31511
vn -0.876451 0.373666 0.303655
vn 0.939394 0.227061 -0.256872
vn 0.48909 0.869889 0.0638996
vn -0.814732 -0.572258 0.09345
vn 0.582288 0.812921 -0.00996725
vn -0.330057 0.897432 0.292708
vn 0.947971 0.198101 -0.249215
vn 0.708659 0.70196 -0.0711012
vn 0.964679 0.14051 -0.222826
vn -0.402096 0.867138 0.293923
vn 0.960188 0.141833 -0.24067
vn 0.711438 0.702658 -0.0113128
vn -0.756724 0.652398 0.0417837
vn -0.0245321 0.928039 0.371674
vn -0.709991 0.695168 0.112486
vn -0.984088 0.127999 -0.123235
vn -0.84092 -0.535526 0.0778852
vn -0.0816074 -0.970077 -0.228672
vn 0.75464 -0.570786 -0.323606
vn 0.54832 0.831137 0.0925001
vn -0.561688 0.769538 0.30384
vn -0.847519 0.459877 0.265
vn -0.0465657 -0.971266 -0.233396
vn 0.824529 -0.462522 -0.325922
vn -0.882635 0.376688 0.281179
vn -0.679349 0.6671 0.305718
vn -0.197351 0.941391 0.273561
vn -0.981796 0.0202488 0.188855
vn -0.977627 0.0227754 0.209109
vn -0.846359 -0.525802 0.084901
vn -0.912701 0.312901 0.262812
vn 0.813508 -0.484619 -0.32148
vn 0.962202 0.175126 -0.208562
vn 0.954793 0.269996 -0.124389
vn -0.783341 -0.487816 -0.385242
vn -0.251834 -0.881407 -0.399628
vn 0.70972 0.567039 0.418047
vn 0.959591 -0.243191 0.141572
vn 0.675564 0.633334 0.377494
vn 0.64673 0.647511 0.403076
vn -0.994197 0.0927571 -0.054484
vn -0.560516 -0.768052 -0.309706
vn -0.512296 0.829235 0.223433
vn 0.313788 0.888609 0.334531
vn -0.300038 -0.887254 -0.350368
vn -0.952937 0.268165 0.141419
vn -0.220037 -0.934291 -0.280505
vn -0.955889 -0.280688 -0.0865463
vn 0.543304 -0.797053 -0.263679
vn 0.552882 0.798941 0.236673
vn 0.311796 -0.89869 -0.308448
vn -0.796139 -0.600759 -0.0724668
vn -0.0313128 0.963497 0.265881
vn -0.811041 0.524881 0.258288
vn -0.844596 0.48705 0.222352
vn 0.14021 -0.94719 -0.288398
vn 0.905425 -0.374685 -0.199542
vn 0.0191541 0.962711 0.269853
vn 0.691393 -0.656554 -0.301517
vn 0.431435 0.851847 0.297019
vn 0.574199 0.786549 0.227237
g grp1
usemtl mtl1
f 17//17 10//10 7//7 
f 6//6 17//17 7//7 
f 1//1 3//3 4//4 
f 6//6 1//1 2//2 
f 783//783 5//5 2//2 
f 783//783 4//4 5//5 
f 5//5 4//4 9//9 
f 2//2 5//5 8//8 
f 6//6 7//7 1//1 
f 7//7 18//18 3//3 
f 1//1 7//7 3//3 
f 2//2 15//15 6//6 
f 3//3 19//19 4//4 
f 8//8 15//15 2//2 
f 19//19 20//20 4//4 
f 36//36 8//8 5//5 
f 6//6 22//22 17//17 
f 10//10 18//18 7//7 
f 22//22 6//6 15//15 
f 4//4 20//20 9//9 
f 17//17 26//26 12//12 
f 17//17 12//12 10//10 
f 12//12 11//11 10//10 
f 12//12 13//13 11//11 
f 21//21 11//11 13//13 
f 26//26 14//14 12//12 
f 14//14 13//13 12//12 
f 14//14 27//27 13//13 
f 30//30 14//14 26//26 
f 27//27 14//14 30//30 
f 15//15 16//16 22//22 
f 36//36 37//37 8//8 
f 42//42 22//22 16//16 
f 37//37 15//15 8//8 
f 37//37 16//16 15//15 
f 11//11 18//18 10//10 
f 11//11 21//21 18//18 
f 21//21 3//3 18//18 
f 3//3 21//21 23//23 
f 19//19 3//3 23//23 
f 36//36 5//5 40//40 
f 22//22 42//42 26//26 
f 26//26 17//17 22//22 
f 23//23 21//21 24//24 
f 24//24 21//21 13//13 
f 24//24 29//29 33//33 
f 13//13 27//27 24//24 
f 28//28 51//51 25//25 
f 27//27 29//29 24//24 
f 33//33 29//29 34//34 
f 28//28 31//31 65//65 
f 65//65 51//51 28//28 
f 42//42 43//43 26//26 
f 29//29 45//45 34//34 
f 45//45 31//31 34//34 
f 26//26 43//43 30//30 
f 30//30 44//44 27//27 
f 44//44 45//45 29//29 
f 44//44 29//29 27//27 
f 19//19 23//23 32//32 
f 32//32 20//20 19//19 
f 23//23 24//24 33//33 
f 33//33 32//32 23//23 
f 25//25 9//9 20//20 
f 33//33 34//34 32//32 
f 34//34 35//35 32//32 
f 35//35 20//20 32//32 
f 35//35 25//25 20//20 
f 28//28 25//25 35//35 
f 31//31 28//28 35//35 
f 34//34 31//31 35//35 
f 38//38 36//36 40//40 
f 36//36 39//39 37//37 
f 36//36 38//38 39//39 
f 39//39 38//38 49//49 
f 37//37 39//39 59//59 
f 5//5 9//9 40//40 
f 9//9 25//25 40//40 
f 40//40 25//25 51//51 
f 38//38 40//40 51//51 
f 16//16 41//41 42//42 
f 41//41 16//16 59//59 
f 59//59 16//16 37//37 
f 46//46 44//44 30//30 
f 46//46 47//47 44//44 
f 45//45 44//44 47//47 
f 43//43 46//46 30//30 
f 45//45 52//52 31//31 
f 52//52 65//65 31//31 
f 47//47 52//52 45//45 
f 47//47 74//74 52//52 
f 59//59 39//39 48//48 
f 48//48 39//39 60//60 
f 49//49 60//60 39//39 
f 49//49 38//38 50//50 
f 49//49 50//50 62//62 
f 75//75 50//50 64//64 
f 60//60 49//49 62//62 
f 62//62 50//50 75//75 
f 38//38 51//51 50//50 
f 51//51 65//65 64//64 
f 64//64 50//50 51//51 
f 53//53 42//42 41//41 
f 42//42 53//53 54//54 
f 54//54 43//43 42//42 
f 54//54 55//55 43//43 
f 43//43 55//55 46//46 
f 46//46 55//55 47//47 
f 59//59 56//56 41//41 
f 57//57 56//56 59//59 
f 61//61 57//57 59//59 
f 56//56 58//58 41//41 
f 58//58 53//53 41//41 
f 57//57 61//61 66//66 
f 66//66 61//61 63//63 
f 58//58 69//69 53//53 
f 61//61 59//59 48//48 
f 63//63 61//61 48//48 
f 48//48 60//60 63//63 
f 81//81 60//60 62//62 
f 60//60 81//81 63//63 
f 81//81 62//62 75//75 
f 64//64 71//71 75//75 
f 64//64 65//65 71//71 
f 65//65 74//74 77//77 
f 65//65 52//52 74//74 
f 66//66 63//63 81//81 
f 68//68 55//55 54//54 
f 68//68 67//67 55//55 
f 67//67 76//76 55//55 
f 54//54 84//84 68//68 
f 76//76 47//47 55//55 
f 79//79 58//58 56//56 
f 78//78 79//79 56//56 
f 69//69 58//58 79//79 
f 69//69 79//79 88//88 
f 69//69 88//88 90//90 
f 78//78 56//56 57//57 
f 53//53 83//83 54//54 
f 83//83 53//53 69//69 
f 54//54 83//83 84//84 
f 82//82 75//75 71//71 
f 67//67 70//70 76//76 
f 70//70 74//74 76//76 
f 73//73 74//74 70//70 
f 68//68 72//72 67//67 
f 72//72 70//70 67//67 
f 72//72 87//87 70//70 
f 68//68 84//84 85//85 
f 72//72 68//68 85//85 
f 70//70 87//87 73//73 
f 73//73 86//86 71//71 
f 77//77 71//71 65//65 
f 74//74 47//47 76//76 
f 73//73 77//77 74//74 
f 77//77 73//73 71//71 
f 78//78 784//784 79//79 
f 784//784 78//78 89//89 
f 78//78 57//57 80//80 
f 80//80 89//89 78//78 
f 80//80 91//91 101//101 
f 66//66 80//80 57//57 
f 80//80 66//66 91//91 
f 91//91 66//66 81//81 
f 81//81 82//82 91//91 
f 81//81 75//75 82//82 
f 71//71 92//92 82//82 
f 69//69 90//90 83//83 
f 94//94 87//87 85//85 
f 87//87 86//86 73//73 
f 85//85 87//87 72//72 
f 89//89 98//98 784//784 
f 88//88 100//100 90//90 
f 90//90 100//100 96//96 
f 96//96 83//83 90//90 
f 95//95 89//89 80//80 
f 101//101 95//95 80//80 
f 82//82 92//92 91//91 
f 86//86 94//94 92//92 
f 91//91 92//92 93//93 
f 87//87 94//94 86//86 
f 102//102 92//92 94//94 
f 92//92 102//102 93//93 
f 86//86 92//92 71//71 
f 89//89 97//97 98//98 
f 99//99 89//89 95//95 
f 95//95 101//101 99//99 
f 99//99 97//97 89//89 
f 101//101 91//91 93//93 
f 100//100 88//88 98//98 
f 85//85 84//84 104//104 
f 102//102 94//94 103//103 
f 106//106 100//100 98//98 
f 102//102 111//111 93//93 
f 102//102 116//116 111//111 
f 110//110 101//101 93//93 
f 96//96 84//84 83//83 
f 96//96 113//113 114//114 
f 114//114 84//84 96//96 
f 125//125 114//114 113//113 
f 113//113 100//100 106//106 
f 100//100 113//113 96//96 
f 104//104 84//84 785//785 
f 105//105 85//85 104//104 
f 104//104 785//785 126//126 
f 126//126 105//105 104//104 
f 105//105 126//126 115//115 
f 102//102 103//103 116//116 
f 105//105 103//103 94//94 
f 94//94 85//85 105//105 
f 115//115 103//103 105//105 
f 106//106 98//98 107//107 
f 107//107 119//119 106//106 
f 108//108 107//107 97//97 
f 107//107 108//108 120//120 
f 97//97 107//107 98//98 
f 120//120 108//108 109//109 
f 99//99 108//108 97//97 
f 101//101 109//109 99//99 
f 108//108 99//99 109//109 
f 122//122 110//110 111//111 
f 111//111 116//116 122//122 
f 122//122 109//109 110//110 
f 109//109 101//101 110//110 
f 111//111 110//110 93//93 
f 119//119 107//107 120//120 
f 121//121 109//109 122//122 
f 120//120 109//109 130//130 
f 118//118 112//112 119//119 
f 112//112 118//118 123//123 
f 106//106 119//119 112//112 
f 113//113 106//106 112//112 
f 125//125 113//113 112//112 
f 103//103 115//115 134//134 
f 103//103 134//134 116//116 
f 119//119 120//120 117//117 
f 786//786 120//120 130//130 
f 130//130 121//121 146//146 
f 146//146 121//121 131//131 
f 131//131 121//121 122//122 
f 134//134 132//132 122//122 
f 122//122 132//132 131//131 
f 130//130 109//109 121//121 
f 134//134 122//122 116//116 
f 112//112 124//124 125//125 
f 124//124 112//112 123//123 
f 125//125 153//153 114//114 
f 153//153 126//126 785//785 
f 126//126 133//133 115//115 
f 128//128 127//127 143//143 
f 787//787 789//789 152//152 
f 185//185 152//152 789//789 
f 127//127 786//786 144//144 
f 129//129 123//123 118//118 
f 129//129 118//118 117//117 
f 129//129 117//117 127//127 
f 123//123 129//129 124//124 
f 129//129 127//127 128//128 
f 124//124 129//129 128//128 
f 787//787 152//152 124//124 
f 152//152 125//125 124//124 
f 118//118 119//119 117//117 
f 786//786 130//130 144//144 
f 145//145 130//130 146//146 
f 171//171 146//146 131//131 
f 170//170 132//132 134//134 
f 131//131 132//132 171//171 
f 115//115 133//133 134//134 
f 170//170 134//134 133//133 
f 136//136 157//157 137//137 
f 135//135 147//147 193//193 
f 136//136 137//137 138//138 
f 138//138 147//147 135//135 
f 135//135 136//136 138//138 
f 179//179 137//137 157//157 
f 137//137 141//141 140//140 
f 137//137 140//140 138//138 
f 137//137 139//139 141//141 
f 179//179 139//139 137//137 
f 148//148 138//138 140//140 
f 788//788 184//184 185//185 
f 141//141 142//142 140//140 
f 142//142 150//150 140//140 
f 142//142 141//141 127//127 
f 142//142 144//144 150//150 
f 127//127 141//141 143//143 
f 789//789 788//788 185//185 
f 139//139 143//143 141//141 
f 144//144 142//142 127//127 
f 151//151 146//146 190//190 
f 130//130 145//145 144//144 
f 190//190 146//146 171//171 
f 196//196 193//193 147//147 
f 147//147 138//138 148//148 
f 148//148 196//196 147//147 
f 196//196 148//148 149//149 
f 150//150 148//148 140//140 
f 148//148 150//150 149//149 
f 149//149 150//150 200//200 
f 196//196 149//149 200//200 
f 151//151 200//200 150//150 
f 144//144 145//145 150//150 
f 150//150 145//145 151//151 
f 200//200 151//151 202//202 
f 151//151 145//145 146//146 
f 125//125 152//152 153//153 
f 153//153 169//169 126//126 
f 133//133 126//126 169//169 
f 175//175 154//154 155//155 
f 176//176 154//154 175//175 
f 211//211 174//174 218//218 
f 155//155 156//156 157//157 
f 214//214 790//790 209//209 
f 790//790 214//214 158//158 
f 157//157 790//790 158//158 
f 158//158 160//160 159//159 
f 158//158 159//159 161//161 
f 159//159 221//221 162//162 
f 180//180 162//162 221//221 
f 157//157 158//158 179//179 
f 158//158 161//161 179//179 
f 159//159 162//162 161//161 
f 185//185 186//186 163//163 
f 186//186 188//188 163//163 
f 185//185 163//163 152//152 
f 163//163 188//188 164//164 
f 163//163 164//164 166//166 
f 166//166 164//164 167//167 
f 164//164 165//165 167//167 
f 165//165 189//189 191//191 
f 164//164 188//188 165//165 
f 188//188 189//189 165//165 
f 152//152 166//166 153//153 
f 152//152 163//163 166//166 
f 153//153 166//166 169//169 
f 167//167 169//169 166//166 
f 167//167 168//168 172//172 
f 167//167 165//165 168//168 
f 168//168 165//165 191//191 
f 172//172 133//133 169//169 
f 170//170 133//133 172//172 
f 169//169 167//167 172//172 
f 173//173 170//170 172//172 
f 170//170 173//173 132//132 
f 173//173 171//171 132//132 
f 173//173 191//191 171//171 
f 168//168 173//173 172//172 
f 173//173 168//168 191//191 
f 211//211 154//154 174//174 
f 177//177 218//218 174//174 
f 136//136 175//175 155//155 
f 175//175 136//136 135//135 
f 175//175 135//135 176//176 
f 174//174 154//154 176//176 
f 193//193 176//176 135//135 
f 177//177 174//174 176//176 
f 177//177 176//176 178//178 
f 177//177 178//178 219//219 
f 220//220 219//219 178//178 
f 155//155 157//157 136//136 
f 179//179 161//161 181//181 
f 162//162 182//182 161//161 
f 182//182 162//162 180//180 
f 222//222 199//199 791//791 
f 788//788 179//179 181//181 
f 184//184 788//788 181//181 
f 161//161 182//182 181//181 
f 182//182 184//184 181//181 
f 184//184 182//182 183//183 
f 182//182 180//180 183//183 
f 183//183 791//791 199//199 
f 184//184 183//183 185//185 
f 199//199 201//201 186//186 
f 185//185 183//183 186//186 
f 183//183 199//199 186//186 
f 202//202 190//190 187//187 
f 186//186 201//201 188//188 
f 201//201 187//187 188//188 
f 190//190 191//191 189//189 
f 188//188 187//187 189//189 
f 189//189 187//187 190//190 
f 171//171 191//191 190//190 
f 193//193 192//192 176//176 
f 192//192 193//193 196//196 
f 197//197 192//192 196//196 
f 192//192 178//178 176//176 
f 192//192 197//197 194//194 
f 194//194 178//178 192//192 
f 220//220 178//178 194//194 
f 195//195 194//194 197//197 
f 220//220 194//194 195//195 
f 199//199 195//195 201//201 
f 195//195 198//198 201//201 
f 198//198 195//195 197//197 
f 198//198 196//196 200//200 
f 198//198 200//200 202//202 
f 197//197 196//196 198//198 
f 198//198 202//202 201//201 
f 201//201 202//202 187//187 
f 190//190 202//202 151//151 
f 207//207 225//225 203//203 
f 790//790 204//204 205//205 
f 227//227 205//205 235//235 
f 207//207 206//206 225//225 
f 154//154 207//207 155//155 
f 207//207 203//203 155//155 
f 207//207 154//154 206//206 
f 206//206 154//154 211//211 
f 204//204 155//155 203//203 
f 204//204 156//156 155//155 
f 209//209 205//205 210//210 
f 214//214 209//209 210//210 
f 209//209 790//790 205//205 
f 210//210 205//205 227//227 
f 210//210 227//227 231//231 
f 231//231 216//216 210//210 
f 214//214 210//210 216//216 
f 206//206 211//211 208//208 
f 218//218 208//208 211//211 
f 212//212 208//208 218//218 
f 213//213 223//223 217//217 
f 220//220 213//213 230//230 
f 158//158 214//214 216//216 
f 216//216 160//160 158//158 
f 216//216 215//215 160//160 
f 216//216 217//217 215//215 
f 215//215 217//217 223//223 
f 223//223 213//213 224//224 
f 231//231 217//217 216//216 
f 215//215 159//159 160//160 
f 221//221 159//159 215//215 
f 223//223 221//221 215//215 
f 219//219 218//218 177//177 
f 212//212 218//218 219//219 
f 212//212 219//219 220//220 
f 213//213 220//220 224//224 
f 222//222 224//224 195//195 
f 223//223 224//224 222//222 
f 222//222 221//221 223//223 
f 195//195 224//224 220//220 
f 791//791 221//221 222//222 
f 199//199 222//222 195//195 
f 225//225 234//234 203//203 
f 235//235 232//232 227//227 
f 232//232 235//235 236//236 
f 233//233 225//225 228//228 
f 225//225 206//206 228//228 
f 208//208 228//228 206//206 
f 229//229 228//228 208//208 
f 229//229 208//208 212//212 
f 212//212 230//230 237//237 
f 230//230 226//226 237//237 
f 232//232 217//217 231//231 
f 227//227 232//232 231//231 
f 226//226 230//230 232//232 
f 217//217 232//232 213//213 
f 212//212 220//220 230//230 
f 232//232 230//230 213//213 
f 203//203 238//238 204//204 
f 234//234 238//238 203//203 
f 238//238 242//242 204//204 
f 242//242 205//205 204//204 
f 225//225 233//233 234//234 
f 233//233 228//228 241//241 
f 229//229 241//241 228//228 
f 235//235 244//244 236//236 
f 236//236 226//226 232//232 
f 237//237 252//252 229//229 
f 229//229 212//212 237//237 
f 243//243 235//235 205//205 
f 252//252 241//241 229//229 
f 244//244 265//265 253//253 
f 239//239 244//244 253//253 
f 226//226 244//244 239//239 
f 245//245 252//252 237//237 
f 244//244 226//226 236//236 
f 226//226 245//245 237//237 
f 239//239 245//245 226//226 
f 238//238 247//247 242//242 
f 238//238 250//250 247//247 
f 234//234 250//250 238//238 
f 234//234 240//240 250//250 
f 233//233 241//241 240//240 
f 234//234 233//233 240//240 
f 243//243 205//205 242//242 
f 243//243 258//258 244//244 
f 245//245 239//239 260//260 
f 239//239 253//253 260//260 
f 243//243 244//244 235//235 
f 250//250 254//254 247//247 
f 250//250 270//270 254//254 
f 255//255 240//240 256//256 
f 240//240 249//249 256//256 
f 270//270 250//250 255//255 
f 247//247 246//246 242//242 
f 256//256 249//249 251//251 
f 240//240 255//255 250//250 
f 240//240 241//241 249//249 
f 242//242 246//246 248//248 
f 243//243 242//242 248//248 
f 258//258 243//243 248//248 
f 249//249 241//241 251//251 
f 241//241 252//252 251//251 
f 251//251 252//252 259//259 
f 245//245 259//259 252//252 
f 260//260 259//259 245//245 
f 265//265 244//244 258//258 
f 261//261 254//254 270//270 
f 246//246 254//254 262//262 
f 257//257 246//246 262//262 
f 246//246 247//247 254//254 
f 248//248 246//246 257//257 
f 263//263 258//258 248//248 
f 263//263 265//265 258//258 
f 264//264 256//256 251//251 
f 266//266 267//267 260//260 
f 260//260 253//253 266//266 
f 259//259 264//264 251//251 
f 267//267 264//264 259//259 
f 260//260 267//267 259//259 
f 262//262 261//261 268//268 
f 271//271 257//257 262//262 
f 263//263 257//257 271//271 
f 261//261 262//262 254//254 
f 248//248 257//257 263//263 
f 273//273 269//269 256//256 
f 264//264 273//273 256//256 
f 255//255 256//256 269//269 
f 253//253 275//275 266//266 
f 282//282 266//266 275//275 
f 274//274 275//275 265//265 
f 266//266 282//282 278//278 
f 274//274 265//265 263//263 
f 266//266 278//278 267//267 
f 253//253 265//265 275//275 
f 269//269 273//273 284//284 
f 255//255 269//269 270//270 
f 270//270 269//269 284//284 
f 268//268 271//271 262//262 
f 263//263 271//271 272//272 
f 263//263 272//272 274//274 
f 274//274 272//272 277//277 
f 279//279 273//273 264//264 
f 277//277 275//275 274//274 
f 277//277 282//282 275//275 
f 267//267 279//279 264//264 
f 267//267 278//278 279//279 
f 283//283 268//268 261//261 
f 273//273 288//288 284//284 
f 270//270 284//284 283//283 
f 283//283 261//261 270//270 
f 288//288 273//273 279//279 
f 286//286 276//276 268//268 
f 268//268 276//276 271//271 
f 271//271 276//276 272//272 
f 277//277 272//272 276//276 
f 279//279 278//278 281//281 
f 290//290 278//278 282//282 
f 277//277 280//280 282//282 
f 283//283 286//286 268//268 
f 286//286 289//289 276//276 
f 289//289 277//277 276//276 
f 291//291 286//286 283//283 
f 300//300 289//289 299//299 
f 298//298 284//284 288//288 
f 285//285 302//302 294//294 
f 302//302 285//285 287//287 
f 290//290 285//285 294//294 
f 289//289 286//286 299//299 
f 279//279 281//281 288//288 
f 287//287 285//285 280//280 
f 289//289 287//287 280//280 
f 282//282 285//285 290//290 
f 282//282 280//280 285//285 
f 289//289 280//280 277//277 
f 301//301 298//298 281//281 
f 283//283 284//284 297//297 
f 281//281 298//298 288//288 
f 300//300 302//302 287//287 
f 289//289 300//300 287//287 
f 291//291 292//292 286//286 
f 283//283 297//297 792//792 
f 292//292 299//299 286//286 
f 302//302 308//308 294//294 
f 278//278 301//301 281//281 
f 293//293 301//301 278//278 
f 278//278 290//290 293//293 
f 290//290 294//294 293//293 
f 308//308 293//293 294//294 
f 295//295 296//296 291//291 
f 292//292 296//296 305//305 
f 793//793 792//792 297//297 
f 292//292 305//305 299//299 
f 292//292 291//291 296//296 
f 298//298 304//304 794//794 
f 794//794 284//284 298//298 
f 309//309 302//302 300//300 
f 309//309 308//308 302//302 
f 301//301 307//307 298//298 
f 308//308 301//301 293//293 
f 795//795 311//311 793//793 
f 295//295 311//311 310//310 
f 793//793 297//297 795//795 
f 295//295 303//303 296//296 
f 314//314 306//306 305//305 
f 314//314 315//315 306//306 
f 313//313 304//304 298//298 
f 305//305 296//296 303//303 
f 299//299 305//305 306//306 
f 315//315 299//299 306//306 
f 299//299 315//315 300//300 
f 315//315 309//309 300//300 
f 313//313 298//298 307//307 
f 313//313 307//307 316//316 
f 316//316 307//307 318//318 
f 307//307 301//301 318//318 
f 317//317 318//318 308//308 
f 317//317 308//308 309//309 
f 308//308 318//318 301//301 
f 310//310 314//314 305//305 
f 311//311 795//795 312//312 
f 313//313 312//312 304//304 
f 310//310 305//305 303//303 
f 310//310 303//303 295//295 
f 317//317 309//309 315//315 
f 316//316 319//319 313//313 
f 321//321 316//316 318//318 
f 318//318 317//317 321//321 
f 330//330 327//327 312//312 
f 312//312 327//327 311//311 
f 312//312 313//313 330//330 
f 313//313 331//331 330//330 
f 319//319 331//331 313//313 
f 314//314 324//324 315//315 
f 320//320 319//319 316//316 
f 332//332 319//319 320//320 
f 326//326 340//340 321//321 
f 316//316 321//321 320//320 
f 326//326 321//321 317//317 
f 322//322 310//310 311//311 
f 322//322 323//323 310//310 
f 314//314 329//329 324//324 
f 315//315 324//324 325//325 
f 319//319 332//332 331//331 
f 333//333 320//320 321//321 
f 320//320 333//333 332//332 
f 333//333 321//321 340//340 
f 325//325 317//317 315//315 
f 325//325 326//326 317//317 
f 327//327 344//344 335//335 
f 335//335 322//322 327//327 
f 323//323 322//322 328//328 
f 337//337 336//336 330//330 
f 311//311 327//327 322//322 
f 330//330 336//336 327//327 
f 334//334 329//329 328//328 
f 796//796 328//328 329//329 
f 329//329 334//334 350//350 
f 331//331 337//337 330//330 
f 310//310 796//796 314//314 
f 314//314 796//796 329//329 
f 333//333 339//339 332//332 
f 325//325 324//324 350//350 
f 350//350 324//324 329//329 
f 325//325 350//350 348//348 
f 325//325 348//348 326//326 
f 344//344 342//342 335//335 
f 342//342 328//328 335//335 
f 328//328 342//342 343//343 
f 328//328 322//322 335//335 
f 327//327 341//341 344//344 
f 336//336 341//341 327//327 
f 338//338 337//337 331//331 
f 347//347 339//339 349//349 
f 345//345 350//350 334//334 
f 331//331 332//332 338//338 
f 339//339 338//338 332//332 
f 340//340 349//349 339//339 
f 348//348 340//340 326//326 
f 340//340 339//339 333//333 
f 352//352 341//341 351//351 
f 356//356 341//341 336//336 
f 342//342 352//352 353//353 
f 343//343 342//342 353//353 
f 344//344 352//352 342//342 
f 344//344 341//341 352//352 
f 347//347 361//361 357//357 
f 334//334 328//328 343//343 
f 359//359 346//346 360//360 
f 356//356 336//336 337//337 
f 357//357 356//356 337//337 
f 337//337 338//338 347//347 
f 347//347 357//357 337//337 
f 359//359 349//349 346//346 
f 348//348 355//355 360//360 
f 350//350 355//355 348//348 
f 360//360 346//346 348//348 
f 349//349 340//340 346//346 
f 338//338 339//339 347//347 
f 346//346 340//340 348//348 
f 362//362 351//351 371//371 
f 351//351 362//362 352//352 
f 362//362 353//353 352//352 
f 343//343 353//353 358//358 
f 358//358 353//353 354//354 
f 355//355 354//354 377//377 
f 351//351 341//341 365//365 
f 365//365 341//341 356//356 
f 356//356 357//357 365//365 
f 334//334 343//343 358//358 
f 355//355 345//345 354//354 
f 367//367 359//359 360//360 
f 334//334 358//358 345//345 
f 355//355 350//350 345//345 
f 345//345 358//358 354//354 
f 360//360 355//355 367//367 
f 366//366 357//357 361//361 
f 361//361 349//349 359//359 
f 361//361 347//347 349//349 
f 373//373 363//363 362//362 
f 362//362 363//363 353//353 
f 371//371 373//373 362//362 
f 364//364 353//353 363//363 
f 353//353 364//364 354//354 
f 354//354 364//364 377//377 
f 366//366 375//375 365//365 
f 366//366 365//365 357//357 
f 361//361 359//359 368//368 
f 359//359 367//367 368//368 
f 366//366 361//361 368//368 
f 369//369 363//363 373//373 
f 369//369 364//364 363//363 
f 369//369 376//376 364//364 
f 364//364 376//376 377//377 
f 351//351 365//365 797//797 
f 375//375 797//797 365//365 
f 355//355 377//377 378//378 
f 379//379 368//368 370//370 
f 368//368 367//367 370//370 
f 367//367 355//355 378//378 
f 367//367 378//378 370//370 
f 375//375 366//366 379//379 
f 366//366 368//368 379//379 
f 373//373 372//372 369//369 
f 380//380 372//372 373//373 
f 374//374 369//369 372//372 
f 374//374 376//376 369//369 
f 382//382 797//797 384//384 
f 384//384 797//797 375//375 
f 379//379 384//384 375//375 
f 380//380 389//389 372//372 
f 393//393 381//381 371//371 
f 382//382 393//393 797//797 
f 381//381 380//380 373//373 
f 381//381 373//373 371//371 
f 384//384 394//394 382//382 
f 374//374 383//383 376//376 
f 377//377 376//376 383//383 
f 390//390 383//383 374//374 
f 372//372 390//390 374//374 
f 377//377 383//383 378//378 
f 398//398 378//378 383//383 
f 385//385 384//384 379//379 
f 385//385 370//370 386//386 
f 379//379 370//370 385//385 
f 378//378 386//386 370//370 
f 388//388 381//381 387//387 
f 380//380 400//400 389//389 
f 388//388 380//380 381//381 
f 388//388 400//400 380//380 
f 400//400 401//401 389//389 
f 401//401 390//390 389//389 
f 389//389 390//390 372//372 
f 391//391 390//390 402//402 
f 391//391 383//383 390//390 
f 404//404 387//387 393//393 
f 387//387 381//381 393//393 
f 404//404 393//393 392//392 
f 393//393 382//382 392//392 
f 798//798 382//382 405//405 
f 405//405 394//394 395//395 
f 405//405 382//382 394//394 
f 385//385 395//395 394//394 
f 397//397 395//395 385//385 
f 386//386 397//397 385//385 
f 378//378 398//398 396//396 
f 386//386 378//378 396//396 
f 398//398 383//383 391//391 
f 403//403 396//396 398//398 
f 391//391 403//403 398//398 
f 385//385 394//394 384//384 
f 422//422 410//410 411//411 
f 387//387 410//410 388//388 
f 387//387 411//411 410//410 
f 399//399 388//388 410//410 
f 387//387 404//404 411//411 
f 399//399 400//400 388//388 
f 414//414 401//401 400//400 
f 409//409 400//400 399//399 
f 409//409 414//414 400//400 
f 402//402 401//401 414//414 
f 414//414 415//415 402//402 
f 415//415 403//403 402//402 
f 401//401 402//402 390//390 
f 403//403 391//391 402//402 
f 403//403 416//416 396//396 
f 417//417 396//396 416//416 
f 798//798 405//405 404//404 
f 436//436 405//405 406//406 
f 405//405 395//395 406//406 
f 406//406 395//395 397//397 
f 417//417 406//406 397//397 
f 396//396 417//417 386//386 
f 397//397 386//386 417//417 
f 409//409 399//399 407//407 
f 407//407 420//420 409//409 
f 420//420 408//408 409//409 
f 408//408 414//414 409//409 
f 408//408 412//412 414//414 
f 412//412 408//408 429//429 
f 422//422 411//411 418//418 
f 419//419 418//418 411//411 
f 410//410 423//423 399//399 
f 399//399 423//423 407//407 
f 436//436 406//406 431//431 
f 430//430 412//412 429//429 
f 412//412 415//415 414//414 
f 412//412 432//432 415//415 
f 413//413 431//431 417//417 
f 432//432 416//416 415//415 
f 416//416 403//403 415//415 
f 416//416 432//432 413//413 
f 416//416 413//413 417//417 
f 419//419 433//433 418//418 
f 434//434 419//419 436//436 
f 411//411 404//404 419//419 
f 419//419 404//404 405//405 
f 419//419 405//405 436//436 
f 406//406 417//417 431//431 
f 407//407 424//424 420//420 
f 424//424 421//421 420//420 
f 420//420 421//421 408//408 
f 437//437 421//421 424//424 
f 429//429 408//408 421//421 
f 423//423 410//410 422//422 
f 423//423 449//449 424//424 
f 423//423 424//424 407//407 
f 444//444 437//437 424//424 
f 427//427 421//421 437//437 
f 428//428 430//430 427//427 
f 428//428 426//426 430//430 
f 428//428 425//425 426//426 
f 429//429 421//421 427//427 
f 427//427 430//430 429//429 
f 430//430 426//426 432//432 
f 426//426 425//425 431//431 
f 432//432 412//412 430//430 
f 432//432 426//426 413//413 
f 426//426 431//431 413//413 
f 442//442 418//418 433//433 
f 435//435 436//436 431//431 
f 434//434 436//436 435//435 
f 433//433 419//419 434//434 
f 443//443 444//444 449//449 
f 449//449 444//444 424//424 
f 437//437 444//444 445//445 
f 452//452 437//437 445//445 
f 427//427 437//437 452//452 
f 427//427 452//452 428//428 
f 452//452 450//450 428//428 
f 428//428 450//450 425//425 
f 446//446 457//457 439//439 
f 448//448 447//447 438//438 
f 422//422 440//440 439//439 
f 438//438 439//439 440//440 
f 446//446 439//439 438//438 
f 440//440 448//448 438//438 
f 442//442 448//448 440//440 
f 454//454 448//448 442//442 
f 441//441 454//454 442//442 
f 439//439 423//423 422//422 
f 422//422 418//418 440//440 
f 440//440 418//418 442//442 
f 441//441 442//442 433//433 
f 441//441 433//433 434//434 
f 434//434 435//435 451//451 
f 435//435 431//431 451//451 
f 450//450 431//431 425//425 
f 431//431 450//450 451//451 
f 449//449 799//799 443//443 
f 468//468 471//471 443//443 
f 471//471 445//445 443//443 
f 452//452 445//445 471//471 
f 443//443 445//445 444//444 
f 447//447 461//461 446//446 
f 461//461 447//447 463//463 
f 463//463 447//447 453//453 
f 463//463 453//453 464//464 
f 438//438 447//447 446//446 
f 457//457 449//449 439//439 
f 448//448 453//453 447//447 
f 449//449 423//423 439//439 
f 451//451 450//450 472//472 
f 471//471 473//473 452//452 
f 450//450 452//452 473//473 
f 434//434 451//451 441//441 
f 475//475 464//464 453//453 
f 453//453 448//448 454//454 
f 453//453 454//454 475//475 
f 454//454 455//455 475//475 
f 454//454 441//441 455//455 
f 475//475 455//455 472//472 
f 451//451 472//472 455//455 
f 455//455 441//441 451//451 
f 479//479 458//458 799//799 
f 456//456 479//479 457//457 
f 458//458 459//459 460//460 
f 487//487 468//468 459//459 
f 458//458 800//800 799//799 
f 800//800 443//443 799//799 
f 459//459 468//468 460//460 
f 460//460 468//468 443//443 
f 490//490 461//461 491//491 
f 491//491 461//461 462//462 
f 461//461 490//490 446//446 
f 446//446 490//490 456//456 
f 462//462 461//461 463//463 
f 462//462 463//463 465//465 
f 465//465 466//466 485//485 
f 485//485 462//462 465//465 
f 456//456 457//457 446//446 
f 465//465 463//463 464//464 
f 475//475 466//466 464//464 
f 466//466 465//465 464//464 
f 488//488 466//466 475//475 
f 470//470 467//467 486//486 
f 485//485 466//466 488//488 
f 488//488 475//475 470//470 
f 473//473 468//468 469//469 
f 467//467 473//473 469//469 
f 473//473 467//467 474//474 
f 467//467 470//470 474//474 
f 469//469 468//468 487//487 
f 472//472 470//470 475//475 
f 469//469 487//487 467//467 
f 468//468 473//473 471//471 
f 473//473 474//474 450//450 
f 474//474 470//470 450//450 
f 450//450 470//470 472//472 
f 490//490 477//477 456//456 
f 476//476 479//479 456//456 
f 477//477 476//476 456//456 
f 478//478 480//480 479//479 
f 478//478 481//481 480//480 
f 480//480 459//459 458//458 
f 480//480 458//458 479//479 
f 481//481 459//459 480//480 
f 481//481 482//482 459//459 
f 483//483 504//504 486//486 
f 482//482 487//487 459//459 
f 483//483 487//487 482//482 
f 502//502 485//485 484//484 
f 491//491 462//462 502//502 
f 502//502 462//462 485//485 
f 484//484 485//485 488//488 
f 486//486 467//467 483//483 
f 488//488 492//492 484//484 
f 483//483 467//467 487//487 
f 470//470 492//492 488//488 
f 486//486 492//492 470//470 
f 490//490 489//489 477//477 
f 477//477 489//489 476//476 
f 496//496 479//479 476//476 
f 498//498 481//481 478//478 
f 479//479 498//498 478//478 
f 483//483 482//482 501//501 
f 501//501 504//504 483//483 
f 504//504 492//492 486//486 
f 519//519 502//502 484//484 
f 494//494 509//509 489//489 
f 494//494 489//489 495//495 
f 497//497 493//493 801//801 
f 493//493 802//802 516//516 
f 490//490 495//495 489//489 
f 491//491 801//801 490//490 
f 509//509 496//496 489//489 
f 801//801 491//491 497//497 
f 516//516 802//802 502//502 
f 476//476 489//489 496//496 
f 479//479 496//496 498//498 
f 513//513 498//498 496//496 
f 482//482 499//499 501//501 
f 499//499 498//498 805//805 
f 500//500 501//501 499//499 
f 803//803 503//503 501//501 
f 500//500 499//499 805//805 
f 517//517 519//519 503//503 
f 803//803 517//517 503//503 
f 499//499 482//482 481//481 
f 499//499 481//481 498//498 
f 504//504 501//501 503//503 
f 502//502 802//802 491//491 
f 519//519 518//518 502//502 
f 492//492 503//503 519//519 
f 492//492 504//504 503//503 
f 484//484 492//492 519//519 
f 507//507 509//509 494//494 
f 506//506 507//507 494//494 
f 506//506 495//495 505//505 
f 506//506 494//494 495//495 
f 507//507 508//508 509//509 
f 510//510 512//512 508//508 
f 512//512 509//509 508//508 
f 512//512 496//496 509//509 
f 526//526 511//511 510//510 
f 512//512 513//513 496//496 
f 510//510 513//513 512//512 
f 510//510 511//511 805//805 
f 527//527 515//515 529//529 
f 801//801 493//493 505//505 
f 493//493 514//514 505//505 
f 514//514 493//493 516//516 
f 515//515 514//514 516//516 
f 515//515 516//516 518//518 
f 515//515 518//518 529//529 
f 517//517 808//808 518//518 
f 516//516 502//502 518//518 
f 530//530 517//517 804//804 
f 517//517 803//803 804//804 
f 805//805 511//511 500//500 
f 519//519 517//517 518//518 
f 538//538 522//522 528//528 
f 523//523 506//506 521//521 
f 534//534 523//523 520//520 
f 524//524 523//523 534//534 
f 520//520 521//521 532//532 
f 520//520 523//523 521//521 
f 505//505 514//514 522//522 
f 507//507 524//524 508//508 
f 506//506 505//505 521//521 
f 521//521 505//505 522//522 
f 507//507 523//523 524//524 
f 523//523 507//507 506//506 
f 525//525 508//508 524//524 
f 806//806 537//537 536//536 
f 536//536 530//530 806//806 
f 510//510 508//508 525//525 
f 526//526 510//510 525//525 
f 525//525 810//810 526//526 
f 806//806 530//530 804//804 
f 522//522 514//514 528//528 
f 528//528 514//514 515//515 
f 528//528 515//515 807//807 
f 809//809 808//808 517//517 
f 532//532 531//531 533//533 
f 522//522 544//544 532//532 
f 538//538 544//544 522//522 
f 522//522 532//532 521//521 
f 533//533 534//534 520//520 
f 533//533 520//520 532//532 
f 534//534 535//535 524//524 
f 535//535 525//525 524//524 
f 545//545 525//525 535//535 
f 540//540 536//536 546//546 
f 545//545 810//810 525//525 
f 540//540 808//808 809//809 
f 809//809 536//536 540//540 
f 538//538 528//528 539//539 
f 539//539 528//528 807//807 
f 811//811 527//527 812//812 
f 529//529 812//812 527//527 
f 541//541 531//531 542//542 
f 550//550 534//534 533//533 
f 541//541 533//533 531//531 
f 550//550 533//533 541//541 
f 534//534 550//550 543//543 
f 544//544 531//531 532//532 
f 544//544 542//542 531//531 
f 545//545 535//535 543//543 
f 534//534 543//543 535//535 
f 547//547 553//553 546//546 
f 536//536 547//547 546//546 
f 548//548 547//547 536//536 
f 810//810 545//545 548//548 
f 548//548 536//536 537//537 
f 549//549 544//544 538//538 
f 549//549 538//538 539//539 
f 549//549 539//539 554//554 
f 554//554 811//811 546//546 
f 557//557 549//549 554//554 
f 546//546 553//553 554//554 
f 546//546 811//811 812//812 
f 561//561 567//567 541//541 
f 550//550 541//541 567//567 
f 542//542 561//561 541//541 
f 551//551 552//552 548//548 
f 545//545 551//551 548//548 
f 548//548 552//552 547//547 
f 553//553 547//547 552//552 
f 549//549 556//556 544//544 
f 556//556 549//549 557//557 
f 567//567 555//555 550//550 
f 550//550 555//555 543//543 
f 542//542 544//544 556//556 
f 553//553 558//558 554//554 
f 554//554 558//558 557//557 
f 552//552 558//558 553//553 
f 564//564 555//555 567//567 
f 564//564 559//559 555//555 
f 555//555 559//559 543//543 
f 559//559 560//560 543//543 
f 551//551 545//545 560//560 
f 560//560 545//545 543//543 
f 562//562 542//542 556//556 
f 571//571 559//559 564//564 
f 552//552 551//551 565//565 
f 559//559 565//565 560//560 
f 565//565 551//551 560//560 
f 561//561 566//566 567//567 
f 542//542 562//562 813//813 
f 814//814 813//813 562//562 
f 557//557 562//562 556//556 
f 562//562 557//557 563//563 
f 563//563 557//557 558//558 
f 571//571 565//565 559//559 
f 569//569 814//814 562//562 
f 569//569 562//562 563//563 
f 569//569 563//563 570//570 
f 570//570 563//563 558//558 
f 568//568 570//570 558//558 
f 568//568 558//558 552//552 
f 566//566 573//573 574//574 
f 574//574 567//567 566//566 
f 564//564 567//567 579//579 
f 567//567 574//574 579//579 
f 575//575 571//571 564//564 
f 575//575 564//564 579//579 
f 571//571 580//580 565//565 
f 572//572 565//565 580//580 
f 570//570 568//568 572//572 
f 552//552 565//565 572//572 
f 572//572 568//568 552//552 
f 583//583 579//579 574//574 
f 579//579 584//584 575//575 
f 570//570 572//572 578//578 
f 576//576 580//580 571//571 
f 576//576 571//571 575//575 
f 576//576 577//577 580//580 
f 580//580 577//577 572//572 
f 572//572 577//577 578//578 
f 815//815 581//581 591//591 
f 816//816 595//595 818//818 
f 814//814 581//581 815//815 
f 569//569 581//581 814//814 
f 816//816 569//569 595//595 
f 595//595 569//569 570//570 
f 578//578 594//594 570//570 
f 582//582 583//583 574//574 
f 582//582 584//584 583//583 
f 582//582 600//600 584//584 
f 600//600 596//596 584//584 
f 584//584 596//596 575//575 
f 585//585 596//596 606//606 
f 583//583 584//584 579//579 
f 585//585 575//575 596//596 
f 577//577 576//576 586//586 
f 586//586 587//587 577//577 
f 575//575 585//585 576//576 
f 576//576 585//585 586//586 
f 593//593 586//586 585//585 
f 586//586 593//593 587//587 
f 593//593 592//592 587//587 
f 592//592 578//578 587//587 
f 577//577 587//587 578//578 
f 602//602 582//582 588//588 
f 602//602 817//817 599//599 
f 817//817 591//591 599//599 
f 603//603 818//818 617//617 
f 817//817 815//815 591//591 
f 617//617 818//818 589//589 
f 604//604 589//589 590//590 
f 582//582 574//574 588//588 
f 574//574 573//573 588//588 
f 606//606 605//605 593//593 
f 593//593 585//585 606//606 
f 818//818 595//595 589//589 
f 595//595 590//590 589//589 
f 605//605 592//592 593//593 
f 590//590 592//592 605//605 
f 590//590 595//595 592//592 
f 594//594 578//578 592//592 
f 570//570 594//594 595//595 
f 594//594 592//592 595//595 
f 615//615 597//597 599//599 
f 598//598 602//602 597//597 
f 602//602 599//599 597//597 
f 599//599 591//591 603//603 
f 600//600 602//602 598//598 
f 609//609 596//596 600//600 
f 596//596 601//601 606//606 
f 605//605 601//601 610//610 
f 582//582 602//602 600//600 
f 589//589 604//604 617//617 
f 605//605 606//606 601//601 
f 610//610 604//604 605//605 
f 590//590 605//605 604//604 
f 615//615 599//599 603//603 
f 614//614 603//603 617//617 
f 619//619 622//622 607//607 
f 598//598 607//607 600//600 
f 609//609 607//607 625//625 
f 625//625 608//608 609//609 
f 607//607 609//609 600//600 
f 608//608 601//601 609//609 
f 608//608 610//610 601//601 
f 601//601 596//596 609//609 
f 610//610 616//616 604//604 
f 632//632 612//612 611//611 
f 621//621 613//613 612//612 
f 611//611 614//614 624//624 
f 624//624 614//614 616//616 
f 597//597 615//615 612//612 
f 613//613 598//598 597//597 
f 612//612 613//613 597//597 
f 612//612 615//615 611//611 
f 611//611 615//615 614//614 
f 615//615 603//603 614//614 
f 616//616 610//610 626//626 
f 610//610 608//608 626//626 
f 617//617 604//604 616//616 
f 617//617 616//616 614//614 
f 607//607 622//622 625//625 
f 627//627 620//620 618//618 
f 627//627 635//635 620//620 
f 635//635 619//619 620//620 
f 635//635 622//622 619//619 
f 618//618 619//619 623//623 
f 619//619 618//618 620//620 
f 819//819 622//622 630//630 
f 618//618 598//598 613//613 
f 632//632 629//629 621//621 
f 612//612 632//632 621//621 
f 598//598 618//618 623//623 
f 819//819 630//630 608//608 
f 598//598 623//623 607//607 
f 632//632 611//611 633//633 
f 623//623 619//619 607//607 
f 823//823 624//624 626//626 
f 823//823 820//820 631//631 
f 823//823 626//626 820//820 
f 608//608 630//630 626//626 
f 624//624 633//633 611//611 
f 624//624 616//616 626//626 
f 629//629 822//822 641//641 
f 628//628 613//613 621//621 
f 628//628 618//618 613//613 
f 618//618 628//628 627//627 
f 621//621 629//629 628//628 
f 631//631 820//820 640//640 
f 629//629 632//632 822//822 
f 633//633 822//822 632//632 
f 622//622 646//646 639//639 
f 646//646 622//622 635//635 
f 627//627 628//628 634//634 
f 824//824 635//635 627//627 
f 639//639 652//652 828//828 
f 640//640 829//829 631//631 
f 622//622 639//639 630//630 
f 828//828 821//821 639//639 
f 644//644 638//638 643//643 
f 643//643 827//827 637//637 
f 827//827 636//636 637//637 
f 827//827 628//628 636//636 
f 827//827 634//634 628//628 
f 644//644 825//825 638//638 
f 644//644 646//646 824//824 
f 635//635 824//824 646//646 
f 644//644 642//642 646//646 
f 629//629 636//636 628//628 
f 826//826 629//629 653//653 
f 629//629 641//641 653//653 
f 640//640 835//835 829//829 
f 643//643 654//654 644//644 
f 654//654 642//642 644//644 
f 640//640 834//834 835//835 
f 646//646 642//642 645//645 
f 639//639 646//646 645//645 
f 835//835 834//834 651//651 
f 639//639 645//645 652//652 
f 648//648 647//647 661//661 
f 654//654 643//643 648//648 
f 650//650 833//833 649//649 
f 655//655 642//642 654//654 
f 642//642 655//655 645//645 
f 656//656 645//645 655//655 
f 645//645 656//656 652//652 
f 656//656 657//657 652//652 
f 834//834 657//657 651//651 
f 651//651 657//657 831//831 
f 643//643 637//637 648//648 
f 648//648 637//637 647//647 
f 636//636 647//647 637//637 
f 653//653 832//832 826//826 
f 830//830 826//826 832//832 
f 833//833 650//650 836//836 
f 661//661 647//647 681//681 
f 865//865 830//830 832//832 
f 654//654 659//659 655//655 
f 831//831 657//657 666//666 
f 682//682 660//660 661//661 
f 660//660 682//682 659//659 
f 684//684 686//686 664//664 
f 660//660 654//654 648//648 
f 661//661 660//660 648//648 
f 659//659 654//654 660//660 
f 662//662 665//665 666//666 
f 665//665 662//662 658//658 
f 666//666 664//664 662//662 
f 656//656 655//655 663//663 
f 664//664 838//838 684//684 
f 686//686 658//658 662//662 
f 664//664 686//686 662//662 
f 865//865 832//832 839//839 
f 837//837 865//865 839//839 
f 665//665 650//650 666//666 
f 664//664 666//666 657//657 
f 657//657 656//656 838//838 
f 657//657 838//838 664//664 
f 649//649 666//666 650//650 
f 682//682 661//661 681//681 
f 683//683 865//865 837//837 
f 866//866 658//658 685//685 
f 686//686 685//685 658//658 
f 671//671 668//668 667//667 
f 843//843 669//669 840//840 
f 669//669 670//670 840//840 
f 673//673 841//841 845//845 
f 672//672 841//841 673//673 
f 846//846 842//842 675//675 
f 841//841 672//672 851//851 
f 844//844 847//847 677//677 
f 677//677 676//676 844//844 
f 843//843 855//855 669//669 
f 669//669 855//855 670//670 
f 845//845 674//674 673//673 
f 845//845 693//693 674//674 
f 848//848 680//680 857//857 
f 849//849 850//850 678//678 
f 673//673 674//674 679//679 
f 678//678 850//850 860//860 
f 674//674 693//693 679//679 
f 680//680 848//848 852//852 
f 849//849 678//678 853//853 
f 854//854 859//859 863//863 
f 677//677 692//692 676//676 
f 858//858 864//864 871//871 
f 859//859 861//861 872//872 
f 859//859 872//872 863//863 
f 682//682 681//681 709//709 
f 865//865 683//683 882//882 
f 655//655 659//659 701//701 
f 686//686 684//684 685//685 
f 855//855 688//688 873//873 
f 688//688 690//690 873//873 
f 856//856 689//689 867//867 
f 868//868 676//676 687//687 
f 868//868 687//687 697//697 
f 868//868 697//697 700//700 
f 730//730 699//699 721//721 
f 879//879 869//869 895//895 
f 867//867 689//689 712//712 
f 688//688 886//886 719//719 
f 688//688 719//719 690//690 
f 670//670 855//855 873//873 
f 676//676 692//692 691//691 
f 692//692 694//694 691//691 
f 874//874 872//872 861//861 
f 691//691 687//687 676//676 
f 693//693 870//870 679//679 
f 861//861 695//695 874//874 
f 862//862 869//869 875//875 
f 691//691 696//696 687//687 
f 691//691 694//694 876//876 
f 877//877 874//874 695//695 
f 877//877 695//695 698//698 
f 696//696 697//697 687//687 
f 697//697 696//696 878//878 
f 698//698 695//695 699//699 
f 875//875 869//869 879//879 
f 697//697 878//878 880//880 
f 881//881 698//698 699//699 
f 699//699 730//730 881//881 
f 701//701 708//708 655//655 
f 655//655 708//708 663//663 
f 659//659 682//682 704//704 
f 709//709 702//702 682//682 
f 710//710 882//882 683//683 
f 703//703 659//659 704//704 
f 702//702 704//704 682//682 
f 704//704 705//705 703//703 
f 707//707 705//705 734//734 
f 907//907 706//706 707//707 
f 866//866 685//685 883//883 
f 701//701 659//659 703//703 
f 883//883 685//685 733//733 
f 703//703 707//707 701//701 
f 703//703 705//705 707//707 
f 707//707 708//708 701//701 
f 685//685 684//684 906//906 
f 706//706 708//708 707//707 
f 708//708 706//706 684//684 
f 684//684 838//838 708//708 
f 702//702 709//709 711//711 
f 882//882 710//710 884//884 
f 742//742 883//883 733//733 
f 906//906 684//684 706//706 
f 713//713 724//724 886//886 
f 724//724 713//713 729//729 
f 712//712 714//714 887//887 
f 901//901 888//888 722//722 
f 717//717 729//729 713//713 
f 887//887 714//714 892//892 
f 888//888 901//901 774//774 
f 717//717 716//716 729//729 
f 890//890 731//731 900//900 
f 890//890 715//715 731//731 
f 730//730 889//889 776//776 
f 689//689 718//718 712//712 
f 718//718 714//714 712//712 
f 893//893 722//722 888//888 
f 893//893 868//868 700//700 
f 893//893 700//700 722//722 
f 700//700 902//902 722//722 
f 894//894 895//895 869//869 
f 719//719 886//886 723//723 
f 894//894 897//897 720//720 
f 725//725 728//728 720//720 
f 725//725 720//720 897//897 
f 720//720 895//895 894//894 
f 728//728 895//895 720//720 
f 897//897 726//726 725//725 
f 723//723 886//886 899//899 
f 886//886 724//724 899//899 
f 898//898 727//727 726//726 
f 898//898 900//900 727//727 
f 726//726 728//728 725//725 
f 728//728 726//726 727//727 
f 895//895 728//728 727//727 
f 900//900 731//731 727//727 
f 727//727 731//731 895//895 
f 730//730 721//721 889//889 
f 896//896 731//731 715//715 
f 704//704 732//732 705//705 
f 904//904 704//704 702//702 
f 738//738 734//734 705//705 
f 732//732 738//738 705//705 
f 706//706 907//907 739//739 
f 907//907 738//738 739//739 
f 904//904 711//711 744//744 
f 910//910 885//885 745//745 
f 737//737 912//912 884//884 
f 732//732 747//747 738//738 
f 747//747 735//735 738//738 
f 738//738 735//735 740//740 
f 778//778 735//735 747//747 
f 735//735 736//736 740//740 
f 735//735 778//778 736//736 
f 778//778 748//748 736//736 
f 750//750 737//737 742//742 
f 737//737 750//750 749//749 
f 738//738 740//740 739//739 
f 740//740 741//741 739//739 
f 739//739 908//908 909//909 
f 909//909 906//906 739//739 
f 909//909 908//908 750//750 
f 740//740 736//736 741//741 
f 908//908 736//736 750//750 
f 904//904 702//702 711//711 
f 884//884 710//710 737//737 
f 883//883 742//742 737//737 
f 906//906 706//706 739//739 
f 911//911 759//759 757//757 
f 757//757 914//914 911//911 
f 918//918 780//780 747//747 
f 755//755 910//910 743//743 
f 910//910 745//745 743//743 
f 912//912 746//746 743//743 
f 749//749 746//746 912//912 
f 914//914 905//905 911//911 
f 913//913 749//749 750//750 
f 750//750 748//748 913//913 
f 778//778 777//777 748//748 
f 929//929 913//913 748//748 
f 912//912 737//737 749//749 
f 748//748 750//750 736//736 
f 767//767 752//752 751//751 
f 925//925 753//753 916//916 
f 753//753 925//925 769//769 
f 754//754 751//751 752//752 
f 917//917 751//751 754//754 
f 755//755 773//773 915//915 
f 753//753 769//769 780//780 
f 916//916 753//753 757//757 
f 753//753 780//780 918//918 
f 759//759 911//911 917//917 
f 752//752 759//759 754//754 
f 759//759 917//917 754//754 
f 759//759 916//916 757//757 
f 756//756 746//746 758//758 
f 743//743 756//756 755//755 
f 756//756 743//743 746//746 
f 775//775 761//761 892//892 
f 928//928 760//760 920//920 
f 921//921 764//764 717//717 
f 764//764 716//716 717//717 
f 760//760 765//765 920//920 
f 776//776 889//889 762//762 
f 762//762 771//771 776//776 
f 921//921 767//767 763//763 
f 763//763 766//766 764//764 
f 924//924 768//768 923//923 
f 921//921 763//763 764//764 
f 923//923 768//768 891//891 
f 890//890 768//768 715//715 
f 920//920 765//765 925//925 
f 766//766 763//763 767//767 
f 715//715 768//768 922//922 
f 760//760 926//926 765//765 
f 765//765 769//769 925//925 
f 771//771 762//762 772//772 
f 768//768 927//927 922//922 
f 770//770 926//926 760//760 
f 760//760 771//771 770//770 
f 767//767 751//751 766//766 
f 915//915 773//773 924//924 
f 773//773 768//768 924//924 
f 773//773 758//758 768//768 
f 927//927 768//768 758//758 
f 782//782 926//926 770//770 
f 770//770 771//771 782//782 
f 772//772 782//782 771//771 
f 773//773 755//755 756//756 
f 758//758 773//773 756//756 
f 888//888 774//774 928//928 
f 714//714 775//775 892//892 
f 928//928 774//774 760//760 
f 774//774 903//903 776//776 
f 774//774 776//776 760//760 
f 760//760 776//776 771//771 
f 780//780 781//781 777//777 
f 778//778 747//747 780//780 
f 778//778 780//780 777//777 
f 780//780 769//769 779//779 
f 780//780 779//779 781//781 
f 926//926 782//782 779//779 
f 779//779 782//782 781//781 
f 930//930 782//782 919//919 
f 930//930 919//919 929//929 
f 929//929 919//919 913//913 
f 919//919 782//782 772//772 
