#
# Compatibility version : 4.3
# File ID : FJ4243
# Representation ID : BP29488
# Build-up logic : FMA 3.0 is_a
# Concept ID : FMA37074
# English name : Left axillary nerve
# Bounds(mm): (177.980700,-79.837400,1229.958300)-(221.362000,-59.931100,1277.786400)
# Volume(cm3): 0.120100
#
v 178.056 -61.7603 1277.02
v 178.018 -61.3313 1276.68
v 178.088 -61.3782 1277.24
v 178.373 -62.0027 1276.21
v 178.2 -61.9406 1277.25
v 178.428 -61.4115 1275.95
v 178.322 -62.2807 1276.86
v 178.356 -62.1579 1277.25
v 178.92 -62.5457 1276.14
v 178.999 -62.5465 1276.68
v 178.274 -61.7254 1277.45
v 178.501 -61.9463 1277.53
v 178.513 -61.5296 1277.65
v 178.72 -62.1607 1277.45
v 178.919 -61.9027 1277.62
v 178.162 -60.9559 1277.25
v 178.254 -60.5943 1276.63
v 178.245 -60.5916 1277.04
v 178.926 -60.7416 1275.65
v 178.342 -60.5632 1277.25
v 178.405 -60.3657 1277.03
v 178.686 -60.355 1276.29
v 178.527 -60.3604 1277.26
v 178.735 -60.1147 1277.01
v 178.92 -60.1196 1277.24
v 178.239 -61.1762 1277.45
v 178.505 -60.7758 1277.55
v 178.905 -60.9896 1277.76
v 178.905 -60.5439 1277.62
v 179.543 -62.4477 1276.71
v 179.755 -62.0055 1277.06
v 179.313 -61.5143 1277.68
v 179.533 -60.1743 1275.91
v 179.314 -60.1097 1277.24
v 179.691 -60.0929 1276.37
v 179.861 -60.1795 1276.62
v 179.977 -60.4612 1276.91
v 179.318 -60.5987 1277.61
v 180.197 -61.2872 1276.87
v 182.124 -62.912 1271.39
v 182.249 -63.3005 1271.49
v 182.777 -63.707 1271.77
v 182.7 -62.4994 1270.68
v 183.579 -61.7409 1270.41
v 184.205 -63.7529 1269.02
v 184.335 -63.3439 1268.69
v 184.169 -64.0883 1269.73
v 185.9 -64.4244 1267.27
v 185.916 -64.5022 1268.37
v 185.321 -62.9128 1267.73
v 186.734 -64.0399 1268.35
v 186.782 -62.516 1267.08
v 187.646 -65.0557 1265.95
v 187.76 -64.3224 1264.82
v 186.934 -62.6407 1268.06
v 190.106 -65.5187 1262.65
v 189.608 -65.3951 1264.41
v 189.086 -63.7213 1263.75
v 191.025 -65.3265 1263.4
v 193.165 -66.4236 1260.2
v 192.622 -65.5011 1259.86
v 192.421 -64.5546 1262.2
v 192.31 -64.379 1260.7
v 192.43 -64.0826 1261.4
v 193.677 -66.3696 1259.15
v 194.324 -66.5047 1259.68
v 194.488 -65.4014 1260.21
v 196.395 -66.6882 1256.61
v 196.332 -66.3465 1258.43
v 196.356 -65.7823 1256.73
v 195.711 -65.1323 1258.87
v 197.136 -67.1307 1256.26
v 197.634 -66.5754 1255.57
v 198.263 -66.9959 1255.15
v 197.102 -67.2458 1256.77
v 196.562 -65.1557 1257.79
v 197.101 -65.3058 1256.89
v 197.472 -65.4185 1257.15
v 197.58 -65.7614 1257.39
v 199.642 -66.1417 1254.52
v 199.006 -67.1364 1256.1
v 200.897 -67.792 1253.6
v 200.982 -67.454 1253.07
v 200.967 -67.2418 1253.09
v 200.641 -67.35 1253.45
v 200.412 -67.3365 1253.65
v 200.355 -67.132 1253.65
v 200.318 -66.7257 1253.76
v 200.72 -67.5429 1253.48
v 200.939 -66.2508 1253.86
v 200.904 -66.1624 1254.46
v 201.883 -68.083 1252.46
v 202.587 -68.2703 1252.32
v 202.429 -68.1282 1253.07
v 202.699 -68.1571 1252.65
v 202.194 -67.2825 1252.18
v 201.987 -66.7615 1252.86
v 202.704 -67.3936 1251.86
v 202.991 -67.1856 1252.14
v 201.104 -66.6827 1254.75
v 203.504 -67.728 1251.46
v 203.504 -67.7545 1251.74
v 203.704 -67.7545 1251.7
v 203.104 -68.1545 1252.19
v 203.299 -68.1985 1252.26
v 202.964 -68.0624 1253.09
v 203.487 -67.9545 1251.86
v 203.504 -67.9545 1251.87
v 204.022 -68.3545 1252.06
v 203.419 -66.8437 1252.21
v 203.494 -66.6876 1252.49
v 204.159 -66.8149 1252.44
v 205.124 -69.3545 1248.46
v 205.904 -69.9061 1248.26
v 205.485 -69.0633 1248.1
v 205.863 -68.8283 1248.48
v 205.103 -68.5545 1249.86
v 204.704 -67.3545 1252.47
v 207.641 -70.6895 1245.18
v 206.78 -69.5137 1246.79
v 207.104 -69.7545 1247.56
v 206.303 -67.5645 1250.59
v 209.413 -71.5003 1242.85
v 208.286 -71.3928 1245
v 208.675 -70.573 1244.47
v 208.801 -70.5897 1245.02
v 208.898 -70.6363 1244.46
v 207.861 -69.9873 1245.72
v 207.954 -70.003 1246.04
v 207.904 -67.4624 1250.26
v 210.504 -73.2374 1241.26
v 211.128 -73.2217 1241.2
v 210.914 -72.4381 1241.75
v 209.752 -71.4215 1242.84
v 210.021 -71.7545 1243.46
v 210.088 -71.5762 1242.86
v 209.704 -68.5545 1249.1
v 210.217 -67.9043 1249.23
v 211.128 -68.5478 1249.55
v 212.504 -74.7249 1237.26
v 212.246 -75.1545 1237.46
v 212.268 -75.1878 1237.97
v 212.437 -74.3545 1238.86
v 211.053 -72.8394 1240.34
v 211.67 -73.2976 1239.7
v 212.523 -68.4034 1248.28
v 212.304 -68.1186 1248.86
v 213.881 -76.2696 1235.31
v 212.509 -69.1843 1248.77
v 213.704 -68.9545 1247.81
v 215.304 -79.5545 1230.27
v 215.504 -79.8374 1230.26
v 215.504 -79.7545 1230
v 215.504 -79.5545 1229.96
v 215.694 -79.8019 1230.07
v 215.695 -79.7417 1230.01
v 215.757 -79.7474 1230.06
v 215.785 -79.7545 1230.26
v 215.806 -79.5545 1230.06
v 215.837 -79.5545 1230.26
v 215.56 -79.0875 1230.7
v 215.549 -79.1545 1231.06
v 214.191 -77.2965 1234.3
v 215.199 -69.1292 1248.11
v 215.858 -68.7916 1247.9
v 215.731 -68.5783 1247.67
v 218.175 -69.1521 1246.66
v 218.986 -69.7125 1246.65
v 219.296 -69.5218 1246.87
v 219.911 -69.5605 1246.19
v 220.163 -69.7544 1246.22
v 220.768 -69.842 1246.28
v 221.104 -69.8811 1246.06
v 221.104 -69.826 1246.26
v 221.031 -69.7444 1245.95
v 220.993 -69.539 1245.93
v 221.104 -69.5545 1246.4
v 221.104 -69.2467 1246.06
v 220.795 -69.2309 1246.34
v 221.304 -69.7545 1246.03
v 221.362 -69.5545 1246.26
v 221.34 -69.3545 1246.06
v 178.322 -62.2807 1276.86
v 178.919 -61.9027 1277.62
v 178.92 -60.1196 1277.24
v 186.934 -62.6407 1268.06
v 190.106 -65.5187 1262.65
v 189.608 -65.3951 1264.41
v 193.165 -66.4236 1260.2
v 192.421 -64.5546 1262.2
v 192.43 -64.0826 1261.4
v 192.43 -64.0826 1261.4
v 193.677 -66.3696 1259.15
v 194.324 -66.5047 1259.68
v 197.136 -67.1307 1256.26
v 197.102 -67.2458 1256.77
v 199.006 -67.1364 1256.1
v 200.897 -67.792 1253.6
v 200.904 -66.1624 1254.46
v 201.883 -68.083 1252.46
v 202.429 -68.1282 1253.07
v 202.429 -68.1282 1253.07
v 201.104 -66.6827 1254.75
v 203.504 -67.728 1251.46
v 203.504 -67.7545 1251.74
v 203.504 -67.7545 1251.74
v 203.504 -67.7545 1251.74
v 203.504 -67.7545 1251.74
v 203.704 -67.7545 1251.7
v 203.104 -68.1545 1252.19
v 203.104 -68.1545 1252.19
v 203.487 -67.9545 1251.86
v 203.487 -67.9545 1251.86
v 203.487 -67.9545 1251.86
v 203.487 -67.9545 1251.86
v 203.504 -67.9545 1251.87
v 204.022 -68.3545 1252.06
v 204.022 -68.3545 1252.06
v 204.159 -66.8149 1252.44
v 205.124 -69.3545 1248.46
v 205.904 -69.9061 1248.26
v 205.904 -69.9061 1248.26
v 205.103 -68.5545 1249.86
v 204.704 -67.3545 1252.47
v 204.704 -67.3545 1252.47
v 204.704 -67.3545 1252.47
v 204.704 -67.3545 1252.47
v 207.641 -70.6895 1245.18
v 207.104 -69.7545 1247.56
v 207.104 -69.7545 1247.56
v 209.413 -71.5003 1242.85
v 209.413 -71.5003 1242.85
v 209.413 -71.5003 1242.85
v 208.286 -71.3928 1245
v 207.904 -67.4624 1250.26
v 207.904 -67.4624 1250.26
v 207.904 -67.4624 1250.26
v 207.904 -67.4624 1250.26
v 210.504 -73.2374 1241.26
v 210.504 -73.2374 1241.26
v 210.504 -73.2374 1241.26
v 211.128 -73.2217 1241.2
v 210.914 -72.4381 1241.75
v 209.752 -71.4215 1242.84
v 210.021 -71.7545 1243.46
v 210.021 -71.7545 1243.46
v 209.704 -68.5545 1249.1
v 210.217 -67.9043 1249.23
v 211.128 -68.5478 1249.55
v 212.504 -74.7249 1237.26
v 212.504 -74.7249 1237.26
v 212.246 -75.1545 1237.46
v 212.268 -75.1878 1237.97
v 212.437 -74.3545 1238.86
v 212.437 -74.3545 1238.86
v 212.437 -74.3545 1238.86
v 211.053 -72.8394 1240.34
v 212.523 -68.4034 1248.28
v 212.304 -68.1186 1248.86
v 212.304 -68.1186 1248.86
v 213.881 -76.2696 1235.31
v 213.881 -76.2696 1235.31
v 213.881 -76.2696 1235.31
v 212.509 -69.1843 1248.77
v 212.509 -69.1843 1248.77
v 213.704 -68.9545 1247.81
v 213.704 -68.9545 1247.81
v 215.304 -79.5545 1230.27
v 215.504 -79.8374 1230.26
v 215.504 -79.8374 1230.26
v 215.504 -79.8374 1230.26
v 215.504 -79.7545 1230
v 215.504 -79.7545 1230
v 215.504 -79.7545 1230
v 215.504 -79.5545 1229.96
v 215.504 -79.5545 1229.96
v 215.694 -79.8019 1230.07
v 215.757 -79.7474 1230.06
v 215.757 -79.7474 1230.06
v 215.785 -79.7545 1230.26
v 215.785 -79.7545 1230.26
v 215.785 -79.7545 1230.26
v 215.806 -79.5545 1230.06
v 215.806 -79.5545 1230.06
v 215.806 -79.5545 1230.06
v 215.837 -79.5545 1230.26
v 215.837 -79.5545 1230.26
v 215.56 -79.0875 1230.7
v 215.549 -79.1545 1231.06
v 215.549 -79.1545 1231.06
v 215.549 -79.1545 1231.06
v 214.191 -77.2965 1234.3
v 215.858 -68.7916 1247.9
v 215.731 -68.5783 1247.67
v 218.175 -69.1521 1246.66
v 218.175 -69.1521 1246.66
v 218.986 -69.7125 1246.65
v 218.986 -69.7125 1246.65
v 218.986 -69.7125 1246.65
v 220.163 -69.7544 1246.22
v 220.768 -69.842 1246.28
v 221.104 -69.8811 1246.06
v 221.104 -69.5545 1246.4
v 221.104 -69.2467 1246.06
v 221.304 -69.7545 1246.03
v 221.304 -69.7545 1246.03
v 221.362 -69.5545 1246.26
v 221.362 -69.5545 1246.26
v 221.34 -69.3545 1246.06
v 221.34 -69.3545 1246.06
vn -0.959341 -0.279119 0.0419246
vn -0.986525 0.0843686 -0.140177
vn -0.92022 -0.00946871 0.391287
vn -0.824093 -0.388715 -0.412033
vn -0.800021 -0.389477 0.45637
vn -0.812387 0.0828537 -0.577203
vn -0.838598 -0.543022 -0.0433619
vn -0.482083 -0.73572 0.475723
vn -0.505588 -0.845237 -0.173075
vn -0.118309 -0.955545 0.270067
vn -0.697442 -0.18195 0.693158
vn -0.42534 -0.42475 0.79917
vn -0.393313 -0.0804088 0.915882
vn -0.0594366 -0.759678 0.647577
vn -0.0955878 -0.260968 0.960603
vn -0.87834 0.277531 0.389223
vn -0.820413 0.468433 -0.327862
vn -0.894299 0.426956 0.133933
vn -0.662978 0.440566 -0.605279
vn -0.743119 0.485659 0.460336
vn -0.704192 0.705242 0.0821412
vn -0.536192 0.741979 -0.40245
vn -0.528672 0.660452 0.533206
vn -0.367579 0.929926 0.0111028
vn -0.28626 0.723563 0.628102
vn -0.71709 0.0998747 0.689787
vn -0.538437 0.320336 0.779404
vn -0.0716101 0.0832444 0.993953
vn -0.161689 0.52299 0.836862
vn 0.323217 -0.777289 0.539771
vn 0.551705 -0.496419 0.670217
vn 0.444051 -0.171211 0.879491
vn -0.19558 0.929307 -0.313268
vn 0.27895 0.811505 0.513465
vn 0.14382 0.989574 -0.00763417
vn 0.496856 0.828332 0.258843
vn 0.692241 0.449142 0.564867
vn 0.429662 0.296964 0.852762
vn 0.741034 -0.0185471 0.671211
vn -0.782791 -0.19981 -0.589333
vn -0.693634 -0.580164 -0.426945
vn -0.184127 -0.979558 0.08101
vn -0.741152 0.165985 -0.650494
vn -0.432262 0.716507 -0.54751
vn -0.731558 -0.445097 -0.516441
vn -0.762613 -0.0340007 -0.64596
vn -0.504315 -0.833971 -0.223961
vn -0.638213 -0.652598 -0.408412
vn 0.174899 -0.915919 0.36125
vn -0.654553 0.367415 -0.660732
vn 0.631982 -0.440989 0.637282
vn -0.0338186 0.956103 -0.291071
vn -0.204092 -0.977877 0.0458553
vn -0.742549 -0.0906981 -0.663622
vn 0.683249 0.609843 0.401575
vn -0.716579 -0.322729 -0.618353
vn 0.0331282 -0.96641 0.254861
vn -0.544645 0.526918 -0.652472
vn 0.60039 -0.42783 0.675643
vn -0.423493 -0.876165 -0.230192
vn -0.683828 0.0304346 -0.729008
vn 0.714958 -0.0336981 0.698354
vn -0.365234 0.727312 -0.581052
vn 0.602882 0.6847 0.409534
vn -0.665669 -0.387745 -0.637603
vn 0.522067 -0.492131 0.696602
vn 0.665864 -0.0886365 0.740789
vn -0.650508 -0.226882 -0.72482
vn 0.58101 -0.257611 0.772052
vn -0.52207 0.411947 -0.746822
vn 0.630064 0.539947 0.558101
vn -0.577326 -0.535281 -0.616579
vn -0.592148 0.065992 -0.803123
vn -0.590316 -0.339971 -0.732084
vn -0.342307 -0.915406 -0.211796
vn 0.43865 0.863323 0.249517
vn -0.00693577 0.956814 -0.290617
vn 0.496337 0.781526 0.377977
vn 0.65212 0.314335 0.689879
vn -0.332795 0.668644 -0.664953
vn 0.543169 -0.269656 0.795144
vn -0.572263 -0.630558 -0.524319
vn -0.752078 -0.306 -0.583732
vn -0.644528 0.230697 -0.728947
vn -0.697172 -0.232655 -0.678103
vn -0.613881 -0.226489 -0.756209
vn -0.625688 -0.0528483 -0.778281
vn -0.505566 0.354596 -0.786552
vn -0.648754 -0.469178 -0.599158
vn -0.094783 0.896507 -0.432771
vn 0.167204 0.984071 -0.0603935
vn -0.665515 -0.637567 -0.388069
vn 0.0808059 -0.950613 0.299675
vn 0.0348008 -0.991139 0.128192
vn 0.274571 -0.931305 0.239338
vn -0.272922 0.763321 -0.585538
vn -0.316681 0.643991 -0.696412
vn 0.144938 0.924709 -0.352004
vn -0.184616 0.609607 -0.770906
vn 0.581227 -0.0738482 0.810384
vn 0.99583 -0.0908199 -0.00866872
vn 0.0134217 0.583156 -0.81225
vn -0.27191 -0.597856 -0.754078
vn 0.362441 -0.822585 0.438166
vn -0.197591 -0.904685 -0.377496
vn 0.286539 -0.775727 0.562266
vn 0.99583 -0.0908199 -0.00866872
vn -0.055315 -0.808039 -0.586526
vn -0.264479 -0.743803 -0.613846
vn -0.206397 0.74086 -0.63916
vn 0.0589808 0.973858 -0.219365
vn 0.188677 0.981991 0.00971708
vn -0.660645 -0.708205 -0.248988
vn -0.213415 -0.954168 0.209806
vn -0.585872 0.44103 -0.679887
vn 0.377877 0.922524 -0.0784731
vn 0.743406 -0.12143 0.657725
vn 0.506795 0.554653 0.659939
vn -0.688581 0.300826 -0.659818
vn -0.235698 0.808749 -0.538861
vn 0.523025 -0.557949 0.644312
vn -0.301114 0.448614 -0.841472
vn -0.732007 0.236424 -0.638959
vn -0.699721 -0.693613 -0.171149
vn -0.0048376 0.894351 -0.44734
vn 0.771392 0.587063 0.245582
vn 0.448523 0.883411 -0.135693
vn 0.234868 0.93841 -0.253425
vn 0.626493 0.768688 0.128937
vn -0.15631 0.765807 -0.623784
vn -0.779441 0.0815733 -0.621142
vn 0.243945 -0.783826 0.571058
vn 0.798927 0.594338 0.0920732
vn -0.209056 0.80238 -0.559001
vn 0.397531 -0.689364 0.605596
vn 0.671559 0.740943 0.0034942
vn -0.294181 -0.787264 -0.541916
vn -0.248991 0.491799 -0.834348
vn 0.298979 -0.314628 0.9009
vn -0.327676 0.729041 -0.600939
vn -0.840596 -0.534857 -0.0855873
vn -0.797828 -0.602879 -0.00256721
vn 0.827427 0.559178 0.05181
vn -0.268919 0.766844 -0.582781
vn 0.564568 0.800986 -0.199209
vn -0.261912 0.298965 -0.917618
vn 0.229909 0.930055 0.286601
vn 0.859658 -0.203345 0.468656
vn -0.23916 -0.851579 -0.466492
vn -0.23624 -0.836545 -0.494352
vn -0.832758 0.149508 -0.533068
vn -0.814526 -0.573426 -0.087923
vn -0.805529 -0.564342 -0.180668
vn -0.834003 0.0937476 -0.543737
vn 0.161807 -0.805889 -0.569527
vn 0.350641 -0.35879 -0.865055
vn 0.598134 -0.416701 -0.684541
vn 0.476951 -0.878887 -0.00868983
vn 0.499407 -0.0615259 -0.86418
vn 0.957152 -0.248133 -0.149299
vn 0.229661 0.84779 -0.478026
vn 0.319399 -0.729656 0.604638
vn 0.407544 -0.699798 0.586677
vn 0.272497 -0.254403 0.927914
vn 0.297621 0.633892 0.713864
vn 0.241127 0.872613 0.424741
vn -0.290865 -0.402222 -0.86811
vn -0.228627 -0.84325 -0.486476
vn 0.202739 -0.49549 0.844622
vn -0.280371 -0.319395 -0.905196
vn -0.25967 -0.559388 -0.787183
vn 0.121708 -0.617997 0.776703
vn 0.00224475 -0.599834 -0.800121
vn 0.398322 -0.723485 0.563834
vn -0.0441901 -0.401455 -0.914812
vn 0.0244437 0.119759 -0.992502
vn 0.249254 -0.414702 0.875154
vn -0.0429134 0.517952 -0.854333
vn 0.347166 0.742986 0.572231
vn 0.286345 -0.191577 -0.938778
vn 0.571671 -0.542988 0.615107
vn 0.429309 0.757163 0.49234
vn -0.317762 -0.930552 0.181937
vn 0.375166 -0.635566 0.674764
vn -0.0153855 0.999736 0.0170613
vn 0.647044 0.654006 0.39193
vn -0.455578 -0.859086 -0.233282
vn 0.441743 -0.686527 0.577532
vn 0.0657552 -0.952558 0.297169
vn 0.586474 0.69635 0.413696
vn 0.329769 0.941596 0.0681948
vn -0.000619146 0.964988 -0.262295
vn -0.416513 -0.875052 -0.246579
vn 0.0950134 -0.941941 0.322057
vn -0.355643 -0.906169 -0.228856
vn 0.153265 -0.896747 0.415156
vn 0.308345 -0.74374 0.593106
vn -0.252677 -0.966255 -0.0500505
vn 0.538405 0.559756 0.629915
vn -0.233545 -0.964907 0.120048
vn 0.100059 -0.925648 0.364916
vn -0.220524 -0.963099 -0.154301
vn 0.560652 0.565408 0.604965
vn 0.527137 0.837449 0.144244
vn 0.99583 -0.0908199 -0.00866872
vn 0.420578 0.903152 0.0862054
vn -0.153534 -0.566601 -0.809562
vn 0.635467 -0.44022 -0.634341
vn -0.326403 0.237508 -0.914905
vn 0.743406 -0.12143 0.657725
vn 0.0312794 -0.950731 -0.308434
vn 0.708006 -0.269454 0.65278
vn 0.694384 0.612902 0.37707
vn 0.260187 -0.929971 -0.259726
vn 0.635467 -0.44022 -0.634341
vn 0.635467 -0.44022 -0.634341
vn 0.100066 -0.925679 0.364835
vn 0.371162 -0.561534 0.739539
vn 0.502905 0.551727 0.665345
vn -0.742516 0.0747931 -0.66564
vn -0.596628 -0.787677 -0.153623
vn 0.356166 -0.727965 0.585843
vn 0.66793 0.694821 0.266632
vn 0.537487 0.0277224 0.842816
vn 0.387424 -0.487432 0.782504
vn 0.229909 0.930055 0.286601
vn 0.437286 0.211492 0.874101
vn -0.746513 -0.626414 -0.224329
vn 0.761567 0.0294091 0.647419
vn 0.795851 0.465185 0.387588
vn -0.249531 0.781386 -0.571988
vn -0.906002 -0.349205 -0.239197
vn -0.796986 0.215457 -0.564261
vn 0.301965 -0.755729 0.581112
vn 0.190613 0.981001 0.036102
vn 0.491204 0.541033 0.682643
vn 0.229909 0.930055 0.286601
vn 0.0396541 0.946855 -0.319206
vn -0.747048 -0.653763 -0.120475
vn -0.846975 -0.515997 -0.127983
vn 0.0701123 -0.860156 0.505189
vn 0.846813 -0.1301 0.515733
vn 0.846813 -0.1301 0.515733
vn 0.348924 0.893218 -0.283571
vn 0.845152 0.419749 0.330951
vn 0.862329 -0.110683 0.494104
vn -0.308739 0.261608 -0.914462
vn 0.012862 0.92832 -0.37156
vn 0.378416 0.347069 0.858105
vn -0.8076 0.255056 -0.531722
vn 0.297845 0.858147 -0.418178
vn -0.810327 0.236576 -0.536098
vn 0.0694391 -0.841171 0.536292
vn 0.830379 -0.149377 0.536803
vn 0.547276 -0.591267 0.592362
vn 0.869824 -0.187937 0.456165
vn 0.250577 0.883789 -0.395129
vn -0.0740161 0.7887 -0.610307
vn 0.362584 0.509779 0.780166
vn 0.0536484 0.966089 -0.252576
vn 0.457091 0.825126 -0.332015
vn 0.817372 0.575689 0.0220358
vn 0.918699 0.381744 0.101306
vn 0.261054 -0.455718 0.850983
vn 0.112937 -0.828035 0.549185
vn -0.254618 0.246545 -0.935086
vn -0.24947 -0.341423 -0.906198
vn -0.817964 -0.572207 -0.0592822
vn 0.239514 -0.77627 0.583128
vn -0.125482 -0.944858 -0.302486
vn 0.281186 -0.954022 0.103811
vn -0.83279 -0.10803 -0.542946
vn -0.0248672 -0.85508 -0.5179
vn 0.0544518 -0.194855 -0.979319
vn 0.118177 0.837707 -0.53318
vn 0.185265 -0.0617824 -0.980744
vn 0.476951 -0.878887 -0.00868983
vn 0.645709 -0.753984 -0.120698
vn 0.958141 -0.245774 -0.146838
vn 0.220479 -0.748054 0.625943
vn 0.957648 -0.246954 -0.148069
vn 0.874947 -0.226822 0.427807
vn 0.957648 -0.246954 -0.148069
vn 0.173696 0.828851 -0.531823
vn 0.796992 0.591057 -0.124317
vn 0.857249 0.514845 -0.00763096
vn 0.874947 -0.226822 0.427807
vn 0.881176 0.471893 0.0290711
vn 0.908508 0.404381 0.105302
vn 0.874947 -0.226822 0.427807
vn 0.849065 -0.218653 0.480915
vn 0.859658 -0.203345 0.468656
vn 0.288675 -0.0741969 0.954548
vn -0.0514823 0.84024 -0.539765
vn -0.226437 0.299845 -0.926725
vn -0.157777 0.533138 -0.831186
vn -0.2954 -0.446708 -0.844506
vn 0.0878472 -0.814963 0.572816
vn -0.116981 -0.96598 -0.230647
vn -0.128927 -0.982558 -0.134008
vn -0.0645305 -0.997916 -0.000509616
vn 0.165018 -0.973299 0.159554
vn 0.359865 0.483698 0.79783
vn 0.27601 0.928649 0.247849
vn 0.609157 -0.729228 0.311696
vn 0.979844 -0.0770575 -0.184302
vn 0.439102 0.590755 0.676903
vn 0.979844 -0.0770575 -0.184302
vn 0.253308 0.190805 -0.948382
vn 0.979844 -0.0770575 -0.184302
g grp1
usemtl mtl1
f 4//4 7//7 1//1 
f 1//1 3//3 2//2 
f 6//6 4//4 2//2 
f 4//4 1//1 2//2 
f 7//7 5//5 1//1 
f 40//40 41//41 4//4 
f 40//40 4//4 6//6 
f 3//3 1//1 5//5 
f 12//12 11//11 5//5 
f 5//5 11//11 3//3 
f 6//6 43//43 40//40 
f 41//41 9//9 4//4 
f 9//9 10//10 183//183 
f 4//4 9//9 7//7 
f 183//183 10//10 8//8 
f 8//8 5//5 7//7 
f 8//8 12//12 5//5 
f 9//9 42//42 10//10 
f 14//14 8//8 10//10 
f 30//30 14//14 10//10 
f 3//3 11//11 26//26 
f 11//11 12//12 13//13 
f 11//11 13//13 26//26 
f 8//8 14//14 12//12 
f 12//12 14//14 15//15 
f 13//13 12//12 15//15 
f 14//14 30//30 184//184 
f 3//3 16//16 2//2 
f 26//26 16//16 3//3 
f 26//26 27//27 16//16 
f 17//17 6//6 2//2 
f 2//2 18//18 17//17 
f 20//20 18//18 16//16 
f 16//16 18//18 2//2 
f 6//6 17//17 19//19 
f 20//20 16//16 27//27 
f 19//19 17//17 22//22 
f 21//21 17//17 18//18 
f 20//20 21//21 18//18 
f 27//27 23//23 20//20 
f 22//22 17//17 21//21 
f 21//21 20//20 23//23 
f 19//19 22//22 44//44 
f 33//33 44//44 22//22 
f 21//21 23//23 24//24 
f 33//33 22//22 24//24 
f 22//22 21//21 24//24 
f 33//33 24//24 35//35 
f 24//24 23//23 25//25 
f 24//24 185//185 35//35 
f 13//13 27//27 26//26 
f 28//28 13//13 15//15 
f 27//27 13//13 28//28 
f 29//29 27//27 28//28 
f 23//23 27//27 29//29 
f 23//23 29//29 25//25 
f 34//34 25//25 29//29 
f 43//43 6//6 19//19 
f 51//51 39//39 31//31 
f 30//30 31//31 184//184 
f 31//31 32//32 184//184 
f 32//32 31//31 39//39 
f 35//35 185//185 34//34 
f 36//36 35//35 34//34 
f 34//34 37//37 36//36 
f 37//37 55//55 36//36 
f 32//32 28//28 15//15 
f 32//32 38//38 28//28 
f 38//38 34//34 29//29 
f 38//38 29//29 28//28 
f 38//38 32//32 39//39 
f 38//38 37//37 34//34 
f 39//39 37//37 38//38 
f 55//55 37//37 39//39 
f 52//52 33//33 35//35 
f 41//41 40//40 45//45 
f 43//43 46//46 40//40 
f 45//45 47//47 41//41 
f 10//10 42//42 49//49 
f 9//9 41//41 47//47 
f 47//47 42//42 9//9 
f 49//49 30//30 10//10 
f 51//51 31//31 30//30 
f 33//33 52//52 44//44 
f 53//53 42//42 47//47 
f 53//53 49//49 42//42 
f 54//54 45//45 46//46 
f 45//45 40//40 46//46 
f 50//50 46//46 43//43 
f 43//43 19//19 50//50 
f 45//45 48//48 47//47 
f 51//51 30//30 49//49 
f 35//35 36//36 55//55 
f 51//51 55//55 39//39 
f 48//48 53//53 47//47 
f 54//54 50//50 58//58 
f 54//54 48//48 45//45 
f 50//50 54//54 46//46 
f 50//50 19//19 44//44 
f 51//51 62//62 55//55 
f 35//35 55//55 52//52 
f 54//54 56//56 48//48 
f 190//190 64//64 186//186 
f 55//55 191//191 52//52 
f 61//61 56//56 54//54 
f 187//187 53//53 48//48 
f 53//53 57//57 49//49 
f 188//188 66//66 59//59 
f 53//53 194//194 57//57 
f 188//188 51//51 49//49 
f 188//188 59//59 51//51 
f 58//58 50//50 44//44 
f 52//52 58//58 44//44 
f 56//56 61//61 65//65 
f 54//54 58//58 61//61 
f 61//61 58//58 63//63 
f 59//59 66//66 67//67 
f 59//59 62//62 51//51 
f 59//59 67//67 62//62 
f 63//63 58//58 52//52 
f 63//63 52//52 192//192 
f 76//76 64//64 190//190 
f 193//193 60//60 187//187 
f 187//187 60//60 53//53 
f 61//61 63//63 70//70 
f 67//67 71//71 62//62 
f 61//61 70//70 68//68 
f 75//75 60//60 193//193 
f 53//53 189//189 194//194 
f 77//77 63//63 192//192 
f 77//77 192//192 76//76 
f 71//71 76//76 190//190 
f 65//65 68//68 72//72 
f 68//68 70//70 73//73 
f 65//65 61//61 68//68 
f 193//193 195//195 75//75 
f 189//189 196//196 194//194 
f 67//67 66//66 69//69 
f 70//70 63//63 77//77 
f 67//67 69//69 79//79 
f 74//74 82//82 72//72 
f 74//74 72//72 68//68 
f 68//68 73//73 74//74 
f 195//195 198//198 75//75 
f 66//66 81//81 69//69 
f 73//73 70//70 88//88 
f 79//79 71//71 67//67 
f 79//79 78//78 71//71 
f 71//71 78//78 76//76 
f 78//78 77//77 76//76 
f 82//82 74//74 89//89 
f 88//88 70//70 80//80 
f 80//80 70//70 77//77 
f 194//194 196//196 197//197 
f 197//197 196//196 106//106 
f 100//100 79//79 69//69 
f 92//92 89//89 83//83 
f 113//113 92//92 83//83 
f 75//75 198//198 94//94 
f 84//84 83//83 85//85 
f 83//83 89//89 85//85 
f 84//84 220//220 83//83 
f 86//86 74//74 87//87 
f 86//86 89//89 74//74 
f 80//80 77//77 90//90 
f 73//73 88//88 87//87 
f 74//74 73//73 87//87 
f 77//77 78//78 91//91 
f 203//203 199//199 78//78 
f 89//89 86//86 85//85 
f 85//85 87//87 84//84 
f 86//86 87//87 85//85 
f 87//87 88//88 84//84 
f 88//88 97//97 84//84 
f 97//97 80//80 90//90 
f 97//97 88//88 80//80 
f 91//91 90//90 77//77 
f 79//79 203//203 78//78 
f 92//92 82//82 89//89 
f 200//200 93//93 198//198 
f 93//93 94//94 198//198 
f 95//95 94//94 93//93 
f 93//93 200//200 114//114 
f 201//201 106//106 196//196 
f 95//95 93//93 104//104 
f 95//95 104//104 94//94 
f 115//115 220//220 84//84 
f 97//97 96//96 84//84 
f 115//115 84//84 96//96 
f 96//96 97//97 99//99 
f 98//98 96//96 99//99 
f 102//102 98//98 99//99 
f 90//90 110//110 97//97 
f 91//91 111//111 90//90 
f 199//199 203//203 118//118 
f 110//110 90//90 111//111 
f 111//111 91//91 112//112 
f 81//81 100//100 69//69 
f 81//81 224//224 100//100 
f 92//92 113//113 221//221 
f 101//101 205//205 107//107 
f 206//206 204//204 98//98 
f 109//109 207//207 103//103 
f 212//212 210//210 117//117 
f 213//213 223//223 204//204 
f 103//103 137//137 109//109 
f 209//209 102//102 99//99 
f 105//105 211//211 108//108 
f 105//105 202//202 211//211 
f 109//109 105//105 108//108 
f 214//214 108//108 211//211 
f 215//215 208//208 216//216 
f 207//207 109//109 108//108 
f 106//106 225//225 197//197 
f 109//109 202//202 105//105 
f 217//217 106//106 201//201 
f 99//99 97//97 110//110 
f 219//219 199//199 118//118 
f 115//115 119//119 220//220 
f 113//113 124//124 221//221 
f 234//234 135//135 222//222 
f 135//135 93//93 222//222 
f 93//93 135//135 104//104 
f 121//121 104//104 135//135 
f 96//96 98//98 120//120 
f 120//120 98//98 116//116 
f 204//204 116//116 98//98 
f 116//116 204//204 223//223 
f 210//210 229//229 117//117 
f 122//122 209//209 99//99 
f 122//122 99//99 110//110 
f 110//110 111//111 130//130 
f 111//111 112//112 235//235 
f 236//236 219//219 118//118 
f 119//119 120//120 123//123 
f 119//119 115//115 120//120 
f 113//113 228//228 124//124 
f 128//128 120//120 116//116 
f 128//128 116//116 129//129 
f 129//129 116//116 223//223 
f 129//129 223//223 230//230 
f 120//120 115//115 96//96 
f 122//122 247//247 209//209 
f 109//109 137//137 149//149 
f 122//122 110//110 130//130 
f 134//134 231//231 125//125 
f 119//119 123//123 131//131 
f 239//239 124//124 228//228 
f 135//135 234//234 132//132 
f 125//125 127//127 244//244 
f 245//245 126//126 230//230 
f 125//125 231//231 120//120 
f 125//125 120//120 128//128 
f 129//129 127//127 128//128 
f 125//125 128//128 127//127 
f 126//126 127//127 129//129 
f 129//129 230//230 126//126 
f 122//122 138//138 247//247 
f 150//150 149//149 137//137 
f 225//225 106//106 218//218 
f 264//264 225//225 218//218 
f 147//147 237//237 226//226 
f 225//225 264//264 139//139 
f 122//122 130//130 138//138 
f 141//141 240//240 232//232 
f 144//144 140//140 231//231 
f 145//145 133//133 143//143 
f 254//254 243//243 242//242 
f 241//241 132//132 234//234 
f 257//257 244//244 145//145 
f 136//136 145//145 244//244 
f 145//145 136//136 133//133 
f 144//144 231//231 134//134 
f 136//136 127//127 126//126 
f 244//244 127//127 136//136 
f 126//126 245//245 136//136 
f 245//245 133//133 136//136 
f 246//246 242//242 243//243 
f 259//259 227//227 249//249 
f 146//146 247//247 138//138 
f 250//250 151//151 252//252 
f 141//141 142//142 240//240 
f 255//255 132//132 163//163 
f 148//148 256//256 292//292 
f 253//253 132//132 241//241 
f 252//252 233//233 250//250 
f 145//145 251//251 257//257 
f 251//251 145//145 261//261 
f 262//262 145//145 143//143 
f 149//149 150//150 168//168 
f 266//266 247//247 146//146 
f 248//248 238//238 260//260 
f 268//268 142//142 141//141 
f 250//250 154//154 151//151 
f 161//161 275//275 251//251 
f 161//161 251//251 261//261 
f 142//142 268//268 152//152 
f 269//269 132//132 253//253 
f 269//269 163//163 132//132 
f 165//165 259//259 249//249 
f 153//153 152//152 268//268 
f 154//154 272//272 151//151 
f 273//273 156//156 155//155 
f 270//270 273//273 155//155 
f 277//277 158//158 271//271 
f 156//156 274//274 276//276 
f 162//162 269//269 280//280 
f 155//155 156//156 157//157 
f 158//158 277//277 278//278 
f 159//159 157//157 156//156 
f 276//276 159//159 156//156 
f 279//279 283//283 281//281 
f 281//281 283//283 160//160 
f 275//275 161//161 284//284 
f 285//285 288//288 286//286 
f 286//286 288//288 289//289 
f 282//282 287//287 290//290 
f 289//289 288//288 263//263 
f 269//269 162//162 163//163 
f 291//291 148//148 292//292 
f 167//167 297//297 267//267 
f 264//264 164//164 139//139 
f 295//295 266//266 146//146 
f 259//259 165//165 166//166 
f 248//248 260//260 294//294 
f 164//164 293//293 139//139 
f 258//258 248//248 294//294 
f 296//296 258//258 294//294 
f 170//170 297//297 167//167 
f 169//169 164//164 264//264 
f 169//169 293//293 164//164 
f 265//265 298//298 169//169 
f 297//297 170//170 171//171 
f 172//172 169//169 298//298 
f 300//300 301//301 299//299 
f 172//172 177//177 169//169 
f 293//293 169//169 177//177 
f 171//171 170//170 175//175 
f 175//175 170//170 176//176 
f 170//170 296//296 176//176 
f 171//171 175//175 173//173 
f 302//302 301//301 300//300 
f 178//178 176//176 296//296 
f 178//178 296//296 294//294 
f 302//302 174//174 301//301 
f 174//174 177//177 172//172 
f 179//179 165//165 303//303 
f 304//304 166//166 179//179 
f 179//179 166//166 165//165 
f 173//173 175//175 180//180 
f 181//181 174//174 305//305 
f 305//305 174//174 302//302 
f 180//180 175//175 176//176 
f 174//174 181//181 177//177 
f 307//307 179//179 303//303 
f 182//182 304//304 179//179 
f 309//309 180//180 176//176 
f 178//178 309//309 176//176 
f 306//306 310//310 308//308 
f 307//307 182//182 179//179 
