#
# Compatibility version : 4.3
# File ID : FJ4265
# Representation ID : BP29315
# Build-up logic : FMA 3.0 is_a
# Concept ID : FMA7011
# English name : Trunk of left sixth cervical nerve
# Bounds(mm): (0.712400,-83.462700,1371.702400)-(41.777200,-65.322100,1401.175000)
# Volume(cm3): 0.594300
#
v 1.15949 -73.5336 1397.61
v 1.33898 -73.7323 1398.49
v 1.31169 -73.5942 1399.26
v 1.4341 -72.65 1395.69
v 0.854488 -72.958 1397.32
v 1.01085 -72.5138 1396.42
v 1.31535 -73.2326 1396.43
v 0.782628 -72.7866 1398.35
v 0.988132 -73.3794 1398.37
v 0.96733 -72.9647 1399.38
v 1.26071 -72.7657 1400.15
v 1.33673 -73.1367 1400.12
v 1.32716 -72.199 1395.83
v 0.851571 -72.3596 1397.19
v 1.0208 -71.9037 1397.35
v 1.17248 -71.9307 1396.45
v 1.30459 -71.6103 1396.88
v 0.857595 -72.2156 1398.2
v 1.0519 -71.9127 1398.52
v 0.996849 -72.3668 1399.35
v 1.33439 -68.7571 1397.84
v 1.31392 -67.8271 1396.01
v 0.820815 -67.6818 1396.85
v 1.03137 -68.1381 1396.72
v 1.09564 -67.8308 1396.28
v 1.31464 -68.6095 1397.14
v 1.31427 -68.1494 1396.28
v 0.803371 -68.0047 1397.44
v 0.738359 -67.8582 1398.35
v 0.978694 -68.4334 1397.91
v 0.867861 -67.8275 1399.42
v 1.05439 -68.4298 1398.94
v 1.17169 -67.2635 1395.98
v 0.727536 -67.2815 1397.37
v 0.842354 -66.9598 1396.85
v 0.926679 -67.2597 1396.41
v 1.12728 -66.6747 1396.26
v 0.864966 -66.6646 1397.51
v 0.766743 -67.2371 1398.89
v 0.989106 -66.972 1399.85
v 1.1663 -67.5441 1400.48
v 1.37311 -66.949 1400.72
v 1.10508 -66.3623 1396.74
v 1.40303 -66.2061 1396.29
v 1.1821 -66.08 1397.5
v 1.45522 -65.774 1397.96
v 1.11504 -66.3688 1399.16
v 1.34162 -66.3561 1399.98
v 1.90841 -73.5601 1396.44
v 2.05215 -73.8695 1397.32
v 2.59236 -73.7177 1396.91
v 1.4821 -73.7329 1397.44
v 1.89078 -73.95 1398.05
v 2.43642 -73.9561 1398.09
v 1.73878 -73.8561 1399.24
v 1.91958 -73.9549 1398.8
v 2.05576 -73.8663 1399.53
v 2.52302 -73.9015 1399.23
v 1.75404 -73.685 1399.84
v 2.42988 -73.7012 1399.98
v 1.7753 -72.967 1395.64
v 1.78753 -72.6436 1395.41
v 2.48535 -73.2264 1395.9
v 2.41625 -72.7857 1395.43
v 1.88613 -73.3992 1400.42
v 1.76788 -73.0818 1400.63
v 1.78048 -72.5315 1400.74
v 2.42066 -73.2462 1400.67
v 2.39658 -72.786 1400.94
v 1.47454 -71.7075 1396.12
v 1.76822 -72.2177 1395.37
v 1.7625 -71.9018 1395.52
v 2.12695 -71.4271 1395.85
v 2.34159 -72.3493 1395.23
v 2.37798 -71.8958 1395.31
v 1.76705 -71.2638 1396.75
v 1.47669 -71.4106 1398.18
v 1.4705 -71.8785 1399.79
v 1.75147 -72.2036 1400.56
v 2.12902 -71.6211 1400.19
v 2.38016 -72.2004 1400.87
v 2.44282 -71.0011 1396.76
v 2.28798 -70.9571 1398.04
v 2.24831 -71.1718 1399.26
v 1.92995 -68.9252 1397.48
v 1.6547 -68.8097 1399.14
v 1.99834 -68.9786 1398.59
v 1.61353 -68.3157 1396.25
v 1.62117 -67.9867 1395.93
v 2.13943 -68.3034 1396.13
v 1.98796 -68.7353 1396.82
v 1.45271 -68.165 1400.39
v 2.06449 -68.4181 1400.38
v 1.45899 -66.9451 1395.74
v 1.60648 -67.2855 1395.64
v 1.90894 -66.9464 1395.55
v 2.29965 -67.5559 1395.65
v 2.50672 -66.9556 1395.59
v 1.46554 -67.5446 1400.9
v 1.90748 -66.6572 1400.97
v 2.25668 -66.6449 1401.01
v 1.63176 -67.2335 1401.07
v 2.07411 -67.5989 1401.08
v 2.06995 -66.9666 1401.15
v 1.61612 -66.3803 1395.89
v 2.24919 -66.3678 1395.74
v 1.47936 -65.8327 1397.02
v 1.92112 -65.8529 1396.29
v 2.18039 -65.4373 1397.14
v 2.59074 -65.8166 1396.28
v 2.56849 -65.4813 1396.9
v 1.9148 -65.5052 1398.54
v 1.92361 -65.4559 1397.75
v 2.56963 -65.3511 1397.5
v 2.51801 -65.3433 1398.34
v 1.47005 -65.9695 1399.35
v 1.9065 -65.7899 1399.69
v 2.56297 -65.4609 1399
v 1.88071 -66.1724 1400.44
v 2.3913 -66.0643 1400.4
v 3.4984 -72.9315 1400.75
v 2.82359 -72.3414 1395.31
v 2.71147 -72.0485 1395.27
v 3.17512 -71.4372 1395.65
v 3.67027 -71.6055 1395.59
v 3.79098 -71.9055 1395.52
v 3.16994 -71.7437 1400.68
v 3.55209 -70.6879 1398.69
v 3.69732 -69.1023 1397.65
v 3.51991 -69.0084 1399.36
v 3.54376 -68.6155 1396.58
v 3.08871 -66.9979 1401.02
v 3.24377 -66.3591 1400.62
v 4.41887 -73.6155 1398.05
v 4.25365 -73.6002 1399.23
v 4.68652 -73.4082 1397.24
v 4.44619 -73.3136 1400.02
v 3.86235 -72.21 1400.88
v 4.31325 -70.847 1396.47
v 4.58541 -70.4751 1398.03
v 4.82241 -70.55 1398.96
v 3.85173 -70.9973 1399.83
v 4.17706 -68.1768 1396.19
v 4.28298 -66.6434 1396.09
v 3.99734 -65.7426 1396.86
v 4.04565 -65.5133 1397.48
v 3.99977 -65.4783 1398.6
v 4.22143 -65.7377 1399.43
v 5.72318 -73.5976 1398.74
v 5.03698 -72.6757 1396.19
v 5.87625 -73.167 1396.88
v 5.88868 -73.5411 1397.75
v 5.85057 -72.6948 1400.37
v 5.20123 -71.9519 1395.9
v 5.58836 -71.6295 1396.01
v 5.25061 -71.4876 1400.42
v 5.12013 -71.0439 1396.26
v 5.95416 -70.3823 1398.21
v 6.11931 -70.3515 1398.06
v 6.1707 -70.2545 1398.06
v 6.15618 -70.2545 1398.36
v 5.89393 -70.8444 1399.69
v 6.16407 -70.2229 1398.65
v 5.54681 -69.1033 1396.76
v 5.29918 -69.652 1398.04
v 5.55117 -69.7163 1398.93
v 5.27218 -68.9258 1400.04
v 5.75785 -68.1524 1400.43
v 5.20443 -67.3197 1396.14
v 5.76265 -66.5215 1396.64
v 6.06864 -66.42 1399.69
v 6.00626 -65.857 1398.18
v 5.96486 -66.0873 1399.28
v 5.90126 -65.8581 1398.71
v 5.09669 -66.1502 1399.81
v 7.26358 -73.7312 1397.72
v 6.65129 -72.5191 1396.32
v 6.20562 -73.3204 1399.68
v 7.24285 -71.9758 1396.24
v 6.63864 -71.3479 1396.35
v 6.92923 -72.293 1400.34
v 6.70416 -70.7045 1397.06
v 6.70416 -70.4045 1397.26
v 7.15918 -70.4958 1396.88
v 6.46828 -70.4045 1397.61
v 6.29916 -70.4045 1398.66
v 6.55416 -70.5545 1399.07
v 6.53119 -70.3591 1399.1
v 7.30416 -70.7045 1399.54
v 6.44174 -69.566 1399.82
v 7.27107 -69.3841 1400.1
v 6.99815 -68.8825 1396.36
v 6.79088 -67.8865 1400.24
v 6.93816 -66.4992 1397.2
v 7.06147 -67.5094 1396.52
v 6.23499 -66.7171 1399.9
v 6.39931 -67.2399 1400.15
v 6.7402 -67.1406 1400.07
v 7.01755 -66.7026 1399.93
v 6.24097 -66.0704 1397.58
v 6.56466 -66.0583 1397.71
v 6.56645 -65.8209 1398.21
v 7.18142 -66.1259 1397.64
v 7.32834 -65.881 1398.37
v 6.30988 -66.3331 1399.57
v 6.68234 -65.9727 1399.24
v 6.71499 -65.7978 1398.79
v 7.30184 -66.3638 1399.66
v 7.34055 -65.9824 1399.09
v 8.05538 -74.0142 1398.25
v 8.47482 -73.8973 1399.24
v 7.52794 -73.1513 1396.67
v 7.65869 -72.6913 1396.36
v 7.69537 -73.042 1400.02
v 8.05416 -71.3045 1396.62
v 8.45592 -71.757 1396.37
v 8.35417 -71.4111 1399.86
v 7.75417 -71.1545 1399.74
v 8.63506 -70.284 1400.08
v 8.34713 -69.3359 1400.32
v 7.90405 -67.9869 1400.36
v 8.07651 -66.6065 1397.33
v 8.1848 -67.1974 1396.88
v 8.4856 -66.5367 1399.27
v 7.97805 -67.0045 1400.01
v 8.34877 -66.3293 1398.04
v 8.51026 -66.3577 1398.65
v 9.41511 -74.2156 1397.06
v 9.55981 -74.5866 1397.88
v 9.68317 -74.5539 1398.67
v 9.1841 -72.4991 1400.13
v 8.61555 -71.4989 1396.42
v 9.44088 -71.7999 1399.95
v 9.73738 -70.7693 1399.93
v 9.49182 -70.0094 1396.47
v 9.37678 -69.6106 1396.5
v 9.61621 -69.3141 1400.26
v 9.0458 -68.1964 1396.64
v 8.83099 -68.032 1400.27
v 9.25836 -67.7301 1399.98
v 9.26375 -67.4292 1397.16
v 9.09754 -66.9344 1397.61
v 9.77046 -67.271 1398.06
v 9.36302 -67.3186 1399.55
v 10.1133 -74.8622 1397.02
v 10.6321 -75.3211 1397.14
v 10.6425 -74.879 1396.57
v 10.0163 -75.0404 1398.22
v 10.1815 -75.1625 1397.5
v 10.6498 -75.4301 1398.33
v 10.9035 -75.5346 1397.49
v 10.5939 -75.1241 1398.93
v 10.1769 -73.8243 1396.25
v 10.0243 -74.3897 1399.28
v 10.3436 -74.6006 1399.25
v 10.9375 -74.7626 1399.45
v 10.4792 -72.6256 1396.13
v 10.9404 -71.334 1396.65
v 10.0601 -70.262 1396.62
v 10.9147 -70.7293 1397.01
v 10.0311 -69.9387 1396.62
v 10.012 -69.3528 1396.64
v 10.9303 -69.0654 1399.43
v 10.5986 -69.9428 1399.9
v 10.5412 -68.7356 1397.16
v 9.86424 -67.6237 1397.47
v 10.7933 -68.4516 1397.76
v 10.8543 -68.353 1398.35
v 10.2283 -68.1618 1399.54
v 9.98906 -68.7457 1400.05
v 9.93595 -67.4312 1398.83
v 11.3374 -75.5236 1397.19
v 11.4322 -75.4096 1396.81
v 11.7989 -75.7933 1397.07
v 11.8278 -75.8851 1397.94
v 11.7656 -75.4112 1399
v 11.8583 -74.9686 1399.46
v 11.6406 -73.9752 1395.84
v 11.7589 -74.8826 1396.01
v 11.0191 -74.0622 1399.81
v 11.4838 -72.8556 1396.18
v 12.0566 -72.7315 1396.53
v 11.8088 -71.4878 1398.36
v 11.7274 -71.3614 1397.78
v 11.7569 -71.3459 1398.06
v 11.7241 -71.2747 1398.35
v 11.1028 -71.3564 1399.37
v 11.4579 -71.2606 1398.98
v 11.5835 -71.5425 1398.96
v 11.6469 -71.3017 1398.66
v 11.7404 -71.5112 1398.63
v 11.3371 -71.0609 1397.29
v 11.1421 -70.2019 1397.16
v 11.35 -70.8278 1397.36
v 11.584 -71.2509 1397.55
v 11.5489 -70.9936 1397.61
v 11.6728 -71.1538 1397.9
v 11.7269 -71.1559 1398.06
v 11.6863 -70.5443 1397.75
v 11.7483 -70.0891 1398.36
v 11.7858 -70.8756 1398.06
v 11.0126 -70.962 1399.47
v 11.3212 -70.5529 1399.38
v 11.7675 -70.7118 1398.67
v 11.19 -69.317 1397.48
v 11.4405 -69.3227 1398.07
v 11.5949 -69.9454 1397.76
v 11.1204 -68.9022 1398.93
v 11.3768 -69.818 1399.23
v 12.1544 -73.7956 1399.72
v 12.6059 -72.7938 1396.99
v 12.827 -72.766 1398.03
v 12.9617 -73.4771 1399.08
v 14.5877 -77.4277 1398.34
v 13.7748 -75.3609 1399.38
v 13.693 -74.8229 1399.37
v 15.5312 -78.6366 1396.97
v 14.7413 -77.7116 1395.49
v 15.5229 -77.4562 1398.58
v 14.7838 -76.9718 1394.98
v 15.6759 -76.7029 1398.78
v 14.7289 -75.894 1395.08
v 15.0198 -75.0397 1395.83
v 16.3175 -79.2675 1395.84
v 16.5806 -78.9947 1397.45
v 16.3256 -78.2239 1394.29
v 16.5115 -77.8798 1394.15
v 16.1189 -78.3255 1398.06
v 16.9315 -76.9908 1394.49
v 15.7685 -76.2201 1398.65
v 16.0447 -75.4423 1396.36
v 16.614 -75.8976 1397.2
v 17.4811 -79.9558 1396.28
v 17.9723 -79.7765 1396.96
v 17.4594 -79.1001 1393.68
v 18.0504 -78.7068 1393.27
v 17.2765 -79.2638 1393.95
v 17.0591 -78.8088 1397.79
v 17.5617 -78.6946 1397.81
v 17.1551 -77.5345 1398.14
v 17.6122 -77.084 1397.51
v 19.1126 -81.0402 1394.79
v 18.6274 -80.5211 1396.05
v 18.6441 -78.4562 1393.19
v 18.6151 -79.5901 1397.14
v 18.8266 -79.0977 1397.27
v 18.9485 -78.0052 1393.71
v 19.2069 -77.8011 1394.37
v 19.4493 -81.0609 1393.35
v 19.9588 -80.8877 1395.84
v 20.1761 -81.3669 1395.04
v 19.6224 -80.4163 1392.25
v 19.9591 -79.9847 1391.88
v 20.0516 -79.9976 1396.47
v 19.8978 -79.2364 1392.22
v 19.99 -78.6322 1392.91
v 20.1144 -79.4773 1396.46
v 21.6181 -82.0295 1391.87
v 21.3503 -82.0601 1393.28
v 20.816 -81.3557 1391.75
v 20.7417 -80.9 1395.69
v 21.1871 -81.5131 1394.92
v 20.9091 -79.8542 1391.31
v 21.5354 -78.9545 1393.08
v 21.325 -79.0725 1394.75
v 22.5333 -82.4049 1392.9
v 22.4525 -80.488 1389.94
v 22.8833 -79.9941 1390.11
v 21.7388 -79.5568 1391.23
v 22.6685 -80.33 1394.48
v 21.9002 -80.7238 1395.2
v 22.5386 -79.5368 1391.13
v 24.1529 -82.5037 1389.44
v 23.7281 -82.7174 1390.73
v 23.2161 -82.2973 1393.26
v 23.1114 -81.4602 1389.41
v 22.9908 -81.9062 1393.92
v 23.2382 -81.5031 1394.08
v 23.6879 -81.2143 1393.81
v 25.0337 -82.95 1391.08
v 25.3198 -82.2463 1392.2
v 25.1196 -80.9965 1392.43
v 25.0918 -80.7437 1387.81
v 24.3428 -80.1091 1389.15
v 24.2386 -79.8349 1391.43
v 25.2689 -80.4461 1391.67
v 26.569 -83.209 1389.43
v 26.6699 -82.8876 1390.52
v 25.8629 -81.9481 1391.95
v 25.7855 -80.0536 1388.93
v 27.1498 -83.1446 1387.66
v 27.2471 -82.2595 1386.1
v 26.9601 -82.8717 1387.11
v 26.9078 -81.7224 1386.09
v 27.6894 -80.3908 1386.41
v 28.0013 -81.3202 1389.88
v 28.1225 -80.407 1388.31
v 27.8951 -80.743 1389.31
v 29.3926 -83.3905 1386.63
v 29.2345 -83.3122 1387.8
v 29.4254 -83.0948 1385.42
v 29.3306 -81.814 1384.16
v 29.473 -81.3484 1384.05
v 28.9009 -81.9358 1389.37
v 29.439 -80.3389 1385.36
v 29.6041 -80.4202 1384.92
v 29.8917 -80.2051 1385.21
v 29.8918 -80.57 1384.34
v 29.9694 -80.3374 1384.69
v 29.3231 -80.2792 1386
v 29.8468 -80.2527 1386.01
v 30.3729 -82.6652 1388
v 31.1925 -82.0478 1387.51
v 31.1157 -80.8858 1383.08
v 31.4459 -81.2112 1386.84
v 30.8021 -79.9588 1383.99
v 31.2108 -80.08 1383.32
v 31.4332 -80.0611 1384.92
v 30.9182 -80.7034 1386.53
v 32.3813 -83.4331 1384.9
v 32.1786 -83.196 1386.04
v 31.9867 -82.3925 1382.57
v 31.8353 -80.3855 1382.75
v 31.9437 -79.5744 1384.03
v 32.7068 -83.3824 1383.87
v 32.8553 -83.1166 1382.94
v 33.4337 -82.6536 1385.74
v 33.6131 -80.5767 1381.67
v 33.2844 -80.7309 1381.7
v 33.1042 -80.6045 1381.95
v 33.1042 -80.2143 1381.86
v 33.5542 -80.3045 1381.9
v 33.7221 -80.1518 1382.64
v 33.7137 -80.0073 1382.63
v 32.8456 -79.7785 1383.64
v 32.8058 -80.3317 1384.12
v 33.3548 -79.9724 1383.15
v 33.7011 -80.2806 1383.12
v 33.607 -78.7211 1380.98
v 32.9385 -78.9185 1382.31
v 33.9092 -81.1869 1380.94
v 33.823 -81.5273 1380.95
v 33.9292 -80.3045 1382.01
v 33.8571 -80.1655 1382.32
v 33.8478 -80.2475 1382.61
v 33.8542 -80.1545 1381.95
v 34.0309 -79.9158 1382.14
v 33.9671 -79.8046 1382.38
v 34.315 -80.3516 1381.69
v 34.1102 -80.266 1382.39
v 34.4331 -80.2924 1381.95
v 34.899 -80.5968 1383.51
v 34.1953 -79.0066 1380.12
v 34.8137 -78.0236 1379.61
v 34.3184 -78.4106 1381.41
v 35.1398 -82.0861 1384.68
v 35.5104 -81.4843 1384.2
v 35.3501 -78.9771 1379.39
v 35.2518 -77.9932 1378.87
v 35.2776 -77.6402 1379.64
v 35.3888 -77.7215 1380.04
v 35.6984 -77.8244 1380.12
v 36.0387 -78.387 1380.11
v 34.963 -78.4031 1381.12
v 37.064 -82.7173 1379.8
v 36.6455 -81.8144 1379.23
v 36.6923 -81.2188 1379.11
v 36.9 -80.9158 1379.09
v 37.1433 -81.3549 1378.95
v 37.1454 -80.9186 1378.97
v 37.295 -81.9242 1379.17
v 37.304 -81.3448 1379.05
v 37.3077 -80.9252 1379.02
v 36.6171 -80.7686 1379.37
v 37.1438 -80.7467 1379.06
v 36.9943 -80.5102 1379.4
v 37.3144 -80.741 1379.07
v 37.3044 -80.4419 1379.32
v 36.8464 -80.4065 1379.67
v 36.3875 -78.6038 1379.16
v 37.1852 -77.1372 1378.58
v 37.2172 -76.6553 1376.38
v 37.3501 -76.9568 1376.28
v 37.4733 -76.189 1377.22
v 37.2847 -83.2233 1380.82
v 37.9502 -83.233 1381.49
v 37.7092 -82.4225 1379.79
v 37.9112 -83.1196 1380.4
v 38.5094 -83.137 1381.26
v 37.4595 -81.0285 1379.18
v 37.4772 -80.7441 1379.18
v 37.4622 -80.2097 1379.83
v 37.8053 -80.557 1379.6
v 37.7726 -80.3326 1379.64
v 37.7089 -80.1889 1380.68
v 38.2217 -80.6242 1380.22
v 38.3308 -80.3292 1380.48
v 38.191 -80.3773 1381.2
v 38.4931 -80.3977 1380.97
v 38.2703 -77.2475 1376.47
v 37.4944 -76.1491 1376.26
v 38.5545 -76.9895 1376.69
v 37.6559 -76.3414 1377.53
v 38.3938 -83.0379 1381.85
v 38.618 -82.9072 1381.18
v 38.7856 -82.9267 1381.69
v 38.978 -82.6974 1381.7
v 39.035 -82.293 1381.65
v 38.4265 -82.8587 1382.11
v 38.6139 -82.5486 1382.27
v 38.9402 -82.6928 1381.89
v 39.0556 -82.3936 1382.01
v 39.1161 -82.3931 1381.86
v 39.1289 -82.0936 1382.01
v 39.0822 -81.3642 1381.67
v 38.7096 -81.9955 1382.35
v 38.6861 -81.7878 1382.34
v 39.0641 -81.3376 1381.83
v 38.8188 -81.3594 1382.07
v 39.1573 -81.8153 1381.85
v 39.0816 -81.6487 1382.01
v 38.7662 -80.7908 1381.1
v 38.4825 -80.6596 1381.54
v 38.8409 -80.7811 1381.29
v 38.8066 -76.5573 1375.1
v 39.2539 -75.9922 1376.07
v 40.5874 -73.8592 1371.98
v 40.4398 -74.4098 1372.17
v 40.4945 -74.6923 1372.31
v 40.9091 -73.8663 1371.77
v 40.1553 -74.1342 1372.5
v 40.2419 -73.8189 1372.85
v 40.8927 -73.5704 1371.96
v 40.6045 -73.5647 1372.26
v 40.6219 -73.5276 1372.6
v 40.9038 -73.3906 1372.26
v 40.7426 -73.5661 1372.94
v 41.0288 -74.1726 1371.74
v 41.0348 -74.8103 1372.34
v 41.1906 -74.4432 1371.88
v 41.3369 -74.014 1371.79
v 41.5274 -74.4373 1372.13
v 41.6471 -73.8627 1372.12
v 40.8199 -73.9222 1373.49
v 41.1429 -74.899 1372.71
v 41.2483 -74.0201 1373.27
v 41.3896 -74.2923 1373.18
v 41.5165 -74.523 1372.71
v 41.7447 -74.1441 1372.43
v 41.6554 -73.8637 1372.72
v 41.6718 -73.7173 1372.41
v 41.2037 -73.5723 1371.96
v 41.1951 -73.3863 1372.28
v 41.3453 -73.5085 1372.71
v 41.4887 -73.5274 1372.26
v 1.46554 -67.5446 1400.9
v 5.95416 -70.3823 1398.21
v 5.95416 -70.3823 1398.21
v 6.11931 -70.3515 1398.06
v 6.1707 -70.2545 1398.06
v 6.1707 -70.2545 1398.06
v 6.15618 -70.2545 1398.36
v 6.15618 -70.2545 1398.36
v 6.15618 -70.2545 1398.36
v 5.54681 -69.1033 1396.76
v 6.70416 -70.7045 1397.06
v 6.70416 -70.4045 1397.26
v 6.70416 -70.4045 1397.26
v 7.15918 -70.4958 1396.88
v 6.46828 -70.4045 1397.61
v 6.29916 -70.4045 1398.66
v 6.29916 -70.4045 1398.66
v 6.55416 -70.5545 1399.07
v 7.30416 -70.7045 1399.54
v 7.30416 -70.7045 1399.54
v 8.05416 -71.3045 1396.62
v 7.75417 -71.1545 1399.74
v 11.1028 -71.3564 1399.37
v 11.6469 -71.3017 1398.66
v 19.2069 -77.8011 1394.37
v 33.6131 -80.5767 1381.67
v 33.1042 -80.6045 1381.95
v 33.1042 -80.2143 1381.86
v 33.5542 -80.3045 1381.9
v 33.5542 -80.3045 1381.9
v 33.5542 -80.3045 1381.9
v 33.5542 -80.3045 1381.9
v 33.7221 -80.1518 1382.64
v 33.7011 -80.2806 1383.12
v 32.9385 -78.9185 1382.31
v 33.9292 -80.3045 1382.01
v 33.9292 -80.3045 1382.01
v 33.9292 -80.3045 1382.01
v 33.9292 -80.3045 1382.01
v 33.8571 -80.1655 1382.32
v 33.8571 -80.1655 1382.32
v 33.8571 -80.1655 1382.32
v 33.8571 -80.1655 1382.32
v 33.8542 -80.1545 1381.95
v 33.8542 -80.1545 1381.95
v 34.1102 -80.266 1382.39
v 34.1953 -79.0066 1380.12
v 37.1433 -81.3549 1378.95
v 37.295 -81.9242 1379.17
v 37.7092 -82.4225 1379.79
v 37.9112 -83.1196 1380.4
v 37.9112 -83.1196 1380.4
v 38.5094 -83.137 1381.26
v 38.3308 -80.3292 1380.48
v 38.4931 -80.3977 1380.97
v 39.0641 -81.3376 1381.83
v 38.8409 -80.7811 1381.29
v 40.9091 -73.8663 1371.77
v 41.0288 -74.1726 1371.74
v 41.1906 -74.4432 1371.88
v 41.1906 -74.4432 1371.88
v 41.5274 -74.4373 1372.13
v 41.7447 -74.1441 1372.43
v 41.6718 -73.7173 1372.41
v 41.1951 -73.3863 1372.28
v 41.4887 -73.5274 1372.26
vn -0.718171 -0.680946 -0.143328
vn -0.529197 -0.848243 0.020842
vn -0.688293 -0.688838 0.227498
vn -0.728283 -0.264987 -0.63197
vn -0.936114 -0.312108 -0.162107
vn -0.934713 -0.0527459 -0.351468
vn -0.678519 -0.621379 -0.39179
vn -0.996756 -0.0543579 0.0593473
vn -0.854061 -0.518036 0.0471034
vn -0.934 -0.24354 0.261405
vn -0.84502 0.0798807 0.528735
vn -0.732477 -0.491392 0.47118
vn -0.801547 0.266753 -0.535131
vn -0.975013 0.184635 -0.123532
vn -0.843453 0.534473 -0.0540891
vn -0.859558 0.438212 -0.262927
vn -0.710424 0.689843 -0.139335
vn -0.945643 0.320528 0.0549647
vn -0.807083 0.57473 0.135286
vn -0.924311 0.277284 0.262228
vn -0.499022 -0.866282 -0.0230704
vn -0.601923 -0.366038 -0.709722
vn -0.957358 -0.152041 -0.24566
vn -0.804157 -0.505346 -0.31298
vn -0.817858 -0.30909 -0.485357
vn -0.564458 -0.777823 -0.276366
vn -0.578509 -0.617943 -0.532422
vn -0.92338 -0.363152 -0.124457
vn -0.972585 -0.227682 0.047313
vn -0.81246 -0.581012 -0.0483083
vn -0.942487 -0.232482 0.240147
vn -0.761571 -0.626817 0.164649
vn -0.764632 -0.0376374 -0.643367
vn -0.996944 0.0466511 -0.0626629
vn -0.956207 0.209455 -0.204443
vn -0.921511 0.0214943 -0.387756
vn -0.818269 0.329111 -0.471297
vn -0.933698 0.357156 -0.0254409
vn -0.98348 0.151217 0.0995025
vn -0.933378 0.233802 0.27229
vn -0.886209 -0.134545 0.443318
vn -0.757842 0.334769 0.560005
vn -0.840476 0.498877 -0.211476
vn -0.655974 0.624382 -0.424082
vn -0.810821 0.584099 -0.037394
vn -0.672782 0.739019 0.0348515
vn -0.859165 0.496552 0.123581
vn -0.723722 0.600202 0.340564
vn -0.192352 -0.884934 -0.424136
vn -0.0804526 -0.972997 -0.216342
vn 0.132378 -0.945684 -0.296914
vn -0.432505 -0.879306 -0.199397
vn -0.212315 -0.97495 -0.0662984
vn 0.0987742 -0.993782 -0.0514003
vn -0.373666 -0.911205 0.173437
vn -0.146162 -0.98733 0.061775
vn -0.0914427 -0.963764 0.250592
vn 0.100098 -0.983679 0.149521
vn -0.381263 -0.839959 0.386143
vn 0.0499555 -0.91138 0.408522
vn -0.307604 -0.680778 -0.664772
vn -0.331013 -0.350884 -0.875963
vn 0.112057 -0.816522 -0.566334
vn 0.0778945 -0.557103 -0.826782
vn -0.313417 -0.745705 0.587957
vn -0.495499 -0.380889 0.780643
vn -0.539669 0.100384 0.835871
vn 0.00162125 -0.690096 0.723716
vn -0.108249 -0.208125 0.972094
vn -0.650189 0.66146 -0.373798
vn -0.482205 0.127746 -0.866695
vn -0.505881 0.545617 -0.668122
vn -0.283294 0.821192 -0.495367
vn -0.043328 -0.112216 -0.992739
vn -0.111533 0.461402 -0.880153
vn -0.492378 0.853641 -0.169886
vn -0.62042 0.780407 0.0777418
vn -0.694551 0.627676 0.351599
vn -0.602545 0.489378 0.630435
vn -0.351099 0.769364 0.533674
vn -0.22169 0.413954 0.882891
vn -0.234529 0.949628 -0.207853
vn -0.338278 0.940731 0.0243686
vn -0.384058 0.885194 0.262546
vn -0.22831 -0.959123 -0.167202
vn -0.363224 -0.900506 0.239078
vn -0.18768 -0.980916 0.0507996
vn -0.304608 -0.774113 -0.554944
vn -0.27587 -0.538629 -0.7961
vn -0.0239826 -0.709723 -0.704072
vn -0.141525 -0.898756 -0.41498
vn -0.577638 -0.638944 0.508021
vn -0.178797 -0.823143 0.53895
vn -0.579574 0.199933 -0.790013
vn -0.386511 -0.184943 -0.903552
vn -0.156254 0.140986 -0.977603
vn 0.0381914 -0.320553 -0.94646
vn 0.148009 0.117375 -0.981996
vn -0.280041 -0.474535 0.834502
vn -0.316946 0.558806 0.766342
vn 0.0385896 0.559135 0.828178
vn -0.453079 0.073225 0.888458
vn -0.0777719 -0.405714 0.910685
vn -0.0715854 0.186056 0.979928
vn -0.452199 0.505731 -0.734678
vn 0.00267747 0.517475 -0.855694
vn -0.608118 0.769927 -0.193405
vn -0.277223 0.811308 -0.51471
vn -0.2534 0.940368 -0.226928
vn 0.101845 0.767431 -0.632991
vn 0.0309638 0.933911 -0.356163
vn -0.395492 0.907202 0.143424
vn -0.370028 0.928444 -0.0327175
vn -0.0102292 0.996149 -0.0870818
vn -0.0923444 0.99252 0.079855
vn -0.654918 0.730219 0.194583
vn -0.355687 0.871515 0.337563
vn -0.0472916 0.959062 0.279221
vn -0.423327 0.734791 0.529978
vn -0.0212404 0.830258 0.556974
vn 0.152946 -0.545599 0.823972
vn 0.228156 -0.253238 -0.940114
vn 0.127854 0.154165 -0.979738
vn 0.00055902 0.716357 -0.697734
vn 0.150776 0.4375 -0.886488
vn 0.233645 0.0874612 -0.96838
vn -0.0769459 0.639183 0.765195
vn -0.20085 0.963824 0.175223
vn -0.160587 -0.969191 -0.186765
vn -0.156171 -0.951721 0.264269
vn -0.0431525 -0.815268 -0.577473
vn 0.203571 0.223685 0.953165
vn 0.180649 0.669475 0.720534
vn 0.0928189 -0.990297 -0.10342
vn 0.119689 -0.97684 0.177364
vn 0.113019 -0.910458 -0.397861
vn 0.13452 -0.867331 0.47921
vn 0.0901843 0.127792 0.987692
vn -0.036162 0.906423 -0.42082
vn -0.120593 0.992183 -0.0320995
vn -0.0767243 0.955558 0.284643
vn -0.123394 0.868721 0.479686
vn 0.0258946 -0.497126 -0.867292
vn 0.233647 0.47097 -0.850644
vn 0.224542 0.8212 -0.524605
vn 0.176476 0.963191 -0.202781
vn 0.129275 0.986639 0.0991522
vn 0.141874 0.901187 0.409553
vn -0.0545963 -0.997537 0.044035
vn 0.183436 -0.639642 -0.746465
vn -0.0172256 -0.823193 -0.567501
vn -0.0339392 -0.97121 -0.235794
vn 0.125094 -0.548651 0.82664
vn 0.209644 -0.17444 -0.962092
vn 0.210512 0.226324 -0.951032
vn 0.0897373 0.527062 0.845076
vn 0.115481 0.69433 -0.710331
vn -0.0693478 0.997506 0.0131467
vn -0.589633 0.651549 -0.477302
vn -0.562418 -0.817565 -0.123586
vn -0.384677 0.89107 -0.240869
vn 0.0310914 0.834317 0.550408
vn -0.671573 -0.714711 0.195391
vn -0.392134 -0.808806 -0.438251
vn -0.511306 -0.850401 -0.124036
vn -0.438765 -0.869898 0.225304
vn -0.16884 -0.687187 0.706588
vn 0.0990741 -0.230904 0.967919
vn 0.178535 0.00905286 -0.983892
vn 0.27672 0.620352 -0.733886
vn 0.192034 0.717629 0.669427
vn 0.104323 0.980716 -0.165268
vn 0.0563997 0.842106 0.536355
vn 0.0501239 0.973054 0.225062
vn 0.226522 0.794979 0.562758
vn -0.19309 -0.931778 -0.307417
vn 0.0405425 -0.464157 -0.884825
vn 0.0104974 -0.872625 0.488279
vn 0.0542154 0.0359207 -0.997883
vn 0.153933 0.426107 -0.89148
vn 0.110525 -0.171377 0.978986
vn 0.0662208 0.78373 -0.617562
vn -0.58837 -0.675021 -0.445159
vn -0.585883 -0.582526 -0.563387
vn -0.027029 0.965737 -0.258113
vn -0.0596885 0.980238 0.188602
vn 0.0285486 0.902153 0.430471
vn -0.619824 -0.516714 0.590614
vn -0.585567 -0.406211 0.701501
vn -0.307823 -0.564725 0.765722
vn -0.158998 -0.29926 0.940831
vn -0.0424198 -0.0992097 -0.994162
vn 0.0602812 0.0636953 0.996147
vn 0.187935 0.716785 -0.671491
vn 0.210134 0.3516 -0.912261
vn 0.151461 0.544295 0.825107
vn 0.184974 0.361984 0.913648
vn 0.0169924 0.305927 0.951903
vn -0.000159792 0.481452 0.876473
vn 0.209449 0.898847 -0.384976
vn 0.0613959 0.875836 -0.478687
vn 0.0199323 0.975085 -0.220935
vn 0.156937 0.85657 -0.491588
vn 0.250332 0.963284 -0.0970437
vn -0.000448944 0.691783 0.722105
vn -0.0181348 0.852019 0.523196
vn 0.0488259 0.986415 0.156846
vn 0.130928 0.714339 0.687443
vn 0.254624 0.905779 0.33872
vn -0.276523 -0.960379 0.0347416
vn -0.237133 -0.862768 0.446542
vn -0.187929 -0.686238 -0.702681
vn -0.119127 -0.366761 -0.922657
vn -0.0733965 -0.6239 0.77805
vn -0.0331376 0.466036 -0.884145
vn -0.00202266 0.341493 -0.939882
vn -0.0712312 0.145902 0.986731
vn 0.08278 0.656981 0.749349
vn -0.0321746 -0.145698 0.988806
vn -0.0597922 -0.164653 0.984538
vn 0.0107886 0.16697 0.985903
vn 0.285507 0.725245 -0.626503
vn 0.217244 0.532141 -0.81831
vn 0.426233 0.777921 0.461697
vn 0.230446 0.531203 0.815302
vn 0.413989 0.867079 -0.277104
vn 0.479257 0.873242 0.0880961
vn -0.42795 -0.792079 -0.435281
vn -0.621098 -0.776904 -0.10324
vn -0.48803 -0.805022 0.337292
vn 0.111585 0.119615 0.98653
vn -0.281233 -0.0140898 -0.959536
vn 0.0285417 0.0518244 0.998248
vn 0.262825 -0.053873 0.963338
vn 0.249976 0.221439 -0.94259
vn 0.180677 0.0995915 -0.978487
vn 0.185636 -0.0209532 0.982395
vn 0.248902 0.289146 -0.924361
vn 0.2293 0.267209 0.93596
vn 0.419646 0.477938 0.771669
vn 0.419326 0.567838 -0.708326
vn 0.490968 0.751499 -0.440681
vn 0.636458 0.755032 -0.157633
vn 0.505341 0.657031 0.559411
vn -0.605064 -0.636738 -0.477976
vn -0.390018 -0.82557 -0.407824
vn -0.428383 -0.623311 -0.654195
vn -0.62636 -0.76026 0.172272
vn -0.583705 -0.797864 -0.150671
vn -0.400161 -0.894856 0.197747
vn -0.346496 -0.920289 -0.181686
vn -0.425794 -0.739485 0.521403
vn -0.323149 -0.36808 -0.871832
vn -0.293165 -0.736597 0.609491
vn -0.41705 -0.591928 0.689703
vn -0.259329 -0.586582 0.767248
vn -0.0320066 0.113648 -0.993005
vn 0.534582 0.430205 -0.727424
vn 0.396993 0.173294 -0.901313
vn 0.606119 0.210492 -0.767016
vn 0.321461 0.0342142 -0.946304
vn 0.358492 0.157764 -0.920105
vn 0.687608 0.333795 0.644807
vn 0.477167 -0.00936484 0.878763
vn 0.560912 0.405573 -0.721726
vn 0.600518 0.633785 -0.487539
vn 0.740572 0.575419 -0.347053
vn 0.784906 0.619547 -0.00922579
vn 0.637762 0.530267 0.558639
vn 0.46628 0.268423 0.842931
vn 0.659682 0.715442 0.230136
vn -0.352823 -0.887041 -0.297783
vn -0.452731 -0.759417 -0.467248
vn -0.590014 -0.778929 -0.212494
vn -0.447473 -0.893076 0.0467308
vn -0.31258 -0.796394 0.517735
vn -0.175491 -0.568546 0.803715
vn -0.196547 0.0370628 -0.979794
vn -0.447585 -0.441394 -0.777714
vn -0.0830193 -0.369998 0.925316
vn 0.238199 0.405372 -0.882573
vn 0.454644 0.584819 -0.671778
vn 0.869782 0.457234 0.185515
vn 0.854447 0.481326 -0.195564
vn 0.925442 0.375355 -0.0516365
vn 0.993315 0.0650009 0.0953946
vn 0.308146 -0.182735 0.933624
vn 0.782798 -0.00986257 0.622197
vn 0.774505 0.415196 0.477236
vn 0.870362 0.348 0.348375
vn 0.833363 0.435242 0.340692
vn 0.736557 0.358272 -0.573694
vn 0.602727 0.104107 -0.791127
vn 0.728454 0.05111 -0.683186
vn 0.835765 0.449138 -0.315867
vn 0.867064 0.050547 -0.495626
vn 0.941845 0.135358 -0.307581
vn 0.987326 -0.0240122 -0.156876
vn 0.880009 0.0400753 -0.473263
vn 0.972505 0.231042 0.0292349
vn 0.975942 -0.0866734 -0.200063
vn 0.499447 -0.187958 0.84571
vn 0.701375 -0.0945029 0.7065
vn 0.943116 -0.0540502 0.32804
vn 0.756872 0.368817 -0.539555
vn 0.881888 0.449834 -0.141152
vn 0.877932 0.241373 -0.413491
vn 0.825925 0.488728 0.281057
vn 0.819557 0.210491 0.532935
vn 0.236865 0.103661 0.965997
vn 0.628839 0.667747 -0.398341
vn 0.761632 0.64267 0.0830192
vn 0.607442 0.508281 0.610463
vn -0.342846 -0.716953 0.606988
vn 0.162425 -0.126876 0.97853
vn 0.416877 0.240246 0.876639
vn -0.505936 -0.820646 0.265649
vn -0.633917 -0.616002 -0.467644
vn -0.0257542 -0.448883 0.893219
vn -0.482051 -0.188117 -0.85571
vn 0.315599 -0.0544676 0.947328
vn -0.0561228 0.354898 -0.933219
vn 0.375492 0.702789 -0.60423
vn -0.593665 -0.799973 -0.0872099
vn -0.324005 -0.79153 0.518171
vn -0.550965 -0.195779 -0.811239
vn -0.373297 0.157517 -0.914242
vn -0.19573 -0.664558 0.721147
vn 0.143421 0.705729 -0.693814
vn 0.540879 0.339014 0.769753
vn 0.533169 0.806527 -0.255432
vn 0.632402 0.75119 0.189159
vn -0.428405 -0.861876 0.271365
vn -0.164793 -0.777906 0.606387
vn -0.59801 -0.174468 -0.782269
vn -0.432695 0.247209 -0.866985
vn -0.646206 -0.465499 -0.604755
vn -0.0480044 -0.616334 0.78602
vn 0.216992 -0.32207 0.921513
vn 0.504729 0.123715 0.854367
vn 0.643165 0.511637 0.569707
vn -0.441236 -0.894199 0.0756249
vn -0.275335 -0.876037 0.395917
vn -0.144642 0.614814 -0.775295
vn 0.149074 -0.547002 0.823751
vn 0.414462 -0.152426 0.897211
vn 0.153763 0.831661 -0.53357
vn 0.544484 0.838577 0.0180557
vn -0.580078 -0.771021 -0.262747
vn -0.0180977 -0.782678 0.622163
vn -0.200134 -0.918258 0.341684
vn -0.652808 -0.345967 -0.673906
vn -0.569569 0.118346 -0.813379
vn 0.415851 -0.283431 0.864138
vn -0.301345 0.565416 -0.767786
vn 0.0471269 0.862221 -0.504334
vn 0.599123 0.155096 0.785492
vn -0.480435 -0.83906 -0.255264
vn -0.317345 -0.946083 0.0649531
vn -0.609916 -0.626313 -0.485525
vn 0.274045 -0.577079 0.769337
vn 0.00965641 -0.870993 0.4912
vn -0.413363 0.537103 -0.73529
vn 0.310554 0.944787 -0.104565
vn 0.572161 0.763147 0.300397
vn -0.142888 -0.969508 0.199093
vn -0.55829 0.316769 -0.766792
vn -0.301427 0.758812 -0.577361
vn -0.20065 0.774142 -0.60037
vn 0.657361 0.350122 0.667301
vn 0.554997 -0.129504 0.82171
vn 0.0140381 0.948724 -0.315794
vn -0.493638 -0.75627 -0.429393
vn -0.288506 -0.951623 -0.10573
vn 0.141009 -0.876758 0.459794
vn -0.640666 -0.328866 -0.693826
vn 0.295731 -0.687804 0.662925
vn 0.497292 -0.382206 0.778858
vn 0.638304 0.0476448 0.768309
vn -0.0114794 -0.978665 0.205143
vn 0.442731 -0.603338 0.663304
vn 0.63353 0.438757 0.637285
vn -0.486673 0.577878 -0.655139
vn -0.222803 0.874793 -0.430228
vn 0.301817 0.949171 0.0893354
vn 0.516503 0.735957 0.437712
vn -0.047636 -0.996456 0.0693242
vn 0.27546 -0.849481 0.450004
vn 0.606999 -0.222913 0.762799
vn 0.0285004 0.995058 -0.0951207
vn -0.270164 -0.936214 -0.224756
vn -0.537228 -0.56892 -0.622669
vn -0.421409 -0.792035 -0.441695
vn -0.638732 -0.0699615 -0.766242
vn -0.216574 0.925304 -0.311302
vn 0.569131 0.536102 0.623446
vn 0.302106 0.914842 0.267949
vn 0.462302 0.753134 0.468046
vn -0.0977063 -0.991813 -0.0822176
vn 0.121936 -0.970403 0.208444
vn -0.324378 -0.855162 -0.404322
vn -0.582776 -0.254526 -0.771744
vn -0.592611 0.179753 -0.785176
vn 0.643437 0.0869804 0.760541
vn -0.241855 0.949444 -0.200155
vn -0.32711 0.887837 -0.323643
vn -0.391475 0.902585 -0.17913
vn -0.523532 0.658437 -0.540717
vn -0.506949 0.794194 -0.33505
vn -0.130146 0.985072 -0.112676
vn 0.0753206 0.967752 0.24038
vn 0.533643 -0.486414 0.691828
vn 0.596906 0.208037 0.77487
vn -0.519395 0.461455 -0.719227
vn 0.4785 0.618664 0.623131
vn -0.62242 0.700361 -0.349411
vn -0.717188 0.272582 -0.641358
vn 0.357593 0.7312 0.580925
vn 0.344931 0.832825 0.432926
vn 0.0583114 -0.996162 0.0652781
vn 0.318742 -0.840493 0.438149
vn -0.462183 -0.582225 -0.66888
vn -0.586888 -0.131929 -0.798848
vn 0.11596 0.876769 0.466722
vn -0.128576 -0.972845 -0.192457
vn -0.275447 -0.860425 -0.428716
vn 0.544305 -0.350608 0.762107
vn -0.351168 0.753835 -0.55535
vn -0.416876 0.671552 -0.612562
vn -0.492352 0.389479 -0.778393
vn -0.372717 -0.590754 -0.715606
vn 0.0564198 -0.22053 -0.973747
vn 0.634638 0.739104 0.225741
vn 0.850993 -0.167187 0.497854
vn 0.633965 0.372741 0.677609
vn 0.45504 0.748322 0.482651
vn 0.785216 0.223768 0.577377
vn 0.630507 0.69854 0.338382
vn -0.747246 0.495435 -0.442909
vn -0.56157 0.811164 -0.163254
vn -0.535642 0.312285 -0.78458
vn -0.555878 -0.106111 -0.824463
vn 0.198909 0.664234 -0.720575
vn 0.461317 0.851173 0.250383
vn 0.434227 0.875138 0.213496
vn 0.25743 -0.253044 -0.932576
vn 0.798549 -0.499873 0.335331
vn 0.787391 -0.361997 0.498973
vn -0.16084 0.953834 -0.253638
vn 0.428948 0.856831 -0.286085
vn -0.0636016 0.987526 -0.144036
vn 0.265625 0.870837 0.413626
vn -0.771618 0.059098 -0.633335
vn -0.724088 0.627187 -0.286937
vn 0.109566 0.856184 0.504921
vn 0.555864 0.0810884 0.827309
vn 0.470271 0.511084 0.719471
vn -0.161459 -0.802467 -0.574437
vn -0.8127 0.282168 -0.509804
vn -0.478637 0.875863 0.0614017
vn -0.0667802 0.905428 0.419214
vn 0.266297 0.742662 0.614442
vn 0.791803 -0.128332 0.597143
vn 0.481133 0.543306 0.68799
vn -0.11198 -0.748286 -0.653856
vn -0.368637 -0.387728 -0.844851
vn -0.458107 0.0680757 -0.886286
vn -0.453204 0.390901 -0.801126
vn -0.289128 -0.16763 -0.942499
vn -0.101604 0.260168 -0.960203
vn -0.0135143 -0.558678 -0.829275
vn 0.653725 -0.113715 -0.748139
vn 0.521677 0.0650406 -0.85066
vn -0.46005 0.557334 -0.691183
vn -0.254894 0.585577 -0.769499
vn -0.356676 0.735481 -0.576065
vn 0.292771 0.459137 -0.838736
vn -0.0626802 0.805674 -0.589034
vn -0.289344 0.855369 -0.429678
vn 0.601375 -0.796112 0.0674842
vn 0.537055 0.474353 0.697539
vn -0.81237 0.0973665 -0.574957
vn -0.585152 -0.415318 -0.696497
vn -0.381334 0.894504 0.233338
vn -0.0668487 -0.972885 -0.221419
vn 0.145541 -0.986328 0.077296
vn 0.798041 -0.147302 -0.584323
vn 0.0312226 -0.976034 -0.215368
vn 0.769587 -0.499248 -0.398104
vn 0.772702 -0.0875474 -0.628702
vn 0.679942 0.159188 -0.715778
vn -0.0162489 0.968072 -0.250144
vn 0.807151 0.0330722 -0.589418
vn 0.539434 0.637899 -0.549632
vn 0.0962555 0.995055 0.0245151
vn 0.833528 0.0225411 -0.552017
vn 0.209678 0.977211 -0.0330738
vn 0.23866 0.915606 0.323584
vn 0.336815 0.907639 0.250494
vn 0.399975 -0.891061 -0.214547
vn -0.764557 0.594491 -0.249065
vn 0.79121 -0.540719 0.285673
vn 0.13247 0.808712 0.573094
vn 0.316284 -0.885883 0.339376
vn 0.805213 -0.338712 -0.48673
vn 0.640252 -0.753489 0.149438
vn 0.873679 -0.450368 -0.183992
vn 0.868265 -0.0936385 -0.487184
vn 0.431318 -0.697578 0.572144
vn 0.523614 -0.43846 0.730466
vn 0.681604 -0.591225 0.431125
vn 0.724398 -0.316187 0.612595
vn 0.964838 -0.262319 0.0166033
vn 0.871547 -0.0565631 0.487038
vn 0.957257 0.140014 -0.25309
vn 0.584095 -0.0562833 0.809732
vn 0.540601 0.247232 0.804131
vn 0.559159 0.598013 0.574214
vn 0.510232 0.498184 0.701054
vn 0.998322 0.0547308 -0.0189127
vn 0.749146 0.21247 0.627405
vn 0.882895 0.199489 -0.425088
vn 0.425256 0.749941 0.506701
vn 0.910314 0.342192 -0.232878
vn -0.0204879 -0.850256 -0.525971
vn 0.790592 0.0109579 0.612245
vn -0.672201 0.281422 -0.684798
vn -0.634566 -0.206805 -0.744687
vn -0.316501 -0.636605 -0.70325
vn -0.541074 -0.13545 -0.829996
vn -0.831673 0.312776 -0.458794
vn -0.706133 0.70016 -0.105603
vn -0.321121 0.67771 -0.661506
vn -0.653552 0.688041 -0.315389
vn -0.476196 0.875764 0.0792099
vn -0.216168 0.956749 -0.194684
vn -0.0811467 0.927426 0.365098
vn -0.411042 -0.402101 -0.818144
vn 0.204967 -0.854848 -0.476679
vn -0.206174 -0.665043 -0.717781
vn 0.436448 0.0250424 -0.899381
vn 0.621365 -0.740134 -0.257113
vn 0.819217 0.234506 -0.523346
vn 0.29952 0.718968 0.627194
vn 0.591187 -0.796587 -0.126279
vn 0.633287 0.403246 0.66056
vn 0.859706 -0.119744 0.496556
vn 0.830425 -0.537186 0.147734
vn 0.99647 -0.0534468 0.0647408
vn 0.843062 0.299327 0.446822
vn 0.674848 0.691435 0.257872
vn 0.252894 0.67794 -0.690248
vn 0.192912 0.854983 -0.481445
vn 0.455065 0.793889 0.403307
vn 0.596249 0.645092 -0.477853
vn -0.795299 -0.100258 0.597869
vn -0.503932 0.766787 -0.397606
vn -0.697928 0.449679 0.557392
vn -0.882826 0.467753 -0.0427313
vn -0.882826 0.467753 -0.0427313
vn -0.777701 0.221916 -0.588162
vn -0.697928 0.449679 0.557392
vn -0.663704 -0.746039 0.054069
vn -0.882826 0.467753 -0.0427313
vn -0.133875 -0.528397 -0.838376
vn -0.771139 0.354295 -0.52898
vn -0.806217 0.210135 -0.553043
vn -0.0238808 0.556325 -0.830622
vn -0.356443 -0.252484 -0.899556
vn -0.741817 0.356225 -0.568166
vn -0.697928 0.449679 0.557392
vn -0.82781 -0.442379 0.345009
vn -0.72436 -0.171873 0.667654
vn -0.352121 -0.374671 0.85769
vn -0.0260769 0.374665 0.926794
vn -0.616384 -0.479045 -0.624969
vn -0.549162 -0.189704 0.8139
vn 0.657402 0.267689 0.70439
vn 0.908235 -0.192706 0.371448
vn 0.257281 0.868893 -0.422884
vn 0.198909 0.664234 -0.720575
vn 0.0564198 -0.22053 -0.973747
vn 0.0564198 -0.22053 -0.973747
vn -0.425384 0.536326 -0.728974
vn 0.198909 0.664234 -0.720575
vn 0.25743 -0.253044 -0.932576
vn 0.211239 -0.925005 -0.315824
vn 0.877162 0.0870244 0.472243
vn 0.121755 0.979973 0.157569
vn -0.102703 0.938755 0.328923
vn 0.25743 -0.253044 -0.932576
vn -0.115918 0.961861 -0.247762
vn 0.893373 0.449272 0.00631633
vn 0.428948 0.856831 -0.286085
vn 0.890872 -0.0783701 0.447444
vn 0.893373 0.449272 0.00631633
vn 0.428948 0.856831 -0.286085
vn 0.8128 -0.582066 -0.0235706
vn 0.893373 0.449272 0.00631633
vn 0.668156 -0.742739 0.0436569
vn 0.0650189 0.99715 0.0382762
vn -0.413991 -0.6073 -0.678084
vn 0.444897 -0.0639212 -0.893298
vn 0.707526 -0.155687 -0.689325
vn 0.268579 -0.6219 -0.735599
vn 0.72914 -0.408216 -0.549286
vn 0.257275 -0.598242 -0.758892
vn 0.243473 -0.963694 0.109614
vn 0.858569 0.27825 -0.430623
vn 0.82899 0.486115 -0.27653
vn 0.956246 0.266889 0.119846
vn 0.543106 0.729885 0.415095
vn -0.0627702 0.394768 -0.916634
vn 0.185071 -0.0882948 -0.978751
vn 0.377804 -0.780487 -0.4981
vn 0.425602 -0.334457 -0.840834
vn 0.742849 -0.245882 -0.622669
vn 0.832336 -0.550378 -0.0655856
vn 0.948833 0.292866 -0.118093
vn 0.143678 0.966749 0.211548
vn 0.541127 0.829342 0.13919
g grp1
usemtl mtl1
f 2//2 9//9 1//1 
f 2//2 1//1 52//52 
f 3//3 9//9 2//2 
f 52//52 53//53 2//2 
f 2//2 55//55 3//3 
f 7//7 6//6 4//4 
f 4//4 6//6 13//13 
f 14//14 6//6 5//5 
f 6//6 7//7 5//5 
f 6//6 14//14 16//16 
f 5//5 7//7 1//1 
f 5//5 8//8 14//14 
f 8//8 18//18 14//14 
f 8//8 20//20 18//18 
f 5//5 9//9 8//8 
f 9//9 3//3 10//10 
f 9//9 10//10 8//8 
f 9//9 5//5 1//1 
f 10//10 20//20 8//8 
f 10//10 11//11 20//20 
f 55//55 59//59 3//3 
f 3//3 12//12 10//10 
f 10//10 12//12 11//11 
f 13//13 71//71 4//4 
f 16//16 13//13 6//6 
f 16//16 14//14 15//15 
f 16//16 15//15 17//17 
f 70//70 13//13 16//16 
f 17//17 70//70 16//16 
f 17//17 15//15 77//77 
f 20//20 19//19 18//18 
f 14//14 18//18 15//15 
f 18//18 19//19 15//15 
f 19//19 77//77 15//15 
f 11//11 78//78 20//20 
f 20//20 78//78 19//19 
f 25//25 33//33 22//22 
f 27//27 25//25 22//22 
f 89//89 27//27 22//22 
f 95//95 22//22 33//33 
f 24//24 26//26 28//28 
f 24//24 28//28 23//23 
f 27//27 26//26 24//24 
f 25//25 27//27 24//24 
f 25//25 24//24 23//23 
f 28//28 30//30 29//29 
f 21//21 32//32 30//30 
f 26//26 30//30 28//28 
f 30//30 26//26 21//21 
f 30//30 32//32 29//29 
f 31//31 92//92 41//41 
f 29//29 32//32 31//31 
f 31//31 32//32 92//92 
f 32//32 86//86 92//92 
f 103//103 99//99 92//92 
f 92//92 556//556 41//41 
f 36//36 25//25 23//23 
f 36//36 37//37 33//33 
f 36//36 33//33 25//25 
f 94//94 95//95 33//33 
f 37//37 94//94 33//33 
f 35//35 36//36 23//23 
f 23//23 34//34 35//35 
f 34//34 38//38 35//35 
f 36//36 35//35 37//37 
f 43//43 37//37 35//35 
f 35//35 38//38 43//43 
f 43//43 38//38 45//45 
f 44//44 37//37 43//43 
f 23//23 28//28 34//34 
f 28//28 29//29 34//34 
f 29//29 39//39 34//34 
f 34//34 39//39 38//38 
f 38//38 39//39 47//47 
f 29//29 31//31 39//39 
f 31//31 40//40 39//39 
f 40//40 31//31 41//41 
f 40//40 47//47 39//39 
f 41//41 42//42 40//40 
f 41//41 556//556 42//42 
f 48//48 47//47 40//40 
f 556//556 102//102 42//42 
f 42//42 48//48 40//40 
f 107//107 43//43 45//45 
f 44//44 43//43 107//107 
f 45//45 38//38 47//47 
f 47//47 46//46 45//45 
f 47//47 116//116 46//46 
f 47//47 48//48 116//116 
f 49//49 50//50 52//52 
f 51//51 50//50 49//49 
f 49//49 63//63 51//51 
f 63//63 136//136 51//51 
f 53//53 52//52 50//50 
f 53//53 56//56 2//2 
f 50//50 54//54 53//53 
f 54//54 56//56 53//53 
f 51//51 54//54 50//50 
f 56//56 55//55 2//2 
f 57//57 59//59 55//55 
f 56//56 57//57 55//55 
f 57//57 60//60 59//59 
f 54//54 58//58 56//56 
f 56//56 58//58 57//57 
f 58//58 60//60 57//57 
f 59//59 60//60 65//65 
f 61//61 7//7 4//4 
f 61//61 4//4 62//62 
f 71//71 62//62 4//4 
f 52//52 7//7 49//49 
f 49//49 7//7 61//61 
f 49//49 61//61 63//63 
f 64//64 61//61 62//62 
f 64//64 62//62 74//74 
f 74//74 62//62 71//71 
f 64//64 63//63 61//61 
f 63//63 64//64 150//150 
f 63//63 150//150 136//136 
f 122//122 64//64 74//74 
f 1//1 7//7 52//52 
f 59//59 12//12 3//3 
f 11//11 12//12 66//66 
f 11//11 66//66 67//67 
f 59//59 65//65 12//12 
f 65//65 66//66 12//12 
f 69//69 67//67 66//66 
f 68//68 66//66 65//65 
f 66//66 68//68 69//69 
f 81//81 67//67 69//69 
f 60//60 68//68 65//65 
f 72//72 13//13 70//70 
f 13//13 72//72 71//71 
f 73//73 72//72 70//70 
f 71//71 72//72 75//75 
f 75//75 72//72 73//73 
f 74//74 71//71 75//75 
f 75//75 73//73 124//124 
f 124//124 73//73 139//139 
f 139//139 73//73 82//82 
f 122//122 74//74 123//123 
f 123//123 74//74 75//75 
f 76//76 70//70 17//17 
f 77//77 76//76 17//17 
f 70//70 76//76 73//73 
f 73//73 76//76 82//82 
f 77//77 19//19 78//78 
f 77//77 78//78 84//84 
f 142//142 84//84 80//80 
f 79//79 11//11 67//67 
f 11//11 79//79 78//78 
f 79//79 80//80 78//78 
f 78//78 80//80 84//84 
f 79//79 67//67 81//81 
f 79//79 81//81 80//80 
f 127//127 80//80 81//81 
f 142//142 80//80 127//127 
f 83//83 76//76 77//77 
f 82//82 76//76 83//83 
f 77//77 84//84 83//83 
f 91//91 129//129 85//85 
f 85//85 87//87 21//21 
f 129//129 87//87 85//85 
f 87//87 86//86 21//21 
f 86//86 32//32 21//21 
f 87//87 130//130 86//86 
f 88//88 27//27 89//89 
f 89//89 22//22 95//95 
f 89//89 90//90 88//88 
f 89//89 95//95 97//97 
f 89//89 97//97 90//90 
f 143//143 90//90 97//97 
f 85//85 26//26 91//91 
f 21//21 26//26 85//85 
f 26//26 88//88 91//91 
f 26//26 27//27 88//88 
f 90//90 91//91 88//88 
f 131//131 91//91 90//90 
f 131//131 129//129 91//91 
f 92//92 86//86 93//93 
f 93//93 86//86 130//130 
f 93//93 103//103 92//92 
f 94//94 96//96 95//95 
f 105//105 96//96 94//94 
f 94//94 37//37 105//105 
f 96//96 105//105 106//106 
f 96//96 106//106 98//98 
f 97//97 95//95 96//96 
f 98//98 97//97 96//96 
f 144//144 98//98 106//106 
f 42//42 102//102 100//100 
f 104//104 101//101 100//100 
f 100//100 101//101 120//120 
f 99//99 103//103 102//102 
f 104//104 102//102 103//103 
f 100//100 102//102 104//104 
f 132//132 104//104 103//103 
f 132//132 101//101 104//104 
f 168//168 132//132 103//103 
f 105//105 37//37 44//44 
f 108//108 105//105 44//44 
f 106//106 105//105 108//108 
f 108//108 110//110 106//106 
f 144//144 106//106 110//110 
f 46//46 107//107 45//45 
f 108//108 44//44 107//107 
f 109//109 108//108 107//107 
f 113//113 109//109 107//107 
f 109//109 111//111 108//108 
f 111//111 109//109 114//114 
f 110//110 108//108 111//111 
f 146//146 111//111 114//114 
f 113//113 107//107 46//46 
f 46//46 116//116 112//112 
f 113//113 46//46 112//112 
f 109//109 113//113 114//114 
f 114//114 113//113 115//115 
f 113//113 112//112 115//115 
f 115//115 112//112 118//118 
f 147//147 114//114 115//115 
f 147//147 115//115 118//118 
f 116//116 48//48 117//117 
f 112//112 116//116 117//117 
f 117//117 120//120 118//118 
f 112//112 117//117 118//118 
f 48//48 42//42 119//119 
f 119//119 42//42 100//100 
f 48//48 119//119 117//117 
f 100//100 120//120 119//119 
f 117//117 119//119 120//120 
f 54//54 51//51 134//134 
f 150//150 64//64 122//122 
f 150//150 122//122 154//154 
f 68//68 121//121 69//69 
f 69//69 138//138 81//81 
f 121//121 138//138 69//69 
f 137//137 68//68 60//60 
f 75//75 125//125 123//123 
f 125//125 75//75 124//124 
f 157//157 125//125 124//124 
f 124//124 139//139 157//157 
f 123//123 126//126 122//122 
f 126//126 123//123 125//125 
f 138//138 127//127 81//81 
f 127//127 138//138 156//156 
f 156//156 142//142 127//127 
f 82//82 140//140 139//139 
f 140//140 82//82 83//83 
f 84//84 142//142 128//128 
f 84//84 128//128 83//83 
f 140//140 83//83 128//128 
f 130//130 167//167 93//93 
f 169//169 143//143 97//97 
f 90//90 143//143 131//131 
f 103//103 93//93 167//167 
f 168//168 103//103 167//167 
f 144//144 169//169 98//98 
f 120//120 101//101 133//133 
f 133//133 101//101 132//132 
f 175//175 148//148 133//133 
f 110//110 145//145 144//144 
f 111//111 145//145 110//110 
f 146//146 114//114 147//147 
f 145//145 111//111 146//146 
f 133//133 148//148 120//120 
f 54//54 135//135 58//58 
f 58//58 135//135 60//60 
f 134//134 135//135 54//54 
f 51//51 136//136 134//134 
f 135//135 137//137 60//60 
f 121//121 68//68 137//137 
f 181//181 138//138 121//121 
f 154//154 122//122 126//126 
f 180//180 125//125 157//157 
f 126//126 125//125 155//155 
f 154//154 126//126 155//155 
f 162//162 142//142 156//156 
f 180//180 157//157 215//215 
f 139//139 140//140 185//185 
f 141//141 128//128 142//142 
f 142//142 162//162 141//141 
f 140//140 128//128 141//141 
f 129//129 131//131 164//164 
f 164//164 165//165 129//129 
f 165//165 166//166 129//129 
f 129//129 130//130 87//87 
f 129//129 166//166 130//130 
f 167//167 130//130 166//166 
f 192//192 143//143 169//169 
f 565//565 131//131 143//143 
f 192//192 565//565 143//143 
f 169//169 97//97 98//98 
f 170//170 195//195 144//144 
f 196//196 175//175 133//133 
f 132//132 196//196 133//133 
f 193//193 132//132 168//168 
f 170//170 144//144 145//145 
f 172//172 146//146 147//147 
f 148//148 118//118 120//120 
f 147//147 118//118 148//148 
f 174//174 148//148 175//175 
f 174//174 147//147 148//148 
f 175//175 173//173 174//174 
f 175//175 171//171 173//173 
f 134//134 136//136 152//152 
f 152//152 149//149 134//134 
f 152//152 176//176 149//149 
f 149//149 135//135 134//134 
f 154//154 177//177 150//150 
f 136//136 150//150 151//151 
f 176//176 152//152 151//151 
f 151//151 150//150 177//177 
f 151//151 152//152 136//136 
f 178//178 135//135 149//149 
f 178//178 137//137 135//135 
f 121//121 153//153 181//181 
f 137//137 178//178 121//121 
f 178//178 153//153 121//121 
f 180//180 155//155 125//125 
f 155//155 179//179 154//154 
f 179//179 155//155 180//180 
f 181//181 156//156 138//138 
f 182//182 215//215 157//157 
f 139//139 182//182 157//157 
f 158//158 185//185 140//140 
f 158//158 140//140 186//186 
f 183//183 160//160 165//165 
f 570//570 557//557 159//159 
f 159//159 557//557 161//161 
f 571//571 562//562 558//558 
f 160//160 563//563 165//165 
f 563//563 163//163 165//165 
f 141//141 187//187 186//186 
f 564//564 560//560 559//559 
f 563//563 572//572 163//163 
f 186//186 140//140 141//141 
f 156//156 218//218 162//162 
f 165//165 164//164 183//183 
f 183//183 164//164 184//184 
f 565//565 192//192 569//569 
f 166//166 165//165 163//163 
f 188//188 166//166 163//163 
f 166//166 188//188 167//167 
f 167//167 188//188 190//190 
f 167//167 191//191 168//168 
f 144//144 195//195 169//169 
f 195//195 192//192 169//169 
f 194//194 195//195 170//170 
f 194//194 170//170 145//145 
f 175//175 196//196 171//171 
f 197//197 196//196 132//132 
f 146//146 200//200 145//145 
f 200//200 194//194 145//145 
f 147//147 174//174 172//172 
f 200//200 146//146 172//172 
f 173//173 171//171 205//205 
f 173//173 205//205 206//206 
f 174//174 173//173 206//206 
f 210//210 149//149 176//176 
f 210//210 178//178 149//149 
f 151//151 212//212 176//176 
f 212//212 151//151 177//177 
f 228//228 176//176 212//212 
f 177//177 213//213 212//212 
f 153//153 178//178 214//214 
f 153//153 214//214 181//181 
f 179//179 177//177 154//154 
f 217//217 218//218 156//156 
f 185//185 182//182 139//139 
f 570//570 567//567 566//566 
f 568//568 215//215 182//182 
f 576//576 183//183 184//184 
f 567//567 570//570 561//561 
f 570//570 159//159 561//561 
f 141//141 162//162 187//187 
f 188//188 572//572 573//573 
f 188//188 163//163 572//572 
f 577//577 189//189 188//188 
f 187//187 162//162 218//218 
f 573//573 577//577 188//188 
f 192//192 232//232 569//569 
f 189//189 190//190 188//188 
f 167//167 190//190 191//191 
f 191//191 190//190 574//574 
f 168//168 191//191 193//193 
f 198//198 197//197 193//193 
f 221//221 198//198 193//193 
f 171//171 196//196 205//205 
f 205//205 196//196 199//199 
f 208//208 199//199 225//225 
f 193//193 197//197 132//132 
f 198//198 196//196 197//197 
f 199//199 196//196 198//198 
f 202//202 172//172 174//174 
f 201//201 194//194 200//200 
f 172//172 201//201 200//200 
f 201//201 203//203 194//194 
f 202//202 203//203 201//201 
f 201//201 172//172 202//202 
f 207//207 204//204 202//202 
f 203//203 202//202 204//204 
f 206//206 207//207 174//174 
f 202//202 174//174 207//207 
f 208//208 206//206 205//205 
f 208//208 205//205 199//199 
f 204//204 207//207 209//209 
f 207//207 206//206 209//209 
f 209//209 206//206 208//208 
f 224//224 208//208 225//225 
f 224//224 209//209 208//208 
f 229//229 210//210 228//228 
f 176//176 228//228 210//210 
f 211//211 178//178 210//210 
f 230//230 211//211 210//210 
f 213//213 177//177 179//179 
f 228//228 212//212 253//253 
f 213//213 253//253 212//212 
f 253//253 213//213 179//179 
f 211//211 214//214 178//178 
f 216//216 257//257 179//179 
f 216//216 179//179 180//180 
f 216//216 180//180 215//215 
f 156//156 181//181 231//231 
f 156//156 231//231 217//217 
f 232//232 215//215 569//569 
f 257//257 232//232 192//192 
f 575//575 218//218 217//217 
f 217//217 191//191 574//574 
f 219//219 191//191 217//217 
f 193//193 191//191 220//220 
f 221//221 193//193 220//220 
f 219//219 220//220 191//191 
f 237//237 221//221 220//220 
f 237//237 239//239 221//221 
f 238//238 192//192 195//195 
f 238//238 195//195 223//223 
f 222//222 194//194 203//203 
f 194//194 223//223 195//195 
f 194//194 222//222 223//223 
f 242//242 226//226 243//243 
f 227//227 243//243 226//226 
f 221//221 199//199 198//198 
f 221//221 225//225 199//199 
f 239//239 225//225 221//221 
f 226//226 222//222 203//203 
f 203//203 204//204 226//226 
f 227//227 226//226 204//204 
f 226//226 242//242 222//222 
f 227//227 204//204 209//209 
f 227//227 209//209 224//224 
f 245//245 229//229 228//228 
f 228//228 253//253 245//245 
f 230//230 210//210 229//229 
f 230//230 229//229 248//248 
f 254//254 211//211 230//230 
f 254//254 214//214 211//211 
f 280//280 214//214 254//254 
f 278//278 253//253 257//257 
f 257//257 253//253 179//179 
f 214//214 280//280 181//181 
f 280//280 231//231 181//181 
f 216//216 232//232 257//257 
f 216//216 215//215 232//232 
f 233//233 219//219 217//217 
f 231//231 233//233 217//217 
f 310//310 233//233 231//231 
f 219//219 233//233 310//310 
f 220//220 219//219 234//234 
f 192//192 236//236 235//235 
f 236//236 192//192 238//238 
f 262//262 261//261 236//236 
f 262//262 236//236 238//238 
f 234//234 237//237 220//220 
f 264//264 237//237 234//234 
f 238//238 223//223 241//241 
f 241//241 265//265 238//238 
f 270//270 240//240 239//239 
f 270//270 269//269 240//240 
f 241//241 223//223 222//222 
f 242//242 241//241 222//222 
f 265//265 241//241 266//266 
f 227//227 271//271 243//243 
f 242//242 266//266 241//241 
f 243//243 266//266 242//242 
f 244//244 224//224 225//225 
f 224//224 271//271 227//227 
f 224//224 244//244 271//271 
f 269//269 244//244 240//240 
f 225//225 239//239 240//240 
f 240//240 244//244 225//225 
f 245//245 249//249 229//229 
f 245//245 246//246 249//249 
f 247//247 246//246 245//245 
f 247//247 245//245 253//253 
f 272//272 275//275 251//251 
f 246//246 272//272 251//251 
f 229//229 249//249 248//248 
f 249//249 250//250 248//248 
f 248//248 250//250 252//252 
f 230//230 248//248 252//252 
f 246//246 251//251 249//249 
f 251//251 250//250 249//249 
f 275//275 250//250 251//251 
f 252//252 255//255 230//230 
f 256//256 255//255 252//252 
f 252//252 276//276 256//256 
f 279//279 253//253 278//278 
f 279//279 247//247 253//253 
f 255//255 254//254 230//230 
f 280//280 254//254 255//255 
f 280//280 255//255 256//256 
f 310//310 231//231 280//280 
f 257//257 235//235 281//281 
f 257//257 192//192 235//235 
f 235//235 259//259 258//258 
f 281//281 235//235 258//258 
f 310//310 234//234 219//219 
f 259//259 235//235 236//236 
f 236//236 261//261 259//259 
f 259//259 261//261 293//293 
f 259//259 260//260 258//258 
f 260//260 259//259 293//293 
f 287//287 302//302 234//234 
f 302//302 264//264 234//234 
f 578//578 288//288 302//302 
f 265//265 262//262 238//238 
f 293//293 261//261 262//262 
f 265//265 293//293 262//262 
f 293//293 265//265 305//305 
f 263//263 270//270 264//264 
f 270//270 263//263 269//269 
f 264//264 270//270 237//237 
f 270//270 239//239 237//237 
f 267//267 266//266 243//243 
f 243//243 271//271 268//268 
f 265//265 266//266 267//267 
f 267//267 243//243 268//268 
f 305//305 265//265 267//267 
f 268//268 306//306 267//267 
f 269//269 271//271 244//244 
f 269//269 308//308 271//271 
f 308//308 269//269 263//263 
f 308//308 268//268 271//271 
f 279//279 273//273 247//247 
f 246//246 247//247 273//273 
f 273//273 272//272 246//246 
f 272//272 273//273 274//274 
f 274//274 275//275 272//272 
f 276//276 252//252 250//250 
f 276//276 250//250 275//275 
f 277//277 256//256 276//276 
f 314//314 277//277 276//276 
f 277//277 280//280 256//256 
f 258//258 282//282 281//281 
f 258//258 311//311 282//282 
f 282//282 323//323 281//281 
f 323//323 282//282 311//311 
f 292//292 258//258 260//260 
f 311//311 258//258 292//292 
f 295//295 311//311 292//292 
f 285//285 286//286 283//283 
f 283//283 286//286 290//290 
f 290//290 291//291 283//283 
f 284//284 295//295 297//297 
f 284//284 297//297 285//285 
f 285//285 297//297 298//298 
f 285//285 298//298 286//286 
f 284//284 312//312 295//295 
f 285//285 312//312 284//284 
f 285//285 283//283 312//312 
f 289//289 288//288 578//578 
f 289//289 578//578 313//313 
f 290//290 289//289 291//291 
f 290//290 288//288 289//289 
f 313//313 578//578 234//234 
f 289//289 313//313 312//312 
f 312//312 291//291 289//289 
f 294//294 292//292 260//260 
f 292//292 294//294 296//296 
f 293//293 294//294 260//260 
f 292//292 296//296 295//295 
f 293//293 299//299 294//294 
f 295//295 296//296 297//297 
f 294//294 299//299 296//296 
f 579//579 286//286 304//304 
f 297//297 296//296 301//301 
f 298//298 297//297 301//301 
f 301//301 286//286 298//298 
f 296//296 299//299 301//301 
f 301//301 299//299 300//300 
f 293//293 307//307 299//299 
f 299//299 307//307 300//300 
f 301//301 300//300 304//304 
f 301//301 304//304 286//286 
f 302//302 288//288 303//303 
f 302//302 303//303 264//264 
f 288//288 304//304 303//303 
f 304//304 309//309 303//303 
f 303//303 309//309 264//264 
f 288//288 579//579 304//304 
f 304//304 300//300 309//309 
f 305//305 267//267 306//306 
f 308//308 306//306 268//268 
f 293//293 305//305 307//307 
f 307//307 305//305 306//306 
f 300//300 307//307 306//306 
f 308//308 300//300 306//306 
f 263//263 264//264 309//309 
f 308//308 263//263 309//309 
f 308//308 309//309 300//300 
f 274//274 273//273 318//318 
f 318//318 273//273 279//279 
f 277//277 314//314 319//319 
f 319//319 280//280 277//277 
f 315//315 280//280 319//319 
f 322//322 278//278 281//281 
f 257//257 281//281 278//278 
f 280//280 315//315 310//310 
f 310//310 313//313 234//234 
f 315//315 316//316 310//310 
f 311//311 295//295 312//312 
f 312//312 331//331 311//311 
f 291//291 312//312 283//283 
f 324//324 275//275 274//274 
f 317//317 276//276 275//275 
f 314//314 276//276 317//317 
f 322//322 327//327 320//320 
f 320//320 318//318 279//279 
f 320//320 279//279 278//278 
f 322//322 320//320 278//278 
f 323//323 322//322 281//281 
f 323//323 311//311 331//331 
f 312//312 332//332 331//331 
f 332//332 312//312 313//313 
f 313//313 310//310 316//316 
f 275//275 324//324 317//317 
f 337//337 320//320 326//326 
f 326//326 320//320 327//327 
f 318//318 324//324 274//274 
f 318//318 320//320 337//337 
f 314//314 328//328 319//319 
f 321//321 315//315 319//319 
f 316//316 321//321 330//330 
f 315//315 321//321 316//316 
f 329//329 322//322 323//323 
f 341//341 332//332 313//313 
f 330//330 313//313 316//316 
f 330//330 341//341 313//313 
f 349//349 318//318 337//337 
f 317//317 324//324 333//333 
f 325//325 314//314 317//317 
f 314//314 325//325 328//328 
f 325//325 317//317 333//333 
f 338//338 328//328 325//325 
f 335//335 337//337 326//326 
f 327//327 322//322 329//329 
f 326//326 327//327 335//335 
f 344//344 336//336 327//327 
f 339//339 321//321 319//319 
f 338//338 319//319 328//328 
f 319//319 338//338 339//339 
f 340//340 330//330 321//321 
f 340//340 321//321 339//339 
f 331//331 329//329 323//323 
f 340//340 341//341 330//330 
f 332//332 348//348 331//331 
f 324//324 318//318 349//349 
f 333//333 334//334 325//325 
f 343//343 334//334 333//333 
f 338//338 334//334 345//345 
f 352//352 337//337 335//335 
f 336//336 353//353 335//335 
f 334//334 338//338 325//325 
f 345//345 339//339 338//338 
f 327//327 336//336 335//335 
f 347//347 344//344 329//329 
f 580//580 347//347 329//329 
f 327//327 329//329 344//344 
f 580//580 329//329 331//331 
f 346//346 340//340 339//339 
f 357//357 340//340 346//346 
f 340//340 357//357 341//341 
f 333//333 324//324 342//342 
f 342//342 343//343 333//333 
f 360//360 349//349 337//337 
f 360//360 337//337 352//352 
f 352//352 335//335 353//353 
f 336//336 355//355 353//353 
f 336//336 344//344 355//355 
f 345//345 346//346 339//339 
f 356//356 344//344 347//347 
f 348//348 332//332 365//365 
f 332//332 341//341 365//365 
f 349//349 342//342 324//324 
f 342//342 349//349 359//359 
f 351//351 342//342 359//359 
f 351//351 343//343 342//342 
f 343//343 351//351 350//350 
f 376//376 360//360 352//352 
f 367//367 353//353 363//363 
f 363//363 353//353 355//355 
f 350//350 334//334 343//343 
f 350//350 361//361 345//345 
f 345//345 361//361 354//354 
f 370//370 357//357 371//371 
f 334//334 350//350 345//345 
f 345//345 354//354 346//346 
f 346//346 354//354 357//357 
f 355//355 344//344 356//356 
f 580//580 356//356 347//347 
f 357//357 370//370 341//341 
f 364//364 348//348 365//365 
f 349//349 358//358 359//359 
f 358//358 374//374 359//359 
f 362//362 351//351 359//359 
f 349//349 360//360 358//358 
f 351//351 362//362 350//350 
f 361//361 350//350 362//362 
f 353//353 367//367 376//376 
f 352//352 353//353 376//376 
f 369//369 363//363 355//355 
f 369//369 368//368 363//363 
f 354//354 371//371 357//357 
f 361//361 371//371 354//354 
f 369//369 355//355 356//356 
f 372//372 369//369 356//356 
f 356//356 580//580 364//364 
f 365//365 341//341 370//370 
f 358//358 373//373 374//374 
f 366//366 359//359 374//374 
f 359//359 366//366 362//362 
f 375//375 362//362 366//366 
f 377//377 362//362 375//375 
f 394//394 376//376 367//367 
f 367//367 383//383 394//394 
f 358//358 360//360 373//373 
f 373//373 360//360 376//376 
f 377//377 361//361 362//362 
f 361//361 378//378 371//371 
f 371//371 378//378 379//379 
f 367//367 363//363 368//368 
f 384//384 368//368 372//372 
f 368//368 369//369 372//372 
f 382//382 370//370 379//379 
f 365//365 370//370 382//382 
f 371//371 379//379 370//370 
f 356//356 364//364 372//372 
f 364//364 385//385 372//372 
f 365//365 385//385 364//364 
f 392//392 373//373 376//376 
f 380//380 375//375 366//366 
f 374//374 380//380 366//366 
f 381//381 377//377 375//375 
f 378//378 361//361 377//377 
f 368//368 383//383 367//367 
f 383//383 368//368 384//384 
f 372//372 385//385 390//390 
f 385//385 365//365 386//386 
f 365//365 382//382 386//386 
f 373//373 392//392 393//393 
f 374//374 373//373 391//391 
f 387//387 374//374 391//391 
f 374//374 387//387 380//380 
f 375//375 380//380 388//388 
f 388//388 381//381 375//375 
f 388//388 412//412 381//381 
f 389//389 381//381 412//412 
f 377//377 381//381 378//378 
f 378//378 381//381 389//389 
f 392//392 376//376 394//394 
f 389//389 379//379 378//378 
f 404//404 382//382 379//379 
f 382//382 396//396 386//386 
f 393//393 391//391 373//373 
f 387//387 388//388 380//380 
f 394//394 383//383 403//403 
f 389//389 404//404 379//379 
f 384//384 372//372 390//390 
f 391//391 401//401 399//399 
f 391//391 399//399 387//387 
f 393//393 392//392 401//401 
f 401//401 391//391 393//393 
f 421//421 388//388 400//400 
f 387//387 400//400 388//388 
f 421//421 412//412 388//388 
f 404//404 389//389 412//412 
f 403//403 402//402 394//394 
f 404//404 396//396 382//382 
f 395//395 383//383 384//384 
f 408//408 383//383 395//395 
f 395//395 384//384 390//390 
f 410//410 395//395 390//390 
f 390//390 385//385 397//397 
f 386//386 396//396 398//398 
f 386//386 397//397 385//385 
f 386//386 398//398 397//397 
f 420//420 400//400 399//399 
f 399//399 400//400 387//387 
f 402//402 422//422 392//392 
f 402//402 392//392 394//394 
f 398//398 396//396 419//419 
f 404//404 413//413 396//396 
f 408//408 395//395 406//406 
f 390//390 397//397 411//411 
f 419//419 411//411 397//397 
f 398//398 419//419 397//397 
f 425//425 420//420 399//399 
f 422//422 401//401 392//392 
f 427//427 404//404 412//412 
f 427//427 413//413 404//404 
f 415//415 396//396 413//413 
f 415//415 419//419 396//396 
f 405//405 406//406 395//395 
f 408//408 406//406 409//409 
f 406//406 405//405 407//407 
f 407//407 405//405 410//410 
f 406//406 407//407 409//409 
f 407//407 410//410 411//411 
f 411//411 440//440 407//407 
f 410//410 405//405 395//395 
f 410//410 390//390 411//411 
f 399//399 401//401 425//425 
f 426//426 401//401 422//422 
f 465//465 426//426 422//422 
f 403//403 383//383 414//414 
f 414//414 383//383 408//408 
f 423//423 408//408 417//417 
f 423//423 414//414 408//408 
f 416//416 417//417 408//408 
f 409//409 416//416 408//408 
f 440//440 416//416 407//407 
f 430//430 414//414 423//423 
f 417//417 416//416 439//439 
f 439//439 416//416 440//440 
f 409//409 407//407 416//416 
f 421//421 400//400 420//420 
f 485//485 420//420 425//425 
f 486//486 421//421 420//420 
f 485//485 486//486 420//420 
f 425//425 401//401 426//426 
f 421//421 427//427 412//412 
f 402//402 442//442 422//422 
f 403//403 442//442 402//402 
f 431//431 430//430 423//423 
f 418//418 411//411 419//419 
f 424//424 411//411 418//418 
f 419//419 436//436 418//418 
f 436//436 435//435 418//418 
f 590//590 411//411 424//424 
f 425//425 426//426 485//485 
f 485//485 426//426 465//465 
f 427//427 421//421 509//509 
f 441//441 442//442 403//403 
f 403//403 414//414 441//441 
f 415//415 457//457 452//452 
f 413//413 457//457 415//415 
f 428//428 429//429 430//430 
f 582//582 583//583 432//432 
f 428//428 430//430 584//584 
f 429//429 414//414 430//430 
f 437//437 438//438 433//433 
f 437//437 588//588 434//434 
f 585//585 443//443 581//581 
f 446//446 591//591 586//586 
f 444//444 433//433 445//445 
f 433//433 438//438 445//445 
f 447//447 434//434 595//595 
f 595//595 434//434 588//588 
f 437//437 434//434 448//448 
f 437//437 436//436 438//438 
f 435//435 436//436 437//437 
f 417//417 453//453 423//423 
f 453//453 417//417 439//439 
f 455//455 590//590 424//424 
f 418//418 455//455 424//424 
f 437//437 463//463 435//435 
f 466//466 422//422 442//442 
f 465//465 422//422 466//466 
f 427//427 456//456 413//413 
f 456//456 457//457 413//413 
f 442//442 441//441 467//467 
f 466//466 442//442 467//467 
f 419//419 415//415 452//452 
f 458//458 587//587 431//431 
f 592//592 449//449 428//428 
f 599//599 596//596 593//593 
f 597//597 450//450 594//594 
f 444//444 445//445 601//601 
f 447//447 598//598 600//600 
f 434//434 447//447 448//448 
f 449//449 592//592 451//451 
f 451//451 592//592 601//601 
f 601//601 445//445 589//589 
f 449//449 451//451 495//495 
f 495//495 451//451 601//601 
f 495//495 601//601 589//589 
f 452//452 436//436 419//419 
f 589//589 436//436 452//452 
f 495//495 589//589 452//452 
f 495//495 452//452 498//498 
f 439//439 459//459 453//453 
f 454//454 459//459 439//439 
f 431//431 423//423 458//458 
f 458//458 423//423 602//602 
f 454//454 439//439 440//440 
f 418//418 464//464 455//455 
f 463//463 448//448 447//447 
f 448//448 463//463 437//437 
f 435//435 464//464 418//418 
f 463//463 464//464 435//435 
f 454//454 501//501 459//459 
f 590//590 455//455 461//461 
f 460//460 454//454 440//440 
f 429//429 428//428 479//479 
f 428//428 449//449 479//479 
f 587//587 480//480 600//600 
f 480//480 447//447 600//600 
f 447//447 480//480 463//463 
f 587//587 458//458 480//480 
f 460//460 501//501 454//454 
f 460//460 461//461 484//484 
f 461//461 503//503 484//484 
f 460//460 590//590 461//461 
f 462//462 461//461 455//455 
f 464//464 462//462 455//455 
f 481//481 462//462 464//464 
f 481//481 463//463 526//526 
f 462//462 503//503 461//461 
f 481//481 503//503 462//462 
f 463//463 481//481 464//464 
f 486//486 504//504 421//421 
f 471//471 466//466 469//469 
f 465//465 466//466 471//471 
f 467//467 441//441 468//468 
f 469//469 466//466 467//467 
f 441//441 474//474 468//468 
f 441//441 414//414 474//474 
f 469//469 467//467 470//470 
f 470//470 467//467 468//468 
f 468//468 475//475 470//470 
f 468//468 474//474 475//475 
f 603//603 472//472 604//604 
f 473//473 472//472 603//603 
f 470//470 473//473 603//603 
f 470//470 477//477 473//473 
f 475//475 477//477 470//470 
f 490//490 487//487 604//604 
f 472//472 490//490 604//604 
f 473//473 490//490 472//472 
f 473//473 491//491 490//490 
f 473//473 477//477 491//491 
f 452//452 523//523 498//498 
f 456//456 517//517 457//457 
f 474//474 414//414 429//429 
f 474//474 476//476 475//475 
f 476//476 474//474 429//429 
f 475//475 476//476 478//478 
f 475//475 478//478 477//477 
f 478//478 476//476 479//479 
f 491//491 477//477 494//494 
f 478//478 494//494 477//477 
f 478//478 479//479 492//492 
f 479//479 476//476 429//429 
f 492//492 479//479 449//449 
f 463//463 480//480 502//502 
f 458//458 602//602 483//483 
f 500//500 502//502 480//480 
f 480//480 458//458 500//500 
f 463//463 502//502 526//526 
f 459//459 482//482 453//453 
f 501//501 482//482 459//459 
f 483//483 453//453 482//482 
f 484//484 501//501 460//460 
f 465//465 488//488 485//485 
f 485//485 488//488 486//486 
f 489//489 606//606 505//505 
f 608//608 486//486 488//488 
f 504//504 486//486 608//608 
f 506//506 504//504 608//608 
f 471//471 605//605 465//465 
f 465//465 605//605 607//607 
f 606//606 487//487 505//505 
f 505//505 506//506 489//489 
f 427//427 516//516 456//456 
f 421//421 504//504 509//509 
f 490//490 491//491 493//493 
f 487//487 490//490 493//493 
f 487//487 493//493 496//496 
f 496//496 505//505 487//487 
f 505//505 496//496 508//508 
f 508//508 496//496 522//522 
f 517//517 519//519 457//457 
f 457//457 523//523 452//452 
f 457//457 519//519 523//523 
f 456//456 516//516 517//517 
f 491//491 494//494 493//493 
f 494//494 478//478 492//492 
f 492//492 449//449 495//495 
f 494//494 492//492 495//495 
f 494//494 496//496 493//493 
f 494//494 495//495 497//497 
f 494//494 609//609 496//496 
f 522//522 496//496 609//609 
f 495//495 499//499 497//497 
f 495//495 498//498 499//499 
f 522//522 609//609 610//610 
f 523//523 499//499 498//498 
f 502//502 500//500 545//545 
f 482//482 501//501 531//531 
f 532//532 531//531 501//501 
f 506//506 505//505 507//507 
f 508//508 507//507 505//505 
f 506//506 509//509 504//504 
f 506//506 511//511 509//509 
f 511//511 506//506 507//507 
f 513//513 511//511 507//507 
f 513//513 507//507 508//508 
f 513//513 508//508 520//520 
f 427//427 509//509 510//510 
f 509//509 511//511 510//510 
f 510//510 516//516 427//427 
f 512//512 511//511 513//513 
f 511//511 512//512 510//510 
f 512//512 516//516 510//510 
f 512//512 513//513 514//514 
f 512//512 514//514 516//516 
f 513//513 520//520 514//514 
f 514//514 520//520 521//521 
f 516//516 514//514 521//521 
f 508//508 522//522 515//515 
f 522//522 524//524 515//515 
f 612//612 523//523 518//518 
f 524//524 611//611 515//515 
f 523//523 519//519 518//518 
f 508//508 515//515 520//520 
f 520//520 515//515 611//611 
f 516//516 521//521 517//517 
f 521//521 518//518 519//519 
f 521//521 519//519 517//517 
f 520//520 611//611 521//521 
f 523//523 612//612 499//499 
f 524//524 522//522 610//610 
f 525//525 500//500 458//458 
f 532//532 501//501 484//484 
f 458//458 483//483 529//529 
f 502//502 545//545 548//548 
f 529//529 483//483 528//528 
f 483//483 482//482 528//528 
f 531//531 528//528 482//482 
f 531//531 527//527 528//528 
f 534//534 527//527 531//531 
f 527//527 534//534 533//533 
f 525//525 458//458 529//529 
f 538//538 529//529 528//528 
f 530//530 528//528 527//527 
f 527//527 533//533 613//613 
f 525//525 529//529 539//539 
f 538//538 540//540 529//529 
f 538//538 528//528 530//530 
f 532//532 534//534 531//531 
f 544//544 503//503 481//481 
f 526//526 546//546 481//481 
f 533//533 534//534 536//536 
f 535//535 534//534 532//532 
f 535//535 536//536 534//534 
f 484//484 535//535 532//532 
f 484//484 503//503 537//537 
f 535//535 484//484 537//537 
f 536//536 535//535 537//537 
f 503//503 544//544 537//537 
f 525//525 539//539 500//500 
f 539//539 529//529 540//540 
f 539//539 545//545 500//500 
f 542//542 539//539 615//615 
f 616//616 614//614 541//541 
f 541//541 614//614 613//613 
f 539//539 542//542 545//545 
f 541//541 613//613 552//552 
f 541//541 552//552 543//543 
f 543//543 552//552 555//555 
f 541//541 617//617 616//616 
f 543//543 617//617 541//541 
f 543//543 549//549 617//617 
f 481//481 546//546 544//544 
f 548//548 545//545 542//542 
f 542//542 618//618 548//548 
f 547//547 502//502 548//548 
f 546//546 547//547 550//550 
f 550//550 554//554 546//546 
f 547//547 548//548 549//549 
f 547//547 549//549 550//550 
f 554//554 550//550 551//551 
f 619//619 550//550 549//549 
f 619//619 549//549 543//543 
f 555//555 619//619 543//543 
f 554//554 551//551 621//621 
f 526//526 502//502 547//547 
f 547//547 546//546 526//526 
f 552//552 613//613 533//533 
f 533//533 536//536 552//552 
f 536//536 553//553 552//552 
f 553//553 555//555 552//552 
f 546//546 554//554 544//544 
f 620//620 536//536 537//537 
f 554//554 537//537 544//544 
f 554//554 620//620 537//537 
f 554//554 621//621 620//620 
