#
# Compatibility version : 4.3
# File ID : FJ4242
# Representation ID : BP29426
# Build-up logic : FMA 3.0 is_a
# Concept ID : FMA65306
# English name : Left superior subscapular nerve
# Bounds(mm): (88.755000,-77.323400,1222.842700)-(142.079400,-37.663600,1330.116000)
# Volume(cm3): 0.357600
#
v 88.7713 -76.3135 1329
v 88.8344 -76.1519 1329.39
v 89.082 -75.6517 1328.67
v 88.8055 -76.5521 1328.95
v 88.7946 -76.5676 1329.18
v 88.9315 -76.1851 1328.61
v 88.8899 -76.4443 1329.57
v 89.1189 -76.1105 1329.8
v 88.9974 -76.9314 1328.92
v 89.0243 -76.9585 1329.32
v 89.2159 -76.5277 1328.3
v 89.3204 -76.8523 1329.82
v 89.3369 -77.1071 1328.68
v 89.3171 -77.1897 1328.92
v 89.3841 -77.1741 1329.47
v 89.5268 -76.7904 1328.24
v 89.6144 -77.1402 1329.68
v 89.6841 -77.0109 1329.84
v 89.8749 -76.9798 1328.38
v 89.6912 -77.2741 1328.85
v 89.7176 -77.3066 1329.23
v 89.9318 -77.2927 1329.25
v 89.7697 -77.2496 1329.49
v 89.869 -77.1022 1329.73
v 89.669 -76.6089 1330.05
v 89.8328 -76.23 1330.08
v 89.9562 -76.9163 1329.88
v 90.0917 -76.5744 1330.01
v 90.2006 -76.3683 1329.98
v 89.4791 -75.2916 1329.11
v 89.7829 -75.4976 1329.59
v 90.371 -75.6653 1329.57
v 90.0893 -77.0748 1328.64
v 90.0008 -77.231 1329.45
v 90.2967 -76.6373 1329.86
v 90.2023 -77.1951 1329.22
v 90.6523 -76.7352 1328.69
v 90.3163 -77.0442 1329.46
v 90.7206 -76.5235 1329.23
v 90.8295 -75.7893 1329.18
v 92.1725 -74.2227 1325.04
v 92.7136 -72.7816 1323.18
v 91.9808 -72.3089 1323.61
v 92.8067 -72.0227 1325.26
v 91.8639 -72.3337 1325.65
v 93.4022 -70.0775 1321.89
v 94.0461 -72.2484 1322.83
v 94.718 -71.3292 1322.78
v 94.854 -69.9067 1319.42
v 94.4186 -70.5821 1323.09
v 95.1487 -68.6375 1320.78
v 96.3112 -68.021 1319.73
v 96.7322 -66.4572 1316.05
v 96.9332 -66.1653 1316.7
v 96.8862 -68.5586 1317.22
v 97.1231 -68.7242 1318.01
v 96.9204 -68.3737 1319.29
v 97.7034 -66.8082 1314.69
v 98.267 -66.8658 1314.54
v 97.509 -66.1859 1317.14
v 97.8663 -65.8291 1313.96
v 99.2981 -63.764 1312.42
v 100.344 -65.1712 1311.59
v 99.2941 -66.4651 1314.55
v 99.2886 -66.3192 1315.23
v 100.948 -63.211 1308.71
v 100.435 -64.2511 1310.1
v 99.9555 -63.4955 1312.53
v 99.765 -64.8568 1314.35
v 99.9678 -64.1908 1313.6
v 101.525 -61.9802 1307.76
v 101.416 -61.95 1309.23
v 102.834 -62.7334 1306.49
v 102.621 -63.2917 1307.86
v 102.412 -63.5599 1309.5
v 102.146 -62.622 1310.2
v 102.198 -63.2744 1310.37
v 102.756 -61.3455 1305.24
v 103.391 -60.6788 1306.64
v 103.729 -60.9922 1306.98
v 102.305 -61.8693 1309.22
v 103.375 -60.3394 1305.22
v 103.747 -61.1708 1303.57
v 104.386 -61.9891 1305.08
v 104.113 -61.4077 1306.84
v 105.327 -59.554 1300.11
v 105.054 -59.2349 1301.4
v 105.3 -59.5981 1303.58
v 105.202 -59.2979 1302.88
v 106.186 -59.6105 1298.56
v 106.619 -60.2906 1299.41
v 106.906 -60.1452 1300.95
v 105.264 -61.0337 1304.58
v 107.394 -58.4093 1299.44
v 106.273 -59.5743 1302.39
v 107.491 -57.8935 1297.95
v 107.955 -58.1426 1294.32
v 109.007 -56.9967 1293.72
v 109.408 -57.2871 1294.81
v 109.031 -58.1206 1296.58
v 110.372 -56.938 1288.5
v 109.322 -58.1553 1291.63
v 110.448 -58.466 1291.4
v 110.774 -58.2589 1292.21
v 110.042 -56.5935 1289.85
v 110.917 -57.558 1292.43
v 111.561 -57.9969 1288.49
v 110.677 -58.1319 1289.81
v 111.714 -58.4894 1289.98
v 111.573 -56.7166 1290.53
v 112.387 -57.8465 1289.91
v 112.37 -55.3417 1284.1
v 112.551 -55.3527 1285.95
v 112.456 -55.7964 1287.47
v 112.694 -58.229 1286.61
v 113.356 -58.4831 1286.99
v 112.579 -58.506 1287.75
v 113.22 -58.277 1288.01
v 113.204 -56.5739 1282.72
v 114.045 -57.2334 1283.5
v 112.875 -57.1647 1285
v 113.2 -57.3738 1285.37
v 113.185 -57.1852 1285.79
v 113.159 -57.1766 1285.82
v 113.244 -57.0083 1285.97
v 113.383 -56.8368 1285.82
v 113.652 -57.0023 1285.59
v 113.583 -57.8144 1284.33
v 114.165 -56.9487 1284.7
v 112.652 -57.6197 1286.35
v 112.681 -57.3428 1286.2
v 113.099 -57.0363 1287.31
v 113.284 -56.8293 1286.23
v 113.229 -56.823 1286.43
v 113.231 -57.045 1286.01
v 113.303 -57.0369 1286
v 113.285 -57.0007 1286.41
v 113.683 -57.0471 1286.32
v 113.517 -57.3308 1287.5
v 113.627 -54.8907 1280.07
v 114.304 -54.1644 1278.71
v 114.575 -53.9042 1278.89
v 114.725 -54.0572 1280.19
v 114.071 -58.255 1283.97
v 114.629 -58.3447 1283.58
v 115.018 -58.1869 1283.89
v 114.616 -56.9628 1284.41
v 114.343 -57.7101 1286.13
v 114.5 -55.1141 1278.07
v 114.97 -55.5829 1278.34
v 115.437 -55.5672 1278.27
v 115.937 -55.3538 1278.63
v 115.581 -56.6763 1280.67
v 116.195 -52.8764 1272.92
v 115.671 -53.1439 1275.08
v 115.778 -53.0514 1275.65
v 115.996 -54.181 1278.82
v 115.85 -54.9373 1279.61
v 116.252 -52.6631 1274.06
v 116.529 -52.6018 1274.4
v 116.425 -56.9864 1277.48
v 115.968 -57.5473 1278.8
v 116.567 -57.3789 1280.91
v 115.495 -58.0491 1280.79
v 116.953 -56.8579 1279.72
v 116.373 -56.5598 1280.02
v 116.987 -53.5901 1271.71
v 117.354 -53.7839 1272
v 117.265 -54.2143 1274.09
v 117.111 -54.27 1275.62
v 116.786 -52.8586 1271.01
v 117.224 -51.8039 1271.08
v 116.896 -52.7184 1274.72
v 117.831 -53.3607 1273.64
v 118.29 -50.63 1266.33
v 118.403 -51.3298 1269.84
v 117.197 -57.6868 1277.52
v 117.439 -57.4341 1276.15
v 118.112 -56.037 1274.25
v 118.225 -55.8684 1274.66
v 118.358 -56.662 1273.54
v 118.445 -56.2094 1273.29
v 117.876 -56.0888 1276.48
v 118.035 -56.8278 1277.39
v 118.004 -56.305 1276.9
v 117.913 -57.258 1277.47
v 118.94 -55.8725 1274.7
v 118.507 -52.3329 1267.57
v 118.758 -52.3535 1267.67
v 118.58 -52.8261 1269.51
v 118.989 -52.156 1269.69
v 118.464 -52.9872 1271.07
v 119.597 -50.5975 1262.73
v 119.92 -50.8863 1263.05
v 120.282 -50.8886 1263.85
v 119.463 -51.7802 1267.61
v 118.878 -51.8974 1269.93
v 119.179 -49.6214 1264.27
v 120.599 -50.1518 1263.84
v 119.921 -56.4117 1271.15
v 119.095 -56.4007 1272.2
v 118.983 -56.7008 1272.65
v 119.537 -56.0197 1271.44
v 119.262 -56.9592 1272.99
v 119.406 -56.9675 1273.9
v 119.087 -56.1406 1274.93
v 119.237 -56.8408 1274.67
v 119.757 -55.5257 1271.43
v 120.51 -55.4487 1272.14
v 121.404 -48.8898 1258.17
v 121.723 -48.7392 1258.58
v 120.613 -49.4694 1259.55
v 121.105 -49.6005 1258.98
v 122.043 -48.8392 1259.39
v 121.074 -48.6999 1261.02
v 122.535 -47.3777 1254.16
v 121.692 -48.6594 1258.59
v 121.857 -46.1916 1253.38
v 122.164 -45.9839 1253.49
v 123.537 -44.3627 1247.45
v 120.686 -56.5808 1271.7
v 121.755 -55.5993 1268.42
v 121.733 -55.251 1268.41
v 120.939 -55.0469 1270.62
v 121.155 -55.964 1271.62
v 122.448 -54.7854 1267.82
v 123.239 -48.4926 1254.6
v 123.778 -48.3238 1255.85
v 123.233 -45.2096 1248.02
v 122.984 -46.2374 1250.34
v 123.426 -46.198 1250.59
v 123.784 -45.7645 1250.16
v 124.517 -43.5738 1243.95
v 124.618 -44.2622 1244.04
v 123.451 -44.6455 1247.19
v 124.199 -44.202 1247.41
v 124.418 -44.4259 1247.66
v 124.61 -44.7715 1247.21
v 125.097 -43.3454 1242.09
v 124.646 -43.4099 1244.1
v 122.029 -56.0096 1268.46
v 122.56 -56.079 1268.74
v 122.856 -55.7359 1269.13
v 122.737 -54.6691 1268.69
v 123.011 -54.9712 1268.89
v 124.082 -49.4881 1254.33
v 124.534 -48.7326 1251.94
v 124.696 -48.406 1254.54
v 124.717 -49.0646 1254.53
v 125.174 -44.3514 1244.62
v 126.895 -42.2869 1237.23
v 125.985 -42.5822 1239.86
v 126.131 -43.0061 1239.38
v 126.589 -42.2004 1238.61
v 126.67 -42.522 1240.05
v 126.899 -42.2052 1238.95
v 126.847 -42.7282 1239.92
v 126.985 -42.4308 1239.31
v 125.755 -42.7008 1241.37
v 126.286 -43.2655 1241.67
v 126.189 -43.5044 1240.64
v 125.977 -43.1488 1242.43
v 127.13 -42.2138 1238.68
v 125.322 -54.149 1264.62
v 125.577 -53.8537 1264.68
v 125.559 -54.4127 1264.2
v 125.872 -53.8415 1263.99
v 126.043 -53.8079 1264.88
v 125.273 -48.9193 1251.08
v 126.801 -47.5954 1247.63
v 126.239 -47.4136 1249.08
v 126.588 -47.4931 1250.27
v 127.119 -48.1054 1249.97
v 127.146 -48.5116 1249.51
v 127.684 -42.6141 1237.26
v 127.057 -42.7404 1239.36
v 127.307 -42.5071 1238.65
v 127.866 -42.1075 1235.08
v 127.868 -42.3909 1235.65
v 128.318 -41.493 1235.29
v 128.467 -41.6743 1235.43
v 128.587 -42.1421 1234.86
v 128.55 -41.9812 1235.36
v 127.345 -41.8902 1236.35
v 126.361 -55.0053 1264.78
v 126.946 -53.6712 1262.88
v 126.132 -54.5156 1265.34
v 127.096 -48.5921 1248.25
v 128.806 -47.2461 1244.31
v 128.239 -47.8417 1245.33
v 127.731 -47.1624 1246.26
v 127.752 -47.0223 1247.13
v 128.888 -46.9406 1246.21
v 129.803 -41.4413 1231.46
v 129.891 -41.0891 1230.69
v 128.672 -41.9593 1233.66
v 129.029 -41.2436 1232.38
v 128.897 -41.1196 1233.48
v 129.135 -41.8398 1233.66
v 129.243 -41.1261 1233.3
v 128.645 -42.0661 1234.12
v 129.075 -41.5816 1234.11
v 130.696 -40.3722 1229.12
v 130.568 -40.3713 1230.18
v 129.344 -40.9207 1232
v 130.256 -41.2452 1231.26
v 130.559 -40.6003 1230.69
v 127.353 -54.7213 1262.75
v 127.841 -53.6572 1263.05
v 129.298 -50.8568 1259.88
v 129.724 -50.7194 1259.06
v 128.7 -51.3842 1261.07
v 130.271 -47.5184 1242.43
v 129.428 -47.9817 1244.19
v 130.216 -47.853 1243.97
v 129.455 -47.8807 1245.62
v 130.873 -49.5904 1257.36
v 130.441 -50.5357 1259.66
v 130.533 -50.0333 1258.98
v 130.568 -46.7052 1242.02
v 129.247 -46.7852 1244.15
v 129.792 -47.3201 1245.28
v 131.575 -40.0469 1227.59
v 131.788 -40.3214 1227.78
v 130.798 -40.7002 1229.09
v 132.115 -39.4727 1226.75
v 132.052 -39.891 1226.83
v 132.312 -40.0329 1227.13
v 132.02 -39.5991 1227.54
v 130.858 -53.8431 1259.46
v 130.382 -54.0411 1261.09
v 130.415 -54.3134 1260.66
v 131.707 -49.9769 1256.95
v 130.652 -50.8103 1258.41
v 130.864 -50.332 1257.66
v 130.851 -50.7748 1259.01
v 131.695 -46.3911 1241.27
v 131.82 -46.888 1240.06
v 131.304 -47.4239 1242.71
v 131.741 -46.5753 1241.88
v 132.42 -46.9149 1241.21
v 132.798 -48.1097 1253.32
v 131.837 -48.9861 1255.55
v 131.971 -48.5654 1255.54
v 131.909 -49.423 1255.81
v 132.314 -48.4144 1255.64
v 132.157 -49.5973 1256.79
v 131.063 -49.3297 1257.48
v 131.884 -49.1662 1257.19
v 131.909 -49.6178 1257.41
v 133.063 -39.2023 1225.16
v 133.548 -39.045 1224.68
v 133.498 -39.1422 1225.26
v 133.796 -38.9219 1224.53
v 132.601 -39.7059 1226.96
v 132.726 -39.704 1226.1
v 133.92 -38.5129 1223.76
v 133.949 -38.2971 1224.41
v 134.35 -37.7547 1223.07
v 134.293 -37.7918 1223.32
v 134.308 -37.9614 1223.04
v 134.443 -37.7128 1223.25
v 134.439 -38.2069 1223.15
v 134.509 -37.9943 1222.89
v 134.682 -38.0964 1223.17
v 134.587 -37.8058 1222.84
v 134.664 -37.6636 1223.02
v 134.772 -37.9183 1223.19
v 134.666 -37.6972 1223.21
v 133.483 -38.5507 1224.38
v 134.095 -38.5996 1224.35
v 131.911 -54.0337 1258.82
v 131.284 -53.2742 1259.95
v 133.094 -47.2742 1239.49
v 132.436 -47.2393 1241
v 133.058 -48.2326 1252.95
v 133.178 -48.4858 1253.51
v 132.566 -49.0855 1255.02
v 133.05 -48.682 1254.81
v 132.81 -48.7097 1255.52
v 134.091 -46.5744 1247.45
v 134.172 -46.5385 1246.65
v 134.292 -46.3937 1246.7
v 134.242 -46.882 1247.12
v 134.253 -46.7581 1246.62
v 134.311 -46.5746 1246.36
v 134.448 -46.3175 1246.66
v 134.452 -46.4349 1247.31
v 134.47 -46.7224 1246.42
v 134.442 -46.8065 1246.66
v 134.602 -46.7298 1246.66
v 134.588 -46.7906 1247.41
v 134.575 -46.4748 1246.39
v 134.676 -46.5407 1246.63
v 133.947 -46.8001 1248.24
v 134.035 -46.6386 1248.46
v 134.057 -46.6793 1249.05
v 134.231 -47.1949 1248.59
v 134.443 -46.9689 1247.75
v 134.436 -47.0659 1248.8
v 134.441 -46.6811 1248.44
v 133.698 -47.0505 1249.83
v 133.647 -47.3452 1250.21
v 133.779 -47.6171 1250.58
v 133.822 -47.3513 1249.74
v 133.225 -47.4921 1252.17
v 133.609 -47.1009 1250.82
v 133.605 -47.2011 1251.75
v 133.516 -47.99 1251.96
v 133.868 -47.0436 1250.98
v 133.922 -47.753 1251.37
v 134.026 -47.5611 1251.51
v 133.124 -47.9008 1252.38
v 133.093 -47.6176 1253.14
v 133.305 -47.7346 1253.62
v 133.708 -47.5967 1252.69
v 134.78 -37.9041 1222.99
v 132.781 -54.0375 1258.56
v 132.929 -53.87 1258.8
v 134.035 -53.8512 1257.15
v 135.056 -46.0199 1236.41
v 134.533 -53.1973 1256.79
v 135.372 -53.3704 1255.98
v 135.353 -53.6116 1256
v 134.996 -53.1202 1256.99
v 136.69 -46.3031 1234.24
v 136.067 -45.9403 1235.97
v 137.071 -46.3199 1234.68
v 136.15 -53.8061 1256.07
v 137.156 -53.7638 1254.82
v 137.02 -53.1423 1255.2
v 137.074 -53.4869 1255.62
v 137.662 -53.6617 1255.11
v 139.413 -45.626 1231
v 140.124 -45.0379 1229.74
v 139.942 -44.9698 1229.88
v 139.592 -45.2299 1230.26
v 140 -45.3432 1229.84
v 140.193 -44.9456 1230.08
v 140.236 -45.3149 1229.84
v 140.333 -45.1574 1230.05
v 139.334 -53.569 1253.15
v 139.248 -53.3822 1253.34
v 141.005 -53.5944 1252.03
v 141.23 -53.9476 1252.23
v 141.377 -53.7516 1251.76
v 141.508 -53.5568 1251.77
v 141.559 -53.934 1251.85
v 141.673 -53.8057 1251.57
v 141.752 -53.6179 1251.53
v 141.803 -53.5369 1251.65
v 141.837 -53.4834 1251.85
v 141.903 -53.9103 1251.6
v 141.928 -53.9389 1251.8
v 141.934 -53.6961 1251.51
v 141.991 -53.5905 1251.63
v 142.079 -53.7873 1251.81
v 141.952 -53.7453 1251.97
v 89.7176 -77.3066 1329.23
v 91.8639 -72.3337 1325.65
v 94.718 -71.3292 1322.78
v 97.1231 -68.7242 1318.01
v 97.8663 -65.8291 1313.96
v 106.186 -59.6105 1298.56
v 106.619 -60.2906 1299.41
v 106.906 -60.1452 1300.95
v 107.491 -57.8935 1297.95
v 109.322 -58.1553 1291.63
v 110.448 -58.466 1291.4
v 110.448 -58.466 1291.4
v 111.561 -57.9969 1288.49
v 110.677 -58.1319 1289.81
v 111.573 -56.7166 1290.53
v 112.875 -57.1647 1285
v 112.875 -57.1647 1285
v 112.875 -57.1647 1285
v 113.2 -57.3738 1285.37
v 113.2 -57.3738 1285.37
v 113.2 -57.3738 1285.37
v 113.2 -57.3738 1285.37
v 113.185 -57.1852 1285.79
v 113.185 -57.1852 1285.79
v 113.185 -57.1852 1285.79
v 113.159 -57.1766 1285.82
v 113.159 -57.1766 1285.82
v 113.159 -57.1766 1285.82
v 113.159 -57.1766 1285.82
v 113.159 -57.1766 1285.82
v 113.159 -57.1766 1285.82
v 113.244 -57.0083 1285.97
v 113.244 -57.0083 1285.97
v 113.244 -57.0083 1285.97
v 113.244 -57.0083 1285.97
v 113.244 -57.0083 1285.97
v 113.244 -57.0083 1285.97
v 113.383 -56.8368 1285.82
v 113.383 -56.8368 1285.82
v 113.652 -57.0023 1285.59
v 113.652 -57.0023 1285.59
v 112.652 -57.6197 1286.35
v 112.652 -57.6197 1286.35
v 112.681 -57.3428 1286.2
v 112.681 -57.3428 1286.2
v 113.284 -56.8293 1286.23
v 113.229 -56.823 1286.43
v 113.231 -57.045 1286.01
v 113.231 -57.045 1286.01
v 113.231 -57.045 1286.01
v 113.231 -57.045 1286.01
v 113.303 -57.0369 1286
v 113.303 -57.0369 1286
v 113.285 -57.0007 1286.41
v 113.285 -57.0007 1286.41
v 115.937 -55.3538 1278.63
v 118.29 -50.63 1266.33
v 118.225 -55.8684 1274.66
v 119.597 -50.5975 1262.73
v 120.282 -50.8886 1263.85
v 121.404 -48.8898 1258.17
v 121.404 -48.8898 1258.17
v 121.404 -48.8898 1258.17
v 121.404 -48.8898 1258.17
v 121.723 -48.7392 1258.58
v 121.723 -48.7392 1258.58
v 120.613 -49.4694 1259.55
v 122.043 -48.8392 1259.39
v 121.074 -48.6999 1261.02
v 121.074 -48.6999 1261.02
v 121.692 -48.6594 1258.59
v 121.692 -48.6594 1258.59
v 121.857 -46.1916 1253.38
v 123.537 -44.3627 1247.45
v 120.939 -55.0469 1270.62
v 121.155 -55.964 1271.62
v 123.778 -48.3238 1255.85
v 122.984 -46.2374 1250.34
v 124.618 -44.2622 1244.04
v 124.418 -44.4259 1247.66
v 124.646 -43.4099 1244.1
v 122.029 -56.0096 1268.46
v 122.856 -55.7359 1269.13
v 124.717 -49.0646 1254.53
v 125.174 -44.3514 1244.62
v 126.286 -43.2655 1241.67
v 125.577 -53.8537 1264.68
v 125.872 -53.8415 1263.99
v 126.239 -47.4136 1249.08
v 126.588 -47.4931 1250.27
v 127.146 -48.5116 1249.51
v 127.684 -42.6141 1237.26
v 127.868 -42.3909 1235.65
v 128.587 -42.1421 1234.86
v 126.361 -55.0053 1264.78
v 126.946 -53.6712 1262.88
v 126.946 -53.6712 1262.88
v 126.946 -53.6712 1262.88
v 126.132 -54.5156 1265.34
v 126.132 -54.5156 1265.34
v 127.096 -48.5921 1248.25
v 127.731 -47.1624 1246.26
v 128.888 -46.9406 1246.21
v 128.672 -41.9593 1233.66
v 129.135 -41.8398 1233.66
v 130.696 -40.3722 1229.12
v 130.568 -40.3713 1230.18
v 129.344 -40.9207 1232
v 130.256 -41.2452 1231.26
v 130.256 -41.2452 1231.26
v 130.559 -40.6003 1230.69
v 127.353 -54.7213 1262.75
v 127.841 -53.6572 1263.05
v 127.841 -53.6572 1263.05
v 127.841 -53.6572 1263.05
v 127.841 -53.6572 1263.05
v 129.724 -50.7194 1259.06
v 130.271 -47.5184 1242.43
v 129.428 -47.9817 1244.19
v 130.216 -47.853 1243.97
v 130.441 -50.5357 1259.66
v 130.568 -46.7052 1242.02
v 130.568 -46.7052 1242.02
v 129.247 -46.7852 1244.15
v 129.792 -47.3201 1245.28
v 130.798 -40.7002 1229.09
v 132.115 -39.4727 1226.75
v 132.052 -39.891 1226.83
v 132.312 -40.0329 1227.13
v 132.312 -40.0329 1227.13
v 132.02 -39.5991 1227.54
v 130.382 -54.0411 1261.09
v 131.707 -49.9769 1256.95
v 130.652 -50.8103 1258.41
v 130.652 -50.8103 1258.41
v 130.851 -50.7748 1259.01
v 131.82 -46.888 1240.06
v 131.741 -46.5753 1241.88
v 132.798 -48.1097 1253.32
v 131.909 -49.423 1255.81
v 132.314 -48.4144 1255.64
v 132.157 -49.5973 1256.79
v 131.884 -49.1662 1257.19
v 133.063 -39.2023 1225.16
v 133.548 -39.045 1224.68
v 133.796 -38.9219 1224.53
v 132.601 -39.7059 1226.96
v 132.601 -39.7059 1226.96
v 132.726 -39.704 1226.1
v 133.92 -38.5129 1223.76
v 133.92 -38.5129 1223.76
v 133.949 -38.2971 1224.41
v 134.35 -37.7547 1223.07
v 134.439 -38.2069 1223.15
v 134.439 -38.2069 1223.15
v 134.509 -37.9943 1222.89
v 134.509 -37.9943 1222.89
v 134.509 -37.9943 1222.89
v 134.682 -38.0964 1223.17
v 134.587 -37.8058 1222.84
v 134.587 -37.8058 1222.84
v 134.587 -37.8058 1222.84
v 134.664 -37.6636 1223.02
v 134.664 -37.6636 1223.02
v 134.772 -37.9183 1223.19
v 134.772 -37.9183 1223.19
v 134.666 -37.6972 1223.21
v 134.666 -37.6972 1223.21
v 133.483 -38.5507 1224.38
v 134.095 -38.5996 1224.35
v 134.095 -38.5996 1224.35
v 131.911 -54.0337 1258.82
v 131.284 -53.2742 1259.95
v 133.094 -47.2742 1239.49
v 133.094 -47.2742 1239.49
v 132.566 -49.0855 1255.02
v 134.091 -46.5744 1247.45
v 134.091 -46.5744 1247.45
v 134.091 -46.5744 1247.45
v 134.172 -46.5385 1246.65
v 134.292 -46.3937 1246.7
v 134.242 -46.882 1247.12
v 134.253 -46.7581 1246.62
v 134.311 -46.5746 1246.36
v 134.311 -46.5746 1246.36
v 134.311 -46.5746 1246.36
v 134.448 -46.3175 1246.66
v 134.448 -46.3175 1246.66
v 134.452 -46.4349 1247.31
v 134.47 -46.7224 1246.42
v 134.47 -46.7224 1246.42
v 134.47 -46.7224 1246.42
v 134.588 -46.7906 1247.41
v 134.575 -46.4748 1246.39
v 134.575 -46.4748 1246.39
v 134.575 -46.4748 1246.39
v 134.676 -46.5407 1246.63
v 133.947 -46.8001 1248.24
v 133.947 -46.8001 1248.24
v 134.035 -46.6386 1248.46
v 134.057 -46.6793 1249.05
v 134.057 -46.6793 1249.05
v 134.231 -47.1949 1248.59
v 134.231 -47.1949 1248.59
v 134.436 -47.0659 1248.8
v 134.441 -46.6811 1248.44
v 133.698 -47.0505 1249.83
v 133.779 -47.6171 1250.58
v 133.609 -47.1009 1250.82
v 133.609 -47.1009 1250.82
v 133.605 -47.2011 1251.75
v 133.868 -47.0436 1250.98
v 133.868 -47.0436 1250.98
v 133.868 -47.0436 1250.98
v 134.026 -47.5611 1251.51
v 133.124 -47.9008 1252.38
v 133.093 -47.6176 1253.14
v 133.305 -47.7346 1253.62
v 133.708 -47.5967 1252.69
v 133.708 -47.5967 1252.69
v 134.78 -37.9041 1222.99
v 134.78 -37.9041 1222.99
v 134.78 -37.9041 1222.99
v 134.78 -37.9041 1222.99
v 132.929 -53.87 1258.8
v 134.035 -53.8512 1257.15
v 135.056 -46.0199 1236.41
v 134.996 -53.1202 1256.99
v 134.996 -53.1202 1256.99
v 136.69 -46.3031 1234.24
v 136.067 -45.9403 1235.97
v 137.071 -46.3199 1234.68
v 137.071 -46.3199 1234.68
v 137.071 -46.3199 1234.68
v 137.156 -53.7638 1254.82
v 137.02 -53.1423 1255.2
v 137.074 -53.4869 1255.62
v 137.662 -53.6617 1255.11
v 139.413 -45.626 1231
v 140.124 -45.0379 1229.74
v 140.124 -45.0379 1229.74
v 140.124 -45.0379 1229.74
v 139.942 -44.9698 1229.88
v 139.942 -44.9698 1229.88
v 140 -45.3432 1229.84
v 140 -45.3432 1229.84
v 140.193 -44.9456 1230.08
v 140.193 -44.9456 1230.08
v 140.236 -45.3149 1229.84
v 140.236 -45.3149 1229.84
v 140.236 -45.3149 1229.84
v 140.333 -45.1574 1230.05
v 140.333 -45.1574 1230.05
v 139.334 -53.569 1253.15
v 141.23 -53.9476 1252.23
v 141.23 -53.9476 1252.23
v 141.377 -53.7516 1251.76
v 141.673 -53.8057 1251.57
v 141.752 -53.6179 1251.53
v 141.837 -53.4834 1251.85
v 141.837 -53.4834 1251.85
v 141.903 -53.9103 1251.6
v 141.903 -53.9103 1251.6
v 141.928 -53.9389 1251.8
v 141.928 -53.9389 1251.8
v 141.934 -53.6961 1251.51
v 141.934 -53.6961 1251.51
v 141.991 -53.5905 1251.63
v 141.991 -53.5905 1251.63
v 142.079 -53.7873 1251.81
v 142.079 -53.7873 1251.81
v 141.952 -53.7453 1251.97
vn -0.985729 0.11341 -0.124402
vn -0.907035 0.326212 0.26622
vn -0.881938 0.458321 -0.11012
vn -0.913796 -0.246167 -0.323076
vn -0.960896 -0.25532 0.107191
vn -0.898993 0.0393365 -0.436193
vn -0.837858 -0.172491 0.51792
vn -0.562979 0.292447 0.773
vn -0.773121 -0.58209 -0.251903
vn -0.736506 -0.627656 0.252203
vn -0.697304 -0.371982 -0.612696
vn -0.509357 -0.474928 0.717634
vn -0.413429 -0.743337 -0.525858
vn -0.445716 -0.889773 -0.0981921
vn -0.391757 -0.863623 0.317304
vn -0.359609 -0.645437 -0.673864
vn -0.18715 -0.801944 0.567328
vn -0.0913637 -0.621626 0.777968
vn 0.0215126 -0.815142 -0.578862
vn -0.00615337 -0.945 -0.327013
vn -0.17933 -0.976879 0.116401
vn 0.188411 -0.982037 0.0102651
vn -0.00862149 -0.937321 0.348361
vn 0.191452 -0.781616 0.593652
vn -0.150416 -0.255339 0.955079
vn 0.0567079 0.265398 0.96247
vn 0.2818 -0.561808 0.777792
vn 0.301326 -0.235774 0.923912
vn 0.551205 0.102417 0.82806
vn -0.609447 0.71892 0.334258
vn -0.0929745 0.701953 0.706128
vn 0.449155 0.46611 0.762235
vn 0.327246 -0.879406 -0.345769
vn 0.306951 -0.884771 0.350657
vn 0.682828 -0.299837 0.666216
vn 0.500273 -0.865867 -0.000931805
vn 0.728632 -0.683092 -0.0498022
vn 0.626806 -0.668344 0.400539
vn 0.867201 -0.352686 0.351532
vn 0.80279 0.0647183 0.592739
vn 0.210161 -0.81652 -0.537706
vn -0.104523 -0.7621 -0.638966
vn -0.82712 -0.0773232 -0.556681
vn 0.217571 0.702787 0.677313
vn -0.0925971 0.805639 0.585126
vn -0.747565 0.663414 0.0320689
vn 0.539076 -0.794595 -0.279314
vn 0.820491 -0.567051 0.0724409
vn -0.361051 -0.657509 -0.661305
vn 0.60627 0.41107 0.680778
vn -0.163061 0.848903 0.502767
vn 0.433928 0.601394 0.670844
vn -0.869578 0.423773 -0.253478
vn -0.519892 0.826948 0.214172
vn 0.0890135 -0.849542 -0.519957
vn 0.357803 -0.858112 -0.368269
vn 0.823305 0.0919763 0.560098
vn -0.492662 -0.576277 -0.652066
vn 0.020555 -0.862042 -0.506419
vn 0.0244455 0.83985 0.542268
vn -0.654382 -0.419599 -0.629063
vn -0.647895 0.760737 0.0388705
vn 0.0963358 -0.908165 -0.407376
vn 0.523615 -0.832984 -0.178785
vn 0.860228 -0.456247 0.227696
vn -0.738073 -0.367908 -0.56559
vn -0.428805 -0.671272 -0.604583
vn -0.148921 0.901616 0.406092
vn 0.693904 0.361658 0.622656
vn 0.373947 0.697603 0.611158
vn -0.86975 0.394124 -0.296987
vn -0.402364 0.893982 0.19723
vn -0.103048 -0.89082 -0.442517
vn 0.35401 -0.905407 -0.234338
vn 0.776141 -0.615571 0.136664
vn 0.658071 0.462102 0.594478
vn 0.879264 -0.0532202 0.473353
vn -0.880331 -0.0553635 -0.471118
vn 0.00469384 0.925448 0.378846
vn 0.530554 0.649931 0.544152
vn 0.213316 0.830568 0.514444
vn -0.510137 0.857633 0.0650009
vn -0.750012 -0.402413 -0.524925
vn 0.53384 -0.843852 -0.0541172
vn 0.818444 0.23207 0.525635
vn -0.905476 0.00956389 -0.42429
vn -0.656493 0.748479 -0.0937858
vn 0.367722 0.808036 0.46028
vn -0.107469 0.961105 0.254418
vn -0.439762 -0.796965 -0.414072
vn -0.445566 -0.774786 -0.448529
vn 0.574902 -0.816555 0.0522
vn 0.895709 -0.281 0.344593
vn 0.445817 0.790216 0.420483
vn 0.801979 0.332906 0.495987
vn -0.423859 0.904217 0.0523078
vn -0.914157 -0.0286502 -0.404346
vn -0.334786 0.94009 0.0644139
vn 0.377851 0.857861 0.348287
vn 0.829548 0.328435 0.451642
vn -0.927024 -0.0302228 -0.373783
vn -0.858035 -0.284957 -0.427289
vn 0.27776 -0.959188 0.0529894
vn 0.65734 -0.680936 0.322849
vn -0.834575 0.496653 -0.238369
vn 0.892328 0.0469833 0.448935
vn -0.199935 -0.95246 -0.229881
vn -0.194245 -0.949806 -0.245229
vn 0.237987 -0.9593 0.152004
vn 0.810655 0.415754 0.412295
vn 0.867887 -0.116776 0.48284
vn -0.647709 0.75753 -0.0813674
vn -0.0896745 0.979495 0.180411
vn 0.423931 0.838375 0.342651
vn -0.731178 -0.570803 -0.37358
vn 0.283885 -0.952467 0.110521
vn -0.206967 -0.971 -0.119679
vn 0.685485 -0.640785 0.345695
vn -0.384059 -0.859241 -0.337941
vn -0.722314 0.640266 -0.261385
vn 0.0953189 -0.979428 -0.177861
vn -0.743465 0.610087 -0.273957
vn -0.763307 0.12029 -0.634739
vn 0.254966 -0.961582 -0.101741
vn 0.927343 -0.190102 -0.322329
vn -0.197851 0.670163 -0.715358
vn -0.197851 0.670163 -0.715358
vn -0.892689 -0.2033 -0.402213
vn -0.152267 0.988338 -0.00140403
vn -0.901931 0.0898438 -0.422432
vn -0.772313 -0.401535 -0.492241
vn 0.400155 0.902595 0.158742
vn 0.839702 -0.477134 0.259316
vn 0.936209 0.313603 -0.158638
vn 0.672737 0.444083 -0.59179
vn -0.109385 0.842551 -0.527393
vn 0.229821 0.972898 0.0255387
vn 0.144023 0.983506 0.109424
vn 0.687188 0.634766 0.353335
vn -0.92818 0.237961 -0.286105
vn -0.783188 0.608106 -0.129704
vn -0.481252 0.875528 0.0429659
vn 0.124481 0.953617 0.274077
vn -0.55445 -0.779505 -0.291474
vn 0.0210628 -0.997664 -0.0649876
vn 0.645597 -0.730666 0.222108
vn 0.299507 0.933775 0.195858
vn 0.907017 -0.0437821 0.418811
vn -0.758495 -0.508928 -0.407036
vn -0.240452 -0.914917 -0.324208
vn 0.234074 -0.957031 -0.171174
vn -0.190759 -0.916247 -0.352281
vn -0.326017 0.94482 -0.0320687
vn -0.866627 0.475752 -0.150391
vn -0.688672 0.723711 -0.0444237
vn -0.502842 0.862881 0.0508585
vn 0.724614 0.568132 0.390078
vn 0.941557 -0.149006 0.302105
vn -0.498825 0.863499 0.0744498
vn -0.213553 0.959711 0.182619
vn -0.908347 -0.033891 -0.416843
vn -0.740224 -0.553043 -0.382376
vn 0.919055 -0.104291 0.380081
vn -0.333377 -0.912305 -0.237824
vn 0.780892 0.492651 0.384061
vn 0.256214 0.943245 0.21129
vn -0.462769 -0.794892 -0.392418
vn 0.0817188 -0.959465 -0.269721
vn 0.56757 -0.820895 -0.0632064
vn 0.884087 -0.438459 0.161691
vn -0.92 -0.187128 -0.344358
vn -0.487486 0.867684 0.097375
vn 0.309279 0.886991 0.34292
vn 0.957315 -0.0335024 0.287097
vn -0.958717 0.173492 -0.225306
vn 0.257359 0.901844 0.347049
vn 0.203238 -0.978421 -0.0372357
vn -0.509595 -0.782422 -0.357951
vn -0.754858 0.590778 -0.284906
vn -0.528722 0.836889 -0.14167
vn -0.801583 -0.372167 -0.467928
vn -0.876112 0.169238 -0.451428
vn 0.196949 0.954986 0.221838
vn 0.896984 0.147333 0.416788
vn 0.615852 0.68877 0.382521
vn 0.784467 -0.553278 0.280171
vn 0.316541 0.894124 0.316771
vn -0.168076 -0.921785 -0.349376
vn 0.233855 -0.941952 -0.240913
vn 0.562397 -0.820524 -0.102227
vn 0.964042 -0.133281 0.229909
vn 0.857251 -0.506493 0.0926569
vn -0.56896 -0.715742 -0.404967
vn -0.0565945 -0.963614 -0.261237
vn 0.375242 -0.922135 -0.094134
vn 0.88141 -0.463931 0.088794
vn 0.854661 0.373372 0.360761
vn -0.5368 0.83482 0.122151
vn 0.934823 0.0999592 0.340756
vn -0.60774 -0.589653 -0.53194
vn -0.792748 -0.2941 -0.533907
vn -0.565552 -0.695206 -0.443666
vn -0.8287 0.0017933 -0.559691
vn -0.053089 -0.976481 -0.208967
vn 0.499327 -0.857798 0.121883
vn 0.778293 0.406148 0.478857
vn 0.853169 -0.351619 0.385315
vn -0.685656 0.650404 -0.326879
vn 0.512577 0.720388 0.467233
vn -0.862759 -0.0644789 -0.501487
vn 0.672822 0.342796 -0.655593
vn -0.718219 -0.476879 -0.506703
vn -0.815123 -0.322456 -0.481245
vn 0.674302 0.61777 0.40457
vn 0.63165 0.670649 0.388906
vn 0.524687 -0.836272 -0.159227
vn 0.672822 0.342796 -0.655593
vn -0.616187 0.782883 0.086073
vn -0.278111 0.935839 0.216472
vn -0.861211 0.493977 -0.119592
vn 0.571755 -0.790568 0.219312
vn -0.703124 -0.306047 -0.641835
vn -0.78282 0.238685 -0.57465
vn 0.0998301 0.961773 0.255002
vn 0.806107 0.190036 0.560427
vn -0.646605 0.641511 -0.412753
vn -0.890523 0.131693 -0.43546
vn 0.654046 0.630812 0.417493
vn -0.84411 -0.3894 -0.368574
vn -0.525313 -0.755339 -0.391803
vn 0.518891 -0.84381 -0.136886
vn 0.884799 -0.458847 0.0811759
vn -0.875546 0.450525 -0.174491
vn -0.733511 -0.557807 -0.388347
vn -0.958051 0.15924 -0.238286
vn 0.213916 0.924417 0.315741
vn 0.44089 0.824749 0.354125
vn 0.954885 -0.194489 0.224431
vn -0.938742 -0.0595605 -0.339435
vn -0.694124 0.717044 -0.0635612
vn -0.111289 -0.955157 -0.27439
vn 0.284826 -0.958453 0.0155542
vn 0.628955 -0.70099 0.336199
vn 0.186175 0.922687 0.337622
vn 0.676788 0.410788 0.61091
vn 0.220401 -0.974437 -0.0435543
vn -0.824539 -0.317912 -0.468047
vn 0.78714 0.425688 0.446318
vn 0.897156 -0.174765 0.40567
vn 0.128592 -0.964097 -0.232336
vn -0.929933 0.0752113 -0.359954
vn -0.834769 0.515059 -0.194617
vn -0.839614 -0.371489 -0.396288
vn -0.441914 0.897017 0.00846636
vn 0.569048 0.739571 0.359471
vn 0.243782 0.927812 0.282373
vn 0.881791 0.304504 0.360169
vn 0.768376 0.516445 0.377998
vn -0.148457 0.974771 0.16668
vn 0.940491 0.0851313 0.328983
vn 0.480665 -0.875705 -0.0458428
vn 0.815307 0.451211 0.362881
vn 0.63487 0.67654 0.373141
vn -0.735243 0.467493 -0.490782
vn -0.236558 0.94954 0.205949
vn -0.728417 0.0300043 -0.684477
vn -0.746317 0.0365351 -0.664587
vn 0.186442 0.820476 0.540424
vn -0.435973 -0.82867 -0.351046
vn -0.869538 0.17153 -0.463122
vn -0.329947 0.942784 -0.0478959
vn 0.0383997 0.986036 0.162047
vn 0.881046 -0.0227093 0.472486
vn 0.394411 -0.915082 0.0840494
vn 0.909923 -0.324261 0.25864
vn 0.941987 0.0605925 0.330135
vn 0.922612 0.133201 0.362
vn -0.809288 -0.390584 -0.438745
vn -0.535895 -0.755533 -0.376812
vn 0.375389 0.869702 0.320472
vn 0.788075 0.461175 0.407745
vn 0.276026 -0.957301 -0.0859294
vn 0.916523 -0.246407 0.315071
vn -0.810892 0.534458 -0.238346
vn 0.297128 -0.952783 0.0626043
vn -0.666196 -0.162696 -0.727814
vn 0.714284 0.0762725 0.695688
vn -0.375831 -0.861939 -0.340312
vn -0.826503 0.180822 -0.533101
vn -0.6921 -0.526269 -0.494002
vn -0.785544 0.450638 -0.424083
vn -0.113215 0.991594 0.0626344
vn 0.126676 0.973849 0.188606
vn 0.0179056 -0.967994 -0.250334
vn -0.730467 -0.480029 -0.485787
vn -0.551798 -0.722138 -0.417176
vn -0.907363 0.149121 -0.393007
vn -0.167222 0.977726 0.126838
vn 0.309166 -0.944951 -0.107165
vn 0.490939 0.782182 0.383626
vn 0.204904 -0.967495 -0.148212
vn 0.911803 0.0675901 0.405028
vn -0.881783 0.0403858 -0.469924
vn -0.457588 0.889147 -0.0054799
vn -0.832116 0.47359 -0.28861
vn 0.392762 -0.917554 -0.0619062
vn 0.506112 0.7412 0.440992
vn -0.592017 -0.412606 -0.692294
vn 0.102551 -0.8743 -0.474428
vn -0.764862 0.621507 -0.169459
vn -0.612826 -0.413782 -0.673222
vn -0.375201 0.884995 0.275695
vn -0.810459 -0.0762701 -0.580809
vn 0.14783 -0.98785 -0.0479527
vn 0.197356 -0.98021 -0.0154738
vn 0.789115 -0.464073 0.40241
vn -0.880676 0.244921 -0.405492
vn 0.306842 0.696326 0.648828
vn 0.00351854 0.871768 0.489906
vn -0.7232 0.541329 -0.428887
vn -0.723766 0.542906 -0.42593
vn 0.829555 -0.276047 0.485424
vn -0.843111 -0.103648 -0.527656
vn 0.0915382 -0.955211 -0.281413
vn -0.24739 -0.880221 -0.404981
vn -0.461356 0.886164 0.0431808
vn -0.205386 -0.870345 -0.447566
vn 0.436542 -0.898488 -0.0463843
vn -0.408672 0.908136 0.0909747
vn -0.61888 -0.135392 -0.773729
vn 0.589903 -0.605433 0.53429
vn 0.365244 -0.891118 0.269268
vn 0.592754 -0.801668 -0.0772754
vn -0.39296 -0.662804 -0.637396
vn -0.464504 -0.652556 -0.598671
vn 0.848524 -0.113614 0.516816
vn -0.0690156 0.99671 0.0424859
vn -0.781346 0.277658 -0.558932
vn 0.75554 -0.499055 0.424385
vn 0.732863 0.416441 0.538041
vn 0.817236 0.0717397 0.571821
vn -0.787925 -0.420917 -0.449447
vn -0.868332 -0.10963 -0.483715
vn -0.779777 0.612337 -0.130352
vn -0.0619048 -0.902594 -0.426018
vn -0.213474 0.933178 0.28915
vn 0.626675 -0.776494 -0.0658474
vn -0.532459 0.83962 0.107356
vn 0.163609 0.834368 0.526367
vn 0.867157 0.0291985 0.497178
vn -0.323546 -0.772354 -0.546614
vn -0.293759 -0.782243 -0.549365
vn 0.673136 -0.736209 0.0698902
vn 0.177568 -0.917657 -0.355493
vn 0.875054 0.0192211 0.483644
vn -0.258256 -0.840298 -0.476658
vn -0.707561 -0.319541 -0.630279
vn -0.328551 0.902839 0.277374
vn -0.772361 0.239936 -0.588124
vn -0.510188 0.84971 0.133044
vn -0.713157 -0.140801 -0.686718
vn -0.229962 0.955614 0.184172
vn -0.515254 -0.568375 -0.641455
vn -0.561549 -0.572809 -0.597119
vn 0.405437 -0.832519 -0.377537
vn -0.630634 0.154242 -0.760598
vn -0.229358 0.962309 -0.146137
vn 0.880984 -0.457832 0.119402
vn -0.0147541 0.948827 0.315451
vn -0.844427 -0.0472592 -0.533581
vn 0.723773 -0.687029 0.064376
vn -0.513718 -0.501646 -0.696021
vn 0.572833 0.453276 0.682938
vn 0.153092 -0.987778 -0.0292841
vn 0.718633 -0.556217 0.41736
vn -0.551428 -0.708257 -0.440795
vn 0.202754 -0.942901 -0.26425
vn -0.0281083 -0.903906 -0.426806
vn 0.863748 -0.489718 0.118812
vn 0.85024 0.269527 0.452158
vn -0.945117 -0.277733 -0.172101
vn -0.924838 -0.321757 -0.202848
vn -0.639878 0.70895 -0.296558
vn -0.906353 -0.394545 -0.151187
vn -0.916979 -0.310999 -0.249859
vn -0.87749 -0.27943 -0.389781
vn -0.362856 0.783376 -0.504635
vn -0.239444 0.960077 0.144631
vn -0.309108 -0.827588 -0.468562
vn 0.107408 -0.966976 -0.23113
vn 0.731263 -0.639326 -0.23773
vn 0.806357 -0.59016 -0.0387263
vn 0.17143 -0.177118 -0.969144
vn 0.777369 0.622803 0.0883975
vn -0.797624 -0.552568 -0.241794
vn -0.794664 0.607042 0.00300553
vn -0.695209 0.718495 0.0212055
vn -0.620434 -0.742511 -0.252466
vn 0.471409 -0.874466 -0.11438
vn 0.700738 -0.711868 -0.0470171
vn 0.187417 0.968721 0.162647
vn -0.961043 -0.180309 -0.209486
vn -0.941875 -0.218705 -0.255028
vn -0.577532 -0.760544 -0.296698
vn -0.756769 -0.586537 -0.288576
vn -0.872318 0.475414 -0.114209
vn -0.973912 0.183344 -0.133715
vn -0.474928 0.877048 0.0723129
vn -0.21942 -0.913799 -0.341798
vn -0.286732 0.949717 0.125784
vn 0.529495 -0.841558 -0.106844
vn 0.91776 -0.376124 0.127461
vn -0.636684 -0.675523 -0.371889
vn -0.204227 0.951156 0.231501
vn 0.0875072 0.952811 0.290678
vn 0.932562 0.123396 0.339266
vn 0.404085 -0.747832 -0.526748
vn 0.10667 -0.994133 0.0179047
vn 0.439849 -0.774961 0.453837
vn -0.503689 -0.517069 -0.692052
vn -0.151066 0.98843 0.0136413
vn -0.358577 0.821477 -0.443395
vn -0.557012 0.3469 -0.754585
vn -0.556335 -0.33164 -0.761909
vn 0.595702 0.300899 0.744714
vn -0.780384 -0.0450547 -0.623675
vn 0.0519766 0.986549 0.15498
vn 0.813296 -0.0174279 0.581589
vn 0.348598 -0.848739 0.397646
vn -0.481149 -0.550696 -0.682077
vn -0.193964 0.930472 -0.310804
vn 0.543517 0.452113 0.707236
vn 0.116836 -0.982598 0.1444
vn 0.0361671 -0.979473 -0.198303
vn -0.680741 -0.0682022 -0.729342
vn -0.646058 -0.190527 -0.739127
vn -0.751142 -0.0514681 -0.658131
vn -0.72496 -0.143871 -0.673598
vn -0.0055463 0.999688 -0.0243712
vn 0.0127924 -0.315535 -0.948828
vn 0.767017 0.258767 0.587133
vn -0.49099 -0.579989 -0.650032
vn -0.341123 0.765925 -0.544972
vn -0.478401 0.422327 -0.769917
vn 0.0837928 -0.976058 0.20072
vn -0.537861 0.227864 -0.811655
vn -0.350055 0.746217 -0.566235
vn -0.278125 -0.888126 -0.365894
vn -0.387256 -0.763489 -0.516834
vn -0.456973 0.124247 -0.88076
vn 0.0438103 0.876889 -0.478692
vn 0.655093 0.546378 0.521847
vn -0.0571015 -0.40292 -0.913452
vn -0.0252562 -0.995039 -0.0962261
vn -0.128481 -0.25897 -0.957302
vn 0.201843 0.847832 -0.490347
vn 0.851637 -0.352075 -0.388275
vn 0.635032 0.53225 0.559861
vn 0.246964 -0.944561 -0.216364
vn -0.580447 0.780755 0.231307
vn 0.883067 -0.12 0.453644
vn 0.755034 -0.655343 0.0211985
vn -0.883081 0.109957 -0.456156
vn -0.851222 -0.250548 -0.461137
vn 0.438155 -0.896764 -0.0619279
vn 0.91267 -0.110685 0.393424
vn 0.159939 0.940297 0.300435
vn -0.43447 -0.832444 -0.343909
vn -0.274231 -0.921693 -0.274372
vn -0.605824 -0.728265 -0.320324
vn -0.785738 -0.412376 -0.461045
vn -0.631557 -0.607156 -0.482181
vn 0.487441 0.86094 0.145545
vn 0.927343 -0.190102 -0.322329
vn -0.763015 -0.526335 0.375206
vn -0.190759 -0.916247 -0.352281
vn -0.763015 -0.526335 0.375206
vn -0.190759 -0.916247 -0.352281
vn -0.197851 0.670163 -0.715358
vn 0.858505 -0.468549 0.208401
vn -0.780316 0.560317 -0.27776
vn -0.216456 0.837941 -0.501001
vn -0.590777 -0.469378 0.656252
vn 0.927343 -0.190102 -0.322329
vn 0.674309 -0.650349 0.349789
vn 0.672737 0.444083 -0.59179
vn -0.763307 0.12029 -0.634739
vn -0.32089 0.823123 -0.468506
vn -0.481046 -0.383924 -0.788161
vn 0.765677 -0.577007 0.284256
vn -0.763015 -0.526335 0.375206
vn -0.793151 0.545174 -0.271472
vn -0.590777 -0.469378 0.656252
vn 0.678728 0.0933129 0.728438
vn 0.27647 0.909509 0.310414
vn 0.870239 -0.440216 0.221121
vn 0.678728 0.0933129 0.728438
vn 0.678728 0.0933129 0.728438
vn -0.151894 0.988301 0.013768
vn -0.763307 0.12029 -0.634739
vn -0.481046 -0.383924 -0.788161
vn 0.214192 -0.970612 -0.109703
vn -0.481046 -0.383924 -0.788161
vn 0.672737 0.444083 -0.59179
vn 0.937961 -0.129883 0.321496
vn -0.216456 0.837941 -0.501001
vn 0.936209 0.313603 -0.158638
vn 0.853155 -0.460903 0.244325
vn -0.00900973 0.999767 0.0196394
vn -0.590777 -0.469378 0.656252
vn 0.0492584 0.982317 0.180629
vn 0.936209 0.313603 -0.158638
vn 0.9019 0.241746 0.357961
vn 0.756329 -0.646041 0.102939
vn -0.742403 0.669911 0.00759393
vn -0.0281743 0.990582 0.133989
vn 0.0605984 -0.94662 -0.316604
vn 0.869848 -0.466734 0.159763
vn 0.672822 0.342796 -0.655593
vn 0.140357 -0.938903 -0.314264
vn 0.669494 -0.737489 -0.0888161
vn -0.374803 0.925808 -0.0490069
vn -0.101909 0.993892 0.042345
vn 0.91441 0.327723 0.237595
vn 0.229015 -0.934965 -0.270912
vn 0.0961808 0.987694 0.123327
vn 0.206242 0.977722 0.0390416
vn 0.954131 0.171937 0.245093
vn 0.688419 -0.72123 -0.0768553
vn 0.964618 0.105292 0.241713
vn -0.9561 0.223634 -0.189371
vn -0.345124 0.923585 0.166974
vn -0.43719 0.888484 -0.139505
vn 0.755639 -0.523927 0.393078
vn 0.0592648 0.983019 0.173667
vn 0.159264 -0.949231 -0.271286
vn 0.0555819 -0.972035 -0.228162
vn 0.959607 0.0589228 0.275106
vn -0.146619 0.966311 0.211533
vn -0.623466 -0.474535 -0.621374
vn 0.790818 -0.0812486 0.606634
vn 0.523902 -0.842928 0.122474
vn 0.84882 -0.521012 0.0897289
vn 0.731445 -0.676234 0.0877248
vn -0.695346 0.643105 -0.320797
vn -0.761755 0.565701 -0.31577
vn -0.828511 0.406616 -0.38501
vn 0.729664 0.503844 0.462312
vn 0.795873 -0.479372 0.36985
vn 0.426792 -0.903785 -0.0319502
vn 0.155452 -0.976765 -0.14753
vn 0.824122 -0.519423 0.225881
vn 0.68459 -0.465596 0.560854
vn 0.102551 -0.8743 -0.474428
vn -0.134447 0.988776 -0.0651613
vn -0.574795 0.453818 -0.680926
vn 0.580001 0.472972 0.663248
vn 0.814306 -0.0476552 0.578476
vn 0.269626 -0.962919 0.00943919
vn -0.410773 0.901601 -0.135575
vn 0.717449 0.490068 0.495076
vn 0.14953 -0.972052 -0.180984
vn 0.87225 -0.398128 0.284032
vn -0.553153 0.830311 -0.0678689
vn 0.287691 0.886322 0.362859
vn -0.461454 0.88663 -0.0307861
vn 0.90519 -0.147862 0.398457
vn 0.784451 -0.579859 0.22
vn 0.902303 -0.0421213 0.429039
vn 0.0846636 -0.990564 -0.107775
vn 0.454907 0.668233 0.588664
vn 0.802333 -0.0014012 0.596875
vn -0.0319947 0.995642 0.0875953
vn 0.57757 -0.803684 -0.143193
vn -0.838824 0.401836 -0.367291
vn -0.434273 -0.786151 -0.439741
vn -0.43209 -0.806559 -0.403437
vn 0.645397 -0.697657 0.311027
vn 0.809945 0.0778577 0.581316
vn -0.384148 0.901252 -0.200437
vn -0.80236 0.183059 -0.568073
vn -0.324375 0.938743 -0.116369
vn 0.731718 0.460342 0.502667
vn -0.810037 -0.249588 -0.530608
vn -0.864879 0.057819 -0.49864
vn -0.836285 -0.109832 -0.537182
vn -0.0712527 -0.921243 -0.382405
vn 0.724374 -0.675564 0.137463
vn 0.534534 0.672399 0.512009
vn 0.646215 0.206425 0.734708
vn -0.0443588 -0.872941 -0.485804
vn 0.102551 -0.8743 -0.474428
vn 0.544201 -0.828714 -0.130682
vn 0.576606 -0.81107 -0.0984454
vn -0.566631 -0.624915 -0.537038
vn 0.251759 0.931223 0.263518
vn -0.917424 0.327715 -0.225691
vn -0.750326 -0.405883 -0.521795
vn 0.533384 0.689803 0.489564
vn 0.909318 -0.244095 0.336984
vn 0.697172 0.457054 0.552316
vn -0.810694 -0.155695 -0.564388
vn 0.364614 -0.903592 -0.224897
vn 0.745733 -0.66436 0.0500841
vn 0.812689 -0.523909 0.255061
vn 0.698387 0.451937 0.554985
vn 0.537756 -0.840333 -0.0682655
vn -0.323112 -0.755395 -0.570067
vn 0.0676304 -0.884765 -0.461105
vn 0.745868 0.311475 0.588782
vn -0.468102 0.868886 -0.160992
vn -0.0364767 -0.879211 -0.475034
vn 0.508247 -0.798538 -0.322524
vn -0.607235 0.0730694 -0.791155
vn 0.433079 -0.758455 -0.48702
vn 0.428914 -0.365432 -0.826131
vn 0.880984 -0.457832 0.119402
vn -0.321017 0.797909 -0.510186
vn 0.428914 -0.365432 -0.826131
vn 0.669382 0.403114 -0.62404
vn 0.901727 0.427471 0.0644762
vn 0.669382 0.403114 -0.62404
vn 0.756657 0.270873 0.595062
vn 0.901727 0.427471 0.0644762
vn 0.902556 0.426102 0.061895
vn 0.750531 0.286143 0.595672
vn -0.539821 0.837421 0.0855551
vn 0.858785 -0.45629 0.232998
vn 0.772231 0.263173 0.578273
vn -0.0717425 -0.971924 -0.22409
vn -0.130153 0.98848 -0.077254
vn -0.188233 -0.934515 -0.302076
vn 0.526956 -0.812711 0.248633
vn 0.622456 -0.779215 -0.0733007
vn -0.868866 0.494758 -0.0169332
vn -0.760241 0.64794 -0.0469724
vn -0.325976 0.940799 0.0929344
vn -0.708837 0.669368 -0.222477
vn -0.351531 0.923099 0.155928
vn 0.0197688 -0.979655 -0.199712
vn -0.271954 -0.877589 -0.394814
vn -0.45876 0.753097 -0.471577
vn -0.437708 -0.687369 -0.579599
vn 0.17143 -0.177118 -0.969144
vn -0.396968 0.90259 0.166574
vn 0.700212 0.713778 0.0149596
vn 0.850737 0.503574 0.150531
vn 0.17143 -0.177118 -0.969144
vn 0.413331 -0.875227 -0.251266
vn 0.80373 -0.390443 -0.448968
vn 0.941291 0.301446 0.151989
vn -0.236334 0.788898 -0.567262
vn 0.689285 0.718463 -0.0932571
vn 0.804359 -0.389788 -0.448411
vn 0.890431 -0.38882 -0.23654
vn -0.858735 0.511323 -0.0335135
vn -0.926319 -0.321855 -0.195811
vn -0.0433542 0.993136 0.108633
vn 0.224826 0.964764 0.136688
vn -0.299316 0.942432 0.149104
vn 0.473954 -0.871644 -0.124915
vn 0.0991332 -0.977667 -0.185309
vn 0.979576 0.131023 0.152523
vn 0.941233 0.293838 0.166554
vn -0.751772 0.659418 -0.00265135
vn 0.176242 -0.964445 -0.196939
vn -0.752043 0.658253 -0.0336857
vn -0.375206 0.919872 0.11426
vn 0.259505 0.916687 0.30388
vn 0.338203 0.917993 0.207143
vn 0.826156 0.50587 0.248114
vn 0.403673 0.859136 0.314536
vn 0.890152 0.394728 0.22764
vn -0.960923 0.100424 -0.257958
vn -0.797249 0.596857 -0.0903116
vn 0.694358 0.549783 0.464334
vn 0.413134 0.855549 0.312018
vn 0.833578 0.498279 0.238466
vn 0.428914 -0.365432 -0.826131
vn 0.891378 -0.453241 0.004207
vn 0.669382 0.403114 -0.62404
vn 0.90089 0.428836 0.0670568
vn 0.626952 0.129272 0.768258
vn -0.127448 -0.962336 -0.240138
vn -0.777863 0.256297 -0.573795
vn -0.114549 0.986468 -0.117301
vn 0.265755 0.919725 0.288928
vn -0.168978 -0.93692 -0.305987
vn 0.770513 0.252202 0.58541
vn 0.0961968 -0.987988 -0.120933
vn 0.480189 -0.846738 0.229028
vn 0.647795 -0.709244 0.278092
vn 0.0376195 -0.999224 0.0117051
vn 0.265755 0.919725 0.288928
vn 0.522903 -0.493442 0.695045
vn 0.493329 -0.518702 0.698266
vn 0.640305 -0.720945 0.265042
vn 0.130615 0.948808 -0.287582
vn 0.0127924 -0.315535 -0.948828
vn 0.829909 0.368849 -0.41857
vn -0.00404777 0.992891 -0.118955
vn -0.78961 0.278247 -0.546895
vn 0.0127924 -0.315535 -0.948828
vn 0.0044968 -0.971881 -0.235431
vn 0.718358 0.398123 0.570491
vn 0.774488 0.551313 -0.310198
vn 0.112405 -0.976884 -0.181832
vn 0.632582 -0.732385 0.251896
vn 0.845405 0.16864 -0.506805
vn 0.640305 -0.720945 0.265042
vn 0.829909 0.368849 -0.41857
vn -0.51267 0.383659 -0.768099
vn 0.408958 -0.673271 0.616003
vn -0.278694 -0.891451 -0.357273
vn -0.457588 -0.703008 -0.54442
vn -0.274469 -0.156563 -0.948765
vn -0.0141817 0.819312 -0.573172
vn 0.265755 0.919725 0.288928
vn -0.0399105 0.962047 -0.269948
vn -0.170111 -0.928119 -0.331146
vn 0.776148 -0.526109 -0.347567
vn 0.483084 -0.611802 0.626361
vn 0.701939 -0.68659 -0.189408
vn 0.187706 0.736327 -0.650068
vn 0.871603 -0.158471 -0.463892
vn 0.904944 0.0248205 -0.424807
vn 0.772726 0.579855 0.258192
vn 0.551128 -0.589088 0.590959
vn 0.755163 0.553026 0.351981
vn 0.483812 -0.584268 0.651581
g grp1
usemtl mtl1
f 43//43 11//11 6//6 
f 5//5 2//2 1//1 
f 5//5 7//7 2//2 
f 1//1 3//3 6//6 
f 1//1 2//2 3//3 
f 2//2 7//7 8//8 
f 2//2 30//30 3//3 
f 2//2 8//8 30//30 
f 8//8 31//31 30//30 
f 11//11 9//9 4//4 
f 9//9 10//10 5//5 
f 4//4 9//9 5//5 
f 4//4 6//6 11//11 
f 1//1 6//6 4//4 
f 5//5 1//1 4//4 
f 5//5 10//10 7//7 
f 12//12 7//7 10//10 
f 7//7 12//12 8//8 
f 9//9 11//11 13//13 
f 13//13 14//14 9//9 
f 9//9 14//14 10//10 
f 15//15 10//10 14//14 
f 11//11 42//42 16//16 
f 13//13 11//11 16//16 
f 12//12 10//10 15//15 
f 8//8 12//12 25//25 
f 12//12 15//15 17//17 
f 12//12 17//17 18//18 
f 18//18 25//25 12//12 
f 16//16 19//19 13//13 
f 19//19 20//20 13//13 
f 13//13 20//20 14//14 
f 20//20 21//21 14//14 
f 14//14 21//21 15//15 
f 15//15 21//21 23//23 
f 16//16 42//42 19//19 
f 23//23 17//17 15//15 
f 24//24 17//17 23//23 
f 18//18 17//17 24//24 
f 27//27 18//18 24//24 
f 22//22 459//459 33//33 
f 33//33 459//459 20//20 
f 21//21 22//22 23//23 
f 19//19 42//42 41//41 
f 36//36 34//34 22//22 
f 34//34 38//38 24//24 
f 34//34 24//24 23//23 
f 34//34 23//23 22//22 
f 38//38 27//27 24//24 
f 35//35 27//27 38//38 
f 26//26 8//8 25//25 
f 25//25 18//18 27//27 
f 27//27 28//28 25//25 
f 28//28 26//26 25//25 
f 29//29 26//26 28//28 
f 27//27 35//35 28//28 
f 28//28 35//35 29//29 
f 35//35 40//40 29//29 
f 6//6 3//3 43//43 
f 42//42 11//11 43//43 
f 30//30 31//31 45//45 
f 26//26 31//31 8//8 
f 45//45 31//31 44//44 
f 26//26 32//32 31//31 
f 32//32 44//44 31//31 
f 26//26 29//29 32//32 
f 40//40 32//32 29//29 
f 3//3 46//46 43//43 
f 3//3 30//30 46//46 
f 30//30 460//460 46//46 
f 20//20 19//19 33//33 
f 41//41 33//33 19//19 
f 36//36 22//22 33//33 
f 36//36 38//38 34//34 
f 37//37 38//38 36//36 
f 35//35 39//39 40//40 
f 37//37 36//36 33//33 
f 33//33 41//41 47//47 
f 37//37 39//39 38//38 
f 38//38 39//39 35//35 
f 33//33 47//47 37//37 
f 37//37 48//48 39//39 
f 461//461 40//40 39//39 
f 42//42 47//47 41//41 
f 37//37 47//47 48//48 
f 49//49 42//42 43//43 
f 40//40 50//50 32//32 
f 50//50 44//44 32//32 
f 51//51 46//46 460//460 
f 45//45 44//44 51//51 
f 57//57 50//50 40//40 
f 52//52 51//51 44//44 
f 57//57 40//40 461//461 
f 44//44 50//50 52//52 
f 50//50 57//57 52//52 
f 49//49 43//43 58//58 
f 58//58 43//43 61//61 
f 43//43 46//46 53//53 
f 54//54 53//53 46//46 
f 51//51 54//54 46//46 
f 53//53 463//463 43//43 
f 52//52 60//60 51//51 
f 42//42 56//56 47//47 
f 47//47 462//462 65//65 
f 42//42 55//55 64//64 
f 42//42 64//64 56//56 
f 49//49 55//55 42//42 
f 65//65 48//48 47//47 
f 58//58 59//59 49//49 
f 49//49 59//59 55//55 
f 59//59 64//64 55//55 
f 64//64 65//65 462//462 
f 57//57 461//461 65//65 
f 463//463 71//71 66//66 
f 53//53 71//71 463//463 
f 53//53 62//62 71//71 
f 54//54 60//60 68//68 
f 53//53 54//54 62//62 
f 51//51 60//60 54//54 
f 52//52 70//70 60//60 
f 52//52 69//69 70//70 
f 62//62 72//72 71//71 
f 68//68 72//72 62//62 
f 58//58 61//61 67//67 
f 67//67 61//61 66//66 
f 59//59 58//58 67//67 
f 59//59 63//63 64//64 
f 59//59 67//67 63//63 
f 69//69 52//52 57//57 
f 66//66 71//71 78//78 
f 62//62 54//54 68//68 
f 77//77 69//69 57//57 
f 74//74 64//64 63//63 
f 64//64 75//75 65//65 
f 65//65 77//77 57//57 
f 68//68 60//60 70//70 
f 82//82 71//71 72//72 
f 70//70 81//81 68//68 
f 74//74 75//75 64//64 
f 78//78 83//83 66//66 
f 83//83 91//91 66//66 
f 67//67 66//66 73//73 
f 66//66 91//91 73//73 
f 63//63 73//73 74//74 
f 67//67 73//73 63//63 
f 76//76 81//81 70//70 
f 77//77 65//65 75//75 
f 69//69 76//76 70//70 
f 69//69 77//77 76//76 
f 71//71 86//86 78//78 
f 86//86 71//71 87//87 
f 83//83 78//78 86//86 
f 82//82 72//72 79//79 
f 72//72 81//81 79//79 
f 79//79 81//81 80//80 
f 76//76 80//80 81//81 
f 80//80 85//85 95//95 
f 85//85 80//80 76//76 
f 77//77 85//85 76//76 
f 80//80 95//95 88//88 
f 72//72 68//68 81//81 
f 79//79 80//80 88//88 
f 82//82 79//79 89//89 
f 74//74 73//73 84//84 
f 75//75 93//93 77//77 
f 83//83 90//90 91//91 
f 464//464 83//83 86//86 
f 465//465 84//84 73//73 
f 74//74 84//84 75//75 
f 84//84 93//93 75//75 
f 93//93 84//84 92//92 
f 77//77 93//93 85//85 
f 71//71 82//82 87//87 
f 89//89 87//87 82//82 
f 79//79 88//88 89//89 
f 86//86 87//87 105//105 
f 464//464 86//86 102//102 
f 90//90 468//468 91//91 
f 84//84 465//465 92//92 
f 95//95 85//85 93//93 
f 97//97 86//86 105//105 
f 89//89 88//88 94//94 
f 94//94 88//88 95//95 
f 95//95 100//100 94//94 
f 466//466 95//95 93//93 
f 100//100 95//95 466//466 
f 96//96 87//87 89//89 
f 97//97 101//101 102//102 
f 102//102 86//86 97//97 
f 104//104 92//92 103//103 
f 103//103 92//92 465//465 
f 91//91 468//468 469//469 
f 97//97 105//105 101//101 
f 98//98 105//105 87//87 
f 96//96 98//98 87//87 
f 98//98 467//467 99//99 
f 94//94 99//99 467//467 
f 94//94 100//100 99//99 
f 110//110 99//99 100//100 
f 467//467 89//89 94//94 
f 149//149 102//102 101//101 
f 468//468 108//108 469//469 
f 469//469 108//108 107//107 
f 106//106 466//466 104//104 
f 466//466 106//106 100//100 
f 106//106 110//110 100//100 
f 99//99 113//113 98//98 
f 114//114 113//113 99//99 
f 110//110 114//114 99//99 
f 471//471 472//472 131//131 
f 109//109 104//104 103//103 
f 115//115 470//470 471//471 
f 106//106 104//104 111//111 
f 140//140 149//149 101//101 
f 140//140 101//101 105//105 
f 105//105 112//112 140//140 
f 105//105 98//98 112//112 
f 113//113 112//112 98//98 
f 139//139 110//110 106//106 
f 139//139 106//106 111//111 
f 142//142 113//113 143//143 
f 113//113 142//142 112//112 
f 143//143 113//113 114//114 
f 128//128 115//115 130//130 
f 471//471 131//131 130//130 
f 115//115 471//471 130//130 
f 115//115 144//144 117//117 
f 144//144 145//145 117//117 
f 145//145 116//116 117//117 
f 109//109 117//117 116//116 
f 116//116 118//118 109//109 
f 115//115 117//117 470//470 
f 117//117 109//109 103//103 
f 104//104 109//109 118//118 
f 104//104 118//118 111//111 
f 149//149 119//119 468//468 
f 119//119 108//108 468//468 
f 119//119 121//121 108//108 
f 130//130 120//120 128//128 
f 108//108 121//121 502//502 
f 121//121 124//124 502//502 
f 474//474 125//125 484//484 
f 490//490 133//133 485//485 
f 135//135 486//486 504//504 
f 487//487 123//123 500//500 
f 481//481 122//122 130//130 
f 475//475 477//477 491//491 
f 476//476 152//152 478//478 
f 492//492 122//122 481//481 
f 506//506 482//482 488//488 
f 506//506 136//136 482//482 
f 493//493 483//483 510//510 
f 479//479 126//126 127//127 
f 480//480 514//514 496//496 
f 133//133 490//490 496//496 
f 497//497 494//494 498//498 
f 499//499 495//495 511//511 
f 496//496 158//158 133//133 
f 499//499 511//511 138//138 
f 130//130 122//122 120//120 
f 499//499 120//120 122//122 
f 129//129 120//120 499//499 
f 138//138 129//129 499//499 
f 129//129 138//138 147//147 
f 503//503 489//489 501//501 
f 132//132 137//137 473//473 
f 507//507 134//134 512//512 
f 508//508 133//133 505//505 
f 110//110 513//513 505//505 
f 132//132 473//473 139//139 
f 133//133 158//158 505//505 
f 505//505 158//158 110//110 
f 138//138 511//511 509//509 
f 138//138 509//509 137//137 
f 137//137 132//132 138//138 
f 138//138 132//132 139//139 
f 138//138 139//139 147//147 
f 148//148 139//139 111//111 
f 148//148 111//111 118//118 
f 171//171 149//149 140//140 
f 140//140 112//112 141//141 
f 112//112 142//142 141//141 
f 160//160 142//142 143//143 
f 115//115 128//128 144//144 
f 116//116 146//146 118//118 
f 129//129 153//153 120//120 
f 161//161 128//128 120//120 
f 162//162 144//144 128//128 
f 164//164 145//145 144//144 
f 144//144 162//162 164//164 
f 128//128 161//161 162//162 
f 139//139 166//166 147//147 
f 139//139 165//165 166//166 
f 148//148 165//165 139//139 
f 165//165 148//148 163//163 
f 145//145 146//146 116//116 
f 146//146 148//148 118//118 
f 148//148 146//146 163//163 
f 171//171 167//167 149//149 
f 119//119 150//150 121//121 
f 149//149 150//150 119//119 
f 150//150 151//151 121//121 
f 496//496 514//514 158//158 
f 166//166 153//153 129//129 
f 166//166 129//129 147//147 
f 157//157 110//110 158//158 
f 151//151 514//514 121//121 
f 159//159 155//155 156//156 
f 154//154 171//171 140//140 
f 154//154 140//140 141//141 
f 155//155 154//154 141//141 
f 141//141 142//142 155//155 
f 156//156 155//155 142//142 
f 160//160 156//156 142//142 
f 160//160 143//143 173//173 
f 173//173 143//143 157//157 
f 514//514 170//170 158//158 
f 157//157 114//114 110//110 
f 157//157 143//143 114//114 
f 176//176 172//172 160//160 
f 159//159 156//156 160//160 
f 155//155 159//159 172//172 
f 160//160 172//172 159//159 
f 162//162 161//161 178//178 
f 164//164 162//162 178//178 
f 178//178 177//177 164//164 
f 177//177 145//145 164//164 
f 186//186 184//184 163//163 
f 163//163 146//146 186//186 
f 146//146 145//145 177//177 
f 177//177 186//186 146//146 
f 184//184 165//165 163//163 
f 120//120 179//179 161//161 
f 179//179 120//120 180//180 
f 516//516 166//166 183//183 
f 183//183 166//166 185//185 
f 180//180 120//120 153//153 
f 166//166 516//516 153//153 
f 166//166 165//165 185//185 
f 167//167 168//168 150//150 
f 193//193 188//188 167//167 
f 167//167 188//188 168//168 
f 168//168 188//188 189//189 
f 149//149 167//167 150//150 
f 150//150 168//168 151//151 
f 151//151 168//168 169//169 
f 169//169 192//192 170//170 
f 169//169 170//170 514//514 
f 170//170 192//192 174//174 
f 157//157 158//158 174//174 
f 174//174 158//158 170//170 
f 151//151 169//169 514//514 
f 171//171 193//193 167//167 
f 176//176 198//198 172//172 
f 155//155 172//172 154//154 
f 172//172 198//198 154//154 
f 160//160 173//173 176//176 
f 176//176 173//173 157//157 
f 157//157 197//197 176//176 
f 197//197 157//157 174//174 
f 175//175 171//171 154//154 
f 515//515 154//154 198//198 
f 177//177 178//178 204//204 
f 208//208 182//182 179//179 
f 183//183 187//187 516//516 
f 208//208 179//179 180//180 
f 181//181 161//161 182//182 
f 161//161 179//179 182//182 
f 181//181 178//178 161//161 
f 187//187 183//183 185//185 
f 184//184 206//206 185//185 
f 184//184 207//207 206//206 
f 185//185 206//206 187//187 
f 209//209 187//187 206//206 
f 184//184 186//186 207//207 
f 165//165 184//184 185//185 
f 516//516 187//187 224//224 
f 193//193 194//194 188//188 
f 194//194 189//189 188//188 
f 190//190 196//196 192//192 
f 191//191 192//192 196//196 
f 168//168 189//189 190//190 
f 169//169 168//168 190//190 
f 169//169 190//190 192//192 
f 192//192 191//191 174//174 
f 174//174 191//191 197//197 
f 269//269 194//194 193//193 
f 269//269 246//246 194//194 
f 213//213 247//247 193//193 
f 194//194 246//246 195//195 
f 194//194 195//195 189//189 
f 190//190 189//189 195//195 
f 196//196 190//190 518//518 
f 518//518 199//199 196//196 
f 197//197 215//215 176//176 
f 199//199 191//191 196//196 
f 191//191 199//199 197//197 
f 218//218 515//515 198//198 
f 213//213 193//193 212//212 
f 199//199 214//214 215//215 
f 199//199 215//215 197//197 
f 175//175 531//531 171//171 
f 198//198 219//219 218//218 
f 219//219 176//176 236//236 
f 219//219 198//198 176//176 
f 236//236 176//176 215//215 
f 202//202 200//200 204//204 
f 201//201 181//181 182//182 
f 181//181 202//202 178//178 
f 202//202 181//181 201//201 
f 208//208 203//203 182//182 
f 202//202 204//204 178//178 
f 182//182 203//203 201//201 
f 201//201 200//200 202//202 
f 200//200 201//201 203//203 
f 221//221 205//205 204//204 
f 207//207 205//205 221//221 
f 204//204 205//205 177//177 
f 177//177 205//205 186//186 
f 205//205 207//207 186//186 
f 180//180 533//533 208//208 
f 224//224 187//187 209//209 
f 206//206 225//225 209//209 
f 207//207 225//225 206//206 
f 247//247 269//269 193//193 
f 199//199 518//518 249//249 
f 210//210 213//213 212//212 
f 519//519 217//217 211//211 
f 527//527 526//526 523//523 
f 248//248 199//199 249//249 
f 214//214 199//199 248//248 
f 214//214 248//248 228//228 
f 542//542 195//195 246//246 
f 229//229 193//193 171//171 
f 229//229 230//230 193//193 
f 536//536 525//525 517//517 
f 525//525 231//231 216//216 
f 525//525 216//216 520//520 
f 216//216 232//232 521//521 
f 216//216 231//231 232//232 
f 215//215 237//237 236//236 
f 523//523 271//271 522//522 
f 521//521 232//232 529//529 
f 538//538 530//530 232//232 
f 530//530 538//538 528//528 
f 530//530 528//528 524//524 
f 523//523 526//526 292//292 
f 526//526 535//535 292//292 
f 235//235 229//229 531//531 
f 531//531 229//229 171//171 
f 220//220 235//235 531//531 
f 218//218 219//219 532//532 
f 226//226 266//266 223//223 
f 222//222 223//223 266//266 
f 208//208 223//223 203//203 
f 203//203 223//223 222//222 
f 200//200 203//203 222//222 
f 241//241 204//204 200//200 
f 540//540 200//200 222//222 
f 221//221 204//204 242//242 
f 243//243 221//221 242//242 
f 209//209 225//225 245//245 
f 225//225 541//541 245//245 
f 534//534 207//207 221//221 
f 221//221 243//243 534//534 
f 226//226 223//223 208//208 
f 533//533 226//226 208//208 
f 209//209 244//244 224//224 
f 227//227 247//247 213//213 
f 547//547 270//270 227//227 
f 210//210 227//227 213//213 
f 227//227 210//210 547//547 
f 271//271 523//523 292//292 
f 234//234 230//230 229//229 
f 536//536 537//537 250//250 
f 231//231 536//536 250//250 
f 543//543 232//232 231//231 
f 536//536 231//231 525//525 
f 239//239 233//233 252//252 
f 253//253 279//279 234//234 
f 235//235 233//233 239//239 
f 537//537 551//551 261//261 
f 261//261 250//250 537//537 
f 235//235 220//220 233//233 
f 220//220 240//240 233//233 
f 234//234 239//239 253//253 
f 539//539 532//532 236//236 
f 238//238 232//232 543//543 
f 538//538 238//238 262//262 
f 236//236 237//237 262//262 
f 239//239 229//229 235//235 
f 532//532 219//219 236//236 
f 229//229 239//239 234//234 
f 232//232 238//238 538//538 
f 233//233 240//240 252//252 
f 252//252 240//240 259//259 
f 259//259 539//539 236//236 
f 259//259 236//236 255//255 
f 236//236 262//262 255//255 
f 222//222 308//308 540//540 
f 570//570 242//242 241//241 
f 241//241 242//242 204//204 
f 226//226 264//264 266//266 
f 265//265 224//224 244//244 
f 226//226 533//533 545//545 
f 244//244 209//209 245//245 
f 247//247 227//227 270//270 
f 272//272 292//292 535//535 
f 228//228 248//248 548//548 
f 249//249 273//273 248//248 
f 543//543 261//261 238//238 
f 251//251 253//253 252//252 
f 251//251 252//252 284//284 
f 254//254 284//284 252//252 
f 284//284 254//254 298//298 
f 253//253 251//251 278//278 
f 253//253 278//278 279//279 
f 254//254 252//252 259//259 
f 254//254 259//259 256//256 
f 256//256 259//259 255//255 
f 257//257 262//262 260//260 
f 262//262 257//257 255//255 
f 263//263 256//256 258//258 
f 255//255 257//257 258//258 
f 255//255 258//258 256//256 
f 275//275 276//276 260//260 
f 260//260 276//276 257//257 
f 276//276 258//258 257//257 
f 263//263 258//258 277//277 
f 252//252 253//253 239//239 
f 544//544 261//261 550//550 
f 261//261 544//544 238//238 
f 262//262 238//238 260//260 
f 298//298 254//254 256//256 
f 298//298 256//256 280//280 
f 280//280 256//256 263//263 
f 308//308 222//222 266//266 
f 541//541 287//287 245//245 
f 243//243 242//242 285//285 
f 545//545 264//264 226//226 
f 264//264 267//267 266//266 
f 546//546 264//264 545//545 
f 244//244 268//268 265//265 
f 268//268 244//244 245//245 
f 269//269 288//288 246//246 
f 246//246 274//274 542//542 
f 274//274 246//246 559//559 
f 270//270 547//547 291//291 
f 560//560 271//271 292//292 
f 272//272 293//293 292//292 
f 273//273 249//249 549//549 
f 273//273 548//548 248//248 
f 261//261 551//551 550//550 
f 275//275 283//283 277//277 
f 275//275 277//277 276//276 
f 276//276 277//277 258//258 
f 297//297 278//278 284//284 
f 297//297 284//284 305//305 
f 278//278 297//297 295//295 
f 278//278 295//295 296//296 
f 251//251 284//284 278//278 
f 278//278 296//296 279//279 
f 298//298 566//566 284//284 
f 280//280 281//281 300//300 
f 280//280 300//300 298//298 
f 562//562 301//301 551//551 
f 550//550 551//551 282//282 
f 551//551 301//301 282//282 
f 552//552 283//283 275//275 
f 302//302 300//300 281//281 
f 277//277 281//281 263//263 
f 263//263 281//281 280//280 
f 281//281 277//277 283//283 
f 570//570 285//285 242//242 
f 553//553 287//287 541//541 
f 286//286 266//266 267//267 
f 311//311 286//286 267//267 
f 287//287 553//553 331//331 
f 373//373 557//557 590//590 
f 268//268 245//245 287//287 
f 575//575 546//546 545//545 
f 311//311 334//334 286//286 
f 592//592 309//309 554//554 
f 312//312 265//265 268//268 
f 314//314 315//315 559//559 
f 312//312 310//310 265//265 
f 291//291 289//289 270//270 
f 289//289 291//291 321//321 
f 292//292 582//582 560//560 
f 289//289 290//290 270//270 
f 313//313 290//290 289//289 
f 577//577 290//290 576//576 
f 247//247 290//290 269//269 
f 290//290 288//288 269//269 
f 247//247 270//270 290//290 
f 288//288 290//290 577//577 
f 322//322 273//273 316//316 
f 315//315 274//274 559//559 
f 583//583 561//561 548//548 
f 548//548 273//273 583//583 
f 316//316 273//273 549//549 
f 292//292 337//337 582//582 
f 292//292 293//293 337//337 
f 295//295 297//297 303//303 
f 297//297 305//305 303//303 
f 295//295 325//325 294//294 
f 306//306 294//294 324//324 
f 324//324 294//294 325//325 
f 301//301 562//562 299//299 
f 294//294 296//296 295//295 
f 299//299 562//562 294//294 
f 302//302 563//563 567//567 
f 299//299 294//294 306//306 
f 301//301 299//299 282//282 
f 552//552 563//563 283//283 
f 563//563 302//302 283//283 
f 283//283 302//302 281//281 
f 564//564 566//566 304//304 
f 584//584 295//295 303//303 
f 564//564 304//304 326//326 
f 329//329 326//326 304//304 
f 298//298 304//304 566//566 
f 298//298 300//300 565//565 
f 565//565 300//300 307//307 
f 307//307 300//300 302//302 
f 302//302 567//567 569//569 
f 306//306 324//324 328//328 
f 308//308 266//266 330//330 
f 571//571 557//557 373//373 
f 311//311 335//335 334//334 
f 572//572 336//336 558//558 
f 286//286 330//330 266//266 
f 555//555 573//573 631//631 
f 373//373 590//590 425//425 
f 317//317 575//575 310//310 
f 310//310 575//575 545//545 
f 574//574 593//593 594//594 
f 549//549 578//578 316//316 
f 316//316 578//578 339//339 
f 317//317 335//335 311//311 
f 317//317 310//310 348//348 
f 312//312 348//348 310//310 
f 268//268 319//319 312//312 
f 318//318 319//319 268//268 
f 287//287 318//318 268//268 
f 348//348 312//312 319//319 
f 289//289 321//321 320//320 
f 582//582 337//337 580//580 
f 581//581 313//313 289//289 
f 322//322 316//316 339//339 
f 324//324 327//327 587//587 
f 327//327 356//356 587//587 
f 323//323 584//584 303//303 
f 323//323 303//303 585//585 
f 327//327 324//324 325//325 
f 586//586 584//584 323//323 
f 589//589 565//565 307//307 
f 355//355 569//569 567//567 
f 605//605 568//568 588//588 
f 307//307 606//606 589//589 
f 586//586 323//323 585//585 
f 327//327 351//351 356//356 
f 332//332 285//285 570//570 
f 553//553 332//332 331//331 
f 330//330 556//556 422//422 
f 555//555 631//631 422//422 
f 419//419 331//331 332//332 
f 314//314 374//374 315//315 
f 317//317 343//343 335//335 
f 344//344 343//343 317//317 
f 335//335 345//345 378//378 
f 335//335 343//343 598//598 
f 594//594 333//333 347//347 
f 333//333 634//634 347//347 
f 335//335 591//591 334//334 
f 317//317 348//348 344//344 
f 593//593 333//333 594//594 
f 378//378 591//591 335//335 
f 579//579 336//336 350//350 
f 336//336 600//600 350//350 
f 558//558 336//336 579//579 
f 338//338 313//313 581//581 
f 580//580 337//337 421//421 
f 685//685 338//338 581//581 
f 340//340 561//561 583//583 
f 596//596 337//337 293//293 
f 576//576 632//632 577//577 
f 583//583 341//341 340//340 
f 578//578 375//375 339//339 
f 339//339 375//375 322//322 
f 341//341 322//322 375//375 
f 343//343 342//342 598//598 
f 597//597 343//343 344//344 
f 344//344 346//346 414//414 
f 414//414 346//346 415//415 
f 348//348 346//346 344//344 
f 346//346 348//348 319//319 
f 319//319 349//349 346//346 
f 350//350 600//600 380//380 
f 380//380 601//601 350//350 
f 379//379 380//380 600//600 
f 601//601 380//380 599//599 
f 380//380 676//676 599//599 
f 634//634 379//379 347//347 
f 319//319 318//318 349//349 
f 350//350 601//601 579//579 
f 344//344 675//675 597//597 
f 675//675 406//406 597//597 
f 351//351 352//352 356//356 
f 602//602 586//586 370//370 
f 370//370 586//586 585//585 
f 607//607 603//603 353//353 
f 357//357 602//602 370//370 
f 352//352 351//351 608//608 
f 603//603 609//609 354//354 
f 603//603 354//354 353//353 
f 353//353 604//604 371//371 
f 353//353 371//371 605//605 
f 353//353 605//605 588//588 
f 588//588 607//607 353//353 
f 361//361 357//357 370//370 
f 358//358 627//627 329//329 
f 357//357 361//361 363//363 
f 609//609 612//612 354//354 
f 361//361 370//370 359//359 
f 627//627 360//360 611//611 
f 627//627 358//358 360//360 
f 611//611 360//360 362//362 
f 367//367 611//611 362//362 
f 362//362 360//360 358//358 
f 604//604 613//613 371//371 
f 363//363 361//361 364//364 
f 614//614 361//361 366//366 
f 366//366 361//361 359//359 
f 618//618 611//611 367//367 
f 367//367 362//362 369//369 
f 369//369 362//362 358//358 
f 613//613 615//615 417//417 
f 613//613 417//417 365//365 
f 613//613 365//365 371//371 
f 679//679 616//616 619//619 
f 368//368 617//617 680//680 
f 617//617 368//368 628//628 
f 629//629 623//623 610//610 
f 624//624 621//621 625//625 
f 610//610 623//623 626//626 
f 627//627 326//326 329//329 
f 629//629 610//610 606//606 
f 610//610 589//589 606//606 
f 372//372 308//308 330//330 
f 630//630 418//418 570//570 
f 419//419 332//332 418//418 
f 418//418 332//332 570//570 
f 372//372 330//330 420//420 
f 684//684 418//418 630//630 
f 425//425 590//590 683//683 
f 686//686 422//422 631//631 
f 633//633 375//375 578//578 
f 409//409 377//377 376//376 
f 342//342 376//376 598//598 
f 342//342 413//413 376//376 
f 345//345 377//377 378//378 
f 376//376 377//377 345//345 
f 379//379 634//634 377//377 
f 416//416 380//380 379//379 
f 421//421 337//337 427//427 
f 337//337 596//596 427//427 
f 382//382 384//384 381//381 
f 384//384 395//395 381//381 
f 656//656 396//396 635//635 
f 386//386 385//385 382//382 
f 385//385 384//384 382//382 
f 638//638 383//383 642//642 
f 636//636 383//383 638//638 
f 388//388 639//639 637//637 
f 658//658 388//388 637//637 
f 642//642 383//383 387//387 
f 645//645 639//639 388//388 
f 641//641 643//643 389//389 
f 389//389 390//390 641//641 
f 640//640 641//641 390//390 
f 640//640 390//390 399//399 
f 648//648 644//644 393//393 
f 652//652 642//642 387//387 
f 394//394 653//653 646//646 
f 394//394 646//646 647//647 
f 390//390 649//649 391//391 
f 399//399 390//390 391//391 
f 392//392 399//399 391//391 
f 654//654 391//391 650//650 
f 391//391 654//654 655//655 
f 391//391 655//655 392//392 
f 647//647 651//651 394//394 
f 657//657 405//405 402//402 
f 656//656 665//665 396//396 
f 665//665 397//397 396//396 
f 395//395 384//384 398//398 
f 395//395 398//398 405//405 
f 658//658 659//659 401//401 
f 401//401 388//388 658//658 
f 412//412 411//411 400//400 
f 661//661 640//640 399//399 
f 661//661 399//399 400//400 
f 661//661 400//400 411//411 
f 399//399 392//392 400//400 
f 663//663 651//651 664//664 
f 664//664 673//673 663//663 
f 664//664 651//651 647//647 
f 402//402 405//405 403//403 
f 403//403 407//407 402//402 
f 665//665 667//667 397//397 
f 668//668 410//410 660//660 
f 403//403 405//405 404//404 
f 398//398 404//404 405//405 
f 659//659 670//670 401//401 
f 664//664 671//671 673//673 
f 662//662 411//411 666//666 
f 674//674 406//406 403//403 
f 403//403 406//406 407//407 
f 406//406 408//408 668//668 
f 406//406 675//675 408//408 
f 410//410 668//668 408//408 
f 404//404 409//409 413//413 
f 413//413 409//409 376//376 
f 413//413 403//403 404//404 
f 672//672 669//669 677//677 
f 666//666 411//411 409//409 
f 409//409 411//411 377//377 
f 671//671 678//678 673//673 
f 379//379 377//377 411//411 
f 411//411 412//412 379//379 
f 674//674 597//597 406//406 
f 669//669 414//414 415//415 
f 380//380 416//416 676//676 
f 677//677 669//669 415//415 
f 379//379 412//412 416//416 
f 681//681 620//620 622//622 
f 682//682 621//621 624//624 
f 686//686 431//431 422//422 
f 422//422 423//423 330//330 
f 685//685 426//426 338//338 
f 595//595 688//688 576//576 
f 688//688 632//632 576//576 
f 341//341 689//689 340//340 
f 341//341 375//375 428//428 
f 428//428 689//689 341//341 
f 423//423 424//424 330//330 
f 424//424 420//420 330//330 
f 424//424 423//423 442//442 
f 420//420 424//424 430//430 
f 430//430 424//424 442//442 
f 423//423 443//443 712//712 
f 422//422 443//443 423//423 
f 418//418 684//684 693//693 
f 425//425 432//432 452//452 
f 687//687 718//718 694//694 
f 683//683 432//432 425//425 
f 688//688 690//690 632//632 
f 375//375 633//633 691//691 
f 439//439 421//421 427//427 
f 693//693 429//429 418//418 
f 429//429 419//419 418//418 
f 419//419 429//429 695//695 
f 433//433 429//429 693//693 
f 429//429 696//696 695//695 
f 422//422 431//431 443//443 
f 441//441 689//689 428//428 
f 690//690 688//688 434//434 
f 692//692 697//697 710//710 
f 443//443 431//431 719//719 
f 458//458 452//452 432//432 
f 438//438 437//437 435//435 
f 435//435 437//437 436//436 
f 698//698 701//701 439//439 
f 440//440 703//703 699//699 
f 437//437 426//426 685//685 
f 437//437 685//685 702//702 
f 439//439 701//701 421//421 
f 437//437 438//438 426//426 
f 688//688 704//704 434//434 
f 689//689 441//441 705//705 
f 707//707 434//434 704//704 
f 697//697 708//708 710//710 
f 700//700 706//706 711//711 
f 709//709 700//700 711//711 
f 444//444 712//712 443//443 
f 696//696 730//730 695//695 
f 445//445 433//433 693//693 
f 696//696 713//713 730//730 
f 442//442 714//714 430//430 
f 444//444 446//446 712//712 
f 444//444 443//443 447//447 
f 444//444 447//447 446//446 
f 447//447 443//443 719//719 
f 449//449 448//448 715//715 
f 715//715 448//448 442//442 
f 442//442 448//448 714//714 
f 450//450 716//716 446//446 
f 447//447 450//450 446//446 
f 717//717 447//447 451//451 
f 447//447 719//719 451//451 
f 716//716 455//455 453//453 
f 448//448 449//449 720//720 
f 720//720 454//454 448//448 
f 730//730 713//713 722//722 
f 454//454 714//714 448//448 
f 455//455 716//716 450//450 
f 724//724 717//717 451//451 
f 456//456 724//724 451//451 
f 456//456 451//451 719//719 
f 457//457 721//721 725//725 
f 721//721 457//457 723//723 
f 722//722 728//728 730//730 
f 457//457 725//725 726//726 
f 452//452 729//729 727//727 
f 729//729 452//452 458//458 
