# Original Z-Anatomy world coordinates in meters; no atlas registration
o Cochlea.l
v 0.03954255581 -0.002167216968 1.582637191
v 0.0393958576 -0.001973180566 1.582772136
v 0.03968747705 -0.001752401702 1.582771778
v 0.039817404 -0.002425863408 1.58280158
v 0.03946943581 -0.00269307429 1.582568169
v 0.03941760585 -0.00209692074 1.582462907
v 0.03933299705 -0.002001275774 1.582630634
v 0.03930719197 -0.002034792211 1.582308769
v 0.03917526826 -0.002030111384 1.582108259
v 0.03927744552 -0.002026103903 1.582505703
v 0.03932045773 -0.001921105664 1.582237124
v 0.03925947845 -0.002487542108 1.58240211
v 0.03915537521 -0.001556448638 1.581936836
v 0.03860847652 -0.001226775348 1.581859231
v 0.03904035687 -0.001307293773 1.581772208
v 0.03864333779 -0.001099125016 1.581828475
v 0.03908877075 -0.0016749762 1.581849456
v 0.03897797689 -0.001970433164 1.581756473
v 0.03890854865 -0.001095970161 1.581690669
v 0.03856206313 -0.0006855721585 1.581725001
v 0.0389081575 -0.00144557748 1.581471801
v 0.03877734765 -0.0007752375677 1.581394911
v 0.03876030818 -0.00185167091 1.581237912
v 0.03881638497 -0.002358183265 1.581583023
v 0.03860270977 -0.002255763859 1.580903053
v 0.03873515874 -0.001326498576 1.580978751
v 0.03856060654 -0.001780772116 1.580589294
v 0.03878040239 -0.0008818199858 1.580705285
v 0.0388498567 -0.0004154057242 1.581067324
v 0.03859529272 -0.001326746773 1.580224395
v 0.03892187774 -0.0005292436108 1.580307364
v 0.03896915168 -0.0002605263144 1.580648065
v 0.03879997507 -0.0009147361852 1.579846144
v 0.03916949779 -0.0001744050533 1.580088615
v 0.03912112862 6.201863289e-05 1.580631137
v 0.03951953351 0.0002039270476 1.579932213
v 0.03914254904 -0.0005611693487 1.579559207
v 0.03945811838 -0.0003071110696 1.579378128
v 0.03913939372 -0.001039174385 1.579125881
v 0.03926689923 -0.001420259941 1.578851819
v 0.03944387659 -0.0008007343858 1.578965187
v 0.03880827129 -0.00135476049 1.579388142
v 0.03857342899 -0.001762045082 1.5797472
v 0.03897641599 -0.001768671442 1.579034805
v 0.03872182965 -0.002180505078 1.579330206
v 0.03925130516 -0.002076603472 1.57881403
v 0.03904390708 -0.002509358805 1.579087853
v 0.03955013677 -0.002286245115 1.578693628
v 0.03951312974 -0.0016789129 1.57864213
v 0.03968871385 -0.001229923218 1.578637362
v 0.03979649767 -0.00185377989 1.578541994
v 0.04010244459 -0.001963596791 1.578548193
v 0.03995690867 -0.001296825707 1.578545809
v 0.04006151855 -0.0006916909479 1.578703165
v 0.04028145224 -0.001408234704 1.578543782
v 0.04071256146 -0.001537830569 1.578687549
v 0.04038478807 -0.0007240758277 1.57869482
v 0.04085665941 -0.0008597481064 1.578820229
v 0.04042417556 2.325046808e-06 1.579133987
v 0.04093602672 -0.0001272000372 1.579253674
v 0.04045139626 0.0006071445532 1.579868555
v 0.04007058963 -1.438334584e-05 1.579148054
v 0.03976329789 -0.0001264000311 1.579238176
v 0.04009668902 0.0005634040572 1.579845309
v 0.03979804367 0.0004176916555 1.579875231
v 0.04003210366 0.0009618166368 1.580743194
v 0.03971793875 0.0008010328747 1.580675721
v 0.04039569572 0.0009802288841 1.580851555
v 0.03976228833 0.0009719100781 1.581695437
v 0.03944152594 0.0008138555568 1.581512213
v 0.0393518135 0.000690075336 1.582465887
v 0.04015287012 0.0009490095545 1.58186698
v 0.0406912826 0.0006062760949 1.582039952
v 0.03972553834 0.0006329827011 1.582688332
v 0.04026610032 0.0002621407621 1.582877517
v 0.0392357409 0.0002095983364 1.583274841
v 0.03871110827 -0.0002409289591 1.583629012
v 0.03892534599 0.0003062335309 1.58300209
v 0.03969495371 -0.0001599588431 1.583510041
v 0.03986842558 -0.0004760520533 1.583464622
v 0.03912351653 -0.0005666678771 1.583865047
v 0.03860712424 -0.000996384304 1.584063649
v 0.03933022916 -0.0008202190511 1.583832502
v 0.03948520869 -0.001065949444 1.583699942
v 0.03883555532 -0.001193289645 1.584028721
v 0.03903406486 -0.001390200108 1.5839113
v 0.03831147403 -0.001757897902 1.584103465
v 0.03853540123 -0.001907292753 1.58400023
v 0.0380721353 -0.001596252434 1.584124804
v 0.03785375506 -0.002464360092 1.583997369
v 0.03761176765 -0.00232753111 1.583983183
v 0.03747462109 -0.003208511975 1.583697915
v 0.03809066862 -0.002574963029 1.58391881
v 0.03772766888 -0.003297311254 1.583649039
v 0.03831854835 -0.002648523077 1.58377862
v 0.03852817789 -0.002710923553 1.583569407
v 0.03797447309 -0.003334937617 1.583533525
v 0.03873590752 -0.002050444018 1.583830833
v 0.03919644654 -0.001581265591 1.583740354
v 0.03890059143 -0.002192348242 1.583605886
v 0.03902038559 -0.002312269527 1.5833143
v 0.03929471225 -0.001756721642 1.583514452
v 0.03960319981 -0.001574118622 1.583276749
v 0.03932160512 -0.001954050269 1.583248615
v 0.03951078281 -0.001815391704 1.583025217
v 0.03929287568 -0.002102310769 1.58291018
v 0.03924433514 -0.002128024586 1.582743645
v 0.03910073265 -0.002365985885 1.582979441
v 0.03886407241 -0.002728897147 1.582944632
v 0.03908808529 -0.002359882463 1.582795382
v 0.03907691687 -0.002354485914 1.582632661
v 0.03888892755 -0.002679584548 1.582755208
v 0.0386941731 -0.003053390887 1.582597852
v 0.03891089186 -0.002636006102 1.582587838
v 0.03874090314 -0.002958437428 1.582422853
v 0.03886142746 -0.00246426044 1.582276106
v 0.03871847689 -0.002704169136 1.58212471
v 0.03875881433 -0.002263670322 1.582049251
v 0.03899413347 -0.002227149904 1.582352638
v 0.03887623549 -0.002075269818 1.582147956
v 0.03909530863 -0.002072757576 1.582360744
v 0.03920143098 -0.002150747925 1.582596421
v 0.0391985327 -0.001959808171 1.582322121
v 0.03897665814 -0.001942718867 1.58218956
v 0.03910317644 -0.001834519207 1.582177401
v 0.03886345401 -0.001777763478 1.582058907
v 0.0387542285 -0.001906650141 1.581993818
v 0.03874808177 -0.001610703301 1.581955791
v 0.03901476413 -0.001673216932 1.582067251
v 0.03891809285 -0.001504150219 1.581974149
v 0.03918268159 -0.001627697609 1.581987023
v 0.03910793364 -0.001459478866 1.581874013
v 0.03925772756 -0.001794044394 1.582106829
v 0.03878756985 -0.001356299967 1.58190155
v 0.03857945651 -0.001465633512 1.581869006
v 0.03835319355 -0.001323986333 1.581848502
v 0.03840786219 -0.001592805143 1.581786633
v 0.03861690313 -0.001735597849 1.581873059
v 0.03814815357 -0.001465835143 1.581789732
v 0.03825446963 -0.001738331746 1.581659675
v 0.03847775608 -0.001888512634 1.581737161
v 0.0380968228 -0.00191176543 1.581457138
v 0.03796502203 -0.001637872774 1.58167851
v 0.03779301047 -0.001832964364 1.581481099
v 0.03764951602 -0.001640604343 1.581802964
v 0.03784731403 -0.001388992649 1.581932664
v 0.03747037426 -0.001876667142 1.581610203
v 0.0373737812 -0.001741750166 1.582025409
v 0.03718998283 -0.002049092669 1.581780434
v 0.03713375703 -0.001912534237 1.582332611
v 0.03758056089 -0.001418527681 1.582181334
v 0.03779810295 -0.001115181949 1.582207203
v 0.03736138344 -0.001488773152 1.582553506
v 0.03761713207 -0.001091643702 1.582565188
v 0.03721631318 -0.001618253533 1.582877874
v 0.0375071913 -0.001107645221 1.582996726
v 0.03697961196 -0.002096548676 1.582616091
v 0.03715977073 -0.001737009268 1.583182812
v 0.03688324243 -0.002293139696 1.582884073
v 0.03717282787 -0.001869334374 1.583454967
v 0.03750568628 -0.001140689943 1.583314061
v 0.03756323457 -0.001204025466 1.583603263
v 0.03790361434 -0.000592306722 1.583261132
v 0.03785021231 -0.0006128479727 1.582928896
v 0.03801091015 -0.0006158230826 1.583557844
v 0.03829910234 -0.0001500602812 1.583058596
v 0.03818167746 -0.0002501294948 1.582653284
v 0.03869052976 0.0002522466239 1.582690477
v 0.03846609592 -0.0001313560642 1.583361149
v 0.03851763159 8.542183787e-05 1.582343578
v 0.03906323016 0.0005744653754 1.582199931
v 0.03882566839 0.000328668626 1.581926703
v 0.03866326809 -7.320847362e-05 1.581641555
v 0.03916535527 0.000528689241 1.581351995
v 0.03894253075 0.0001132893376 1.5812217
v 0.03935610875 0.0004410373513 1.580628991
v 0.03841757402 -0.0002166107297 1.581986308
v 0.03815455735 -0.0004346463829 1.582265854
v 0.037884105 -0.0007199351676 1.582478881
v 0.03829773515 -0.0007281694561 1.581943512
v 0.03801963106 -0.0008349134587 1.582136154
v 0.03831254318 -0.001062829979 1.581888914
v 0.03806488961 -0.00119883474 1.581949949
v 0.03821340576 -0.0007187407464 1.583818555
v 0.03771753609 -0.001331339125 1.583864927
v 0.03729278222 -0.002042304724 1.583705544
v 0.03694991022 -0.002716918476 1.583375812
v 0.03723529726 -0.003064771183 1.583657026
v 0.0368636027 -0.002483350225 1.583137035
v 0.03666281328 -0.003313115798 1.582834125
v 0.03660841286 -0.003020478878 1.582644343
v 0.03690494597 -0.003735797945 1.583051324
v 0.03642334417 -0.003759227693 1.582045674
v 0.03663429618 -0.004253447056 1.582173109
v 0.03641043603 -0.003414008766 1.58192873
v 0.03627060354 -0.003996674903 1.581042051
v 0.03625298291 -0.003976774402 1.579891562
v 0.03629264235 -0.00361403171 1.581023097
v 0.03646543249 -0.00455285795 1.58106184
v 0.03646654636 -0.004594507627 1.57975471
v 0.03671072796 -0.004769458435 1.581060171
v 0.03687410802 -0.004437226802 1.582186341
v 0.03673361987 -0.00483191479 1.579728365
v 0.03701254353 -0.004882609472 1.581049919
v 0.03706305847 -0.004957241938 1.579734206
v 0.03733608499 -0.004885090515 1.581023693
v 0.03715426102 -0.004547341727 1.582162261
v 0.03739883006 -0.00398920849 1.583047748
v 0.03744365275 -0.004568523727 1.582102656
v 0.03772875294 -0.00449651666 1.582020521
v 0.03766776621 -0.004008648917 1.582971334
v 0.03792809695 -0.003962495364 1.582850337
v 0.03821347654 -0.003323454875 1.583362103
v 0.03817754239 -0.003853401169 1.582685947
v 0.03844733909 -0.003265821841 1.583119512
v 0.03841748461 -0.003655902576 1.582451344
v 0.03800964355 -0.00434741471 1.581907392
v 0.03796700388 -0.004590858705 1.580914378
v 0.03829183429 -0.004063240252 1.581722975
v 0.03837445006 -0.003862842917 1.581608772
v 0.03822780401 -0.004278923385 1.580811024
v 0.03824824467 -0.004301413894 1.579841495
v 0.03829530999 -0.004073546268 1.580756545
v 0.03835497051 -0.003892046399 1.580708504
v 0.03829790652 -0.004093092866 1.579845309
v 0.03846653178 -0.003845948726 1.578964472
v 0.03834179044 -0.003908978775 1.579848647
v 0.03831228614 -0.003501414787 1.579867363
v 0.03849315271 -0.003681018483 1.579025745
v 0.03874727339 -0.003231326118 1.578301549
v 0.03844947368 -0.003306365572 1.579134941
v 0.03868037462 -0.002916252241 1.578483105
v 0.03834392503 -0.002933620941 1.579227924
v 0.03822305799 -0.003126467578 1.579878807
v 0.0382114239 -0.002607571427 1.579296947
v 0.03855516762 -0.002578944433 1.578649521
v 0.038869977 -0.002092089038 1.578199029
v 0.03841116652 -0.002269747201 1.578791857
v 0.03824416548 -0.001993404701 1.578891516
v 0.0387163125 -0.001807354391 1.578385234
v 0.03852784261 -0.00155084813 1.578522205
v 0.03910920024 -0.001266634557 1.578141689
v 0.03956063092 -0.0006541004404 1.578078389
v 0.03891155869 -0.001019437332 1.578294754
v 0.03928387538 -0.001507654786 1.577931643
v 0.03941504657 -0.001722221263 1.57767868
v 0.03974361718 -0.0008620787412 1.577866554
v 0.03989569098 -0.00104036415 1.577612877
v 0.04024058953 -0.0002231127582 1.578005195
v 0.04041112587 -0.0003819689155 1.577752948
v 0.04069577157 0.0003532974515 1.578249931
v 0.04004154727 -2.658134326e-05 1.578206778
v 0.0404631272 0.000535330968 1.578460693
v 0.03982990608 0.0001982601825 1.578344822
v 0.04022900388 0.0007601259276 1.578602195
v 0.03961936012 0.0004352908581 1.578411102
v 0.03935878724 -0.0004279008135 1.578230023
v 0.0391491428 -0.0001987968571 1.578308344
v 0.0389403142 2.670288086e-05 1.578302383
v 0.03869716451 -0.000784852542 1.578380942
v 0.03848030046 -0.0005660080351 1.578389525
v 0.03832033277 -0.001314617693 1.578599691
v 0.03804835305 -0.001752669923 1.578951001
v 0.03809647635 -0.001108928118 1.578611612
v 0.03786164895 -0.00096490141 1.578517199
v 0.03782062232 -0.001572013833 1.578956723
v 0.03762624785 -0.001940075774 1.579373002
v 0.03757254779 -0.001478063874 1.578875899
v 0.03735287488 -0.001475443132 1.578708768
v 0.03737297282 -0.001893442124 1.579306722
v 0.03715564683 -0.00194168184 1.579172254
v 0.03726170585 -0.002192286309 1.579808831
v 0.03703331575 -0.002292346675 1.579719782
v 0.03752037138 -0.002191176638 1.579865575
v 0.03722900152 -0.002319480292 1.580380321
v 0.03750159964 -0.002275700215 1.580408096
v 0.03727388382 -0.002264756244 1.580906749
v 0.03699686006 -0.002456938382 1.58033216
v 0.03679706529 -0.002667635214 1.58026731
v 0.03702167049 -0.002438767813 1.580926776
v 0.03708465397 -0.002281725872 1.5814147
v 0.03680248186 -0.002684115432 1.580955148
v 0.03660225496 -0.002979097888 1.580973268
v 0.03685860336 -0.002528335899 1.581527591
v 0.03666971996 -0.002810755745 1.581671834
v 0.03696310148 -0.002268868033 1.581984878
v 0.0367911607 -0.002512544859 1.582209349
v 0.0366669111 -0.00276750885 1.58242929
v 0.03651465476 -0.003110421356 1.581804633
v 0.03642421216 -0.003292809706 1.581002951
v 0.0364205502 -0.003222258296 1.580118418
v 0.0362775363 -0.003558389843 1.580013037
v 0.03660178557 -0.002928479109 1.580187321
v 0.03651525453 -0.002903429326 1.579289317
v 0.03668528795 -0.002646081615 1.579463959
v 0.03669342399 -0.002403357066 1.5785712
v 0.03638662398 -0.003221689258 1.579074264
v 0.03658514842 -0.002670229413 1.5782547
v 0.03640437499 -0.003647014499 1.578806758
v 0.03665592521 -0.003036837559 1.577894807
v 0.03669245914 -0.004261630587 1.578491688
v 0.03705271333 -0.003589737695 1.577482343
v 0.03698435426 -0.004493399523 1.578429461
v 0.03737764433 -0.003796979785 1.577395201
v 0.03732594848 -0.004629918374 1.578439832
v 0.03772509098 -0.003930731677 1.577396989
v 0.03767945617 -0.004645607434 1.578518987
v 0.0374108851 -0.004957478493 1.579763651
v 0.03806855157 -0.003977425396 1.577488422
v 0.03800680488 -0.004540049471 1.578628063
v 0.03836655989 -0.003914703615 1.57766211
v 0.03774308041 -0.004842296243 1.579799175
v 0.03826689348 -0.004329237156 1.578757763
v 0.03803309053 -0.004622302018 1.579826355
v 0.038587071 -0.003754801117 1.577877522
v 0.03843640536 -0.004032583907 1.578895211
v 0.03871911392 -0.003518858925 1.578097701
v 0.03908556327 -0.00283539528 1.577478528
v 0.03873406351 -0.003366223071 1.578205943
v 0.03908706084 -0.002723168116 1.577616096
v 0.03908837959 -0.002623983193 1.577737689
v 0.0395080857 -0.00197371887 1.577266812
v 0.04002116993 -0.001218684949 1.577178001
v 0.03950012848 -0.001905916724 1.577404499
v 0.039517086 -0.002050432842 1.577111006
v 0.04004321247 -0.001266521402 1.577012777
v 0.03944354132 -0.002148638945 1.576813579
v 0.04000433534 -0.001291978639 1.576695919
v 0.03898474202 -0.002997219563 1.577210665
v 0.03927753493 -0.002177941613 1.576540589
v 0.0387974903 -0.003094499465 1.576960802
v 0.03903718665 -0.002144083846 1.576328993
v 0.03987086937 -0.001257755328 1.576413512
v 0.0396604538 -0.001172719989 1.576192141
v 0.040479552 -0.0003916081041 1.576528788
v 0.04029327258 -0.000255911611 1.576301694
v 0.04108627141 0.0003719066735 1.576753616
v 0.04058914259 -0.00048441533 1.576817274
v 0.04117533192 0.0002277847379 1.577046275
v 0.04060827568 -0.0005175597034 1.577139139
v 0.04116877541 0.0001469319686 1.577373743
v 0.04057294503 -0.0004988773726 1.577308655
v 0.04111691937 0.0001450022683 1.577547669
v 0.04054171965 -0.0004823706113 1.577458501
v 0.04000169784 -0.001176413149 1.577324033
v 0.04107108712 0.0001432918943 1.57770133
v 0.04155867919 0.0006887840573 1.578014016
v 0.04090573639 0.0002174256369 1.577996612
v 0.04134920612 0.0007170878816 1.578314662
v 0.04171722755 0.001119324006 1.578654289
v 0.04108716547 0.000817369204 1.578572273
v 0.04137896001 0.001192212338 1.578883886
v 0.04080019519 0.0009830577765 1.578772783
v 0.04104450345 0.001345375087 1.579038262
v 0.04053493589 0.001194897341 1.578893423
v 0.04077856243 0.00153858983 1.579131365
v 0.04030266032 0.001431205776 1.578947067
v 0.04055725783 0.001763152424 1.579167485
v 0.04010113701 0.001695926534 1.578935862
v 0.0400063023 0.001012781635 1.578677297
v 0.03980236873 0.001279950608 1.57868278
v 0.03962821141 0.001537302742 1.578605175
v 0.03941835836 0.0006721352693 1.578402519
v 0.03923970461 0.0008867287543 1.578306556
v 0.03874311224 0.0002301794011 1.578198075
v 0.03910397738 0.001075087348 1.578129292
v 0.03858209029 0.0003956179135 1.578004003
v 0.03903281689 0.001216504257 1.577882171
v 0.03949878737 0.001754215453 1.578439713
v 0.03943127021 0.00192878698 1.578205109
v 0.03984057903 0.002270657336 1.578683972
v 0.03978516161 0.002499022521 1.578450561
v 0.04014271125 0.002563522197 1.5788486
v 0.03994596004 0.001981867477 1.578846216
v 0.04023348168 0.002298401669 1.579020023
v 0.04037045687 0.002021372318 1.579133511
v 0.04040749371 0.002561296802 1.57920754
v 0.04056616127 0.002293938771 1.579325438
v 0.04029107094 0.002739632037 1.579468489
v 0.04031989351 0.002867756644 1.57908082
v 0.0403467156 0.003333195811 1.578956008
v 0.04017037153 0.003063111566 1.579301
v 0.0402033627 0.003476158949 1.579125524
v 0.04033820331 0.00375229097 1.5790205
v 0.04055955261 0.003996570595 1.578938484
v 0.04078214988 0.00413491996 1.578902602
v 0.04043158516 0.003451798577 1.578729033
v 0.04057547823 0.003625616431 1.578498602
v 0.04015111551 0.003097750247 1.578423142
v 0.04012866318 0.002848582342 1.578661561
v 0.03979378566 0.002676176839 1.578168035
v 0.04027560353 0.003287485568 1.578160286
v 0.03988227993 0.002786305733 1.577878237
v 0.0405029878 0.003376122098 1.577926278
v 0.04007768631 0.002820274327 1.577621341
v 0.04080030322 0.003742135828 1.578318238
v 0.04098287225 0.003291394794 1.577681303
v 0.04127911106 0.003721219255 1.578116059
v 0.04135880619 0.003166227834 1.577583313
v 0.04042006284 0.002777682384 1.577412724
v 0.04103221372 0.002596386475 1.577140689
v 0.04006154835 0.002086388413 1.577088833
v 0.03973890096 0.002129031112 1.577334523
v 0.04061703756 0.001916221343 1.576773047
v 0.03959640861 0.001291665714 1.576753855
v 0.04010147229 0.001110132551 1.576439738
v 0.03898828477 0.0004313408863 1.576518774
v 0.03931355849 0.001350034261 1.577015758
v 0.03913892433 0.001347189769 1.577296615
v 0.03872874379 0.0005194467958 1.576811075
v 0.03806404024 -0.0003134650178 1.576814771
v 0.03857457265 0.0005551611539 1.577113271
v 0.03849234059 0.0005549860653 1.577429771
v 0.03793980554 -0.0002395352349 1.577152014
v 0.03789551929 -0.0002072304487 1.577489138
v 0.03738816828 -0.001041553449 1.577442288
v 0.0374173224 -0.0009699831717 1.577778697
v 0.03697766364 -0.001770151313 1.577957869
v 0.0374340117 -0.001159443054 1.577074051
v 0.03693356737 -0.001961088739 1.577582836
v 0.03764294088 -0.001371152233 1.576666355
v 0.03813169897 -0.001746360213 1.576216698
v 0.03831399977 -0.0004561203532 1.576466799
v 0.0370727554 -0.002259330824 1.577155948
v 0.03751954809 -0.002737071831 1.576697469
v 0.03785644472 -0.002923531923 1.576626778
v 0.03819939494 -0.003047198523 1.576658964
v 0.03844353929 -0.001922924537 1.576152682
v 0.0387497358 -0.002049382776 1.57620883
v 0.03910961002 -0.0008960580453 1.576016068
v 0.03976492584 6.87954016e-05 1.576117039
v 0.03939917311 -0.001047167461 1.5760566
v 0.03881185502 -0.0007360433228 1.5760746
v 0.03947583586 0.0002201946918 1.576180339
v 0.0400473699 -9.649666026e-05 1.576158285
v 0.04067509994 0.0007569536101 1.576390982
v 0.04091262072 0.0005557567347 1.576528192
v 0.04039437324 0.0009487373754 1.576364994
v 0.04123639315 0.001522581792 1.576700449
v 0.04147897288 0.001282826299 1.576838493
v 0.04173197597 0.002183786593 1.577079177
v 0.04093570262 0.001742394408 1.576684237
v 0.04139489308 0.002418878721 1.577059388
v 0.04179089516 0.003022368299 1.577470779
v 0.04204613343 0.003503075801 1.577940941
v 0.04213077202 0.002813725499 1.577506304
v 0.04235164076 0.003304696875 1.577974677
v 0.04239674285 0.002558410168 1.577646613
v 0.04258210212 0.003040555632 1.578094721
v 0.04254709929 0.002282207133 1.577876568
v 0.04199474677 0.001918444643 1.577215314
v 0.04216254503 0.001663274132 1.577446342
v 0.04222023487 0.001445224974 1.577739
v 0.04164725542 0.001055213157 1.577064276
v 0.0417224206 0.0008647432551 1.577356815
v 0.04169162735 0.0007339557633 1.577685595
v 0.04216387868 0.001270322595 1.578057766
v 0.04162105173 0.000709974207 1.577859998
v 0.04207088426 0.001209822716 1.578224063
v 0.04235815629 0.001678389497 1.578607202
v 0.04198870063 0.001156362938 1.578371048
v 0.04226076975 0.001587997423 1.578743219
v 0.04195743427 0.001489703078 1.57899034
v 0.04237807542 0.001957474975 1.579082489
v 0.04247560352 0.002061495092 1.578953385
v 0.04239688069 0.002366096014 1.579453707
v 0.04208625853 0.001837132964 1.579311371
v 0.04217963293 0.002227711957 1.579652786
v 0.04174149781 0.001844287617 1.579488516
v 0.04159299284 0.001524207648 1.579177976
v 0.04194305465 0.002158317249 1.579804778
v 0.04140188918 0.001963552786 1.579581499
v 0.04161288962 0.002176625188 1.579923511
v 0.04124393687 0.001668045996 1.579289198
v 0.04113366082 0.002127792686 1.579610586
v 0.04097857699 0.001851461129 1.579339504
v 0.04122998938 0.002349792747 1.579959631
v 0.04089732468 0.002286772011 1.579625845
v 0.0405741483 0.002495461144 1.579662323
v 0.0407648012 0.002065592445 1.579360962
v 0.04104146361 0.002416564617 1.579990149
v 0.04081178829 0.002423092257 1.580079198
v 0.04121069983 0.002415668452 1.580255628
v 0.04105212167 0.002388084773 1.580365896
v 0.04132947326 0.002436326817 1.580173016
v 0.04136798903 0.002518507652 1.580420494
v 0.04157070071 0.002723515034 1.580431223
v 0.04145334288 0.002541921102 1.580303431
v 0.04125402123 0.002487252001 1.580576777
v 0.04148337618 0.00270783226 1.580588579
v 0.04163760319 0.002998457523 1.580536127
v 0.04171857238 0.003349114209 1.580440044
v 0.04171451554 0.002990138717 1.580387712
v 0.04177212343 0.002983911429 1.580276728
v 0.04179950058 0.003338580253 1.580306768
v 0.04186011478 0.003330688924 1.58020699
v 0.04183126241 0.003738021711 1.580184102
v 0.04160958901 0.004256836139 1.580233812
v 0.04191035405 0.003732836572 1.5800668
v 0.04172567278 0.003744939342 1.580340624
v 0.0423531495 0.003279990982 1.579636335
v 0.04215261713 0.00395238772 1.579721212
v 0.04158311337 0.004441524856 1.580170274
v 0.04162554443 0.004838333465 1.57992506
v 0.04171051085 0.004935516044 1.579669476
v 0.04159491882 0.004947613925 1.57924366
v 0.04227514192 0.00408095913 1.579459786
v 0.04230327532 0.004219658673 1.57901597
v 0.04254121333 0.003576793941 1.579245687
v 0.04279315844 0.003118173685 1.578786016
v 0.04248768836 0.003472705139 1.579394221
v 0.04255399853 0.003770662239 1.578899503
v 0.0424223654 0.003923926968 1.578638315
v 0.04272518307 0.00339891063 1.578612804
v 0.04254977778 0.003688423894 1.578489065
v 0.04230481386 0.003876114497 1.578460932
v 0.04189814627 0.00399931334 1.578541517
v 0.0416422151 0.003617953509 1.578033209
v 0.04141287506 0.004146324005 1.5786376
v 0.04214971513 0.004247799516 1.578676939
v 0.04159462824 0.004628648516 1.578734756
v 0.0414044112 0.004832045175 1.578796983
v 0.04103144631 0.004164554179 1.578780413
v 0.04274475947 0.002880875021 1.578959584
v 0.04269609228 0.002456892515 1.578538895
v 0.04265353084 0.002651371062 1.579149723
v 0.04258594662 0.002179196104 1.578807235
v 0.04252468422 0.00250403583 1.579307914
v 0.0422321111 0.003022505669 1.57978785
v 0.04212441668 0.002840119647 1.579895616
v 0.04195011035 0.002569945762 1.579973459
v 0.04163610563 0.002735264366 1.580313444
v 0.04178454354 0.002412077272 1.580012679
v 0.04162212461 0.002334984019 1.580032229
v 0.04246835038 0.001780678285 1.578453302
v 0.04256739467 0.002015624661 1.57815516
v 0.0427053161 0.002747610677 1.578299761
v 0.0385238342 -0.003106161021 1.576772332
v 0.03708039969 -0.001641127281 1.578256607
v 0.03684183583 -0.002206402831 1.578817487
v 0.03719848767 -0.001546002924 1.578494072
v 0.03750698268 -0.0009261230007 1.578073502
v 0.03698775917 -0.002058197744 1.579010606
v 0.03685382754 -0.002442893106 1.579603791
v 0.03794181347 -0.0002115149982 1.577804565
v 0.03765287995 -0.0009108302183 1.578328013
v 0.03806846961 -0.0002710334957 1.578077555
v 0.03825873509 -0.0003870734945 1.578284979
v 0.03849496692 0.0005065421574 1.577737212
v 0.03904717043 0.001306778984 1.577593923
v 0.03943977877 0.002048397902 1.577916622
v 0.03954030201 0.002110538306 1.577612996
v 0.03900466487 -0.002375210635 1.577978611
v 0.03765672073 -0.004786927253 1.580981612
v 0.0373499915 -0.002104091924 1.581309199
v 0.03765887767 -0.002034537494 1.581235766
v 0.03755772859 -0.002207023092 1.580900669
v 0.03796191886 -0.002082813065 1.581217647
v 0.03783798963 -0.002259277273 1.580914378
v 0.03821090236 -0.002231766935 1.581283569
v 0.03807660937 -0.002409141511 1.580952883
v 0.03836814687 -0.002447084524 1.581423759
v 0.03834122792 -0.00205841288 1.581534743
v 0.03850022331 -0.00225181831 1.581687331
v 0.03861995786 -0.002475756221 1.581877351
v 0.03863418102 -0.002066175453 1.581875205
v 0.03847579658 -0.00270451 1.581605077
v 0.03835373372 -0.002947621979 1.581143141
v 0.03855904564 -0.00300507294 1.581817269
v 0.03857327625 -0.00333006354 1.582104564
v 0.03844169155 -0.003284395672 1.581300855
v 0.0384474583 -0.003685743548 1.581507921
v 0.03834073618 -0.003477789927 1.580616832
v 0.03824780881 -0.003114440013 1.580549598
v 0.03813125566 -0.002797775436 1.580496669
v 0.03823501244 -0.002648471855 1.581045151
v 0.03811154887 -0.002793493215 1.579891205
v 0.0379832536 -0.002528440207 1.580463409
v 0.03796460852 -0.002511470113 1.579897523
v 0.03776685148 -0.002345925663 1.5804317
v 0.03776645288 -0.002299841028 1.579891682
v 0.03785757348 -0.002094146796 1.579384565
v 0.03805212304 -0.002324409783 1.579351187
v 0.03850018978 -0.003482927568 1.582267284
v 0.03864129633 -0.00316083245 1.582795858
v 0.0387304835 -0.002738613635 1.583290339
v 0.03713589907 -0.003898887895 1.583079934
v 0.03999315202 -0.001358661801 1.582866669
v 0.03958372027 -0.001327437814 1.583505869
v 0.04003617913 -0.00107718166 1.583101988
v 0.03995463625 -0.0008112997748 1.5833354
v 0.04054114968 -0.00071767997 1.582566261
v 0.04094557464 -0.0003377590328 1.581908107
v 0.0405122675 -0.0004227608442 1.582740664
v 0.04060583934 -0.0009774756618 1.582429647
v 0.04104738683 -0.0006125355139 1.581853867
v 0.040910732 -0.001157085877 1.582497716
v 0.04131330922 -0.0008389744908 1.581932306
v 0.04038153216 -0.001556056552 1.582782507
v 0.04117937014 -0.001484109554 1.582373738
v 0.04148222506 -0.001208602451 1.58186686
v 0.04129479453 -0.0019253348 1.582062006
v 0.04069669172 -0.001762330998 1.582758188
v 0.04099318758 -0.002147657331 1.582376361
v 0.04031679407 -0.002203562763 1.582822204
v 0.04068840668 -0.002443147823 1.582522988
v 0.04011967778 -0.002621287014 1.582737923
v 0.03999174386 -0.002005726565 1.582840204
v 0.04042480513 -0.002751294523 1.582499981
v 0.03997985274 -0.003022284713 1.582531214
v 0.04027929157 -0.00309400307 1.582285762
v 0.03991434351 -0.003432374448 1.582164526
v 0.04019971937 -0.003407229669 1.581935883
v 0.03985460848 -0.003759952262 1.581642389
v 0.03934213147 -0.003168302588 1.582313418
v 0.03925236315 -0.003648790997 1.581733108
v 0.03908691928 -0.002938308753 1.582194924
v 0.03896284848 -0.003422372043 1.581669569
v 0.03893973678 -0.002704988699 1.58195436
v 0.03879957646 -0.003113523126 1.581521392
v 0.03909823298 -0.002355033066 1.58213079
v 0.03868917003 -0.002737045288 1.581297874
v 0.03875929862 -0.003396826331 1.580856562
v 0.03881265223 -0.00345522631 1.580258846
v 0.03864554316 -0.003077044617 1.580731392
v 0.0389716737 -0.003728327807 1.580967307
v 0.03902409598 -0.00374928955 1.580271125
v 0.0392902717 -0.003897777759 1.581023216
v 0.03984291479 -0.003921278752 1.581044436
v 0.03940595686 -0.003916588612 1.580324769
v 0.03994657472 -0.003885681741 1.580428839
v 0.03952497244 -0.003695524763 1.579742789
v 0.03961793706 -0.00333991088 1.579312801
v 0.04005553201 -0.00369713502 1.579893589
v 0.03914436325 -0.003527272958 1.579715729
v 0.0389098227 -0.003272060305 1.579760551
v 0.03926522657 -0.003174530342 1.579305768
v 0.03893333673 -0.002907638904 1.579427361
v 0.03936805576 -0.002743924037 1.578963637
v 0.03972912207 -0.002917404287 1.578941464
v 0.04026608169 -0.003047677223 1.57907033
v 0.03989672288 -0.002444700804 1.57867384
v 0.04040672258 -0.002593878191 1.578808188
v 0.04063880816 -0.00262717111 1.578942657
v 0.04055440053 -0.002093320712 1.578704715
v 0.04076118022 -0.002149640117 1.578843117
v 0.04079261795 -0.002158931457 1.578863025
v 0.04090507701 -0.001615916379 1.578847289
v 0.04093210399 -0.001630205661 1.578871965
v 0.04105171561 -0.0009849392809 1.578985095
v 0.04120623693 -0.001136595849 1.579166055
v 0.04113904759 -0.0002834112383 1.57940352
v 0.0412773639 -0.0004874346778 1.579572558
v 0.04113349319 0.0002656786237 1.580155134
v 0.04124582931 1.463340595e-05 1.580299497
v 0.04095770046 0.0004687341861 1.580013871
v 0.0410518758 0.0004965194967 1.581106782
v 0.0411507152 0.0001886030659 1.581176519
v 0.04088801518 0.0007550215814 1.581025839
v 0.04084706679 0.0002914301585 1.582041502
v 0.04092298076 -1.943903044e-05 1.582004189
v 0.04043261707 -9.739864618e-05 1.582836747
v 0.04119336978 -0.0001483480446 1.581201315
v 0.04133480415 -0.0002722190693 1.580429435
v 0.04133572429 -0.0004698890261 1.581227899
v 0.04151997343 -0.0005681924522 1.580532312
v 0.04158250615 -0.0007691341452 1.581296802
v 0.04170022532 -0.001196123194 1.581284046
v 0.04173099622 -0.0009570345283 1.580607295
v 0.04169581085 -0.001282946672 1.580014825
v 0.0417923592 -0.001362490002 1.58066988
v 0.04177077115 -0.001501901541 1.580228925
v 0.0417550765 -0.001811027527 1.580593348
v 0.04167616367 -0.002281934023 1.580484509
v 0.04167762026 -0.001737487502 1.581169605
v 0.04172424227 -0.001846739557 1.580071688
v 0.04164309055 -0.00168798957 1.579758644
v 0.0416589193 -0.002213042229 1.579977512
v 0.041640196 -0.00229094876 1.579965234
v 0.04157891124 -0.002077941317 1.579629421
v 0.04156223312 -0.002157363109 1.579617023
v 0.04146270454 -0.001931121107 1.579400301
v 0.04144209623 -0.002022831701 1.579381585
v 0.04153646156 -0.001472507603 1.57958734
v 0.04127566144 -0.001815414056 1.579183221
v 0.04125600681 -0.001914787106 1.579169154
v 0.04108681902 -0.001712028403 1.579013467
v 0.04135449231 -0.001300452277 1.579355001
v 0.04141052812 -0.0007095336914 1.57974577
v 0.04158780724 -0.0009857700206 1.579940319
v 0.04097256809 -0.002212114166 1.578977108
v 0.04113687947 -0.002070704009 1.579088211
v 0.04101775587 -0.002226620447 1.579007149
v 0.04091170058 -0.002679549158 1.579058766
v 0.04118379205 -0.00227993587 1.579117656
v 0.04136637226 -0.002359827049 1.57931304
v 0.04107941687 -0.002706570551 1.579146147
v 0.04126857221 -0.002742652316 1.579311609
v 0.04096099734 -0.003124460112 1.579289317
v 0.04079116881 -0.003105283715 1.579246044
v 0.04118113592 -0.003093998879 1.579443097
v 0.04087971896 -0.003485785332 1.579570651
v 0.04082492739 -0.003735062666 1.579999685
v 0.04110078141 -0.003400978167 1.579676867
v 0.04068613797 -0.003468930721 1.579544187
v 0.04061036557 -0.003717897926 1.579980969
v 0.04063346237 -0.003464342561 1.579536915
v 0.04074494541 -0.003100059927 1.579234242
v 0.04043319821 -0.003410296049 1.579530001
v 0.04055197909 -0.00371322548 1.579975843
v 0.04047895223 -0.003815919161 1.580493808
v 0.04033774137 -0.003638112918 1.579972506
v 0.04023821279 -0.003761392087 1.58047986
v 0.04030031711 -0.003624993376 1.57997191
v 0.04019616172 -0.003751865588 1.580477476
v 0.04039822519 -0.003400856163 1.579528809
v 0.04015187547 -0.003419434652 1.579443812
v 0.04050884396 -0.003051441163 1.57919693
v 0.04054395109 -0.003058670089 1.579202414
v 0.04067260399 -0.002633865923 1.578956366
v 0.04086605832 -0.002672194038 1.579034925
v 0.04011528194 -0.00378599856 1.581006289
v 0.04011434689 -0.003659015056 1.581515193
v 0.0404230915 -0.003758376464 1.580991507
v 0.04049539194 -0.003761004657 1.580991507
v 0.04041062295 -0.003562659025 1.581365943
v 0.04049568996 -0.003577947617 1.581357241
v 0.04044823349 -0.003338295966 1.581666946
v 0.0405466482 -0.003109909594 1.58191061
v 0.04050856084 -0.003362304065 1.581645489
v 0.04073023051 -0.003450514283 1.58156693
v 0.04061343148 -0.00315478025 1.581860185
v 0.04085882753 -0.003319633659 1.581675053
v 0.04077009484 -0.002903467044 1.582042694
v 0.04096760228 -0.002689808607 1.582045197
v 0.04069380462 -0.002842896152 1.582115889
v 0.04105046391 -0.003126035444 1.581773877
v 0.04118958488 -0.002918079961 1.581803441
v 0.04122596979 -0.003323213663 1.581423163
v 0.04101504013 -0.003511168994 1.581368566
v 0.04125564545 -0.003399063833 1.581037641
v 0.04139304534 -0.003110161982 1.581442833
v 0.04148577899 -0.002765138634 1.581567645
v 0.04143288359 -0.003144239075 1.581094265
v 0.04142474011 -0.003140929621 1.580700517
v 0.04157021642 -0.002777936868 1.581214547
v 0.04155402258 -0.002407954074 1.581363559
v 0.04156093299 -0.002795190085 1.580808878
v 0.04161677137 -0.002417032607 1.580945134
v 0.04157606885 -0.002725482918 1.580362558
v 0.04165475443 -0.002376821358 1.580458403
v 0.04144307971 -0.003078825772 1.580261469
v 0.04157139733 -0.002577211708 1.579919815
v 0.04146147519 -0.002911342774 1.579877734
v 0.041500967 -0.002449220046 1.579571605
v 0.04140082747 -0.002793900669 1.579578519
v 0.04131045938 -0.003044374287 1.579591155
v 0.04130102694 -0.003206717782 1.579806805
v 0.04127510637 -0.003360664472 1.580164313
v 0.04107625037 -0.003602374345 1.580072045
v 0.04125417769 -0.003435511608 1.58061862
v 0.04103908315 -0.003678279929 1.580560565
v 0.04077252373 -0.003830268048 1.580519915
v 0.04104518518 -0.003622113261 1.580997109
v 0.04076108709 -0.003770663403 1.580991626
v 0.04080828652 -0.003634120803 1.581325293
v 0.04054175317 -0.003818985075 1.580499291
v 0.04163197055 -0.002314126119 1.580982208
v 0.04154961556 -0.002307265066 1.58140409
v 0.04138277844 -0.002353032585 1.581759572
v 0.04152553156 -0.001790273469 1.581640005
v 0.04114341363 -0.002446572762 1.581994891
v 0.04140481353 -0.00244119158 1.581718564
v 0.04117916152 -0.002505891956 1.581950545
v 0.04131050408 -0.002723846119 1.581787467
v 0.0409071967 -0.002627687063 1.582111001
v 0.03864907101 -0.002596157603 1.579682946
v 0.0386679247 -0.002948107198 1.580013275
v 0.03850633278 -0.002204727847 1.58014667
v 0.03854642063 -0.002636413556 1.580446362
v 0.03869501874 -0.003196243197 1.580287337
v 0.03976911306 -0.0007288120687 1.578789115
v 0.03948028386 -0.001170901116 1.578768015
f 6 7 2 1
f 2 105 3 1
f 3 608 4 1
f 4 5 1
f 5 6 1
f 12 8 6 5
f 8 10 7 6
f 17 13 8 9
f 8 12 621 9
f 10 8 11 123
f 11 8 13
f 16 182 14 13
f 13 14 134 15
f 13 17 19 16
f 621 18 17 9
f 17 18 21 19
f 16 19 20 180
f 20 19 21 22
f 21 23 26 22
f 23 21 18 24
f 25 23 24 622
f 27 26 23 25
f 30 28 26 27
f 26 28 29 22
f 29 28 31 32
f 33 31 28 30
f 31 34 35 32
f 34 31 33 37
f 35 34 36 176
f 34 37 38 36
f 39 41 38 37
f 33 42 39 37
f 44 40 39 42
f 41 39 40 783
f 33 30 43 42
f 43 45 44 42
f 49 40 44 46
f 47 46 44 45
f 46 47 639 48
f 49 46 48 51
f 40 49 50 783
f 50 49 51 53
f 51 52 55 53
f 48 642 52 51
f 53 55 57 54
f 782 50 53 54
f 56 55 52 645
f 58 57 55 56
f 60 59 57 58
f 54 57 59 62
f 656 61 59 60
f 62 59 61 64
f 63 782 54 62
f 65 63 62 64
f 64 61 68 66
f 67 65 64 66
f 70 67 66 69
f 66 68 72 69
f 171 70 69 71
f 69 72 74 71
f 73 72 68 659
f 75 74 72 73
f 79 76 74 75
f 71 74 76 78
f 78 76 77 169
f 81 77 76 79
f 80 83 81 79
f 662 80 79 75
f 82 184 77 81
f 83 85 82 81
f 84 83 80 591
f 86 85 83 84
f 85 86 88 87
f 85 87 89 82
f 88 93 90 87
f 90 91 89 87
f 188 91 90 92
f 94 92 90 93
f 88 98 95 93
f 95 97 94 93
f 95 96 213 97
f 96 95 98 100
f 102 100 98 99
f 98 88 86 99
f 101 586 96 100
f 102 104 101 100
f 102 103 105 104
f 589 103 102 99
f 104 105 2 106
f 108 101 104 106
f 2 7 107 106
f 108 106 107 110
f 101 108 109 586
f 112 109 108 110
f 110 107 122 111
f 114 112 110 111
f 109 112 113 585
f 114 115 113 112
f 114 111 119 116
f 117 115 114 116
f 117 116 118 565
f 119 120 118 116
f 120 119 121 124
f 122 121 119 111
f 10 123 121 122
f 125 124 121 123
f 126 127 120 124
f 125 129 126 124
f 126 128 138 127
f 128 126 129 130
f 129 125 133 131
f 129 131 132 130
f 11 133 125 123
f 132 15 134 130
f 128 130 134 135
f 134 14 136 135
f 137 138 128 135
f 137 135 136 139
f 138 137 140 141
f 143 140 137 139
f 140 142 563 141
f 140 143 144 142
f 147 144 143 145
f 143 139 146 145
f 146 151 148 145
f 147 145 148 149
f 148 150 286 149
f 150 148 151 153
f 151 146 183 152
f 154 153 151 152
f 154 156 155 153
f 155 157 150 153
f 158 155 156 161
f 155 158 159 157
f 189 159 158 160
f 158 161 162 160
f 163 165 162 161
f 156 164 163 161
f 167 166 163 164
f 165 163 166 169
f 168 166 167 170
f 166 168 78 169
f 165 169 77 184
f 172 171 168 170
f 168 171 71 78
f 174 70 171 172
f 173 175 174 172
f 177 173 172 170
f 175 35 176 174
f 176 67 70 174
f 36 65 67 176
f 35 175 29 32
f 29 175 173 22
f 173 177 20 22
f 180 20 177 178
f 177 170 167 178
f 179 178 167 164
f 179 181 180 178
f 16 180 181 182
f 181 179 154 152
f 181 152 183 182
f 183 136 14 182
f 136 183 146 139
f 156 154 179 164
f 162 165 184 185
f 89 185 184 82
f 162 185 186 160
f 186 185 89 91
f 189 160 186 187
f 188 187 186 91
f 187 188 192 190
f 191 189 187 190
f 191 190 193 195
f 193 190 192 194
f 199 196 193 194
f 193 196 198 195
f 292 198 196 197
f 196 199 200 197
f 203 200 199 201
f 199 194 202 201
f 201 202 207 204
f 205 203 201 204
f 308 205 204 206
f 204 207 209 206
f 207 202 587 208
f 209 207 208 211
f 210 209 211 212
f 206 209 210 554
f 213 212 211 97
f 211 208 94 97
f 213 215 214 212
f 214 217 210 212
f 216 214 215 585
f 214 216 219 217
f 554 210 217 218
f 217 219 221 218
f 219 220 223 221
f 220 219 216 584
f 314 218 221 222
f 221 223 225 222
f 572 224 223 220
f 224 227 225 223
f 222 225 226 316
f 227 229 226 225
f 224 573 228 227
f 229 227 228 231
f 229 230 319 226
f 229 231 232 230
f 228 234 233 231
f 233 236 232 231
f 235 233 234 577
f 233 235 238 236
f 238 240 237 236
f 237 553 232 236
f 238 239 241 240
f 239 238 235 583
f 240 241 244 242
f 245 237 240 242
f 243 247 245 242
f 243 242 244 257
f 246 553 237 245
f 247 248 246 245
f 247 243 252 249
f 250 248 247 249
f 250 249 251 348
f 252 253 251 249
f 254 252 243 257
f 252 254 255 253
f 360 255 254 256
f 254 257 258 256
f 244 260 258 257
f 260 261 259 258
f 258 259 363 256
f 261 260 262 264
f 241 262 260 244
f 266 264 262 263
f 262 241 239 263
f 265 548 261 264
f 266 268 265 264
f 582 267 266 263
f 268 266 267 270
f 546 265 268 269
f 268 270 271 269
f 272 273 271 270
f 267 274 272 270
f 273 272 275 278
f 276 275 272 274
f 275 276 557 277
f 280 278 275 277
f 279 544 273 278
f 280 282 279 278
f 555 281 280 277
f 282 280 281 284
f 293 279 282 283
f 282 284 285 283
f 286 287 285 284
f 281 149 286 284
f 287 286 150 157
f 289 285 287 288
f 159 288 287 157
f 191 195 289 288
f 159 189 191 288
f 285 289 290 283
f 198 290 289 195
f 293 283 290 291
f 290 198 292 291
f 294 291 292 297
f 294 295 293 291
f 295 294 296 540
f 298 296 294 297
f 298 297 299 300
f 292 197 299 297
f 302 300 299 301
f 200 301 299 197
f 200 203 303 301
f 303 304 302 301
f 303 203 205 305
f 303 305 306 304
f 307 309 306 305
f 205 308 307 305
f 307 308 312 310
f 307 310 311 309
f 313 315 311 310
f 312 314 313 310
f 313 314 222 316
f 313 316 317 315
f 226 319 317 316
f 320 318 317 319
f 317 318 329 315
f 321 320 319 230
f 325 318 320 322
f 322 320 321 324
f 345 323 322 324
f 323 326 325 322
f 326 328 327 325
f 327 329 318 325
f 328 333 330 327
f 330 331 329 327
f 332 538 331 330
f 333 334 332 330
f 334 333 335 336
f 335 333 328 338
f 335 337 437 336
f 335 338 339 337
f 340 341 339 338
f 328 326 340 338
f 340 326 323 342
f 340 342 343 341
f 344 346 343 342
f 342 323 345 344
f 345 248 250 344
f 250 348 346 344
f 346 347 458 343
f 349 347 346 348
f 251 351 349 348
f 461 347 349 350
f 350 349 351 352
f 351 353 354 352
f 353 351 251 253
f 356 354 353 355
f 255 355 353 253
f 357 358 356 355
f 255 360 357 355
f 357 359 376 358
f 357 360 361 359
f 360 256 363 361
f 361 362 374 359
f 363 364 362 361
f 259 365 364 363
f 366 364 365 367
f 364 366 369 362
f 549 368 366 367
f 370 369 366 368
f 369 370 372 371
f 374 362 369 371
f 372 390 373 371
f 374 371 373 375
f 374 375 376 359
f 373 380 377 375
f 377 378 376 375
f 378 377 379 479
f 379 377 380 382
f 383 382 380 381
f 380 373 390 381
f 384 383 381
f 387 385 384 381
f 385 387 388 386
f 387 389 392 388
f 390 389 387 381
f 389 390 372 391
f 392 389 391 393
f 395 394 392 393
f 396 388 392 394
f 395 400 397 394
f 397 398 396 394
f 397 399 518 398
f 400 401 399 397
f 400 402 404 401
f 395 403 402 400
f 403 408 405 402
f 404 402 405 406
f 434 406 405 407
f 410 407 405 408
f 403 552 409 408
f 409 412 410 408
f 410 411 423 407
f 414 411 410 412
f 409 550 413 412
f 413 415 414 412
f 411 414 416 419
f 417 416 414 415
f 416 417 539 418
f 420 419 416 418
f 421 423 411 419
f 420 424 421 419
f 433 423 421 422
f 421 424 425 422
f 420 298 300 424
f 300 302 425 424
f 426 425 302 304
f 422 425 426 428
f 306 427 426 304
f 428 426 427 429
f 432 430 428 429
f 430 433 422 428
f 434 433 430 431
f 430 432 435 431
f 423 433 434 407
f 434 431 438 406
f 334 432 429 332
f 435 432 334 336
f 435 436 438 431
f 435 336 437 436
f 437 440 439 436
f 439 442 438 436
f 441 439 440 451
f 443 442 439 441
f 401 404 442 443
f 438 442 404 406
f 443 444 399 401
f 446 444 443 441
f 444 445 518 399
f 445 444 446 447
f 446 448 449 447
f 448 446 441 451
f 449 448 450 537
f 450 448 451 452
f 451 440 454 452
f 536 450 452 453
f 452 454 455 453
f 339 455 454 337
f 454 440 437 337
f 453 455 456 457
f 456 455 339 341
f 457 456 458 459
f 343 458 456 341
f 459 458 347 461
f 462 460 459 461
f 460 535 457 459
f 463 462 461 350
f 464 462 463 467
f 462 464 465 460
f 464 466 528 465
f 464 467 468 466
f 469 471 468 467
f 463 470 469 467
f 469 470 474 472
f 469 472 473 471
f 475 477 473 472
f 474 476 475 472
f 480 478 475 476
f 475 478 481 477
f 482 481 478 479
f 478 480 378 479
f 483 481 482 484
f 485 477 481 483
f 486 483 484 489
f 488 485 483 486
f 489 490 487 486
f 488 486 487 532
f 490 491 493 487
f 492 495 493 491
f 495 496 494 493
f 487 493 494 532
f 496 495 497 499
f 492 500 497 495
f 500 498 497
f 497 498 503 499
f 502 511 501 499
f 501 529 496 499
f 503 504 502 499
f 502 504 505 507
f 507 505 506 508
f 509 511 502 507
f 508 512 509 507
f 509 512 514 510
f 524 511 509 510
f 513 515 514 512
f 520 513 512 508
f 449 514 515 447
f 449 537 510 514
f 445 447 515 516
f 516 515 513
f 445 516 517 518
f 517 516 513 520
f 518 517 519 398
f 521 519 517 520
f 506 522 521 520 508
f 522 523 519 521
f 386 523 522
f 523 396 398 519
f 386 388 396 523
f 526 501 511 524
f 525 524 510 537
f 525 527 526 524
f 465 528 526 527
f 528 529 501 526
f 466 530 529 528
f 496 529 530 494
f 468 531 530 466
f 532 494 530 531
f 533 488 532 531
f 471 533 531 468
f 533 471 473 534
f 485 488 533 534
f 473 477 485 534
f 525 536 535 527
f 535 460 465 527
f 535 536 453 457
f 450 536 525 537
f 376 378 480 358
f 480 476 356 358
f 354 356 476 474
f 470 352 354 474
f 470 463 350 352
f 429 427 538 332
f 538 427 306 309
f 311 331 538 309
f 296 298 420 418
f 296 418 539 540
f 539 541 543 540
f 541 539 417 542
f 546 269 541 542
f 271 543 541 269
f 543 271 273 544
f 295 540 543 544
f 279 293 295 544
f 545 542 417 415
f 545 547 546 542
f 265 546 547 548
f 547 545 549 367
f 547 367 365 548
f 365 259 261 548
f 413 549 545 415
f 549 413 550 368
f 550 551 370 368
f 550 409 552 551
f 391 372 370 551
f 552 393 391 551
f 552 403 395 393
f 248 345 324 246
f 329 331 311 315
f 324 321 553 246
f 232 553 321 230
f 314 312 554 218
f 312 308 206 554
f 281 555 147 149
f 555 277 557 556
f 144 147 555 556
f 144 556 558 142
f 557 559 558 556
f 560 558 559 561
f 558 560 563 142
f 576 562 560 561
f 564 563 560 562
f 563 564 566 141
f 567 565 564 562
f 118 566 564 565
f 566 118 120 127
f 138 141 566 127
f 567 569 117 565
f 576 568 567 562
f 569 567 568 571
f 569 571 572 570
f 115 117 569 570
f 573 224 572 571
f 568 574 573 571
f 234 228 573 574
f 568 576 575 574
f 575 577 234 574
f 578 575 576 561
f 575 578 579 577
f 581 579 578 580
f 578 561 559 580
f 559 557 276 580
f 581 580 276 274
f 267 582 581 274
f 579 581 582 583
f 582 263 239 583
f 579 583 235 577
f 572 220 584 570
f 115 570 584 113
f 113 584 216 585
f 109 585 215 586
f 215 213 96 586
f 587 92 94 208
f 192 587 202 194
f 587 192 188 92
f 10 122 107 7
f 3 105 103 588
f 103 589 590 588
f 589 99 86 84
f 590 589 84 591
f 590 592 595 588
f 592 590 591 594
f 596 595 592 593
f 592 594 661 593
f 599 588 595 597
f 595 596 598 597
f 600 597 598 601
f 599 597 600 603
f 771 602 600 601
f 604 603 600 602
f 608 599 603 605
f 606 605 603 604
f 609 607 605 606
f 4 608 605 607
f 599 608 3 588
f 610 607 609 611
f 5 4 607 610
f 5 610 612 615
f 613 612 610 611
f 723 614 612 613
f 612 614 616 615
f 615 616 618 617
f 12 5 615 617
f 619 617 618 620
f 621 12 617 619
f 622 24 619 620
f 18 621 619 24
f 623 620 618 626
f 623 625 622 620
f 627 624 623 626
f 625 623 624 781
f 626 618 616 628
f 627 626 628 630
f 614 629 628 616
f 628 629 631 630
f 632 630 631 634
f 627 630 632 635
f 632 633 637 635
f 717 633 632 634
f 636 624 627 635
f 636 635 637 638
f 637 639 47 638
f 639 637 633 640
f 639 640 642 48
f 633 717 641 640
f 641 643 642 640
f 645 52 642 643
f 641 718 644 643
f 644 646 645 643
f 646 648 56 645
f 720 647 646 644
f 648 646 647 649
f 651 650 648 649 687
f 648 650 58 56
f 653 652 650 651
f 650 652 60 58
f 655 654 652 653
f 652 654 656 60
f 658 657 654 655
f 654 657 659 656
f 661 660 657 658
f 657 660 73 659
f 662 660 661 594
f 660 662 75 73
f 591 80 662 594
f 663 593 661 658
f 659 68 61 656
f 664 663 658 655
f 665 663 664 666
f 663 665 596 593
f 669 667 665 666
f 598 596 665 667
f 668 601 598 667
f 669 671 668 667
f 670 669 666 690
f 671 669 670 672
f 676 673 671 672
f 675 668 671 673
f 674 768 675 673
f 676 678 674 673
f 670 677 676 672
f 678 676 677 680
f 674 678 679 751
f 678 680 681 679
f 682 683 681 680
f 677 684 682 680
f 683 682 685 686
f 688 685 682 684
f 686 685 687 692
f 685 688 651 687
f 690 689 688 684
f 688 689 653 651
f 666 664 689 690
f 689 664 655 653
f 677 670 690 684
f 649 647 691 687
f 692 687 691 693
f 686 692 693 695
f 695 693 694 697
f 693 691 721 694
f 696 683 686 695
f 698 696 695 697
f 701 698 697 699
f 697 694 700 699
f 699 700 705 702
f 704 701 699 702
f 705 706 703 702
f 704 702 703 760
f 707 710 706 705
f 700 708 707 705
f 707 708 719 709
f 710 707 709 712
f 711 710 712 713
f 706 710 711 767
f 715 713 712 714
f 714 712 709 716
f 631 715 714 634
f 717 634 714 716
f 641 717 716 718
f 716 709 719 718
f 719 720 644 718
f 708 721 720 719
f 721 691 647 720
f 694 721 708 700
f 711 713 715 722 724
f 629 722 715 631
f 726 724 722 723
f 722 629 614 723
f 725 767 711 724
f 726 727 725 724
f 727 726 728 730
f 728 726 723 613
f 729 728 613 611
f 728 729 732 730
f 730 732 733 731
f 766 727 730 731
f 734 732 729 736
f 737 733 732 734
f 738 737 734 735
f 776 735 734 736
f 737 738 742 739
f 740 733 737 739
f 764 740 739 741
f 739 742 744 741
f 742 743 746 744
f 743 742 738 775
f 741 744 745 761
f 746 748 745 744
f 748 746 747 749
f 743 773 747 746
f 750 748 749 751
f 752 745 748 750
f 751 679 753 750
f 753 754 752 750
f 755 756 754 753
f 679 681 755 753
f 696 755 681 683
f 698 756 755 696
f 758 754 756 757
f 756 698 701 757
f 701 704 758 757
f 759 758 704 760
f 752 754 758 759
f 762 761 759 760
f 745 752 759 761
f 762 764 741 761
f 762 760 703 763
f 765 764 762 763
f 765 766 740 764
f 766 765 725 727
f 765 763 767 725
f 733 740 766 731
f 703 706 767 763
f 674 751 749 768
f 749 747 769 768
f 769 771 675 768
f 773 770 769 747
f 771 769 770 602
f 668 675 771 601
f 770 772 604 602
f 772 770 773 774
f 774 773 743 775
f 735 776 772 774
f 738 735 774 775
f 772 776 606 604
f 776 736 609 606
f 729 611 609 736
f 777 638 47 45
f 777 778 636 638
f 780 778 777 779
f 43 779 777 45
f 779 43 30 27
f 780 779 27 25
f 778 780 625 781
f 625 780 25 622
f 624 636 778 781
f 38 63 65 36
f 41 782 63 38
f 50 782 41 783
