# Original Z-Anatomy world coordinates in meters; no atlas registration
o Vestibule.l
v 0.04075638577 0.006394108292 1.583738208
v 0.04123432934 0.006417345721 1.584071398
v 0.04111496359 0.006186644081 1.584154487
v 0.04090004042 0.006567569915 1.583250046
v 0.04128725827 0.006718279328 1.583618045
v 0.03939307481 0.007682565134 1.581738234
v 0.03907766566 0.007828947157 1.581946969
v 0.03947941214 0.008461280726 1.581988692
v 0.03974984214 0.008277921937 1.581791401
v 0.03991885111 0.008253433742 1.581483126
v 0.03950502351 0.007595613599 1.581563711
v 0.03865371644 0.007939802483 1.581970096
v 0.03876382113 0.007307779975 1.581951141
v 0.03817910329 0.007470009383 1.582120776
v 0.03827345744 0.0076378542 1.581921935
v 0.03897425532 0.008748151362 1.581944108
v 0.03918286413 0.008655225858 1.582017541
v 0.04019470885 0.009005557746 1.581861019
v 0.04034266993 0.0089598177 1.581632376
v 0.04155217856 0.006598611828 1.582954049
v 0.04115096107 0.006578135304 1.582959175
v 0.04191067815 0.007037261501 1.583351731
v 0.0418010056 0.006982821506 1.58382833
v 0.04190225527 0.006312386133 1.582764626
v 0.04218886793 0.006838180125 1.58302176
v 0.04304021969 0.005079221912 1.583787799
v 0.04245637357 0.004428133834 1.584198713
v 0.04252107069 0.004812362138 1.584540486
v 0.04313386232 0.005272214301 1.584231734
v 0.04320961237 0.005424923263 1.583458185
v 0.04272900894 0.004998299759 1.583340168
v 0.04264365509 0.004712311085 1.583573937
v 0.04166676477 0.006515022833 1.584321976
v 0.04155198112 0.006107222755 1.584443569
v 0.04212465882 0.006490792148 1.584599376
v 0.04187938944 0.006042064633 1.584650517
v 0.04245530069 0.006340326741 1.584758878
v 0.04220658168 0.00589051703 1.584767699
v 0.04274182767 0.006995789241 1.584570885
v 0.04300025105 0.006781313568 1.584728837
v 0.04250108451 0.007136825006 1.584351659
v 0.04318785667 0.007654119283 1.584323764
v 0.04338682815 0.007525393739 1.584496737
v 0.0424441658 0.007344908547 1.583951473
v 0.04298734292 0.007751182187 1.583984256
v 0.04250739142 0.007375169545 1.583522439
v 0.04295453057 0.007733178791 1.583598018
v 0.04276043549 0.007192797959 1.583199978
v 0.04319023713 0.007565103471 1.583316088
v 0.04281419516 0.006215572823 1.583002329
v 0.04334982112 0.006623898167 1.583156466
v 0.04250435531 0.005727236625 1.582925558
v 0.043825984 0.006040961947 1.583565354
v 0.04437340796 0.00679353904 1.583719969
v 0.04380427301 0.007170971017 1.58331883
v 0.04385292903 0.005871115718 1.583835602
v 0.04447545856 0.006715395488 1.583941698
v 0.04382160679 0.005886661354 1.584269404
v 0.04446803033 0.006717788521 1.584305048
v 0.0429780148 0.005702666007 1.584640145
v 0.04353224486 0.006171325687 1.584670305
v 0.04251266643 0.00528703304 1.5846349
v 0.04240936786 0.005689833313 1.58478117
v 0.04270403832 0.006113669369 1.584804296
v 0.04323460907 0.006532791536 1.584787726
v 0.04386116192 0.007188075688 1.584669113
v 0.04417998716 0.006935757585 1.584619045
v 0.04362251237 0.007367140613 1.584612131
v 0.04402171075 0.008134433068 1.58436954
v 0.04425970465 0.008055808954 1.584413648
v 0.0437778458 0.008206808008 1.584282517
v 0.04390652478 0.00890456792 1.583904266
v 0.04413397983 0.008920821361 1.583957791
v 0.04355841503 0.008250384592 1.584151506
v 0.0436979793 0.008862636052 1.583815813
v 0.04331313446 0.008248288184 1.583872914
v 0.04344587401 0.008754732087 1.583615541
v 0.04324393347 0.008160346188 1.583542347
v 0.04333855584 0.008609648794 1.583347082
v 0.04347482696 0.008013030514 1.583313346
v 0.04353286698 0.008502584882 1.583129048
v 0.0440884307 0.007829230279 1.583318114
v 0.04412503168 0.008513107896 1.583077788
v 0.04468199611 0.007713295985 1.583628774
v 0.04472253472 0.008635970764 1.583273649
v 0.04482651502 0.007712027524 1.583804607
v 0.04488299787 0.008704631589 1.58340466
v 0.04486873001 0.00776951015 1.584116101
v 0.04496709257 0.008825111203 1.58366704
v 0.04458018765 0.007931128144 1.584376693
v 0.04468853399 0.008924217895 1.583923936
v 0.04436362907 0.008934717625 1.583975196
v 0.04412053153 0.009699760936 1.583477616
v 0.04438814148 0.009809905663 1.583375931
v 0.04392871633 0.009614127688 1.583489537
v 0.04340861738 0.01018235926 1.583056569
v 0.04353741929 0.01030307915 1.5830338
v 0.04373174161 0.009523264132 1.583465576
v 0.04328001291 0.0100555392 1.583048344
v 0.04355585203 0.009417794645 1.583415627
v 0.04315971583 0.009920227341 1.583018184
v 0.04333598912 0.009242446162 1.583284259
v 0.04300881177 0.009708295576 1.582931042
v 0.04322846606 0.009057457559 1.583082914
v 0.04292763025 0.009500040673 1.582782984
v 0.04339073598 0.008975707926 1.582864046
v 0.04303461686 0.009432908148 1.582573056
v 0.04389614984 0.009127944708 1.582739592
v 0.04338852316 0.009664977901 1.582397938
v 0.04439190775 0.009450135753 1.58279407
v 0.04371696338 0.01005246304 1.582389951
v 0.04452340305 0.009593078867 1.582868814
v 0.04380449653 0.01020418853 1.582439899
v 0.04460471869 0.009786091745 1.583076596
v 0.04385641962 0.01039825659 1.582606912
v 0.04372218996 0.01043389831 1.582901478
v 0.04280794412 0.01079694554 1.58262217
v 0.0429574959 0.0109339729 1.582478642
v 0.04194762558 0.01112729497 1.582185626
v 0.04205605015 0.01131393574 1.582003951
v 0.0427210778 0.01065305714 1.582651734
v 0.04190400988 0.01094979607 1.582255363
v 0.0426424183 0.0105027128 1.582653165
v 0.04187266156 0.01076697931 1.58229208
v 0.0425790213 0.01034260262 1.582643509
v 0.04185958207 0.01057896763 1.582315087
v 0.04248951748 0.01010537893 1.582590818
v 0.04185441881 0.0103065772 1.582304835
v 0.0424390994 0.009881291538 1.582482696
v 0.04187563434 0.01006485708 1.582216501
v 0.0425205119 0.009821899235 1.58227694
v 0.04196394235 0.00999760814 1.582002521
v 0.04276980832 0.0100942729 1.582064152
v 0.04209413752 0.01033079717 1.581695795
v 0.04299241677 0.01051356271 1.582018256
v 0.04216726124 0.01084461063 1.581555605
v 0.04305027798 0.0106719546 1.582056999
v 0.04218944907 0.01103210356 1.581573009
v 0.04308116809 0.01087851543 1.582199216
v 0.04217806086 0.01127283927 1.581695914
v 0.04091596976 0.01129855495 1.581672907
v 0.0409861058 0.01119329128 1.581321597
v 0.04095155746 0.0111160567 1.581917286
v 0.04001904279 0.01057790313 1.581869841
v 0.03994576633 0.01065652072 1.581601024
v 0.04099600762 0.01092807669 1.582013607
v 0.04013309255 0.01044921111 1.58197248
v 0.04104096442 0.01072217338 1.58208704
v 0.0402549766 0.01030082721 1.582030535
v 0.04109074175 0.01051566284 1.582133651
v 0.04036222771 0.01012605429 1.582066417
v 0.04117565602 0.01022036746 1.58213973
v 0.04053305089 0.009865118191 1.582055569
v 0.04128624871 0.009963393211 1.582052231
v 0.04070516303 0.009639608674 1.581953287
v 0.04139239341 0.009878810495 1.581818223
v 0.04083804414 0.009537931532 1.581723094
v 0.04139592126 0.01019957941 1.581432819
v 0.04076962918 0.009768131189 1.581326842
v 0.04119943455 0.01072691474 1.581229687
v 0.04044918343 0.01018015947 1.581158042
v 0.04110754281 0.01092384849 1.581223011
v 0.04029851779 0.01032872219 1.581172228
v 0.04008448124 0.01053067017 1.581275105
v 0.03934942558 0.00987627171 1.581548691
v 0.0395302996 0.009808088653 1.581228733
v 0.03887916356 0.009217647836 1.581402898
v 0.03912126645 0.009230566211 1.581113815
v 0.03937160596 0.009808871895 1.581824541
v 0.03881791234 0.009068399668 1.58166945
v 0.03947150335 0.009705414064 1.581951737
v 0.03888688236 0.008924821392 1.581842542
v 0.03960661218 0.009582115337 1.582018256
v 0.03975194693 0.009450038895 1.582047701
v 0.03997667134 0.009241588414 1.582020164
v 0.03825841472 0.007876800373 1.581762075
v 0.03826732188 0.008338576183 1.581437826
v 0.03842142224 0.008602027781 1.581192017
v 0.03880877793 0.0087739015 1.580914855
v 0.03915432841 0.008672459982 1.580844402
v 0.03937922791 0.009124725126 1.581001639
v 0.03940726444 0.008512509987 1.58085227
v 0.03955450282 0.009020243771 1.580977082
v 0.03991379589 0.00863778498 1.581145287
v 0.04028147459 0.009194958955 1.581250787
v 0.03991855681 0.009545889683 1.581093431
v 0.03975944221 0.009662283584 1.581115127
v 0.03922203928 0.007167303469 1.581861973
v 0.04144614935 0.006087359507 1.585002661
v 0.04083635285 0.006098721176 1.584371805
v 0.04101014882 0.006063316017 1.585261703
v 0.04057003558 0.005986966193 1.584582806
v 0.04169411212 0.006114414893 1.585740924
v 0.04137375951 0.006103000138 1.585864425
v 0.04193649441 0.00599786127 1.585148573
v 0.0420290269 0.006046443246 1.585723758
v 0.03577011079 0.007651732303 1.585716367
v 0.03581891209 0.00803471636 1.585694432
v 0.03590364009 0.008009304293 1.585099936
v 0.03574468195 0.007553215604 1.585176706
v 0.0358549878 0.007423724979 1.584587336
v 0.03566373885 0.007356759626 1.584721208
v 0.03606347367 0.008031487465 1.584651947
v 0.03607130423 0.007531126961 1.584423423
v 0.04252398387 0.005313935224 1.585143209
v 0.04202868044 0.004148437176 1.584595203
v 0.04198560864 0.004390801303 1.585568547
v 0.03499698266 0.00821806211 1.584995985
v 0.03499072045 0.008213380352 1.585747838
v 0.0348069258 0.008125110529 1.585836053
v 0.03474920616 0.008060247637 1.585184097
v 0.03473043814 0.007949740626 1.584610343
v 0.03487178311 0.008099949919 1.584450722
v 0.03530599549 0.008312972263 1.585086703
v 0.03521120548 0.008261930197 1.585737348
v 0.03532398865 0.008357034996 1.584436178
v 0.0355669409 0.008380916901 1.58454299
v 0.03512168303 0.008280932903 1.584217548
v 0.03563324735 0.008566464297 1.583816528
v 0.03579074517 0.008488653228 1.58397758
v 0.0363166295 0.008694918826 1.583506703
v 0.03633951768 0.008555042557 1.583594561
v 0.03594960645 0.008425121196 1.584066629
v 0.03643654287 0.008417039178 1.583650708
v 0.03605753556 0.008364505135 1.584130526
v 0.03649996966 0.008265798911 1.583727837
v 0.03617078066 0.008263143711 1.584183812
v 0.0365078859 0.008113945834 1.583822608
v 0.03626782075 0.008113174699 1.584208012
v 0.03649031743 0.007973839529 1.583917618
v 0.03631490096 0.007702363655 1.584190369
v 0.03594784439 0.008226406761 1.58463645
v 0.03576191515 0.00822150521 1.585119486
v 0.03577234969 0.008342717774 1.584603548
v 0.03552535549 0.008313884959 1.585100055
v 0.03566866368 0.00821279455 1.585699439
v 0.03544465452 0.008268665522 1.58572042
v 0.03587609529 0.008072891273 1.586335897
v 0.03573442623 0.008209639229 1.586369991
v 0.03553828225 0.008256139234 1.586416483
v 0.03595307842 0.00820459798 1.587079406
v 0.03578653932 0.008251845837 1.587148905
v 0.03533791378 0.008255853318 1.586466789
v 0.03561104834 0.008259792812 1.587219357
v 0.03614873439 0.008264820091 1.587840199
v 0.03599360585 0.008279454894 1.587935805
v 0.03544301167 0.008231928572 1.587296128
v 0.0351415351 0.00821990706 1.586519003
v 0.03584065661 0.008255497552 1.588032961
v 0.03648958355 0.008319749497 1.588582873
v 0.03635929152 0.008301588707 1.58870995
v 0.03570077196 0.008186397143 1.588129401
v 0.03528572619 0.008159752935 1.587369442
v 0.03624509647 0.008224855177 1.588831067
v 0.03703670949 0.008341030218 1.589266419
v 0.03695231304 0.00825174991 1.589407563
v 0.0361606665 0.008093593642 1.588928938
v 0.03559020907 0.008066426963 1.588209152
v 0.03689531982 0.008104674518 1.58950901
v 0.03780179843 0.008213014342 1.58982408
v 0.03775862232 0.008047021925 1.589915991
v 0.03688849136 0.007737081032 1.589513183
v 0.03614246845 0.007740902714 1.588967562
v 0.03771760315 0.007666464429 1.589885235
v 0.03869008645 0.007860682905 1.590091467
v 0.03858410567 0.007479511667 1.590063453
v 0.03957723826 0.007570289075 1.590024471
v 0.03944536671 0.007201287895 1.590017438
v 0.03854876012 0.007319797762 1.589945436
v 0.0377253294 0.007504899986 1.589773417
v 0.03937924281 0.007055299822 1.589900732
v 0.04027353972 0.006874764338 1.589830875
v 0.04017752409 0.006737366784 1.589707255
v 0.0393175371 0.006952034775 1.589743257
v 0.03852567077 0.007201181725 1.589784741
v 0.04008379579 0.006650446914 1.589543819
v 0.04090216756 0.006406513043 1.589323044
v 0.04076452553 0.006345405243 1.589170098
v 0.03999312222 0.006614598911 1.589360476
v 0.03927389905 0.006892377976 1.589562416
v 0.0406351909 0.006326737348 1.588997483
v 0.04131409153 0.00603823876 1.588638067
v 0.04114084691 0.006040487438 1.588503838
v 0.04051119462 0.006359505001 1.58882165
v 0.03991706669 0.006636703853 1.589171052
v 0.04098251089 0.006090258248 1.588362455
v 0.04148579761 0.005791719537 1.587947607
v 0.04130417109 0.005854412913 1.587844729
v 0.04082161933 0.006370434538 1.588085532
v 0.04039912298 0.006615133025 1.58850956
v 0.04110495374 0.006155172363 1.58763063
v 0.04147649556 0.005632146727 1.58732903
v 0.04125303403 0.005956557579 1.587166309
v 0.04144671932 0.005381278694 1.586828232
v 0.04120354727 0.005753584206 1.586705327
v 0.04131565988 0.006150421686 1.587092757
v 0.04116939008 0.006355333608 1.587568164
v 0.04125028104 0.005963410717 1.586614251
v 0.04089278728 0.005533193238 1.58627665
v 0.040938925 0.005788872018 1.586153626
v 0.04164873436 0.006182831246 1.586452007
v 0.0417021364 0.006365585141 1.587043524
v 0.04050966725 0.005613232963 1.585638762
v 0.04189901054 0.006189517677 1.586405396
v 0.04193338752 0.006397705059 1.587053776
v 0.04215576872 0.00614116434 1.586366773
v 0.04216192663 0.006400618237 1.587080598
v 0.04239689559 0.006056997459 1.586359978
v 0.04237453267 0.006358818151 1.587133169
v 0.04230255634 0.005898886826 1.585674644
v 0.04224507883 0.00583887985 1.585173726
v 0.04252595827 0.005673222244 1.585684657
v 0.04258899018 0.005908685271 1.586394191
v 0.04245975986 0.005573097616 1.585172772
v 0.04262173176 0.005459858105 1.585762739
v 0.04268523678 0.005711551756 1.58647418
v 0.04260377958 0.005176872946 1.58582139
v 0.04266376421 0.005510397721 1.586574793
v 0.04221315309 0.004756097216 1.586124897
v 0.04235901684 0.005230869632 1.58676064
v 0.04164914787 0.004324987531 1.585720301
v 0.04194005579 0.004718438722 1.586253285
v 0.04151156172 0.004116510041 1.585150361
v 0.0417820923 0.003933869302 1.584465981
v 0.04142744839 0.00392492814 1.584616065
v 0.04111696035 0.004154746421 1.585232735
v 0.04129686579 0.004370198119 1.585821748
v 0.04105859995 0.004005154595 1.584710717
v 0.0406892933 0.004197828937 1.584727526
v 0.04075276852 0.004302533809 1.585253
v 0.04036207125 0.00449481234 1.584654689
v 0.04045274481 0.004546281416 1.585227966
v 0.03997634351 0.005050186068 1.584426284
v 0.04017015174 0.005194544792 1.585083485
v 0.03980964795 0.005468043033 1.584204078
v 0.04020407051 0.005509694573 1.584936142
v 0.03986697644 0.00596798677 1.583833575
v 0.04005805776 0.00628741784 1.583533883
v 0.0404603146 0.005291625392 1.585776567
v 0.040716324 0.004724741448 1.585884452
v 0.04114828259 0.005046840757 1.58638978
v 0.04165458307 0.005256793927 1.586853385
v 0.04138007388 0.004874204751 1.5863868
v 0.04166889191 0.005553036463 1.587400556
v 0.04188610241 0.005521060433 1.587446809
v 0.041891139 0.00518926885 1.586854219
v 0.04168467224 0.005778748542 1.588040709
v 0.0418924354 0.005810429808 1.588111639
v 0.04211498797 0.005535066128 1.587468028
v 0.04149253294 0.006079229061 1.588754058
v 0.0416608341 0.006173311733 1.588844538
v 0.04208694026 0.005893193185 1.588166475
v 0.04103948921 0.006518202834 1.589437366
v 0.04122858495 0.006878772285 1.589449763
v 0.04187199473 0.006527644116 1.588848114
v 0.04043016583 0.00724886544 1.58984971
v 0.03962482885 0.007740161382 1.589920282
v 0.04047250375 0.007424495649 1.589745045
v 0.03873843327 0.008032270707 1.589997888
v 0.03877636418 0.008167303167 1.589857221
v 0.03965887427 0.00788697321 1.589784622
v 0.03785657883 0.008321218193 1.589676261
v 0.03791676462 0.008342786692 1.589497566
v 0.03879585117 0.00821344927 1.589672089
v 0.03713680059 0.008358175866 1.589110494
v 0.03724053502 0.00831166096 1.588961959
v 0.03797595948 0.008273663931 1.58932817
v 0.03662217781 0.008289464749 1.588461637
v 0.03674549609 0.008215605281 1.588348985
v 0.03732981533 0.008216202259 1.588828683
v 0.03629656509 0.008209441788 1.587750912
v 0.03640888259 0.008091679774 1.58768177
v 0.03684008494 0.008091561496 1.588262081
v 0.03608077765 0.008083163761 1.587028265
v 0.03607551754 0.007730040699 1.587034106
v 0.03641291335 0.007754413411 1.587676167
v 0.03586501628 0.007691006642 1.586345196
v 0.0357388258 0.007546024397 1.586382031
v 0.03597076982 0.00758424215 1.587080598
v 0.03562776372 0.00750854006 1.585731268
v 0.03527928889 0.007349395659 1.585814595
v 0.03540243581 0.007380432915 1.586479187
v 0.03561670706 0.007445988711 1.585216761
v 0.03526518494 0.007321095094 1.585327625
v 0.03523759544 0.007271089591 1.584892392
v 0.03547150642 0.007311783731 1.584834218
v 0.03510291874 0.007274370641 1.584922671
v 0.03508108482 0.007305480074 1.585360885
v 0.03493131697 0.00731219491 1.584950566
v 0.0348976627 0.007334582508 1.585376859
v 0.03478005156 0.007403456606 1.584939718
v 0.03473189846 0.007418347057 1.585374832
v 0.03468749672 0.007541649975 1.584889412
v 0.03461616486 0.007561023813 1.585350156
v 0.03465964645 0.007779420353 1.584751368
v 0.03463335335 0.007911828347 1.585239172
v 0.03465159237 0.007967358455 1.585844874
v 0.03460718691 0.007587688975 1.585900068
v 0.03482833132 0.008006632328 1.586626887
v 0.03477378562 0.007633391302 1.586665034
v 0.03516004235 0.008034289815 1.587431908
v 0.0351126492 0.007678708993 1.587473989
v 0.03487539291 0.007475676946 1.586640239
v 0.03472265974 0.007433855906 1.585897923
v 0.03520579636 0.0075231581 1.587440372
v 0.03555370122 0.007723617367 1.588251472
v 0.0356423296 0.007576664444 1.588198662
v 0.03534635156 0.007428696379 1.587373257
v 0.03503542021 0.007384879515 1.586591125
v 0.03576980904 0.007481339388 1.588113308
v 0.03620602936 0.007588033564 1.58889389
v 0.03630373254 0.007485523354 1.588779569
v 0.03591426834 0.0074399882 1.588013649
v 0.0355091989 0.007396064699 1.587294579
v 0.03642331064 0.007439902052 1.588649035
v 0.03699148819 0.007454701699 1.589295268
v 0.03705810755 0.007382357027 1.589139104
v 0.03654643148 0.007445732597 1.588513851
v 0.03606276959 0.007450214587 1.587911367
v 0.0371492058 0.00738393236 1.588980079
v 0.03778111562 0.007297927514 1.589454532
v 0.03782723844 0.007277830504 1.589274764
v 0.037327189 0.007568648085 1.588725567
v 0.03677882999 0.007606179453 1.588293195
v 0.03794877604 0.007473011967 1.58900106
v 0.03853270411 0.007108941674 1.589405298
v 0.03860864043 0.00732107833 1.589108586
v 0.03923843801 0.006900817621 1.589369416
v 0.03925602511 0.007127978839 1.58905983
v 0.03865804523 0.007505708374 1.589070797
v 0.03800277039 0.007646623533 1.588959813
v 0.03930830956 0.007314752322 1.58901298
v 0.03986221179 0.006878277287 1.588854313
v 0.03991739079 0.007068510167 1.588804483
v 0.03945380449 0.007656720933 1.589147329
v 0.03873879835 0.007866678759 1.589205623
v 0.04012131691 0.007396048401 1.588922739
v 0.04045331106 0.006810736842 1.588450551
v 0.04069885612 0.00712093059 1.588560343
v 0.04088154808 0.006568858866 1.58802247
v 0.0411798805 0.006856636144 1.588101268
v 0.04084571823 0.007212645374 1.588684678
v 0.04024063796 0.007505401503 1.589052796
v 0.04135274142 0.006938160397 1.588199735
v 0.04152646288 0.006607830059 1.587596774
v 0.04173305631 0.006669240538 1.58765316
v 0.04152355716 0.006978753954 1.588324785
v 0.04099234939 0.007265368011 1.588835955
v 0.04193322733 0.006698776968 1.587735176
v 0.0421179682 0.006676439196 1.587844968
v 0.04168259725 0.006961022969 1.588470459
v 0.04226564988 0.006585359108 1.587965846
v 0.04180635139 0.006874523126 1.588625431
v 0.04254657775 0.006255505141 1.587208271
v 0.04263665527 0.006090112031 1.587302327
v 0.04234740883 0.006425526924 1.588077903
v 0.04262112826 0.005897268187 1.587386727
v 0.0423406437 0.006227368489 1.588156223
v 0.04232867062 0.005599694327 1.587471962
v 0.04213296995 0.005181714427 1.586826801
v 0.04165288061 0.004761530086 1.586341619
v 0.04096939787 0.004511645064 1.585871339
v 0.04187365994 0.006721416954 1.588758349
v 0.04125219211 0.007058922667 1.589344025
v 0.04121792689 0.007196804974 1.589188576
v 0.04048638418 0.007561374456 1.589589834
v 0.04044317082 0.007612382527 1.589396596
v 0.04112132639 0.007266871165 1.589010477
v 0.03965604678 0.007954394445 1.589605689
v 0.03960226476 0.007891439833 1.589429259
v 0.04035236314 0.007577866782 1.589214087
v 0.03878840804 0.008142427541 1.589488506
v 0.03876578435 0.008017770946 1.589336276
v 0.03953021392 0.007788266521 1.589276314
v 0.03801602498 0.008152029477 1.589183569
v 0.0380384773 0.008002627641 1.58906424
v 0.03739250079 0.008078308776 1.588724136
v 0.03739167377 0.007729784586 1.588665128
v 0.03685437143 0.0077541871 1.588231325
v 0.03632389754 0.00761068007 1.587732315
v 0.03567590192 0.007416103035 1.587217689
v 0.03521765023 0.007358258124 1.586534858
v 0.03508783504 0.007325986866 1.585852146
v 0.03489689156 0.007348842919 1.585883737
v 0.03852461278 0.007125014439 1.589600205
v 0.03774849325 0.007380358875 1.589625955
v 0.03693249822 0.007577358745 1.58942318
v 0.03496522829 0.008141814731 1.586576104
v 0.03719557449 0.008061269298 1.582532048
v 0.03705948591 0.007884384133 1.583055139
v 0.03697754815 0.008332287893 1.582991004
v 0.03687506169 0.008547924459 1.582475662
v 0.03674856573 0.008431515656 1.582129717
v 0.03718245775 0.008115542121 1.582170486
v 0.03686532751 0.008733776398 1.582986832
v 0.03679394349 0.008961054496 1.582647324
v 0.03524950147 0.007770121563 1.583544016
v 0.03531305864 0.007515841164 1.583620906
v 0.03544674441 0.007508845069 1.583317876
v 0.03539960086 0.0078241257 1.583111644
v 0.03528573737 0.007994035259 1.583344579
v 0.03525893763 0.008189357817 1.583497405
v 0.03507512808 0.007826820947 1.583910346
v 0.03509571776 0.007666308433 1.583889961
v 0.03515815362 0.007486264221 1.583919525
v 0.03543120995 0.008980263025 1.583494425
v 0.03535046801 0.008773775771 1.583407998
v 0.03529246151 0.008608454838 1.583272338
v 0.03529246151 0.008608454838 1.583272338
v 0.0352798216 0.009147792123 1.583019257
v 0.03517531604 0.009741628543 1.58324945
v 0.03769938648 0.0068529821 1.582807779
v 0.03747048974 0.007577962708 1.582662106
v 0.03759904578 0.00773545308 1.582264543
v 0.03531920165 0.008359252475 1.583098769
v 0.03537534922 0.008641887456 1.582876325
v 0.03551668674 0.007271250244 1.584531665
v 0.03536181524 0.007246365771 1.584436059
v 0.03498399258 0.007941792719 1.5841465
v 0.03509017825 0.008028413169 1.583982587
v 0.03493995219 0.007799613755 1.584169865
v 0.03646451607 0.007458548527 1.583757043
v 0.03663127497 0.007868033834 1.583685875
v 0.03622053936 0.007383655291 1.5839293
v 0.03613000363 0.007010542788 1.583373547
v 0.03591351584 0.007018317468 1.583521247
v 0.03679151088 0.007817735896 1.583477378
v 0.03665146604 0.007388455328 1.583518982
v 0.03650765121 0.006912623532 1.583266258
v 0.03578016162 0.007214838639 1.583947778
v 0.03601203859 0.00733754877 1.584114313
v 0.03580944613 0.007117765024 1.583421707
v 0.03558626771 0.007231588941 1.58379817
v 0.03559743613 0.00727282092 1.583413482
v 0.03542770818 0.007339153904 1.583702207
v 0.03526061028 0.007343233563 1.583978534
v 0.03540494293 0.007257370744 1.584070444
v 0.03508262336 0.007358597126 1.584286451
v 0.03519732878 0.007281110622 1.584350348
v 0.0349987708 0.007470473181 1.584240556
v 0.03494694084 0.00760048395 1.584215164
v 0.03531625122 0.008362978697 1.583642364
v 0.03541601449 0.00811040774 1.582900643
v 0.03558203205 0.007232469972 1.584174037
v 0.03575342149 0.007292800117 1.584321737
v 0.03708594665 0.007404502481 1.583130717
v 0.03709684312 0.006863563787 1.583050966
v 0.03678520396 0.008207672276 1.583381772
v 0.03669460863 0.008556912653 1.583308816
v 0.03663852438 0.008200896904 1.583569288
v 0.03655331209 0.008492480963 1.583475351
v 0.03656274453 0.008885291405 1.583274126
v 0.03674522787 0.009028527886 1.583100319
v 0.03682712466 0.009222070687 1.582855701
v 0.03654618934 0.009796759114 1.582648039
v 0.03632197902 0.009958849289 1.58262682
v 0.0363246277 0.00936785154 1.582517743
v 0.03656296432 0.009161261842 1.582583547
v 0.03612295166 0.01003353857 1.582656145
v 0.03611329198 0.009375385009 1.582536936
v 0.0359085463 0.01007194631 1.582716823
v 0.03591458127 0.009389443323 1.582590818
v 0.0354937613 0.01004766673 1.582903385
v 0.03553808108 0.009324190207 1.582758307
v 0.03560653701 0.008860366419 1.582642794
v 0.03549673408 0.008365908638 1.582685351
v 0.03570306301 0.008485600352 1.582517743
v 0.03596993536 0.008549780585 1.58236444
v 0.0363170132 0.00854671374 1.582232952
v 0.0362225771 0.008936197497 1.5823946
v 0.03595716879 0.008943480439 1.582468867
v 0.03656547144 0.008755096234 1.582423806
v 0.03895685077 0.005298248492 1.57938838
v 0.03889892995 0.005292405374 1.579645276
v 0.03912527487 0.00574462628 1.579563856
v 0.03914982453 0.005539424252 1.579158187
v 0.03658598289 0.01037222426 1.583259583
v 0.03669275716 0.01039313897 1.582884908
v 0.03657496348 0.0104382094 1.582733512
v 0.0363923572 0.01049193647 1.582662463
v 0.0367362611 0.01102679595 1.582702994
v 0.03656683862 0.01107515767 1.582626462
v 0.03678531945 0.01109219436 1.583203912
v 0.03685226291 0.01100856159 1.582852602
v 0.03643028438 0.01039261557 1.58338809
v 0.03627708927 0.01041268744 1.583514571
v 0.03652570769 0.01121961791 1.583460689
v 0.03665446118 0.01115642488 1.583333373
v 0.03610225767 0.01044721063 1.583610654
v 0.035553433 0.01060349587 1.583592892
v 0.03542180359 0.0106517626 1.583378553
v 0.03524589166 0.00992481783 1.583092809
v 0.03545834869 0.01070813369 1.583176851
v 0.03565237671 0.01067327242 1.582924008
v 0.03619368374 0.01054397132 1.582676888
v 0.03599991649 0.01059222221 1.582732081
v 0.03638453782 0.01114236377 1.582621098
v 0.03621307015 0.0112228645 1.582664251
v 0.03689237684 0.01169912703 1.582460523
v 0.03672919422 0.01178474724 1.582441449
v 0.03704486415 0.0116555281 1.58255434
v 0.037424393 0.0122034885 1.582291842
v 0.03741621971 0.01220087521 1.58228004
v 0.03727373481 0.01223475114 1.582176685
v 0.03715409338 0.01165890321 1.58270359
v 0.03711655736 0.0118106436 1.583032131
v 0.03751571476 0.01244555134 1.582724333
v 0.03751797602 0.01223335974 1.582425714
v 0.03701224923 0.01190320682 1.583162427
v 0.03690962121 0.01199426968 1.583290815
v 0.03738383576 0.01270740759 1.582970738
v 0.03744924441 0.01257754024 1.582848549
v 0.03637254611 0.01128979772 1.58355999
v 0.0367833823 0.0120905675 1.583395839
v 0.0358672142 0.0115228435 1.583526254
v 0.03576828539 0.01155819558 1.583364725
v 0.03576292098 0.01153824665 1.583173156
v 0.03627176955 0.01231900696 1.582983136
v 0.03627851605 0.01236651465 1.583165765
v 0.0359261632 0.01140255854 1.582853913
v 0.03636933863 0.01212952938 1.582674503
v 0.03658147529 0.01189087331 1.582482219
v 0.03712967411 0.01233232394 1.582142353
v 0.03701058775 0.0124647487 1.582176924
v 0.03756799921 0.01272883732 1.581714869
v 0.03747780994 0.0128886411 1.581731796
v 0.03769952804 0.01261715684 1.58176744
v 0.03815832362 0.01282231975 1.581266046
v 0.0380311124 0.01295019686 1.581191659
v 0.037836954 0.01259159204 1.581881046
v 0.03830773756 0.01279888209 1.581389904
v 0.03794457391 0.01264427695 1.58202076
v 0.03801149502 0.01290375832 1.582282543
v 0.03859396279 0.01315707993 1.581754804
v 0.03843913227 0.01286420692 1.581526041
v 0.03798935935 0.01306301448 1.582386494
v 0.03796759248 0.0132197123 1.582488775
v 0.03864161298 0.01352197398 1.581912279
v 0.03861798346 0.01334100403 1.581834197
v 0.03791550547 0.01339240931 1.582549334
v 0.03861500323 0.01371897571 1.581941247
v 0.03729327396 0.01284370292 1.58306694
v 0.0369197093 0.01313497871 1.582993627
v 0.03758502379 0.01371431164 1.582402825
v 0.0363470912 0.01235719211 1.583341599
v 0.03685394675 0.01309073903 1.582824826
v 0.0368361026 0.01299971994 1.582658172
v 0.03743170202 0.01352039631 1.582119346
v 0.03749188781 0.01364234462 1.582255006
v 0.03686948866 0.01275236066 1.582364678
v 0.03739446029 0.01322272327 1.581878781
v 0.0379598774 0.01313279942 1.581186414
v 0.03793515638 0.01352000423 1.581281304
v 0.03847505897 0.01303762477 1.580627441
v 0.03842191398 0.01323203091 1.580581188
v 0.03888358921 0.01295324601 1.580052018
v 0.03886334598 0.01314581372 1.579966784
v 0.0385941267 0.01290103514 1.580720782
v 0.03897928074 0.01280872058 1.580166459
v 0.03875494748 0.01286878437 1.580845594
v 0.03914324194 0.01277139224 1.580288172
v 0.03890995681 0.01293382142 1.5809654
v 0.03913540393 0.01323950011 1.581122041
v 0.03960641846 0.0131408833 1.580451965
v 0.03932072222 0.01283602323 1.580379128
v 0.03918993846 0.0134376334 1.581159472
v 0.03924359009 0.01363258343 1.581196308
v 0.03977664188 0.01353033911 1.580438018
v 0.03969222307 0.0133371884 1.580444932
v 0.03924487159 0.01383975334 1.581198454
v 0.0398135148 0.01373485569 1.580399394
v 0.03889402747 0.01420022082 1.580931425
v 0.03950211778 0.01410170458 1.580099583
v 0.03825727105 0.01406899933 1.581715226
v 0.03811676055 0.01400557905 1.581584334
v 0.03802292421 0.01387129631 1.581464052
v 0.03860052675 0.01401680801 1.580713868
v 0.03873040155 0.01414967887 1.580809236
v 0.03845382109 0.01364381332 1.580603361
v 0.03896346688 0.0135546457 1.579900026
v 0.03917541355 0.01392298471 1.579927921
v 0.03922633454 0.01287715603 1.579379201
v 0.03938886151 0.01326707378 1.57921505
v 0.03921801224 0.0126895085 1.579498887
v 0.03945499659 0.01228910964 1.578998685
v 0.03946944326 0.0124501884 1.578844428
v 0.03928861022 0.01254191436 1.579640269
v 0.03951593488 0.0121527072 1.579166174
v 0.03945815191 0.0125033455 1.579764128
v 0.039685525 0.01209837105 1.5792979
v 0.03965771943 0.01256296411 1.579833508
v 0.04000711441 0.01284370758 1.579829931
v 0.04028794169 0.0123418225 1.579293847
v 0.03989877924 0.01212733611 1.579361916
v 0.04012778401 0.01302832551 1.579767704
v 0.04024651274 0.01320997719 1.579706311
v 0.04056666419 0.01262634341 1.579058528
v 0.04042842984 0.01248523779 1.579175234
v 0.04031612352 0.01340146642 1.579618573
v 0.0406546481 0.01277325582 1.578914046
v 0.04005621001 0.01376270875 1.579256892
v 0.0404224433 0.01311097573 1.578476429
v 0.03932800144 0.01405074447 1.57999599
v 0.03967385739 0.01360865403 1.57914865
v 0.03986100852 0.01371939667 1.579179049
v 0.0396589078 0.0127794724 1.578594923
v 0.03999474645 0.01303735003 1.578436375
v 0.03975171223 0.01209435891 1.578043103
v 0.04009997845 0.01226503216 1.5778234
v 0.03955573216 0.01114762761 1.578066826
v 0.03975117952 0.0112590082 1.577669024
v 0.0395574905 0.01186802424 1.578376651
v 0.03954678401 0.0117545668 1.578570724
v 0.03952652588 0.01108154096 1.578282833
v 0.03960937634 0.01164882164 1.578761458
v 0.03957198933 0.01101401821 1.578491688
v 0.03977369145 0.01158441417 1.578899622
v 0.03998799995 0.01157383993 1.578952312
v 0.03994498774 0.01091996673 1.578670502
v 0.03973215073 0.01095381845 1.578632116
v 0.04039004818 0.01168199815 1.57882309
v 0.0403437838 0.01094278507 1.578495979
v 0.04052940011 0.01177679375 1.578672051
v 0.04066650942 0.01187007315 1.578523517
v 0.04061647505 0.01103897672 1.578153253
v 0.04048123583 0.01099126879 1.578323245
v 0.04074973613 0.01197762601 1.57834363
v 0.04069541395 0.01110270992 1.577951074
v 0.04053464532 0.01227213815 1.577842116
v 0.04048949853 0.01131273247 1.5773983
v 0.04020659626 0.01310654078 1.578424692
v 0.04031903297 0.01229538582 1.577793241
v 0.04007284716 0.01134980004 1.577387452
v 0.04028395563 0.01135056838 1.577343583
v 0.0396441035 0.01038157381 1.577517152
v 0.03995107859 0.01036209613 1.577212691
v 0.03948594257 0.009515662678 1.577522755
v 0.03977587819 0.009435579181 1.577240109
v 0.03945175558 0.01037420612 1.577912688
v 0.03942320496 0.01035014912 1.578128815
v 0.0392777212 0.009569451213 1.578101635
v 0.03930554911 0.009563702159 1.577896476
v 0.03947138414 0.01031158026 1.578336835
v 0.03932043537 0.009558803402 1.578301191
v 0.03962818161 0.01026134752 1.57847476
v 0.0398356691 0.0102145765 1.578504443
v 0.03967323154 0.009470824152 1.578446627
v 0.03947489336 0.009520510212 1.578427196
v 0.04021477327 0.01017254591 1.578305602
v 0.04002552107 0.009387183934 1.578240395
v 0.04035199806 0.010180654 1.578131437
v 0.04048701376 0.01018863078 1.577960014
v 0.04028343782 0.009335223585 1.577911615
v 0.04015552253 0.009360993281 1.578074694
v 0.04056485742 0.0102110384 1.57775712
v 0.04036080465 0.009322031401 1.577719688
v 0.04035621136 0.01031182893 1.577199697
v 0.04015817121 0.009354355745 1.577202678
v 0.04015350714 0.01034174953 1.577150106
v 0.03996377066 0.009392473847 1.577172041
v 0.03955679014 0.008540352806 1.577308416
v 0.03973785043 0.008478970267 1.577244163
v 0.0392697379 0.008666541427 1.577572227
v 0.03890870884 0.007863459177 1.577645659
v 0.03922635317 0.007616285235 1.577354908
v 0.03910762072 0.008774348535 1.577937841
v 0.03908791021 0.008811756968 1.578137994
v 0.03876757622 0.008177625947 1.578304887
v 0.03876389191 0.008090947755 1.578082919
v 0.03913588449 0.008829698898 1.57833457
v 0.03884443641 0.00823011715 1.578518152
v 0.03928868473 0.008800776675 1.578458548
v 0.03948150203 0.008740399033 1.578476429
v 0.03922489658 0.0081208013 1.578689218
v 0.03901687264 0.008204303682 1.578654885
v 0.0398196876 0.008600534871 1.578276873
v 0.03961180151 0.007895793766 1.578503013
v 0.03994458169 0.008538741618 1.578114033
v 0.04006747529 0.008477945812 1.577953815
v 0.03990009055 0.007638823707 1.578124642
v 0.03975711763 0.007766268216 1.578312278
v 0.04013711587 0.008433358744 1.577765465
v 0.03995928541 0.007529584225 1.577902317
v 0.03992715478 0.008428762667 1.57726717
v 0.03964520991 0.007439308334 1.577334762
v 0.03927766904 0.006495967507 1.577567816
v 0.03943189979 0.007510141004 1.577300787
v 0.03899068758 0.006607779302 1.577517748
v 0.03872548789 0.006777313538 1.577547431
v 0.03827752173 0.006073985249 1.578023314
v 0.03856168687 0.005909873173 1.577998281
v 0.03834024444 0.007197269704 1.577858567
v 0.03787277266 0.006519179326 1.57832551
v 0.03822604939 0.007558184676 1.578363895
v 0.03827820718 0.00769270258 1.578634143
v 0.03787857667 0.007133872714 1.579107642
v 0.0377837643 0.006967415567 1.578866601
v 0.03841653839 0.007768012583 1.578886032
v 0.03813093156 0.007229018025 1.579370499
v 0.03865130991 0.007740826346 1.579057217
v 0.03892000392 0.007636351045 1.579117417
v 0.0386412628 0.007169613615 1.579518437
v 0.0384044461 0.007239680737 1.579478025
v 0.03945219144 0.007321468554 1.578965306
v 0.03918780759 0.006872835103 1.57938993
v 0.03962447122 0.007103678305 1.578748345
v 0.0397939831 0.006889388431 1.578534842
v 0.03949544206 0.006264628842 1.579030871
v 0.03934286907 0.006566271652 1.57920897
v 0.03981839493 0.006686916109 1.578260541
v 0.03950328752 0.006032034755 1.578731656
v 0.03886870295 0.005791501608 1.578060389
v 0.03855483234 0.005306635983 1.57864213
v 0.0383506678 0.005036993884 1.579167128
v 0.03830003738 0.005394353066 1.578597069
v 0.03814128041 0.005137245171 1.579143047
v 0.03806586564 0.005545469001 1.578637838
v 0.03795658797 0.005279417615 1.579162478
v 0.03769306093 0.005721386988 1.579179168
v 0.03756061569 0.005797892809 1.579782963
v 0.03765030578 0.005228704307 1.580123425
v 0.03769624606 0.006266578566 1.579596043
v 0.03771260381 0.006005164701 1.578828096
v 0.03786838427 0.006457089446 1.57972014
v 0.03807349131 0.006635977421 1.579786539
v 0.03850680962 0.006652586162 1.579786181
v 0.03892293945 0.006534749642 1.579724312
v 0.03902317956 0.006143332459 1.579644799
v 0.03815452382 0.004863876849 1.580168962
v 0.03855472803 0.004834535066 1.579928756
v 0.04057414457 0.002495461144 1.579662323
v 0.04081178457 0.002423092024 1.580079198
v 0.04029107094 0.002739631804 1.579468489
v 0.03993013874 0.002820301801 1.57971406
v 0.04020281136 0.00255006575 1.579954982
v 0.04057757556 0.002408501459 1.580184817
v 0.04017037153 0.003063111333 1.57930088
v 0.04033024982 0.004143742844 1.579080701
v 0.04058972746 0.004125019535 1.578987956
v 0.03931520134 0.002867364325 1.580077887
v 0.03972875327 0.002432835288 1.580296159
v 0.03987925127 0.003168510506 1.579474211
v 0.03940437362 0.003423259826 1.579656363
v 0.0387438871 0.003682239447 1.580007911
v 0.03859541938 0.003389785299 1.580310822
v 0.0385839045 0.002787684556 1.580723405
v 0.03887739033 0.002491323743 1.580767393
v 0.0392399244 0.002241986571 1.580784798
v 0.04078214988 0.00413491996 1.578902602
v 0.03961746395 0.002075915923 1.58079648
v 0.04010562971 0.00217546965 1.580537319
v 0.0395992063 0.00383270951 1.579380512
v 0.03908007592 0.004107288551 1.579677105
v 0.0399181731 0.003617515787 1.57928586
v 0.04002842307 0.004229573533 1.57914412
v 0.03952357918 0.004481418524 1.579175115
v 0.03828037903 0.003702907823 1.581061959
v 0.03842601553 0.003002685728 1.581267118
v 0.03838850558 0.0038273104 1.581750393
v 0.03789144009 0.004497700371 1.581294179
v 0.03804576769 0.004554823041 1.581746697
v 0.03857892379 0.003120064503 1.581887722
v 0.03826268017 0.003997733351 1.580621243
v 0.03784701973 0.004593078047 1.580913186
v 0.04151103273 0.00459762197 1.580193043
v 0.04162554443 0.004838333465 1.579924941
v 0.04145816714 0.00461122999 1.580267787
v 0.03712960705 0.005887737032 1.581427813
v 0.03742081299 0.005237659905 1.581098914
v 0.03740970045 0.005382617004 1.580688834
v 0.03709581494 0.005979941227 1.581186891
v 0.04138005152 0.00519419834 1.580051303
v 0.03814551607 0.007092697546 1.580465555
v 0.03853879124 0.007122240961 1.580270171
v 0.03782273829 0.007288802415 1.58095789
v 0.03757169098 0.006967699155 1.58088088
v 0.03783084452 0.006723972503 1.580408096
v 0.03832545504 0.007884627208 1.580853105
v 0.03807544708 0.007800879888 1.581196547
v 0.03862593323 0.007889799774 1.580655336
v 0.03785681352 0.006090757903 1.582414627
v 0.03742362931 0.005851709284 1.58196044
v 0.03716666251 0.006294645369 1.582154155
v 0.03741367906 0.006426117383 1.582495213
v 0.03798890114 0.005403287709 1.582229257
v 0.03766809031 0.005272667389 1.581824064
v 0.03851783648 0.006177889183 1.582665682
v 0.03844783083 0.005559064448 1.582712412
v 0.03807745129 0.006704766303 1.582668543
v 0.03879107162 0.006741852965 1.582462788
v 0.03781032562 0.007607890293 1.581654549
v 0.03736003861 0.007695429958 1.581885934
v 0.03702026978 0.007918068208 1.581939697
v 0.03673862293 0.007990055718 1.581938028
v 0.03704722971 0.007564714644 1.581657529
v 0.03606845438 0.007079022471 1.583083749
v 0.03648883849 0.006894510705 1.582906365
v 0.03634919971 0.006963864435 1.582701445
v 0.03588283807 0.007249409799 1.582983375
v 0.04078825936 0.005921130534 1.580993772
v 0.04051396996 0.006031780969 1.580675721
v 0.04085144773 0.005912377499 1.580325723
v 0.0409261696 0.005551582202 1.580593109
v 0.04007842764 0.006207481027 1.580170631
v 0.03961338848 0.00622511562 1.57971549
v 0.04006271064 0.005868757609 1.579435706
v 0.04041795805 0.00588840805 1.579836488
v 0.03976948559 0.006626706105 1.580389738
v 0.03933898732 0.006668130402 1.579982877
v 0.03947254643 0.006452502683 1.5798527
v 0.03991985321 0.006422657985 1.580283165
v 0.04046567902 0.006386235822 1.580808401
v 0.04069007188 0.006201887503 1.58115375
v 0.04059778526 0.006465789396 1.581304073
v 0.04029479623 0.006576151121 1.580886364
v 0.04067995772 0.002278734464 1.581531644
v 0.03997512907 0.002241148148 1.581893325
v 0.04014512524 0.002546085976 1.582379699
v 0.04061138257 0.00258582551 1.582241058
v 0.04036752135 0.00212258962 1.580985069
v 0.03982793912 0.002074099379 1.581283689
v 0.0410756655 0.002770987339 1.582060695
v 0.04116218537 0.002579607069 1.581488967
v 0.04144855589 0.003060642397 1.581832409
v 0.04147593305 0.002971423324 1.581304789
v 0.04120665789 0.003089619568 1.582644463
v 0.04154550657 0.003326399717 1.582391024
v 0.04080276191 0.002915108111 1.582876921
v 0.04110651091 0.003175359219 1.583545446
v 0.04146894068 0.003384525888 1.583240628
v 0.04036668688 0.002843483584 1.58303678
v 0.04070503637 0.003084534081 1.583785892
v 0.03992193565 0.002932018135 1.583157778
v 0.04028941318 0.003167493502 1.583927393
v 0.03965730965 0.002666644985 1.582491636
v 0.03941722959 0.002361084567 1.581999898
v 0.03921660036 0.002936937381 1.582539082
v 0.03952881694 0.003187057562 1.583221078
v 0.0389194265 0.002645183587 1.582012057
v 0.03924860805 0.002225782257 1.581423759
v 0.03876842186 0.002520877169 1.581406474
v 0.03888123482 0.003347293008 1.582467079
v 0.039160043 0.003581091529 1.583184004
v 0.03863355145 0.003944646101 1.582342267
v 0.03883770108 0.004153414164 1.58304143
v 0.03908855841 0.004371552728 1.583693266
v 0.03857409209 0.00487554539 1.582844138
v 0.03888754919 0.005081475247 1.583399773
v 0.03891238943 0.005738850683 1.583133578
v 0.03938953578 0.005872557871 1.583474278
v 0.03932610527 0.005290029105 1.583814502
v 0.03910513222 0.006277597044 1.582889199
v 0.03945241123 0.006732598413 1.582453966
v 0.04002704099 0.006585933268 1.582826257
v 0.03964601085 0.006334298756 1.583138585
v 0.04015959799 0.006754986942 1.582094431
v 0.04059005156 0.006608838215 1.582523227
v 0.03970122337 0.007169789169 1.581310391
v 0.03984389082 0.006948431954 1.581660509
v 0.03922175243 0.007760494482 1.580640793
v 0.03943770751 0.007494438905 1.580942392
v 0.03945129737 0.008099537343 1.581172705
v 0.03893171251 0.007852516137 1.580596328
v 0.03888550401 0.007104986347 1.580205679
v 0.03918784112 0.007123630028 1.580287576
v 0.03982031718 0.005564549938 1.579286098
v 0.04042002931 0.005210220348 1.578989744
v 0.04062116519 0.005495928228 1.579128981
v 0.04100783542 0.004925655201 1.578803897
v 0.04085784033 0.004998269957 1.578851342
v 0.04159491882 0.004947613925 1.57924366
v 0.04111884534 0.002450186294 1.580762029
v 0.04137980193 0.002689227462 1.580775023
v 0.04086403176 0.002355365548 1.580496669
v 0.04154637456 0.003008323722 1.580711961
v 0.0416225791 0.003361607902 1.580598116
v 0.0416004248 0.003753147088 1.580526233
v 0.04173246399 0.003640172537 1.582136512
v 0.04195328429 0.003936247434 1.582654715
v 0.04192611575 0.004283661954 1.582362294
v 0.04177672416 0.0036361604 1.582944274
v 0.04208627716 0.003987411968 1.583427787
v 0.04225352407 0.004295277409 1.583115935
v 0.04180145264 0.003725385061 1.583723545
v 0.04148661718 0.003542622318 1.584002733
v 0.04113569856 0.003489359049 1.584254384
v 0.04072337598 0.003568415064 1.58440721
v 0.04031074792 0.003778427839 1.584436536
v 0.03988076001 0.00341791939 1.583953738
v 0.03947585076 0.00380846858 1.583878636
v 0.03990656137 0.004130211193 1.584343314
v 0.03952670842 0.004650031216 1.584130049
v 0.04102928191 0.0064812731 1.582347631
v 0.04065511748 0.006573839579 1.581865907
v 0.04027950019 0.006714536343 1.581398845
v 0.04094950482 0.006362228189 1.581766725
v 0.04132647067 0.006311300676 1.582269192
v 0.04121946916 0.005965062883 1.581760526
v 0.04163940996 0.005978914443 1.582258463
v 0.04162987322 0.004961703904 1.582030654
v 0.04206953198 0.005187515635 1.582485557
v 0.04104232788 0.005797273014 1.581350923
v 0.04119780287 0.005331215449 1.580243111
v 0.04130385444 0.004650964867 1.580486178
v 0.04226885363 0.004628782161 1.582828045
v 0.04001050442 0.006844315678 1.581037879
v 0.03955836594 0.0069978307 1.580625534
v 0.04087848216 0.005526271183 1.579513431
v 0.04121570289 0.005263728555 1.579355955
v 0.04103539139 0.0052385116 1.578986168
v 0.04171051085 0.004935515579 1.579669476
v 0.04143572971 0.00529450085 1.579807281
v 0.04119247943 0.005563296843 1.579982638
v 0.03830349445 0.004354722798 1.580329895
v 0.03697000816 0.006654665805 1.582649827
v 0.03680914268 0.0066489866 1.582422256
v 0.03700266406 0.006305812392 1.581929684
v 0.03667461127 0.006699214689 1.582231402
v 0.03624238446 0.007067470346 1.582524061
v 0.03656993806 0.006788747385 1.582065701
v 0.03617342561 0.007201569621 1.582374692
v 0.03580959141 0.007396653295 1.582854509
v 0.03576087207 0.007564854342 1.582724452
v 0.03615701199 0.007331657223 1.582241416
v 0.03577718139 0.007718604058 1.582581282
v 0.03626091406 0.007588344626 1.582034349
v 0.03596380726 0.007998591289 1.582308054
v 0.03584475815 0.007868354209 1.582437277
v 0.03619047999 0.007462721784 1.582127333
v 0.03616216406 0.008100346662 1.582179904
v 0.0363593623 0.007704663556 1.581964254
v 0.03653543442 0.007802144159 1.58189714
v 0.03637306392 0.008169583976 1.582101464
v 0.03654862195 0.008486025967 1.582176566
v 0.0367262736 0.007308148779 1.581647635
v 0.03686539084 0.007439514156 1.581623912
v 0.03662035987 0.007174095605 1.581703067
v 0.03693910688 0.00682326965 1.581335664
v 0.03707636148 0.007003858685 1.581292868
v 0.03653217107 0.006906288676 1.581916451
v 0.0365530476 0.007037879433 1.581793547
v 0.03683913499 0.006496140268 1.581579685
v 0.03688484803 0.006375035271 1.581749678
v 0.03724049404 0.005831531249 1.581690669
v 0.03749316186 0.005215421785 1.581461668
v 0.03734500334 0.006687538233 1.580862403
v 0.0371873118 0.006433223374 1.580915213
v 0.03739228472 0.006088411901 1.580429435
v 0.0375584662 0.006403322332 1.580385208
v 0.0372517854 0.007169401273 1.581305623
v 0.03746424243 0.007368375082 1.581390858
v 0.04065756127 0.005095227156 1.578914642
v 0.0408459045 0.005356269423 1.579051495
v 0.04106144235 0.005383827724 1.579427958
v 0.04129668698 0.005256874952 1.580139041
v 0.04132445529 0.005417461507 1.579887509
v 0.04138758034 0.004629407078 1.580367684
v 0.04163759947 0.002998457523 1.580536008
v 0.04148337618 0.00270783226 1.58058846
v 0.04125402123 0.002487251768 1.580576777
v 0.03948594257 0.009515662678 1.577522755
v 0.03794198856 0.005017660093 1.58014977
v 0.03740970045 0.005382617004 1.580688834
v 0.03786249459 0.004861886147 1.58050704
v 0.03830717131 0.004698995501 1.582244515
v 0.04055955261 0.003996570595 1.578938484
v 0.04160958901 0.004256836139 1.580233812
v 0.04105211794 0.00238808454 1.580365896
v 0.0414044112 0.004832045175 1.578796983
v 0.0402033627 0.003476158716 1.579125524
v 0.04172566906 0.003744939109 1.580340624
v 0.04171856865 0.003349114209 1.580440044
v 0.04158310965 0.004441524856 1.580170274
v 0.04033820331 0.00375229097 1.5790205
v 0.04133316502 0.004754546098 1.580781102
v 0.0418047905 0.004149364773 1.582127929
v 0.04156789184 0.003333002329 1.581681609
v 0.04149625823 0.003054219531 1.581272125
v 0.04151395708 0.002991341986 1.580984712
v 0.04161207378 0.003365689423 1.580721617
v 0.04158447683 0.003757246304 1.58062458
v 0.04097816721 0.005364113022 1.580648541
v 0.04084723815 0.005738583393 1.581033111
v 0.04090711102 0.005586129613 1.580719352
v 0.04163504392 0.003437116509 1.580941558
v 0.04161378369 0.003860827303 1.580919623
f 2 3 1
f 4 5 2 1
f 7 8 9 6
f 9 10 11 6
f 7 13 14 12
f 15 16 17 12
f 17 8 7 12
f 9 18 19 10
f 5 4 21 20
f 22 23 5 20
f 24 25 22 20
f 27 28 29 26
f 30 31 32 26
f 32 27 26
f 2 5 23 33
f 34 3 2 33
f 35 36 34 33
f 37 38 36 35
f 39 40 37 35
f 33 41 39 35
f 42 43 39 41
f 44 45 42 41
f 33 23 44 41
f 46 47 45 44
f 23 22 46 44
f 48 49 47 46
f 22 25 48 46
f 50 51 48 25
f 24 52 50 25
f 31 30 50 52
f 30 53 51 50
f 54 55 51 53
f 56 57 54 53
f 30 26 56 53
f 58 59 57 56
f 26 29 58 56
f 60 61 58 29
f 28 62 60 29
f 63 64 60 62
f 38 37 64 63
f 65 61 60 64
f 37 40 65 64
f 66 67 61 65
f 40 68 66 65
f 69 70 66 68
f 43 71 69 68
f 40 39 43 68
f 72 73 69 71
f 74 75 72 71
f 43 42 74 71
f 76 77 75 74
f 42 45 76 74
f 78 79 77 76
f 45 47 78 76
f 80 81 79 78
f 47 49 80 78
f 82 83 81 80
f 49 55 82 80
f 49 48 51 55
f 84 85 83 82
f 55 54 84 82
f 86 87 85 84
f 54 57 86 84
f 88 89 87 86
f 57 59 88 86
f 90 91 89 88
f 59 67 90 88
f 59 58 61 67
f 70 92 91 90
f 67 66 70 90
f 93 94 91 92
f 73 95 93 92
f 70 69 73 92
f 96 97 93 95
f 98 99 96 95
f 73 72 98 95
f 100 101 99 98
f 72 75 100 98
f 102 103 101 100
f 75 77 102 100
f 104 105 103 102
f 77 79 104 102
f 106 107 105 104
f 79 81 106 104
f 108 109 107 106
f 81 83 108 106
f 110 111 109 108
f 83 85 110 108
f 112 113 111 110
f 85 87 112 110
f 114 115 113 112
f 87 89 114 112
f 94 116 115 114
f 89 91 94 114
f 97 117 118 116
f 94 93 97 116
f 119 120 118 117
f 121 122 119 117
f 97 96 121 117
f 123 124 122 121
f 96 99 123 121
f 125 126 124 123
f 99 101 125 123
f 127 128 126 125
f 101 103 127 125
f 129 130 128 127
f 103 105 129 127
f 131 132 130 129
f 105 107 131 129
f 133 134 132 131
f 107 109 133 131
f 135 136 134 133
f 109 111 135 133
f 137 138 136 135
f 111 113 137 135
f 139 140 138 137
f 113 115 139 137
f 118 120 140 139
f 115 116 118 139
f 141 142 140 120
f 143 144 145 141
f 120 119 143 141
f 146 147 144 143
f 119 122 146 143
f 148 149 147 146
f 122 124 148 146
f 150 151 149 148
f 124 126 150 148
f 152 153 151 150
f 126 128 152 150
f 154 155 153 152
f 128 130 154 152
f 156 157 155 154
f 130 132 156 154
f 158 159 157 156
f 132 134 158 156
f 160 161 159 158
f 134 136 160 158
f 162 163 161 160
f 136 138 162 160
f 142 164 163 162
f 138 140 142 162
f 145 165 166 164
f 142 141 145 164
f 167 168 166 165
f 169 170 167 165
f 145 144 169 165
f 171 172 170 169
f 144 147 171 169
f 173 16 172 171
f 147 149 173 171
f 174 17 16 173
f 149 151 174 173
f 175 8 17 174
f 151 153 175 174
f 18 9 8 175
f 153 155 18 175
f 176 177 170 172
f 16 15 176 172
f 178 167 170 177
f 179 168 167 178
f 180 181 168 179
f 182 183 181 180
f 10 19 185 184
f 186 183 184 185
f 159 161 186 185
f 187 181 183 186
f 161 163 187 186
f 166 168 181 187
f 163 164 166 187
f 157 159 185 19
f 19 18 155 157
f 7 6 188 13
f 6 11 188
f 15 12 14
f 190 3 34 189
f 191 192 190 189
f 193 194 191 189
f 34 36 195 189
f 195 196 193 189
f 198 199 200 197
f 202 200 199 203 204 201
f 205 62 28
f 206 207 28 27
f 209 210 211 208
f 211 212 213 208
f 214 215 209 208
f 216 217 214 208
f 213 218 216 208
f 219 220 216 218
f 221 222 220 219
f 223 220 222
f 224 225 223 222
f 226 227 225 224
f 228 229 227 226
f 231 229 228 230
f 229 231 204 203
f 203 232 227 229
f 203 199 233 232
f 234 225 227 232
f 233 235 234 232
f 233 236 237 235
f 214 217 234 235
f 237 215 214 235
f 198 238 239 236
f 233 199 198 236
f 239 240 237 236
f 239 241 242 240
f 243 215 237 240
f 242 244 243 240
f 242 245 246 244
f 247 248 243 244
f 246 249 247 244
f 246 250 251 249
f 252 253 247 249
f 251 254 252 249
f 251 255 256 254
f 257 258 252 254
f 256 259 257 254
f 256 260 261 259
f 262 263 257 259
f 264 262 259 261
f 266 264 261 265
f 267 268 266 265
f 269 270 264 266
f 268 271 269 266
f 268 272 273 271
f 274 275 269 271
f 273 276 274 271
f 273 277 278 276
f 279 280 274 276
f 278 281 279 276
f 278 282 283 281
f 284 285 279 281
f 283 286 284 281
f 283 287 288 286
f 289 290 284 286
f 291 289 286 288
f 293 291 288 292
f 294 295 293 292
f 296 297 291 293
f 295 298 296 293
f 295 299 300 298
f 301 302 296 298
f 194 301 298 300
f 191 194 300 303
f 304 305 302 301
f 194 193 304 301
f 306 307 305 304
f 193 196 306 304
f 308 309 307 306
f 196 310 308 306
f 196 195 311 310
f 312 313 308 310
f 311 314 312 310
f 311 38 63 314
f 205 315 312 314
f 63 62 205 314
f 316 313 312 315
f 317 318 316 315
f 205 28 317 315
f 319 320 318 317
f 207 319 317 28
f 321 322 319 207
f 206 323 321 207
f 206 324 325 323
f 326 327 321 323
f 325 328 326 323
f 329 330 326 328
f 331 332 330 329
f 334 332 331 333
f 335 336 334 333
f 192 336 335 337
f 338 190 192 337
f 1 3 190 338
f 192 191 303 336
f 303 339 334 336
f 340 332 334 339
f 341 340 339 299
f 303 300 299 339
f 295 294 341 299
f 342 343 341 294
f 292 344 342 294
f 345 346 342 344
f 287 347 345 344
f 292 288 287 344
f 348 349 345 347
f 282 350 348 347
f 287 283 282 347
f 351 352 348 350
f 277 353 351 350
f 282 278 277 350
f 354 355 351 353
f 356 354 353 272
f 277 273 272 353
f 268 267 356 272
f 357 358 356 267
f 265 359 357 267
f 360 361 357 359
f 260 362 360 359
f 265 261 260 359
f 363 364 360 362
f 255 365 363 362
f 260 256 255 362
f 366 367 363 365
f 250 368 366 365
f 255 251 250 365
f 369 370 366 368
f 245 371 369 368
f 250 246 245 368
f 372 373 369 371
f 241 374 372 371
f 245 242 241 371
f 375 376 372 374
f 377 375 374 238
f 241 239 238 374
f 198 197 377 238
f 378 379 375 377
f 197 380 378 377
f 381 382 378 380
f 384 381 380 383
f 197 200 383 380
f 384 383 386 385
f 200 202 386 383
f 387 388 384 385
f 389 390 388 387
f 391 392 390 389
f 393 394 392 391
f 396 394 393 395
f 212 211 396 395
f 211 210 397 396
f 398 394 396 397
f 400 398 397 399
f 401 402 400 399
f 403 404 398 400
f 402 405 403 400
f 402 406 407 405
f 408 409 403 405
f 407 410 408 405
f 407 411 412 410
f 413 414 408 410
f 412 415 413 410
f 412 416 417 415
f 418 419 413 415
f 417 420 418 415
f 417 421 422 420
f 423 424 418 420
f 425 423 420 422
f 427 425 422 426
f 428 429 427 426
f 430 431 425 427
f 429 432 430 427
f 429 433 434 432
f 435 436 430 432
f 437 435 432 434
f 439 437 434 438
f 440 441 439 438
f 442 443 437 439
f 441 444 442 439
f 441 445 446 444
f 447 448 442 444
f 446 449 447 444
f 446 305 307 449
f 450 451 447 449
f 307 309 450 449
f 452 453 451 450
f 309 454 452 450
f 309 308 313 454
f 455 456 452 454
f 313 316 455 454
f 457 458 456 455
f 316 318 457 455
f 459 352 458 457
f 320 459 457 318
f 349 348 352 459
f 320 460 349 459
f 320 319 322 460
f 346 345 349 460
f 322 461 346 460
f 322 321 327 461
f 343 342 346 461
f 327 462 343 461
f 327 326 330 462
f 340 341 343 462
f 330 332 340 462
f 352 351 355 458
f 463 456 458 355
f 354 464 463 355
f 465 453 463 464
f 358 466 465 464
f 354 356 358 464
f 467 468 465 466
f 361 469 467 466
f 358 357 361 466
f 470 471 467 469
f 364 472 470 469
f 361 360 364 469
f 473 474 470 472
f 367 475 473 472
f 364 363 367 472
f 476 436 473 475
f 370 477 476 475
f 367 366 370 475
f 478 431 476 477
f 479 478 477 373
f 370 369 373 477
f 372 376 479 373
f 480 424 479 376
f 375 379 480 376
f 419 418 424 480
f 481 419 480 379
f 378 382 481 379
f 482 414 481 382
f 381 483 482 382
f 384 388 483 381
f 484 409 482 483
f 388 390 484 483
f 404 403 409 484
f 390 392 404 484
f 409 408 414 482
f 414 413 419 481
f 423 478 479 424
f 423 425 431 478
f 436 476 431 430
f 435 474 473 436
f 435 437 443 474
f 443 471 470 474
f 443 442 448 471
f 448 468 467 471
f 448 447 451 468
f 451 453 465 468
f 453 452 456 463
f 297 296 302 445
f 440 297 445 441
f 302 305 446 445
f 289 291 297 440
f 438 290 289 440
f 285 284 290 433
f 438 434 433 290
f 429 428 285 433
f 280 279 285 428
f 426 485 280 428
f 275 274 280 485
f 421 486 275 485
f 426 422 421 485
f 270 269 275 486
f 416 487 270 486
f 421 417 416 486
f 262 264 270 487
f 411 263 262 487
f 416 412 411 487
f 258 257 263 406
f 411 407 406 263
f 402 401 258 406
f 253 252 258 401
f 399 488 253 401
f 248 247 253 488
f 210 209 248 488
f 399 397 210 488
f 392 394 398 404
f 311 195 36 38
f 209 215 243 248
f 217 223 225 234
f 217 216 220 223
f 490 491 492 489
f 493 494 489 492
f 491 495 496 492
f 498 499 500 501 497
f 503 504 497 501 502
f 504 505 498 497
f 507 508 509 510 511 506
f 513 514 512
f 508 515 516 510 509
f 386 202 517 385
f 517 518 387 385
f 520 218 213 519
f 521 503 520 519
f 213 212 521 519
f 230 228 523 522
f 524 231 230 522
f 525 526 524 522
f 523 527 528 522
f 528 529 525 522
f 530 531 524 526
f 532 533 530 526
f 534 535 533 532
f 499 498 535 534
f 536 537 533 535
f 498 505 536 535
f 538 539 537 536
f 505 540 538 536
f 393 391 538 540
f 541 395 393 540
f 505 504 541 540
f 521 212 395 541
f 504 503 521 541
f 520 542 219 218
f 515 501 500 543
f 520 503 502 542
f 387 518 539 389
f 539 538 391 389
f 518 544 537 539
f 545 531 530 544
f 518 517 545 544
f 530 533 537 544
f 201 204 531 545
f 517 202 201 545
f 231 524 531 204
f 546 547 529 528
f 527 490 546 528
f 513 512 547 546
f 490 489 513 546
f 527 548 491 490
f 495 491 548 549
f 550 551 549 548
f 527 523 550 548
f 226 224 551 550
f 523 228 226 550
f 222 221 551 224
f 552 549 551 221
f 495 549 552 553
f 496 495 553 554
f 556 557 558 555
f 559 560 557 556
f 561 562 560 559
f 564 562 561 563
f 564 510 516 565
f 567 565 516 566
f 569 570 571 568
f 557 570 572 558
f 557 560 570
f 560 562 571 570
f 489 494 514 513
f 574 575 576 573
f 577 578 553
f 580 556 555 579
f 582 580 579 581
f 577 583 584 578
f 586 587 588 585
f 221 586 585 552
f 589 586 221 219
f 506 511 591 590
f 592 593 591 511
f 563 594 593 592
f 559 595 596 561
f 556 580 595 559
f 597 598 596 595
f 580 582 597 595
f 599 600 597 582
f 601 599 582 581
f 602 603 604 599 601
f 606 607 608 605
f 583 606 605 584
f 610 611 612 609
f 587 610 609 588
f 613 614 610 587
f 586 589 613 587
f 590 615 613 589
f 617 618 619 616
f 591 593 617 616
f 621 618 617 620
f 620 617 593 594
f 600 623 624 622
f 598 597 600 622
f 625 626 624 623
f 604 627 625 623
f 600 599 604 623
f 628 629 625 627
f 631 628 627 630
f 602 630 627 604 603
f 633 634 635 632
f 607 633 632 608
f 637 638 639 636
f 611 637 636 612
f 640 641 638 637
f 611 642 640 637
f 611 610 614 642
f 643 644 640 642
f 645 643 642 614
f 615 645 614 613
f 647 648 649 646
f 619 618 647 646
f 651 648 647 650
f 650 647 618 621
f 653 651 626 652
f 629 654 655 652
f 626 625 629 652
f 656 657 655 654
f 658 659 656 654
f 629 628 658 654
f 661 659 658 660
f 660 658 628 631
f 663 664 665 662
f 634 663 662 635
f 667 668 669 666
f 638 667 666 639
f 670 671 668 667
f 638 641 670 667
f 672 673 671 670
f 674 672 670 641
f 644 674 641 640
f 676 677 678 675
f 649 648 676 675
f 679 677 676 653
f 680 681 677 679
f 683 680 657 682
f 684 685 686 682
f 657 656 684 682
f 687 688 685 684
f 656 659 687 684
f 690 688 687 689
f 689 687 659 661
f 692 693 694 691
f 664 692 691 665
f 696 697 698 695
f 668 696 695 669
f 699 700 697 696
f 668 671 699 696
f 701 702 700 699
f 673 701 699 671
f 681 704 705 703
f 678 677 681 703
f 706 707 704 683
f 708 709 707 706
f 711 708 712 710
f 713 714 710 712
f 686 685 713 712
f 715 716 714 713
f 685 688 715 713
f 718 719 720 716 715 717
f 718 717 715 688 690 694
f 721 722 719 718
f 693 721 718 694
f 724 725 726 723
f 697 724 723 698
f 727 728 725 724
f 697 700 727 724
f 729 730 728 727
f 702 729 727 700
f 707 709 732 731
f 705 704 707 731
f 733 734 732 709
f 735 736 733 711
f 737 738 736 735
f 740 741 742 739
f 710 714 740 739
f 743 744 741 740
f 714 716 743 740
f 746 747 748 744 743 745
f 719 746 745 743 716 720
f 749 750 747 746
f 722 749 746 719
f 752 753 754 751
f 725 752 751 726
f 755 756 753 752
f 725 728 755 752
f 757 758 756 755
f 730 757 755 728
f 736 738 760 759
f 734 733 736 759
f 761 762 760 738
f 763 761 738 737
f 764 765 761 763
f 767 768 769 766
f 742 741 767 766
f 770 771 768 767
f 741 744 770 767
f 773 774 775 771 770 772
f 747 773 772 770 744 748
f 776 777 774 773
f 750 776 773 747
f 779 780 781 778
f 753 779 778 754
f 782 783 780 779
f 753 756 782 779
f 784 785 783 782
f 758 784 782 756
f 785 787 788 786
f 765 789 788 787
f 762 761 765 787
f 790 791 788 789
f 793 790 789 792
f 792 789 765 764
f 795 796 797 794
f 769 768 795 794
f 798 799 796 795
f 768 771 798 795
f 801 802 803 799 798 800
f 774 801 800 798 771 775
f 804 805 802 801
f 777 804 801 774
f 807 808 809 806
f 780 807 806 781
f 810 811 808 807
f 780 783 810 807
f 786 812 811 810
f 812 813 576 811
f 813 815 816 814
f 817 818 816 815
f 791 790 817 815
f 820 821 818 819
f 823 793 797 822
f 797 796 824 822
f 796 799 825 824
f 802 826 825 799 803
f 805 827 826 802
f 808 575 828 809
f 814 829 830 574 573
f 576 575 808 811
f 833 834 835 831
f 835 836 832 831
f 841 835 834 840
f 834 842 843 840
f 843 844 845 840
f 845 846 847 840
f 847 848 841 840
f 850 851 841 848
f 836 835 841 851
f 843 852 853 844
f 854 855 852
f 843 842 854 852
f 855 856 853 852
f 1070 838 855 854
f 842 837 1070 854
f 834 833 837 842
f 858 846 845 857
f 857 860 861 859
f 859 862 858 857
f 863 864 860 857
f 869 870 871 868
f 867 872 866 865
f 825 826 874 873
f 875 876 877 873
f 877 824 825 873
f 878 879 875 873
f 874 880 878 873
f 882 883 884 881
f 885 886 882 881
f 888 885 881 887
f 889 890 887 881
f 884 512 889 881
f 879 177 176 891
f 14 514 892 891
f 176 15 14 891
f 894 895 892 893
f 897 898 899 896
f 899 534 532 896
f 901 902 903 900
f 905 906 907 904
f 909 910 911 908
f 913 914 915 912
f 917 918 919 916
f 920 921 917 916
f 919 922 923 916
f 924 925 923 922
f 926 927 924 922
f 919 928 926 922
f 929 930 926 928
f 931 932 929 928
f 919 918 931 928
f 933 934 932 931
f 918 935 933 931
f 918 917 936 935
f 937 938 933 935
f 936 939 937 935
f 936 940 941 939
f 862 942 937 939
f 941 858 862 939
f 943 938 937 942
f 944 945 943 942
f 862 859 944 942
f 945 947 948 946
f 949 948 947 888
f 950 951 948 949
f 953 954 955 952
f 887 890 953 952
f 956 957 954 953
f 11 958 959 188
f 960 961 962 182
f 180 963 960 182
f 179 880 963 180
f 178 878 880 179
f 177 879 878 178
f 964 965 960 963
f 880 874 964 963
f 827 909 965 964
f 874 826 827 964
f 828 910 909 827
f 966 906 905 575
f 856 966 575 574
f 967 968 906 966
f 856 855 967 966
f 849 969 970 839
f 916 923 973 972
f 974 920 916 972
f 836 851 920 974
f 850 921 920 851
f 848 940 921 850
f 847 941 940 848
f 846 858 941 847
f 923 925 1079 975 973
f 1079 1080 976 975
f 927 981 979 978
f 982 983 979 981
f 930 984 982 981
f 927 926 930 981
f 206 27 982 984
f 985 324 206 984
f 930 929 985 984
f 986 325 324 985
f 929 932 986 985
f 987 328 325 986
f 932 934 987 986
f 988 329 328 987
f 934 989 988 987
f 934 933 938 989
f 990 991 988 989
f 938 943 990 989
f 946 992 991 990
f 943 945 946 990
f 333 331 991 992
f 337 335 951 950
f 955 954 1 338
f 954 957 4 1
f 993 21 4 957
f 956 994 993 957
f 956 959 995 994
f 996 997 993 994
f 995 914 996 994
f 998 999 997 996
f 914 913 998 996
f 1000 1001 999 998
f 1002 1000 998
f 1084 903 1082
f 980 1005 1001 1000
f 31 52 1001 1005
f 983 32 31 1005
f 980 979 983 1005
f 983 982 27 32
f 24 999 1001 52
f 20 997 999 24
f 21 993 997 20
f 958 1006 995 959
f 960 965 1007 961
f 915 914 995 1006
f 965 909 908 1007
f 1008 907 906 968
f 971 1009 1010 1069
f 866 872 1012 1011
f 1003 903 902 1013
f 329 988 991 331
f 1010 970 969 1069
f 574 830 853 856
f 1014 863 844 853
f 936 917 921 940
f 547 1015 897 529
f 512 884 1015 547
f 884 883 1016 1015
f 1016 898 897 1015
f 883 1017 1018 1016
f 1018 1019 898 1016
f 1018 1020 1021 1019
f 1022 899 898 1019
f 1021 1023 1022 1019
f 1024 1025 1023 1021
f 500 499 1022 1023
f 1025 543 500 1023
f 1027 1028 1029 1026
f 566 1028 1027 567
f 1031 1032 1033 1030
f 1033 569 568 1030
f 1032 1034 569 1033
f 894 893 494 493
f 893 892 514 494
f 1035 1036 1032 1031
f 1026 1037 1035 1031
f 1037 1038 1039 1035
f 1040 1041 1029 1024
f 871 1042 1043 868
f 1017 1044 868 1043
f 1020 1018 1017 1043
f 1045 869 868 1044
f 886 1045 1044 882
f 1017 883 882 1044
f 1047 1048 1049 1046
f 1048 820 822 1049
f 824 877 1049 822
f 877 876 1046 1049
f 876 1050 1039 1046
f 876 875 1051 1050
f 1036 1035 1039 1050
f 1051 895 1036 1050
f 875 879 891 1051
f 891 892 895 1051
f 895 894 1032 1036
f 534 899 1022 499
f 13 188 953 890
f 188 959 956 953
f 839 970 1052 838
f 1053 1052 970 1010
f 1009 1054 1053 1010
f 1055 1056 1012 872
f 1057 1055 872 867
f 838 1052 967 855
f 968 967 1052 1053
f 1054 1008 968 1053
f 1003 1013 1056 1055
f 1004 1003 1055 1057
f 977 1004 1057 1071
f 976 977 1071 1072
f 976 1072 1058 975
f 973 975 1058 1059
f 972 973 1059 1060
f 1060 1068 974 972
f 1068 832 836 974
f 525 529 897 896
f 525 896 532 526
f 552 585 577 553
f 585 588 583 577
f 588 609 606 583
f 609 612 607 606
f 612 636 633 607
f 636 639 634 633
f 639 666 663 634
f 666 669 664 663
f 669 695 692 664
f 695 698 693 692
f 698 723 721 693
f 723 726 722 721
f 726 751 749 722
f 751 754 750 749
f 754 778 776 750
f 778 781 777 776
f 781 806 804 777
f 806 809 805 804
f 809 828 827 805
f 905 904 911 910
f 575 905 910 828
f 570 569 1034 572
f 691 694 690 689
f 665 691 689 661
f 662 665 661 660
f 635 662 660 631
f 632 635 631 630
f 608 632 630 602
f 605 608 602 601
f 584 605 601 581
f 579 578 584 581
f 578 579 555 554 553
f 558 496 554 555
f 496 558 572 492
f 572 1034 493 492
f 502 508 507 542
f 219 542 507 506
f 501 515 508 502
f 566 516 515 543
f 592 511 510 564 563
f 562 564 565 571
f 568 571 565 567
f 818 817 823 819
f 823 822 820 819
f 219 506 590 589
f 561 596 594 563
f 616 619 645 615
f 591 616 615 590
f 622 621 620 598
f 598 620 594 596
f 646 649 644 643
f 619 646 643 645
f 626 651 650 624
f 624 650 621 622
f 675 678 672 674
f 649 675 674 644
f 655 679 653 652
f 676 648 651 653
f 657 680 679 655
f 703 705 701 673
f 678 703 673 672
f 686 706 683 682
f 704 681 680 683
f 712 708 706 686
f 731 732 729 702
f 705 731 702 701
f 739 735 711 710
f 733 709 708 711
f 742 1061 737 735 739
f 759 760 758 757
f 734 759 757 730
f 769 764 763 766
f 742 766 763 737 1061
f 762 787 785 784
f 760 762 784 758
f 783 785 786 810
f 797 793 792 794
f 794 792 764 769
f 791 815 813 812
f 788 791 812 786
f 576 813 814 573
f 816 1062 829 814
f 817 790 793 823
f 732 734 730 729
f 845 844 863 857
f 1063 1048 1047 871 870
f 864 1064 1063 870 869
f 1065 947 945 944
f 861 1065 944 859
f 947 1065 885 888
f 1065 861 886 885
f 952 949 888 887
f 955 950 949 952
f 333 992 951 335
f 948 951 992 946
f 338 337 950 955
f 830 829 1014 853
f 1064 864 863 1014
f 543 1025 1028 566
f 1030 1027 1026 1031
f 1029 1028 1025 1024
f 568 567 1027 1030
f 1042 1038 1037 1041 1040
f 1029 1041 1037 1026
f 1043 1042 1040 1020
f 1020 1040 1024 1021
f 860 864 869 1045
f 861 860 1045 886
f 1047 1038 1042 871
f 1039 1038 1047 1046
f 1063 821 820 1048
f 829 1062 1064 1014
f 1063 1064 1062 821
f 818 821 1062 816
f 183 182 962 184
f 184 962 11 10
f 958 11 962 961
f 961 1007 1006 958
f 1007 908 915 1006
f 908 911 912 915
f 913 912 901 900
f 1013 902 907 1008
f 1056 1013 1008 1054
f 1012 1056 1054 1009
f 1011 1012 1009 971
f 904 907 902 901
f 901 912 911 904
f 900 1002 998 913
f 1083 1002 900
f 890 889 14 13
f 514 14 889 512
f 1032 894 493 1034
f 1069 969 849
f 1066 839 838 1074
f 849 839 1066
f 1074 838 1070
f 1067 867 865 1073
f 1073 865 866
f 1071 1057 867 1067
f 1076 980 1000
f 978 979 980 1076
f 1081 977 976 1080
f 1077 924 927 978
f 1078 925 924 1077
f 1079 925 1078
f 1082 903 1003 1004
f 1083 900 903 1084
f 1004 977 1081
f 1081 1086 1075 1004
f 1080 1085 1086 1081
f 1085 1080 1079 1078
f 1075 1082 1004
