# Original Z-Anatomy world coordinates in meters; no atlas registration
o Vestibule.r
v -0.04075640067 0.006394077092 1.583738446
v -0.04123434424 0.006417314056 1.584071636
v -0.04111497849 0.006186612882 1.584154725
v -0.04090005532 0.006567538716 1.583250284
v -0.04128727317 0.006718247198 1.583618283
v -0.03939308971 0.007682533003 1.581738472
v -0.03907768056 0.00782891456 1.581947207
v -0.03947942704 0.00846124813 1.581988931
v -0.03974985704 0.008277889341 1.581791639
v -0.03991886601 0.008253401145 1.581483364
v -0.03950503841 0.007595581468 1.58156395
v -0.03865373135 0.007939769886 1.581970334
v -0.03876383603 0.007307747845 1.58195138
v -0.03817911819 0.007469977252 1.582121015
v -0.03827347234 0.007637822069 1.581922174
v -0.03897427022 0.008748117834 1.581944346
v -0.03918287903 0.00865519233 1.582017779
v -0.04019472376 0.009005525149 1.581861258
v -0.04034268484 0.008959785104 1.581632614
v -0.04155219346 0.006598580629 1.582954288
v -0.04115097597 0.006578103639 1.582959414
v -0.04191069305 0.007037229836 1.58335197
v -0.0418010205 0.006982789375 1.583828568
v -0.04190227017 0.006312354933 1.582764864
v -0.04218888283 0.00683814846 1.583021998
v -0.0430402346 0.005079191178 1.583788037
v -0.04245638847 0.004428103566 1.584198952
v -0.04252108559 0.00481233187 1.584540725
v -0.04313387722 0.005272183567 1.584231973
v -0.04320962727 0.005424892064 1.583458424
v -0.04272902384 0.004998269025 1.583340406
v -0.04264366999 0.004712280817 1.583574176
v -0.04166677967 0.006514991634 1.584322214
v -0.04155199602 0.006107191555 1.584443808
v -0.04212467372 0.006490760483 1.584599614
v -0.04187940434 0.006042033434 1.584650755
v -0.04245531559 0.006340295076 1.584759116
v -0.04220659658 0.005890485831 1.584767938
v -0.04274184257 0.00699575711 1.584571123
v -0.04300026596 0.006781281903 1.584729075
v -0.04250109941 0.007136792876 1.584351897
v -0.04318787158 0.007654087618 1.584324002
v -0.04338684306 0.007525361609 1.584496975
v -0.0424441807 0.007344876416 1.583951712
v -0.04298735783 0.007751150057 1.583984494
v -0.04250740632 0.00737513788 1.583522677
v -0.04295454547 0.00773314666 1.583598256
v -0.04276045039 0.007192766294 1.583200216
v -0.04319025204 0.007565071341 1.583316326
v -0.04281421006 0.006215541624 1.583002567
v -0.04334983602 0.006623866968 1.583156705
v -0.04250437021 0.005727205426 1.582925797
v -0.0438259989 0.006040930748 1.583565593
v -0.04437342286 0.006793507375 1.583720207
v -0.04380428791 0.007170938887 1.583319068
v -0.04385294393 0.005871084519 1.58383584
v -0.04447547346 0.006715363823 1.583941936
v -0.04382162169 0.005886630155 1.584269643
v -0.04446804523 0.006717756391 1.584305286
v -0.0429780297 0.005702634808 1.584640384
v -0.04353225976 0.006171294488 1.584670544
v -0.04251268134 0.005287001841 1.584635139
v -0.04240938276 0.005689802114 1.584781408
v -0.04270405322 0.00611363817 1.584804535
v -0.04323462397 0.006532759871 1.584787965
v -0.04386117682 0.007188043557 1.584669352
v -0.04418000206 0.00693572592 1.584619284
v -0.04362252727 0.007367108949 1.58461237
v -0.04402172565 0.008134400472 1.584369779
v -0.04425971955 0.008055776358 1.584413886
v -0.0437778607 0.008206775412 1.584282756
v -0.04390653968 0.008904535323 1.583904505
v -0.04413399473 0.008920788765 1.58395803
v -0.04355842993 0.008250351995 1.584151745
v -0.0436979942 0.008862603456 1.583816051
v -0.04331314936 0.008248255588 1.583873153
v -0.04344588891 0.008754699491 1.58361578
v -0.04324394837 0.008160313591 1.583542585
v -0.04333857074 0.008609615266 1.583347321
v -0.04347484186 0.008012998849 1.583313584
v -0.04353288189 0.008502552286 1.583129287
v -0.0440884456 0.007829198614 1.583318353
v -0.04412504658 0.0085130753 1.583078027
v -0.04468201101 0.007713263854 1.583629012
v -0.04472254962 0.008635938168 1.583273888
v -0.04482652992 0.007711995393 1.583804846
v -0.04488301277 0.008704598993 1.583404899
v -0.04486874491 0.007769478019 1.58411634
v -0.04496710747 0.008825078607 1.583667278
v -0.04458020255 0.007931095548 1.584376931
v -0.04468854889 0.008924185298 1.583924174
v -0.04436364397 0.008934685029 1.583975434
v -0.04412054643 0.00969972834 1.583477855
v -0.04438815638 0.009809872136 1.583376169
v -0.04392873123 0.009614095092 1.583489776
v -0.04340863228 0.01018232666 1.583056808
v -0.04353743419 0.01030304562 1.583034039
v -0.04373175651 0.009523230605 1.583465815
v -0.04328002781 0.0100555066 1.583048582
v -0.04355586693 0.009417761117 1.583415866
v -0.04315973073 0.009920193814 1.583018422
v -0.04333600402 0.009242412634 1.583284497
v -0.04300882667 0.00970826298 1.58293128
v -0.04322848096 0.009057424963 1.583083153
v -0.04292764515 0.009500008076 1.582783222
v -0.04339075089 0.00897567533 1.582864285
v -0.04303463176 0.00943287462 1.582573295
v -0.04389616475 0.009127912112 1.58273983
v -0.04338853806 0.009664945304 1.582398176
v -0.04439192265 0.009450102225 1.582794309
v -0.04371697828 0.01005242951 1.582390189
v -0.04452341795 0.00959304627 1.582869053
v -0.04380451143 0.010204155 1.582440138
v -0.04460473359 0.009786058217 1.583076835
v -0.04385643452 0.01039822213 1.58260715
v -0.04372220486 0.01043386478 1.582901716
v -0.04280795902 0.01079691201 1.582622409
v -0.0429575108 0.01093393937 1.582478881
v -0.04194764048 0.01112726144 1.582185864
v -0.04205606505 0.01131390221 1.582004189
v -0.0427210927 0.01065302268 1.582651973
v -0.04190402478 0.01094976254 1.582255602
v -0.0426424332 0.01050267927 1.582653403
v -0.04187267646 0.01076694578 1.582292318
v -0.04257903621 0.01034256909 1.582643747
v -0.04185959697 0.0105789341 1.582315326
v -0.04248953238 0.0101053454 1.582591057
v -0.04185443372 0.01030654367 1.582305074
v -0.0424391143 0.009881258011 1.582482934
v -0.04187564924 0.01006482355 1.58221674
v -0.0425205268 0.009821865708 1.582277179
v -0.04196395725 0.009997574612 1.582002759
v -0.04276982322 0.01009424031 1.58206439
v -0.04209415242 0.01033076365 1.581696033
v -0.04299243167 0.01051352918 1.582018495
v -0.04216727614 0.0108445771 1.581555843
v -0.04305029288 0.01067192107 1.582057238
v -0.04218946397 0.0110320691 1.581573248
v -0.04308118299 0.01087848097 1.582199454
v -0.04217807576 0.01127280481 1.581696153
v -0.04091598466 0.01129852142 1.581673145
v -0.0409861207 0.01119325683 1.581321836
v -0.04095157236 0.01111602224 1.581917524
v -0.04001905769 0.01057786867 1.581870079
v -0.03994578123 0.0106564872 1.581601262
v -0.04099602252 0.01092804316 1.582013845
v -0.04013310745 0.01044917759 1.581972718
v -0.04104097933 0.01072213985 1.582087278
v -0.0402549915 0.01030079369 1.582030773
v -0.04109075665 0.01051562931 1.582133889
v -0.04036224261 0.01012602076 1.582066655
v -0.04117567092 0.01022033393 1.582139969
v -0.0405330658 0.009865084663 1.582055807
v -0.04128626361 0.009963359684 1.58205235
v -0.04070517793 0.009639576077 1.581953526
v -0.04139240831 0.009878776968 1.581818461
v -0.04083805904 0.009537898004 1.581723332
v -0.04139593616 0.01019954681 1.581433058
v -0.04076964408 0.009768098593 1.581327081
v -0.04119944945 0.01072688028 1.581229925
v -0.04044919834 0.01018012594 1.58115828
v -0.04110755771 0.01092381496 1.581223249
v -0.04029853269 0.01032868866 1.581172466
v -0.04008449614 0.01053063571 1.581275344
v -0.03934944049 0.009876238182 1.581548929
v -0.03953031451 0.009808056056 1.581228971
v -0.03887917846 0.009217614308 1.581403136
v -0.03912128136 0.009230532683 1.581114054
v -0.03937162086 0.009808838367 1.58182478
v -0.03881792724 0.009068367071 1.581669688
v -0.03947151825 0.009705381468 1.581951976
v -0.03888689727 0.008924788795 1.58184278
v -0.03960662708 0.00958208181 1.582018495
v -0.03975196183 0.009450005367 1.582047939
v -0.03997668624 0.009241554886 1.582020402
v -0.03825842962 0.007876767777 1.581762314
v -0.03826733679 0.008338543586 1.581438065
v -0.03842143714 0.008601995185 1.581192255
v -0.03880879283 0.008773868904 1.580915093
v -0.03915434331 0.008672427386 1.580844641
v -0.03937924281 0.009124692529 1.581001878
v -0.03940727934 0.008512478322 1.580852509
v -0.03955451772 0.009020211175 1.580977321
v -0.03991381079 0.008637752384 1.581145525
v -0.04028148949 0.009194925427 1.581251025
v -0.03991857171 0.009545857087 1.581093669
v -0.03975945711 0.009662250057 1.581115365
v -0.03922205418 0.007167271338 1.581862211
v -0.04144616425 0.006087328307 1.585002899
v -0.04083636776 0.006098689511 1.584372044
v -0.04101016372 0.006063284352 1.585261941
v -0.04057005048 0.005986934993 1.584583044
v -0.04169412702 0.006114383228 1.585741162
v -0.04137377441 0.006102968939 1.585864663
v -0.04193650931 0.005997830071 1.585148811
v -0.0420290418 0.006046412047 1.585723996
v -0.03577012569 0.007651700638 1.585716605
v -0.03581892699 0.008034683764 1.585694671
v -0.03590365499 0.008009271696 1.585100174
v -0.03574469686 0.007553183474 1.585176945
v -0.0358550027 0.007423693314 1.584587574
v -0.03566375375 0.007356727496 1.584721446
v -0.03606348857 0.008031454869 1.584652185
v -0.03607131913 0.00753109483 1.584423661
v -0.04252399877 0.00531390449 1.585143447
v -0.04202869534 0.004148406908 1.584595442
v -0.04198562354 0.004390770569 1.585568786
v -0.03499699757 0.008218029514 1.584996223
v -0.03499073535 0.008213347755 1.585748076
v -0.0348069407 0.008125077933 1.585836291
v -0.03474922106 0.008060215041 1.585184336
v -0.03473045304 0.00794970803 1.584610581
v -0.03487179801 0.008099917322 1.58445096
v -0.0353060104 0.008312939666 1.585086823
v -0.03521122038 0.008261898533 1.585737586
v -0.03532400355 0.0083570024 1.584436417
v -0.0355669558 0.008380884305 1.584543228
v -0.03512169793 0.008280901238 1.584217787
v -0.03563326225 0.008566431701 1.583816767
v -0.03579076007 0.008488620631 1.583977818
v -0.0363166444 0.008694885299 1.583506942
v -0.03633953258 0.008555009961 1.583594799
v -0.03594962135 0.008425088599 1.584066868
v -0.03643655777 0.008417006582 1.583650947
v -0.03605755046 0.008364472538 1.584130764
v -0.03649998456 0.008265766315 1.583728075
v -0.03617079556 0.008263111115 1.584184051
v -0.0365079008 0.008113913238 1.583822846
v -0.03626783565 0.008113142103 1.58420825
v -0.03649033234 0.007973806933 1.583917856
v -0.03631491587 0.00770233199 1.584190607
v -0.03594785929 0.008226374164 1.584636688
v -0.03576193005 0.008221473545 1.585119724
v -0.03577236459 0.008342685178 1.584603786
v -0.03552537039 0.008313852362 1.585100293
v -0.03566867858 0.008212761953 1.585699677
v -0.03544466943 0.008268632926 1.585720658
v -0.0358761102 0.008072858676 1.586336136
v -0.03573444113 0.008209606633 1.58637023
v -0.03553829715 0.008256106637 1.586416721
v -0.03595309332 0.008204566315 1.587079644
v -0.03578655422 0.00825181324 1.587149143
v -0.03533792868 0.008255820721 1.586467028
v -0.03561106324 0.008259760216 1.587219596
v -0.03614874929 0.008264787495 1.587840438
v -0.03599362075 0.008279422298 1.587936044
v -0.03544302657 0.008231895976 1.587296367
v -0.03514155 0.008219875395 1.586519241
v -0.03584067151 0.008255464956 1.588033199
v -0.03648959845 0.008319716901 1.588583112
v -0.03635930642 0.00830155611 1.588710189
v -0.03570078686 0.008186364546 1.58812964
v -0.03528574109 0.00815972127 1.58736968
v -0.03624511138 0.008224822581 1.588831306
v -0.03703672439 0.008340997621 1.589266658
v -0.03695232794 0.008251717314 1.589407802
v -0.0361606814 0.008093561977 1.588929176
v -0.03559022397 0.008066394366 1.588209391
v -0.03689533472 0.008104641922 1.589509249
v -0.03780181333 0.008212981746 1.589824319
v -0.03775863722 0.00804699026 1.589916229
v -0.03688850626 0.007737048902 1.589513421
v -0.03614248335 0.007740870584 1.588967681
v -0.03771761805 0.007666432299 1.589885473
v -0.03869010136 0.007860650308 1.590091705
v -0.03858412057 0.007479479536 1.590063691
v -0.03957725316 0.007570256945 1.59002471
v -0.03944538161 0.00720125623 1.590017676
v -0.03854877502 0.007319766097 1.589945674
v -0.0377253443 0.007504867855 1.589773655
v -0.03937925771 0.007055267692 1.58990097
v -0.04027355462 0.006874732673 1.589831114
v -0.04017753899 0.006737334654 1.589707494
v -0.039317552 0.00695200311 1.589743495
v -0.03852568567 0.00720115006 1.58978498
v -0.04008381069 0.006650415249 1.589544058
v -0.04090218246 0.006406481378 1.589323282
v -0.04076454043 0.006345373578 1.589170337
v -0.03999313712 0.006614567246 1.589360714
v -0.03927391395 0.006892346311 1.589562654
v -0.04063520581 0.006326706149 1.588997722
v -0.04131410643 0.006038207561 1.588638306
v -0.04114086181 0.006040455773 1.588504076
v -0.04051120952 0.006359473802 1.588821888
v -0.03991708159 0.006636672188 1.58917129
v -0.0409825258 0.006090227049 1.588362694
v -0.04148581252 0.005791688338 1.587947845
v -0.04130418599 0.005854381714 1.587844968
v -0.04082163423 0.006370402873 1.588085771
v -0.04039913788 0.00661510136 1.588509798
v -0.04110496864 0.006155141164 1.587630868
v -0.04147651047 0.005632115528 1.587329268
v -0.04125304893 0.00595652638 1.587166548
v -0.04144673422 0.00538124796 1.58682847
v -0.04120356217 0.005753553007 1.586705565
v -0.04131567478 0.006150390022 1.587092876
v -0.04116940498 0.006355301943 1.587568402
v -0.04125029594 0.005963379517 1.58661449
v -0.04089280218 0.005533162039 1.586276889
v -0.0409389399 0.005788840819 1.586153865
v -0.04164874926 0.006182800047 1.586452246
v -0.0417021513 0.006365553476 1.587043762
v -0.04050968215 0.005613201763 1.585639
v -0.04189902544 0.006189486012 1.586405635
v -0.04193340242 0.006397673395 1.587054014
v -0.04215578362 0.006141133141 1.586367011
v -0.04216194153 0.006400587037 1.587080836
v -0.04239691049 0.00605696626 1.586360216
v -0.04237454757 0.006358786486 1.587133408
v -0.04230257124 0.005898855627 1.585674882
v -0.04224509373 0.00583884865 1.585173965
v -0.04252597317 0.005673191044 1.585684896
v -0.04258900508 0.005908654071 1.586394429
v -0.04245977476 0.005573066883 1.585173011
v -0.04262174666 0.005459827371 1.585762978
v -0.04268525168 0.005711520556 1.586474419
v -0.04260379449 0.005176842213 1.585821629
v -0.04266377911 0.005510366987 1.586575031
v -0.042213168 0.004756066483 1.586125135
v -0.04235903174 0.005230838433 1.586760879
v -0.04164916277 0.004324957263 1.585720539
v -0.04194007069 0.004718407989 1.586253524
v -0.04151157662 0.004116479773 1.585150599
v -0.0417821072 0.003933839034 1.584466219
v -0.04142746329 0.003924897872 1.584616303
v -0.04111697525 0.004154716153 1.585232973
v -0.04129688069 0.004370167851 1.585821986
v -0.04105861485 0.004005124327 1.584710956
v -0.0406893082 0.004197798669 1.584727764
v -0.04075278342 0.004302503075 1.585253239
v -0.04036208615 0.004494782072 1.584654927
v -0.04045275971 0.004546250682 1.585228205
v -0.03997635841 0.005050155334 1.584426522
v -0.04017016664 0.005194514059 1.585083723
v -0.03980966285 0.005468012299 1.584204316
v -0.04020408541 0.005509663373 1.58493638
v -0.03986699134 0.005967955571 1.583833814
v -0.04005807266 0.006287386641 1.583534122
v -0.0404603295 0.005291594192 1.585776806
v -0.0407163389 0.00472471118 1.58588469
v -0.04114829749 0.005046810023 1.586390018
v -0.04165459797 0.005256763194 1.586853623
v -0.04138008878 0.004874174017 1.586387038
v -0.04166890681 0.005553005263 1.587400794
v -0.04188611731 0.0055210297 1.587447047
v -0.0418911539 0.005189238116 1.586854458
v -0.04168468714 0.005778717343 1.588040948
v -0.0418924503 0.005810398608 1.588111877
v -0.04211500287 0.005535035394 1.587468266
v -0.04149254784 0.006079197861 1.588754296
v -0.041660849 0.006173280533 1.588844776
v -0.04208695516 0.005893161986 1.588166714
v -0.04103950411 0.006518171169 1.589437604
v -0.04122859985 0.00687874062 1.589450002
v -0.04187200963 0.006527612451 1.588848352
v -0.04043018073 0.007248833776 1.589849949
v -0.03962484375 0.007740129717 1.589920521
v -0.04047251865 0.007424463518 1.589745283
v -0.03873844817 0.008032238111 1.589998126
v -0.03877637908 0.008167270571 1.589857459
v -0.03965888917 0.007886940613 1.589784861
v -0.03785659373 0.008321185596 1.589676499
v -0.03791677952 0.008342754096 1.589497805
v -0.03879586607 0.008213417605 1.589672327
v -0.03713681549 0.00835814327 1.589110732
v -0.03724054992 0.008311629295 1.588962078
v -0.03797597438 0.008273631334 1.589328408
v -0.03662219271 0.008289432153 1.588461876
v -0.036745511 0.008215572685 1.588349223
v -0.03732983023 0.008216169663 1.588828921
v -0.03629657999 0.008209409192 1.58775115
v -0.03640889749 0.008091647178 1.587682009
v -0.03684009984 0.0080915289 1.58826232
v -0.03608079255 0.008083131164 1.587028503
v -0.03607553244 0.007730008569 1.587034345
v -0.03641292825 0.00775438128 1.587676406
v -0.03586503118 0.007690974511 1.586345434
v -0.0357388407 0.007545991801 1.58638227
v -0.03597078472 0.007584209554 1.587080836
v -0.03562777862 0.00750850793 1.585731506
v -0.03527930379 0.007349363528 1.585814834
v -0.03540245071 0.007380400784 1.586479425
v -0.03561672196 0.00744595658 1.585216999
v -0.03526519984 0.007321063429 1.585327864
v -0.03523761034 0.00727105746 1.584892631
v -0.03547152132 0.007311752066 1.584834456
v -0.03510293365 0.00727433851 1.58492291
v -0.03508109972 0.007305447944 1.585361123
v -0.03493133187 0.007312162779 1.584950686
v -0.0348976776 0.007334550377 1.585377097
v -0.03478006646 0.007403424475 1.584939957
v -0.03473191336 0.007418314926 1.585375071
v -0.03468751162 0.007541617844 1.58488965
v -0.03461617976 0.007560991682 1.585350394
v -0.03465966135 0.007779388689 1.584751606
v -0.03463336825 0.00791179575 1.58523941
v -0.03465160728 0.007967325859 1.585845113
v -0.03460720181 0.007587656844 1.585900307
v -0.03482834622 0.008006599732 1.586627126
v -0.03477380052 0.007633359171 1.586665273
v -0.03516005725 0.008034257218 1.587432146
v -0.0351126641 0.007678677328 1.587474227
v -0.03487540781 0.007475645281 1.586640477
v -0.03472267464 0.007433824241 1.585898161
v -0.03520581126 0.007523125969 1.58744061
v -0.03555371612 0.007723585237 1.58825171
v -0.0356423445 0.007576632313 1.5881989
v -0.03534636647 0.007428664714 1.587373495
v -0.03503543511 0.007384847384 1.586591363
v -0.03576982394 0.007481307723 1.588113546
v -0.03620604426 0.007588001434 1.588894129
v -0.03630374745 0.007485491224 1.588779807
v -0.03591428325 0.007439956069 1.588013887
v -0.03550921381 0.007396033034 1.587294817
v -0.03642332554 0.007439869922 1.588649273
v -0.03699150309 0.007454669569 1.589295506
v -0.03705812246 0.007382324897 1.589139342
v -0.03654644638 0.007445700467 1.58851409
v -0.03606278449 0.007450182457 1.587911606
v -0.03714922071 0.007383900229 1.588980198
v -0.03778113052 0.007297895849 1.58945477
v -0.03782725334 0.007277798839 1.589275002
v -0.0373272039 0.007568615489 1.588725805
v -0.03677884489 0.007606147788 1.588293433
v -0.03794879094 0.007472979836 1.589001298
v -0.03853271902 0.007108910009 1.589405537
v -0.03860865533 0.0073210462 1.589108825
v -0.03923845291 0.006900785957 1.589369655
v -0.03925604001 0.007127947174 1.589060068
v -0.03865806013 0.007505676709 1.589071035
v -0.0380027853 0.007646591403 1.588960052
v -0.03930832446 0.007314720191 1.589013219
v -0.03986222669 0.006878245622 1.588854551
v -0.03991740569 0.007068478502 1.588804603
v -0.03945381939 0.007656688802 1.589147568
v -0.03873881325 0.007866647094 1.589205861
v -0.04012133181 0.00739601627 1.588922977
v -0.04045332596 0.006810705177 1.588450789
v -0.04069887102 0.007120898925 1.588560581
v -0.04088156298 0.006568827666 1.58802259
v -0.0411798954 0.006856604479 1.588101506
v -0.04084573314 0.007212613709 1.588684916
v -0.04024065286 0.007505369373 1.589053035
v -0.04135275632 0.006938128732 1.588199973
v -0.04152647778 0.006607798394 1.587597013
v -0.04173307121 0.006669208407 1.587653399
v -0.04152357206 0.006978722289 1.588325024
v -0.04099236429 0.00726533588 1.588836193
v -0.04193324223 0.006698745303 1.587735415
v -0.0421179831 0.006676407531 1.587845206
v -0.04168261215 0.006960991304 1.588470697
v -0.04226566479 0.006585327908 1.587966084
v -0.04180636629 0.006874491461 1.588625669
v -0.04254659265 0.006255473942 1.587208509
v -0.04263667017 0.006090080831 1.587302566
v -0.04234742373 0.006425495259 1.588078141
v -0.04262114316 0.005897236988 1.587386966
v -0.04234065861 0.006227336824 1.588156462
v -0.04232868552 0.005599663593 1.5874722
v -0.04213298485 0.005181683693 1.58682704
v -0.04165289551 0.004761499818 1.586341858
v -0.04096941277 0.00451161433 1.585871577
v -0.04187367484 0.006721385289 1.588758588
v -0.04125220701 0.007058891002 1.589344263
v -0.04121794179 0.007196773309 1.589188814
v -0.04048639908 0.007561342325 1.589590073
v -0.04044318572 0.007612350397 1.589396834
v -0.04112134129 0.007266839035 1.589010715
v -0.03965606168 0.00795436278 1.589605927
v -0.03960227966 0.007891408168 1.589429498
v -0.04035237804 0.007577834651 1.589214325
v -0.03878842294 0.008142394945 1.589488745
v -0.03876579925 0.008017739281 1.589336514
v -0.03953022882 0.00778823439 1.589276552
v -0.03801603988 0.008151996881 1.589183807
v -0.0380384922 0.008002595976 1.589064479
v -0.03739251569 0.008078277111 1.588724375
v -0.03739168867 0.007729752921 1.588665366
v -0.03685438633 0.007754155435 1.588231564
v -0.03632391244 0.007610647939 1.587732553
v -0.03567591682 0.00741607137 1.587217927
v -0.03521766514 0.007358225994 1.586535096
v -0.03508784994 0.007325954735 1.585852385
v -0.03489690647 0.007348810788 1.585883975
v -0.03852462769 0.007124982774 1.589600444
v -0.03774850816 0.007380326744 1.589626193
v -0.03693251312 0.007577326149 1.589423418
v -0.03496524319 0.008141782135 1.586576343
v -0.03719558939 0.008061237633 1.582532287
v -0.03705950081 0.007884352468 1.583055377
v -0.03697756305 0.008332255296 1.582991242
v -0.03687507659 0.008547892794 1.582475901
v -0.03674858063 0.00843148306 1.582129955
v -0.03718247265 0.008115509525 1.582170725
v -0.03686534241 0.008733743802 1.58298707
v -0.0367939584 0.0089610219 1.582647562
v -0.03524951637 0.007770089433 1.583544254
v -0.03531307355 0.007515809033 1.583621144
v -0.03544675931 0.007508812938 1.583318114
v -0.03539961576 0.007824094035 1.583111882
v -0.03528575227 0.007994002663 1.583344817
v -0.03525895253 0.008189325221 1.583497643
v -0.03507514298 0.007826788351 1.583910584
v -0.03509573266 0.007666276768 1.5838902
v -0.03515816852 0.007486232556 1.583919764
v -0.03543122485 0.008980229497 1.583494663
v -0.03535048291 0.008773742244 1.583408237
v -0.03529247642 0.008608421311 1.583272576
v -0.03529247642 0.008608421311 1.583272576
v -0.03527983651 0.009147759527 1.583019495
v -0.03517533094 0.009741595015 1.583249688
v -0.03769940138 0.006852950901 1.582808018
v -0.03747050464 0.007577930577 1.582662344
v -0.03759906068 0.00773542095 1.582264781
v -0.03531921655 0.008359219879 1.583099008
v -0.03537536412 0.00864185486 1.582876563
v -0.03551670164 0.007271218114 1.584531903
v -0.03536183015 0.00724633364 1.584436297
v -0.03498400748 0.007941760123 1.584146738
v -0.03509019315 0.008028380573 1.583982825
v -0.0349399671 0.007799581625 1.584170103
v -0.03646453097 0.007458516397 1.583757281
v -0.03663128987 0.007868001238 1.583686113
v -0.03622055426 0.00738362316 1.583929539
v -0.03613001853 0.007010511123 1.583373785
v -0.03591353074 0.007018285803 1.583521485
v -0.03679152578 0.007817704231 1.583477616
v -0.03665148094 0.007388423197 1.58351922
v -0.03650766611 0.006912591867 1.583266497
v -0.03578017652 0.007214806974 1.583948016
v -0.03601205349 0.007337517105 1.584114552
v -0.03580946103 0.007117733359 1.583421946
v -0.03558628261 0.00723155681 1.583798409
v -0.03559745103 0.007272789255 1.58341372
v -0.03542772308 0.007339121774 1.583702445
v -0.03526062518 0.007343201432 1.583978772
v -0.03540495783 0.007257338613 1.584070683
v -0.03508263826 0.007358564995 1.58428669
v -0.03519734368 0.007281078957 1.584350586
v -0.0349987857 0.007470441051 1.584240794
v -0.03494695574 0.00760045182 1.584215403
v -0.03531626612 0.008362946101 1.583642602
v -0.03541602939 0.008110376075 1.582900882
v -0.03558204696 0.007232437842 1.584174275
v -0.03575343639 0.007292767987 1.584321976
v -0.03708596155 0.007404470351 1.583130956
v -0.03709685802 0.006863532588 1.583051205
v -0.03678521886 0.008207639679 1.58338201
v -0.03669462353 0.008556880057 1.583308935
v -0.03663853928 0.008200864308 1.583569527
v -0.03655332699 0.008492449299 1.58347559
v -0.03656275943 0.008885258809 1.583274364
v -0.03674524277 0.009028495289 1.583100557
v -0.03682713956 0.00922203809 1.58285594
v -0.03654620424 0.009796725586 1.582648277
v -0.03632199392 0.009958815761 1.582627058
v -0.0363246426 0.009367818013 1.582517982
v -0.03656297922 0.009161229245 1.582583785
v -0.03612296656 0.01003350504 1.582656384
v -0.03611330688 0.009375351481 1.582537174
v -0.0359085612 0.01007191278 1.582717061
v -0.03591459617 0.009389409795 1.582591057
v -0.0354937762 0.0100476332 1.582903624
v -0.03553809598 0.009324157611 1.582758546
v -0.03560655192 0.008860332891 1.582643032
v -0.03549674898 0.008365876041 1.58268559
v -0.03570307791 0.008485567756 1.582517982
v -0.03596995026 0.008549747989 1.582364678
v -0.03631702811 0.008546682075 1.582233191
v -0.036222592 0.008936164901 1.582394838
v -0.03595718369 0.008943447843 1.582469106
v -0.03656548634 0.008755063638 1.582424045
v -0.03895686567 0.005298217759 1.579388618
v -0.03889894485 0.005292374641 1.579645514
v -0.03912528977 0.005744595546 1.579564095
v -0.03914983943 0.005539393052 1.579158425
v -0.03658599779 0.01037219167 1.583259821
v -0.03669277206 0.01039310545 1.582885146
v -0.03657497838 0.01043817587 1.58273375
v -0.0363923721 0.01049190201 1.582662702
v -0.036736276 0.01102676149 1.582703233
v -0.03656685352 0.01107512321 1.5826267
v -0.03678533435 0.0110921599 1.58320415
v -0.03685227782 0.01100852713 1.58285284
v -0.03643029928 0.01039258204 1.583388329
v -0.03627710417 0.01041265391 1.58351481
v -0.03652572259 0.01121958345 1.583460927
v -0.03665447608 0.01115639135 1.583333611
v -0.03610227257 0.0104471771 1.583610892
v -0.0355534479 0.01060346235 1.58359313
v -0.03542181849 0.01065172907 1.583378792
v -0.03524590656 0.009924784303 1.583093047
v -0.03545836359 0.01070809923 1.58317709
v -0.03565239161 0.01067323796 1.582924247
v -0.03619369864 0.01054393686 1.582677126
v -0.0359999314 0.01059218869 1.58273232
v -0.03638455272 0.01114233024 1.582621336
v -0.03621308506 0.01122283004 1.58266449
v -0.03689239174 0.01169909257 1.582460761
v -0.03672920913 0.01178471278 1.582441688
v -0.03704487905 0.01165549364 1.582554579
v -0.0374244079 0.01220345497 1.58229208
v -0.03741623461 0.01220084168 1.582280278
v -0.03727374971 0.01223471761 1.582176924
v -0.03715410829 0.01165886968 1.582703829
v -0.03711657226 0.01181061007 1.58303237
v -0.03751572967 0.01244551688 1.582724571
v -0.03751799092 0.01223332621 1.582425952
v -0.03701226413 0.01190317236 1.583162665
v -0.03690963611 0.01199423522 1.583291054
v -0.03738385066 0.01270737313 1.582970977
v -0.03744925931 0.01257750578 1.582848787
v -0.03637256101 0.0112897642 1.583560228
v -0.0367833972 0.01209053397 1.583396077
v -0.0358672291 0.01152280904 1.583526492
v -0.03576830029 0.01155816205 1.583364964
v -0.03576293588 0.01153821312 1.583173394
v -0.03627178445 0.0123189725 1.582983375
v -0.03627853096 0.01236648113 1.583166003
v -0.0359261781 0.01140252501 1.582854152
v -0.03636935353 0.01212949492 1.582674742
v -0.03658149019 0.01189083979 1.582482457
v -0.03712968901 0.01233229041 1.582142591
v -0.03701060265 0.01246471517 1.582177162
v -0.03756801412 0.01272880286 1.581715107
v -0.03747782484 0.01288860664 1.581732035
v -0.03769954294 0.01261712238 1.581767678
v -0.03815833852 0.01282228529 1.581266284
v -0.0380311273 0.01295016333 1.581191897
v -0.0378369689 0.01259155758 1.581881285
v -0.03830775246 0.01279884763 1.581390142
v -0.03794458881 0.0126442425 1.582020998
v -0.03801150993 0.01290372387 1.582282782
v -0.03859397769 0.01315704547 1.581755042
v -0.03843914717 0.01286417246 1.581526279
v -0.03798937425 0.01306298003 1.582386732
v -0.03796760738 0.01321967691 1.582489014
v -0.03864162788 0.01352193952 1.581912518
v -0.03861799836 0.01334096864 1.581834435
v -0.03791552037 0.01339237392 1.582549572
v -0.03861501813 0.01371894032 1.581941485
v -0.03729328886 0.01284366846 1.583067179
v -0.0369197242 0.01313494332 1.582993865
v -0.03758503869 0.01371427625 1.582403064
v -0.0363471061 0.01235715859 1.583341837
v -0.03685396165 0.01309070364 1.582825065
v -0.03683611751 0.01299968548 1.58265841
v -0.03743171692 0.01352036186 1.582119584
v -0.03749190271 0.01364230923 1.582255244
v -0.03686950356 0.01275232621 1.582364917
v -0.03739447519 0.01322268881 1.58187902
v -0.0379598923 0.01313276403 1.581186652
v -0.03793517128 0.01351996884 1.581281543
v -0.03847507387 0.01303759031 1.58062768
v -0.03842192888 0.01323199645 1.580581427
v -0.03888360411 0.01295321248 1.580052257
v -0.03886336088 0.01314577833 1.579967022
v -0.0385941416 0.01290100068 1.580721021
v -0.03897929564 0.01280868612 1.580166698
v -0.03875496238 0.01286875084 1.580845833
v -0.03914325684 0.01277135871 1.58028841
v -0.03890997171 0.01293378696 1.580965638
v -0.03913541883 0.01323946565 1.581122279
v -0.03960643336 0.01314084791 1.580452204
v -0.03932073712 0.01283598877 1.580379367
v -0.03918995336 0.01343759894 1.581159711
v -0.03924360499 0.01363254897 1.581196547
v -0.03977665678 0.01353030466 1.580438256
v -0.03969223797 0.01333715394 1.58044517
v -0.03924488649 0.01383971795 1.581198692
v -0.0398135297 0.01373482123 1.580399632
v -0.03889404237 0.01420018636 1.580931664
v -0.03950213268 0.01410166919 1.580099821
v -0.03825728595 0.01406896487 1.581715465
v -0.03811677545 0.01400554366 1.581584573
v -0.03802293912 0.01387126185 1.581464291
v -0.03860054165 0.01401677355 1.580714107
v -0.03873041645 0.01414964348 1.580809474
v -0.03845383599 0.01364377886 1.5806036
v -0.03896348178 0.01355461031 1.579900265
v -0.03917542845 0.01392295025 1.57992816
v -0.03922634944 0.01287712157 1.579379439
v -0.03938887641 0.01326703839 1.579215288
v -0.03921802714 0.01268947497 1.579499125
v -0.03945501149 0.01228907518 1.578998923
v -0.03946945816 0.01245015487 1.578844666
v -0.03928862512 0.01254188083 1.579640508
v -0.03951594979 0.01215267368 1.579166412
v -0.03945816681 0.01250331104 1.579764366
v -0.0396855399 0.01209833659 1.579298139
v -0.03965773433 0.01256293058 1.579833746
v -0.04000712931 0.01284367405 1.57983017
v -0.0402879566 0.01234178804 1.579294086
v -0.03989879414 0.01212730259 1.579362154
v -0.04012779891 0.01302829199 1.579767942
v -0.04024652764 0.01320994273 1.57970655
v -0.04056667909 0.01262630895 1.579058766
v -0.04042844474 0.01248520426 1.579175472
v -0.04031613842 0.01340143196 1.579618812
v -0.040654663 0.01277322136 1.578914285
v -0.04005622491 0.01376267336 1.579257131
v -0.0404224582 0.01311094128 1.578476667
v -0.03932801634 0.01405070908 1.579996228
v -0.03967387229 0.01360861957 1.579148889
v -0.03986102343 0.01371936128 1.579179287
v -0.0396589227 0.01277943887 1.578595161
v -0.03999476135 0.0130373165 1.578436613
v -0.03975172713 0.01209432445 1.578043342
v -0.04009999335 0.01226499863 1.577823639
v -0.03955574706 0.01114759408 1.578067064
v -0.03975119442 0.01125897467 1.577669263
v -0.0395575054 0.01186799072 1.578376889
v -0.03954679891 0.01175453328 1.578570962
v -0.03952654079 0.01108150743 1.578283072
v -0.03960939124 0.01164878812 1.578761697
v -0.03957200423 0.01101398468 1.578491926
v -0.03977370635 0.01158438064 1.57889986
v -0.03998801485 0.01157380641 1.578952551
v -0.03994500265 0.01091993414 1.57867074
v -0.03973216563 0.01095378492 1.578632355
v -0.04039006308 0.01168196462 1.578823328
v -0.0403437987 0.01094275154 1.578496218
v -0.04052941501 0.01177676022 1.57867229
v -0.04066652432 0.01187003963 1.578523755
v -0.04061648995 0.01103894226 1.578153491
v -0.04048125073 0.01099123526 1.578323483
v -0.04074975103 0.01197759248 1.578343868
v -0.04069542885 0.01110267639 1.577951312
v -0.04053466022 0.01227210462 1.577842355
v -0.04048951343 0.01131269895 1.577398539
v -0.04020661116 0.01310650632 1.578424931
v -0.04031904787 0.0122953523 1.577793479
v -0.04007286206 0.01134976652 1.577387691
v -0.04028397053 0.01135053486 1.577343822
v -0.0396441184 0.01038154028 1.57751739
v -0.03995109349 0.01036206353 1.57721293
v -0.03948595747 0.009515630081 1.577522993
v -0.03977589309 0.009435546584 1.577240348
v -0.03945177048 0.01037417352 1.577912927
v -0.03942321986 0.0103501156 1.578129053
v -0.0392777361 0.009569419548 1.578101873
v -0.03930556402 0.009563669562 1.577896714
v -0.03947139904 0.01031154767 1.578337073
v -0.03932045028 0.009558770806 1.57830143
v -0.03962819651 0.01026131399 1.578474998
v -0.039835684 0.01021454297 1.578504682
v -0.03967324644 0.009470790625 1.578446865
v -0.03947490826 0.009520477615 1.578427434
v -0.04021478817 0.01017251238 1.57830584
v -0.04002553597 0.009387151338 1.578240633
v -0.04035201296 0.01018062141 1.578131676
v -0.04048702866 0.01018859819 1.577960253
v -0.04028345272 0.009335190989 1.577911854
v -0.04015553743 0.009360959753 1.578074932
v -0.04056487232 0.01021100581 1.577757359
v -0.04036081955 0.009321998805 1.577719927
v -0.04035622627 0.01031179633 1.577199936
v -0.04015818611 0.009354323149 1.577202916
v -0.04015352204 0.01034171693 1.577150345
v -0.03996378556 0.009392440319 1.577172279
v -0.03955680504 0.008540321141 1.577308655
v -0.03973786533 0.008478937671 1.577244401
v -0.0392697528 0.008666508831 1.577572465
v -0.03890872374 0.007863426581 1.577645898
v -0.03922636807 0.00761625357 1.577355146
v -0.03910763562 0.008774315938 1.57793808
v -0.03908792511 0.008811724372 1.578138232
v -0.03876759112 0.00817759335 1.578305125
v -0.03876390681 0.008090915158 1.578083158
v -0.03913589939 0.008829666302 1.578334808
v -0.03884445131 0.008230084553 1.578518391
v -0.03928869963 0.008800744079 1.578458786
v -0.03948151693 0.008740367368 1.578476667
v -0.03922491148 0.008120769635 1.578689456
v -0.03901688755 0.008204272017 1.578655124
v -0.03981970251 0.008600503206 1.578277111
v -0.03961181641 0.007895762101 1.578503251
v -0.03994459659 0.008538709953 1.578114271
v -0.04006749019 0.008477913216 1.577954054
v -0.03990010545 0.007638791576 1.578124881
v -0.03975713253 0.007766236551 1.578312516
v -0.04013713077 0.008433327079 1.577765703
v -0.03995930031 0.007529552095 1.577902555
v -0.03992716968 0.008428731002 1.577267408
v -0.03964522481 0.007439276669 1.577335
v -0.03927768394 0.006495936308 1.577568054
v -0.03943191469 0.007510108873 1.577301025
v -0.03899070248 0.006607747637 1.577517986
v -0.03872550279 0.006777281873 1.577547669
v -0.03827753663 0.006073954515 1.578023553
v -0.03856170177 0.005909841973 1.577998519
v -0.03834025934 0.007197238505 1.577858806
v -0.03787278756 0.006519148126 1.578325748
v -0.03822606429 0.007558152545 1.578364134
v -0.03827822208 0.00769267045 1.578634381
v -0.03787859157 0.007133841515 1.579107881
v -0.0377837792 0.006967383903 1.578866839
v -0.03841655329 0.007767980918 1.578886271
v -0.03813094646 0.00722898636 1.579370737
v -0.03865132481 0.007740794681 1.579057455
v -0.03892001882 0.007636318915 1.579117656
v -0.0386412777 0.00716958195 1.579518676
v -0.038404461 0.007239649072 1.579478264
v -0.03945220634 0.007321436889 1.578965545
v -0.03918782249 0.006872803904 1.579390168
v -0.03962448612 0.007103647105 1.578748584
v -0.039793998 0.006889357232 1.57853508
v -0.03949545696 0.006264598109 1.57903111
v -0.03934288397 0.006566240452 1.579209208
v -0.03981840983 0.006686884444 1.578260779
v -0.03950330243 0.006032003555 1.578731894
v -0.03886871785 0.005791470874 1.578060627
v -0.03855484724 0.00530660525 1.578642368
v -0.03835068271 0.00503696315 1.579167366
v -0.03830005229 0.005394321866 1.578597307
v -0.03814129531 0.005137214437 1.579143286
v -0.03806588054 0.005545437802 1.578638077
v -0.03795660287 0.005279386882 1.579162717
v -0.03769307584 0.005721355788 1.579179406
v -0.03756063059 0.005797862075 1.579783201
v -0.03765032068 0.005228673108 1.580123663
v -0.03769626096 0.006266547367 1.579596281
v -0.03771261871 0.006005133502 1.578828335
v -0.03786839917 0.006457058247 1.579720378
v -0.03807350621 0.006635946222 1.579786777
v -0.03850682452 0.006652554497 1.57978642
v -0.03892295435 0.006534718443 1.57972455
v -0.03902319446 0.00614330126 1.579645038
v -0.03815453872 0.004863846116 1.580169201
v -0.03855474293 0.004834504798 1.579928994
v -0.04057415947 0.002495431574 1.579662561
v -0.04081179947 0.002423062688 1.580079436
v -0.04029108584 0.002739602234 1.579468727
v -0.03993015364 0.002820271999 1.579714298
v -0.04020282626 0.002550036181 1.57995522
v -0.04057759047 0.002408472123 1.580185056
v -0.04017038643 0.003063081764 1.579301119
v -0.04033026472 0.004143712576 1.579080939
v -0.04058974236 0.004124989267 1.578988194
v -0.03931521624 0.002867334522 1.580078125
v -0.03972876817 0.002432805952 1.580296397
v -0.03987926617 0.003168480704 1.579474449
v -0.03940438852 0.003423229791 1.579656601
v -0.038743902 0.003682209412 1.580008149
v -0.03859543428 0.003389755264 1.58031106
v -0.03858391941 0.002787655219 1.580723643
v -0.03887740523 0.002491294406 1.580767632
v -0.0392399393 0.002241957234 1.580785036
v -0.04078216478 0.004134889692 1.578902841
v -0.03961747885 0.002075886587 1.580796719
v -0.04010564461 0.002175440546 1.580537558
v -0.0395992212 0.003832679242 1.57938087
v -0.03908009082 0.004107258283 1.579677343
v -0.03991818801 0.003617485752 1.579286098
v -0.04002843797 0.004229543265 1.579144359
v -0.03952359408 0.00448138779 1.579175353
v -0.03828039393 0.003702877788 1.581062198
v -0.03842603043 0.003002655692 1.581267357
v -0.03838852048 0.003827280365 1.581750631
v -0.03789145499 0.004497669637 1.581294417
v -0.0380457826 0.004554792307 1.581746936
v -0.03857893869 0.003120034467 1.58188796
v -0.03826269507 0.003997703083 1.580621481
v -0.03784703463 0.004593047779 1.580913424
v -0.04151104763 0.004597591236 1.580193281
v -0.04162555933 0.004838302732 1.579925179
v -0.04145818204 0.004611199722 1.580268025
v -0.03712962195 0.005887705833 1.581428051
v -0.0374208279 0.005237629171 1.581099153
v -0.03740971535 0.005382586271 1.580689073
v -0.03709582984 0.005979910027 1.581187129
v -0.04138006642 0.005194167607 1.580051541
v -0.03814553097 0.007092665881 1.580465794
v -0.03853880614 0.007122209296 1.58027041
v -0.03782275319 0.00728877075 1.580958128
v -0.03757170588 0.00696766749 1.580881119
v -0.03783085942 0.006723941304 1.580408335
v -0.03832546994 0.007884594612 1.580853343
v -0.03807546198 0.007800848223 1.581196785
v -0.03862594813 0.007889768109 1.580655575
v -0.03785682842 0.006090726703 1.582414865
v -0.03742364421 0.005851678085 1.581960678
v -0.03716667742 0.00629461417 1.582154393
v -0.03741369396 0.006426085718 1.582495451
v -0.03798891604 0.005403256509 1.582229495
v -0.03766810521 0.005272636656 1.581824303
v -0.03851785138 0.006177857518 1.58266592
v -0.03844784573 0.005559033714 1.58271265
v -0.03807746619 0.006704734638 1.582668781
v -0.03879108652 0.0067418213 1.582463026
v -0.03781034052 0.007607858162 1.581654787
v -0.03736005351 0.007695397828 1.581886172
v -0.03702028468 0.007918035612 1.581939936
v -0.03673863783 0.007990023121 1.581938267
v -0.03704724461 0.007564682513 1.581657767
v -0.03606846929 0.00707899034 1.583083987
v -0.03648885339 0.006894479506 1.582906604
v -0.03634921461 0.00696383277 1.582701683
v -0.03588285297 0.007249377668 1.582983613
v -0.04078827426 0.005921099335 1.58099401
v -0.04051398486 0.00603174977 1.58067596
v -0.04085146263 0.0059123463 1.580325961
v -0.04092618451 0.005551551003 1.580593348
v -0.04007844254 0.006207449827 1.58017087
v -0.03961340338 0.00622508442 1.579715729
v -0.04006272554 0.00586872641 1.579435945
v -0.04041797295 0.005888376851 1.579836726
v -0.03976950049 0.00662667444 1.580389977
v -0.03933900222 0.006668099202 1.579983115
v -0.03947256133 0.006452471018 1.579852939
v -0.03991986811 0.006422626786 1.580283403
v -0.04046569392 0.006386204623 1.58080864
v -0.04069008678 0.006201855838 1.581153989
v -0.04059780017 0.006465758197 1.581304312
v -0.04029481113 0.006576119922 1.580886602
v -0.04067997262 0.002278705128 1.581531882
v -0.03997514397 0.002241118811 1.581893563
v -0.04014514014 0.002546056174 1.582379937
v -0.04061139748 0.002585795941 1.582241297
v -0.04036753625 0.002122560283 1.580985308
v -0.03982795402 0.002074070042 1.581283927
v -0.0410756804 0.00277095777 1.582060933
v -0.04116220027 0.002579577267 1.581489205
v -0.04144857079 0.003060612362 1.581832647
v -0.04147594795 0.002971393522 1.581305027
v -0.04120667279 0.003089589532 1.582644701
v -0.04154552147 0.003326369915 1.582391262
v -0.04080277681 0.002915078308 1.582877159
v -0.04110652581 0.003175329417 1.583545685
v -0.04146895558 0.003384495853 1.583240867
v -0.04036670178 0.002843453782 1.583037019
v -0.04070505127 0.003084504046 1.58378613
v -0.03992195055 0.002931988332 1.583158016
v -0.04028942809 0.003167463699 1.583927631
v -0.03965732455 0.002666615183 1.582491875
v -0.03941724449 0.002361054998 1.582000136
v -0.03921661526 0.002936907578 1.58253932
v -0.03952883184 0.00318702776 1.583221316
v -0.0389194414 0.002645153785 1.582012296
v -0.03924862295 0.00222575292 1.581423998
v -0.03876843676 0.0025208476 1.581406713
v -0.03888124973 0.003347263206 1.582467318
v -0.0391600579 0.003581061494 1.583184242
v -0.03863356635 0.003944615833 1.582342505
v -0.03883771598 0.00415338343 1.583041668
v -0.03908857331 0.00437152246 1.583693504
v -0.03857410699 0.004875514656 1.582844377
v -0.03888756409 0.005081444513 1.583400011
v -0.03891240433 0.005738819484 1.583133817
v -0.03938955069 0.005872527137 1.583474517
v -0.03932612017 0.005289998371 1.58381474
v -0.03910514712 0.006277565844 1.582889438
v -0.03945242614 0.006732566748 1.582454205
v -0.04002705589 0.006585901603 1.582826495
v -0.03964602575 0.006334267091 1.583138824
v -0.04015961289 0.006754955277 1.582094669
v -0.04059006646 0.006608806551 1.582523465
v -0.03970123827 0.007169757038 1.58131063
v -0.03984390572 0.006948400289 1.581660748
v -0.03922176734 0.007760462351 1.580641031
v -0.03943772241 0.00749440724 1.580942631
v -0.03945131227 0.008099504746 1.581172943
v -0.03893172741 0.007852483541 1.580596566
v -0.03888551891 0.007104954682 1.580205917
v -0.03918785602 0.007123598829 1.580287814
v -0.03982033208 0.005564519204 1.579286337
v -0.04042004421 0.005210189149 1.578989983
v -0.04062118009 0.005495897494 1.579129219
v -0.04100785032 0.004925624467 1.578804135
v -0.04085785523 0.004998239223 1.578851581
v -0.04159493372 0.004947583191 1.579243898
v -0.04111886024 0.002450156957 1.580762267
v -0.04137981683 0.002689197659 1.580775261
v -0.04086404666 0.002355336212 1.580496907
v -0.04154638946 0.003008293919 1.580712199
v -0.041622594 0.003361577867 1.580598354
v -0.0416004397 0.003753117053 1.580526471
v -0.04173247889 0.003640142269 1.58213675
v -0.04195329919 0.003936217166 1.582654953
v -0.04192613065 0.004283631686 1.582362533
v -0.04177673906 0.003636130365 1.582944512
v -0.04208629206 0.0039873817 1.583428025
v -0.04225353897 0.004295246676 1.583116174
v -0.04180146754 0.003725354793 1.583723783
v -0.04148663208 0.003542592283 1.584002972
v -0.04113571346 0.003489329014 1.584254622
v -0.04072339088 0.003568384796 1.584407449
v -0.04031076282 0.003778397804 1.584436774
v -0.03988077492 0.003417889588 1.583953977
v -0.03947586566 0.003808438312 1.583878875
v -0.03990657628 0.004130180925 1.584343553
v -0.03952672333 0.004650000483 1.584130287
v -0.04102929682 0.006481241435 1.58234787
v -0.04065513238 0.006573807914 1.581866145
v -0.04027951509 0.006714504678 1.581399083
v -0.04094951972 0.006362196524 1.581766963
v -0.04132648557 0.006311269477 1.58226943
v -0.04121948406 0.005965031683 1.581760764
v -0.04163942486 0.005978883244 1.582258701
v -0.04162988812 0.00496167317 1.582030892
v -0.04206954688 0.005187484901 1.582485795
v -0.04104234278 0.005797241814 1.581351161
v -0.04119781777 0.005331184715 1.580243349
v -0.04130386934 0.004650934599 1.580486417
v -0.04226886854 0.004628751893 1.582828283
v -0.04001051933 0.006844284013 1.581038117
v -0.03955838084 0.006997799035 1.580625772
v -0.04087849706 0.005526240449 1.579513669
v -0.04121571779 0.005263697356 1.579356194
v -0.04103540629 0.005238480866 1.578986406
v -0.04171052575 0.004935485311 1.579669714
v -0.04143574461 0.005294470116 1.57980752
v -0.04119249433 0.00556326611 1.579982877
v -0.03830350935 0.00435469253 1.580330133
v -0.03697002307 0.00665463414 1.582650065
v -0.03680915758 0.006648954935 1.582422495
v -0.03700267896 0.006305781193 1.581929922
v -0.03667462617 0.006699183024 1.582231641
v -0.03624239936 0.007067438215 1.5825243
v -0.03656995296 0.00678871572 1.58206594
v -0.03617344052 0.007201537956 1.58237493
v -0.03580960631 0.00739662163 1.582854748
v -0.03576088697 0.007564822212 1.58272469
v -0.03615702689 0.007331625558 1.582241654
v -0.03577719629 0.007718571927 1.58258152
v -0.03626092896 0.007588312961 1.582034588
v -0.03596382216 0.007998558693 1.582308292
v -0.03584477305 0.007868321612 1.582437515
v -0.03619049489 0.007462689653 1.582127571
v -0.03616217896 0.008100314066 1.582180142
v -0.03635937721 0.007704631425 1.581964493
v -0.03653544933 0.007802112028 1.581897378
v -0.03637307882 0.008169552311 1.582101703
v -0.03654863685 0.00848599337 1.582176805
v -0.0367262885 0.007308116648 1.581647873
v -0.03686540574 0.007439482026 1.58162415
v -0.03662037477 0.00717406394 1.581703305
v -0.03693912178 0.006823237985 1.581335902
v -0.03707637638 0.007003827021 1.581293106
v -0.03653218597 0.006906257011 1.58191669
v -0.0365530625 0.007037847303 1.581793785
v -0.03683914989 0.006496109068 1.581579924
v -0.03688486293 0.006375003606 1.581749916
v -0.03724050894 0.005831500515 1.581690907
v -0.03749317676 0.005215391051 1.581461906
v -0.03734501824 0.006687507033 1.580862641
v -0.0371873267 0.006433191709 1.580915451
v -0.03739229962 0.006088380702 1.580429673
v -0.0375584811 0.006403290667 1.580385447
v -0.0372518003 0.007169369608 1.581305861
v -0.03746425733 0.007368342951 1.581391096
v -0.04065757617 0.005095196888 1.578914881
v -0.0408459194 0.005356238689 1.579051733
v -0.04106145725 0.00538379699 1.579428196
v -0.04129670188 0.005256844219 1.580139279
v -0.04132447019 0.005417430773 1.579887748
v -0.04138759524 0.00462937681 1.580367923
v -0.04163761437 0.002998427721 1.580536246
v -0.04148339108 0.002707802691 1.580588698
v -0.04125403613 0.002487222431 1.580577016
v -0.03948595747 0.009515630081 1.577522993
v -0.03794200346 0.005017629359 1.580150008
v -0.03740971535 0.005382586271 1.580689073
v -0.03786250949 0.004861855879 1.580507278
v -0.03830718622 0.004698965233 1.582244754
v -0.04055956751 0.003996540327 1.578938723
v -0.04160960391 0.004256805405 1.580234051
v -0.04105213284 0.002388055203 1.580366135
v -0.0414044261 0.004832014441 1.578797221
v -0.0402033776 0.003476128913 1.579125762
v -0.04172568396 0.003744909074 1.580340862
v -0.04171858355 0.003349084174 1.580440283
v -0.04158312455 0.004441494588 1.580170512
v -0.04033821821 0.003752260935 1.579020739
v -0.04133317992 0.004754515365 1.580781341
v -0.0418048054 0.004149334505 1.582128167
v -0.04156790674 0.003332972527 1.581681848
v -0.04149627313 0.003054189496 1.581272364
v -0.04151397198 0.002991312183 1.58098495
v -0.04161208868 0.003365659621 1.580721855
v -0.04158449173 0.003757216269 1.580624819
v -0.04097818211 0.005364082288 1.58064878
v -0.04084725305 0.00573855266 1.581033349
v -0.04090712592 0.00558609888 1.58071959
v -0.04163505882 0.003437086474 1.580941796
v -0.04161379859 0.003860797035 1.580919862
f 1 3 2
f 1 2 5 4
f 6 9 8 7
f 6 11 10 9
f 12 14 13 7
f 12 17 16 15
f 12 7 8 17
f 10 19 18 9
f 20 21 4 5
f 20 5 23 22
f 20 22 25 24
f 26 29 28 27
f 26 32 31 30
f 26 27 32
f 33 23 5 2
f 33 2 3 34
f 33 34 36 35
f 35 36 38 37
f 35 37 40 39
f 35 39 41 33
f 41 39 43 42
f 41 42 45 44
f 41 44 23 33
f 44 45 47 46
f 44 46 22 23
f 46 47 49 48
f 46 48 25 22
f 25 48 51 50
f 25 50 52 24
f 52 50 30 31
f 50 51 53 30
f 53 51 55 54
f 53 54 57 56
f 53 56 26 30
f 56 57 59 58
f 56 58 29 26
f 29 58 61 60
f 29 60 62 28
f 62 60 64 63
f 63 64 37 38
f 64 60 61 65
f 64 65 40 37
f 65 61 67 66
f 65 66 68 40
f 68 66 70 69
f 68 69 71 43
f 68 43 39 40
f 71 69 73 72
f 71 72 75 74
f 71 74 42 43
f 74 75 77 76
f 74 76 45 42
f 76 77 79 78
f 76 78 47 45
f 78 79 81 80
f 78 80 49 47
f 80 81 83 82
f 80 82 55 49
f 55 51 48 49
f 82 83 85 84
f 82 84 54 55
f 84 85 87 86
f 84 86 57 54
f 86 87 89 88
f 86 88 59 57
f 88 89 91 90
f 88 90 67 59
f 67 61 58 59
f 90 91 92 70
f 90 70 66 67
f 92 91 94 93
f 92 93 95 73
f 92 73 69 70
f 95 93 97 96
f 95 96 99 98
f 95 98 72 73
f 98 99 101 100
f 98 100 75 72
f 100 101 103 102
f 100 102 77 75
f 102 103 105 104
f 102 104 79 77
f 104 105 107 106
f 104 106 81 79
f 106 107 109 108
f 106 108 83 81
f 108 109 111 110
f 108 110 85 83
f 110 111 113 112
f 110 112 87 85
f 112 113 115 114
f 112 114 89 87
f 114 115 116 94
f 114 94 91 89
f 116 118 117 97
f 116 97 93 94
f 117 118 120 119
f 117 119 122 121
f 117 121 96 97
f 121 122 124 123
f 121 123 99 96
f 123 124 126 125
f 123 125 101 99
f 125 126 128 127
f 125 127 103 101
f 127 128 130 129
f 127 129 105 103
f 129 130 132 131
f 129 131 107 105
f 131 132 134 133
f 131 133 109 107
f 133 134 136 135
f 133 135 111 109
f 135 136 138 137
f 135 137 113 111
f 137 138 140 139
f 137 139 115 113
f 139 140 120 118
f 139 118 116 115
f 120 140 142 141
f 141 145 144 143
f 141 143 119 120
f 143 144 147 146
f 143 146 122 119
f 146 147 149 148
f 146 148 124 122
f 148 149 151 150
f 148 150 126 124
f 150 151 153 152
f 150 152 128 126
f 152 153 155 154
f 152 154 130 128
f 154 155 157 156
f 154 156 132 130
f 156 157 159 158
f 156 158 134 132
f 158 159 161 160
f 158 160 136 134
f 160 161 163 162
f 160 162 138 136
f 162 163 164 142
f 162 142 140 138
f 164 166 165 145
f 164 145 141 142
f 165 166 168 167
f 165 167 170 169
f 165 169 144 145
f 169 170 172 171
f 169 171 147 144
f 171 172 16 173
f 171 173 149 147
f 173 16 17 174
f 173 174 151 149
f 174 17 8 175
f 174 175 153 151
f 175 8 9 18
f 175 18 155 153
f 172 170 177 176
f 172 176 15 16
f 177 170 167 178
f 178 167 168 179
f 179 168 181 180
f 180 181 183 182
f 184 185 19 10
f 185 184 183 186
f 185 186 161 159
f 186 183 181 187
f 186 187 163 161
f 187 181 168 166
f 187 166 164 163
f 19 185 159 157
f 157 155 18 19
f 13 188 6 7
f 188 11 6
f 14 12 15
f 189 34 3 190
f 189 190 192 191
f 189 191 194 193
f 189 195 36 34
f 189 193 196 195
f 197 200 199 198
f 201 204 203 199 200 202
f 28 62 205
f 27 28 207 206
f 208 211 210 209
f 208 213 212 211
f 208 209 215 214
f 208 214 217 216
f 208 216 218 213
f 218 216 220 219
f 219 220 222 221
f 222 220 223
f 222 223 225 224
f 224 225 227 226
f 226 227 229 228
f 230 228 229 231
f 203 204 231 229
f 229 227 232 203
f 232 233 199 203
f 232 227 225 234
f 232 234 235 233
f 235 237 236 233
f 235 234 217 214
f 235 214 215 237
f 236 239 238 198
f 236 198 199 233
f 236 237 240 239
f 240 242 241 239
f 240 237 215 243
f 240 243 244 242
f 244 246 245 242
f 244 243 248 247
f 244 247 249 246
f 249 251 250 246
f 249 247 253 252
f 249 252 254 251
f 254 256 255 251
f 254 252 258 257
f 254 257 259 256
f 259 261 260 256
f 259 257 263 262
f 261 259 262 264
f 265 261 264 266
f 265 266 268 267
f 266 264 270 269
f 266 269 271 268
f 271 273 272 268
f 271 269 275 274
f 271 274 276 273
f 276 278 277 273
f 276 274 280 279
f 276 279 281 278
f 281 283 282 278
f 281 279 285 284
f 281 284 286 283
f 286 288 287 283
f 286 284 290 289
f 288 286 289 291
f 292 288 291 293
f 292 293 295 294
f 293 291 297 296
f 293 296 298 295
f 298 300 299 295
f 298 296 302 301
f 300 298 301 194
f 303 300 194 191
f 301 302 305 304
f 301 304 193 194
f 304 305 307 306
f 304 306 196 193
f 306 307 309 308
f 306 308 310 196
f 310 311 195 196
f 310 308 313 312
f 310 312 314 311
f 314 63 38 311
f 314 312 315 205
f 314 205 62 63
f 315 312 313 316
f 315 316 318 317
f 315 317 28 205
f 317 318 320 319
f 28 317 319 207
f 207 319 322 321
f 207 321 323 206
f 323 325 324 206
f 323 321 327 326
f 323 326 328 325
f 328 326 330 329
f 329 330 332 331
f 333 331 332 334
f 333 334 336 335
f 337 335 336 192
f 337 192 190 338
f 338 190 3 1
f 336 303 191 192
f 336 334 339 303
f 339 334 332 340
f 299 339 340 341
f 339 299 300 303
f 299 341 294 295
f 294 341 343 342
f 294 342 344 292
f 344 342 346 345
f 344 345 347 287
f 344 287 288 292
f 347 345 349 348
f 347 348 350 282
f 347 282 283 287
f 350 348 352 351
f 350 351 353 277
f 350 277 278 282
f 353 351 355 354
f 272 353 354 356
f 353 272 273 277
f 272 356 267 268
f 267 356 358 357
f 267 357 359 265
f 359 357 361 360
f 359 360 362 260
f 359 260 261 265
f 362 360 364 363
f 362 363 365 255
f 362 255 256 260
f 365 363 367 366
f 365 366 368 250
f 365 250 251 255
f 368 366 370 369
f 368 369 371 245
f 368 245 246 250
f 371 369 373 372
f 371 372 374 241
f 371 241 242 245
f 374 372 376 375
f 238 374 375 377
f 374 238 239 241
f 238 377 197 198
f 377 375 379 378
f 377 378 380 197
f 380 378 382 381
f 383 380 381 384
f 380 383 200 197
f 385 386 383 384
f 383 386 202 200
f 385 384 388 387
f 387 388 390 389
f 389 390 392 391
f 391 392 394 393
f 395 393 394 396
f 395 396 211 212
f 396 397 210 211
f 397 396 394 398
f 399 397 398 400
f 399 400 402 401
f 400 398 404 403
f 400 403 405 402
f 405 407 406 402
f 405 403 409 408
f 405 408 410 407
f 410 412 411 407
f 410 408 414 413
f 410 413 415 412
f 415 417 416 412
f 415 413 419 418
f 415 418 420 417
f 420 422 421 417
f 420 418 424 423
f 422 420 423 425
f 426 422 425 427
f 426 427 429 428
f 427 425 431 430
f 427 430 432 429
f 432 434 433 429
f 432 430 436 435
f 434 432 435 437
f 438 434 437 439
f 438 439 441 440
f 439 437 443 442
f 439 442 444 441
f 444 446 445 441
f 444 442 448 447
f 444 447 449 446
f 449 307 305 446
f 449 447 451 450
f 449 450 309 307
f 450 451 453 452
f 450 452 454 309
f 454 313 308 309
f 454 452 456 455
f 454 455 316 313
f 455 456 458 457
f 455 457 318 316
f 457 458 352 459
f 318 457 459 320
f 459 352 348 349
f 459 349 460 320
f 460 322 319 320
f 460 349 345 346
f 460 346 461 322
f 461 327 321 322
f 461 346 342 343
f 461 343 462 327
f 462 330 326 327
f 462 343 341 340
f 462 340 332 330
f 458 355 351 352
f 355 458 456 463
f 355 463 464 354
f 464 463 453 465
f 464 465 466 358
f 464 358 356 354
f 466 465 468 467
f 466 467 469 361
f 466 361 357 358
f 469 467 471 470
f 469 470 472 364
f 469 364 360 361
f 472 470 474 473
f 472 473 475 367
f 472 367 363 364
f 475 473 436 476
f 475 476 477 370
f 475 370 366 367
f 477 476 431 478
f 373 477 478 479
f 477 373 369 370
f 373 479 376 372
f 376 479 424 480
f 376 480 379 375
f 480 424 418 419
f 379 480 419 481
f 379 481 382 378
f 382 481 414 482
f 382 482 483 381
f 381 483 388 384
f 483 482 409 484
f 483 484 390 388
f 484 409 403 404
f 484 404 392 390
f 482 414 408 409
f 481 419 413 414
f 424 479 478 423
f 478 431 425 423
f 430 431 476 436
f 436 473 474 435
f 474 443 437 435
f 474 470 471 443
f 471 448 442 443
f 471 467 468 448
f 468 451 447 448
f 468 465 453 451
f 463 456 452 453
f 445 302 296 297
f 441 445 297 440
f 445 446 305 302
f 440 297 291 289
f 440 289 290 438
f 433 290 284 285
f 290 433 434 438
f 433 285 428 429
f 428 285 279 280
f 428 280 485 426
f 485 280 274 275
f 485 275 486 421
f 485 421 422 426
f 486 275 269 270
f 486 270 487 416
f 486 416 417 421
f 487 270 264 262
f 487 262 263 411
f 487 411 412 416
f 406 263 257 258
f 263 406 407 411
f 406 258 401 402
f 401 258 252 253
f 401 253 488 399
f 488 253 247 248
f 488 248 209 210
f 488 210 397 399
f 404 398 394 392
f 38 36 195 311
f 248 243 215 209
f 234 225 223 217
f 223 220 216 217
f 489 492 491 490
f 492 489 494 493
f 492 496 495 491
f 497 501 500 499 498
f 502 501 497 504 503
f 497 498 505 504
f 506 511 510 509 508 507
f 512 514 513
f 509 510 516 515 508
f 385 517 202 386
f 385 387 518 517
f 519 213 218 520
f 519 520 503 521
f 519 521 212 213
f 522 523 228 230
f 522 230 231 524
f 522 524 526 525
f 522 528 527 523
f 522 525 529 528
f 526 524 531 530
f 526 530 533 532
f 532 533 535 534
f 534 535 498 499
f 535 533 537 536
f 535 536 505 498
f 536 537 539 538
f 536 538 540 505
f 540 538 391 393
f 540 393 395 541
f 540 541 504 505
f 541 395 212 521
f 541 521 503 504
f 218 219 542 520
f 543 500 501 515
f 542 502 503 520
f 389 539 518 387
f 389 391 538 539
f 539 537 544 518
f 544 530 531 545
f 544 545 517 518
f 544 537 533 530
f 545 531 204 201
f 545 201 202 517
f 204 531 524 231
f 528 529 547 546
f 528 546 490 527
f 546 547 512 513
f 546 513 489 490
f 490 491 548 527
f 549 548 491 495
f 548 549 551 550
f 548 550 523 527
f 550 551 224 226
f 550 226 228 523
f 224 551 221 222
f 221 551 549 552
f 553 552 549 495
f 554 553 495 496
f 555 558 557 556
f 556 557 560 559
f 559 560 562 561
f 563 561 562 564
f 565 516 510 564
f 566 516 565 567
f 568 571 570 569
f 558 572 570 557
f 570 560 557
f 570 571 562 560
f 513 514 494 489
f 573 576 575 574
f 553 578 577
f 579 555 556 580
f 581 579 580 582
f 578 584 583 577
f 585 588 587 586
f 552 585 586 221
f 219 221 586 589
f 590 591 511 506
f 511 591 593 592
f 592 593 594 563
f 561 596 595 559
f 559 595 580 556
f 595 596 598 597
f 595 597 582 580
f 582 597 600 599
f 581 582 599 601
f 601 599 604 603 602
f 605 608 607 606
f 584 605 606 583
f 609 612 611 610
f 588 609 610 587
f 587 610 614 613
f 587 613 589 586
f 589 613 615 590
f 616 619 618 617
f 616 617 593 591
f 620 617 618 621
f 594 593 617 620
f 622 624 623 600
f 622 600 597 598
f 623 624 626 625
f 623 625 627 604
f 623 604 599 600
f 627 625 629 628
f 630 627 628 631
f 603 604 627 630 602
f 632 635 634 633
f 608 632 633 607
f 636 639 638 637
f 612 636 637 611
f 637 638 641 640
f 637 640 642 611
f 642 614 610 611
f 642 640 644 643
f 614 642 643 645
f 613 614 645 615
f 646 649 648 647
f 646 647 618 619
f 650 647 648 651
f 621 618 647 650
f 652 626 651 653
f 652 655 654 629
f 652 629 625 626
f 654 655 657 656
f 654 656 659 658
f 654 658 628 629
f 660 658 659 661
f 631 628 658 660
f 662 665 664 663
f 635 662 663 634
f 666 669 668 667
f 639 666 667 638
f 667 668 671 670
f 667 670 641 638
f 670 671 673 672
f 641 670 672 674
f 640 641 674 644
f 675 678 677 676
f 675 676 648 649
f 653 676 677 679
f 679 677 681 680
f 682 657 680 683
f 682 686 685 684
f 682 684 656 657
f 684 685 688 687
f 684 687 659 656
f 689 687 688 690
f 661 659 687 689
f 691 694 693 692
f 665 691 692 664
f 695 698 697 696
f 669 695 696 668
f 696 697 700 699
f 696 699 671 668
f 699 700 702 701
f 671 699 701 673
f 703 705 704 681
f 703 681 677 678
f 683 704 707 706
f 706 707 709 708
f 710 712 708 711
f 712 710 714 713
f 712 713 685 686
f 713 714 716 715
f 713 715 688 685
f 717 715 716 720 719 718
f 694 690 688 715 717 718
f 718 719 722 721
f 694 718 721 693
f 723 726 725 724
f 698 723 724 697
f 724 725 728 727
f 724 727 700 697
f 727 728 730 729
f 700 727 729 702
f 731 732 709 707
f 731 707 704 705
f 709 732 734 733
f 711 733 736 735
f 735 736 738 737
f 739 742 741 740
f 739 740 714 710
f 740 741 744 743
f 740 743 716 714
f 745 743 744 748 747 746
f 720 716 743 745 746 719
f 746 747 750 749
f 719 746 749 722
f 751 754 753 752
f 726 751 752 725
f 752 753 756 755
f 752 755 728 725
f 755 756 758 757
f 728 755 757 730
f 759 760 738 736
f 759 736 733 734
f 738 760 762 761
f 737 738 761 763
f 763 761 765 764
f 766 769 768 767
f 766 767 741 742
f 767 768 771 770
f 767 770 744 741
f 772 770 771 775 774 773
f 748 744 770 772 773 747
f 773 774 777 776
f 747 773 776 750
f 778 781 780 779
f 754 778 779 753
f 779 780 783 782
f 779 782 756 753
f 782 783 785 784
f 756 782 784 758
f 786 788 787 785
f 787 788 789 765
f 787 765 761 762
f 789 788 791 790
f 792 789 790 793
f 764 765 789 792
f 794 797 796 795
f 794 795 768 769
f 795 796 799 798
f 795 798 771 768
f 800 798 799 803 802 801
f 775 771 798 800 801 774
f 801 802 805 804
f 774 801 804 777
f 806 809 808 807
f 781 806 807 780
f 807 808 811 810
f 807 810 783 780
f 810 811 812 786
f 811 576 813 812
f 814 816 815 813
f 815 816 818 817
f 815 817 790 791
f 819 818 821 820
f 822 797 793 823
f 822 824 796 797
f 824 825 799 796
f 803 799 825 826 802
f 802 826 827 805
f 809 828 575 808
f 573 574 830 829 814
f 811 808 575 576
f 831 835 834 833
f 831 832 836 835
f 840 834 835 841
f 840 843 842 834
f 840 845 844 843
f 840 847 846 845
f 840 841 848 847
f 848 841 851 850
f 851 841 835 836
f 844 853 852 843
f 852 855 854
f 852 854 842 843
f 852 853 856 855
f 854 855 838 1070
f 854 1070 837 842
f 842 837 833 834
f 857 845 846 858
f 859 861 860 857
f 857 858 862 859
f 857 860 864 863
f 868 871 870 869
f 865 866 872 867
f 873 874 826 825
f 873 877 876 875
f 873 825 824 877
f 873 875 879 878
f 873 878 880 874
f 881 884 883 882
f 881 882 886 885
f 887 881 885 888
f 881 887 890 889
f 881 889 512 884
f 891 176 177 879
f 891 892 514 14
f 891 14 15 176
f 893 892 895 894
f 896 899 898 897
f 896 532 534 899
f 900 903 902 901
f 904 907 906 905
f 908 911 910 909
f 912 915 914 913
f 916 919 918 917
f 916 917 921 920
f 916 923 922 919
f 922 923 925 924
f 922 924 927 926
f 922 926 928 919
f 928 926 930 929
f 928 929 932 931
f 928 931 918 919
f 931 932 934 933
f 931 933 935 918
f 935 936 917 918
f 935 933 938 937
f 935 937 939 936
f 939 941 940 936
f 939 937 942 862
f 939 862 858 941
f 942 937 938 943
f 942 943 945 944
f 942 944 859 862
f 946 948 947 945
f 888 947 948 949
f 949 948 951 950
f 952 955 954 953
f 952 953 890 887
f 953 954 957 956
f 188 959 958 11
f 182 962 961 960
f 182 960 963 180
f 180 963 880 179
f 179 880 878 178
f 178 878 879 177
f 963 960 965 964
f 963 964 874 880
f 964 965 909 827
f 964 827 826 874
f 827 909 910 828
f 575 905 906 966
f 574 575 966 856
f 966 906 968 967
f 966 967 855 856
f 839 970 969 849
f 972 973 923 916
f 972 916 920 974
f 974 920 851 836
f 851 920 921 850
f 850 921 940 848
f 848 940 941 847
f 847 941 858 846
f 973 975 1079 925 923
f 975 976 1080 1079
f 978 979 981 927
f 981 979 983 982
f 981 982 984 930
f 981 930 926 927
f 984 982 27 206
f 984 206 324 985
f 984 985 929 930
f 985 324 325 986
f 985 986 932 929
f 986 325 328 987
f 986 987 934 932
f 987 328 329 988
f 987 988 989 934
f 989 938 933 934
f 989 988 991 990
f 989 990 943 938
f 990 991 992 946
f 990 946 945 943
f 992 991 331 333
f 950 951 335 337
f 338 1 954 955
f 1 4 957 954
f 957 4 21 993
f 957 993 994 956
f 994 995 959 956
f 994 993 997 996
f 994 996 914 995
f 996 997 999 998
f 996 998 913 914
f 998 999 1001 1000
f 998 1000 1002
f 1082 903 1084
f 1000 1001 1005 980
f 1005 1001 52 31
f 1005 31 32 983
f 1005 983 979 980
f 32 27 982 983
f 52 1001 999 24
f 24 999 997 20
f 20 997 993 21
f 959 995 1006 958
f 961 1007 965 960
f 1006 995 914 915
f 1007 908 909 965
f 968 906 907 1008
f 1069 1010 1009 971
f 1011 1012 872 866
f 1013 902 903 1003
f 331 991 988 329
f 1069 969 970 1010
f 856 853 830 574
f 853 844 863 1014
f 940 921 917 936
f 529 897 1015 547
f 547 1015 884 512
f 1015 1016 883 884
f 1015 897 898 1016
f 1016 1018 1017 883
f 1016 898 1019 1018
f 1019 1021 1020 1018
f 1019 898 899 1022
f 1019 1022 1023 1021
f 1021 1023 1025 1024
f 1023 1022 499 500
f 1023 500 543 1025
f 1026 1029 1028 1027
f 567 1027 1028 566
f 1030 1033 1032 1031
f 1030 568 569 1033
f 1033 569 1034 1032
f 493 494 893 894
f 494 514 892 893
f 1031 1032 1036 1035
f 1031 1035 1037 1026
f 1035 1039 1038 1037
f 1024 1029 1041 1040
f 868 1043 1042 871
f 1043 868 1044 1017
f 1043 1017 1018 1020
f 1044 868 869 1045
f 882 1044 1045 886
f 1044 882 883 1017
f 1046 1049 1048 1047
f 1049 822 820 1048
f 822 1049 877 824
f 1049 1046 876 877
f 1046 1039 1050 876
f 1050 1051 875 876
f 1050 1039 1035 1036
f 1050 1036 895 1051
f 1051 891 879 875
f 1051 895 892 891
f 1036 1032 894 895
f 499 1022 899 534
f 890 953 188 13
f 953 956 959 188
f 838 1052 970 839
f 1010 970 1052 1053
f 1010 1053 1054 1009
f 872 1012 1056 1055
f 867 872 1055 1057
f 855 967 1052 838
f 1053 1052 967 968
f 1053 968 1008 1054
f 1055 1056 1013 1003
f 1057 1055 1003 1004
f 1071 1057 1004 977
f 1072 1071 977 976
f 975 1058 1072 976
f 1059 1058 975 973
f 1060 1059 973 972
f 972 974 1068 1060
f 974 836 832 1068
f 896 897 529 525
f 526 532 896 525
f 553 577 585 552
f 577 583 588 585
f 583 606 609 588
f 606 607 612 609
f 607 633 636 612
f 633 634 639 636
f 634 663 666 639
f 663 664 669 666
f 664 692 695 669
f 692 693 698 695
f 693 721 723 698
f 721 722 726 723
f 722 749 751 726
f 749 750 754 751
f 750 776 778 754
f 776 777 781 778
f 777 804 806 781
f 804 805 809 806
f 805 827 828 809
f 910 911 904 905
f 828 910 905 575
f 572 1034 569 570
f 689 690 694 691
f 661 689 691 665
f 660 661 665 662
f 631 660 662 635
f 630 631 635 632
f 602 630 632 608
f 601 602 608 605
f 581 601 605 584
f 581 584 578 579
f 553 554 555 579 578
f 555 554 496 558
f 492 572 558 496
f 492 493 1034 572
f 542 507 508 502
f 506 507 542 219
f 502 508 515 501
f 543 515 516 566
f 563 564 510 511 592
f 571 565 564 562
f 567 565 571 568
f 819 823 817 818
f 819 820 822 823
f 589 590 506 219
f 563 594 596 561
f 615 645 619 616
f 590 615 616 591
f 598 620 621 622
f 596 594 620 598
f 643 644 649 646
f 645 643 646 619
f 624 650 651 626
f 622 621 650 624
f 674 672 678 675
f 644 674 675 649
f 652 653 679 655
f 653 651 648 676
f 655 679 680 657
f 673 701 705 703
f 672 673 703 678
f 682 683 706 686
f 683 680 681 704
f 686 706 708 712
f 702 729 732 731
f 701 702 731 705
f 710 711 735 739
f 711 708 709 733
f 739 735 737 1061 742
f 757 758 760 759
f 730 757 759 734
f 766 763 764 769
f 1061 737 763 766 742
f 784 785 787 762
f 758 784 762 760
f 810 786 785 783
f 794 792 793 797
f 769 764 792 794
f 812 813 815 791
f 786 812 791 788
f 573 814 813 576
f 814 829 1062 816
f 823 793 790 817
f 729 730 734 732
f 857 863 844 845
f 870 871 1047 1048 1063
f 869 870 1063 1064 864
f 944 945 947 1065
f 859 944 1065 861
f 888 885 1065 947
f 885 886 861 1065
f 887 888 949 952
f 952 949 950 955
f 335 951 992 333
f 946 992 951 948
f 955 950 337 338
f 853 1014 829 830
f 1014 863 864 1064
f 566 1028 1025 543
f 1031 1026 1027 1030
f 1024 1025 1028 1029
f 1030 1027 567 568
f 1040 1041 1037 1038 1042
f 1026 1037 1041 1029
f 1020 1040 1042 1043
f 1021 1024 1040 1020
f 1045 869 864 860
f 886 1045 860 861
f 871 1042 1038 1047
f 1046 1047 1038 1039
f 1048 820 821 1063
f 1014 1064 1062 829
f 821 1062 1064 1063
f 816 1062 821 818
f 184 962 182 183
f 10 11 962 184
f 961 962 11 958
f 958 1006 1007 961
f 1006 915 908 1007
f 915 912 911 908
f 900 901 912 913
f 1008 907 902 1013
f 1054 1008 1013 1056
f 1009 1054 1056 1012
f 971 1009 1012 1011
f 901 902 907 904
f 904 911 912 901
f 913 998 1002 900
f 900 1002 1083
f 13 14 889 890
f 512 889 14 514
f 1034 493 894 1032
f 849 969 1069
f 1074 838 839 1066
f 1066 839 849
f 1070 838 1074
f 1073 865 867 1067
f 866 865 1073
f 1067 867 1057 1071
f 1000 980 1076
f 1076 980 979 978
f 1080 976 977 1081
f 978 927 924 1077
f 1077 924 925 1078
f 1078 925 1079
f 1004 1003 903 1082
f 1084 903 900 1083
f 1081 977 1004
f 1004 1075 1086 1081
f 1081 1086 1085 1080
f 1078 1079 1080 1085
f 1004 1082 1075
