# Original Z-Anatomy world coordinates in meters; no atlas registration
o Cochlea.r
v -0.03954257071 -0.002167244442 1.582637429
v -0.0393958725 -0.00197320804 1.582772374
v -0.03968749195 -0.001752429176 1.582772017
v -0.0398174189 -0.002425890416 1.582801819
v -0.03946945071 -0.002693101298 1.582568407
v -0.03941762075 -0.002096948214 1.582463145
v -0.03933301196 -0.002001303248 1.582630873
v -0.03930720687 -0.002034819685 1.582309008
v -0.03917528316 -0.002030138858 1.582108498
v -0.03927746043 -0.002026131377 1.582505941
v -0.03932047263 -0.001921133138 1.582237363
v -0.03925949335 -0.002487569116 1.582402349
v -0.03915539011 -0.001556476578 1.581937075
v -0.03860849142 -0.001226802822 1.581859469
v -0.03904037178 -0.001307321247 1.581772447
v -0.03864335269 -0.00109915249 1.581828713
v -0.03908878565 -0.001675003674 1.581849694
v -0.03897799179 -0.001970460638 1.581756711
v -0.03890856355 -0.001095997635 1.581690907
v -0.03856207803 -0.0006856000982 1.58172524
v -0.0389081724 -0.00144560542 1.581472039
v -0.03877736256 -0.0007752655074 1.581395149
v -0.03876032308 -0.001851698384 1.581238151
v -0.03881639987 -0.002358210273 1.581583261
v -0.03860272467 -0.002255790867 1.580903292
v -0.03873517364 -0.00132652605 1.58097899
v -0.03856062144 -0.00178079959 1.580589533
v -0.03878041729 -0.0008818479255 1.580705523
v -0.03884987161 -0.0004154341295 1.581067562
v -0.03859530762 -0.001326774247 1.580224633
v -0.03892189264 -0.0005292715505 1.580307603
v -0.03896916658 -0.0002605547197 1.580648303
v -0.03879998997 -0.0009147641249 1.579846382
v -0.03916951269 -0.0001744334586 1.580088854
v -0.03912114352 6.199022755e-05 1.580631375
v -0.03951954842 0.0002038986422 1.579932451
v -0.03914256394 -0.0005611972883 1.579559445
v -0.03945813328 -0.0003071394749 1.579378366
v -0.03913940862 -0.001039201859 1.57912612
v -0.03926691413 -0.001420287881 1.578852057
v -0.0394438915 -0.0008007623255 1.578965425
v -0.03880828619 -0.001354787964 1.57938838
v -0.03857344389 -0.001762072556 1.579747438
v -0.03897643089 -0.001768698916 1.579035044
v -0.03872184455 -0.002180532552 1.579330444
v -0.03925132006 -0.002076630946 1.578814268
v -0.03904392198 -0.002509385813 1.579088092
v -0.03955015168 -0.002286272123 1.578693867
v -0.03951314464 -0.001678940374 1.578642368
v -0.03968872875 -0.001229950693 1.5786376
v -0.03979651257 -0.001853807364 1.578542233
v -0.04010245949 -0.001963624265 1.578548431
v -0.03995692357 -0.001296853181 1.578546047
v -0.04006153345 -0.0006917188875 1.578703403
v -0.04028146714 -0.001408262644 1.578544021
v -0.04071257636 -0.001537858509 1.578687787
v -0.04038480297 -0.0007241037674 1.578695059
v -0.04085667431 -0.0008597760461 1.578820467
v -0.04042419046 2.296641469e-06 1.579134226
v -0.04093604162 -0.0001272284426 1.579253912
v -0.04045141116 0.0006071161479 1.579868793
v -0.04007060453 -1.441175118e-05 1.579148293
v -0.03976331279 -0.0001264284365 1.579238415
v -0.04009670392 0.0005633756518 1.579845548
v -0.03979805857 0.0004176630173 1.579875469
v -0.04003211856 0.0009617877658 1.580743432
v -0.03971795365 0.0008010042366 1.58067596
v -0.04039571062 0.0009802000131 1.580851793
v -0.03976230323 0.0009718812071 1.581695676
v -0.03944154084 0.0008138269186 1.581512451
v -0.0393518284 0.0006900466979 1.582466125
v -0.04015288502 0.0009489806835 1.581867218
v -0.0406912975 0.0006062476896 1.582040191
v -0.03972555324 0.0006329540629 1.58268857
v -0.04026611522 0.0002621123567 1.582877755
v -0.0392357558 0.000209569931 1.58327508
v -0.03871112317 -0.0002409573644 1.583629251
v -0.03892536089 0.0003062051255 1.583002329
v -0.03969496861 -0.0001599872485 1.58351028
v -0.03986844048 -0.0004760799929 1.583464861
v -0.03912353143 -0.0005666958168 1.583865285
v -0.03860713914 -0.0009964122437 1.584063888
v -0.03933024406 -0.0008202469908 1.583832741
v -0.03948522359 -0.001065976918 1.58370018
v -0.03883557022 -0.001193317119 1.584028959
v -0.03903407976 -0.001390227582 1.583911538
v -0.03831148893 -0.001757925376 1.584103703
v -0.03853541613 -0.001907320227 1.584000468
v -0.0380721502 -0.001596280374 1.584125042
v -0.03785376996 -0.0024643871 1.583997607
v -0.03761178255 -0.002327558119 1.583983421
v -0.03747463599 -0.003208538983 1.583698153
v -0.03809068352 -0.002574990038 1.583919048
v -0.03772768378 -0.003297338262 1.583649278
v -0.03831856325 -0.002648550086 1.583778858
v -0.03852819279 -0.002710950561 1.583569527
v -0.03797448799 -0.003334964626 1.583533764
v -0.03873592243 -0.002050471492 1.583831072
v -0.03919646144 -0.001581293531 1.583740592
v -0.03890060633 -0.002192375716 1.583606124
v -0.03902040049 -0.002312296536 1.583314538
v -0.03929472715 -0.001756749116 1.58351469
v -0.03960321471 -0.001574146561 1.583276987
v -0.03932162002 -0.001954077743 1.583248854
v -0.03951079771 -0.001815419178 1.583025455
v -0.03929289058 -0.002102338243 1.582910419
v -0.03924435005 -0.00212805206 1.582743883
v -0.03910074756 -0.002366012894 1.582979679
v -0.03886408731 -0.002728924155 1.58294487
v -0.03908810019 -0.002359909471 1.58279562
v -0.03907693177 -0.002354512922 1.582632899
v -0.03888894245 -0.002679611556 1.582755446
v -0.038694188 -0.003053417895 1.58259809
v -0.03891090676 -0.00263603311 1.582588077
v -0.03874091804 -0.002958463971 1.582423091
v -0.03886144236 -0.002464287449 1.582276344
v -0.03871849179 -0.002704196144 1.582124949
v -0.03875882924 -0.00226369733 1.582049489
v -0.03899414837 -0.002227177378 1.582352877
v -0.03887625039 -0.002075297292 1.582148194
v -0.03909532353 -0.00207278505 1.582360983
v -0.03920144588 -0.002150775399 1.58259666
v -0.0391985476 -0.001959835645 1.582322359
v -0.03897667304 -0.001942746341 1.582189798
v -0.03910319135 -0.001834546681 1.582177639
v -0.03886346892 -0.001777790952 1.582059145
v -0.0387542434 -0.001906677615 1.581994057
v -0.03874809667 -0.00161073124 1.581956029
v -0.03901477903 -0.001673244406 1.58206749
v -0.03891810775 -0.001504178159 1.581974387
v -0.03918269649 -0.001627725549 1.581987262
v -0.03910794854 -0.001459506806 1.581874251
v -0.03925774246 -0.001794071868 1.582107067
v -0.03878758475 -0.001356327441 1.581901789
v -0.03857947141 -0.001465661451 1.581869245
v -0.03835320845 -0.001324013807 1.581848741
v -0.03840787709 -0.001592833083 1.581786871
v -0.03861691803 -0.001735625323 1.581873298
v -0.03814816847 -0.001465863083 1.58178997
v -0.03825448453 -0.00173835922 1.581659913
v -0.03847777098 -0.001888540108 1.581737399
v -0.0380968377 -0.001911792904 1.581457376
v -0.03796503693 -0.001637900714 1.581678748
v -0.03779302537 -0.001832991838 1.581481338
v -0.03764953092 -0.001640631817 1.581803203
v -0.03784732893 -0.001389020123 1.581932902
v -0.03747038916 -0.001876694616 1.581610441
v -0.03737379611 -0.00174177764 1.582025647
v -0.03718999773 -0.002049120143 1.581780672
v -0.03713377193 -0.001912561711 1.58233285
v -0.03758057579 -0.001418555621 1.582181573
v -0.03779811785 -0.001115209423 1.582207441
v -0.03736139834 -0.001488801092 1.582553744
v -0.03761714697 -0.001091671176 1.582565427
v -0.03721632808 -0.001618281472 1.582878113
v -0.0375072062 -0.001107672695 1.582996964
v -0.03697962686 -0.002096576151 1.582616329
v -0.03715978563 -0.001737036742 1.58318305
v -0.03688325733 -0.002293166704 1.582884312
v -0.03717284277 -0.001869361848 1.583455205
v -0.03750570118 -0.001140717417 1.5833143
v -0.03756324947 -0.00120405294 1.583603501
v -0.03790362924 -0.0005923346616 1.583261371
v -0.03785022721 -0.0006128759123 1.582929134
v -0.03801092505 -0.0006158510223 1.583558083
v -0.03829911724 -0.0001500886865 1.583058834
v -0.03818169236 -0.0002501579002 1.582653522
v -0.03869054466 0.0002522182185 1.582690716
v -0.03846611083 -0.0001313844696 1.583361387
v -0.03851764649 8.539343253e-05 1.582343817
v -0.03906324506 0.0005744369701 1.58220017
v -0.0388256833 0.0003286399879 1.581926823
v -0.03866328299 -7.323687896e-05 1.581641793
v -0.03916537017 0.0005286606029 1.581352234
v -0.03894254565 0.0001132609323 1.581221938
v -0.03935612366 0.0004410087131 1.58062923
v -0.03841758892 -0.000216639135 1.581986547
v -0.03815457225 -0.0004346747883 1.582266092
v -0.0378841199 -0.0007199631073 1.582479119
v -0.03829775006 -0.0007281973958 1.58194375
v -0.03801964596 -0.0008349413984 1.582136393
v -0.03831255808 -0.001062857453 1.581889153
v -0.03806490451 -0.001198862214 1.581950188
v -0.03821342066 -0.0007187686861 1.583818793
v -0.03771755099 -0.001331366599 1.583865166
v -0.03729279712 -0.002042332198 1.583705783
v -0.03694992512 -0.002716945484 1.58337605
v -0.03723531216 -0.003064798191 1.583657265
v -0.0368636176 -0.002483377233 1.583137274
v -0.03666282818 -0.003313142806 1.582834363
v -0.03660842776 -0.003020505887 1.582644582
v -0.03690496087 -0.003735824488 1.583051562
v -0.03642335907 -0.003759254236 1.582045913
v -0.03663431108 -0.004253473599 1.582173347
v -0.03641045094 -0.003414035775 1.581928968
v -0.03627061844 -0.003996701445 1.58104229
v -0.03625299782 -0.003976800945 1.579891801
v -0.03629265726 -0.003614058252 1.581023335
v -0.0364654474 -0.004552884493 1.581062078
v -0.03646656126 -0.00459453417 1.579754949
v -0.03671074286 -0.004769484978 1.58106041
v -0.03687412292 -0.004437253345 1.58218658
v -0.03673363477 -0.004831941333 1.579728603
v -0.03701255843 -0.004882636014 1.581050158
v -0.03706307337 -0.004957267549 1.579734445
v -0.03733609989 -0.004885117058 1.581023932
v -0.03715427592 -0.004547368269 1.582162499
v -0.03739884496 -0.003989235032 1.583047986
v -0.03744366765 -0.00456855027 1.582102895
v -0.03772876784 -0.004496543203 1.58202076
v -0.03766778111 -0.00400867546 1.582971573
v -0.03792811185 -0.003962521907 1.582850575
v -0.03821349144 -0.003323481884 1.583362341
v -0.03817755729 -0.003853427712 1.582686186
v -0.03844735399 -0.003265848849 1.58311975
v -0.03841749951 -0.003655929118 1.582451582
v -0.03800965846 -0.004347441252 1.58190763
v -0.03796701878 -0.004590885248 1.580914617
v -0.0382918492 -0.004063266795 1.581723213
v -0.03837446496 -0.00386286946 1.581609011
v -0.03822781891 -0.004278949928 1.580811262
v -0.03824825957 -0.004301440436 1.579841733
v -0.03829532489 -0.004073572811 1.580756783
v -0.03835498542 -0.003892072942 1.580708742
v -0.03829792142 -0.004093119409 1.579845548
v -0.03846654668 -0.003845975269 1.57896471
v -0.03834180534 -0.003909005318 1.579848886
v -0.03831230104 -0.00350144133 1.579867601
v -0.03849316761 -0.003681045026 1.579025984
v -0.03874728829 -0.003231353126 1.578301787
v -0.03844948858 -0.00330639258 1.57913518
v -0.03868038952 -0.002916278783 1.578483343
v -0.03834393993 -0.002933647484 1.579228163
v -0.03822307289 -0.003126494586 1.579879045
v -0.0382114388 -0.002607598435 1.579297185
v -0.03855518252 -0.002578971442 1.578649759
v -0.0388699919 -0.002092116512 1.578199267
v -0.03841118142 -0.00226977421 1.578792095
v -0.03824418038 -0.001993432175 1.578891754
v -0.0387163274 -0.001807381865 1.578385472
v -0.03852785751 -0.00155087607 1.578522444
v -0.03910921514 -0.001266662031 1.578141928
v -0.03956064582 -0.0006541283801 1.578078628
v -0.03891157359 -0.001019465271 1.578294992
v -0.03928389028 -0.001507682726 1.577931881
v -0.03941506147 -0.001722248737 1.577678919
v -0.03974363208 -0.0008621066809 1.577866793
v -0.03989570588 -0.001040391624 1.577613115
v -0.04024060443 -0.0002231411636 1.578005433
v -0.04041114077 -0.0003819973208 1.577753186
v -0.04069578648 0.0003532688133 1.57825017
v -0.04004156217 -2.66097486e-05 1.578207016
v -0.0404631421 0.0005353023298 1.578460932
v -0.03982992098 0.0001982317772 1.57834506
v -0.04022901878 0.0007600972895 1.578602433
v -0.03961937502 0.00043526222 1.578411341
v -0.03935880214 -0.0004279292189 1.578230262
v -0.0391491577 -0.0001988252625 1.578308582
v -0.0389403291 2.667447552e-05 1.578302622
v -0.03869717941 -0.0007848804817 1.578381181
v -0.03848031536 -0.0005660359748 1.578389764
v -0.03832034767 -0.001314645167 1.57859993
v -0.03804836795 -0.001752697397 1.57895124
v -0.03809649125 -0.001108955592 1.578611851
v -0.03786166385 -0.0009649293497 1.578517437
v -0.03782063723 -0.001572041772 1.578956962
v -0.03762626275 -0.001940103248 1.57937324
v -0.03757256269 -0.001478091814 1.578876138
v -0.03735288978 -0.001475471072 1.578709006
v -0.03737298772 -0.001893469598 1.57930696
v -0.03715566173 -0.001941709314 1.579172492
v -0.03726172075 -0.002192313783 1.57980907
v -0.03703333065 -0.002292373683 1.57972002
v -0.03752038628 -0.002191204112 1.579865813
v -0.03722901642 -0.002319507301 1.580380559
v -0.03750161454 -0.002275727224 1.580408335
v -0.03727389872 -0.002264783252 1.580906987
v -0.03699687496 -0.002456965391 1.580332398
v -0.03679708019 -0.002667662222 1.580267549
v -0.03702168539 -0.002438794822 1.580927014
v -0.03708466887 -0.002281752881 1.581414938
v -0.03680249676 -0.002684142441 1.580955386
v -0.03660226986 -0.002979124896 1.580973506
v -0.03685861826 -0.002528362907 1.581527829
v -0.03666973487 -0.002810782753 1.581672072
v -0.03696311638 -0.002268895041 1.581985116
v -0.0367911756 -0.002512571868 1.582209587
v -0.036666926 -0.002767535858 1.582429528
v -0.03651466966 -0.003110448364 1.581804872
v -0.03642422706 -0.003292836715 1.581003189
v -0.0364205651 -0.003222285304 1.580118656
v -0.0362775512 -0.003558416385 1.580013275
v -0.03660180047 -0.002928505652 1.580187559
v -0.03651526943 -0.002903455868 1.579289556
v -0.03668530285 -0.002646108624 1.579464197
v -0.03669343889 -0.002403384075 1.578571439
v -0.03638663888 -0.003221716266 1.579074502
v -0.03658516333 -0.002670256421 1.578254938
v -0.03640438989 -0.003647041041 1.578806996
v -0.03665594012 -0.003036864568 1.577895045
v -0.03669247404 -0.00426165713 1.578491926
v -0.03705272824 -0.003589764237 1.577482581
v -0.03698436916 -0.004493426066 1.578429699
v -0.03737765923 -0.003797006328 1.577395439
v -0.03732596338 -0.004629944917 1.57844007
v -0.03772510588 -0.003930758219 1.577397227
v -0.03767947108 -0.004645633977 1.578519225
v -0.0374109 -0.004957504105 1.579763889
v -0.03806856647 -0.003977451939 1.577488661
v -0.03800681978 -0.004540076014 1.578628302
v -0.03836657479 -0.003914730158 1.577662349
v -0.03774309531 -0.004842322785 1.579799414
v -0.03826690838 -0.004329263698 1.578758001
v -0.03803310543 -0.004622328561 1.579826593
v -0.0385870859 -0.00375482766 1.57787776
v -0.03843642026 -0.00403261045 1.57889545
v -0.03871912882 -0.003518885467 1.578097939
v -0.03908557817 -0.002835422289 1.577478766
v -0.03873407841 -0.003366250079 1.578206182
v -0.03908707574 -0.002723195124 1.577616334
v -0.03908839449 -0.002624010202 1.577737927
v -0.0395081006 -0.001973746344 1.577267051
v -0.04002118483 -0.001218712423 1.57717824
v -0.03950014338 -0.001905944198 1.577404737
v -0.0395171009 -0.002050460316 1.577111244
v -0.04004322737 -0.001266548876 1.577013016
v -0.03944355622 -0.002148666419 1.576813817
v -0.04000435024 -0.001292006113 1.576696157
v -0.03898475692 -0.002997246571 1.577210903
v -0.03927754983 -0.002177969087 1.576540828
v -0.0387975052 -0.003094526473 1.57696104
v -0.03903720155 -0.00214411132 1.576329231
v -0.03987088427 -0.001257782802 1.576413751
v -0.0396604687 -0.001172747463 1.576192379
v -0.0404795669 -0.0003916365094 1.576529026
v -0.04029328749 -0.0002559400164 1.576301932
v -0.04108628631 0.0003718780354 1.576753855
v -0.04058915749 -0.0004844432697 1.576817513
v -0.04117534682 0.0002277563326 1.577046514
v -0.04060829058 -0.0005175876431 1.577139378
v -0.04116879031 0.0001469035633 1.577373981
v -0.04057295993 -0.0004989053123 1.577308893
v -0.04111693427 0.0001449738629 1.577547908
v -0.04054173455 -0.000482398551 1.577458858
v -0.04000171274 -0.001176440623 1.577324271
v -0.04107110202 0.000143263489 1.577701569
v -0.04155869409 0.0006887554191 1.578014255
v -0.04090575129 0.0002173972316 1.57799685
v -0.04134922102 0.0007170592435 1.5783149
v -0.04171724245 0.001119295135 1.578654528
v -0.04108718038 0.0008173405658 1.578572512
v -0.04137897491 0.001192183467 1.578884125
v -0.04080021009 0.0009830289055 1.578773022
v -0.04104451835 0.001345346216 1.579038501
v -0.04053495079 0.00119486847 1.578893661
v -0.04077857733 0.001538560726 1.579131603
v -0.04030267522 0.001431176905 1.578947306
v -0.04055727273 0.00176312332 1.579167724
v -0.04010115191 0.00169589743 1.5789361
v -0.0400063172 0.001012752764 1.578677535
v -0.03980238363 0.001279921504 1.578683019
v -0.03962822631 0.001537273638 1.578605413
v -0.03941837326 0.0006721066311 1.578402758
v -0.03923971951 0.0008867001161 1.578306794
v -0.03874312714 0.0002301509958 1.578198314
v -0.03910399228 0.001075058477 1.57812953
v -0.03858210519 0.0003955892753 1.578004241
v -0.03903283179 0.001216475153 1.577882409
v -0.03949880227 0.001754186349 1.57844007
v -0.03943128511 0.001928757643 1.578205347
v -0.03984059393 0.002270627767 1.578684211
v -0.03978517652 0.002498992952 1.578450799
v -0.04014272615 0.002563492861 1.578848839
v -0.03994597495 0.001981838141 1.578846455
v -0.04023349658 0.002298372332 1.579020262
v -0.04037047178 0.002021342982 1.579133749
v -0.04040750861 0.002561267465 1.579207778
v -0.04056617618 0.002293909434 1.579325676
v -0.04029108584 0.002739602467 1.579468727
v -0.04031990841 0.002867727075 1.579081059
v -0.0403467305 0.003333165776 1.578956246
v -0.04017038643 0.003063081764 1.579301238
v -0.0402033776 0.003476128913 1.579125762
v -0.04033821821 0.003752260935 1.579020739
v -0.04055956751 0.003996540327 1.578938723
v -0.04078216478 0.004134889692 1.578902841
v -0.04043160006 0.003451768542 1.578729272
v -0.04057549313 0.003625586396 1.57849884
v -0.04015113041 0.003097720444 1.578423381
v -0.04012867808 0.002848552773 1.578661799
v -0.03979380056 0.002676147036 1.578168273
v -0.04027561843 0.003287455766 1.578160524
v -0.03988229483 0.002786276396 1.577878475
v -0.0405030027 0.003376092296 1.577926517
v -0.04007770121 0.002820244525 1.577621579
v -0.04080031812 0.003742105793 1.578318477
v -0.04098288715 0.003291364759 1.577681541
v -0.04127912596 0.00372118922 1.578116298
v -0.04135882109 0.003166197799 1.577583551
v -0.04042007774 0.002777652815 1.577412963
v -0.04103222862 0.002596356906 1.577140927
v -0.04006156325 0.002086359076 1.577089071
v -0.03973891586 0.002129001776 1.577334762
v -0.04061705247 0.001916192006 1.576773286
v -0.03959642351 0.00129163661 1.576754093
v -0.04010148719 0.00111010368 1.576439977
v -0.03898829967 0.0004313122481 1.576519012
v -0.03931357339 0.00135000539 1.577015996
v -0.03913893923 0.001347160898 1.577296853
v -0.03872875869 0.0005194181576 1.576811314
v -0.03806405514 -0.0003134934232 1.576815128
v -0.03857458755 0.0005551325157 1.577113509
v -0.0384923555 0.0005549574271 1.57743001
v -0.03793982044 -0.0002395636402 1.577152252
v -0.03789553419 -0.0002072588541 1.577489376
v -0.03738818318 -0.001041580923 1.577442527
v -0.0374173373 -0.0009700111113 1.577778935
v -0.03697767854 -0.001770178787 1.577958107
v -0.0374340266 -0.001159470528 1.577074289
v -0.03693358228 -0.001961116213 1.577583075
v -0.03764295578 -0.001371179707 1.576666594
v -0.03813171387 -0.001746387687 1.576216936
v -0.03831401467 -0.0004561482929 1.576467037
v -0.0370727703 -0.002259357832 1.577156186
v -0.03751956299 -0.002737098839 1.576697707
v -0.03785645962 -0.002923558466 1.576627016
v -0.03819940984 -0.003047225531 1.576659203
v -0.03844355419 -0.001922952011 1.576152921
v -0.0387497507 -0.00204941025 1.576209068
v -0.03910962492 -0.000896085985 1.576016307
v -0.03976494074 6.876699626e-05 1.576117277
v -0.03939918801 -0.001047194935 1.576056838
v -0.03881186992 -0.0007360712625 1.576074839
v -0.03947585076 0.0002201662865 1.576180577
v -0.0400473848 -9.65250656e-05 1.576158524
v -0.04067511484 0.0007569249719 1.57639122
v -0.04091263562 0.0005557283293 1.57652843
v -0.04039438814 0.0009487085044 1.576365232
v -0.04123640805 0.001522552688 1.576700687
v -0.04147898778 0.001282797195 1.576838732
v -0.04173199087 0.002183757257 1.577079415
v -0.04093571752 0.001742365304 1.576684475
v -0.04139490798 0.002418849152 1.577059627
v -0.04179091007 0.003022338729 1.577471018
v -0.04204614833 0.003503045999 1.577941179
v -0.04213078693 0.00281369593 1.577506542
v -0.04235165566 0.003304667072 1.577974916
v -0.04239675775 0.002558380831 1.577646852
v -0.04258211702 0.003040525829 1.578094959
v -0.04254711419 0.002282177797 1.577876806
v -0.04199476168 0.001918415306 1.577215552
v -0.04216255993 0.001663245028 1.57744658
v -0.04222024977 0.001445196103 1.577739239
v -0.04164727032 0.001055184286 1.577064514
v -0.0417224355 0.0008647146169 1.577357054
v -0.04169164225 0.0007339271251 1.577685833
v -0.04216389358 0.001270293491 1.578058004
v -0.04162106663 0.0007099455688 1.577860236
v -0.04207089916 0.001209793845 1.578224301
v -0.04235817119 0.001678360393 1.57860744
v -0.04198871553 0.001156334067 1.578371286
v -0.04226078466 0.00158796832 1.578743458
v -0.04195744917 0.001489674207 1.578990579
v -0.04237809032 0.001957445638 1.579082727
v -0.04247561842 0.002061465755 1.578953624
v -0.04239689559 0.002366066445 1.579453945
v -0.04208627343 0.001837103628 1.579311728
v -0.04217964783 0.00222768262 1.579653025
v -0.04174151272 0.00184425828 1.579488754
v -0.04159300774 0.001524178544 1.579178214
v -0.04194306955 0.002158287913 1.579805017
v -0.04140190408 0.001963523449 1.579581738
v -0.04161290452 0.002176595852 1.579923749
v -0.04124395177 0.001668016892 1.579289556
v -0.04113367572 0.00212776335 1.579610825
v -0.04097859189 0.001851431793 1.579339743
v -0.04123000428 0.00234976341 1.579959869
v -0.04089733958 0.002286742441 1.579626083
v -0.0405741632 0.002495431807 1.579662561
v -0.04076481611 0.002065563109 1.5793612
v -0.04104147851 0.002416535281 1.579990387
v -0.04081180319 0.002423062921 1.580079436
v -0.04121071473 0.002415638883 1.580255866
v -0.04105213657 0.002388055436 1.580366135
v -0.04132948816 0.00243629748 1.580173254
v -0.04136800393 0.002518478315 1.580420732
v -0.04157071561 0.002723485464 1.580431461
v -0.04145335779 0.002541891532 1.580303669
v -0.04125403613 0.002487222664 1.580577016
v -0.04148339108 0.002707802691 1.580588818
v -0.04163761809 0.002998427954 1.580536366
v -0.04171858728 0.003349084407 1.580440283
v -0.04171453044 0.002990108915 1.58038795
v -0.04177213833 0.002983881626 1.580276966
v -0.04179951549 0.003338550217 1.580307007
v -0.04186012968 0.003330659121 1.580207229
v -0.04183127731 0.003737991676 1.58018434
v -0.04160960391 0.004256805871 1.580234051
v -0.04191036895 0.003732806537 1.580067039
v -0.04172568768 0.003744909074 1.580340862
v -0.0423531644 0.00327996118 1.579636574
v -0.04215263203 0.003952357918 1.579721451
v -0.04158312827 0.004441494588 1.580170512
v -0.04162555933 0.004838303197 1.579925299
v -0.04171052575 0.004935485311 1.579669714
v -0.04159493372 0.004947583191 1.579243898
v -0.04227515683 0.004080928862 1.579460025
v -0.04230329022 0.004219628405 1.579016209
v -0.04254122823 0.003576763906 1.579245925
v -0.04279317334 0.003118143883 1.578786254
v -0.04248770326 0.003472675104 1.57939446
v -0.04255401343 0.003770631971 1.578899741
v -0.0424223803 0.0039238967 1.578638554
v -0.04272519797 0.003398880828 1.578613043
v -0.04254979268 0.003688393626 1.578489304
v -0.04230482876 0.003876084462 1.57846117
v -0.04189816117 0.003999283072 1.578541756
v -0.04164223 0.003617923474 1.578033447
v -0.04141288996 0.004146293737 1.578637838
v -0.04214973003 0.004247769248 1.578677177
v -0.04159464315 0.004628618248 1.578734994
v -0.0414044261 0.004832014441 1.578797221
v -0.04103146121 0.004164523911 1.578780651
v -0.04274477437 0.002880845219 1.578959823
v -0.04269610718 0.002456862945 1.578539133
v -0.04265354574 0.002651341492 1.579149961
v -0.04258596152 0.002179166768 1.578807473
v -0.04252469912 0.002504006494 1.579308152
v -0.042232126 0.003022475867 1.579788089
v -0.04212443158 0.002840090077 1.579895854
v -0.04195012525 0.002569916192 1.579973698
v -0.04163612053 0.002735234797 1.580313683
v -0.04178455845 0.002412047936 1.580012918
v -0.04162213951 0.002334954683 1.580032468
v -0.04246836528 0.001780649181 1.578453541
v -0.04256740957 0.002015595324 1.578155398
v -0.042705331 0.00274758134 1.578299999
v -0.0385238491 -0.003106188029 1.576772571
v -0.03708041459 -0.001641154755 1.578256845
v -0.03684185073 -0.002206430305 1.578817725
v -0.03719850257 -0.001546030864 1.57849431
v -0.03750699759 -0.0009261509404 1.57807374
v -0.03698777407 -0.002058225218 1.579010844
v -0.03685384244 -0.002442920115 1.57960403
v -0.03794182837 -0.0002115434036 1.577804804
v -0.03765289485 -0.000910858158 1.578328252
v -0.03806848451 -0.000271061901 1.578077793
v -0.03825874999 -0.0003871018998 1.578285217
v -0.03849498183 0.0005065135192 1.577737451
v -0.03904718533 0.00130674988 1.577594161
v -0.03943979368 0.002048368566 1.577916861
v -0.03954031691 0.002110508969 1.577613235
v -0.03900467977 -0.002375237644 1.577978849
v -0.03765673563 -0.004786953796 1.580981851
v -0.0373500064 -0.002104119398 1.581309438
v -0.03765889257 -0.002034564968 1.581236005
v -0.03755774349 -0.002207050566 1.580900908
v -0.03796193376 -0.00208284054 1.581217885
v -0.03783800453 -0.002259304281 1.580914617
v -0.03821091726 -0.002231794409 1.581283808
v -0.03807662427 -0.002409168519 1.580953121
v -0.03836816177 -0.002447111532 1.581423998
v -0.03834124282 -0.002058440354 1.581534982
v -0.03850023821 -0.002251845319 1.58168757
v -0.03861997277 -0.002475783229 1.581877589
v -0.03863419592 -0.002066202927 1.581875443
v -0.03847581148 -0.002704537008 1.581605315
v -0.03835374862 -0.002947648522 1.581143379
v -0.03855906054 -0.003005099948 1.581817508
v -0.03857329115 -0.003330090549 1.582104802
v -0.03844170645 -0.003284422681 1.581301093
v -0.0384474732 -0.003685770091 1.58150816
v -0.03834075108 -0.00347781647 1.58061707
v -0.03824782372 -0.003114467021 1.580549836
v -0.03813127056 -0.002797802445 1.580496907
v -0.03823502734 -0.002648498863 1.581045389
v -0.03811156377 -0.002793520223 1.579891443
v -0.0379832685 -0.002528467216 1.580463648
v -0.03796462342 -0.002511497121 1.579897761
v -0.03776686639 -0.002345952671 1.580431938
v -0.03776646778 -0.002299868036 1.57989192
v -0.03785758838 -0.00209417427 1.579384804
v -0.03805213794 -0.002324436791 1.579351425
v -0.03850020468 -0.003482954111 1.582267523
v -0.03864131123 -0.003160859458 1.582796097
v -0.0387304984 -0.002738640644 1.583290577
v -0.03713591397 -0.003898914438 1.583080173
v -0.03999316692 -0.001358689275 1.582866907
v -0.03958373517 -0.001327465288 1.583506107
v -0.04003619403 -0.001077209134 1.583102226
v -0.03995465115 -0.0008113277145 1.583335638
v -0.04054116458 -0.0007177079096 1.5825665
v -0.04094558954 -0.0003377874382 1.581908345
v -0.0405122824 -0.0004227892496 1.582740903
v -0.04060585424 -0.0009775036015 1.582429886
v -0.04104740173 -0.0006125634536 1.581854105
v -0.0409107469 -0.001157113351 1.582497954
v -0.04131332412 -0.0008390024304 1.581932545
v -0.04038154706 -0.001556084491 1.582782745
v -0.04117938504 -0.001484137494 1.582373977
v -0.04148223996 -0.001208629925 1.581867099
v -0.04129480943 -0.001925362274 1.582062244
v -0.04069670662 -0.001762358472 1.582758427
v -0.04099320248 -0.002147684805 1.582376599
v -0.04031680897 -0.002203590237 1.582822442
v -0.04068842158 -0.002443174832 1.582523227
v -0.04011969268 -0.002621314023 1.582738161
v -0.03999175876 -0.002005754039 1.582840443
v -0.04042482004 -0.002751321532 1.582500219
v -0.03997986764 -0.003022311721 1.582531452
v -0.04027930647 -0.003094030079 1.582286
v -0.03991435841 -0.003432401456 1.582164764
v -0.04019973427 -0.003407256678 1.581936121
v -0.03985462338 -0.003759978805 1.581642628
v -0.03934214637 -0.003168329597 1.582313657
v -0.03925237805 -0.003648817539 1.581733346
v -0.03908693418 -0.002938335296 1.582195163
v -0.03896286339 -0.003422399051 1.581669807
v -0.03893975168 -0.002705015708 1.581954598
v -0.03879959136 -0.003113550134 1.58152163
v -0.03909824789 -0.002355060074 1.582131028
v -0.03868918493 -0.002737072296 1.581298113
v -0.03875931352 -0.003396853339 1.5808568
v -0.03881266713 -0.003455252852 1.580259085
v -0.03864555806 -0.003077071626 1.58073163
v -0.0389716886 -0.00372835435 1.580967546
v -0.03902411088 -0.003749316093 1.580271363
v -0.0392902866 -0.003897804301 1.581023455
v -0.03984292969 -0.003921305295 1.581044674
v -0.03940597177 -0.003916615155 1.580325007
v -0.03994658962 -0.003885708284 1.580429077
v -0.03952498734 -0.003695551306 1.579743028
v -0.03961795196 -0.003339937888 1.57931304
v -0.04005554691 -0.003697161563 1.579893827
v -0.03914437816 -0.003527299501 1.579715967
v -0.0389098376 -0.003272087313 1.57976079
v -0.03926524147 -0.003174557351 1.579306006
v -0.03893335164 -0.002907665446 1.5794276
v -0.03936807066 -0.002743951045 1.578963876
v -0.03972913697 -0.002917430829 1.578941703
v -0.04026609659 -0.003047704231 1.579070568
v -0.03989673778 -0.002444727812 1.578674078
v -0.04040673748 -0.002593905199 1.578808427
v -0.04063882306 -0.002627198119 1.578942895
v -0.04055441543 -0.002093348186 1.578704953
v -0.04076119512 -0.002149667591 1.578843355
v -0.04079263285 -0.002158958931 1.578863263
v -0.04090509191 -0.001615944318 1.578847528
v -0.04093211889 -0.001630233601 1.578872204
v -0.04105173051 -0.0009849672206 1.578985333
v -0.04120625183 -0.001136623323 1.579166293
v -0.04113906249 -0.0002834396437 1.579403758
v -0.0412773788 -0.0004874626175 1.579572797
v -0.04113350809 0.0002656502184 1.580155373
v -0.04124584422 1.460500062e-05 1.580299735
v -0.04095771536 0.000468705548 1.58001411
v -0.0410518907 0.0004964908585 1.58110702
v -0.0411507301 0.0001885746606 1.581176758
v -0.04088803008 0.0007549929433 1.581026077
v -0.04084708169 0.0002914017532 1.58204174
v -0.04092299566 -1.946743578e-05 1.582004428
v -0.04043263197 -9.742705151e-05 1.582836986
v -0.04119338468 -0.0001483764499 1.581201553
v -0.04133481905 -0.0002722474746 1.580429673
v -0.0413357392 -0.0004699169658 1.581228137
v -0.04151998833 -0.0005682203919 1.580532551
v -0.04158252105 -0.0007691620849 1.58129704
v -0.04170024022 -0.001196150668 1.581284285
v -0.04173101112 -0.0009570624679 1.580607533
v -0.04169582576 -0.001282974146 1.580015063
v -0.0417923741 -0.001362517476 1.580670118
v -0.04177078605 -0.001501929481 1.580229163
v -0.0417550914 -0.001811055001 1.580593586
v -0.04167617857 -0.002281961031 1.580484748
v -0.04167763516 -0.001737514976 1.581169844
v -0.04172425717 -0.001846767031 1.580071926
v -0.04164310545 -0.001688017044 1.579758883
v -0.04165893421 -0.002213069703 1.579977751
v -0.0416402109 -0.002290975768 1.579965472
v -0.04157892615 -0.002077968791 1.57962966
v -0.04156224802 -0.002157390583 1.579617262
v -0.04146271944 -0.001931148581 1.579400539
v -0.04144211113 -0.002022859175 1.579381824
v -0.04153647646 -0.001472535543 1.579587579
v -0.04127567634 -0.00181544153 1.579183459
v -0.04125602171 -0.00191481458 1.579169393
v -0.04108683392 -0.001712055877 1.579013705
v -0.04135450721 -0.001300479751 1.57935524
v -0.04141054302 -0.0007095616311 1.579746008
v -0.04158782214 -0.0009857979603 1.579940557
v -0.040972583 -0.00221214164 1.578977346
v -0.04113689438 -0.002070731483 1.579088449
v -0.04101777077 -0.002226647921 1.579007387
v -0.04091171548 -0.002679576166 1.579059005
v -0.04118380696 -0.002279962879 1.579117894
v -0.04136638716 -0.002359854057 1.579313278
v -0.04107943177 -0.002706597559 1.579146385
v -0.04126858711 -0.002742679324 1.579311848
v -0.04096101224 -0.003124487121 1.579289556
v -0.04079118371 -0.003105310723 1.579246283
v -0.04118115082 -0.003094025888 1.579443336
v -0.04087973386 -0.003485811874 1.579570889
v -0.04082494229 -0.003735089209 1.579999924
v -0.04110079631 -0.003401005175 1.579677105
v -0.04068615288 -0.003468957264 1.579544425
v -0.04061038047 -0.003717924468 1.579981208
v -0.04063347727 -0.003464369103 1.579537153
v -0.04074496031 -0.003100086935 1.579234481
v -0.04043321311 -0.003410323057 1.579530239
v -0.040551994 -0.003713252023 1.579976082
v -0.04047896713 -0.003815945704 1.580494046
v -0.04033775628 -0.00363813946 1.579972744
v -0.0402382277 -0.003761418629 1.580480099
v -0.04030033201 -0.003625019919 1.579972148
v -0.04019617662 -0.003751892131 1.580477715
v -0.04039824009 -0.003400883172 1.579529047
v -0.04015189037 -0.00341946166 1.579444051
v -0.04050885886 -0.003051468171 1.579197168
v -0.040543966 -0.003058697097 1.579202652
v -0.0406726189 -0.002633892931 1.578956604
v -0.04086607322 -0.002672221046 1.579035163
v -0.04011529684 -0.003786025103 1.581006527
v -0.04011436179 -0.003659041598 1.581515431
v -0.0404231064 -0.003758403007 1.580991745
v -0.04049540684 -0.003761031199 1.580991745
v -0.04041063786 -0.003562685568 1.581366181
v -0.04049570486 -0.003577974159 1.581357479
v -0.04044824839 -0.003338322975 1.581667185
v -0.04054666311 -0.003109936602 1.581910849
v -0.04050857574 -0.003362331074 1.581645727
v -0.04073024541 -0.003450540826 1.581567168
v -0.04061344638 -0.003154807258 1.581860423
v -0.04085884243 -0.003319660667 1.581675291
v -0.04077010974 -0.002903493587 1.582042933
v -0.04096761718 -0.002689835615 1.582045436
v -0.04069381952 -0.002842922695 1.582116127
v -0.04105047882 -0.003126062453 1.581774116
v -0.04118959978 -0.002918106504 1.581803679
v -0.04122598469 -0.003323240671 1.581423402
v -0.04101505503 -0.003511195537 1.581368804
v -0.04125566036 -0.003399090841 1.581037879
v -0.04139306024 -0.003110188991 1.581443071
v -0.04148579389 -0.002765165642 1.581567883
v -0.04143289849 -0.003144266084 1.581094503
v -0.04142475501 -0.003140956629 1.580700755
v -0.04157023132 -0.002777963877 1.581214786
v -0.04155403748 -0.002407981083 1.581363797
v -0.0415609479 -0.002795217093 1.580809116
v -0.04161678627 -0.002417059615 1.580945373
v -0.04157608375 -0.002725509927 1.580362797
v -0.04165476933 -0.002376848366 1.580458641
v -0.04144309461 -0.00307885278 1.580261707
v -0.04157141224 -0.002577238716 1.579920053
v -0.04146149009 -0.002911369316 1.579877973
v -0.0415009819 -0.002449247055 1.579571843
v -0.04140084237 -0.002793927677 1.579578757
v -0.04131047428 -0.003044401295 1.579591393
v -0.04130104184 -0.00320674479 1.579807043
v -0.04127512127 -0.00336069148 1.580164552
v -0.04107626528 -0.003602400888 1.580072284
v -0.04125419259 -0.003435538616 1.580618858
v -0.04103909805 -0.003678306472 1.580560803
v -0.04077253863 -0.00383029459 1.580520153
v -0.04104520008 -0.003622139804 1.580997348
v -0.04076110199 -0.003770689946 1.580991864
v -0.04080830142 -0.003634147346 1.581325531
v -0.04054176807 -0.003819011617 1.58049953
v -0.04163198546 -0.002314153127 1.580982447
v -0.04154963046 -0.002307292074 1.581404328
v -0.04138279334 -0.002353059594 1.58175981
v -0.04152554646 -0.001790300943 1.581640244
v -0.04114342853 -0.00244659977 1.58199513
v -0.04140482843 -0.002441218589 1.581718802
v -0.04117917642 -0.002505918965 1.581950784
v -0.04131051898 -0.002723873127 1.581787705
v -0.0409072116 -0.002627714071 1.582111239
v -0.03864908591 -0.002596184611 1.579683185
v -0.0386679396 -0.002948133741 1.580013514
v -0.03850634769 -0.002204755321 1.580146909
v -0.03854643553 -0.002636440564 1.580446601
v -0.03869503364 -0.003196270205 1.580287576
v -0.03976912796 -0.0007288400084 1.578789353
v -0.03948029876 -0.00117092859 1.578768253
f 1 2 7 6
f 1 3 105 2
f 1 4 608 3
f 1 5 4
f 1 6 5
f 5 6 8 12
f 6 7 10 8
f 9 8 13 17
f 9 621 12 8
f 123 11 8 10
f 13 8 11
f 13 14 182 16
f 15 134 14 13
f 16 19 17 13
f 9 17 18 621
f 19 21 18 17
f 180 20 19 16
f 22 21 19 20
f 22 26 23 21
f 24 18 21 23
f 622 24 23 25
f 25 23 26 27
f 27 26 28 30
f 22 29 28 26
f 32 31 28 29
f 30 28 31 33
f 32 35 34 31
f 37 33 31 34
f 176 36 34 35
f 36 38 37 34
f 37 38 41 39
f 37 39 42 33
f 42 39 40 44
f 783 40 39 41
f 42 43 30 33
f 42 44 45 43
f 46 44 40 49
f 45 44 46 47
f 48 639 47 46
f 51 48 46 49
f 783 50 49 40
f 53 51 49 50
f 53 55 52 51
f 51 52 642 48
f 54 57 55 53
f 54 53 50 782
f 645 52 55 56
f 56 55 57 58
f 58 57 59 60
f 62 59 57 54
f 60 59 61 656
f 64 61 59 62
f 62 54 782 63
f 64 62 63 65
f 66 68 61 64
f 66 64 65 67
f 69 66 67 70
f 69 72 68 66
f 71 69 70 171
f 71 74 72 69
f 659 68 72 73
f 73 72 74 75
f 75 74 76 79
f 78 76 74 71
f 169 77 76 78
f 79 76 77 81
f 79 81 83 80
f 75 79 80 662
f 81 77 184 82
f 81 82 85 83
f 591 80 83 84
f 84 83 85 86
f 87 88 86 85
f 82 89 87 85
f 87 90 93 88
f 87 89 91 90
f 92 90 91 188
f 93 90 92 94
f 93 95 98 88
f 93 94 97 95
f 97 213 96 95
f 100 98 95 96
f 99 98 100 102
f 99 86 88 98
f 100 96 586 101
f 100 101 104 102
f 104 105 103 102
f 99 102 103 589
f 106 2 105 104
f 106 104 101 108
f 106 107 7 2
f 110 107 106 108
f 586 109 108 101
f 110 108 109 112
f 111 122 107 110
f 111 110 112 114
f 585 113 112 109
f 112 113 115 114
f 116 119 111 114
f 116 114 115 117
f 565 118 116 117
f 116 118 120 119
f 124 121 119 120
f 111 119 121 122
f 122 121 123 10
f 123 121 124 125
f 124 120 127 126
f 124 126 129 125
f 127 138 128 126
f 130 129 126 128
f 131 133 125 129
f 130 132 131 129
f 123 125 133 11
f 130 134 15 132
f 135 134 130 128
f 135 136 14 134
f 135 128 138 137
f 139 136 135 137
f 141 140 137 138
f 139 137 140 143
f 141 563 142 140
f 142 144 143 140
f 145 143 144 147
f 145 146 139 143
f 145 148 151 146
f 149 148 145 147
f 149 286 150 148
f 153 151 148 150
f 152 183 146 151
f 152 151 153 154
f 153 155 156 154
f 153 150 157 155
f 161 156 155 158
f 157 159 158 155
f 160 158 159 189
f 160 162 161 158
f 161 162 165 163
f 161 163 164 156
f 164 163 166 167
f 169 166 163 165
f 170 167 166 168
f 169 78 168 166
f 184 77 169 165
f 170 168 171 172
f 78 71 171 168
f 172 171 70 174
f 172 174 175 173
f 170 172 173 177
f 174 176 35 175
f 174 70 67 176
f 176 67 65 36
f 32 29 175 35
f 22 173 175 29
f 22 20 177 173
f 178 177 20 180
f 178 167 170 177
f 164 167 178 179
f 178 180 181 179
f 182 181 180 16
f 152 154 179 181
f 182 183 152 181
f 182 14 136 183
f 139 146 183 136
f 164 179 154 156
f 185 184 165 162
f 82 184 185 89
f 160 186 185 162
f 91 89 185 186
f 187 186 160 189
f 91 186 187 188
f 190 192 188 187
f 190 187 189 191
f 195 193 190 191
f 194 192 190 193
f 194 193 196 199
f 195 198 196 193
f 197 196 198 292
f 197 200 199 196
f 201 199 200 203
f 201 202 194 199
f 204 207 202 201
f 204 201 203 205
f 206 204 205 308
f 206 209 207 204
f 208 587 202 207
f 211 208 207 209
f 212 211 209 210
f 554 210 209 206
f 97 211 212 213
f 97 94 208 211
f 212 214 215 213
f 212 210 217 214
f 585 215 214 216
f 217 219 216 214
f 218 217 210 554
f 218 221 219 217
f 221 223 220 219
f 584 216 219 220
f 222 221 218 314
f 222 225 223 221
f 220 223 224 572
f 223 225 227 224
f 316 226 225 222
f 225 226 229 227
f 227 228 573 224
f 231 228 227 229
f 226 319 230 229
f 230 232 231 229
f 231 233 234 228
f 231 232 236 233
f 577 234 233 235
f 236 238 235 233
f 236 237 240 238
f 236 232 553 237
f 240 241 239 238
f 583 235 238 239
f 242 244 241 240
f 242 240 237 245
f 242 245 247 243
f 257 244 242 243
f 245 237 553 246
f 245 246 248 247
f 249 252 243 247
f 249 247 248 250
f 348 251 249 250
f 249 251 253 252
f 257 243 252 254
f 253 255 254 252
f 256 254 255 360
f 256 258 257 254
f 257 258 260 244
f 258 259 261 260
f 256 363 259 258
f 264 262 260 261
f 244 260 262 241
f 263 262 264 266
f 263 239 241 262
f 264 261 548 265
f 264 265 268 266
f 263 266 267 582
f 270 267 266 268
f 269 268 265 546
f 269 271 270 268
f 270 271 273 272
f 270 272 274 267
f 278 275 272 273
f 274 272 275 276
f 277 557 276 275
f 277 275 278 280
f 278 273 544 279
f 278 279 282 280
f 277 280 281 555
f 284 281 280 282
f 283 282 279 293
f 283 285 284 282
f 284 285 287 286
f 284 286 149 281
f 157 150 286 287
f 288 287 285 289
f 157 287 288 159
f 288 289 195 191
f 288 191 189 159
f 283 290 289 285
f 195 289 290 198
f 291 290 283 293
f 291 292 198 290
f 297 292 291 294
f 291 293 295 294
f 540 296 294 295
f 297 294 296 298
f 300 299 297 298
f 297 299 197 292
f 301 299 300 302
f 197 299 301 200
f 301 303 203 200
f 301 302 304 303
f 305 205 203 303
f 304 306 305 303
f 305 306 309 307
f 305 307 308 205
f 310 312 308 307
f 309 311 310 307
f 310 311 315 313
f 310 313 314 312
f 316 222 314 313
f 315 317 316 313
f 316 317 319 226
f 319 317 318 320
f 315 329 318 317
f 230 319 320 321
f 322 320 318 325
f 324 321 320 322
f 324 322 323 345
f 322 325 326 323
f 325 327 328 326
f 325 318 329 327
f 327 330 333 328
f 327 329 331 330
f 330 331 538 332
f 330 332 334 333
f 336 335 333 334
f 338 328 333 335
f 336 437 337 335
f 337 339 338 335
f 338 339 341 340
f 338 340 326 328
f 342 323 326 340
f 341 343 342 340
f 342 343 346 344
f 344 345 323 342
f 344 250 248 345
f 344 346 348 250
f 343 458 347 346
f 348 346 347 349
f 348 349 351 251
f 350 349 347 461
f 352 351 349 350
f 352 354 353 351
f 253 251 351 353
f 355 353 354 356
f 253 353 355 255
f 355 356 358 357
f 355 357 360 255
f 358 376 359 357
f 359 361 360 357
f 361 363 256 360
f 359 374 362 361
f 361 362 364 363
f 363 364 365 259
f 367 365 364 366
f 362 369 366 364
f 367 366 368 549
f 368 366 369 370
f 371 372 370 369
f 371 369 362 374
f 371 373 390 372
f 375 373 371 374
f 359 376 375 374
f 375 377 380 373
f 375 376 378 377
f 479 379 377 378
f 382 380 377 379
f 381 380 382 383
f 381 390 373 380
f 381 383 384
f 381 384 385 387
f 386 388 387 385
f 388 392 389 387
f 381 387 389 390
f 391 372 390 389
f 393 391 389 392
f 393 392 394 395
f 394 392 388 396
f 394 397 400 395
f 394 396 398 397
f 398 518 399 397
f 397 399 401 400
f 401 404 402 400
f 400 402 403 395
f 402 405 408 403
f 406 405 402 404
f 407 405 406 434
f 408 405 407 410
f 408 409 552 403
f 408 410 412 409
f 407 423 411 410
f 412 410 411 414
f 412 413 550 409
f 412 414 415 413
f 419 416 414 411
f 415 414 416 417
f 418 539 417 416
f 418 416 419 420
f 419 411 423 421
f 419 421 424 420
f 422 421 423 433
f 422 425 424 421
f 424 300 298 420
f 424 425 302 300
f 304 302 425 426
f 428 426 425 422
f 304 426 427 306
f 429 427 426 428
f 429 428 430 432
f 428 422 433 430
f 431 430 433 434
f 431 435 432 430
f 407 434 433 423
f 406 438 431 434
f 332 429 432 334
f 336 334 432 435
f 431 438 436 435
f 436 437 336 435
f 436 439 440 437
f 436 438 442 439
f 451 440 439 441
f 441 439 442 443
f 443 442 404 401
f 406 404 442 438
f 401 399 444 443
f 441 443 444 446
f 399 518 445 444
f 447 446 444 445
f 447 449 448 446
f 451 441 446 448
f 537 450 448 449
f 452 451 448 450
f 452 454 440 451
f 453 452 450 536
f 453 455 454 452
f 337 454 455 339
f 337 437 440 454
f 457 456 455 453
f 341 339 455 456
f 459 458 456 457
f 341 456 458 343
f 461 347 458 459
f 461 459 460 462
f 459 457 535 460
f 350 461 462 463
f 467 463 462 464
f 460 465 464 462
f 465 528 466 464
f 466 468 467 464
f 467 468 471 469
f 467 469 470 463
f 472 474 470 469
f 471 473 472 469
f 472 473 477 475
f 472 475 476 474
f 476 475 478 480
f 477 481 478 475
f 479 478 481 482
f 479 378 480 478
f 484 482 481 483
f 483 481 477 485
f 489 484 483 486
f 486 483 485 488
f 486 487 490 489
f 532 487 486 488
f 487 493 491 490
f 491 493 495 492
f 493 494 496 495
f 532 494 493 487
f 499 497 495 496
f 495 497 500 492
f 497 498 500
f 499 503 498 497
f 499 501 511 502
f 499 496 529 501
f 499 502 504 503
f 507 505 504 502
f 508 506 505 507
f 507 502 511 509
f 507 509 512 508
f 510 514 512 509
f 510 509 511 524
f 512 514 515 513
f 508 512 513 520
f 447 515 514 449
f 514 510 537 449
f 516 515 447 445
f 513 515 516
f 518 517 516 445
f 520 513 516 517
f 398 519 517 518
f 520 517 519 521
f 508 520 521 522 506
f 521 519 523 522
f 522 523 386
f 519 398 396 523
f 523 396 388 386
f 524 511 501 526
f 537 510 524 525
f 524 526 527 525
f 527 526 528 465
f 526 501 529 528
f 528 529 530 466
f 494 530 529 496
f 466 530 531 468
f 531 530 494 532
f 531 532 488 533
f 468 531 533 471
f 534 473 471 533
f 534 533 488 485
f 534 485 477 473
f 527 535 536 525
f 527 465 460 535
f 457 453 536 535
f 537 525 536 450
f 358 480 378 376
f 358 356 476 480
f 474 476 356 354
f 474 354 352 470
f 352 350 463 470
f 332 538 427 429
f 309 306 427 538
f 309 538 331 311
f 418 420 298 296
f 540 539 418 296
f 540 543 541 539
f 542 417 539 541
f 542 541 269 546
f 269 541 543 271
f 544 273 271 543
f 544 543 540 295
f 544 295 293 279
f 415 417 542 545
f 542 546 547 545
f 548 547 546 265
f 367 549 545 547
f 548 365 367 547
f 548 261 259 365
f 415 545 549 413
f 368 550 413 549
f 368 370 551 550
f 551 552 409 550
f 551 370 372 391
f 551 391 393 552
f 393 395 403 552
f 246 324 345 248
f 315 311 331 329
f 246 553 321 324
f 230 321 553 232
f 218 554 312 314
f 554 206 308 312
f 149 147 555 281
f 556 557 277 555
f 556 555 147 144
f 142 558 556 144
f 556 558 559 557
f 561 559 558 560
f 142 563 560 558
f 561 560 562 576
f 562 560 563 564
f 141 566 564 563
f 562 564 565 567
f 565 564 566 118
f 127 120 118 566
f 127 566 141 138
f 565 117 569 567
f 562 567 568 576
f 571 568 567 569
f 570 572 571 569
f 570 569 117 115
f 571 572 224 573
f 571 573 574 568
f 574 573 228 234
f 574 575 576 568
f 574 234 577 575
f 561 576 575 578
f 577 579 578 575
f 580 578 579 581
f 580 559 561 578
f 580 276 557 559
f 274 276 580 581
f 274 581 582 267
f 583 582 581 579
f 583 239 263 582
f 577 235 583 579
f 570 584 220 572
f 113 584 570 115
f 585 216 584 113
f 586 215 585 109
f 586 96 213 215
f 208 94 92 587
f 194 202 587 192
f 92 188 192 587
f 7 107 122 10
f 588 103 105 3
f 588 590 589 103
f 84 86 99 589
f 591 84 589 590
f 588 595 592 590
f 594 591 590 592
f 593 592 595 596
f 593 661 594 592
f 597 595 588 599
f 597 598 596 595
f 601 598 597 600
f 603 600 597 599
f 601 600 602 771
f 602 600 603 604
f 605 603 599 608
f 604 603 605 606
f 606 605 607 609
f 607 605 608 4
f 588 3 608 599
f 611 609 607 610
f 610 607 4 5
f 615 612 610 5
f 611 610 612 613
f 613 612 614 723
f 615 616 614 612
f 617 618 616 615
f 617 615 5 12
f 620 618 617 619
f 619 617 12 621
f 620 619 24 622
f 24 619 621 18
f 626 618 620 623
f 620 622 625 623
f 626 623 624 627
f 781 624 623 625
f 628 616 618 626
f 630 628 626 627
f 616 628 629 614
f 630 631 629 628
f 634 631 630 632
f 635 632 630 627
f 635 637 633 632
f 634 632 633 717
f 635 627 624 636
f 638 637 635 636
f 638 47 639 637
f 640 633 637 639
f 48 642 640 639
f 640 641 717 633
f 640 642 643 641
f 643 642 52 645
f 643 644 718 641
f 643 645 646 644
f 645 56 648 646
f 644 646 647 720
f 649 647 646 648
f 687 649 648 650 651
f 56 58 650 648
f 651 650 652 653
f 58 60 652 650
f 653 652 654 655
f 60 656 654 652
f 655 654 657 658
f 656 659 657 654
f 658 657 660 661
f 659 73 660 657
f 594 661 660 662
f 73 75 662 660
f 594 662 80 591
f 658 661 593 663
f 656 61 68 659
f 655 658 663 664
f 666 664 663 665
f 593 596 665 663
f 666 665 667 669
f 667 665 596 598
f 667 598 601 668
f 667 668 671 669
f 690 666 669 670
f 672 670 669 671
f 672 671 673 676
f 673 671 668 675
f 673 675 768 674
f 673 674 678 676
f 672 676 677 670
f 680 677 676 678
f 751 679 678 674
f 679 681 680 678
f 680 681 683 682
f 680 682 684 677
f 686 685 682 683
f 684 682 685 688
f 692 687 685 686
f 687 651 688 685
f 684 688 689 690
f 651 653 689 688
f 690 689 664 666
f 653 655 664 689
f 684 690 670 677
f 687 691 647 649
f 693 691 687 692
f 695 693 692 686
f 697 694 693 695
f 694 721 691 693
f 695 686 683 696
f 697 695 696 698
f 699 697 698 701
f 699 700 694 697
f 702 705 700 699
f 702 699 701 704
f 702 703 706 705
f 760 703 702 704
f 705 706 710 707
f 705 707 708 700
f 709 719 708 707
f 712 709 707 710
f 713 712 710 711
f 767 711 710 706
f 714 712 713 715
f 716 709 712 714
f 634 714 715 631
f 716 714 634 717
f 718 716 717 641
f 718 719 709 716
f 718 644 720 719
f 719 720 721 708
f 720 647 691 721
f 700 708 721 694
f 724 722 715 713 711
f 631 715 722 629
f 723 722 724 726
f 723 614 629 722
f 724 711 767 725
f 724 725 727 726
f 730 728 726 727
f 613 723 726 728
f 611 613 728 729
f 730 732 729 728
f 731 733 732 730
f 731 730 727 766
f 736 729 732 734
f 734 732 733 737
f 735 734 737 738
f 736 734 735 776
f 739 742 738 737
f 739 737 733 740
f 741 739 740 764
f 741 744 742 739
f 744 746 743 742
f 775 738 742 743
f 761 745 744 741
f 744 745 748 746
f 749 747 746 748
f 746 747 773 743
f 751 749 748 750
f 750 748 745 752
f 750 753 679 751
f 750 752 754 753
f 753 754 756 755
f 753 755 681 679
f 683 681 755 696
f 696 755 756 698
f 757 756 754 758
f 757 701 698 756
f 757 758 704 701
f 760 704 758 759
f 759 758 754 752
f 760 759 761 762
f 761 759 752 745
f 761 741 764 762
f 763 703 760 762
f 763 762 764 765
f 764 740 766 765
f 727 725 765 766
f 725 767 763 765
f 731 766 740 733
f 763 767 706 703
f 768 749 751 674
f 768 769 747 749
f 768 675 771 769
f 747 769 770 773
f 602 770 769 771
f 601 771 675 668
f 602 604 772 770
f 774 773 770 772
f 775 743 773 774
f 774 772 776 735
f 775 774 735 738
f 604 606 776 772
f 606 609 736 776
f 736 609 611 729
f 45 47 638 777
f 638 636 778 777
f 779 777 778 780
f 45 777 779 43
f 27 30 43 779
f 25 27 779 780
f 781 625 780 778
f 622 25 780 625
f 781 778 636 624
f 36 65 63 38
f 38 63 782 41
f 783 41 782 50
