# Selected authored Tendon material faces only; NOT a verified humeral insertion patch
# Original source world coordinate frame in meters
o Coracobrachialis muscle.r Tendon
v -0.1935534179 0.03046303988 1.233090639
v -0.1931711882 0.02954472601 1.235091209
v -0.1941374391 0.03026138246 1.23309958
v -0.1938074529 0.03070626035 1.232979774
v -0.1940926462 0.02975739539 1.234526515
v -0.1941227764 0.02951401658 1.236419797
v -0.1951153278 0.02859620005 1.242501378
v -0.1934041083 0.02761584148 1.247224927
v -0.1954773217 0.02834777534 1.243614554
v -0.1956707686 0.02863011137 1.243067145
v -0.1951827854 0.02891155705 1.242525697
v -0.1938860565 0.02969489992 1.243916512
v -0.195125699 0.02851471491 1.247210145
v -0.1950289756 0.0288711153 1.247255206
v -0.1935348213 0.02769687027 1.249019504
v -0.1949723512 0.02886000648 1.248607159
v -0.193554461 0.02965626121 1.248606324
v -0.1932249367 0.02952311188 1.257335186
v -0.1913563907 0.02716104686 1.250913858
v -0.1909368336 0.02751588821 1.248689055
v -0.1896176934 0.02734617144 1.246013403
v -0.1904440969 0.02707149088 1.253130794
v -0.1895024329 0.02715108544 1.253474116
v -0.1849282533 0.02774188109 1.249677181
v -0.1933873892 0.03124662489 1.233065367
v -0.1866403073 0.02701672167 1.248276949
v -0.1922972947 0.03091529012 1.251281857
v -0.1910620332 0.03082533926 1.261043668
v -0.1931679249 0.02766039968 1.253340721
v -0.1946339458 0.02840147913 1.250920177
v -0.1890164912 0.02747146785 1.262582779
v -0.1922920048 0.02897293307 1.258949637
v -0.1922663003 0.0289722085 1.260124207
v -0.1930431426 0.03220351413 1.233805537
v -0.1921154857 0.03241096437 1.248947263
v -0.1930090338 0.03258698434 1.235208273
v -0.1929128319 0.03306836635 1.236335993
v -0.1928455234 0.03305536136 1.235152245
v -0.1899091601 0.03147123754 1.240026355
v -0.1924656779 0.03276620805 1.235879779
v -0.1929617822 0.0338931568 1.235668778
v -0.1927635074 0.03325483575 1.23614347
v -0.1926918924 0.03394053131 1.236509919
v -0.1930188239 0.03406979144 1.236495137
v -0.1924530268 0.0298335366 1.260883927
v -0.1934230775 0.03535103798 1.238140821
v -0.186686039 0.02639353089 1.252263188
v -0.1861167848 0.02675048634 1.257404447
v -0.1863036305 0.02682996541 1.258311272
v -0.1904962957 0.03226571158 1.24011445
v -0.1908484399 0.02916394174 1.264853477
v -0.1882323474 0.02769709006 1.265253544
v -0.1905221343 0.03317059577 1.239963055
v -0.1931877434 0.03503571451 1.237026334
v -0.1913094223 0.03380573541 1.239740849
v -0.1924729049 0.03461342305 1.249174476
v -0.1931993365 0.0354831256 1.242487669
v -0.1898923814 0.03371901438 1.243424654
v -0.1925869286 0.02951098233 1.260548949
v -0.1914316863 0.03002147935 1.264460087
v -0.1930865049 0.03533187509 1.238018036
v -0.1934071332 0.03560480475 1.240632176
v -0.1934518963 0.03568622097 1.239866018
v -0.1926330328 0.03588370234 1.241819501
v -0.1899606586 0.03487146646 1.243461967
v -0.1922755986 0.03522393107 1.24892652
v -0.1921480596 0.03523261845 1.252750635
v -0.1919864863 0.03522263467 1.25472939
v -0.1835229993 0.02640210651 1.254886985
v -0.1857247651 0.02646845207 1.260644197
v -0.1851353496 0.03001627699 1.249308586
v -0.1884066015 0.0345536992 1.246528268
v -0.1866878867 0.03501361609 1.251564026
v -0.1846665442 0.03297430277 1.252567887
v -0.1905246675 0.03270629793 1.261209011
v -0.1902922392 0.03568268567 1.247191072
v -0.1899543107 0.03564238548 1.251321554
v -0.1873884797 0.03567782789 1.252913952
v -0.1919607073 0.03533229977 1.253941536
v -0.1915212572 0.03563347831 1.257990479
v -0.1868719757 0.03566047549 1.258853674
v -0.1915378124 0.03547070175 1.258885145
v -0.1913925409 0.03579871356 1.259499192
v -0.1909641773 0.03548201546 1.261596441
v -0.1905695796 0.03592050076 1.260955811
v -0.1829507202 0.02591659687 1.258605719
v -0.1805693805 0.02568154223 1.260803699
v -0.1820399761 0.02591530047 1.264773369
v -0.1848917305 0.02630902641 1.257944584
v -0.184113428 0.02903355472 1.25053978
v -0.1825775206 0.02978818864 1.253604293
v -0.1858968288 0.03379977494 1.251703024
v -0.1873337328 0.03449549526 1.248753548
v -0.1878263354 0.03578462452 1.256626248
v -0.1861549318 0.03545887768 1.255833507
v -0.186818257 0.03525584936 1.256322742
v -0.184671849 0.0353708528 1.263408303
v -0.1903728247 0.03563600406 1.265017509
v -0.1793569028 0.02785037458 1.260506511
v -0.178632006 0.02598046884 1.263217926
v -0.1829517484 0.03098738194 1.253213525
v -0.1798598021 0.03018447943 1.260119438
v -0.1813836396 0.03241293132 1.26028955
v -0.1842615902 0.03426757455 1.255692601
v -0.1820178032 0.0346031487 1.265895009
v -0.185459882 0.03522464633 1.260423899
v -0.1792341322 0.02882996947 1.260810614
v -0.1811305583 0.03267737478 1.262396812
v -0.1442087889 0.003388718702 1.382596016
v -0.144300729 0.00229000859 1.381622195
v -0.1419084668 0.001576242968 1.381095171
v -0.1422030032 0.001317245886 1.379218817
v -0.1449312121 0.00592087023 1.380224228
v -0.1394605339 0.002390382811 1.377840281
v -0.1416229457 0.001558851451 1.379934788
v -0.1427222341 0.001679463312 1.385506034
v -0.1420366764 0.001390276477 1.384848714
v -0.1431327015 0.002713648602 1.38712132
v -0.1456607878 0.005407765508 1.378539562
v -0.1435107738 0.004507563077 1.384177208
v -0.1441013366 0.009573679417 1.378284693
v -0.1379305571 0.004070531577 1.379870296
v -0.1425873786 0.002359634265 1.39021492
v -0.1404916048 0.001636140049 1.389344811
v -0.1419047117 0.001804990694 1.391031861
v -0.1417338401 0.001897573471 1.39112711
v -0.1419907659 0.003916433081 1.390582681
v -0.1414496005 0.003900797106 1.390727043
v -0.1414206326 0.007743555121 1.385272741
v -0.1410597861 0.004930553026 1.390919805
v -0.1438869387 0.01004281826 1.377414703
v -0.1351048052 0.00377815403 1.388480067
v -0.1382992864 0.004950924776 1.378506064
v -0.1391600072 0.001745697111 1.388602734
v -0.1393712759 0.003208992071 1.388471603
v -0.1381837875 0.003249542788 1.388077497
v -0.13787359 0.001934200525 1.388216376
v -0.1370359212 0.00328593608 1.388081908
v -0.1348440349 0.004584425129 1.388568282
v -0.1403859556 0.004389806651 1.389590144
v -0.140892446 0.005646396428 1.390933275
v -0.1402701586 0.00576013606 1.390940428
v -0.1386890411 0.005894952454 1.388880491
v -0.1406193823 0.005493973382 1.391174912
v -0.1388230175 0.007823697291 1.377855182
v -0.1391628683 0.008250228129 1.379756093
v -0.1403078288 0.009287692606 1.380288124
v -0.1395940632 0.007938603871 1.384426117
v -0.1418346465 0.009923252277 1.378708005
v -0.140595302 0.008593459614 1.382958412
v -0.1399144679 0.008167732507 1.385829568
v -0.140805915 0.008546487428 1.384258866
v -0.1401785165 0.006542824209 1.39113307
v -0.1398405284 0.006938732229 1.390406251
v -0.1387484819 0.007194926031 1.389667988
v -0.1402681917 0.006179778837 1.391346335
v -0.139919579 0.006455179304 1.391714096
v -0.1369388252 0.00534429308 1.388360858
v -0.136069864 0.002643423155 1.388145685
v -0.1351652443 0.0050183516 1.388785362
v -0.1367823035 0.006460752338 1.383922219
v -0.1383719444 0.007431923412 1.384476542
v -0.1373861134 0.006612605415 1.387141943
v -0.1387294531 0.007828042842 1.384832263
v -0.1373829693 0.006794685498 1.388924003
v -0.1352274567 0.005493801087 1.38862884
v -0.1371786594 0.006375627592 1.388497829
v -0.1379968226 0.006827195175 1.389157891
v -0.1373465508 0.006188784726 1.388643265
v -0.1396311969 0.006765387021 1.390481114
v -0.1361792386 0.005933055654 1.388741136
f 1 2 3
f 25 1 4
f 2 5 3
f 6 3 5
f 2 6 5
f 3 6 25
f 7 6 8
f 9 10 7
f 10 11 7
f 9 7 8
f 6 11 12
f 11 10 12
f 9 13 10
f 13 9 15
f 10 13 14
f 8 15 9
f 14 13 16
f 13 15 16
f 10 14 17
f 30 16 15
f 30 18 16
f 20 19 8
f 8 6 21
f 8 21 20
f 23 19 20
f 1 24 2
f 1 25 24
f 4 3 25
f 24 26 2
f 10 17 12
f 12 17 27
f 27 6 12
f 25 6 27
f 15 8 19
f 14 16 17
f 27 17 28
f 19 22 15
f 30 15 22
f 17 16 28
f 22 29 30
f 18 30 29
f 29 22 31
f 18 29 32
f 18 32 33
f 24 25 34
f 35 36 34
f 36 35 37
f 38 36 37
f 39 34 38
f 39 38 40
f 42 37 41
f 169 171 167
f 42 41 43
f 41 44 43
f 156 142 157
f 25 35 34
f 28 16 45
f 16 18 45
f 45 18 59
f 18 33 59
f 37 44 41
f 141 142 153
f 37 46 44
f 21 47 20
f 6 2 26
f 6 26 21
f 21 26 47
f 19 23 22
f 48 23 20
f 48 49 23
f 22 23 31
f 24 34 39
f 31 32 29
f 33 51 59
f 31 52 32
f 33 32 52
f 33 52 51
f 42 43 53
f 40 42 39
f 53 50 42
f 42 50 39
f 37 35 56
f 56 57 37
f 53 55 58
f 35 25 27
f 27 28 35
f 59 51 45
f 51 60 45
f 45 60 28
f 54 53 43
f 11 6 7
f 61 54 46
f 46 54 44
f 54 55 53
f 37 62 46
f 46 62 63
f 57 62 37
f 61 63 64
f 64 63 62
f 54 61 65
f 65 61 64
f 62 57 64
f 57 66 64
f 57 56 66
f 35 67 56
f 66 56 67
f 67 35 68
f 79 67 68
f 47 26 69
f 26 24 69
f 23 49 70
f 70 31 23
f 71 39 50
f 65 58 55
f 58 65 72
f 65 64 73
f 58 74 53
f 65 73 72
f 28 75 35
f 65 55 54
f 66 76 64
f 66 67 77
f 76 66 77
f 64 76 73
f 78 73 76
f 77 78 76
f 75 68 35
f 68 80 79
f 81 79 80
f 79 81 67
f 82 68 75
f 68 82 80
f 83 81 80
f 75 84 82
f 75 98 84
f 80 82 83
f 82 84 83
f 81 83 85
f 83 84 85
f 85 84 98
f 86 47 69
f 24 87 69
f 48 20 47
f 49 48 88
f 48 47 89
f 47 86 89
f 89 88 48
f 88 70 49
f 88 89 86
f 24 39 90
f 90 39 71
f 90 71 91
f 71 50 91
f 91 50 53
f 74 58 92
f 58 72 92
f 72 93 92
f 93 72 73
f 94 77 67
f 78 77 95
f 95 73 78
f 94 67 81
f 94 96 77
f 77 96 95
f 81 85 97
f 86 69 87
f 24 90 99
f 87 99 100
f 91 99 90
f 91 53 101
f 101 53 74
f 102 101 74
f 74 92 103
f 104 103 93
f 103 92 93
f 93 73 104
f 104 73 95
f 106 105 95
f 106 95 96
f 96 94 106
f 81 106 94
f 97 106 81
f 107 100 99
f 99 87 24
f 91 102 107
f 91 101 102
f 107 99 91
f 102 74 103
f 102 103 108
f 103 104 108
f 113 119 109
f 110 116 109
f 116 118 109
f 120 113 109
f 118 120 109
f 112 115 111
f 137 115 114
f 125 116 117
f 116 125 123
f 117 124 125
f 124 117 134
f 124 126 125
f 118 127 120
f 116 123 118
f 118 123 127
f 123 125 127
f 125 126 127
f 126 128 127
f 128 130 127
f 126 124 128
f 127 130 120
f 129 152 121
f 131 121 152
f 114 122 132
f 114 159 137
f 114 132 159
f 111 115 117
f 115 134 117
f 137 134 115
f 124 134 135
f 135 134 136
f 137 136 134
f 137 138 136
f 128 124 140
f 130 141 120
f 124 135 140
f 170 142 140
f 135 143 140
f 143 170 140
f 140 130 128
f 140 144 130
f 144 140 142
f 148 147 149
f 150 148 149
f 147 148 164
f 120 154 129
f 152 129 151
f 151 150 152
f 153 154 120
f 154 155 129
f 153 120 141
f 130 144 141
f 142 141 144
f 156 153 142
f 156 157 153
f 154 153 170
f 170 153 157
f 122 133 132
f 132 133 139
f 138 158 136
f 137 159 138
f 158 138 159
f 161 162 163
f 139 145 161
f 164 165 163
f 166 161 163
f 163 167 166
f 136 143 135
f 158 143 136
f 158 169 143
f 143 169 168
f 168 169 165
f 171 169 158
f 4 1 3
f 163 165 167
f 169 167 165
f 161 145 146
f 161 146 162
f 148 150 168
f 168 150 151
f 129 155 151
f 155 168 151
f 148 168 164
f 162 164 163
f 164 168 165
f 170 143 168
f 170 168 155
f 170 155 154
f 157 142 170
f 159 132 160
f 132 139 160
f 171 159 160
f 160 166 171
f 160 139 166
f 166 139 161
f 159 171 158
f 171 166 167
f 46 63 61
f 44 54 43
f 38 34 36
f 42 40 37
f 40 38 37
