# Selected authored Tendon material faces only; NOT a verified humeral insertion patch
# Original source world coordinate frame in meters
o Coracobrachialis muscle.l Tendon
v 0.1935533583 0.03046303615 1.233090639
v 0.1931711286 0.02954472229 1.235091209
v 0.1941373795 0.03026137874 1.23309958
v 0.1938073933 0.03070625663 1.232979774
v 0.1940925866 0.02975739166 1.234526515
v 0.1941227168 0.02951401472 1.236419797
v 0.1951152682 0.02859619632 1.242501378
v 0.1934040487 0.02761583962 1.247224927
v 0.1954772621 0.02834777348 1.243614554
v 0.195670709 0.02863010764 1.243067145
v 0.1951827258 0.02891155332 1.242525697
v 0.1938859969 0.02969489619 1.243916512
v 0.1951256394 0.02851471305 1.247210145
v 0.195028916 0.02887111157 1.247255206
v 0.1935347617 0.02769686654 1.249019504
v 0.1949722916 0.02886000276 1.248607159
v 0.1935544014 0.02965625748 1.248606324
v 0.1932248771 0.02952310815 1.257335186
v 0.1913563311 0.027161045 1.250913858
v 0.190936774 0.02751588449 1.248689055
v 0.1896176338 0.02734616771 1.246013403
v 0.1904440373 0.02707148716 1.253130794
v 0.1895023733 0.02715108171 1.253474116
v 0.1849281937 0.02774187922 1.249677181
v 0.1933873296 0.03124662116 1.233065367
v 0.1866402477 0.02701671794 1.248276949
v 0.1922972351 0.03091528639 1.251281857
v 0.1910619736 0.03082533553 1.261043668
v 0.1931678653 0.02766039781 1.253340721
v 0.1946338862 0.0284014754 1.250920177
v 0.1890164316 0.02747146413 1.262582779
v 0.1922919452 0.02897293121 1.258949637
v 0.1922662407 0.02897220477 1.260124207
v 0.193043083 0.0322035104 1.233805537
v 0.1921154261 0.03241096064 1.248947263
v 0.1930089742 0.03258698061 1.235208273
v 0.1929127723 0.0330683589 1.236335993
v 0.1928454638 0.03305535764 1.235152245
v 0.1899091005 0.03147123381 1.240026355
v 0.1924656183 0.03276620433 1.235879779
v 0.1929617226 0.03389315307 1.235668778
v 0.1927634478 0.03325483203 1.23614347
v 0.1926918328 0.03394052759 1.236509919
v 0.1930187643 0.03406978399 1.236495137
v 0.1924529672 0.02983353473 1.260884047
v 0.1934230179 0.03535103053 1.238140821
v 0.1866859794 0.02639352903 1.252263188
v 0.1861167252 0.02675048448 1.257404447
v 0.1863035709 0.02682996169 1.258311272
v 0.1904962361 0.03226570785 1.24011445
v 0.1908483803 0.02916393802 1.264853477
v 0.1882322878 0.02769708633 1.265253544
v 0.1905220747 0.03317059204 1.239963055
v 0.1931876838 0.03503570706 1.237026334
v 0.1913093626 0.03380573168 1.239740968
v 0.1924728453 0.0346134156 1.249174476
v 0.1931992769 0.03548312187 1.242487669
v 0.1898923218 0.03371901065 1.243424654
v 0.192586869 0.02951098047 1.260548949
v 0.1914316267 0.03002147749 1.264460087
v 0.1930864453 0.03533186764 1.238018036
v 0.1934070736 0.0356047973 1.240632176
v 0.1934518367 0.03568621725 1.239866018
v 0.1926329732 0.03588369489 1.241819501
v 0.1899605989 0.03487145901 1.243461967
v 0.192275539 0.03522392362 1.24892652
v 0.192148 0.035232611 1.252750635
v 0.1919864267 0.03522263467 1.25472939
v 0.1835229397 0.02640210465 1.254886985
v 0.1857247055 0.02646844834 1.260644197
v 0.18513529 0.03001627326 1.249308586
v 0.1884065419 0.0345536992 1.246528268
v 0.1866878271 0.03501361609 1.251564026
v 0.1846664846 0.03297430277 1.252567887
v 0.1905246079 0.03270629421 1.261209011
v 0.1902921796 0.03568267822 1.247191072
v 0.1899542511 0.03564238176 1.251321554
v 0.1873884201 0.03567782044 1.252913952
v 0.1919606477 0.03533229232 1.253941536
v 0.1915211976 0.03563347459 1.257990479
v 0.1868719161 0.03566046804 1.258853674
v 0.1915377527 0.03547070175 1.258885145
v 0.1913924813 0.03579871356 1.259499192
v 0.1909641176 0.03548201174 1.261596441
v 0.19056952 0.03592050076 1.260955811
v 0.1829506606 0.02591659501 1.258605719
v 0.1805693209 0.02568153851 1.260803699
v 0.1820399165 0.02591529861 1.264773369
v 0.1848916709 0.02630902454 1.257944584
v 0.1841133684 0.02903355286 1.25053978
v 0.182577461 0.02978818491 1.253604293
v 0.1858967692 0.03379977122 1.251703024
v 0.1873336732 0.03449549153 1.248753548
v 0.1878262758 0.03578462079 1.256626248
v 0.1861548722 0.03545887768 1.255833507
v 0.1868181974 0.03525584191 1.256322742
v 0.1846717894 0.03537084907 1.263408303
v 0.1903727651 0.03563600034 1.265017509
v 0.1793568432 0.02785037085 1.260506511
v 0.1786319464 0.02598046698 1.263217926
v 0.1829516888 0.03098737821 1.253213525
v 0.1798597425 0.03018447757 1.260119438
v 0.18138358 0.0324129276 1.26028955
v 0.1842615306 0.03426757082 1.255692601
v 0.1820177436 0.03460314497 1.265895009
v 0.1854598224 0.03522463888 1.260423899
v 0.1792340726 0.0288299676 1.260810614
v 0.1811304986 0.03267737105 1.262396812
v 0.1442087293 0.003388718702 1.382596016
v 0.1443006694 0.00229000859 1.381622195
v 0.1419084072 0.001576242968 1.381095171
v 0.1422029436 0.001317245886 1.379218817
v 0.1449311525 0.00592087023 1.380224228
v 0.1394604743 0.002390382811 1.377840281
v 0.1416228861 0.001558851451 1.379934788
v 0.1427221745 0.001679463312 1.385506034
v 0.1420366168 0.001390276477 1.384848714
v 0.1431326419 0.002713648602 1.38712132
v 0.1456607282 0.005407765508 1.378539562
v 0.1435107142 0.004507563077 1.384177208
v 0.144101277 0.009573678486 1.378284693
v 0.1379304975 0.004070531577 1.379870296
v 0.142587319 0.002359634265 1.39021492
v 0.1404915452 0.001636140049 1.389344811
v 0.1419046521 0.001804990694 1.391031861
v 0.1417337805 0.001897573471 1.39112711
v 0.1419907063 0.003916433081 1.390582681
v 0.1414495409 0.003900797106 1.390727043
v 0.141420573 0.00774355419 1.385272741
v 0.1410597265 0.004930553026 1.390919805
v 0.1438868791 0.01004281733 1.377414703
v 0.1351047456 0.00377815403 1.388480067
v 0.1382992268 0.004950924776 1.378506064
v 0.1391599476 0.001745697111 1.388602734
v 0.1393712163 0.003208992071 1.388471603
v 0.1381837279 0.003249542788 1.388077497
v 0.1378735304 0.001934200525 1.388216376
v 0.1370358616 0.00328593608 1.388081908
v 0.1348439753 0.004584425129 1.388568282
v 0.140385896 0.004389806651 1.389590144
v 0.1408923864 0.005646396428 1.390933275
v 0.140270099 0.00576013606 1.390940428
v 0.1386889815 0.005894952454 1.388880372
v 0.1406193227 0.005493973382 1.391174912
v 0.1388229579 0.00782369636 1.377855182
v 0.1391628087 0.008250227198 1.379756093
v 0.1403077692 0.009287691675 1.380288124
v 0.1395940036 0.007938602939 1.384426117
v 0.1418345869 0.009923251346 1.378708005
v 0.1405952424 0.008593458682 1.382958412
v 0.1399144083 0.008167731576 1.385829568
v 0.1408058554 0.008546486497 1.384258866
v 0.1401784569 0.006542824209 1.39113307
v 0.1398404688 0.006938732229 1.390406251
v 0.1387484223 0.0071949251 1.389667988
v 0.1402681321 0.006179778837 1.391346335
v 0.1399195194 0.006455179304 1.391714096
v 0.1369387656 0.00534429308 1.388360858
v 0.1360698044 0.002643423155 1.388145685
v 0.1351651847 0.0050183516 1.388785362
v 0.1367822438 0.006460752338 1.383922219
v 0.1383718848 0.00743192248 1.384476542
v 0.1373860538 0.006612605415 1.387141943
v 0.1387293935 0.007828041911 1.384832144
v 0.1373829097 0.006794685498 1.388924003
v 0.1352273971 0.005493801087 1.388628721
v 0.1371785998 0.006375627592 1.388497829
v 0.137996763 0.006827195175 1.389157891
v 0.1373464912 0.006188784726 1.388643265
v 0.1396311373 0.006765387021 1.390481114
v 0.136179179 0.005933055654 1.388741136
f 3 2 1
f 4 1 25
f 3 5 2
f 5 3 6
f 5 6 2
f 25 6 3
f 8 6 7
f 7 10 9
f 7 11 10
f 8 7 9
f 12 11 6
f 12 10 11
f 10 13 9
f 15 9 13
f 14 13 10
f 9 15 8
f 16 13 14
f 16 15 13
f 17 14 10
f 15 16 30
f 16 18 30
f 8 19 20
f 21 6 8
f 20 21 8
f 20 19 23
f 2 24 1
f 24 25 1
f 25 3 4
f 2 26 24
f 12 17 10
f 27 17 12
f 12 6 27
f 27 6 25
f 19 8 15
f 17 16 14
f 28 17 27
f 15 22 19
f 22 15 30
f 28 16 17
f 30 29 22
f 29 30 18
f 31 22 29
f 32 29 18
f 33 32 18
f 34 25 24
f 34 36 35
f 37 35 36
f 37 36 38
f 38 34 39
f 40 38 39
f 41 37 42
f 167 171 169
f 43 41 42
f 43 44 41
f 157 142 156
f 34 35 25
f 45 16 28
f 45 18 16
f 59 18 45
f 59 33 18
f 41 44 37
f 153 142 141
f 44 46 37
f 20 47 21
f 26 2 6
f 21 26 6
f 47 26 21
f 22 23 19
f 20 23 48
f 23 49 48
f 31 23 22
f 39 34 24
f 29 32 31
f 59 51 33
f 32 52 31
f 52 32 33
f 51 52 33
f 53 43 42
f 39 42 40
f 42 50 53
f 39 50 42
f 56 35 37
f 37 57 56
f 58 55 53
f 27 25 35
f 35 28 27
f 45 51 59
f 45 60 51
f 28 60 45
f 43 53 54
f 7 6 11
f 46 54 61
f 44 54 46
f 53 55 54
f 46 62 37
f 63 62 46
f 37 62 57
f 64 63 61
f 62 63 64
f 65 61 54
f 64 61 65
f 64 57 62
f 64 66 57
f 66 56 57
f 56 67 35
f 67 56 66
f 68 35 67
f 68 67 79
f 69 26 47
f 69 24 26
f 70 49 23
f 23 31 70
f 50 39 71
f 55 58 65
f 72 65 58
f 73 64 65
f 53 74 58
f 72 73 65
f 35 75 28
f 54 55 65
f 64 76 66
f 77 67 66
f 77 66 76
f 73 76 64
f 76 73 78
f 76 78 77
f 35 68 75
f 79 80 68
f 80 79 81
f 67 81 79
f 75 68 82
f 80 82 68
f 80 81 83
f 82 84 75
f 84 98 75
f 83 82 80
f 83 84 82
f 85 83 81
f 85 84 83
f 98 84 85
f 69 47 86
f 69 87 24
f 47 20 48
f 88 48 49
f 89 47 48
f 89 86 47
f 48 88 89
f 49 70 88
f 86 89 88
f 90 39 24
f 71 39 90
f 91 71 90
f 91 50 71
f 53 50 91
f 92 58 74
f 92 72 58
f 92 93 72
f 73 72 93
f 67 77 94
f 95 77 78
f 78 73 95
f 81 67 94
f 77 96 94
f 95 96 77
f 97 85 81
f 87 69 86
f 99 90 24
f 100 99 87
f 90 99 91
f 101 53 91
f 74 53 101
f 74 101 102
f 103 92 74
f 93 103 104
f 93 92 103
f 104 73 93
f 95 73 104
f 95 105 106
f 96 95 106
f 106 94 96
f 94 106 81
f 81 106 97
f 99 100 107
f 24 87 99
f 107 102 91
f 102 101 91
f 91 99 107
f 103 74 102
f 108 103 102
f 108 104 103
f 109 119 113
f 109 116 110
f 109 118 116
f 109 113 120
f 109 120 118
f 111 115 112
f 114 115 137
f 117 116 125
f 123 125 116
f 125 124 117
f 134 117 124
f 125 126 124
f 120 127 118
f 118 123 116
f 127 123 118
f 127 125 123
f 127 126 125
f 127 128 126
f 127 130 128
f 128 124 126
f 120 130 127
f 121 152 129
f 152 121 131
f 132 122 114
f 137 159 114
f 159 132 114
f 117 115 111
f 117 134 115
f 115 134 137
f 135 134 124
f 136 134 135
f 134 136 137
f 136 138 137
f 140 124 128
f 120 141 130
f 140 135 124
f 140 142 170
f 140 143 135
f 140 170 143
f 128 130 140
f 130 144 140
f 142 140 144
f 149 147 148
f 149 148 150
f 164 148 147
f 129 154 120
f 151 129 152
f 152 150 151
f 120 154 153
f 129 155 154
f 141 120 153
f 141 144 130
f 144 141 142
f 142 153 156
f 153 157 156
f 170 153 154
f 157 153 170
f 132 133 122
f 139 133 132
f 136 158 138
f 138 159 137
f 159 138 158
f 163 162 161
f 161 145 139
f 163 165 164
f 163 161 166
f 166 167 163
f 135 143 136
f 136 143 158
f 143 169 158
f 168 169 143
f 165 169 168
f 158 169 171
f 3 1 4
f 167 165 163
f 165 167 169
f 146 145 161
f 162 146 161
f 168 150 148
f 151 150 168
f 151 155 129
f 151 168 155
f 164 168 148
f 163 164 162
f 165 168 164
f 168 143 170
f 155 168 170
f 154 155 170
f 170 142 157
f 160 132 159
f 160 139 132
f 160 159 171
f 171 166 160
f 166 139 160
f 161 139 166
f 158 171 159
f 167 166 171
f 61 63 46
f 43 54 44
f 36 34 38
f 37 40 42
f 37 38 40
